<svg width="45" height="90" viewBox="0 0 45 90" fill="none" xmlns="http://www.w3.org/2000/svg">
<g id="1_Atoms / Logo / Ministerie">
<g id="Ministerie logo">
<path id="Ministerie logo_2" fill-rule="evenodd" clip-rule="evenodd" d="M45 90H0V0H45V90ZM25.1455 60.1019C24.881 60.1841 24.7576 59.8973 24.7576 59.7015C24.7576 59.6693 24.7623 59.6217 24.7681 59.5627C24.7935 59.3036 24.8404 58.8253 24.6078 58.4792C24.6889 58.3428 25.1878 58.1313 25.343 58.1033C25.3906 58.0963 25.3941 58.0596 25.3394 58.0368C25.2372 57.9934 25.0722 57.9944 24.9203 57.9952C24.7604 57.9962 24.615 57.997 24.5725 57.9459C24.5725 57.9459 24.4861 57.2605 24.4561 57.243C24.4244 57.2273 23.8073 57.5472 23.8073 57.5472C23.7401 57.5427 23.6571 57.4228 23.5658 57.291C23.4798 57.1669 23.3866 57.0322 23.2925 56.9737C23.2449 56.944 23.2149 56.9667 23.2361 57.0104C23.3031 57.1538 23.4106 57.6801 23.3454 57.8253C22.7953 57.7763 22.6067 57.9809 22.5732 58.1313C22.4409 58.1662 21.9226 58.4547 21.9226 58.5597C21.9226 58.5929 21.9526 58.6681 22.0019 58.6925C22.0019 58.6925 21.9755 58.8831 22.1394 59.0265C22.4921 58.7835 22.9558 58.8324 22.8782 59.2836C22.8782 59.2836 22.7988 59.378 22.3634 59.378C22.3634 59.378 22.3828 59.5318 22.4215 59.5791C22.4215 59.5791 22.3193 59.7015 22.3898 59.8151C22.3898 59.8151 22.7777 59.6245 22.9893 59.6787C23.0792 59.8938 22.9998 60.1806 22.3757 60.2802C21.5947 60.3991 21.1698 60.6212 21.0851 61.4657C21.5733 61.4263 21.9164 61.6044 22.2763 61.7912C22.3635 61.8365 22.4517 61.8823 22.5432 61.9256C23.252 62.2561 24.033 61.7962 24.033 61.7962C23.862 61.6423 23.8214 61.1912 24.1035 60.9831C24.2516 61.2664 24.5725 61.3014 24.777 61.1527C24.7982 61.137 24.7947 61.1125 24.777 61.1038C24.4315 60.9184 24.3944 60.6037 24.5549 60.2732C24.7329 60.532 25.1261 60.3309 25.1684 60.1124C25.1702 60.0984 25.1579 60.0949 25.1455 60.1019ZM18.9871 60.0197C19.0452 60.0477 19.1969 60.1124 19.2445 60.0512L19.4172 59.8151L19.8016 59.9935L19.9814 59.7399L19.6553 59.635L21.2033 57.4791C21.2403 57.4283 21.2279 57.1066 21.2138 56.9877C21.0957 57.0139 20.7854 57.1014 20.7466 57.1556L19.1739 59.2923L18.9694 59.016L18.7861 59.2678L19.077 59.5738L18.9324 59.7696C18.6009 59.5738 18.3047 59.8116 18.206 59.9183C18.1954 59.9288 18.199 59.9323 18.2113 59.9323C18.3065 59.9043 18.6715 59.8256 18.6697 60.0704C18.2695 59.948 18.109 60.2155 18.0685 60.3012C18.0579 60.3169 18.0685 60.3239 18.0755 60.3204C18.1461 60.2995 18.4052 60.2295 18.511 60.3414L18.1884 60.7786C18.1178 60.8747 18.4564 61.1195 18.5251 61.0251L18.9483 60.4516C18.9483 60.4516 20.3111 61.1772 20.6514 61.3836C20.6726 61.102 20.7748 60.8398 20.9388 60.6247C20.5156 60.5075 19.6623 60.2348 19.6623 60.2348C19.62 60.2995 19.4772 60.3572 19.3785 60.3572C19.1598 60.3572 19.0135 60.1124 18.9765 60.0302C18.9712 60.0197 18.9729 60.0162 18.9871 60.0197ZM30.9866 71.2628C30.999 71.2698 30.9954 71.2873 30.9778 71.2908C30.8209 71.317 30.1721 71.3712 30.0434 70.7925C29.8167 71.0824 29.5952 71.005 29.3413 70.9163C29.2062 70.8691 29.0619 70.8187 28.9026 70.8187C28.6805 70.8187 28.4072 70.8939 28.3561 71.338C28.3508 71.3608 28.3332 71.3678 28.312 71.338C27.8131 70.6613 28.3825 70.2819 28.7087 70.2312C28.6382 70.1665 28.1516 69.8692 27.8413 70.3099C27.8254 70.3361 27.7919 70.3274 27.7919 70.2924C27.7919 69.4391 28.4354 69.3779 28.9062 69.7486C28.9943 69.4146 28.7404 69.1961 28.4143 69.1961C28.3755 69.1961 28.3596 69.1681 28.3825 69.1454C28.8994 68.5967 29.2987 69.1583 29.4482 69.3686C29.4654 69.3929 29.4794 69.4125 29.4898 69.4251C29.7207 69.7329 30.5458 69.1611 30.8773 68.8184C30.8773 68.8184 30.1456 68.0595 30.1456 67.3688C30.1456 67.3442 30.1473 67.3157 30.1488 67.2908C30.1499 67.2715 30.1509 67.2544 30.1509 67.2429C30.1509 67.2237 30.1421 67.215 30.1209 67.2272C30.0469 67.2674 29.9482 67.2971 29.853 67.2971C29.6855 67.2971 29.3716 67.2429 29.3716 66.6554C29.3716 66.6117 29.3893 66.6135 29.4104 66.6397C29.4968 66.7656 29.5938 66.7918 29.6661 66.7918C29.8953 66.7918 30.2218 66.4963 30.6206 66.1355C31.2462 65.5693 32.0497 64.8422 32.9348 64.8422C33.3139 64.8422 34.0315 65.115 34.3929 65.5014C34.2183 65.6063 34.1849 65.8161 34.2025 65.97C34.2272 66.2183 34.4264 66.3407 34.6309 66.3966C34.6662 66.4054 34.6679 66.4299 34.6309 66.4473L34.611 66.4548C33.8737 66.7326 32.5636 67.226 32.2631 67.4825C31.9052 67.7885 31.9739 68.369 32.1802 69.1681C32.3731 69.9063 32.7769 69.8396 32.9479 69.8114C32.9552 69.8102 32.962 69.809 32.9683 69.8081C32.9912 69.8046 32.9983 69.8185 32.9842 69.836C32.7955 70.0738 32.5663 70.1525 32.3689 70.1525C32.1471 70.1525 32.006 70.073 31.8882 70.0066C31.8037 69.9591 31.7312 69.9182 31.6495 69.9182C31.3181 69.9182 30.6234 70.3886 30.6234 70.747C30.6234 70.9481 30.7821 71.1317 30.9866 71.2628ZM15.6604 70.9161C15.4066 71.0049 15.1846 71.0826 14.9566 70.7925C14.8297 71.3712 14.1809 71.317 14.024 71.2908C14.0046 71.2873 14.001 71.2698 14.0134 71.2628C14.2179 71.1317 14.3766 70.9481 14.3766 70.747C14.3766 70.3886 13.6819 69.9182 13.3522 69.9182C13.2695 69.9182 13.1963 69.9594 13.1113 70.0072C12.9935 70.0735 12.8531 70.1525 12.6329 70.1525C12.4354 70.1525 12.2062 70.0738 12.0158 69.836C12.0017 69.8185 12.0088 69.8046 12.0334 69.8081C12.0398 69.8091 12.0467 69.8102 12.054 69.8114C12.2249 69.8396 12.627 69.9061 12.8198 69.1681C13.0278 68.369 13.0966 67.7885 12.7387 67.4825C12.4412 67.2271 11.1394 66.7368 10.4003 66.4584L10.3708 66.4473C10.3338 66.4299 10.3356 66.4054 10.3708 66.3966C10.5736 66.3407 10.7728 66.2183 10.7993 65.97C10.8169 65.8161 10.7834 65.6063 10.6089 65.5014C10.9703 65.115 11.6879 64.8422 12.0652 64.8422C12.9515 64.8422 13.755 65.5697 14.3803 66.1359C14.7787 66.4966 15.1048 66.7918 15.3339 66.7918C15.408 66.7918 15.5032 66.7656 15.5913 66.6397C15.609 66.6135 15.6301 66.6117 15.6301 66.6554C15.6301 67.2429 15.3163 67.2971 15.147 67.2971C15.0536 67.2971 14.9513 67.2674 14.8791 67.2272C14.8597 67.215 14.8509 67.2237 14.8509 67.2429C14.8509 67.2544 14.8519 67.2715 14.853 67.2908C14.8545 67.3157 14.8561 67.3442 14.8561 67.3688C14.8561 68.0595 14.1245 68.8184 14.1245 68.8184C14.4542 69.1611 15.2793 69.7329 15.5102 69.4251C15.52 69.413 15.533 69.3946 15.5491 69.3719C15.6961 69.1642 16.0996 68.5938 16.6192 69.1454C16.6404 69.1681 16.6263 69.1961 16.5875 69.1961C16.2613 69.1961 16.0074 69.4146 16.0956 69.7486C16.5628 69.3779 17.2099 69.4391 17.2099 70.2924C17.2099 70.3274 17.1764 70.3361 17.1587 70.3099C16.8502 69.8692 16.3618 70.1665 16.2913 70.2312C16.6192 70.2819 17.1869 70.6613 16.688 71.338C16.6668 71.3678 16.6474 71.3608 16.6439 71.338C16.5945 70.8939 16.3213 70.8187 16.0974 70.8187C15.939 70.8187 15.7952 70.869 15.6604 70.9161ZM22.3581 59.1821C22.3281 59.1734 22.0513 59.1419 21.7974 59.2066C21.3848 59.3098 21.1803 59.1594 21.1468 59.016C21.1363 58.9776 21.1045 58.9793 21.0922 59.0195C21.0023 59.3483 21.242 59.5686 21.4642 59.5686C21.6222 59.5686 21.7112 59.5149 21.8164 59.4513C21.9343 59.3802 22.0726 59.2967 22.351 59.2626C22.3969 59.2556 22.3969 59.1961 22.3581 59.1821ZM23.118 58.3288C22.7601 58.3079 22.5309 58.3865 22.5414 58.5002C22.716 58.6821 22.9469 58.6611 23.118 58.3288ZM19.7166 67.6355C19.8554 67.6844 19.9746 67.7263 20.1048 67.5699C20.1824 67.8847 20.5209 67.8567 20.6161 67.8374C20.625 67.8374 20.6302 67.8304 20.6197 67.8234C20.4698 67.7255 20.4204 67.6189 20.4204 67.5402C20.4204 67.3321 20.8453 67.0838 20.9776 67.0838C21.0313 67.0838 21.0701 67.107 21.115 67.1337C21.1762 67.1701 21.2485 67.2132 21.3848 67.2132C21.4871 67.2132 21.6105 67.1712 21.7163 67.0453C21.7322 67.0279 21.7251 67.0174 21.704 67.0244C21.4095 67.0891 21.2385 66.8128 21.2385 66.318C21.2385 65.3872 21.7298 65.2042 22.827 64.7955L22.8941 64.7705C22.9187 64.7635 22.9152 64.7373 22.8888 64.7425C22.6666 64.788 22.3704 64.4418 22.6701 64.0816C22.4709 63.9452 22.2258 63.842 22.0354 63.8385C21.2679 63.8385 20.6709 64.5766 20.4605 64.8366C20.4337 64.8699 20.4131 64.8953 20.3993 64.9104C20.2864 65.0363 20.0625 65.2513 19.9233 65.0607C19.9074 65.0363 19.8986 65.038 19.8986 65.0677C19.8986 65.4559 20.2142 65.4577 20.3376 65.3877C20.3499 65.3825 20.3587 65.3842 20.3552 65.4C20.3076 65.7951 20.5527 66.4578 20.5615 66.4788C20.5262 66.5155 20.1613 66.86 19.9021 66.86C19.8257 66.86 19.7768 66.7941 19.7226 66.7212C19.6555 66.6308 19.5803 66.5295 19.4349 66.5295C19.3538 66.5295 19.2727 66.5697 19.188 66.6589C19.1792 66.6694 19.1828 66.6869 19.2057 66.6869C19.4067 66.6956 19.5213 66.8163 19.4772 66.9929C19.2304 66.7866 18.8548 66.8198 18.8636 67.2884C18.8636 67.3111 18.8813 67.3181 18.8954 67.3006C19.0682 67.0506 19.3432 67.2324 19.3696 67.2604C19.1863 67.2866 18.876 67.493 19.1545 67.8707C19.1651 67.8847 19.1739 67.8794 19.1757 67.8654C19.181 67.785 19.2215 67.5804 19.4684 67.5804C19.5602 67.5804 19.6413 67.609 19.7166 67.6355ZM18.1108 63.4189L18.5569 63.5343C18.4387 63.6567 18.4846 63.8315 18.504 63.8927C18.5075 63.9032 18.5181 63.9067 18.5251 63.8962C18.5657 63.8315 18.7067 63.6497 18.9606 63.6567C18.9782 63.6567 18.9782 63.6637 18.9694 63.6707C18.8813 63.7144 18.5992 63.8857 18.6926 64.2232C18.6979 64.2372 18.7138 64.2407 18.7226 64.2284C18.8301 64.0746 19.0347 64.0046 19.1158 63.9784L19.0347 64.5747C19.5001 64.7023 20.0061 64.398 20.0555 63.877L19.5354 63.7563C20.0943 63.3559 20.8489 63.0831 21.5488 63.0831C22.6578 63.0831 23.3683 64.2687 23.3683 64.9751C23.3683 65.1499 23.3489 65.4122 23.2132 65.608C23.0069 65.9018 22.85 65.8371 22.7777 65.7637C22.7583 65.7462 22.746 65.7479 22.7548 65.7776C22.8447 66.1571 23.3436 66.1466 23.4036 65.9525C23.4212 65.9018 23.4441 65.9175 23.4477 65.9385C23.5679 66.3663 23.8845 66.3772 24.2474 66.3898C24.6558 66.4039 25.1228 66.4201 25.4347 67.0349C25.4064 67.0506 25.1155 67.2027 24.9463 67.0961C24.6166 66.8845 24.4368 67.0961 24.375 67.2359C24.3662 67.2604 24.3768 67.2674 24.3927 67.2639C24.7559 67.1887 24.9004 67.4178 24.9216 67.4825C24.6448 67.3653 24.2604 67.5 24.4368 67.9633C24.4456 67.9878 24.4614 67.9878 24.4702 67.9633C24.5884 67.6399 24.8652 67.7553 24.8934 67.7727C24.7329 67.8497 24.5002 68.1609 24.9022 68.4249C24.9181 68.4389 24.9339 68.4337 24.9304 68.411C24.8899 68.1819 25.0027 68.0105 25.172 68.0105L25.1801 68.0106C25.2789 68.0108 25.5137 68.0114 25.6286 67.7343C25.7873 68.0105 26.1205 67.9056 26.2757 67.8514C26.2986 67.8409 26.3003 67.8165 26.2704 67.8112C26.0606 67.7483 25.7802 67.6014 26.0112 67.4423C26.0112 67.4423 26.452 67.6014 26.6212 67.1747C26.63 67.1503 26.6212 67.138 26.5965 67.152C26.5754 67.1642 26.1381 67.3898 26.0376 66.9807C26.0239 66.9261 26.0112 66.8642 25.9979 66.7992C25.9446 66.5389 25.8811 66.2291 25.6991 66.1466C25.9477 66.0434 26.0376 65.8406 25.8419 65.5731C25.8278 65.5538 25.8049 65.5294 25.8031 65.5731C25.7714 66.1973 24.4579 65.678 24.4262 64.8055C25.35 65.0345 26.2739 64.8142 26.2739 63.8927C26.2739 63.3673 25.9721 63.0173 25.7249 62.7307C25.5535 62.5318 25.4082 62.3634 25.4082 62.1879C25.4082 61.8889 25.6691 61.8137 25.7996 61.8137C26.1522 61.8137 26.5577 62.2333 26.6336 62.5743C26.6371 62.5918 26.6565 62.5953 26.6688 62.5778C26.7958 62.396 26.8169 62.1144 26.7147 62.0288C26.6882 62.0078 26.7147 61.9711 26.7499 61.9973C26.8381 62.055 27.5345 61.9903 27.5345 61.5164C27.5345 61.43 27.5202 61.3612 27.5087 61.3055C27.4987 61.2575 27.4908 61.2193 27.4957 61.1877C27.5045 61.1265 27.4111 61.1038 27.3793 61.179C27.3773 61.1844 27.3751 61.1903 27.3728 61.1965C27.332 61.3061 27.25 61.5269 26.9262 61.5269C26.7879 61.5269 26.6008 61.4933 26.4055 61.4583C26.1926 61.42 25.9701 61.3801 25.7908 61.3801C25.1455 61.3801 24.9057 61.8644 24.9057 62.2001C24.9057 62.5794 25.1086 62.8027 25.3092 63.0235C25.5052 63.2393 25.6991 63.4526 25.6991 63.807C25.6991 64.3438 24.9392 64.5135 24.398 64.0081C24.2604 63.3839 24.137 62.931 23.7826 62.4117C22.899 62.6924 22.4627 62.447 22.071 62.2268C21.8407 62.0972 21.6257 61.9763 21.3443 61.9763C21.0018 61.9763 20.6036 62.302 20.205 62.6279C19.8608 62.9094 19.5163 63.1911 19.2074 63.2632L19.3026 62.5953L19.3767 62.5813L19.3555 62.0253C19.3555 62.0253 19.2057 62.3855 19.1828 62.4379C19.1651 62.4816 19.1404 62.4799 19.1263 62.4449C19.054 62.2806 18.9112 61.9588 18.9112 61.9588C18.9112 61.9588 18.9088 62.078 18.9063 62.2053C18.904 62.3219 18.9015 62.4453 18.9007 62.4904C18.9007 62.5236 18.8742 62.5323 18.8548 62.5026L18.5198 62.0148C18.5198 62.0148 18.6009 62.396 18.645 62.5988C18.6521 62.6285 18.6274 62.639 18.608 62.6198L18.1496 62.1914C18.1496 62.1914 18.2748 62.4991 18.3858 62.7754C18.3982 62.7999 18.377 62.8209 18.3488 62.7999C18.2642 62.7422 17.8463 62.4677 17.8463 62.4677C17.8463 62.4677 18.0438 62.7509 18.1884 62.9642C18.2042 62.987 18.1919 63.0115 18.1584 62.9992C17.8569 62.8891 17.6453 62.8104 17.6453 62.8104C17.6453 62.8104 17.8305 62.9905 18.042 63.195C18.065 63.216 18.0614 63.244 18.0191 63.244C17.9363 63.244 17.5537 63.2475 17.5537 63.2475L18.0738 63.4731L18.1108 63.4189ZM31.9969 75.3807C31.4098 74.7197 26.9209 74.4889 22.5009 74.4889C18.0808 74.4889 13.592 74.7197 13.0049 75.3807C12.9573 75.4331 12.9379 75.3789 12.9379 75.337L12.9361 73.0149C12.9361 72.3382 17.5678 71.943 22.5009 71.943C27.434 71.943 32.0639 72.3382 32.0639 73.0149V75.337C32.0639 75.3789 32.0445 75.4331 31.9969 75.3807ZM29.7137 76.5347V75.5275C31.8646 75.5275 32.1785 76.2042 32.1785 76.3056C32.39 76.2217 32.5293 76.0888 32.5293 75.8161V74.6165C32.5397 74.6129 32.5505 74.609 32.562 74.6049C32.9325 74.473 33.88 74.1357 35.7134 74.1357C37.2861 74.1357 37.778 74.4872 37.8009 74.6096L38.2188 76.8967C38.2188 76.8967 37.5823 76.3196 35.3027 76.4683C34.3451 76.5286 33.3755 76.7633 32.5189 76.9706C30.9196 77.3576 29.7137 77.6494 29.7137 76.5347ZM12.4724 75.8161C12.4724 76.0888 12.6117 76.2217 12.8215 76.3056C12.8215 76.2042 13.1354 75.5275 15.2881 75.5275V76.5347C15.2881 77.6493 14.0824 77.3576 12.4828 76.9707C11.6258 76.7633 10.6557 76.5287 9.69735 76.4683C7.41944 76.3196 6.78297 76.8967 6.78297 76.8967L7.19906 74.6096C7.22374 74.4872 7.71564 74.1357 9.28655 74.1357C11.1218 74.1357 12.0693 74.473 12.4398 74.6049C12.4512 74.609 12.4621 74.6129 12.4724 74.6165V75.8161ZM16.7109 56.8496C16.9207 56.7849 17.395 56.6502 18.0561 56.5069V58.2816H18.846V56.3512C19.8545 56.1676 21.1239 56.0103 22.5009 56.0103C25.3377 56.0103 27.7302 56.6765 28.2909 56.8496C28.2803 56.5611 28.171 56.2935 27.9083 56.2323C27.8765 56.2236 27.8677 56.1781 27.8995 56.1572C28.4621 55.7896 28.772 56.45 28.8093 56.5294C28.811 56.5331 28.8122 56.5356 28.8127 56.5366C29.0172 56.5226 29.3364 56.5873 29.3364 56.8688C29.3364 57.7011 31.2652 58.1662 31.7112 58.2344C30.9231 58.5369 30.597 59.5179 30.597 59.5179C30.0257 58.9513 29.3558 58.453 29.2094 58.453C29.0578 58.453 28.9996 58.6436 28.9873 58.7555C28.9837 58.7905 28.9467 58.8045 28.9256 58.7712C28.6834 58.4116 28.7324 58.2773 28.7716 58.1701C28.7806 58.1455 28.789 58.1222 28.7933 58.098C28.8145 57.9949 28.7845 57.6084 28.3473 57.6539V63.23L28.5694 63.2737C28.6275 63.2845 28.9101 63.0726 29.3124 62.771C29.6302 62.5327 30.0227 62.2384 30.4383 61.9536C31.2987 61.364 31.7939 61.6344 32.6936 62.1257C32.7784 62.1721 32.8668 62.2204 32.9595 62.2701C34.3629 63.0254 35.784 62.34 35.784 62.34C36.997 63.1985 37.4078 65.6797 37.4078 65.6797C37.6476 65.7812 38.0478 65.8913 38.4286 65.8913C39.3525 65.8913 39.52 65.3353 39.52 65.003C39.52 64.2922 39.0706 63.7858 38.6228 63.2812C38.1784 62.7804 37.7357 62.2815 37.7357 61.5864C37.7357 61.2489 37.8926 59.8711 39.6081 59.8711C39.8303 59.8711 41.1385 59.8693 41.1473 59.8693C41.73 59.8693 41.9144 59.4902 42.0121 59.2896C42.022 59.2692 42.031 59.2507 42.0394 59.2346C42.0729 59.1629 42.1399 59.2049 42.1152 59.2591C42.09 59.3159 42.1072 59.3884 42.131 59.4894C42.1557 59.5937 42.1875 59.7284 42.1875 59.9078C42.1875 60.4743 41.8525 60.8153 41.2284 60.8153C40.9445 60.8153 40.6748 60.7348 40.5901 60.6824C40.5302 60.6509 40.5002 60.7034 40.5284 60.7366C40.8017 61.0513 40.8229 61.6423 40.71 61.7857C40.6836 61.8207 40.6483 61.812 40.6448 61.7822C40.4932 61.1825 39.9272 60.6177 39.1656 60.6177C38.2381 60.6177 38.2382 61.397 38.2382 61.593V61.5951C38.2382 62.1162 38.6636 62.574 39.1232 63.0686C39.663 63.6495 40.2499 64.2811 40.2499 65.1254C40.2499 66.7096 38.5608 67.0453 37.5858 66.7953C37.644 68.3812 39.4723 68.9198 39.527 67.7867C39.5323 67.7343 39.5711 67.7203 39.6028 67.792C39.8338 68.3533 39.7403 68.8446 39.0298 69.002C38.9804 69.0125 39.0016 69.0404 39.0492 69.0702C39.6333 69.438 39.47 70.7008 39.3776 71.4147C39.3584 71.5627 39.3423 71.6872 39.3366 71.7752C39.2837 72.5183 40.0277 72.4274 40.0877 72.4064C40.1194 72.3959 40.1476 72.4099 40.1018 72.4693C39.5746 73.1111 38.924 72.5253 38.924 72.5253C38.4321 72.6774 38.7371 73.0936 39.0651 73.3086C39.1144 73.3454 39.1109 73.3803 39.0563 73.3838C39.054 73.3839 39.0511 73.3841 39.0476 73.3843C38.9364 73.3904 38.2182 73.4302 38.0866 72.847C37.7481 73.2492 37.2544 73.1023 37.1504 73.0499C37.0023 72.9764 36.2882 72.7176 36.2177 73.5132C36.2124 73.5709 36.1807 73.5342 36.1577 73.5027C35.6182 72.833 36.1965 72.4169 36.5174 72.3697C36.491 72.3295 36.059 71.9762 35.6711 72.4693C35.6447 72.5026 35.62 72.5096 35.6147 72.4431C35.5706 71.5916 36.2706 71.5129 36.7219 71.8836C36.7228 71.88 36.7239 71.8758 36.7251 71.871C36.7541 71.7579 36.8668 71.3178 36.2089 71.3345C36.1948 71.3345 36.1613 71.3083 36.1965 71.2768C36.7255 70.7208 37.1627 71.2261 37.2632 71.3468C37.487 71.6048 38.0192 71.5245 38.1276 71.5081C38.1345 71.5071 38.1397 71.5063 38.143 71.5059C38.0334 69.7358 37.0492 69.3981 36.1974 69.1059C35.6239 68.9092 35.1103 68.733 34.9641 68.1539C34.9483 68.0787 34.9148 68.1067 34.906 68.1347C34.8072 68.4862 33.9151 68.5351 33.7511 67.8409C33.7423 67.799 33.7458 67.7657 33.7793 67.7972C34.5392 68.5508 36.2565 66.1956 33.9151 64.2757C31.9158 62.6425 30.1262 63.5553 29.4439 64.0938C29.4087 64.3299 29.5497 64.405 29.6414 64.4348C29.6714 64.4435 29.6819 64.4732 29.6326 64.4942C29.4422 64.5659 29.1742 64.5414 29.049 64.3666C28.6188 64.6656 28.9855 65.038 29.1583 65.1429C29.2041 65.1709 29.1847 65.1971 29.1477 65.2041C28.7545 65.2758 28.4284 64.8772 28.4143 64.6481L28.3473 64.6848V66.3652C28.3473 68.0189 27.0199 68.6908 25.1928 69.6155C24.3714 70.0312 23.449 70.4981 22.5009 71.1282C21.5525 70.4982 20.63 70.0315 19.8085 69.6159C17.9805 68.691 16.6527 68.0192 16.6527 66.3652V64.6848L16.5875 64.6481C16.5716 64.8772 16.2472 65.2758 15.854 65.2041C15.817 65.1971 15.7976 65.1709 15.8417 65.1429C16.0163 65.038 16.3812 64.6656 15.9528 64.3666C15.8276 64.5414 15.5596 64.5659 15.3692 64.4942C15.3163 64.4732 15.3269 64.4435 15.3604 64.4348C15.4521 64.405 15.5931 64.3299 15.5561 64.0938C14.8755 63.5553 13.086 62.6425 11.0867 64.2757C8.74528 66.1956 10.4625 68.5508 11.2224 67.7972C11.2542 67.7657 11.2594 67.799 11.2506 67.8409C11.0867 68.5351 10.1945 68.4862 10.094 68.1347C10.087 68.1067 10.0517 68.0787 10.0359 68.1539C9.8904 68.7331 9.37738 68.9092 8.80416 69.106C7.95313 69.3982 6.9694 69.736 6.85878 71.5059C6.86206 71.5063 6.86725 71.5071 6.87416 71.5081C6.98255 71.5245 7.51481 71.6048 7.73856 71.3468C7.83906 71.2261 8.27454 70.7208 8.80523 71.2768C8.84049 71.3083 8.80699 71.3345 8.79112 71.3345C8.13386 71.3177 8.24644 71.7593 8.27504 71.8715C8.27621 71.8761 8.27724 71.8801 8.27807 71.8836C8.73118 71.5129 9.43112 71.5916 9.38528 72.4431C9.38176 72.5096 9.35707 72.5026 9.33063 72.4693C8.94275 71.9762 8.51079 72.3295 8.48435 72.3697C8.80523 72.4169 9.38352 72.833 8.84402 73.5027C8.8211 73.5342 8.7876 73.5709 8.78231 73.5132C8.71179 72.7176 7.99774 72.9764 7.8514 73.0499C7.74738 73.1023 7.25195 73.2492 6.9152 72.847C6.78344 73.4308 6.0621 73.3904 5.95365 73.3843C5.95036 73.3841 5.94763 73.3839 5.9455 73.3838C5.88909 73.3803 5.88556 73.3454 5.93669 73.3086C6.26462 73.0936 6.56964 72.6774 6.07773 72.5253C6.07773 72.5253 5.42716 73.1111 4.89999 72.4693C4.85415 72.4099 4.88413 72.3959 4.91234 72.4064C4.97404 72.4274 5.71807 72.5183 5.66517 71.7752C5.65922 71.6887 5.64338 71.567 5.62455 71.4224C5.53176 70.7098 5.36633 69.4393 5.95256 69.0702C5.99663 69.0404 6.01955 69.0125 5.97195 69.002C5.25966 68.8446 5.16622 68.3533 5.39895 67.792C5.42892 67.7203 5.46771 67.7343 5.473 67.7867C5.52765 68.9198 7.35774 68.3812 7.41415 66.7953C6.4374 67.0453 4.75189 66.7096 4.75189 65.1254C4.75189 64.2811 5.33829 63.6495 5.87761 63.0686C6.33677 62.574 6.76181 62.1162 6.76181 61.5951V61.5919C6.76184 61.3942 6.76196 60.6177 5.83443 60.6177C5.07278 60.6177 4.50859 61.1825 4.35696 61.7822C4.35167 61.812 4.31818 61.8207 4.29173 61.7857C4.17889 61.6423 4.20005 61.0513 4.47333 60.7366C4.49977 60.7034 4.4698 60.6509 4.41162 60.6824C4.32523 60.7348 4.05724 60.8153 3.77338 60.8153C3.14749 60.8153 2.8125 60.4743 2.8125 59.9078C2.8125 59.7272 2.84478 59.5918 2.86971 59.4872C2.89354 59.3873 2.91067 59.3155 2.88655 59.2591C2.86187 59.2049 2.92886 59.1629 2.96236 59.2346C2.97015 59.2497 2.97847 59.267 2.98758 59.286C3.08368 59.4857 3.26831 59.8693 3.85448 59.8693L3.93934 59.8694C4.234 59.8698 5.20495 59.8711 5.39189 59.8711C7.10914 59.8711 7.26606 61.2489 7.26606 61.5864C7.26606 62.2815 6.82288 62.7804 6.37805 63.2812C5.92989 63.7858 5.48005 64.2922 5.48005 65.003C5.48005 65.3353 5.64931 65.8913 6.57493 65.8913C6.95223 65.8913 7.35245 65.7812 7.59399 65.6797C7.59399 65.6797 8.00479 63.1985 9.21779 62.34C9.21779 62.34 10.6388 63.0254 12.0423 62.2701C12.1337 62.2209 12.2211 62.1732 12.3049 62.1273C13.2053 61.635 13.7022 61.3633 14.5635 61.9536C14.9827 62.2409 15.3782 62.5379 15.697 62.7774C16.094 63.0756 16.3721 63.2844 16.4288 63.2737L16.6527 63.23V57.6539C16.2172 57.6084 16.1873 57.9949 16.2067 58.098C16.211 58.1224 16.2196 58.1457 16.2287 58.1705C16.2682 58.2776 16.3178 58.412 16.0744 58.7712C16.0515 58.8045 16.0163 58.7905 16.0127 58.7555C16.0004 58.6436 15.9422 58.453 15.7906 58.453C15.6442 58.453 14.976 58.9513 14.4048 59.5179C14.4048 59.5179 14.0769 58.5369 13.2905 58.2344C13.7366 58.1662 15.6636 57.7011 15.6636 56.8688C15.6636 56.5873 15.981 56.5226 16.189 56.5366C16.1978 56.5139 16.5134 55.7725 17.1023 56.1572C17.1323 56.1781 17.1235 56.2236 17.0917 56.2323C16.8308 56.2935 16.7197 56.5611 16.7109 56.8496ZM26.2915 55.171C26.2915 55.171 24.9251 54.7129 22.5009 54.7129C20.0749 54.7129 18.7085 55.171 18.7085 55.171L18.7075 55.0884C18.6944 53.9268 18.6871 53.2814 18.0015 53.3805C18.1963 52.8605 17.8636 52.502 17.4902 52.0994C17.1301 51.7113 16.7321 51.2823 16.7321 50.6283C16.7321 49.7505 17.3544 49.6543 17.5396 49.6543C17.8256 49.6543 17.939 49.7498 18.048 49.8415C18.1486 49.9261 18.2453 50.0075 18.4705 50.0075C18.4826 50.0075 18.4948 50.0069 18.5064 50.0063C18.5504 50.0041 18.5868 50.0023 18.5868 50.0355C18.5868 50.1876 18.4564 50.4499 18.2413 50.4499C18.0881 50.4499 18.015 50.3679 17.9473 50.2919C17.8887 50.2261 17.8342 50.1649 17.7353 50.1649C17.6436 50.1649 17.5113 50.2401 17.5113 50.5321C17.5113 51.0969 17.8851 51.7211 18.3277 52.2089C18.4282 52.0708 18.5657 51.9834 18.7296 51.9834C18.9906 51.9834 19.2198 52.2544 19.2198 52.5884C19.2198 52.7108 19.2004 52.7999 19.1545 52.9031C19.3026 52.987 19.4331 53.0325 19.5318 53.0325C19.7293 53.0325 20.0308 52.9503 20.0308 52.5202C20.0308 52.0671 19.7426 51.6391 19.4373 51.1857C19.0935 50.675 18.7279 50.1321 18.7279 49.4847C18.7279 48.9042 19.121 48.3202 19.9409 48.3202C20.3966 48.3202 20.5723 48.5346 20.7416 48.7413C20.8992 48.9336 21.0512 49.1193 21.4183 49.1193C21.4536 49.1193 21.4818 49.1297 21.4818 49.1612C21.4818 49.2119 21.3513 49.6526 20.9564 49.6526C20.738 49.6526 20.6009 49.4598 20.4682 49.2731C20.3437 49.0982 20.2232 48.9287 20.0431 48.9287C19.9021 48.9287 19.694 49.0108 19.694 49.5004C19.694 49.8834 19.8845 50.4954 20.1577 51.0864C20.2565 50.9902 20.3905 50.9185 20.5421 50.9185C20.8683 50.9185 21.1028 51.2298 21.1028 51.6057C21.1028 51.8417 21.0093 52.0708 20.8471 52.2212C21.0375 52.466 21.235 52.6636 21.503 52.6636C22.0284 52.6636 22.2611 52.3663 22.2611 52.0446C22.2611 51.8889 22.1336 51.7773 21.9922 51.6534C21.8158 51.4988 21.6176 51.3252 21.6176 51.0234C21.6176 50.6527 21.8609 50.4447 22.0954 50.4447C22.2843 50.4447 22.404 50.5383 22.4627 50.5842C22.4818 50.5991 22.4944 50.609 22.5009 50.609C22.5068 50.609 22.5187 50.5996 22.5369 50.5853C22.5948 50.5399 22.7159 50.4447 22.9064 50.4447C23.1409 50.4447 23.3842 50.6527 23.3842 51.0234C23.3842 51.3252 23.186 51.4988 23.0096 51.6534C22.8681 51.7773 22.7407 51.8889 22.7407 52.0446C22.7407 52.3663 22.9734 52.6636 23.4988 52.6636C23.7668 52.6636 23.9625 52.466 24.1547 52.2212C23.9925 52.0708 23.8972 51.8417 23.8972 51.6057C23.8972 51.2298 24.1317 50.9185 24.4597 50.9185C24.6095 50.9185 24.7453 50.9902 24.844 51.0864C25.1173 50.4954 25.3077 49.8834 25.3077 49.5004C25.3077 49.0108 25.0979 48.9287 24.9586 48.9287C24.7773 48.9287 24.6562 49.099 24.5314 49.2744C24.3989 49.4606 24.2623 49.6526 24.0453 49.6526C23.6504 49.6526 23.5182 49.2119 23.5182 49.1612C23.5182 49.1297 23.5482 49.1193 23.5817 49.1193C23.9486 49.1193 24.1007 48.9338 24.2583 48.7416C24.428 48.5348 24.604 48.3202 25.0609 48.3202C25.8807 48.3202 26.2739 48.9042 26.2739 49.4847C26.2739 50.1321 25.9083 50.675 25.5644 51.1857C25.2591 51.6391 24.971 52.0671 24.971 52.5202C24.971 52.9503 25.2707 53.0325 25.4699 53.0325C25.5651 53.0325 25.6991 52.987 25.8455 52.9031C25.8014 52.7999 25.7802 52.7108 25.7802 52.5884C25.7802 52.2544 26.0077 51.9834 26.2704 51.9834C26.4361 51.9834 26.5736 52.0708 26.6723 52.2089C27.1166 51.7211 27.4887 51.0969 27.4887 50.5321C27.4887 50.2401 27.3582 50.1649 27.2647 50.1649C27.1669 50.1649 27.1128 50.2259 27.0546 50.2914C26.987 50.3676 26.914 50.4499 26.7605 50.4499C26.5454 50.4499 26.4132 50.1876 26.4132 50.0355C26.4132 50.0023 26.4508 50.0041 26.4953 50.0063C26.507 50.0069 26.5192 50.0075 26.5313 50.0075C26.7556 50.0075 26.8523 49.9261 26.9529 49.8415C27.0618 49.7498 27.1753 49.6543 27.4604 49.6543C27.6456 49.6543 28.2715 49.7505 28.2715 50.6283C28.2715 51.2821 27.8727 51.7111 27.5121 52.0992C27.1378 52.5019 26.8045 52.8604 27.0003 53.3805C26.3103 53.281 26.3038 53.9317 26.2922 55.1016L26.2915 55.171ZM21.8944 49.5354C21.8944 49.2032 22.1659 48.9357 22.5009 48.9357C22.8341 48.9357 23.1056 49.2032 23.1056 49.5354C23.1056 49.8659 22.8341 50.1369 22.5009 50.1369C22.1659 50.1369 21.8944 49.8659 21.8944 49.5354ZM22.3105 45.6187C22.2611 45.547 22.1976 45.4211 22.1976 45.276C22.1976 45.0277 22.3598 44.9053 22.5009 44.9053C22.6402 44.9053 22.8041 45.0277 22.8041 45.276C22.8041 45.4211 22.7407 45.547 22.6913 45.6187C22.589 45.7621 22.6067 45.8407 22.6525 45.8879C22.7001 45.9369 22.7812 45.9526 22.9275 45.8512C22.9963 45.8023 23.1233 45.7376 23.2696 45.7376C23.5199 45.7376 23.6434 45.9019 23.6434 46.0383C23.6434 46.1782 23.5199 46.3391 23.2696 46.3391C23.1233 46.3391 22.9963 46.2779 22.9275 46.2289C22.7812 46.1275 22.7001 46.145 22.6525 46.1922C22.6067 46.2394 22.6754 46.736 22.7318 47.1277C23.1444 47.2133 23.3436 47.5403 23.3436 47.7327C23.3436 48.224 22.8112 48.5073 22.5009 48.6716C22.1888 48.5073 21.6581 48.224 21.6581 47.7327C21.6581 47.5403 21.8574 47.2133 22.2682 47.1277C22.3263 46.736 22.3969 46.2394 22.3475 46.1922C22.2999 46.145 22.2188 46.1275 22.076 46.2289C22.0037 46.2779 21.8767 46.3391 21.7304 46.3391C21.4818 46.3391 21.3584 46.1782 21.3584 46.0383C21.3584 45.9019 21.4818 45.7376 21.7304 45.7376C21.8767 45.7376 22.0037 45.8023 22.076 45.8512C22.2188 45.9526 22.2999 45.9369 22.3475 45.8879C22.3969 45.8407 22.4127 45.7621 22.3105 45.6187ZM34.3788 54.9034C34.2571 55.477 33.7458 55.5574 33.432 55.2077C33.4585 54.9314 33.7353 54.8702 34.3788 54.9034ZM38.0742 58.1033C38.0989 58.0928 38.1218 58.084 38.1218 58.1418C38.1218 58.4845 37.6722 58.8691 37.1415 58.5754C37.1395 58.5782 37.1369 58.5818 37.1338 58.586C37.0295 58.7283 36.3583 59.6439 37.4695 60.0005C37.5224 60.0162 37.5382 60.0669 37.4607 60.0984C36.6179 60.4481 36.2071 59.8046 36.2071 59.8046C35.7804 60.7681 36.431 61.3066 36.431 61.3066C36.3429 61.478 35.9374 61.7682 35.3238 61.9064C35.0911 61.7822 34.7649 61.5462 34.6292 61.1825C34.6292 61.1825 34.4617 61.6056 34.6133 62.0078C33.7224 62.087 33.1285 61.7627 32.5802 61.4632C32.0639 61.1812 31.588 60.9213 30.9425 61.0408C30.9037 61.0478 30.8861 61.0234 30.8861 60.9831C30.8861 60.1368 31.408 58.5929 33.053 58.2781C34.6997 57.9651 34.2571 57.2972 34.2571 57.2972C33.5642 57.264 33.164 57.5647 33.164 57.5647C33.0388 57.3584 33.2152 57.1346 33.2152 57.1346C33.1499 57.0559 33.1129 56.7779 33.1129 56.7779C33.8939 56.7761 34.0985 56.6083 34.0985 56.6083C34.2183 56.1519 33.8957 55.4997 32.7374 56.1974C32.4482 55.9421 32.4694 55.5504 32.4694 55.5504C32.383 55.5084 32.3266 55.3756 32.3266 55.3144C32.3266 55.1255 33.2539 54.6097 33.492 54.5485C33.5519 54.2687 33.9116 53.8683 34.9994 54.0134C35.5142 54.0746 35.8862 53.9435 35.7117 53.6445C35.6835 53.5955 35.7734 53.585 35.8228 53.634C35.9426 53.7512 36.1084 54.0851 35.657 54.3107C35.1563 54.5625 35.1263 55.0591 35.1228 55.1308C35.1122 55.2357 35.2427 55.2427 35.2709 55.1395C35.5019 54.3019 36.6549 54.1184 37.3425 54.566C37.3002 55.0136 36.8136 55.3109 36.5474 55.3109C36.3922 55.3109 36.1807 55.1605 36.1807 54.9489C36.1807 54.8492 36.1278 54.8632 36.0978 54.9419C35.985 55.2392 36.4293 55.8564 37.0922 55.4822C37.7147 56.1012 37.5317 56.8538 37.4468 57.203C37.4401 57.2306 37.434 57.2557 37.4289 57.278C37.309 57.8235 37.577 58.3498 38.0742 58.1033ZM30.9037 56.1414C30.9655 56.4002 31.2846 56.5471 31.6213 56.5471C31.8067 56.5471 31.9275 56.5189 32.062 56.4875C32.2306 56.4481 32.4208 56.4037 32.7867 56.4037C32.8467 56.4037 33.2557 56.4072 33.2557 56.4894C33.2557 56.5408 33.1837 56.5443 33.0642 56.5502C32.9886 56.5539 32.894 56.5585 32.7867 56.5768C32.4774 56.6289 32.2598 56.7312 32.0664 56.8221C31.864 56.9172 31.688 57 31.4609 57C31.0589 57 30.6463 56.7289 30.8068 56.1502C30.8332 56.054 30.8896 56.0767 30.9037 56.1414ZM11.5697 55.2077C11.2559 55.5574 10.7429 55.477 10.6194 54.9034C11.2665 54.8702 11.5433 54.9314 11.5697 55.2077ZM7.87035 58.5895C7.86615 58.5837 7.86273 58.579 7.86022 58.5754C7.32776 58.8691 6.87818 58.4845 6.87818 58.1418C6.87818 58.084 6.90286 58.0928 6.92754 58.1033C7.42473 58.3498 7.69272 57.8235 7.57283 57.278C7.56772 57.2553 7.5615 57.2298 7.55464 57.2017C7.4694 56.852 7.2862 56.1005 7.90958 55.4822C8.57074 55.8564 9.0168 55.2392 8.9022 54.9419C8.87399 54.8632 8.8211 54.8492 8.8211 54.9489C8.8211 55.1605 8.60776 55.3109 8.45438 55.3109C8.18639 55.3109 7.70154 55.0136 7.65922 54.566C8.34506 54.1184 9.49989 54.3019 9.73085 55.1395C9.75906 55.2427 9.886 55.2357 9.87719 55.1308C9.87366 55.0591 9.84369 54.5625 9.34473 54.3107C8.89515 54.0851 9.05911 53.7512 9.179 53.634C9.22661 53.585 9.31829 53.5955 9.28831 53.6445C9.11553 53.9435 9.48578 54.0746 10.0006 54.0134C11.0902 53.8683 11.4499 54.2687 11.508 54.5485C11.7461 54.6097 12.6734 55.1255 12.6734 55.3144C12.6734 55.3756 12.6188 55.5084 12.5306 55.5504C12.5306 55.5504 12.5535 55.9421 12.2644 56.1974C11.1061 55.4997 10.7834 56.1519 10.9033 56.6083C10.9033 56.6083 11.1078 56.7761 11.8889 56.7779C11.8889 56.7779 11.8518 57.0559 11.7866 57.1346C11.7866 57.1346 11.9629 57.3584 11.8377 57.5647C11.8377 57.5647 11.4375 57.264 10.7446 57.2972C10.7446 57.2972 10.3021 57.9651 11.9453 58.2781C13.5938 58.5929 14.1139 60.1368 14.1139 60.9831C14.1139 61.0234 14.098 61.0478 14.0592 61.0408C13.4136 60.9213 12.9372 61.1814 12.4206 61.4634C11.8721 61.7628 11.2783 62.087 10.3885 62.0078C10.5401 61.6056 10.3726 61.1825 10.3726 61.1825C10.2369 61.5462 9.91068 61.7822 9.67796 61.9064C9.06264 61.7682 8.65889 61.478 8.56721 61.3066C8.56721 61.3066 9.21955 60.7681 8.79465 59.8046C8.79465 59.8046 8.38385 60.4481 7.53757 60.0984C7.46176 60.0669 7.47939 60.0162 7.53052 60.0005C8.63465 59.6467 7.98108 58.7427 7.87035 58.5895ZM11.7443 56.4894C11.7443 56.4072 12.1551 56.4037 12.2133 56.4037C12.5808 56.4037 12.7714 56.4482 12.9401 56.4877C13.0742 56.519 13.1945 56.5471 13.3787 56.5471C13.7172 56.5471 14.0363 56.4002 14.098 56.1414C14.1121 56.0767 14.1685 56.054 14.195 56.1502C14.3554 56.7289 13.9429 57 13.5409 57C13.3139 57 13.138 56.9174 12.9357 56.8224C12.7419 56.7314 12.5238 56.629 12.2133 56.5768C12.1054 56.5585 12.0107 56.5539 11.9352 56.5502C11.8158 56.5443 11.7443 56.5408 11.7443 56.4894ZM26.8557 60.1561H26.0641V57.9809H26.8557V60.1561ZM23.2925 69.7399H22.5009V67.5682H23.2925V69.7399Z" fill="#22426F"/>
</g>
</g>
</svg>
