<svg width="40" height="25" viewBox="0 0 40 25" fill="none" xmlns="http://www.w3.org/2000/svg">
<path d="M40 0H0V25H40V0Z" fill="#004995"/>
<path d="M19.9403 2.69434L19.6004 3.65898H18.6094L19.376 4.29496L19.1736 5.15123L19.9403 4.62383L20.7065 5.15123L20.5039 4.29496L21.2701 3.65898H20.2771L19.9403 2.69434Z" fill="#FFEC00"/>
<path d="M27.4982 6.99414L27.161 7.95899H26.168L26.934 8.59399L26.71 9.45045L27.4982 8.92344L28.2667 9.45045L28.0407 8.59399L28.8301 7.95899H27.8379L27.4982 6.99414Z" fill="#FFEC00"/>
<path d="M19.9412 19.8486L19.6014 20.8129H18.6104L19.377 21.4497L19.1746 22.3049L19.9412 21.7781L20.7075 22.3049L20.5049 21.4497L21.2711 20.8129H20.2781L19.9412 19.8486Z" fill="#FFEC00"/>
<path d="M11.052 11.2705L10.7135 12.2355H9.7207L10.4879 12.8941L10.2843 13.7496L11.052 13.2016L11.8408 13.7496L11.616 12.8941L12.3833 12.2355H11.39L11.052 11.2705Z" fill="#FFEC00"/>
<path d="M28.8309 11.2705L28.4918 12.2355H27.499L28.2673 12.8941L28.0415 13.7496L28.8309 13.2016L29.5998 13.7496L29.395 12.8941L30.1618 12.2355H29.1704L28.8309 11.2705Z" fill="#FFEC00"/>
<path d="M15.4963 3.9873L15.1594 4.95333H14.166L14.9327 5.5895L14.7297 6.4444L15.4963 5.91837L16.2865 6.4444L16.0601 5.5895L16.8294 4.95333H15.8358L15.4963 3.9873Z" fill="#FFEC00"/>
<path d="M24.3866 3.9873L24.0465 4.95333H23.0537L23.8201 5.5895L23.5962 6.4444L24.3866 5.91837L25.1504 6.4444L24.9502 5.5895L25.7165 4.95333H24.7241L24.3866 3.9873Z" fill="#FFEC00"/>
<path d="M15.4963 18.5537L15.1594 19.519H14.166L14.9327 20.1557L14.7297 21.011L15.4963 20.4842L16.2865 21.011L16.0601 20.1557L16.8294 19.519H15.8358L15.4963 18.5537Z" fill="#FFEC00"/>
<path d="M24.3866 18.5537L24.0465 19.519H23.0537L23.8201 20.1557L23.5962 21.011L24.3866 20.4842L25.1504 21.011L24.9502 20.1557L25.7165 19.519H24.7241L24.3866 18.5537Z" fill="#FFEC00"/>
<path d="M12.383 6.99414L12.0448 7.95899H11.0518L11.8406 8.59399L11.6154 9.45045L12.383 8.92344L13.1723 9.45045L12.9471 8.59399L13.7147 7.95899H12.7207L12.383 6.99414Z" fill="#FFEC00"/>
<path d="M12.383 15.5693L12.0448 16.5138H11.0518L11.8406 17.1494L11.6154 18.0043L12.383 17.4786L13.1723 18.0043L12.9471 17.1494L13.7147 16.5138H12.7207L12.383 15.5693Z" fill="#FFEC00"/>
<path d="M27.4982 15.5693L27.161 16.5138H26.168L26.934 17.1494L26.71 18.0043L27.4982 17.4786L28.2667 18.0043L28.0407 17.1494L28.8301 16.5138H27.8379L27.4982 15.5693Z" fill="#FFEC00"/>
<path d="M20.0138 11.4326V13.6285H19.6687L18.4231 12.1415V13.6285H18.0068V11.4326H18.3521L19.5977 12.9196V11.4326H20.0138Z" fill="white"/>
<path d="M20.668 11.4326H21.0875V13.2834H22.2685V13.6285H20.668V11.4326Z" fill="white"/>
</svg>
