<?xml version="1.0" encoding="utf-8"?>
<!-- Generator: Adobe Illustrator 24.3.0, SVG Export Plug-In . SVG Version: 6.00 Build 0)  -->
<svg version="1.1" id="Layer_1" xmlns="http://www.w3.org/2000/svg" xmlns:xlink="http://www.w3.org/1999/xlink" x="0px" y="0px"
	 viewBox="0 0 335 236" enable-background="new 0 0 335 236" xml:space="preserve">
<g>
	<g>
		<polygon fill="#DCEEFD" points="281.6,130.9 175.9,122.7 281.6,122.7 		"/>
	</g>
	<g>
		<path fill="#DCEEFD" d="M284.3,113.9h-94.4v-49c0-26,21.2-47.2,47.2-47.2s47.2,21.2,47.2,47.2V113.9z M190.8,113h92.5v-48
			c0-25.5-20.8-46.3-46.3-46.3s-46.3,20.8-46.3,46.3V113z"/>
	</g>
	<g>
		<path fill="#DCEEFD" d="M194.7,113.6h-0.9V65.1c0-25,20.5-46.2,45.7-47.3l0,0.9c-24.7,1-44.8,21.8-44.8,46.4V113.6z"/>
	</g>
	<g>
		<g>
			<circle fill="#F4C9DB" cx="168.4" cy="77.5" r="1.4"/>
		</g>
		<g>
			<polygon fill="#F4C9DB" points="177.3,82.5 168,77.8 171.5,67.2 177.9,68.2 180.8,80.7 			"/>
		</g>
		<g>
			<g>
				<path fill="#002031" d="M169.5,79.1l-1.2-16.3c-0.1-0.9,0.6-1.7,1.6-1.8l6.5-0.5c0.9-0.1,1.7,0.6,1.8,1.6l1.2,16.3
					c0.1,0.9-0.6,1.7-1.6,1.8l-6.5,0.5C170.4,80.7,169.6,80,169.5,79.1z"/>
			</g>
			<g>
				<path fill="#1540EB" d="M168.4,79.2l-1.2-16.3c-0.1-0.9,0.6-1.7,1.6-1.8l6.5-0.5c0.9-0.1,1.7,0.6,1.8,1.6l1.2,16.3
					c0.1,0.9-0.6,1.7-1.6,1.8l-6.5,0.5C169.3,80.8,168.5,80.1,168.4,79.2z"/>
			</g>
		</g>
		<g>
			<path fill="#F4C9DB" d="M183,77.5l-1.3-1.7l-0.1-2.8c0-1.6-1.2-3-2.8-3.3l-4.6-0.8c-0.9-0.2-1.8,0.5-1.9,1.4l0,0
				c-0.1,0.7,0.4,1.4,1.1,1.6l5.6,1.8l0.5,6.7L183,77.5z"/>
		</g>
		<g>
			<circle fill="#F4C9DB" cx="167.5" cy="72.6" r="1.4"/>
		</g>
		<g>
			<circle fill="#F4C9DB" cx="167.6" cy="75.2" r="1.4"/>
		</g>
		<g>
			<path fill="#FFFFFF" d="M169.2,65.1c-0.1,0-0.2,0-0.3,0c-0.3-0.1-0.6-0.3-0.8-0.6c-0.2-0.3-0.2-0.6-0.2-0.9
				c0.2-0.7,0.8-1.1,1.5-0.9c0.7,0.2,1.1,0.8,0.9,1.5C170.3,64.7,169.7,65.1,169.2,65.1z M169.2,63c-0.4,0-0.7,0.3-0.8,0.6
				c-0.1,0.4,0.2,0.9,0.6,1c0.4,0.1,0.9-0.2,1-0.6c0,0,0,0,0,0c0.1-0.4-0.2-0.9-0.6-1C169.3,63,169.2,63,169.2,63z"/>
		</g>
		<g>
			<path fill="#002031" d="M163.1,70.2c-0.1,0-0.1,0-0.2,0c-0.1-0.1-0.2-0.2-0.2-0.3l0.4-3.6l-4.3,1c-0.1,0-0.3,0-0.4-0.2
				c-0.1-0.1-0.1-0.3,0-0.4l2.7-3l-3.7-2.1c-0.1-0.1-0.2-0.2-0.2-0.3c0-0.1,0.1-0.2,0.3-0.3l4.4-0.7l-0.9-3.3c0-0.1,0-0.3,0.1-0.4
				c0.1-0.1,0.3-0.1,0.4,0l3.2,2.7l1.8-4.4c0.1-0.1,0.2-0.2,0.3-0.2c0.1,0,0.3,0.1,0.3,0.3l0.8,4.3c0,0.2-0.1,0.3-0.3,0.4
				c-0.2,0-0.3-0.1-0.4-0.3l-0.6-3.2l-1.5,3.8c0,0.1-0.1,0.2-0.2,0.2c-0.1,0-0.2,0-0.3-0.1l-2.8-2.3l0.8,2.7c0,0.1,0,0.2,0,0.3
				c0,0.1-0.1,0.1-0.2,0.1l-3.9,0.6l3.2,1.8c0.1,0,0.1,0.1,0.2,0.2c0,0.1,0,0.2-0.1,0.3l-2.3,2.5l3.7-0.9c0.1,0,0.2,0,0.3,0.1
				c0.1,0.1,0.1,0.2,0.1,0.3l-0.3,3.3l2-1.5c0.1-0.1,0.3-0.1,0.5,0.1c0.1,0.1,0.1,0.3-0.1,0.5l-2.6,1.9
				C163.2,70.2,163.1,70.2,163.1,70.2z"/>
		</g>
		<g>
			<path fill="#002031" d="M218.7,42.1c-1,1.7,0.3,5.2,2.6,4.3c1.3-1.3,2.3-3.3,2.4-5.1C223.4,38.7,219.2,40.2,218.7,42.1z"/>
		</g>
		<g>
			<path fill="#F17277" d="M280.2,105.2c0,2-0.7,3.7-1.7,5c-1.1,1.3-2.6,2.1-4.2,2.1h-66.8c-2,0-4.9-1.3-6-4.3
				c-0.8-2.2-0.7-5.3,1.2-9.4c0.1-0.2,0.2-0.4,0.3-0.6l2.2-4.2l2.9-5.6l2.1-4l2.6-5l0.9-1.8c0.5-1,1.1-1.8,1.7-2.6
				c1.8-2.1,4.1-3.4,6.6-3.8c0.5-0.1,1-0.1,1.6-0.1h20.8c4.5,0,8.8,1.6,12.5,4.4c1.4,1,2.6,2.3,3.8,3.6l17.7,21.1
				c0.1,0.1,0.2,0.2,0.3,0.4c0.1,0.1,0.2,0.2,0.3,0.4c0.1,0.1,0.1,0.2,0.2,0.3c0.2,0.3,0.4,0.6,0.5,1c0.2,0.5,0.3,0.9,0.4,1.4
				C280.1,104.1,280.2,104.7,280.2,105.2z"/>
		</g>
		<g>
			<path fill="none" d="M244.3,77.5c6.1,0,12,2.4,16.3,6.8l17.7,17.8c1.2,1.1,1.9,2.7,1.9,4.4v0c0,3.3-2.7,6-6,6h-66.8
				c-3.6,0-9.7-3.4-4.4-12.1L213.6,83c2.1-3.4,5.8-5.5,9.9-5.5H244.3z"/>
		</g>
		<g>
			<path fill="#002031" d="M216.2,106.7C216.2,106.7,216.2,106.7,216.2,106.7c-0.2,0-0.4-0.2-0.3-0.4l2.9-13.7
				c0-0.2,0.2-0.3,0.4-0.3c0.2,0,0.3,0.2,0.3,0.4l-2.9,13.7C216.5,106.6,216.4,106.7,216.2,106.7z"/>
		</g>
		<g>
			<path fill="none" d="M249.6,92.9l8.7,8.8h-18.8c-1.1,0-2.1,0.9-2.1,2.1v8.5"/>
		</g>
		<g>
			<path fill="#E93737" d="M228.7,65.8h-3c-1.4,0-2.7,0.7-3.6,1.8l0,0c-1.6,2-1.1,5,1,6.5l8.1,6.1l-3.6-9L228.7,65.8z"/>
		</g>
		<g>
			<g>
				<g>
					<path fill="#F4C9DB" d="M230.9,110.7c-0.2,0.2-0.5,2.2-2,2.9c-1.9,0.9-4.1,0.9-6,0l-4-0.9l-9.1-0.3c-0.6,0.2-1.3,0-1.7-0.5l0,0
						c-0.6-0.8-0.3-1.8,0.5-2.3l11.4-5.7c0.5-0.3,1.1-0.4,1.6-0.3l9.4,1.1L230.9,110.7z"/>
				</g>
			</g>
		</g>
		<g>
			<path fill="#002031" d="M208.6,110c-0.2,0-0.3-0.1-0.3-0.3c0-0.2,0.1-0.3,0.3-0.4l7.7-1.1c0.2,0,0.3,0.1,0.4,0.3
				c0,0.2-0.1,0.3-0.3,0.4L208.6,110C208.6,110,208.6,110,208.6,110z"/>
		</g>
		<g>
			
				<rect x="228.7" y="103.3" transform="matrix(-1 -4.629909e-11 4.629909e-11 -1 461.2501 215.5897)" fill="#E93737" width="3.8" height="9"/>
		</g>
		<g>
			<path fill="none" d="M255.8,100.6l1.5-0.5c0.8-0.3,1.5,0.5,1.1,1.3l0,0c-0.3,0.5-1,0.7-1.4,0.3L255.8,100.6z"/>
		</g>
		<g>
			<path fill="#F4C9DB" d="M238.2,56.1l1.6,9.2l0.5,2.7l0,0.2l-0.6,0.8l-0.1,0.1l-1.3,1.8l-4.2,5.5l-0.8,1l-1.7,2.1l-0.2,0.2
				l-0.2,0.3l-0.3-0.6l-0.9-2l-3-6.5l-0.1-0.3l0.3-4.9l0.3-5.1c0,0.1-8.9,0.9-8.7-5.7c0-1.7,0.1-8,1.3-10.7c0.1-0.3,0.2-0.5,0.4-0.8
				c0.5-1,1-1.9,1.6-2.7c1.2-1.6,2.7-2.9,4.8-3.3c0.8-0.2,2.5-0.2,3.3-0.3c0.9,0,1.9,0,2.8,0.2c2.5,0.6,4.4,2.7,5.4,5.1
				c0.8,1.9,1.1,4,1.3,6c0,0.4,0,1.2,0.1,1.5c0,0,0.1,0.1,0.1,0.1c0.2,0.2,0.6,0.4,0.8,0.6c0.5,0.6,0.9,1.4,0.9,2.2
				C241.5,54.6,240,56.1,238.2,56.1z"/>
		</g>
		<g>
			<path fill="#EDA7C5" d="M227.4,60.6c0,0,1.8,0,5.1-1l-5.2,4.3L227.4,60.6z"/>
		</g>
		<g>
			<path fill="#E93737" d="M239.8,65.3l7.7,0.8c3.2,0.3,5.9,2.4,6.9,5.4l1,2.8l-1.9-0.7c-3.4-1.3-7.2-1.1-10.5,0.6l-11.8,5.9
				l4.8-6.9c1.1-1.8,2.6-3.4,4.4-4.6l0,0L239.8,65.3z"/>
		</g>
		<g>
			<path fill="none" d="M221.1,92.3l-8,17c-1.1,1.9-3.5,3-5.7,3l0,0"/>
		</g>
		<g>
			<path fill="none" d="M251.8,85.4c2.2,0.8,4.1,2.3,5.8,3.9c3.5,3.3,6.4,7.3,8.4,11.6c0.1,0.3,0.3,0.6,0.1,0.9
				c-0.1,0.2-0.3,0.3-0.5,0.3c-1.1,0.3-2.4-0.2-3.2-1c-0.9-0.8-1.5-1.8-2.2-2.8c-1.6-2.2-3.8-4.1-6.2-5.5c-1.4-0.8-3-1.5-4.2-2.6
				s-2.2-2.7-1.9-4.3c0.1-0.3,0.1-0.5,0.3-0.7c0.3-0.3,0.6-0.4,1-0.4c1.7-0.3,3.6,0.4,4.7,1.8"/>
		</g>
		<g>
			<path fill="#002031" d="M260.2,101.7C260.2,101.7,260.2,101.7,260.2,101.7l-2,0l-2.4-3c-0.1-0.1-0.1-0.3,0.1-0.5
				c0.1-0.1,0.3-0.1,0.5,0.1l2.2,2.8l1.7,0c0.2,0,0.3,0.1,0.3,0.3C260.5,101.5,260.4,101.7,260.2,101.7z"/>
		</g>
		<g>
			<path fill="#002031" d="M232.5,112.6c-0.2,0-0.3-0.1-0.3-0.3v-9c0-1.2,1-2.3,2.3-2.3h23.8c0.2,0,0.3,0.1,0.3,0.3
				s-0.1,0.3-0.3,0.3h-23.8c-0.9,0-1.6,0.7-1.6,1.6v9C232.9,112.5,232.7,112.6,232.5,112.6z"/>
		</g>
		<g>
			<path fill="#002031" d="M228.7,112.6c-0.2,0-0.3-0.1-0.3-0.3v-9.4h4.1c0.2,0,0.3,0.1,0.3,0.3s-0.1,0.3-0.3,0.3H229v8.7
				C229,112.5,228.9,112.6,228.7,112.6z"/>
		</g>
		<g>
			<path fill="#FFFFFF" d="M231.2,80.4c-0.1,0-0.1,0-0.2-0.1c-0.1-0.1-0.2-0.3-0.1-0.4l4.8-6.9c1.8-3,4.3-5,7.2-5.6c0,0,0.1,0,0.1,0
				c0.1-0.1,0.2,0,0.3,0c0.1,0.1,0.1,0.2,0.1,0.3c0,0.2-0.2,0.2-0.4,0.3c-2.7,0.6-5.1,2.5-6.9,5.4l-4.8,7
				C231.3,80.3,231.2,80.4,231.2,80.4z"/>
		</g>
		<g>
			<path fill="#002031" d="M224.7,53.8C224.7,53.8,224.7,53.8,224.7,53.8c-0.1,0-1.2,0-1.7-0.7c-0.3-0.4,0-1.3,0.6-2.7
				c0.3-0.7,0.6-1.4,0.6-1.7c0-0.2,0.2-0.3,0.3-0.3c0.2,0,0.3,0.2,0.3,0.3c0,0.5-0.3,1.2-0.6,1.9c-0.3,0.7-0.7,1.8-0.6,2.1
				c0.2,0.3,0.9,0.4,1.2,0.4c0.2,0,0.3,0.1,0.3,0.3C225,53.6,224.9,53.8,224.7,53.8z"/>
		</g>
		<g>
			<circle fill="#002031" cx="226.7" cy="49.6" r="0.6"/>
		</g>
		<g>
			<circle fill="#002031" cx="221" cy="49.6" r="0.6"/>
		</g>
		<g>
			<path fill="#002031" d="M213,107.8c-0.2,0-0.3-0.1-0.3-0.3c0-0.2,0.1-0.3,0.3-0.4l6.4-1.3c0.2,0,0.3,0.1,0.4,0.3
				c0,0.2-0.1,0.3-0.3,0.4L213,107.8C213.1,107.8,213.1,107.8,213,107.8z"/>
		</g>
		<g>
			<path fill="#F17277" d="M190.5,77l24.4,22.4l-11.7,11l-22.6-21.1c-1.4-1.3-1.7-3.4-0.5-4.9l5.3-6.9
				C186.5,75.9,188.9,75.7,190.5,77z"/>
		</g>
		<g>
			<path fill="#002031" d="M207.4,94.6c-0.1,0-0.3-0.1-0.3-0.2l-1.1-2.7c0-0.1,0-0.3,0.1-0.4c0.1-0.1,0.2-0.1,0.4,0l3.5,1.8
				c0.2,0.1,0.2,0.3,0.1,0.4c-0.1,0.2-0.3,0.2-0.4,0.1l-2.8-1.4l0.8,1.9c0.1,0.2,0,0.4-0.2,0.4C207.4,94.6,207.4,94.6,207.4,94.6z"
				/>
		</g>
		<g>
			
				<rect x="176.1" y="78.3" transform="matrix(0.5831 -0.8124 0.8124 0.5831 10.4944 180.6304)" fill="#F17277" width="10.3" height="3.6"/>
		</g>
		<g>
			<path fill="#002031" d="M179.7,85.7c-0.1,0-0.1,0-0.2-0.1c-0.1-0.1-0.2-0.3-0.1-0.5l6-8.4c0.1-0.1,0.3-0.2,0.5-0.1
				c0.1,0.1,0.2,0.3,0.1,0.5l-6,8.4C179.9,85.6,179.8,85.7,179.7,85.7z"/>
		</g>
		<g>
			<path fill="#002031" d="M240.8,41.2c0-7.2-10.1-5.7-10.1-5.7s-1-2.2-2.2-2.7c-2-0.9-2.4,1.3-1.9,2.6c-1.2-1.5-2.1-3.8-4.2-3.4
				c-1.7,0.6-1.6,3.6-0.3,4.5c-8.1-5.4-9,8,4.1,7.5c3.7-0.1,7.3-0.7,7.6-1.1c0.1,3.8,1.7,8.2,5.5,8.8
				C239.3,51.7,241.1,45.3,240.8,41.2z"/>
		</g>
		<g>
			<path fill="#F4C9DB" d="M237.9,51.7l-0.4-2.3c0,0,3.8,0.1,4,2.9L237.9,51.7z"/>
		</g>
		<g>
			<path fill="#002031" d="M224.7,55.9c-0.7,0-1.2-0.2-1.2-0.2c-0.2-0.1-0.3-0.2-0.2-0.4c0.1-0.2,0.2-0.3,0.4-0.2
				c0.1,0,2.5,0.7,3.7-1.4c0.1-0.2,0.3-0.2,0.4-0.1c0.2,0.1,0.2,0.3,0.1,0.4C227.1,55.6,225.7,55.9,224.7,55.9z"/>
		</g>
		<g>
			<g>
				<path fill="#E93737" d="M247.1,92.9H239c-0.4,0-0.8-0.3-0.8-0.8v-2.4c0-0.4,0.3-0.8,0.8-0.8h8.1c0.4,0,0.8,0.3,0.8,0.8v2.4
					C247.9,92.6,247.5,92.9,247.1,92.9z"/>
			</g>
			<g>
				<path fill="#FFFFFF" d="M247.1,92.3h-8.5c-0.4,0-0.8-0.4-0.8-0.8V89c0-0.4,0.4-0.8,0.8-0.8h8.5c0.4,0,0.8,0.4,0.8,0.8v2.6
					C247.9,92,247.5,92.3,247.1,92.3z"/>
			</g>
			<g>
				<path fill="#002031" d="M242.8,89.7h-3.3c-0.1,0-0.2-0.1-0.2-0.2s0.1-0.2,0.2-0.2h3.3c0.1,0,0.2,0.1,0.2,0.2
					S242.9,89.7,242.8,89.7z"/>
			</g>
			<g>
				<path fill="#002031" d="M244.9,91.2h-5.4c-0.1,0-0.2-0.1-0.2-0.2s0.1-0.2,0.2-0.2h5.4c0.1,0,0.2,0.1,0.2,0.2
					S245,91.2,244.9,91.2z"/>
			</g>
		</g>
	</g>
	<g>
		<path fill="#DCEEFD" d="M268.7,169.2h-17.9c-1.3,0-2.3-1-2.3-2.3v-4.4c0-1.3,1-2.3,2.3-2.3h17.9c1.3,0,2.3,1,2.3,2.3v4.4
			C271,168.2,270,169.2,268.7,169.2z M250.8,161.1c-0.8,0-1.4,0.6-1.4,1.4v4.4c0,0.8,0.6,1.4,1.4,1.4h17.9c0.8,0,1.4-0.6,1.4-1.4
			v-4.4c0-0.8-0.6-1.4-1.4-1.4H250.8z"/>
	</g>
	<g>
		<path fill="#DCEEFD" d="M255.9,182h-17.9c-1.3,0-2.3-1-2.3-2.3v-4.4c0-1.3,1-2.3,2.3-2.3h17.9c1.3,0,2.3,1,2.3,2.3v4.4
			C258.2,181,257.2,182,255.9,182z M238.1,173.9c-0.8,0-1.4,0.6-1.4,1.4v4.4c0,0.8,0.6,1.4,1.4,1.4h17.9c0.8,0,1.4-0.6,1.4-1.4v-4.4
			c0-0.8-0.6-1.4-1.4-1.4H238.1z"/>
	</g>
	<g>
		<path fill="#DCEEFD" d="M214.5,155.9h-17.9c-1.3,0-2.3-1-2.3-2.3v-4.4c0-1.3,1-2.3,2.3-2.3h17.9c1.3,0,2.3,1,2.3,2.3v4.4
			C216.8,154.9,215.8,155.9,214.5,155.9z M196.7,147.8c-0.8,0-1.4,0.6-1.4,1.4v4.4c0,0.8,0.6,1.4,1.4,1.4h17.9
			c0.8,0,1.4-0.6,1.4-1.4v-4.4c0-0.8-0.6-1.4-1.4-1.4H196.7z"/>
	</g>
	<g>
		<path fill="#DCEEFD" d="M161.4,35.1h-17.1c-1.2,0-2.2-1-2.2-2.2v-4.2c0-1.2,1-2.2,2.2-2.2h17.1c1.2,0,2.2,1,2.2,2.2v4.2
			C163.6,34.1,162.6,35.1,161.4,35.1z M144.3,27.3c-0.7,0-1.3,0.6-1.3,1.3v4.2c0,0.7,0.6,1.3,1.3,1.3h17.1c0.7,0,1.3-0.6,1.3-1.3
			v-4.2c0-0.7-0.6-1.3-1.3-1.3H144.3z"/>
	</g>
	<g>
		<path fill="#DCEEFD" d="M177,23.8h-17.1c-1.2,0-2.2-1-2.2-2.2v-4.2c0-1.2,1-2.2,2.2-2.2H177c1.2,0,2.2,1,2.2,2.2v4.2
			C179.2,22.8,178.2,23.8,177,23.8z M159.9,16c-0.7,0-1.3,0.6-1.3,1.3v4.2c0,0.7,0.6,1.3,1.3,1.3H177c0.7,0,1.3-0.6,1.3-1.3v-4.2
			c0-0.7-0.6-1.3-1.3-1.3H159.9z"/>
	</g>
	<g>
		<g>
			<rect x="171.7" y="112.2" fill="#59ACF5" width="112.8" height="10.6"/>
		</g>
		<g>
			<rect x="257.9" y="112.2" fill="#1540EB" width="26.6" height="10.6"/>
		</g>
	</g>
	<g>
		<path fill="#002031" d="M228.5,48.2c-0.2,0-0.3-0.1-0.3-0.3c-0.2-1.2-1.5-1.1-1.6-1.1c-0.2,0-0.3-0.1-0.4-0.3
			c0-0.2,0.1-0.3,0.3-0.4c0.7-0.1,2,0.2,2.3,1.6C228.8,48,228.7,48.1,228.5,48.2C228.5,48.2,228.5,48.2,228.5,48.2z"/>
	</g>
	<g>
		<path fill="#002031" d="M220.2,47.3c-0.1,0-0.1,0-0.2-0.1c-0.1-0.1-0.2-0.3-0.1-0.4c0.4-0.5,1.5-1.4,2.7-0.6
			c0.2,0.1,0.2,0.3,0.1,0.4c-0.1,0.2-0.3,0.2-0.4,0.1c-1-0.6-1.7,0.4-1.8,0.5C220.4,47.3,220.3,47.3,220.2,47.3z"/>
	</g>
	<g>
		<g>
			<ellipse fill="#002031" cx="98.9" cy="49.1" rx="8.2" ry="10.5"/>
		</g>
		<g>
			<path fill="#DCEEFD" d="M173.6,230.3c0,1.5-30.3,2.7-56.1,2.7S78,231.7,78,230.3s13.9-2.7,39.6-2.7S173.6,228.8,173.6,230.3z"/>
		</g>
		<g>
			<g>
				<path fill="#002031" d="M148.9,75.6l-4.7,1.6c-0.9,0.3-1.9-0.2-2.2-1.1l-5-14.6c-0.3-0.9,0.2-1.9,1.1-2.2l4.7-1.6
					c0.9-0.3,1.9,0.2,2.2,1.1l5,14.6C150.3,74.3,149.8,75.3,148.9,75.6z"/>
			</g>
		</g>
		<g>
			<g>
				<path fill="#59ACF5" d="M147.8,75.9l-4.7,1.6c-0.9,0.3-1.9-0.2-2.2-1.1l-5-14.6c-0.3-0.9,0.2-1.9,1.1-2.2l4.7-1.6
					c0.9-0.3,1.9,0.2,2.2,1.1l5,14.6C149.2,74.6,148.7,75.6,147.8,75.9z"/>
			</g>
		</g>
		<g>
			<path fill="#FFCC00" d="M122,78.4l11.4,16.3L139,79l6.8-0.2c0,0-1.8,15-6.4,23.4c-2.3,4.1-5.7,4.4-8.4,2.7
				c-7.5-4.9-12.7-13.6-12.7-13.6L122,78.4z"/>
		</g>
		<g>
			<path fill="#FFCC00" d="M97,113.8c0,0-12.2,9.8-7.1,29.5c0.5,1.9,0.8,3.8,0.9,5.7l0.9,29.2H138l-15.7-64.9L97,113.8z"/>
		</g>
		<g>
			<polygon fill="#C26E5E" points="97.1,54.6 99.9,72.8 111.8,73.1 105.4,58.5 			"/>
		</g>
		<g>
			<polygon fill="#A95643" points="108.5,65.7 107.1,62.4 102.3,61.9 			"/>
		</g>
		<g>
			<path fill="#C26E5E" d="M105.7,62.8c-5.4-0.5-10.8-5-10.8-10.4c-0.1-5.5,4.3-9.9,9.7-9.9c2.7,0,5.1,1.1,6.8,3
				c0.6,0.6,1.1,1.4,1.6,2.2c0.8,1.4,1.4,3,1.6,4.7C115.6,59,111.9,63.4,105.7,62.8z"/>
		</g>
		<g>
			<path fill="#A95643" d="M112.7,47.3c0,0-7.4-0.4-8.2-1.1l6.7-0.7C111.9,46.1,112.3,46.5,112.7,47.3z"/>
		</g>
		<g>
			<path fill="#002031" d="M112.9,37.1c-0.3,0.3-0.5,0.6-0.5,0.6s-0.7-2.3-1.8-2.6c-0.4-0.1-0.9-0.2-1.3,0c-0.9,0.2-1.6,0.5-2.5,1.2
				c-0.6,0.4-1.7-0.4-2.8-0.6c-2.1-0.3-2.7,1.7-4.2,2.3c-0.7,0.3-1.3,0.6-1.9,1c-0.4,0.3-0.7,0.6-1,0.9c-0.1,0.2-0.3,0.3-0.3,0.5
				c-0.1,0.4,0.1,0.7,0.3,1c0.6,0.9,5.1,4.2,7.2,4.6c2.1,0.5,4.2,0.4,6.3,0c0.8-0.1,1.6-0.3,2.4-0.7c0.8-0.3,1.4-0.9,1.9-1.6
				c0.4-0.7,0.4-1.4,0.6-2.2c0-0.2-0.2-2.3-0.5-4C114.6,36.8,113.5,36.5,112.9,37.1z"/>
		</g>
		<g>
			<path fill="#FFCC00" d="M125.9,86.4c-0.7-5.1-4.4-8.3-8-12.4c-1-1.2-2.3-2.1-3.8-2.6l-2.1-0.7c-0.5-0.1-0.9-0.3-1.3-0.6
				c-1.1-2-2.2-4.3-2.2-4.3l-9.7,0.4l0.3,2c0.1,1.2-0.7,2.4-1.9,2.8l-4.5,1.2l0.1,0c-5.6,0.3-9.4,5.3-8.5,11.2l2.3,7.1l3.9,0.6
				c0,0,4.8,8.8,6.1,23.1l25.6-0.3C121.8,110.5,126.6,91.4,125.9,86.4z"/>
		</g>
		<g>
			<g>
				<path fill="#FEDE6A" d="M72.2,97.9c10.4-3.9,21-7.5,31.7-10.7c6.6-2,13.4-3.9,20.5-5.4l-0.1-0.1c-0.6-1-1.2-1.9-1.9-2.7
					l-0.4-0.5l0,0.1c-0.5-0.6-1-1.2-1.5-1.8c-6.3,1.4-12.4,3.2-18.2,4.9c-3.1,0.9-6.3,1.9-9.4,2.9c7.8-4.3,15.7-8.3,23.8-11.9
					c-0.7-0.5-1.5-1-2.4-1.3l-2.1-0.7c-0.5-0.1-0.9-0.3-1.3-0.6c-1.1-2-2.2-4.3-2.2-4.3l-1.4,0.1c-2.7,0.7-5.4,1.5-8.1,2.3l0,0.1
					c0.1,1.2-0.7,2.4-1.9,2.8l-4.5,1.2l0.1,0c-3.9,0.2-7,2.8-8.1,6.3c-0.3,0.4-0.6,0.9-1,1.5c5.5-2.2,11.1-4.3,16.8-6.1
					C93.8,77.3,87,81.1,80.5,85C77.3,89.9,73.7,95.5,72.2,97.9z"/>
			</g>
			<g>
				<path fill="#FEDE6A" d="M134.2,92.5l-0.8,2.2l-1.3-1.8c-12.7,2.7-25,6.7-37.1,10.9c0.4,1.8,0.8,3.7,1.1,5.8
					c9.2-3.2,18.5-6.3,28-8.8c0.1-0.5,0.2-1,0.3-1.5c0.4,0.4,0.8,0.8,1.1,1.2c2.9-0.7,5.8-1.4,8.7-2c-2.5,1.1-4.9,2.2-7.3,3.3
					c1.3,1.1,2.6,2.2,4,3.2c0.5,0.3,1,0.5,1.5,0.7c2.2-1,4.4-2,6.7-3c0.1-0.1,0.2-0.3,0.2-0.4c1.5-3.2,3-6.3,4.2-11.9
					C140.6,90.8,137.3,91.9,134.2,92.5z"/>
			</g>
			<g>
				<path fill="#FEDE6A" d="M99.4,178.1h7.8c0.9-0.8,1.9-1.6,3-2.4c7.5-5.5,15.5-10.3,23.6-15l-2-8.4c-11.4,3.9-22.6,8.5-33.4,13.9
					c7.1-5.4,14.6-10.2,22.5-14.3c3.2-1.6,6.4-3.2,9.7-4.7l-2.7-11.1c-11.2,3.5-22.3,7.6-33.1,12.3c9.5-6.4,19.4-12.1,29.6-17.1
					c0.7-0.3,1.4-0.7,2.1-1l-1.4-5.8c-1.1,0.5-2.2,1-3.2,1.5c-11,5.3-21.5,11.5-31.6,18.4c0.3,1.4,0.5,2.9,0.6,4.4l0.2,7.6
					c11.6-5.3,23.6-10,35.8-13.9c-2.9,1.4-5.8,2.8-8.6,4.3c-9.6,5-18.5,10.9-26.9,17.7l0.4,11.9c0.5-0.3,1-0.5,1.5-0.8l0.1-0.1
					c7.6-4.2,15.4-7.9,23.4-11.3c-3.3,2.1-6.6,4.4-9.8,6.7C104,173.1,101.3,175.4,99.4,178.1z"/>
			</g>
			<g>
				<path fill="#FEDE6A" d="M123.1,116.6c-9.6,2.6-19.1,5.8-28.3,9.4c9-5.7,18.3-10.9,27.8-15.6c0.2-1.9,0.7-4.4,1.2-7.1
					c-12.5,6-24.5,12.8-36.1,20.3c0.9,0.8,1.7,1.5,2.2,2c-0.7,2.6-1.2,5.6-1.1,9c11.7-4.7,23.6-9.2,35.8-12.4L123.1,116.6z"/>
			</g>
			<g>
				<path fill="#FEDE6A" d="M137.3,83.9c1.7-0.6,5.8-3.9,6.1-4.9L139,79L137.3,83.9z"/>
			</g>
			<g>
				<path fill="#FEDE6A" d="M82.6,104.5l2.7-3.1c-4.4,2.6-8.6,5.3-12.8,8.1c0.3,0.3,0.5,0.6,0.8,0.9c1.1,1.2,3.3,3.2,5.7,5.4
					l4.6-1.7c2.2-0.8,4.4-1.6,6.6-2.4L82.6,104.5z"/>
			</g>
			<g>
				<path fill="#FEDE6A" d="M136.6,172.5l-1.4-5.7c-5.1,1.8-10,4-14.8,6.1c-4,1.8-8.1,3.6-12.3,5.2h15
					C127.7,176.1,132.1,174.1,136.6,172.5z"/>
			</g>
			<g>
				<path fill="#FEDE6A" d="M94.8,102.6c10.7-6,21.8-11.2,33.2-15.7l-3.4-4.9c-10.8,4.3-21.3,9.3-31.5,14.9
					C93.6,98.5,94.2,100.4,94.8,102.6z"/>
			</g>
		</g>
		<g>
			<path fill="#FFFFFF" d="M100.2,124.9c-0.2,0-0.3-0.1-0.3-0.3L98,91.7c-0.7-13.8-3.4-17.9-5.5-18.9c-1.5-0.7-2.8,0.2-2.9,0.2
				c-0.2,0.1-0.4,0.1-0.5-0.1s-0.1-0.4,0.1-0.5c0.1,0,1.6-1.2,3.6-0.3c3.4,1.6,5.3,8.2,5.9,19.5l1.9,32.9
				C100.6,124.7,100.4,124.9,100.2,124.9C100.2,124.9,100.2,124.9,100.2,124.9z"/>
		</g>
		<g>
			<g>
				<polygon fill="#478F8E" points="82.5,124 79.2,139.3 98.7,139.4 101.6,123.3 				"/>
			</g>
			<g>
				<polygon fill="#104A4A" points="106.8,139.4 103.4,123.3 101.6,123.3 98.7,139.4 				"/>
			</g>
			<g>
				<path fill="#FFFFFF" d="M89.4,133.3l-7.3-9.1c-0.1-0.1-0.1-0.4,0.1-0.5c0.1-0.1,0.4-0.1,0.5,0.1l6.8,8.6l11.3-9.1
					c0.1-0.1,0.4-0.1,0.5,0.1c0.1,0.1,0.1,0.4-0.1,0.5L89.4,133.3z"/>
			</g>
		</g>
		<g>
			<path fill="#C26E5E" d="M97,119.6l2.6,1.8c2.5,1.7,3.9,4.6,3.8,7.6l-0.3,7.9h-6.6l-2.1-5.9l-2.2-3l-0.7-2.2l-1.7-2.1L97,119.6z"
				/>
		</g>
		<g>
			<path fill="#002031" d="M109.4,55.1c-0.1,0-0.3-0.1-0.3-0.3c0-0.2,0.1-0.3,0.2-0.4c0.2,0,0.7-0.2,0.8-0.5
				c0.1-0.2-0.4-1.2-0.7-1.7c-0.2-0.5-0.5-0.9-0.6-1.2c-0.1-0.2,0-0.4,0.2-0.4c0.2,0,0.4,0,0.4,0.2c0.1,0.3,0.3,0.7,0.5,1.1
				c0.6,1.1,0.9,1.8,0.7,2.3C110.5,54.8,109.6,55.1,109.4,55.1C109.5,55.1,109.4,55.1,109.4,55.1z"/>
		</g>
		<g>
			<g>
				<polygon fill="#C26E5E" points="104.2,121.9 97.9,120.3 98.1,123.5 104.2,123.3 				"/>
			</g>
			<g>
				<path fill="#A95643" d="M97.7,120c0,0-1.5,5.7-4.6,9.1l-0.7-1l-0.7-2.2l-0.2-0.3L97.7,120z"/>
			</g>
			<g>
				<rect x="98.7" y="132.8" fill="#002031" width="0.7" height="4.1"/>
			</g>
		</g>
		<g>
			<path fill="#FFCC00" d="M85.9,76.6c0,0-11.6,17.7-14,21.7c-2.4,4-2.2,8.4,1.3,12s17.3,15.9,17.3,15.9l7.6-6.8l-15.6-15.1
				l13.5-15.7L85.9,76.6z"/>
		</g>
		<g>
			
				<rect x="98.3" y="133.8" transform="matrix(2.621223e-03 -1 1 2.621223e-03 -33.3632 234.8743)" fill="#002031" width="5.6" height="0.7"/>
		</g>
		<g>
			<circle fill="#002031" cx="112.1" cy="51.1" r="0.6"/>
		</g>
		<g>
			<circle fill="#002031" cx="106.6" cy="51.4" r="0.6"/>
		</g>
		<g>
			<path fill="#FFFFFF" d="M124.4,100.8C124.4,100.8,124.4,100.8,124.4,100.8c-0.3,0-0.4-0.2-0.3-0.4l1.7-9c0.1-0.5,0.2-1,0.2-1.5
				c0.3-3.7-1-7.5-3.4-10.4c-0.1-0.1-0.1-0.4,0-0.5c0.1-0.1,0.4-0.1,0.5,0c2.6,3.1,3.9,7,3.6,10.9c0,0.6-0.1,1.1-0.2,1.6l-1.7,9
				C124.7,100.7,124.6,100.8,124.4,100.8z"/>
		</g>
		<g>
			<polygon fill="#C26E5E" points="94.4,178.1 96.8,214.2 105.2,214.3 107.3,178.1 			"/>
		</g>
		<g>
			<polygon fill="#C26E5E" points="119.9,178.1 131.6,213.3 141,213.7 133,178.1 			"/>
		</g>
		<g>
			<g>
				<path fill="#FEDE6A" d="M87.5,78.5l-1.6-1.9c0,0-0.9,1.3-2.2,3.3C85,79.4,86.2,79,87.5,78.5z"/>
			</g>
			<g>
				<path fill="#FEDE6A" d="M82.6,104.5l2.7-3.1c-4.4,2.6-8.6,5.3-12.8,8.1c0.3,0.3,0.5,0.6,0.8,0.9c1.1,1.2,3.3,3.2,5.7,5.4
					l4.6-1.7c2.2-0.8,4.4-1.6,6.6-2.4L82.6,104.5z"/>
			</g>
			<g>
				<path fill="#FEDE6A" d="M95,90l1.1-1.2l-7.2-8.6c-2.8,1.6-5.6,3.2-8.4,4.9c-3.1,4.8-6.7,10.4-8.3,12.9
					C79.7,95.1,87.4,92.5,95,90z"/>
			</g>
			<g>
				<path fill="#FEDE6A" d="M98.2,119.6l-1.6-1.6c-3,1.8-6,3.7-9,5.7c1.8,1.6,3,2.7,3,2.7L98.2,119.6z"/>
			</g>
		</g>
		<g>
			<polygon fill="#C26E5E" points="145.8,78.9 146.5,73.1 140,75.2 139,79 			"/>
		</g>
		<g>
			<path fill="#C26E5E" d="M143.8,73.8l0.2-2.2l3.1-3.7c0.6-0.5,1.4-0.4,1.9,0.2l0,0c0.4,0.5,0.4,1.2,0,1.7l-2.8,4.7L143.8,73.8z"/>
		</g>
		<g>
			<polygon fill="#C26E5E" points="145,72.2 138.2,67.9 137.7,72.2 140,75.6 144.4,74 			"/>
		</g>
		<g>
			
				<rect x="138.6" y="68.6" transform="matrix(0.6281 -0.7781 0.7781 0.6281 -2.5813 133.9574)" fill="#002031" width="0.5" height="2.1"/>
		</g>
		<g>
			
				<rect x="138.5" y="70.4" transform="matrix(0.6897 -0.7241 0.7241 0.6897 -8.7982 122.6842)" fill="#002031" width="0.5" height="2.5"/>
		</g>
		<g>
			<path fill="#59ACF5" d="M130.8,213.3l11-0.4l0.6,6.2l5.4,8.2l4,0.9c0.8,0.2,1.3,1,1.1,1.7l0,0c-0.1,0.7-0.8,1.2-1.5,1.2h-10.4
				c-0.4,0-0.8-0.2-1-0.6l-3.5-5.6v6.2h-2.8l-2.6-8.4l1.2-3.9L130.8,213.3z"/>
		</g>
		<g>
			<path fill="#59ACF5" d="M106,214.3l-10.1-0.1l0.7,6.3l-2.1,7.7l-1.6,0.3c-0.7,0.1-1.2,0.6-1.2,1.3l0,0c0,0.7,0.6,1.3,1.3,1.3h6.1
				c0.7,0,1.3-0.4,1.5-1.1l1.6-3.9l0.4,5h2.1l1.2-7.9l-1-2.4L106,214.3z"/>
		</g>
		<g>
			<path fill="#FFFFFF" d="M96.5,228.3h-2.4c-0.1,0-0.2-0.1-0.2-0.2c0-0.1,0.1-0.2,0.2-0.2h2.4c0.1,0,0.2,0.1,0.2,0.2
				C96.7,228.2,96.6,228.3,96.5,228.3z"/>
		</g>
		<g>
			<path fill="#FFFFFF" d="M111.2,55.8l-3.7,0c-0.2,0-0.3,0.2-0.2,0.4c0.6,0.9,2.1,2.8,4.2,0.1C111.5,56.1,111.4,55.8,111.2,55.8z"
				/>
		</g>
		<g>
			<circle fill="#002031" cx="92.4" cy="39.2" r="6.8"/>
		</g>
		<g>
			<ellipse fill="#C26E5E" cx="95.3" cy="53.9" rx="2" ry="2.3"/>
		</g>
		<g>
			<path fill="#002031" d="M97.4,53.1c0.2,0.5,0.3,1.1,0.8,1.1c0.4,0,0.7-1.9,0.7-2.3c1.8-0.3,3-1.2,4.2-2.6
				c1.1-1.4,1.7-3.3,1.6-5.1c0-0.2,0-0.4-0.2-0.5c-0.1-0.1-0.2-0.1-0.3-0.2c-1.8-0.8-3.7-1.6-5.5-2.5c-1.2,1.2-2.4,2.5-3.5,3.9
				c-0.8,1.1-1.6,2.3-1.8,3.6c-0.1,0.5-0.1,1.1,0.1,1.5c0,0,0.4,1.5,1.2,1.6C95.6,51.7,97,51.9,97.4,53.1z"/>
		</g>
		<g>
			<path fill="#FFFFFF" d="M91.8,44.6C91.8,44.6,91.8,44.6,91.8,44.6c-0.2,0-0.3-0.2-0.3-0.3c0,0,0.1-4.6,5.8-5.8
				c0.2,0,0.4,0.1,0.4,0.3c0,0.2-0.1,0.4-0.3,0.4c-5.2,1.1-5.3,5-5.3,5.2C92.1,44.5,92,44.6,91.8,44.6z"/>
		</g>
		<g>
			<path fill="#002031" d="M82,106.4l-0.6-0.3l0.7-1.1l-2.1,0.4l-0.1-0.6l2.8-0.5c0.1,0,0.2,0,0.3,0.1c0.1,0.1,0.1,0.2,0,0.3
				L82,106.4z"/>
		</g>
		<g>
			
				<rect x="89.3" y="92.3" transform="matrix(0.651 -0.7591 0.7591 0.651 -37.9332 102.7489)" fill="#002031" width="6.9" height="0.6"/>
		</g>
	</g>
</g>
</svg>
