<svg width="248" height="186" viewBox="0 0 248 186" fill="none" xmlns="http://www.w3.org/2000/svg">
<g id="holder_qrcode_maken">
<path id="Path" d="M232.871 182.454C232.871 185.461 207.662 185.727 136.812 185.727C68.6156 185.727 7.1416 183.958 7.1416 182.454C7.1416 180.95 68.6156 179.181 136.812 179.181C208.281 179.181 232.871 179.712 232.871 182.454Z" fill="#27DC71"/>
<g id="Group">
<path id="Path_2" d="M19.5254 44.2923C19.6138 44.2923 22.002 42.4348 23.0635 41.6387C23.3288 41.4618 23.6826 41.4618 23.948 41.5503C24.3018 41.8156 24.4787 42.2579 24.2133 42.7002L22.1789 44.9999L19.5254 44.2923Z" fill="#F4C9DB"/>
<path id="Path_3" d="M17.4033 45.796L20.7645 43.3193H20.8529L29.1674 45.0884L29.4328 46.6805L23.2411 46.769L19.1724 49.511L17.4033 45.796Z" fill="#F4C9DB"/>
<path id="Path_4" d="M36.1552 161.137L35.0938 166.886L36.5974 171.309L40.224 169.805L43.5851 163.967L36.1552 161.137Z" fill="#F4C9DB"/>
<path id="Path_5" d="M9.08842 71.4469L1.48157 64.1939C-0.464372 62.3364 -0.552824 59.5944 1.57002 58.0022L17.3144 45.7959L19.8795 49.6878L9.08842 60.2135L14.9262 65.1668L9.08842 71.4469Z" fill="#F4C9DB"/>
<path id="Path_6" d="M40.6658 63.9288L45.8845 56.7642L34.3857 41.7274L40.5774 41.6389L52.9606 55.172C54.2874 56.5873 54.3758 58.7986 53.226 60.3907L41.1965 76.6658L40.6658 63.9288Z" fill="#F4C9DB"/>
<path id="Path_7" d="M39.6037 90.9064L38.1885 92.3216L38.6307 90.7295L39.6037 90.9064Z" fill="#002031"/>
<path id="Path_8" d="M21.2064 91.791L16.6953 91.5257C16.6953 91.5257 18.1105 89.049 20.8525 88.5183L21.2064 91.791Z" fill="#002031"/>
<path id="Path_9" d="M23.5946 46.4153C23.0639 46.4153 21.4717 47.2113 20.941 47.4767C18.9951 48.4497 17.4914 50.0418 16.6069 51.9877C15.6339 54.199 16.43 56.5872 15.457 58.887C15.1917 59.5946 14.7494 60.2138 14.484 60.9214C14.0418 62.4251 14.484 64.4594 15.3686 65.7862C15.5455 66.0516 17.4914 68.4398 17.9337 68.086C17.9337 68.086 24.0368 64.2825 33.0589 64.9017C36.2432 65.1671 37.6584 64.1056 38.2776 63.3096C38.8083 62.6904 38.8083 61.8943 38.5429 61.1867C37.3931 58.7101 33.0589 49.2457 32.3513 48.8035C29.6978 48.1843 23.683 46.4153 23.5946 46.4153Z" fill="white"/>
<path id="Path_10" d="M18.1982 68.5281L21.7363 95.5059L37.3038 95.7712L40.9303 81.8843C41.5495 79.4076 41.2842 76.7541 40.1343 74.4543L37.1269 68.6165L18.1982 68.5281Z" fill="#F4C9DB"/>
<path id="Path_11" d="M20.8525 88.6067L21.1179 90.3757L38.5429 90.818L24.5675 85.9531L20.8525 88.6067Z" fill="#EDA7C5"/>
<path id="Path_12" d="M54.5531 136.813L37.305 95.5056H29.4328H23.8603H21.5606L20.5876 96.2132C15.7228 99.4859 12.9808 105.147 13.5115 111.073L17.7571 162.198C17.8456 163.613 18.9955 164.675 20.4107 164.675H27.2215C28.7252 164.675 29.875 163.437 29.875 162.021L29.5212 119.211L40.9315 139.82L34.563 159.102C34.2092 160.252 34.8283 161.491 35.8898 161.844L43.5851 164.586C44.7349 165.029 45.9733 164.41 46.4155 163.26L54.6415 140.881C55.0838 139.555 55.0838 138.139 54.5531 136.813Z" fill="#237978"/>
<path id="Path_13" d="M29.8743 120.891C29.6974 120.891 29.5205 120.715 29.5205 120.538V111.958C29.5205 111.869 29.5205 111.781 29.609 111.692C29.6974 111.604 29.7859 111.604 29.8743 111.604H33.2355C33.4124 111.604 33.5893 111.781 33.5893 111.958C33.5893 112.135 33.4124 112.312 33.2355 112.312H30.2281V120.538C30.1397 120.715 30.0512 120.891 29.8743 120.891Z" fill="#002031"/>
<path id="Path_14" d="M21.3828 55.5256L22.8865 64.8131H30.0511L27.0437 58.2676L21.3828 55.5256Z" fill="#F4C9DB"/>
<path id="Path_15" d="M28.9909 62.6017L28.2833 60.9211L24.5684 60.3904L28.9909 62.6017Z" fill="#EDA7C5"/>
<path id="Path_16" d="M19.349 53.8452C19.5259 57.9139 23.9485 60.3021 23.9485 60.3021C23.9485 60.3021 29.521 61.7174 32.1745 59.9483C35.6241 57.5601 32.3514 50.2186 31.3785 48.3611C30.5824 46.9459 28.1057 46.5037 26.3367 46.5037C22.2679 46.5921 19.1721 49.8648 19.349 53.8452Z" fill="#F4C9DB"/>
<path id="Path_17" d="M29.344 58.5333C28.7249 58.5333 28.1941 58.2679 27.7519 57.8257C27.6634 57.7372 27.6634 57.5603 27.7519 57.4719C27.8403 57.3834 28.0172 57.3834 28.1057 57.4719C28.7249 58.1795 29.6978 58.2679 30.8477 57.5603C30.9361 57.4719 31.1131 57.5603 31.1131 57.6488C31.2015 57.7372 31.1131 57.9141 31.0246 57.9141C30.4054 58.3564 29.8747 58.5333 29.344 58.5333Z" fill="#002031"/>
<path id="Path_18" d="M30.0522 56.4988C29.9637 56.4988 29.8753 56.4988 29.8753 56.4103C29.7868 56.3219 29.8753 56.145 29.9637 56.145C30.0522 56.0565 30.406 55.8796 30.406 55.6142C30.406 55.4373 29.8753 54.9066 29.6099 54.5528C29.3445 54.2875 29.0792 54.0221 28.9907 53.8452C28.9023 53.7568 28.9907 53.5799 29.0792 53.5799C29.1676 53.4914 29.3445 53.5799 29.3445 53.6683C29.433 53.8452 29.6984 54.1106 29.9637 54.3759C30.5829 54.9951 30.9367 55.4373 30.9367 55.7911C30.8482 56.3219 30.3175 56.5872 30.2291 56.6757C30.1406 56.4988 30.0522 56.4988 30.0522 56.4988Z" fill="#002031"/>
<path id="Path_19" d="M43.2303 73.9235V60.3904L37.4809 67.2012C36.6848 67.6434 35.9772 67.4665 35.1812 67.4665L31.2008 67.3781L30.051 64.9014H22.8864L23.2402 67.6434H19.9675C19.1714 67.6434 18.3753 67.3781 17.6677 66.9358L14.8373 65.1668L9.08789 71.4469L16.4294 78.7884L16.6063 91.5254C16.6063 91.5254 21.2942 86.3952 26.6013 88.1642C31.9084 89.9333 39.4268 90.9947 39.4268 90.9947L41.5497 82.5918C41.992 81.4419 41.815 79.6729 41.019 76.754L43.2303 73.9235Z" fill="#FE6F43"/>
<path id="Path_20" d="M26.3366 54.7297C26.0713 54.7297 25.8059 54.6412 25.629 54.5527C25.5405 54.4643 25.4521 54.3758 25.5405 54.2874C25.629 54.1989 25.7174 54.1105 25.8059 54.1989C25.8944 54.1989 26.7789 54.6412 27.2211 53.7567C27.3096 53.6682 27.398 53.5798 27.4865 53.6682C27.5749 53.7567 27.6634 53.8451 27.5749 53.9336C27.3096 54.4643 26.7789 54.7297 26.3366 54.7297Z" fill="#002031"/>
<path id="Path_21" d="M31.112 53.2257C30.8466 53.2257 30.5813 53.1373 30.4044 53.0488C30.3159 52.9604 30.2275 52.8719 30.3159 52.7835C30.4044 52.695 30.4928 52.6066 30.5813 52.695C30.6697 52.7835 31.5543 53.1373 31.9965 52.2528C32.085 52.1643 32.1734 52.0759 32.2619 52.1643C32.3503 52.2528 32.4388 52.3412 32.3503 52.4297C32.085 53.0488 31.5543 53.2257 31.112 53.2257Z" fill="#002031"/>
<path id="Path_22" d="M19.7029 55.8793C19.7029 55.8793 21.1181 55.3486 21.8258 56.587C21.8258 56.587 23.7717 53.4911 22.0911 51.1029L23.5063 52.4297L33.5014 51.0145C33.5014 51.0145 32.1746 45.2651 26.5137 45.8843C25.983 45.9727 25.01 46.0612 24.5678 46.1496C20.6759 46.8573 17.9339 50.4838 19.0837 54.9064C19.1722 55.3486 19.3491 55.7909 19.7029 55.8793Z" fill="white"/>
<circle id="Oval" cx="20.8528" cy="57.1176" r="2.03439" fill="#F4C9DB"/>
<rect id="Rectangle" x="20.0566" y="164.498" width="7.96066" height="1.50368" fill="#104A4A"/>
<rect id="Rectangle_2" x="35.832" y="161.804" width="7.9606" height="1.50367" transform="rotate(19.5058 35.832 161.804)" fill="#104A4A"/>
<path id="Path_23" d="M37.3926 95.8598H21.7366C21.5597 95.8598 21.3828 95.6829 21.3828 95.506C21.3828 95.3291 21.5597 95.1522 21.7366 95.1522H37.3926C37.5695 95.1522 37.7464 95.3291 37.7464 95.506C37.7464 95.6829 37.5695 95.8598 37.3926 95.8598Z" fill="#002031"/>
<g id="Group_2">
<path id="Path_24" d="M40.4884 169.452C39.1616 169.717 38.3656 171.84 36.2427 170.425C35.2698 169.717 34.916 168.39 35.0929 167.506C35.1813 167.063 34.0314 166.444 33.6776 166.71L31.3779 169.363C30.4049 170.513 30.4934 172.194 31.5548 173.167C33.2354 174.759 35.712 177.058 37.3042 178.12C41.7267 181.216 46.5916 182.808 47.653 181.57L48.8029 180.154L48.1837 179.977C48.0953 179.624 47.9184 179.181 47.4761 178.828L45.0879 176.351L42.169 170.778C41.9036 170.248 41.1076 169.363 40.4884 169.452Z" fill="white"/>
<path id="Path_25" d="M42.9649 169.717L45.8838 175.29L48.272 177.766C49.3334 178.739 49.0681 179.801 48.4489 180.508C47.3875 181.747 42.5226 180.154 38.1 177.059C36.5079 175.997 34.0313 173.697 32.3507 172.105C31.2893 171.132 31.2008 169.363 32.1738 168.302L34.4735 165.648C34.8273 165.383 35.8003 165.914 35.7119 166.356C35.5349 167.24 35.9772 168.744 36.9502 169.452C39.073 170.867 39.8691 168.744 41.1959 168.479C41.9035 168.39 42.6995 169.275 42.9649 169.717Z" fill="#FE6F43"/>
<path id="Path_26" d="M33.7659 173.432C35.1811 170.956 34.0313 168.567 32.7929 167.594L32.1738 168.302C31.2008 169.452 31.2893 171.133 32.3507 172.106C32.7929 172.548 33.3237 172.99 33.7659 173.432Z" fill="#FE9C7E"/>
</g>
<path id="Path_27" d="M27.2209 166.002L27.1325 176.616L21.1178 176.528L20.4102 166.002H27.2209Z" fill="#F4C9DB"/>
<g id="Group_3">
<path id="Path_28" d="M18.4628 172.725L15.4555 176.351L13.598 177.855C12.0059 178.651 12.0059 180.066 12.0059 180.066H28.1041L27.8387 175.378C27.8387 174.848 27.308 174.405 26.7773 174.405C25.8928 174.405 24.566 174.494 23.5046 174.494C23.5046 174.494 23.1508 173.609 22.0894 172.636C21.7356 172.282 19.1705 171.752 18.4628 172.725Z" fill="#FE6F43"/>
<path id="Path_29" d="M28.103 180.066L28.0145 177.147C28.0145 177.147 25.5379 177.59 25.6263 180.066H28.103Z" fill="#FE9C7E"/>
<path id="Path_30" d="M28.369 182.277H11.917V180.066H28.1921L28.369 182.277Z" fill="white"/>
<path id="Path_31" d="M15.1904 176.351V175.732L17.6671 175.643V176.351H15.1904Z" fill="#002031"/>
<rect id="Rectangle_3" x="16.4141" y="174.451" width="2.83036" height="0.619142" transform="rotate(-2.0935 16.4141 174.451)" fill="#002031"/>
</g>
<rect id="Rectangle_4" x="41.6064" y="172.478" width="2.56509" height="0.619159" transform="rotate(-24.8916 41.6064 172.478)" fill="#002031"/>
<rect id="Rectangle_5" x="43.1699" y="174.419" width="2.03438" height="0.619159" transform="rotate(-24.8916 43.1699 174.419)" fill="#002031"/>
<path id="Path_32" d="M34.3855 41.7272L32.0858 39.1621C31.9089 38.8967 31.9089 38.5429 32.0858 38.2776C32.2627 38.0122 32.5281 38.0122 32.7934 38.1007L34.5625 38.9852L33.8548 35.0933C33.7664 34.651 34.0317 34.1203 34.474 34.1203C34.8278 34.0319 35.1816 34.2972 35.2701 34.7395L36.5084 38.7198L36.1546 34.3857C36.1546 33.9434 36.4199 33.5012 36.8622 33.4127C37.3045 33.3243 37.6583 33.6781 37.7467 34.2088L38.3659 38.5429L38.8081 34.9164C38.8966 34.2972 39.5158 33.9434 40.0465 34.2972C40.3118 34.4741 40.4887 34.8279 40.4887 35.1818L40.3118 38.8967L40.931 37.4815C41.1079 36.9508 41.8155 36.9508 41.9924 37.4815C42.0809 37.6584 42.0809 37.8353 41.9924 38.0122L40.3118 44.6461L34.3855 41.7272Z" fill="#F4C9DB"/>
<path id="Path_33" d="M8.55722 61.6288H8.46877C8.38032 61.5403 8.29187 61.4519 8.38032 61.3634L8.73413 60.6558H8.02651C7.93806 60.6558 7.84961 60.5674 7.84961 60.4789C7.84961 60.3905 7.93806 60.302 8.02651 60.302H9.53019L8.82258 61.7172C8.64568 61.6288 8.55722 61.6288 8.55722 61.6288Z" fill="#002031"/>
<path id="Path_34" d="M37.6579 42.7001C37.5694 42.7001 37.5694 42.7001 37.6579 42.7001C37.3925 42.7001 37.3925 42.5232 37.3925 42.4348C37.6579 41.9041 37.6579 41.4618 37.3925 41.108C37.0387 40.4888 35.9773 40.4888 35.8888 40.4888C35.8004 40.4888 35.7119 40.4004 35.7119 40.2235C35.7119 40.135 35.8004 39.9581 35.9773 40.0466C36.0657 40.0466 37.304 40.135 37.8348 40.9311C38.1001 41.3733 38.1001 41.9925 37.8348 42.7001C37.7463 42.7001 37.6579 42.7001 37.6579 42.7001Z" fill="#002031"/>
<path id="Path_35" d="M46.9459 57.9138H46.8575L45.7076 57.2061C45.6191 57.1177 45.6191 57.0292 45.6191 56.9408C45.6191 56.8523 45.7076 56.7639 45.796 56.7639L47.1228 56.4985C47.2113 56.4985 47.3882 56.587 47.3882 56.6754C47.3882 56.7639 47.2997 56.9408 47.2113 56.9408L46.4152 57.1177L47.1228 57.56C47.2113 57.6484 47.2997 57.7369 47.2113 57.8253C47.1228 57.9138 47.0344 57.9138 46.9459 57.9138Z" fill="#002031"/>
<path id="Path_36" d="M42.3472 141.147C42.2587 141.147 42.2587 141.147 42.1703 141.147L40.755 140.439C40.6666 140.351 40.5781 140.262 40.5781 140.174C40.5781 140.086 40.6666 139.909 40.755 139.909L42.1703 139.113C42.3472 139.024 42.5241 139.113 42.6125 139.201C42.701 139.378 42.6125 139.555 42.5241 139.643L41.6395 140.086L42.5241 140.528C42.701 140.616 42.7894 140.793 42.701 140.97C42.5241 141.059 42.4356 141.147 42.3472 141.147Z" fill="#002031"/>
</g>
<g id="Group_4">
<path id="Path_37" d="M151.053 182.012H78.5223C73.2152 182.012 70.827 179.27 70.3847 174.405L58.7091 20.1449C58.4437 15.8992 60.7435 13.1572 65.4314 13.1572H138.316C142.561 13.1572 146.188 16.6068 146.453 20.7641L158.129 174.405C158.394 178.562 155.298 182.012 151.053 182.012Z" fill="#134BB9"/>
<path id="Path_38" d="M153.795 182.012H85.7754C81.0874 182.012 77.284 178.385 76.9302 173.786L65.2546 20.3218C64.9892 16.4299 67.9966 13.1572 71.8885 13.1572H141.058C145.303 13.1572 148.93 16.6068 149.195 20.7641L149.638 26.5134L151.849 98.6901L160.075 163.083L160.871 174.405C161.136 178.562 158.04 182.012 153.795 182.012Z" fill="#1BC1D7"/>
<path id="Path_39" d="M160.076 163.26H76.0471L65.6982 26.7788H149.639L160.076 163.26Z" fill="white"/>
<path id="Shape" fill-rule="evenodd" clip-rule="evenodd" d="M112.224 172.901C112.489 175.908 115.143 178.385 118.15 178.385C119.565 178.385 120.981 177.854 121.954 176.793C122.927 175.731 123.369 174.405 123.28 172.901C123.015 169.894 120.362 167.417 117.354 167.417C115.85 167.417 114.524 167.948 113.551 169.009C112.578 170.071 112.135 171.397 112.224 172.901ZM114.082 169.451C114.878 168.567 116.028 168.036 117.354 168.036C120.008 168.036 122.396 170.248 122.573 172.901C122.662 174.228 122.308 175.466 121.423 176.351C120.627 177.235 119.477 177.766 118.15 177.766C115.497 177.766 113.109 175.555 112.932 172.901C112.843 171.574 113.197 170.336 114.082 169.451Z" fill="white"/>
<path id="Path_40" d="M145.481 118.503H84.3612C82.4152 118.503 80.8231 116.911 80.6462 115.053L76.3121 55.8792C76.1352 53.1372 78.258 50.749 81.0885 50.749H139.467C142.032 50.749 144.066 52.695 144.243 55.2601L148.666 115.142C148.843 116.999 147.339 118.503 145.481 118.503Z" fill="white"/>
<path id="Path_41" d="M137.256 133.452H94.9758C93.7374 133.452 92.7645 132.479 92.676 131.24C92.5876 130.002 93.4721 129.029 94.7104 129.029H136.99C138.229 129.029 139.202 130.002 139.29 131.24C139.379 132.479 138.494 133.452 137.256 133.452Z" fill="#DCEEFD"/>
<path id="Path_42" d="M119.564 141.854H95.5939C94.3556 141.854 93.3826 140.882 93.2942 139.643C93.2057 138.405 94.0902 137.432 95.3286 137.432H119.299C120.537 137.432 121.51 138.405 121.599 139.643C121.687 140.882 120.803 141.854 119.564 141.854Z" fill="#DCEEFD"/>
<path id="Path_43" d="M137.874 141.854H128.321C127.083 141.854 126.11 140.882 126.022 139.643C125.933 138.405 126.818 137.432 128.056 137.432H137.609C138.847 137.432 139.82 138.405 139.909 139.643C139.997 140.882 139.113 141.854 137.874 141.854Z" fill="#DCEEFD"/>
<path id="Shape_2" fill-rule="evenodd" clip-rule="evenodd" d="M61.1866 45.9728H61.8942C62.6018 45.9728 63.221 45.7075 63.6632 45.1768C64.1055 44.6461 64.3708 44.0269 64.2824 43.3193L63.8401 37.6584C63.7517 36.2431 62.5133 35.0933 61.0981 35.0933H60.3905C59.6829 35.0933 59.0637 35.3586 58.6215 35.8893C58.1792 36.42 57.9138 37.0392 58.0023 37.7468L58.4446 43.4077C58.533 44.823 59.7713 45.9728 61.1866 45.9728ZM59.0636 36.42C59.4174 36.0662 59.8597 35.8893 60.3904 35.8893H61.098C62.1594 35.8893 63.0439 36.7738 63.1324 37.8352L63.5746 43.4961C63.6631 44.0268 63.4862 44.4691 63.1324 44.8229C62.7786 45.1767 62.3363 45.3536 61.8056 45.3536H61.098C60.0366 45.3536 59.152 44.4691 59.0636 43.4077L58.6213 37.7468C58.5329 37.2161 58.7098 36.7738 59.0636 36.42Z" fill="#002031"/>
<path id="Shape_3" fill-rule="evenodd" clip-rule="evenodd" d="M62.0704 58.3561H62.778C63.4856 58.3561 64.1047 58.0908 64.547 57.5601C64.9893 57.0294 65.2546 56.4102 65.1662 55.7026L64.7239 50.0417C64.6355 48.6264 63.3971 47.4766 61.9819 47.4766H61.2743C60.5667 47.4766 59.9475 47.7419 59.5053 48.2726C59.063 48.8033 58.7976 49.4225 58.8861 50.1301L59.3283 55.791C59.4168 57.2063 60.6551 58.3561 62.0704 58.3561ZM59.9484 48.715C60.3022 48.3612 60.7444 48.1843 61.2751 48.1843H61.9828C63.0442 48.1843 63.9287 49.0688 64.0172 50.1302L64.4594 55.7911C64.5479 56.3218 64.371 56.7641 64.0172 57.1179C63.6633 57.4717 63.2211 57.6486 62.6904 57.6486H61.9828C60.9213 57.6486 60.0368 56.7641 59.9484 55.7027L59.5061 50.0418C59.4177 49.5111 59.5946 49.0688 59.9484 48.715Z" fill="#002031"/>
<path id="Shape_4" fill-rule="evenodd" clip-rule="evenodd" d="M99.9287 22.0023H110.543C111.162 22.0023 111.781 21.737 112.135 21.2947C112.577 20.8525 112.754 20.2333 112.666 19.6142C112.489 18.4643 111.604 17.6682 110.454 17.6682H99.8403C99.2211 17.6682 98.6904 17.9336 98.2481 18.3758C97.8059 18.8181 97.629 19.4372 97.7174 20.0564C97.8943 21.2063 98.7788 22.0023 99.9287 22.0023ZM98.7792 18.8181C99.133 18.4643 99.4868 18.2874 99.9291 18.2874H110.543C111.339 18.2874 111.959 18.8181 112.047 19.6142C112.135 20.0564 111.959 20.4102 111.693 20.764C111.339 21.1178 110.986 21.2947 110.543 21.2947H99.9291C99.133 21.2947 98.5139 20.764 98.4254 19.968C98.337 19.5257 98.5139 19.1719 98.7792 18.8181Z" fill="white"/>
</g>
<g id="Group_5">
<path id="Path_44" d="M161.846 50.2185L169.806 71.7122C170.602 73.9235 172.725 75.3388 175.113 75.2503L187.497 76.4002L186.878 66.2282L176.086 66.1398L167.507 49.6877L161.846 50.2185Z" fill="#DD933C"/>
<path id="Path_45" d="M229.423 81.619L223.85 71.0932C222.258 68.1743 219.251 66.3168 215.89 66.2283C215.447 66.2283 215.182 66.2283 215.182 66.2283L200.587 66.1399L186.966 66.2283L187.143 76.4003L194.307 77.1964L188.116 100.017H220.312L220.135 81.442L229.423 81.619Z" fill="#FFCC00"/>
<path id="Shape_5" fill-rule="evenodd" clip-rule="evenodd" d="M189.709 66.1392C189.709 66.5814 189.355 66.9352 188.913 66.9352C188.471 66.9352 188.117 66.6699 188.117 66.1392H189.709ZM195.458 66.228C195.546 66.3165 195.634 66.4934 195.634 66.6703C195.634 67.1125 195.192 67.4663 194.75 67.4663C194.308 67.4663 193.954 67.1125 193.954 66.6703C193.954 66.4934 194.042 66.3165 194.131 66.228H195.458ZM217.04 66.9359C217.394 66.9359 217.659 66.759 217.748 66.4936C217.305 66.4052 216.775 66.3167 216.244 66.3167C216.332 66.6705 216.598 66.9359 217.04 66.9359ZM212.086 68.7046C212.086 69.1468 211.733 69.5007 211.29 69.5007C210.848 69.5007 210.494 69.1468 210.494 68.7046C210.494 68.2623 210.848 67.9085 211.29 67.9085C211.733 67.9085 212.086 68.2623 212.086 68.7046ZM204.921 69.8548C204.921 70.297 204.568 70.6508 204.125 70.6508C203.683 70.6508 203.329 70.297 203.329 69.8548C203.329 69.4125 203.683 69.0587 204.125 69.0587C204.568 69.0587 204.921 69.4125 204.921 69.8548ZM202.091 83.034C201.648 83.034 201.295 83.3878 201.295 83.83C201.295 84.2723 201.648 84.6261 202.091 84.6261C202.533 84.6261 202.887 84.2723 202.887 83.83C202.887 83.3878 202.533 83.034 202.091 83.034ZM205.187 87.6333C204.745 87.6333 204.391 87.9871 204.391 88.4294C204.391 88.8717 204.745 89.2255 205.187 89.2255C205.629 89.2255 205.983 88.8717 205.983 88.4294C205.983 87.9871 205.629 87.6333 205.187 87.6333ZM205.011 79.8496C205.011 79.4074 204.657 79.0536 204.215 79.0536C203.772 79.0536 203.419 79.4074 203.419 79.8496C203.419 80.2919 203.772 80.6457 204.215 80.6457C204.657 80.6457 205.011 80.2919 205.011 79.8496ZM196.076 74.0119C196.076 74.4542 195.723 74.808 195.28 74.808C194.838 74.808 194.484 74.4542 194.484 74.0119C194.484 73.5697 194.838 73.2159 195.28 73.2159C195.723 73.2159 196.076 73.5697 196.076 74.0119ZM195.457 93.4712C195.015 93.4712 194.661 93.8251 194.661 94.2673C194.661 94.7096 195.015 95.0634 195.457 95.0634C195.899 95.0634 196.253 94.7096 196.253 94.2673C196.253 93.8251 195.899 93.4712 195.457 93.4712ZM208.194 73.4812C208.194 73.0389 208.548 72.6851 208.99 72.6851C209.433 72.6851 209.786 73.0389 209.786 73.4812C209.786 73.9234 209.433 74.2772 208.99 74.2772C208.548 74.2772 208.194 73.9234 208.194 73.4812ZM201.914 94.179C201.472 94.179 201.118 94.5328 201.118 94.9751C201.118 95.4173 201.472 95.7712 201.914 95.7712C202.356 95.7712 202.71 95.4173 202.71 94.9751C202.622 94.5328 202.268 94.179 201.914 94.179ZM201.207 73.5694C201.649 73.5694 202.003 73.9232 202.003 74.3655C202.003 74.8078 201.649 75.1616 201.207 75.1616C200.765 75.1616 200.411 74.8078 200.411 74.3655C200.411 73.9232 200.765 73.5694 201.207 73.5694ZM195.899 84.0069C195.457 84.0069 195.103 84.3607 195.103 84.803C195.103 85.2452 195.457 85.5991 195.899 85.5991C196.341 85.5991 196.695 85.2452 196.695 84.803C196.695 84.3607 196.341 84.0069 195.899 84.0069ZM213.501 94.8865C213.501 94.4442 213.855 94.0904 214.297 94.0904C214.74 94.0904 215.093 94.4442 215.093 94.8865C215.093 95.3287 214.74 95.6825 214.297 95.6825C213.855 95.6825 213.501 95.3287 213.501 94.8865ZM214.475 83.3878C214.033 83.3878 213.679 83.7416 213.679 84.1838C213.679 84.6261 214.033 84.9799 214.475 84.9799C214.917 84.9799 215.271 84.6261 215.271 84.1838C215.271 83.7416 214.917 83.3878 214.475 83.3878ZM209.787 99.1321C209.787 98.6898 210.141 98.336 210.583 98.336C211.025 98.336 211.379 98.6898 211.379 99.1321C211.379 99.5743 211.025 99.9281 210.583 99.9281C210.141 99.9281 209.787 99.5743 209.787 99.1321ZM207.487 92.8519C207.045 92.8519 206.691 93.2057 206.691 93.6479C206.691 94.0902 207.045 94.444 207.487 94.444C207.929 94.444 208.283 94.0902 208.283 93.6479C208.283 93.2057 207.929 92.8519 207.487 92.8519ZM226.769 81.4418C226.769 80.9995 227.123 80.6457 227.565 80.6457C228.008 80.6457 228.362 80.9995 228.273 81.3533V81.5302H226.769V81.4418ZM215.094 73.658C214.651 73.658 214.298 74.0119 214.298 74.4541C214.298 74.8964 214.651 75.2502 215.094 75.2502C215.536 75.2502 215.89 74.8964 215.89 74.4541C215.89 74.0119 215.536 73.658 215.094 73.658ZM207.575 83.1224C207.133 83.1224 206.779 83.4762 206.779 83.9184C206.779 84.3607 207.133 84.7145 207.575 84.7145C208.018 84.7145 208.371 84.3607 208.371 83.9184C208.371 83.4762 208.018 83.1224 207.575 83.1224ZM211.201 78.0807C211.201 77.6385 211.555 77.2847 211.997 77.2847C212.44 77.2847 212.793 77.6385 212.793 78.0807C212.793 78.523 212.44 78.8768 211.997 78.8768C211.555 78.8768 211.201 78.523 211.201 78.0807ZM211.644 88.7833C211.202 88.7833 210.848 89.1371 210.848 89.5793C210.848 90.0216 211.202 90.3754 211.644 90.3754C212.086 90.3754 212.44 90.0216 212.44 89.5793C212.44 89.1371 211.998 88.7833 211.644 88.7833ZM198.641 68.97C198.641 69.4122 198.288 69.766 197.845 69.766C197.403 69.766 197.049 69.4122 197.049 68.97C197.049 68.5277 197.403 68.1739 197.845 68.1739C198.288 68.1739 198.641 68.5277 198.641 68.97ZM217.128 79.8498C217.571 79.8498 217.924 79.4959 217.924 79.0537C217.924 78.6114 217.571 78.2576 217.128 78.2576C216.686 78.2576 216.332 78.6114 216.332 79.0537C216.332 79.4959 216.686 79.8498 217.128 79.8498ZM216.951 88.695C216.951 88.2527 217.305 87.8989 217.747 87.8989C218.189 87.8989 218.543 88.2527 218.543 88.695C218.543 89.1373 218.189 89.4911 217.747 89.4911C217.305 89.4911 216.951 89.1373 216.951 88.695ZM219.781 93.3827C219.781 93.7365 219.958 94.0019 220.312 94.0903V92.6751C219.958 92.852 219.781 93.1173 219.781 93.3827ZM197.492 89.3138C197.934 89.3138 198.288 89.6676 198.288 90.1099C198.288 90.5522 197.934 90.906 197.492 90.906C197.05 90.906 196.696 90.5522 196.696 90.1099C196.696 89.6676 197.05 89.3138 197.492 89.3138ZM204.833 98.4246C204.391 98.4246 204.037 98.7784 204.037 99.2207C204.037 99.5745 204.303 99.9283 204.657 100.017H204.922C205.276 99.9283 205.541 99.6629 205.541 99.2207C205.629 98.7784 205.276 98.4246 204.833 98.4246ZM220.224 74.4541C220.224 74.0119 220.578 73.658 221.02 73.658C221.462 73.658 221.816 74.0119 221.816 74.4541C221.816 74.8964 221.462 75.2502 221.02 75.2502C220.578 75.2502 220.224 74.8964 220.224 74.4541ZM224.558 77.7268C224.116 77.7268 223.762 78.0806 223.762 78.5229C223.762 78.9652 224.116 79.319 224.558 79.319C225.001 79.319 225.355 78.9652 225.355 78.5229C225.355 78.0806 225.001 77.7268 224.558 77.7268ZM225.139 73.9043C225.035 73.9644 224.953 74.0118 224.824 74.0118C224.47 74.0118 224.116 73.658 224.028 73.2157C224.028 72.8619 224.293 72.5965 224.558 72.5081L225.266 73.8349C225.219 73.8585 225.178 73.8822 225.14 73.9042L225.139 73.9042L225.139 73.9043ZM217.128 68.97C217.128 68.5277 217.482 68.1739 217.924 68.1739C218.278 68.1739 218.632 68.5277 218.72 68.97C218.72 69.4122 218.366 69.766 217.924 69.766C217.482 69.766 217.128 69.4122 217.128 68.97ZM217.128 98.69C216.686 98.69 216.332 99.0438 216.332 99.4861C216.332 99.663 216.421 99.8399 216.509 100.017H217.659C217.748 99.8399 217.836 99.663 217.836 99.4861C217.924 99.0438 217.571 98.69 217.128 98.69ZM189.355 95.5057L189.797 94.002C190.151 94.002 190.416 94.3558 190.416 94.7981C190.416 95.2403 190.063 95.5942 189.62 95.5942C189.576 95.5942 189.532 95.572 189.488 95.5499C189.443 95.5278 189.399 95.5057 189.355 95.5057ZM198.642 98.2476C198.199 98.2476 197.846 98.6014 197.846 99.0437C197.846 99.4859 198.199 99.8397 198.642 99.8397C199.084 99.8397 199.438 99.4859 199.438 99.0437C199.438 98.6014 199.084 98.2476 198.642 98.2476ZM191.565 69.2355C192.008 69.2355 192.361 69.5893 192.361 70.0315C192.361 70.4738 192.008 70.8276 191.565 70.8276C191.123 70.8276 190.769 70.4738 190.769 70.0315C190.769 69.5893 191.123 69.2355 191.565 69.2355ZM197.404 80.115C197.404 80.5573 197.758 80.9111 198.2 80.9111C198.642 80.9111 198.996 80.5573 198.996 80.115C198.996 79.6728 198.642 79.319 198.2 79.319C197.758 79.319 197.404 79.6728 197.404 80.115ZM193.511 97.2747C193.068 97.2747 192.715 97.6285 192.715 98.0707C192.715 98.513 193.068 98.8668 193.511 98.8668C193.953 98.8668 194.307 98.513 194.307 98.0707C194.218 97.6285 193.953 97.2747 193.511 97.2747ZM188.823 73.3043C189.266 73.3043 189.619 73.6581 189.619 74.1003C189.619 74.5426 189.266 74.9848 188.823 74.8964C188.381 74.8964 188.027 74.5426 188.027 74.1003C188.027 73.6581 188.381 73.3043 188.823 73.3043ZM193.423 89.2256C193.423 88.7833 193.069 88.4295 192.627 88.4295C192.185 88.4295 191.831 88.7833 191.831 89.2256C191.831 89.6678 192.185 90.0216 192.627 90.0216C193.069 90.0216 193.423 89.5794 193.423 89.2256Z" fill="#FFDB4B"/>
<path id="Path_46" d="M220.135 81.4419L238.798 112.577L244.724 112.931L229.422 81.6188L220.135 81.4419Z" fill="#DD933C"/>
<path id="Path_47" d="M192.272 101.963L188.115 100.017H192.98L192.272 101.963Z" fill="#002031"/>
<path id="Path_48" d="M192.716 100.017L166.269 167.506H178.829L208.106 100.017H192.716Z" fill="#F17277"/>
<path id="Path_49" d="M220.312 100.017C220.489 107.181 219.781 111.339 213.855 111.339H188.823L192.715 100.017H220.312V100.017Z" fill="#F17277"/>
<path id="Path_50" d="M203.329 107.889L195.81 132.479C195.103 135.044 195.28 137.786 196.341 140.263L208.194 167.683H221.638L209.52 136.371L218.366 107.889H203.329Z" fill="#F17277"/>
<path id="Path_51" d="M176.97 167.506L173.874 175.555L164.94 175.201L168.39 167.506H176.97Z" fill="#DD933C"/>
<path id="Path_52" d="M214.562 175.555L211.201 167.682H219.958L223.319 175.201L214.562 175.555Z" fill="#DD933C"/>
<path id="Path_53" d="M220.224 164.675H206.78C206.603 164.675 206.426 164.498 206.426 164.321C206.426 164.144 206.603 163.967 206.78 163.967H220.224C220.401 163.967 220.578 164.144 220.578 164.321C220.578 164.498 220.401 164.675 220.224 164.675Z" fill="#002031"/>
<path id="Path_54" d="M180.509 163.967H167.772C167.595 163.967 167.418 163.791 167.418 163.614C167.418 163.437 167.595 163.26 167.772 163.26H180.509C180.686 163.26 180.863 163.437 180.863 163.614C180.863 163.791 180.686 163.967 180.509 163.967Z" fill="#002031"/>
<path id="Path_55" d="M198.819 121.51H198.73C198.553 121.422 198.465 121.245 198.553 121.068L202.887 108.243H199.261C199.084 108.243 198.907 108.066 198.907 107.889C198.907 107.712 199.084 107.535 199.261 107.535H203.33C203.418 107.535 203.507 107.623 203.595 107.712C203.683 107.8 203.683 107.889 203.683 107.977L199.172 121.245C199.084 121.422 198.996 121.51 198.819 121.51Z" fill="#002031"/>
<path id="Path_56" d="M204.302 70.9162C207.397 71.1816 211.997 68.8818 214.12 66.3167C213.766 66.3167 200.587 66.2283 200.587 66.2283C200.587 66.2283 200.056 70.5624 204.302 70.9162Z" fill="#DD933C"/>
<path id="Path_57" d="M212.795 55.0833L210.407 66.4051L202.357 66.6704L206.603 56.6754L212.795 55.0833Z" fill="#DD933C"/>
<path id="Path_58" d="M204.479 61.5402L205.452 59.3289L208.725 58.9751L204.479 61.5402Z" fill="#D2793C"/>
<path id="Path_59" d="M200.322 46.3266C199.614 47.388 200.322 49.7762 201.826 49.2455C202.71 48.4494 203.506 47.2111 203.595 45.9728C203.595 44.2922 200.764 45.0883 200.322 46.3266Z" fill="#002031"/>
<path id="Path_60" d="M214.121 51.5452C213.944 55.5255 208.991 58.9752 208.991 58.9752C208.991 58.9752 204.745 60.9211 201.295 58.5329C197.846 56.1447 201.295 48.0071 202.268 46.2381C203.064 44.9113 205.453 44.3806 207.222 44.3806C211.202 44.3806 214.298 47.5649 214.121 51.5452Z" fill="#DD933C"/>
<path id="Path_61" d="M215.27 47.0342C215.978 42.3462 209.167 42.4347 209.167 42.4347C209.167 42.4347 208.725 40.931 208.017 40.4887C206.779 39.7811 206.336 41.1079 206.513 41.9924C205.894 40.931 205.54 39.3389 204.037 39.3389C202.887 39.6042 202.71 41.5502 203.418 42.1693C198.641 37.9236 196.784 46.5035 205.363 47.388C207.752 47.6533 210.228 47.5649 210.405 47.388C210.14 49.8646 211.378 52.3413 213.855 53.1373C213.943 53.2258 215.005 49.7762 215.27 47.0342Z" fill="#002031"/>
<path id="Path_62" d="M204.302 56.0561C204.037 56.0561 203.683 56.0561 203.329 55.9677C203.241 55.9677 203.152 55.7908 203.152 55.7023C203.152 55.6139 203.329 55.5254 203.418 55.5254C204.656 55.7908 205.541 55.5254 205.894 54.7293C205.983 54.6409 206.071 54.5524 206.16 54.6409C206.248 54.7293 206.337 54.8178 206.248 54.9062C205.983 55.7023 205.275 56.0561 204.302 56.0561Z" fill="#002031"/>
<path id="Shape_6" fill-rule="evenodd" clip-rule="evenodd" d="M199.526 51.103C199.526 52.3413 200.499 53.4027 201.738 53.4027C202.268 53.4027 202.888 53.1374 203.241 52.7836C203.684 52.3413 203.949 51.7221 203.949 51.103C203.949 49.8646 202.976 48.8032 201.738 48.8032C201.207 48.8032 200.676 48.9801 200.234 49.4224C199.792 49.8646 199.526 50.4838 199.526 51.103ZM200.587 49.8644C200.853 49.5991 201.295 49.4222 201.649 49.4222C202.533 49.4222 203.241 50.2182 203.241 51.1028C203.241 51.6335 203.064 51.9873 202.799 52.3411C202.533 52.6064 202.091 52.7833 201.737 52.7833C200.853 52.7833 200.145 51.9873 200.145 51.1028C200.145 50.5721 200.322 50.2182 200.587 49.8644Z" fill="white"/>
<path id="Shape_7" fill-rule="evenodd" clip-rule="evenodd" d="M204.213 51.5454C204.213 52.7837 205.186 53.8451 206.424 53.8451C206.955 53.8451 207.574 53.5797 207.928 53.2259C208.282 52.7837 208.547 52.1645 208.547 51.5454C208.547 50.307 207.574 49.2456 206.336 49.2456C205.805 49.2456 205.274 49.4225 204.832 49.8648C204.478 50.307 204.213 50.9262 204.213 51.5454ZM205.274 50.3071C205.539 50.0417 205.893 49.8648 206.335 49.8648C207.22 49.8648 207.927 50.6609 207.927 51.4569C207.927 51.8992 207.75 52.253 207.485 52.6068C207.22 52.8722 206.866 53.0491 206.424 53.0491C205.539 53.0491 204.831 52.3414 204.831 51.4569C204.831 51.0147 205.008 50.6609 205.274 50.3071Z" fill="white"/>
<path id="Path_63" d="M203.772 54.287C203.683 54.287 203.064 54.1101 202.799 53.6679C202.71 53.4025 202.887 52.8718 203.241 52.0758C203.418 51.8104 203.507 51.4566 203.595 51.2797C203.595 51.1912 203.772 51.1028 203.86 51.1028C203.949 51.1028 204.037 51.2797 204.037 51.3681C203.949 51.545 203.86 51.8988 203.683 52.2527C203.507 52.6065 203.153 53.3141 203.241 53.4025C203.33 53.5794 203.683 53.7563 203.86 53.7563C203.949 53.7563 204.037 53.9332 204.037 54.0217C203.949 54.1986 203.86 54.287 203.772 54.287Z" fill="#002031"/>
<path id="Path_64" d="M204.479 51.2798L203.506 51.1913C203.329 51.1913 203.152 51.0144 203.24 50.8375C203.24 50.6606 203.417 50.4837 203.594 50.5721L204.479 50.6606C204.656 50.6606 204.832 50.8375 204.744 51.0144C204.832 51.1028 204.656 51.2798 204.479 51.2798Z" fill="white"/>
<path id="Path_65" d="M211.732 52.2528L208.194 51.8106C208.017 51.8106 207.929 51.6337 207.929 51.4568C207.929 51.2799 208.106 51.1914 208.283 51.1914L211.732 51.6337C211.909 51.6337 211.997 51.8106 211.997 51.9875C212.086 52.0759 211.909 52.2528 211.732 52.2528Z" fill="white"/>
<circle id="Oval_2" cx="211.998" cy="53.2256" r="2.12284" fill="#DD933C"/>
<path id="Path_66" d="M168.213 51.545L171.132 46.4148C171.309 46.1495 171.221 45.7072 171.044 45.5303C170.867 45.3534 170.513 45.2649 170.336 45.4418L167.86 47.2109L167.948 42.7883C167.948 42.346 167.594 41.9038 167.152 41.9038C166.798 41.9038 166.533 42.1691 166.444 42.6114L165.737 46.6802L165.56 42.346C165.56 41.9038 165.206 41.4615 164.764 41.55C164.322 41.55 163.968 41.9038 163.968 42.4345V46.6802L163.083 43.2305C162.906 42.6114 162.287 42.346 161.756 42.7883C161.491 42.9652 161.403 43.319 161.491 43.6728L161.933 47.7416L160.607 45.8841C160.076 45.4418 159.457 45.5303 159.28 46.061C159.191 46.2379 159.28 46.4148 159.368 46.5917L162.818 52.8718L168.213 51.545Z" fill="#DD933C"/>
<path id="Path_67" d="M167.595 47.8302C167.595 47.8302 167.507 47.8302 167.595 47.8302C167.507 47.8302 164.853 46.9456 163.438 47.8302C163.349 47.9186 163.172 47.8302 163.172 47.7417C163.084 47.6533 163.172 47.4763 163.261 47.4763C164.853 46.5034 167.595 47.3879 167.683 47.4763C167.772 47.4763 167.86 47.6533 167.86 47.7417C167.772 47.7417 167.683 47.8302 167.595 47.8302Z" fill="#002031"/>
<path id="Path_68" d="M244.37 112.223L247.732 116.469C247.997 116.734 248.085 117.088 247.909 117.353C247.732 117.618 247.466 117.707 247.201 117.618L245.255 116.469L246.67 120.626C246.847 121.068 246.582 121.599 246.228 121.687C245.874 121.776 245.52 121.599 245.343 121.245L243.486 117.53L244.547 121.687C244.636 122.129 244.459 122.572 244.017 122.749C243.574 122.837 243.132 122.572 243.044 122.129L241.805 118.061L241.894 121.599C241.894 122.218 241.363 122.66 240.832 122.395C240.567 122.306 240.302 121.953 240.302 121.599L239.506 117.618L238.267 119.918C237.825 120.537 237.294 120.626 236.941 120.095C236.852 119.918 236.764 119.741 236.852 119.564L238.886 112.4L244.37 112.223Z" fill="#DD933C"/>
<path id="Path_69" d="M220.135 81.7955C220.046 81.7955 219.869 81.7071 219.869 81.6186L217.923 77.9921C217.835 77.8152 217.923 77.6383 218.1 77.5498C218.277 77.4614 218.454 77.5498 218.543 77.7267L220.488 81.3533C220.577 81.5302 220.488 81.7071 220.312 81.7955C220.312 81.7955 220.223 81.7955 220.135 81.7955Z" fill="#002031"/>
<g id="Group_6">
<path id="Path_70" d="M164.677 171.486L159.016 175.554L155.655 177.146C153.975 178.031 153.975 179.623 153.975 179.623H177.061L176.088 172.635C175.911 172.105 174.495 172.016 174.319 172.547C173.965 173.52 172.815 174.581 171.488 174.67C169.542 174.758 167.419 172.901 166.358 171.839C165.916 171.309 165.296 171.132 164.677 171.486Z" fill="#FFCC00"/>
<path id="Path_71" d="M177.324 182.011H153.885V179.623H177.148L177.324 182.011Z" fill="white"/>
<rect id="Rectangle_6" x="159.521" y="175.492" width="0.619165" height="2.47666" transform="rotate(-73.1361 159.521 175.492)" fill="#002031"/>
<rect id="Rectangle_7" x="161.094" y="174.287" width="0.619126" height="2.56495" transform="rotate(-73.5477 161.094 174.287)" fill="#002031"/>
</g>
<g id="Group_7">
<path id="Path_72" d="M212.44 171.486L207.487 175.555L204.391 177.147C202.887 178.031 203.153 179.623 203.153 179.623H226.239L224.027 172.636C223.762 172.105 222.258 172.017 222.17 172.547C221.993 173.52 221.02 174.582 219.693 174.67C217.747 174.759 215.271 172.901 214.032 171.84C213.679 171.309 212.971 171.132 212.44 171.486Z" fill="#FFCC00"/>
<path id="Path_73" d="M226.946 182.012H203.507L203.064 179.624H226.327L226.946 182.012Z" fill="white"/>
<rect id="Rectangle_8" x="207.903" y="175.488" width="0.619154" height="2.65352" transform="rotate(-73.9484 207.903 175.488)" fill="#002031"/>
<path id="Path_74" d="M211.91 175.024L209.345 174.228L209.522 173.608L212.087 174.316L211.91 175.024Z" fill="#002031"/>
</g>
</g>
<path id="Path_75" d="M153.884 0.331694L154.68 2.80834C154.769 2.98525 154.857 3.0737 155.034 3.16215L157.511 3.95822C157.953 4.13512 157.953 4.75428 157.511 4.93119L155.122 5.72725C154.945 5.8157 154.857 5.90416 154.769 6.08106L153.972 9.08842C153.796 9.61913 153.088 9.61913 153 9.08842L152.203 6.08106C152.203 5.90416 152.027 5.8157 151.85 5.72725L149.638 4.93119C149.196 4.75428 149.196 4.13512 149.638 3.95822L151.85 3.16215C152.027 3.0737 152.115 2.98525 152.203 2.80834L153 0.331694C153.088 -0.110565 153.707 -0.110565 153.884 0.331694Z" fill="#A7FAC1"/>
<path id="Path_76" d="M16.2528 26.7788L16.7835 28.5478C16.7835 28.6363 16.8719 28.7247 17.0488 28.8132L18.8179 29.3439C19.1717 29.4323 19.1717 29.963 18.8179 30.0515L17.0488 30.5822C16.9604 30.5822 16.7835 30.7591 16.7835 30.8476L16.2528 33.0589C16.1643 33.4127 15.6336 33.4127 15.5452 33.0589L15.0144 30.8476C15.0144 30.7591 14.926 30.5822 14.7491 30.5822L13.157 30.0515C12.8031 29.963 12.8031 29.4323 13.157 29.3439L14.8375 28.8132C14.926 28.8132 15.0144 28.7247 15.1029 28.5478L15.6336 26.7788C15.6336 26.425 16.1643 26.425 16.2528 26.7788Z" fill="#A7FAC1"/>
<path id="Path_77" d="M184.754 25.6289L185.285 27.398C185.285 27.4864 185.373 27.5749 185.55 27.6633L187.319 28.194C187.673 28.2825 187.673 28.8132 187.319 28.9016L185.639 29.4323C185.55 29.4323 185.462 29.6092 185.373 29.6977L184.843 31.8205C184.754 32.1743 184.223 32.1743 184.135 31.8205L183.604 29.6977C183.604 29.6092 183.516 29.5208 183.339 29.4323L181.747 28.9016C181.393 28.8132 181.393 28.2825 181.747 28.194L183.339 27.5749C183.427 27.5749 183.516 27.4864 183.604 27.3095L184.135 25.5405C184.223 25.2751 184.666 25.2751 184.754 25.6289Z" fill="white"/>
<path id="Path_78" d="M193.245 13.8647L193.776 15.4569C193.776 15.5453 193.864 15.6338 193.953 15.6338L195.545 16.1645C195.899 16.2529 195.899 16.6952 195.545 16.7836L193.953 17.3143C193.864 17.3143 193.776 17.4028 193.688 17.5797L193.157 19.5256C193.068 19.8794 192.626 19.8794 192.538 19.5256L192.007 17.5797C192.007 17.4912 191.919 17.4028 191.83 17.3143L190.415 16.7836C190.149 16.6952 190.149 16.2529 190.415 16.1645L191.83 15.6338C191.919 15.6338 192.007 15.5453 192.007 15.4569L192.538 13.8647C192.715 13.5109 193.157 13.5109 193.245 13.8647Z" fill="#3DEC94"/>
<path id="Path_79" d="M29.7862 16.7838L30.14 17.9337C30.14 18.0221 30.2285 18.1106 30.3169 18.1106L31.4668 18.4644C31.7321 18.5528 31.7321 18.8182 31.4668 18.9066L30.3169 19.2605C30.2285 19.2605 30.14 19.3489 30.14 19.4374L29.7862 20.8526C29.6978 21.1179 29.344 21.1179 29.344 20.8526L28.9901 19.4374C28.9901 19.3489 28.9017 19.2605 28.8132 19.2605L27.7518 18.9066C27.5749 18.8182 27.5749 18.5528 27.7518 18.4644L28.8132 18.1106C28.9017 18.1106 28.9017 18.0221 28.9901 17.9337L29.344 16.7838C29.344 16.6069 29.6978 16.6069 29.7862 16.7838Z" fill="#A7FAC1"/>
<g id="Symbols_1_">
<g id="Logo_CoronaCheck_1_">
<g id="Group-5_1_">
<g id="Group-2_1_">
<g id="Rectangle_10_">
<path id="Shape_8" fill-rule="evenodd" clip-rule="evenodd" d="M93.9576 107.049H108.11C109.702 107.049 110.94 105.722 110.852 104.13L109.879 89.9777C109.79 88.3856 108.287 87.0588 106.695 87.0588H92.5424C90.9502 87.0588 89.7119 88.3856 89.8004 89.9777L90.7733 104.13C90.8618 105.722 92.3655 107.049 93.9576 107.049ZM103.511 99.9729H97.4958L97.0536 93.9582H103.068L103.511 99.9729Z" fill="#1BC1D7"/>
</g>
<g id="Rectangle_9_">
<path id="Shape_9" fill-rule="evenodd" clip-rule="evenodd" d="M92.1002 81.4864H106.252C107.933 81.4864 109.171 80.1597 108.994 78.5675L108.021 64.4152C107.933 62.8231 106.429 61.4963 104.837 61.4963H90.6849C89.0928 61.4963 87.8545 62.8231 87.9429 64.4152L88.9159 78.5675C89.0044 80.1597 90.508 81.4864 92.1002 81.4864ZM101.653 74.4102H95.6379L95.1956 68.3955H101.21L101.653 74.4102Z" fill="#1BC1D7"/>
</g>
<g id="Rectangle_8_">
<path id="Shape_10" fill-rule="evenodd" clip-rule="evenodd" d="M117.663 81.4864H131.815C133.496 81.4864 134.734 80.1597 134.557 78.5675L133.584 64.4152C133.496 62.8231 131.992 61.4963 130.4 61.4963H116.247C114.655 61.4963 113.417 62.8231 113.505 64.4152L114.478 78.5675C114.567 80.1597 116.071 81.4864 117.663 81.4864ZM127.216 74.4102H121.201L120.759 68.3955H126.774L127.216 74.4102Z" fill="#1BC1D7"/>
</g>
</g>
</g>
</g>
<g id="Group_8">
<path id="Path_80" fill-rule="evenodd" clip-rule="evenodd" d="M122.218 93.6491H116.468C115.938 93.6491 115.495 93.2068 115.495 92.6761L115.142 87.8997C115.142 87.369 115.495 86.9268 116.026 86.9268H120.803C121.333 86.9268 121.775 87.369 121.775 87.8997L122.218 93.6491Z" fill="#1BC1D7"/>
<path id="Path_81" fill-rule="evenodd" clip-rule="evenodd" d="M129.382 100.282H122.748L122.218 93.6484H128.94L129.382 100.282Z" fill="#1BC1D7"/>
<path id="Path_82" fill-rule="evenodd" clip-rule="evenodd" d="M135.663 107.005H130.887C130.356 107.005 129.914 106.563 129.914 106.032L129.472 100.282H135.221C135.752 100.282 136.194 100.725 136.194 101.255L136.548 106.032C136.548 106.563 136.106 107.005 135.663 107.005Z" fill="#1BC1D7"/>
<path id="Path_83" fill-rule="evenodd" clip-rule="evenodd" d="M134.69 93.6486H128.94L128.498 87.8992C128.498 87.3685 128.852 86.9263 129.383 86.9263H134.159C134.69 86.9263 135.132 87.3685 135.132 87.8992L135.486 92.6756C135.574 93.2063 135.22 93.6486 134.69 93.6486Z" fill="#1BC1D7"/>
<path id="Path_84" fill-rule="evenodd" clip-rule="evenodd" d="M122.218 107.005H117.442C116.911 107.005 116.469 106.563 116.469 106.032L116.115 101.255C116.115 100.725 116.469 100.282 117 100.282H122.749L123.191 106.032C123.191 106.563 122.749 107.005 122.218 107.005Z" fill="#1BC1D7"/>
</g>
</g>
</g>
</svg>
