<svg width="16" height="14" viewBox="0 0 16 14" fill="none" xmlns="http://www.w3.org/2000/svg">
<path fill-rule="evenodd" clip-rule="evenodd" d="M7.96289 2.39988C8.42877 1.82354 8.39771 0.968956 7.86972 0.429711C7.30872 -0.143237 6.39917 -0.143237 5.83818 0.429711L0.420745 5.96259L0.32757 6.06724C-0.138307 6.64359 -0.107249 7.49817 0.420745 8.03741L5.83818 13.5703L5.94065 13.6654C6.50497 14.1413 7.34172 14.1095 7.86972 13.5703L7.96289 13.4656C8.42877 12.8893 8.39771 12.0347 7.86972 11.4955L4.83643 8.39754H14.5635L14.7018 8.39082C15.4303 8.31973 16 7.69302 16 6.93042C16 6.12014 15.3569 5.46329 14.5635 5.46329H4.97203L7.86972 2.50454L7.96289 2.39988Z" fill="#383836"/>
</svg>
