<svg width="20" height="20" viewBox="0 0 20 20" fill="none" xmlns="http://www.w3.org/2000/svg">
<path fill-rule="evenodd" clip-rule="evenodd" d="M20 10C20 4.47715 15.5228 0 10 0C4.47715 0 0 4.47715 0 10C0 15.5228 4.47715 20 10 20C15.5228 20 20 15.5228 20 10ZM10.16 12.2647C10.5743 12.2647 10.8208 12.0493 10.8995 11.6184C10.9451 11.4154 10.9793 11.2735 11.002 11.1927C11.0248 11.1119 11.0569 11.0312 11.0984 10.9504C11.1398 10.8696 11.203 10.7805 11.2879 10.6831C11.3728 10.5858 11.4857 10.4729 11.6266 10.3445C12.1362 9.88873 12.4894 9.56454 12.6862 9.37189C12.883 9.17924 13.0528 8.95034 13.1958 8.68519C13.3387 8.42004 13.4102 8.11139 13.4102 7.75923C13.4102 7.31179 13.2848 6.89749 13.0342 6.51634C12.7835 6.13518 12.4283 5.83378 11.9684 5.61213C11.5085 5.39048 10.9782 5.27965 10.3775 5.27965C9.73118 5.27965 9.16566 5.41223 8.68093 5.67738C8.1962 5.94253 7.82747 6.27708 7.57475 6.68102C7.32203 7.08496 7.19567 7.48372 7.19567 7.87731C7.19567 8.06789 7.27542 8.245 7.43493 8.40865C7.59443 8.5723 7.79019 8.65412 8.02219 8.65412C8.41578 8.65412 8.683 8.42004 8.82386 7.95188C8.97301 7.50444 9.1553 7.16575 9.37074 6.93581C9.58617 6.70588 9.92176 6.59091 10.3775 6.59091C10.7669 6.59091 11.0849 6.70484 11.3314 6.93271C11.5779 7.16057 11.7012 7.44022 11.7012 7.77166C11.7012 7.94152 11.6608 8.09896 11.58 8.24396C11.4992 8.38897 11.3998 8.52051 11.2817 8.63858C11.1636 8.75666 10.972 8.9317 10.7069 9.16371C10.4044 9.42886 10.1641 9.65776 9.98597 9.85041C9.80782 10.0431 9.66489 10.2668 9.55717 10.5216C9.44946 10.7764 9.3956 11.0778 9.3956 11.4258C9.3956 11.7034 9.46914 11.9126 9.61621 12.0534C9.76329 12.1943 9.94454 12.2647 10.16 12.2647ZM10.2283 14.6884C10.4728 14.6884 10.6882 14.6055 10.8746 14.4398C11.0611 14.2741 11.1543 14.0462 11.1543 13.7562C11.1543 13.4952 11.0652 13.2756 10.8871 13.0975C10.7089 12.9193 10.4893 12.8303 10.2283 12.8303C9.96319 12.8303 9.73947 12.9193 9.55717 13.0975C9.37488 13.2756 9.28374 13.4952 9.28374 13.7562C9.28374 14.0504 9.37799 14.2793 9.56649 14.4429C9.755 14.6066 9.97562 14.6884 10.2283 14.6884Z" fill="#383836"/>
</svg>
