<svg width="10" height="13" viewBox="0 0 10 13" fill="none" xmlns="http://www.w3.org/2000/svg">
<path d="M2.1166 12.98C2.44881 12.98 2.73815 12.8806 2.97391 12.6818L9.40369 7.32244C9.70375 7.07843 9.83234 6.81633 9.83234 6.50002C9.83234 6.1837 9.69303 5.92161 9.40369 5.67759L2.97391 0.318262C2.73815 0.119434 2.45952 0.0200195 2.1166 0.0200195C1.42004 0.0200195 0.862793 0.48094 0.862793 1.05935C0.862793 1.34855 1.01282 1.61065 1.2593 1.81851L6.88536 6.50002L1.2593 11.1815C1.01282 11.3894 0.862793 11.6515 0.862793 11.9407C0.862793 12.5191 1.42004 12.98 2.1166 12.98Z" fill="#3C3C43" fill-opacity="0.3"/>
</svg>
