<svg width="16" height="16" viewBox="0 0 16 16" fill="none" xmlns="http://www.w3.org/2000/svg">
<path fill-rule="evenodd" clip-rule="evenodd" d="M13.7287 1.95108C13.2601 1.48245 12.5003 1.48245 12.0317 1.95108L7.98418 5.99855L3.93671 1.95108L3.84557 1.86871C3.37425 1.48428 2.679 1.51174 2.23966 1.95108C1.77103 2.41971 1.77103 3.17951 2.23966 3.64814L6.28713 7.69561L2.23966 11.7431L2.15728 11.8342C1.77286 12.3055 1.80032 13.0008 2.23966 13.4401C2.70828 13.9088 3.46808 13.9088 3.93671 13.4401L7.98418 9.39267L12.0317 13.4401L12.1228 13.5225C12.5941 13.9069 13.2894 13.8795 13.7287 13.4401C14.1973 12.9715 14.1973 12.2117 13.7287 11.7431L9.68124 7.69561L13.7287 3.64814L13.8111 3.557C14.1955 3.08567 14.1681 2.39042 13.7287 1.95108Z" fill="#FFFFFF"/>
</svg>
