<svg width="200" height="200" viewBox="0 0 200 200" fill="none" xmlns="http://www.w3.org/2000/svg">
<path d="M100 200C155.228 200 200 155.228 200 100C200 44.7715 155.228 0 100 0C44.7715 0 0 44.7715 0 100C0 155.228 44.7715 200 100 200Z" fill="#DCEEFD"/>
<rect x="83.8667" y="50.7324" width="88.6957" height="126.087" rx="0.869565" transform="rotate(-7.05218 83.8667 50.7324)" fill="#C0E0FD"/>
<rect x="77.0786" y="45.4375" width="88.6957" height="126.087" rx="0.869565" transform="rotate(-7.05218 77.0786 45.4375)" fill="white"/>
<rect x="121.411" y="42.582" width="0.869565" height="120.87" transform="rotate(-7.05218 121.411 42.582)" fill="#F2F2F7"/>
<rect x="87.4609" y="108.115" width="0.869562" height="83.4783" transform="rotate(-97.0522 87.4609 108.115)" fill="#F2F2F7"/>
<path d="M115.778 73.9454L91.3681 76.9651C90.9596 77.0157 90.6694 77.3878 90.7199 77.7963L92.5968 92.9677C92.6473 93.3762 93.0194 93.6664 93.428 93.6159L117.838 90.5961C118.247 90.5456 118.537 90.1735 118.486 89.7649L116.61 74.5936C116.559 74.185 116.187 73.8948 115.778 73.9454Z" fill="#1540EB"/>
<path d="M104.471 83.0808L104.651 84.5423L104.43 84.5697L103.498 83.6781L103.621 84.6698L103.347 84.7037L103.166 83.2422L103.388 83.2147L104.319 84.1064L104.197 83.1147L104.471 83.0808Z" fill="white"/>
<path d="M104.888 83.0293L105.162 82.9954L105.314 84.222L106.084 84.1268L106.113 84.3617L105.082 84.4892L104.901 83.0277L104.888 83.0293Z" fill="white"/>
<path d="M103.698 77.2685L103.555 77.9353L102.916 78.0144L103.465 78.3837L103.404 78.9609L103.856 78.5473L104.396 78.8383L104.196 78.2933L104.639 77.8013L103.999 77.8804L103.698 77.2685Z" fill="#FFEC00"/>
<path d="M108.946 79.5185L108.805 80.1984L108.165 80.2775L108.713 80.6337L108.64 81.2256L109.106 80.8103L109.645 81.1013L109.43 80.5449L109.888 80.0644L109.248 80.1435L108.946 79.5185Z" fill="#FFEC00"/>
<path d="M105.111 88.6845L104.968 89.3513L104.329 89.4304L104.878 89.7997L104.818 90.39L105.271 89.9763L105.81 90.2673L105.609 89.7093L106.051 89.2173L105.412 89.2964L105.111 88.6845Z" fill="#FFEC00"/>
<path d="M98.651 83.6942L98.5083 84.3611L97.8689 84.4402L98.418 84.8095L98.3586 85.3998L98.8092 84.9731L99.3634 85.2755L99.1488 84.7191L99.5914 84.2271L98.952 84.3062L98.651 83.6942Z" fill="#FFEC00"/>
<path d="M110.16 82.2704L110.018 82.9373L109.378 83.0164L109.927 83.3856L109.855 83.9776L110.319 83.5492L110.86 83.8533L110.658 83.2952L111.101 82.8033L110.461 82.8824L110.16 82.2704Z" fill="#FFEC00"/>
<path d="M100.934 78.4833L100.792 79.1502L100.152 79.2293L100.701 79.5985L100.64 80.1758L101.092 79.7621L101.645 80.0515L101.432 79.5081L101.875 79.0162L101.235 79.0953L100.934 78.4833Z" fill="#FFEC00"/>
<path d="M106.689 77.7724L106.546 78.4392L105.906 78.5183L106.456 78.8876L106.382 79.4665L106.847 79.0512L107.386 79.3422L107.186 78.7972L107.629 78.3052L106.99 78.3843L106.689 77.7724Z" fill="#FFEC00"/>
<path d="M102.134 88.1786L101.991 88.8455L101.352 88.9246L101.901 89.2938L101.84 89.8711L102.294 89.4705L102.844 89.7468L102.631 89.2034L103.074 88.7115L102.435 88.7906L102.134 88.1786Z" fill="#FFEC00"/>
<path d="M107.888 87.4677L107.745 88.1345L107.106 88.2136L107.655 88.5829L107.581 89.1618L108.048 88.7595L108.586 89.0375L108.386 88.4925L108.828 88.0005L108.189 88.0796L107.888 87.4677Z" fill="#FFEC00"/>
<path d="M99.1586 80.7294L99.0175 81.4093L98.3781 81.4884L98.9387 81.843L98.8661 82.4349L99.3184 82.0213L99.8709 82.3106L99.6564 81.7542L100.101 81.2753L99.4612 81.3544L99.1586 80.7294Z" fill="#FFEC00"/>
<path d="M99.8656 86.4442L99.7213 87.098L99.0819 87.1771L99.6441 87.5448L99.5699 88.1237L100.022 87.71L100.575 87.9994L100.362 87.456L100.804 86.9641L100.165 87.0432L99.8656 86.4442Z" fill="#FFEC00"/>
<path d="M109.653 85.2353L109.508 85.8891L108.869 85.9682L109.418 86.3374L109.344 86.9163L109.809 86.501L110.349 86.792L110.136 86.2486L110.591 85.7551L109.952 85.8342L109.653 85.2353Z" fill="#FFEC00"/>
<path d="M97.899 135.476L105.407 134.547L104.435 127.044L96.927 127.973L97.899 135.476ZM99.7464 133.057L99.3461 129.82L102.582 129.42L102.983 132.656L99.7464 133.057Z" fill="#002031"/>
<path d="M116.151 133.218L123.659 132.289L122.687 124.786L115.179 125.715L116.151 133.218ZM118.042 130.794L117.642 127.557L120.878 127.157L121.278 130.393L118.042 130.794Z" fill="#002031"/>
<path d="M100.205 153.765L107.713 152.836L106.741 145.333L99.2332 146.262L100.205 153.765ZM102.053 151.346L101.652 148.11L104.888 147.709L105.289 150.945L102.053 151.346Z" fill="#002031"/>
<path d="M109.871 152.568L118.458 151.506L117.524 143.955L115.366 144.222L116.033 149.615L109.561 150.416L109.871 152.568Z" fill="#002031"/>
<path d="M120.615 151.24L126.009 150.572L125.699 148.42L122.463 148.82L122.105 145.579L125.342 145.179L125.031 143.026L119.638 143.694L120.615 151.24Z" fill="#002031"/>
<path d="M98.9611 144.059L106.512 143.125L106.207 141.016L100.814 141.683L100.28 137.368L98.1226 137.635L98.9611 144.059Z" fill="#002031"/>
<path d="M109.204 147.175L113.519 146.641L113.209 144.489L111.051 144.756L110.784 142.598L115.099 142.064L114.571 137.793L116.728 137.526L117.257 141.797L124.765 140.869L124.503 138.754L119.11 139.422L118.576 135.107L112.103 135.907L112.68 140.217L108.365 140.751L109.204 147.175Z" fill="#002031"/>
<path d="M123.926 134.446L124.236 136.598L121 136.998L120.733 134.841L123.926 134.446Z" fill="#002031"/>
<path d="M113.567 130.032L114.037 133.479L111.88 133.745L111.409 130.299L113.567 130.032Z" fill="#002031"/>
<path d="M111.625 130.272L111.855 132.127L109.136 132.463L108.907 130.608L111.625 130.272Z" fill="#002031"/>
<path d="M105.674 136.704L102.438 137.104L102.748 139.256L105.941 138.861L105.674 136.704Z" fill="#002031"/>
<path d="M108.055 138.6L110.256 138.327L109.012 128.624L113.284 128.096L113.065 125.976L106.593 126.777L107.832 136.437L108.055 138.6Z" fill="#002031"/>
<rect x="95.219" y="114.166" width="26.087" height="2.6087" transform="rotate(-7.05218 95.219 114.166)" fill="#F2F2F7"/>
<rect x="87.5322" y="52.0293" width="26.087" height="6.08696" transform="rotate(-7.05218 87.5322 52.0293)" fill="#F2F2F7"/>
<rect x="128.093" y="47.0137" width="33.913" height="1.73913" transform="rotate(-7.05218 128.093 47.0137)" fill="#F2F2F7"/>
<rect x="95.7529" y="118.48" width="26.087" height="0.869565" transform="rotate(-7.05218 95.7529 118.48)" fill="#F2F2F7"/>
<rect x="135.779" y="109.148" width="13.0435" height="0.869565" transform="rotate(-7.05218 135.779 109.148)" fill="#F2F2F7"/>
<rect x="136.527" y="115.189" width="13.0435" height="0.869565" transform="rotate(-7.05218 136.527 115.189)" fill="#F2F2F7"/>
<rect x="137.274" y="121.229" width="13.0435" height="0.869565" transform="rotate(-7.05218 137.274 121.229)" fill="#F2F2F7"/>
<rect x="138.021" y="127.27" width="13.0435" height="0.869565" transform="rotate(-7.05218 138.021 127.27)" fill="#F2F2F7"/>
<rect x="138.769" y="133.312" width="13.0435" height="0.869565" transform="rotate(-7.05218 138.769 133.312)" fill="#F2F2F7"/>
<rect x="139.516" y="139.354" width="13.0435" height="0.869565" transform="rotate(-7.05218 139.516 139.354)" fill="#F2F2F7"/>
<rect x="140.263" y="145.393" width="13.0435" height="0.869565" transform="rotate(-7.05218 140.263 145.393)" fill="#F2F2F7"/>
<rect x="141.01" y="151.434" width="13.0435" height="0.869565" transform="rotate(-7.05218 141.01 151.434)" fill="#F2F2F7"/>
<rect x="135.993" y="110.873" width="13.0435" height="0.869565" transform="rotate(-7.05218 135.993 110.873)" fill="#F2F2F7"/>
<rect x="136.74" y="116.914" width="13.0435" height="0.869565" transform="rotate(-7.05218 136.74 116.914)" fill="#F2F2F7"/>
<rect x="137.488" y="122.955" width="13.0435" height="0.869565" transform="rotate(-7.05218 137.488 122.955)" fill="#F2F2F7"/>
<rect x="138.235" y="128.996" width="13.0435" height="0.869565" transform="rotate(-7.05218 138.235 128.996)" fill="#F2F2F7"/>
<rect x="138.982" y="135.037" width="13.0435" height="0.869565" transform="rotate(-7.05218 138.982 135.037)" fill="#F2F2F7"/>
<rect x="139.729" y="141.078" width="13.0435" height="0.869565" transform="rotate(-7.05218 139.729 141.078)" fill="#F2F2F7"/>
<rect x="140.477" y="147.119" width="13.0435" height="0.869565" transform="rotate(-7.05218 140.477 147.119)" fill="#F2F2F7"/>
<rect x="141.224" y="153.16" width="13.0435" height="0.869565" transform="rotate(-7.05218 141.224 153.16)" fill="#F2F2F7"/>
<rect x="155.628" y="106.691" width="13.0435" height="0.869565" transform="rotate(-7.05218 155.628 106.691)" fill="#F2F2F7"/>
<rect x="156.375" y="112.732" width="13.0435" height="0.869565" transform="rotate(-7.05218 156.375 112.732)" fill="#F2F2F7"/>
<rect x="157.123" y="118.773" width="13.0435" height="0.869565" transform="rotate(-7.05218 157.123 118.773)" fill="#F2F2F7"/>
<rect x="157.87" y="124.816" width="13.0435" height="0.869565" transform="rotate(-7.05218 157.87 124.816)" fill="#F2F2F7"/>
<rect x="158.617" y="130.855" width="13.0435" height="0.869565" transform="rotate(-7.05218 158.617 130.855)" fill="#F2F2F7"/>
<rect x="159.365" y="136.896" width="13.0435" height="0.869565" transform="rotate(-7.05218 159.365 136.896)" fill="#F2F2F7"/>
<rect x="160.112" y="142.938" width="13.0435" height="0.869565" transform="rotate(-7.05218 160.112 142.938)" fill="#F2F2F7"/>
<rect x="160.859" y="148.979" width="13.0435" height="0.869565" transform="rotate(-7.05218 160.859 148.979)" fill="#F2F2F7"/>
<rect x="155.842" y="108.418" width="13.0435" height="0.869565" transform="rotate(-7.05218 155.842 108.418)" fill="#F2F2F7"/>
<rect x="156.589" y="114.459" width="13.0435" height="0.869565" transform="rotate(-7.05218 156.589 114.459)" fill="#F2F2F7"/>
<rect x="157.336" y="120.5" width="13.0435" height="0.869565" transform="rotate(-7.05218 157.336 120.5)" fill="#F2F2F7"/>
<rect x="158.083" y="126.541" width="13.0435" height="0.869565" transform="rotate(-7.05218 158.083 126.541)" fill="#F2F2F7"/>
<rect x="158.831" y="132.582" width="13.0435" height="0.869565" transform="rotate(-7.05218 158.831 132.582)" fill="#F2F2F7"/>
<rect x="159.578" y="138.623" width="13.0435" height="0.869565" transform="rotate(-7.05218 159.578 138.623)" fill="#F2F2F7"/>
<rect x="160.325" y="144.664" width="13.0435" height="0.869565" transform="rotate(-7.05218 160.325 144.664)" fill="#F2F2F7"/>
<rect x="161.073" y="150.705" width="13.0435" height="0.869565" transform="rotate(-7.05218 161.073 150.705)" fill="#F2F2F7"/>
<rect x="88.7068" y="61.5234" width="26.087" height="0.869565" transform="rotate(-7.05218 88.7068 61.5234)" fill="#F2F2F7"/>
<rect x="128.733" y="52.1914" width="33.913" height="0.869565" transform="rotate(-7.05218 128.733 52.1914)" fill="#F2F2F7"/>
<rect x="89.0269" y="64.1133" width="26.087" height="0.869565" transform="rotate(-7.05218 89.0269 64.1133)" fill="#F2F2F7"/>
<rect x="129.054" y="54.7793" width="33.913" height="0.869565" transform="rotate(-7.05218 129.054 54.7793)" fill="#F2F2F7"/>
<rect x="89.3472" y="66.7012" width="26.087" height="0.869565" transform="rotate(-7.05218 89.3472 66.7012)" fill="#F2F2F7"/>
<rect x="129.374" y="57.3691" width="33.913" height="0.869565" transform="rotate(-7.05218 129.374 57.3691)" fill="#F2F2F7"/>
<rect x="89.6675" y="69.2891" width="26.087" height="0.869565" transform="rotate(-7.05218 89.6675 69.2891)" fill="#F2F2F7"/>
<rect x="129.694" y="59.957" width="33.913" height="0.869565" transform="rotate(-7.05218 129.694 59.957)" fill="#F2F2F7"/>
<path d="M73.9231 22.0488L81.9007 24.2024C84.4508 24.8908 85.96 27.5161 85.2716 30.0662L61.3024 118.858C60.614 121.408 57.9887 122.917 55.4386 122.228L47.461 120.075C57.7951 81.7933 63.589 60.3304 73.9231 22.0488Z" fill="#213FE2"/>
<rect x="34.1958" y="11.3281" width="50.456" height="101.535" rx="4.78261" transform="rotate(15.1069 34.1958 11.3281)" fill="#6EAAEF"/>
<rect x="35.5686" y="24.8066" width="40.7795" height="76.1512" rx="0.622914" transform="rotate(15.1069 35.5686 24.8066)" fill="white"/>
<path d="M37.6987 50.6772L44.334 52.4551L46.0738 45.8095L39.4385 44.0316L37.6987 50.6772ZM40.0781 49.2711L40.8445 46.4111L43.7045 47.1774L42.9382 50.0375L40.0781 49.2711Z" fill="#002031"/>
<path d="M53.8293 54.9994L60.4646 56.7773L62.2044 50.1318L55.5691 48.3539L53.8293 54.9994ZM56.2469 53.6036L57.0132 50.7436L59.8733 51.5099L59.1069 54.37L56.2469 53.6036Z" fill="#002031"/>
<path d="M33.4042 66.8568L40.0396 68.6348L41.7793 61.9892L35.144 60.2113L33.4042 66.8568ZM35.7837 65.4508L36.55 62.5908L39.4101 63.3571L38.6437 66.2172L35.7837 65.4508Z" fill="#002031"/>
<path d="M41.9472 69.1444L49.5359 71.1777L51.324 64.5043L49.4173 63.9934L48.1401 68.7601L42.42 67.2274L41.9472 69.1444Z" fill="#002031"/>
<path d="M51.4422 71.6895L56.209 72.9668L56.6817 71.0499L53.8217 70.2835L54.6262 67.4337L57.4862 68.2L57.959 66.2831L53.1922 65.0059L51.4422 71.6895Z" fill="#002031"/>
<path d="M35.6657 58.2665L42.3391 60.0547L42.8017 58.1759L38.0349 56.8987L39.0567 53.0853L37.15 52.5744L35.6657 58.2665Z" fill="#002031"/>
<path d="M43.2243 64.3781L47.0377 65.3999L47.5104 63.483L45.6037 62.9721L46.1146 61.0654L49.928 62.0872L50.9396 58.312L52.8463 58.8229L51.8347 62.5981L58.47 64.3761L58.9707 62.5075L54.204 61.2302L55.2258 57.4168L49.5057 55.8841L48.522 59.7078L44.7086 58.686L43.2243 64.3781Z" fill="#002031"/>
<path d="M59.9547 58.6846L59.4819 60.6016L56.6219 59.8352L57.1328 57.9285L59.9547 58.6846Z" fill="#002031"/>
<path d="M52.7405 51.4371L51.9612 54.498L50.0545 53.9871L50.8338 50.9262L52.7405 51.4371Z" fill="#002031"/>
<path d="M51.0248 50.9774L50.5854 52.6172L48.183 51.9735L48.6224 50.3337L51.0248 50.9774Z" fill="#002031"/>
<path d="M43.8236 54.3609L40.9636 53.5945L40.4908 55.5114L43.3127 56.2676L43.8236 54.3609Z" fill="#002031"/>
<path d="M45.1815 56.7681L47.1263 57.2892L49.3873 48.6988L53.1625 49.7104L53.7013 47.8521L47.9812 46.3194L45.7305 54.8716L45.1815 56.7681Z" fill="#002031"/>
</svg>
