<svg width="200" height="200" viewBox="0 0 200 200" fill="none" xmlns="http://www.w3.org/2000/svg">
<path d="M100 200C155.228 200 200 155.228 200 100C200 44.7715 155.228 0 100 0C44.7715 0 0 44.7715 0 100C0 155.228 44.7715 200 100 200Z" fill="#DCEEFD"/>
<rect x="59.1299" y="40" width="88.6957" height="126.087" rx="1" fill="#C0E0FD"/>
<rect x="53.0425" y="33.9141" width="88.6957" height="126.087" rx="1" fill="white"/>
<rect x="97.3901" y="36.5234" width="0.869565" height="120.87" fill="#F2F2F7"/>
<rect x="55.6514" y="97.3926" width="0.869562" height="83.4783" transform="rotate(-90 55.6514 97.3926)" fill="#F2F2F7"/>
<path d="M87.8382 66.957H63.4655C62.9922 66.957 62.6084 67.3408 62.6084 67.8142V82.8776C62.6084 83.351 62.9922 83.7347 63.4655 83.7347H87.8382C88.3116 83.7347 88.6954 83.351 88.6954 82.8776V67.8142C88.6954 67.3408 88.3116 66.957 87.8382 66.957Z" fill="#1540EB"/>
<path d="M75.6064 74.6367V76.1094H75.3828L74.5676 75.1101V76.1094H74.2915V74.6367H74.515L75.3302 75.636V74.6367H75.6064Z" fill="white"/>
<path d="M76.0273 74.6367H76.3035V75.8727H77.0792V76.1094H76.0405V74.6367H76.0273Z" fill="white"/>
<path d="M75.5529 68.7715L75.3293 69.4158H74.6851L75.1847 69.8497L75.0532 70.4151L75.5529 70.0601L76.0525 70.4151L75.921 69.8497L76.4207 69.4158H75.7764L75.5529 68.7715Z" fill="#FFEC00"/>
<path d="M80.484 71.6523L80.2605 72.3098H79.6162L80.1159 72.7305L79.9712 73.3091L80.484 72.9541L80.9837 73.3091L80.839 72.7305L81.3518 72.3098H80.7076L80.484 71.6523Z" fill="#FFEC00"/>
<path d="M75.5529 80.2754L75.3293 80.9197H74.6851L75.1847 81.3536L75.0532 81.9321L75.5529 81.5771L76.0525 81.9321L75.921 81.3536L76.4207 80.9197H75.7764L75.5529 80.2754Z" fill="#FFEC00"/>
<path d="M69.7545 74.5293L69.531 75.1736H68.8867L69.3864 75.6075L69.2549 76.186L69.7545 75.8179L70.2673 76.186L70.1227 75.6075L70.6223 75.1736H69.9781L69.7545 74.5293Z" fill="#FFEC00"/>
<path d="M81.3517 74.5293L81.1282 75.1736H80.4839L80.9835 75.6075L80.8389 76.186L81.3517 75.8179L81.8513 76.186L81.7199 75.6075L82.2195 75.1736H81.5752L81.3517 74.5293Z" fill="#FFEC00"/>
<path d="M72.6603 69.6387L72.4368 70.283H71.7925L72.2921 70.7169L72.1606 71.2823L72.6603 70.9272L73.1731 71.2823L73.0285 70.7169L73.5281 70.283H72.8838L72.6603 69.6387Z" fill="#FFEC00"/>
<path d="M78.4586 69.6387L78.2351 70.283H77.5908L78.0905 70.7169L77.9458 71.2823L78.4586 70.9272L78.9583 71.2823L78.8268 70.7169L79.3264 70.283H78.6822L78.4586 69.6387Z" fill="#FFEC00"/>
<path d="M72.6603 79.4082L72.4368 80.0525H71.7925L72.2921 80.4864L72.1606 81.0518L72.6603 80.7099L73.1731 81.0518L73.0285 80.4864L73.5281 80.0525H72.8838L72.6603 79.4082Z" fill="#FFEC00"/>
<path d="M78.4586 79.4082L78.2351 80.0525H77.5908L78.0905 80.4864L77.9458 81.0518L78.4586 80.7099L78.9583 81.0518L78.8268 80.4864L79.3264 80.0525H78.6822L78.4586 79.4082Z" fill="#FFEC00"/>
<path d="M70.6222 71.6504L70.3987 72.3078H69.7544L70.2672 72.7286L70.1226 73.3071L70.6222 72.9521L71.135 73.3071L70.9904 72.7286L71.49 72.3078H70.8457L70.6222 71.6504Z" fill="#FFEC00"/>
<path d="M70.6222 77.4082L70.3987 78.0393H69.7544L70.2672 78.4732L70.1226 79.0386L70.6222 78.6836L71.135 79.0386L70.9904 78.4732L71.49 78.0393H70.8457L70.6222 77.4082Z" fill="#FFEC00"/>
<path d="M80.484 77.4082L80.2605 78.0393H79.6162L80.1159 78.4732L79.9712 79.0386L80.484 78.6836L80.9837 79.0386L80.839 78.4732L81.3518 78.0393H80.7076L80.484 77.4082Z" fill="#FFEC00"/>
<path d="M88.6521 136.695H81.0869L81.1304 144.261H88.6956L88.6521 136.695ZM86.5217 138.869V142.13H83.2608V138.869H86.5217Z" fill="#002031"/>
<path d="M70.2605 136.695H62.6953L62.7388 144.261H70.304L70.2605 136.695ZM68.0866 138.869V142.13H64.8257V138.869H68.0866Z" fill="#002031"/>
<path d="M88.6087 118.26H81.0435L81.0869 125.825H88.6522L88.6087 118.26ZM86.4782 120.434V123.695H83.2174V120.434H86.4782Z" fill="#002031"/>
<path d="M78.869 118.26H70.2168V125.868H72.3907V120.434H78.9124L78.869 118.26Z" fill="#002031"/>
<path d="M68.0437 118.26H62.6089L62.6524 120.434H65.9132L65.8698 123.695H62.6089L62.6524 125.868H68.0871L68.0437 118.26Z" fill="#002031"/>
<path d="M88.6522 128.043H81.0435L81.0869 130.173H86.5217V134.521H88.6956L88.6522 128.043Z" fill="#002031"/>
<path d="M78.8688 123.695H74.5209L74.5644 125.869H76.7383V128.043H72.3905V132.347H70.2166V128.043H62.6514V130.174H68.0861V134.521H74.6079L74.5644 130.174H78.9122L78.8688 123.695Z" fill="#002031"/>
<path d="M62.6948 134.52L62.6514 132.346H65.9122V134.52H62.6948Z" fill="#002031"/>
<path d="M72.4346 140.174L72.3911 136.695H74.565L74.6085 140.174H72.4346Z" fill="#002031"/>
<path d="M74.3906 140.174V138.305H77.1298V140.174H74.3906Z" fill="#002031"/>
<path d="M81.0869 134.52H84.3478L84.3043 132.346H81.0869V134.52Z" fill="#002031"/>
<path d="M78.9563 132.346H76.7389L76.7824 142.128H72.478L72.4346 144.259H78.9563L78.9128 134.52L78.9563 132.346Z" fill="#002031"/>
<rect x="62.6084" y="104.348" width="26.087" height="2.6087" fill="#F2F2F7"/>
<rect x="62.6084" y="41.7383" width="26.087" height="6.08696" fill="#F2F2F7"/>
<rect x="103.478" y="41.7383" width="33.913" height="1.73913" fill="#F2F2F7"/>
<rect x="62.6084" y="108.695" width="26.087" height="0.869565" fill="#F2F2F7"/>
<rect x="103.478" y="104.348" width="13.0435" height="0.869565" fill="#F2F2F7"/>
<rect x="103.478" y="110.436" width="13.0435" height="0.869565" fill="#F2F2F7"/>
<rect x="103.478" y="116.521" width="13.0435" height="0.869565" fill="#F2F2F7"/>
<rect x="103.478" y="122.609" width="13.0435" height="0.869565" fill="#F2F2F7"/>
<rect x="103.478" y="128.695" width="13.0435" height="0.869565" fill="#F2F2F7"/>
<rect x="103.478" y="134.783" width="13.0435" height="0.869565" fill="#F2F2F7"/>
<rect x="103.478" y="140.869" width="13.0435" height="0.869565" fill="#F2F2F7"/>
<rect x="103.478" y="146.957" width="13.0435" height="0.869565" fill="#F2F2F7"/>
<rect x="103.478" y="106.088" width="13.0435" height="0.869565" fill="#F2F2F7"/>
<rect x="103.478" y="112.174" width="13.0435" height="0.869565" fill="#F2F2F7"/>
<rect x="103.478" y="118.262" width="13.0435" height="0.869565" fill="#F2F2F7"/>
<rect x="103.478" y="124.348" width="13.0435" height="0.869565" fill="#F2F2F7"/>
<rect x="103.478" y="130.436" width="13.0435" height="0.869565" fill="#F2F2F7"/>
<rect x="103.478" y="136.521" width="13.0435" height="0.869565" fill="#F2F2F7"/>
<rect x="103.478" y="142.609" width="13.0435" height="0.869565" fill="#F2F2F7"/>
<rect x="103.478" y="148.695" width="13.0435" height="0.869565" fill="#F2F2F7"/>
<rect x="123.478" y="104.348" width="13.0435" height="0.869565" fill="#F2F2F7"/>
<rect x="123.478" y="110.436" width="13.0435" height="0.869565" fill="#F2F2F7"/>
<rect x="123.478" y="116.521" width="13.0435" height="0.869565" fill="#F2F2F7"/>
<rect x="123.478" y="122.609" width="13.0435" height="0.869565" fill="#F2F2F7"/>
<rect x="123.478" y="128.695" width="13.0435" height="0.869565" fill="#F2F2F7"/>
<rect x="123.478" y="134.783" width="13.0435" height="0.869565" fill="#F2F2F7"/>
<rect x="123.478" y="140.869" width="13.0435" height="0.869565" fill="#F2F2F7"/>
<rect x="123.478" y="146.957" width="13.0435" height="0.869565" fill="#F2F2F7"/>
<rect x="123.478" y="106.088" width="13.0435" height="0.869565" fill="#F2F2F7"/>
<rect x="123.478" y="112.174" width="13.0435" height="0.869565" fill="#F2F2F7"/>
<rect x="123.478" y="118.262" width="13.0435" height="0.869565" fill="#F2F2F7"/>
<rect x="123.478" y="124.348" width="13.0435" height="0.869565" fill="#F2F2F7"/>
<rect x="123.478" y="130.436" width="13.0435" height="0.869565" fill="#F2F2F7"/>
<rect x="123.478" y="136.521" width="13.0435" height="0.869565" fill="#F2F2F7"/>
<rect x="123.478" y="142.609" width="13.0435" height="0.869565" fill="#F2F2F7"/>
<rect x="123.478" y="148.695" width="13.0435" height="0.869565" fill="#F2F2F7"/>
<rect x="62.6084" y="51.3047" width="26.087" height="0.869565" fill="#F2F2F7"/>
<rect x="103.478" y="46.957" width="33.913" height="0.869565" fill="#F2F2F7"/>
<rect x="62.6084" y="53.9141" width="26.087" height="0.869565" fill="#F2F2F7"/>
<rect x="103.478" y="49.5645" width="33.913" height="0.869565" fill="#F2F2F7"/>
<rect x="62.6084" y="56.5215" width="26.087" height="0.869565" fill="#F2F2F7"/>
<rect x="103.478" y="52.1738" width="33.913" height="0.869565" fill="#F2F2F7"/>
<rect x="62.6084" y="59.1309" width="26.087" height="0.869565" fill="#F2F2F7"/>
<rect x="103.478" y="54.7832" width="33.913" height="0.869565" fill="#F2F2F7"/>
</svg>
