<svg width="400" height="300" viewBox="0 0 400 300" fill="none" xmlns="http://www.w3.org/2000/svg">
<path d="M133.359 23.7766H55.592V135.243H133.359V23.7766Z" fill="#E1F6F8"/>
<path d="M87.8244 85.5197C88.7115 83.1236 89.155 80.5775 89.155 77.7318C89.155 72.4901 87.3808 67.5476 84.2758 63.6537C81.7623 60.3587 80.5795 56.0155 81.6145 51.9719C81.9101 50.7736 82.0581 49.5755 82.0581 48.2275C82.0581 39.0918 74.2218 31.9029 65.0547 32.9513C61.3584 33.4006 57.9577 35.1979 55.592 37.8937V135.243H94.7735C96.8434 131.349 98.0262 127.005 98.322 122.363C98.7656 113.377 95.6606 105.139 90.1899 99.1486C87.085 95.5542 86.05 90.1626 87.8244 85.5197Z" fill="#C2EDF1"/>
<path d="M95.1239 16V144.316" stroke="white" stroke-width="1.027"/>
<path d="M53 60.716H137.248" stroke="white" stroke-width="1.027"/>
<path d="M53 98.3033H137.248" stroke="white" stroke-width="1.027"/>
<path d="M222.143 283C291.22 283 347.218 281.839 347.218 280.409C347.218 278.976 291.22 277.816 222.143 277.816C153.066 277.816 97.0677 278.976 97.0677 280.409C97.0677 281.839 153.066 283 222.143 283Z" fill="#E1F6F8"/>
<path d="M150.608 178.015H105.892C101.827 178.015 98.3644 181.272 98.3644 185.417V249.675C98.3644 253.673 101.677 257.078 105.892 257.078H150.458C154.523 257.078 157.986 253.82 157.986 249.675V185.417C157.986 181.272 154.673 178.015 150.608 178.015Z" fill="#CBF0F3"/>
<path d="M168.666 178.015H126.566C122.535 178.015 119.102 181.272 119.102 185.417V249.675C119.102 253.673 122.386 257.078 126.566 257.078H168.666C172.697 257.078 176.131 253.82 176.131 249.675V185.417C175.982 181.272 172.697 178.015 168.666 178.015Z" fill="#97E0E7"/>
<path d="M260.379 255.781L261.837 263.543L264.754 278.616C264.9 279.662 265.774 280.408 266.796 280.408H269.857C271.024 280.408 272.044 279.364 272.044 278.17V255.781H260.379Z" fill="#008FCD"/>
<path d="M272.044 255.781H260.379L261.692 262.117L272.044 262.262V255.781Z" fill="#0069D1"/>
<path d="M313.519 255.781H325.184V278.17C325.184 279.364 324.163 280.408 322.996 280.408H319.935C318.915 280.408 318.04 279.662 317.894 278.616L313.519 255.781Z" fill="#004CBC"/>
<path d="M181.315 255.781H169.65V278.17C169.65 279.364 170.671 280.408 171.837 280.408H174.899C175.92 280.408 176.795 279.662 176.941 278.616L181.315 255.781Z" fill="#004CBC"/>
<path d="M116.51 255.781V278.17C116.51 279.364 117.53 280.408 118.697 280.408H121.759C122.78 280.408 123.654 279.662 123.8 278.616L126.717 263.543L128.175 255.781H116.51Z" fill="#008FCD"/>
<path d="M127.3 260.966L128.175 255.781H116.51V260.805L127.3 260.966Z" fill="#0069D1"/>
<path d="M323.281 218.194L336.535 160.869C338.62 151.092 329.982 140.427 320.898 140.427H201.46C192.375 140.427 183.291 147.686 181.206 156.721L167.058 218.047H323.281V218.194Z" fill="#CBF0F3"/>
<path d="M309.478 140.427H185.964C176.864 140.427 167.765 147.699 165.676 156.752L151.505 218.194H307.987L322.159 156.752C324.248 147.699 318.579 140.427 309.478 140.427Z" fill="#CBF0F3"/>
<path d="M177.366 213.01H144.86C142.348 213.01 140.28 211.223 139.689 208.842L134.813 187.707C134.074 184.433 135.995 181.903 139.245 181.903H169.387C172.638 181.903 175.741 184.433 176.479 187.707L181.208 208.098C181.799 210.628 179.878 213.01 177.366 213.01Z" fill="white"/>
<path d="M282.413 213.01H113.918V257.078H282.413V213.01Z" fill="#CBF0F3"/>
<path d="M237.237 155.316L268.156 138.845L264.553 158.61C264.553 158.61 240.989 171.487 233.035 170.139C224.63 168.642 219.827 138.995 218.926 131.958C218.776 131.059 219.377 130.311 220.127 130.011L228.682 127.466L237.237 155.316Z" fill="#79D4E7"/>
<path d="M220.786 131.354H220.076C218.94 131.354 218.088 130.452 217.804 129.399L216.383 120.673C216.1 119.169 216.668 117.664 217.804 116.611L220.076 114.505L221.496 117.664L220.786 131.354Z" fill="#FF7254"/>
<path d="M231.37 132.65H223.094C221.911 132.65 220.877 131.742 220.729 130.53L220.434 128.863L217.625 111.744V111.441C217.478 110.229 218.216 109.32 219.399 109.32H227.675C228.858 109.32 229.892 110.229 230.04 111.29V111.744L232.848 128.863L233.144 130.378C233.292 131.742 232.405 132.65 231.37 132.65Z" fill="black"/>
<path d="M231.864 130.058H221.648L218.903 114.505H229.119L231.864 130.058Z" fill="#38BFDB"/>
<path d="M218.072 117.1L219.315 116.086C219.936 115.579 220.868 115.748 221.333 116.593C221.644 117.269 221.489 118.113 221.023 118.62L218.228 120.985L217.607 118.451L218.072 117.1Z" fill="#FF7254"/>
<path d="M217.917 119.861L219.315 118.678C219.936 118.171 220.867 118.34 221.333 119.185C221.644 119.861 221.489 120.706 221.023 121.212L218.228 123.578L217.607 121.044L217.917 119.861Z" fill="#FF7254"/>
<path d="M217.917 123.749L219.315 122.566C219.936 122.06 220.867 122.229 221.333 123.073C221.644 123.749 221.489 124.594 221.023 125.101L218.228 127.466L217.607 124.932L217.917 123.749Z" fill="#FF7254"/>
<path d="M233.119 126.532L232.27 128.762L231.592 125.492L228.538 123.262C227.859 122.816 227.859 121.924 228.199 121.478C228.708 120.883 229.556 120.883 230.235 121.181L231.931 122.37C232.949 123.113 233.288 124.154 233.119 125.194V126.532Z" fill="#FF7254"/>
<path d="M265.563 140.427L248.713 166.35C253.609 164.264 258.361 161.88 261.242 160.241L265.563 140.427Z" fill="#38BFDB"/>
<path d="M289.045 136.539H275.318C268.305 136.539 259.503 143.551 259.055 148.773C258.607 152.801 262.04 156.68 262.04 156.68L247.418 198.752H295.758L296.952 181.297C299.041 172.644 300.83 159.067 301.726 152.503C302.472 146.833 299.937 141.164 295.161 138.329C293.073 137.285 290.984 136.539 289.045 136.539Z" fill="#79D4E7"/>
<path fill-rule="evenodd" clip-rule="evenodd" d="M277.23 144.261C281.22 144.812 286.688 141.089 289.496 138.883C290.235 138.331 290.383 137.366 289.94 136.677C289.348 136.539 288.758 136.539 288.166 136.539H274.57C273.978 136.539 273.534 136.539 272.944 136.677C272.352 137.091 272.057 137.78 272.057 138.331C271.909 139.572 272.944 143.571 277.23 144.261Z" fill="#FF7254"/>
<path d="M207.927 266.15L206.456 270.606C205.868 272.537 204.25 274.021 202.338 274.764L196.896 276.696C196.161 276.993 195.573 277.735 195.573 278.477C195.573 279.516 196.455 280.408 197.485 280.408H210.722C212.487 280.408 213.957 279.22 214.251 277.438L216.31 268.23L207.927 266.15Z" fill="#004CBC"/>
<path d="M213.51 275.223C211.503 275.223 209.83 276.843 209.83 278.788C209.83 279.435 209.998 279.922 210.165 280.408H210.667C212.674 280.408 214.346 279.112 214.68 277.169L215.015 275.547C214.68 275.386 214.179 275.223 213.51 275.223Z" fill="#326FC9"/>
<path d="M184.692 225.971L180.283 229.727C179.219 230.594 177.851 231.171 176.331 231.027L169.338 230.882C168.426 230.882 167.666 231.316 167.21 232.183C166.753 233.194 167.362 234.495 168.578 234.783L180.587 238.684C182.411 239.263 184.54 238.829 185.756 237.383L191.684 231.171L184.692 225.971Z" fill="#004CBC"/>
<path d="M185.884 237.487L186.5 236.774C185.884 235.633 184.652 234.92 183.265 235.062C181.417 235.205 179.876 236.631 180.03 238.485V238.628L180.646 238.771C182.495 239.2 184.497 238.771 185.884 237.487Z" fill="#326FC9"/>
<path d="M268.155 213.548H236.656C236.656 213.548 233.981 222.69 230.267 234.976C230.118 235.426 229.97 235.875 229.821 236.476C225.81 249.511 220.907 259.55 217.044 270.039L207.237 267.792C209.317 255.655 210.803 248.312 212.883 234.976C213.923 227.635 215.26 220.142 216.746 212.201C218.232 207.256 220.312 203.509 222.987 200.663C225.958 197.666 229.524 195.718 233.536 194.519C239.627 192.721 246.908 192.272 254.931 192.272H255.08C259.24 192.272 263.548 192.422 268.006 192.422L268.155 213.548Z" fill="#FFB612"/>
<path d="M295.374 192.272C294.625 204.038 286.086 213.01 272.753 213.01H265.563V192.272H295.374Z" fill="#FFB612"/>
<path d="M270.105 211.066L244.292 192.683C244.292 192.683 236.789 198.465 226.583 206.173C226.133 206.471 225.833 206.767 225.383 207.063C214.427 215.365 201.371 225.891 190.865 233.748L182.611 226.781C193.116 215.959 202.121 206.173 212.176 196.093C217.279 190.905 222.681 185.568 228.685 180.083C232.736 176.969 236.789 175.19 240.54 174.449C244.743 173.708 248.795 174.301 252.847 175.635C259.001 177.711 265.003 181.713 271.605 186.309L271.756 186.457C275.207 188.829 278.66 191.498 282.412 194.018L270.105 211.066Z" fill="#FFB612"/>
<path d="M244.826 192.272L261.635 208.303C264.786 211.244 268.989 213.01 273.34 213.01H255.031L244.826 192.272Z" fill="#FF9C12"/>
<path fill-rule="evenodd" clip-rule="evenodd" d="M282.61 101.575C282.61 101.575 303.114 100.21 300.291 135.243H265.672C265.524 135.243 263.741 100.361 282.61 101.575Z" fill="black"/>
<path fill-rule="evenodd" clip-rule="evenodd" d="M286.733 137.527L275.932 137.835L278.236 122.457L287.597 119.689L286.733 137.527Z" fill="#FF7254"/>
<path d="M276.725 128.762L275.932 132.65C275.932 132.65 283.551 128.762 283.709 128.762H276.725Z" fill="#F25A37"/>
<path fill-rule="evenodd" clip-rule="evenodd" d="M268.301 121.997C268.743 126.371 270.655 129.388 275.803 129.991H275.951C276.245 129.991 278.598 130.142 279.335 129.991C281.983 129.539 284.63 128.935 286.838 126.823C287.425 126.371 287.867 124.862 288.456 124.259C288.602 124.108 288.75 123.807 288.896 123.656C289.044 123.354 289.337 123.052 289.485 122.751C289.633 122.6 289.779 122.298 289.779 122.147C290.662 120.488 291.249 118.678 291.397 116.868C291.691 112.946 291.249 109.929 290.073 107.667C289.337 106.158 288.308 105.102 287.131 104.348C286.396 103.896 285.661 103.594 284.778 103.292C284.336 103.141 284.043 103.141 283.601 102.991C283.16 102.991 282.866 102.84 282.424 102.84C282.424 102.84 282.424 102.84 282.277 102.84H282.129C281.689 102.84 281.248 102.84 280.952 102.84C280.512 102.84 279.923 102.84 279.481 102.84C279.188 102.84 278.746 102.84 278.452 102.991H278.305C278.159 102.991 278.159 102.991 278.011 102.991C277.717 103.141 277.422 103.141 277.128 103.292H276.98C276.686 103.443 276.393 103.443 276.099 103.594C275.951 103.745 275.657 103.745 275.364 103.896C275.068 104.046 274.922 104.197 274.626 104.348C274.481 104.499 274.187 104.65 274.039 104.801C273.45 105.253 272.862 105.706 272.421 106.309C272.273 106.46 272.127 106.611 271.979 106.762C271.831 106.912 271.831 106.912 271.685 107.063C269.478 109.929 268.301 114.002 268.155 118.075C268.155 118.226 268.155 118.376 268.155 118.678C268.155 119.734 268.301 120.941 268.301 121.997Z" fill="#FF7254"/>
<path fill-rule="evenodd" clip-rule="evenodd" d="M281.116 102.84C281.556 103.423 281.703 106.048 281.996 108.818C282.436 113.047 288.297 118.004 287.857 126.17C290.202 124.712 292.694 118.733 292.694 117.129C292.986 113.338 292.546 109.985 291.374 107.797C290.642 106.339 289.469 105.027 288.15 104.298C287.417 103.86 286.245 103.423 285.365 103.277C284.927 103.131 284.193 102.985 283.755 102.985C283.461 102.84 281.556 102.986 281.116 102.84Z" fill="black"/>
<path d="M287.597 120.985C289.03 120.985 290.189 119.825 290.189 118.393C290.189 116.962 289.03 115.801 287.597 115.801C286.166 115.801 285.005 116.962 285.005 118.393C285.005 119.825 286.166 120.985 287.597 120.985Z" fill="#FF7254"/>
<path fill-rule="evenodd" clip-rule="evenodd" d="M280.972 102.84C280.54 102.84 279.965 102.84 279.533 102.84C279.1 102.84 278.668 102.991 278.381 102.991C278.236 102.991 278.236 102.991 278.093 102.991C277.804 102.991 277.516 103.143 277.229 103.294H277.084C275.067 104.052 273.483 105.264 272.044 107.082C274.06 110.414 287.022 114.353 287.022 114.505L287.597 104.506C285.725 103.143 283.276 102.991 282.412 102.84H282.269C281.837 102.991 281.405 102.991 280.972 102.84Z" fill="black"/>
<path d="M277.229 121.581L273.34 121.686" stroke="black" stroke-width="0.5" stroke-linecap="round"/>
<path d="M287.552 172.838L280.633 173.005C278.48 173.005 276.482 174.341 275.406 176.345L274.636 178.015H277.098L277.25 177.848V178.015H278.328H280.788H282.018H284.478H285.554H292.781C292.32 175.009 290.167 172.672 287.552 172.838Z" fill="#FF7254"/>
<path d="M316.471 178.015H276.867C272.862 178.015 269.452 181.272 269.452 185.417V249.675C269.452 253.673 272.715 257.078 276.867 257.078H316.471C320.476 257.078 323.888 253.822 323.888 249.675V185.417C323.888 181.272 320.625 178.015 316.471 178.015Z" fill="#CBF0F3"/>
<path d="M335.915 178.015H296.311C292.306 178.015 288.893 181.272 288.893 185.417V249.675C288.893 253.673 292.157 257.078 296.311 257.078H335.915C339.92 257.078 343.33 253.822 343.33 249.675V185.417C343.33 181.272 340.067 178.015 335.915 178.015Z" fill="#97E0E7"/>
<path d="M299.262 162.248L293.629 155.981L290.189 168.942L298.167 168.372C298.48 166.378 298.949 164.242 299.262 162.248Z" fill="#38BFDB"/>
<path d="M274.497 177.11L273.53 178.678C273.046 179.331 273.53 180.245 274.497 180.507C275.302 180.768 276.107 180.507 276.591 179.854L278.525 176.849L275.624 176.719L274.497 177.11Z" fill="#FF7254"/>
<path d="M278.385 177.11L277.417 178.678C276.934 179.331 277.417 180.245 278.385 180.507C279.19 180.768 279.996 180.507 280.479 179.854L282.412 176.849L279.512 176.719L278.385 177.11Z" fill="#FF7254"/>
<path d="M280.977 177.11L280.01 178.678C279.527 179.331 280.01 180.245 280.977 180.507C281.783 180.768 282.588 180.507 283.071 179.854L285.005 176.849L282.104 176.719L280.977 177.11Z" fill="#FF7254"/>
<path d="M317.523 168.228L298.672 143.019L293.372 156.662L304.563 169.117L288.363 169.414L286.301 178.014H313.841C318.112 178.014 320.174 172.083 317.523 168.228Z" fill="#79D4E7"/>
<path d="M180.119 97.6553H217.507C223.339 97.6553 227.975 92.9953 227.975 87.1327V49.8527C227.975 43.9901 223.339 39.3301 217.507 39.3301H180.119C174.286 39.3301 169.65 43.9901 169.65 49.8527V87.1327C169.65 92.9953 174.286 97.6553 180.119 97.6553Z" fill="#004CBC"/>
<path d="M180.119 97.6553H217.507C223.339 97.6553 227.975 92.9953 227.975 87.1327V49.8527C227.975 43.9901 223.339 39.3301 217.507 39.3301H180.119C174.286 39.3301 169.65 43.9901 169.65 49.8527V87.1327C169.65 92.9953 174.286 97.6553 180.119 97.6553Z" fill="#004CBC"/>
<path d="M216.311 93.767V105.258C216.311 106.601 214.756 107.198 213.823 106.302L200.758 93.767H216.311Z" fill="#004CBC"/>
<path d="M196.286 50.9952H201.342C202.567 50.9952 203.486 51.8708 203.333 53.0381L202.261 71.1321C202.261 72.1536 201.342 73.0292 200.269 73.0292H197.358C196.286 73.0292 195.366 72.1536 195.366 71.1321L194.294 53.0381C194.141 52.0166 195.06 50.9952 196.286 50.9952Z" fill="white"/>
<path d="M198.165 83.398C200.313 83.398 202.054 81.6571 202.054 79.5098C202.054 77.3623 200.313 75.6213 198.165 75.6213C196.018 75.6213 194.277 77.3623 194.277 79.5098C194.277 81.6571 196.018 83.398 198.165 83.398Z" fill="white"/>
</svg>
