<svg width="400" height="300" viewBox="0 0 400 300" fill="none" xmlns="http://www.w3.org/2000/svg">
<path d="M357.097 279.547C357.097 283.875 320.822 284.257 218.871 284.257C120.738 284.257 32.278 281.711 32.278 279.547C32.278 277.383 120.738 274.838 218.871 274.838C321.713 274.838 357.097 275.602 357.097 279.547Z" fill="#27DC71"/>
<path d="M50.097 80.7355C50.2243 80.7355 53.6609 78.0626 55.1883 76.9171C55.5701 76.6625 56.0792 76.6625 56.4611 76.7898V76.7898C56.9702 77.1716 57.2247 77.808 56.8429 78.4444L53.9154 81.7537L50.097 80.7355Z" fill="#F4C9DB"/>
<path d="M47.0424 82.8992L51.879 79.3354H52.0063L63.9706 81.881L64.3525 84.172L55.4428 84.2993L49.588 88.245L47.0424 82.8992Z" fill="#F4C9DB"/>
<path d="M74.0259 248.873L72.4985 257.146L74.6623 263.51L79.8808 261.346L84.7174 252.946L74.0259 248.873Z" fill="#F4C9DB"/>
<path d="M35.078 119.811L24.1319 109.374C21.3318 106.701 21.2045 102.755 24.2592 100.464L46.9151 82.8994L50.6062 88.4997L35.078 103.646L43.4785 110.774L35.078 119.811Z" fill="#F4C9DB"/>
<path d="M80.5171 108.992L88.0266 98.6821L71.4802 77.0445L80.3898 76.9172L98.2091 96.391C100.118 98.4275 100.246 101.61 98.5909 103.901L81.2808 127.32L80.5171 108.992Z" fill="#F4C9DB"/>
<path d="M78.9897 147.812L76.9532 149.849L77.5896 147.557L78.9897 147.812Z" fill="#002031"/>
<path d="M52.5155 149.085L46.0242 148.703C46.0242 148.703 48.0607 145.139 52.0063 144.376L52.5155 149.085Z" fill="#002031"/>
<path d="M55.9519 83.7903C55.1882 83.7903 52.8972 84.9359 52.1335 85.3177C49.3334 86.7178 47.1696 89.0088 45.8968 91.809C44.4967 94.991 45.6422 98.4276 44.2422 101.737C43.8603 102.755 43.2239 103.646 42.8421 104.664C42.2057 106.828 42.8421 109.755 44.1149 111.665C44.3694 112.047 47.1696 115.483 47.806 114.974C47.806 114.974 56.5883 109.501 69.5709 110.392C74.153 110.774 76.1895 109.246 77.0804 108.101C77.8441 107.21 77.8441 106.064 77.4623 105.046C75.8076 101.482 69.5709 87.8633 68.5527 87.2269C64.7343 86.3359 56.0792 83.7903 55.9519 83.7903Z" fill="white"/>
<path d="M48.188 115.61L53.2792 154.431L75.6805 154.813L80.899 134.83C81.7899 131.266 81.4081 127.447 79.7535 124.138L75.4259 115.738L48.188 115.61Z" fill="#F4C9DB"/>
<path d="M52.0063 144.503L52.3882 147.048L77.4624 147.685L57.3521 140.684L52.0063 144.503Z" fill="#EDA7C5"/>
<path d="M100.5 213.871L75.6804 154.431H64.3525H56.3338H53.0245L51.6245 155.449C44.6241 160.158 40.6784 168.304 41.442 176.832L47.5515 250.4C47.6788 252.436 49.3334 253.964 51.3699 253.964H61.1705C63.3342 253.964 64.9889 252.182 64.9889 250.145L64.4798 188.542L80.8989 218.198L71.7347 245.945C71.2256 247.6 72.1166 249.382 73.6439 249.891L84.7173 253.837C86.3719 254.473 88.1539 253.582 88.7903 251.927L100.627 219.725C101.264 217.816 101.264 215.78 100.5 213.871Z" fill="#237978"/>
<path d="M64.989 190.96C64.7344 190.96 64.4799 190.706 64.4799 190.451V178.105C64.4799 177.978 64.4799 177.85 64.6071 177.723C64.7344 177.596 64.8617 177.596 64.989 177.596H69.8256C70.0802 177.596 70.3347 177.85 70.3347 178.105C70.3347 178.359 70.0802 178.614 69.8256 178.614H65.4981V190.451C65.3708 190.706 65.2435 190.96 64.989 190.96V190.96Z" fill="#002031"/>
<path d="M52.7699 96.9001L54.9337 110.264H65.2434L60.9158 100.846L52.7699 96.9001Z" fill="#F4C9DB"/>
<path d="M63.7161 107.083L62.6978 104.664L57.3521 103.901L63.7161 107.083Z" fill="#EDA7C5"/>
<path d="M49.8425 94.4819C50.0971 100.337 56.4611 103.773 56.4611 103.773C56.4611 103.773 64.4798 105.81 68.2982 103.264C73.2621 99.8276 68.5527 89.2634 67.1526 86.5905C66.0071 84.554 62.4433 83.9176 59.8977 83.9176C54.0428 84.0449 49.588 88.7542 49.8425 94.4819Z" fill="#F4C9DB"/>
<path d="M64.2252 101.228C63.3343 101.228 62.5706 100.846 61.9342 100.209C61.8069 100.082 61.8069 99.8276 61.9342 99.7003C62.0615 99.573 62.316 99.573 62.4433 99.7003C63.3343 100.719 64.7344 100.846 66.389 99.8276C66.5163 99.7003 66.7708 99.8276 66.7708 99.9549C66.8981 100.082 66.7708 100.337 66.6436 100.337C65.7526 100.973 64.9889 101.228 64.2252 101.228Z" fill="#002031"/>
<path d="M65.2435 98.3001C65.1163 98.3001 64.989 98.3001 64.989 98.1729C64.8617 98.0456 64.989 97.791 65.1163 97.791C65.2435 97.6637 65.7527 97.4092 65.7527 97.0273C65.7527 96.7728 64.989 96.0091 64.6071 95.5C64.2253 95.1181 63.8435 94.7363 63.7162 94.4817C63.5889 94.3545 63.7162 94.0999 63.8435 94.0999C63.9707 93.9726 64.2253 94.0999 64.2253 94.2272C64.3526 94.4817 64.7344 94.8636 65.1163 95.2454C66.0072 96.1364 66.5163 96.7728 66.5163 97.2819C66.3891 98.0456 65.6254 98.4274 65.4981 98.5547C65.3708 98.3001 65.2435 98.3001 65.2435 98.3001Z" fill="#002031"/>
<path d="M84.2081 123.374V103.901L75.9349 113.701C74.7894 114.338 73.7712 114.083 72.6256 114.083L66.898 113.956L65.2434 110.392H54.9337L55.4428 114.338H50.7335C49.5879 114.338 48.4424 113.956 47.4242 113.319L43.3512 110.774L35.078 119.811L45.6423 130.375L45.8968 148.703C45.8968 148.703 52.6427 141.321 60.2795 143.867C67.9163 146.412 78.7351 147.939 78.7351 147.939L81.7898 135.848C82.4262 134.193 82.1717 131.648 81.0261 127.447L84.2081 123.374Z" fill="#FE6F43"/>
<path d="M59.8976 95.7546C59.5157 95.7546 59.1339 95.6274 58.8793 95.5001C58.7521 95.3728 58.6248 95.2455 58.7521 95.1182C58.8793 94.991 59.0066 94.8637 59.1339 94.991C59.2612 94.991 60.534 95.6274 61.1704 94.3546C61.2977 94.2273 61.4249 94.1 61.5522 94.2273C61.6795 94.3546 61.8068 94.4818 61.6795 94.6091C61.2977 95.3728 60.534 95.7546 59.8976 95.7546Z" fill="#002031"/>
<path d="M66.7708 93.5909C66.3889 93.5909 66.0071 93.4636 65.7525 93.3363C65.6252 93.209 65.498 93.0818 65.6252 92.9545C65.7525 92.8272 65.8798 92.6999 66.0071 92.8272C66.1344 92.9545 67.4072 93.4636 68.0436 92.1908C68.1708 92.0635 68.2981 91.9362 68.4254 92.0635C68.5527 92.1908 68.68 92.3181 68.5527 92.4454C68.1708 93.3363 67.4072 93.5909 66.7708 93.5909Z" fill="#002031"/>
<path d="M50.3518 97.4092C50.3518 97.4092 52.3883 96.6455 53.4065 98.4274C53.4065 98.4274 56.2067 93.9726 53.7883 90.5361L55.8248 92.4453L70.2075 90.4088C70.2075 90.4088 68.2983 82.1356 60.1523 83.0265C59.3887 83.1538 57.9886 83.2811 57.3522 83.4084C51.7518 84.4266 47.8062 89.6451 49.4608 96.0091C49.5881 96.6455 49.8426 97.2819 50.3518 97.4092Z" fill="white"/>
<circle cx="52.0063" cy="99.1912" r="2.92744" fill="#F4C9DB"/>
<rect x="50.8607" y="253.709" width="11.4552" height="2.16376" fill="#104A4A"/>
<rect x="73.5621" y="249.832" width="11.4551" height="2.16374" transform="rotate(19.5058 73.5621 249.832)" fill="#104A4A"/>
<path d="M75.8076 154.94H53.279C53.0245 154.94 52.7699 154.685 52.7699 154.431C52.7699 154.176 53.0245 153.922 53.279 153.922H75.8076C76.0622 153.922 76.3167 154.176 76.3167 154.431C76.3167 154.685 76.0622 154.94 75.8076 154.94Z" fill="#002031"/>
<path d="M80.2625 260.837C78.3533 261.219 77.2078 264.273 74.1531 262.237C72.753 261.219 72.2439 259.309 72.4984 258.037C72.6257 257.4 70.9711 256.509 70.4619 256.891L67.1527 260.709C65.7526 262.364 65.8799 264.782 67.4072 266.182C69.8255 268.473 73.3894 271.783 75.6804 273.31C82.0444 277.765 89.0448 280.056 90.5722 278.274L92.2269 276.238L91.3359 275.983C91.2086 275.474 90.9541 274.837 90.3176 274.328L86.8811 270.765L82.6808 262.746C82.299 261.982 81.1535 260.709 80.2625 260.837Z" fill="white"/>
<path d="M83.8262 261.219L88.0265 269.237L91.463 272.801C92.9904 274.201 92.6086 275.729 91.7176 276.747C90.1902 278.529 83.1898 276.238 76.8258 271.783C74.5348 270.255 70.9709 266.946 68.5526 264.655C67.0253 263.255 66.898 260.709 68.2981 259.182L71.6073 255.364C72.1165 254.982 73.5165 255.746 73.3893 256.382C73.1347 257.655 73.7711 259.819 75.1712 260.837C78.2259 262.873 79.3714 259.819 81.2806 259.437C82.2989 259.309 83.4444 260.582 83.8262 261.219Z" fill="#FE6F43"/>
<path d="M70.5891 266.565C72.6256 263.001 70.9709 259.564 69.189 258.164L68.2981 259.182C66.898 260.837 67.0253 263.255 68.5526 264.655C69.189 265.292 69.9527 265.928 70.5891 266.565Z" fill="#FE9C7E"/>
<path d="M61.1704 255.873L61.0432 271.147L52.3881 271.019L51.3699 255.873H61.1704Z" fill="#F4C9DB"/>
<path d="M48.5714 265.546L44.2438 270.765L41.5709 272.929C39.2799 274.074 39.2799 276.111 39.2799 276.111H62.4449L62.0631 269.365C62.0631 268.601 61.2994 267.965 60.5357 267.965C59.2629 267.965 57.3537 268.092 55.8263 268.092C55.8263 268.092 55.3172 266.819 53.7898 265.419C53.2807 264.91 49.5896 264.146 48.5714 265.546Z" fill="#FE6F43"/>
<path d="M62.4433 276.111L62.316 271.91C62.316 271.91 58.7521 272.547 58.8794 276.111H62.4433Z" fill="#FE9C7E"/>
<path d="M62.8252 279.293H39.1511V276.111H62.5707L62.8252 279.293Z" fill="white"/>
<path d="M43.8605 270.765V269.874L47.4243 269.747V270.765H43.8605Z" fill="#002031"/>
<rect x="45.6223" y="268.03" width="4.07283" height="0.890932" transform="rotate(-2.0935 45.6223 268.03)" fill="#002031"/>
<rect x="81.8721" y="265.192" width="3.6911" height="0.890955" transform="rotate(-24.8916 81.8721 265.192)" fill="#002031"/>
<rect x="84.1216" y="267.985" width="2.92742" height="0.890955" transform="rotate(-24.8916 84.1216 267.985)" fill="#002031"/>
<path d="M71.4802 77.0444L68.1709 73.3532C67.9163 72.9714 67.9163 72.4623 68.1709 72.0804V72.0804C68.4255 71.6986 68.8073 71.6986 69.1891 71.8259L71.7347 73.0987L70.7165 67.4984C70.5892 66.862 70.9711 66.0983 71.6075 66.0983V66.0983C72.1166 65.971 72.6257 66.3528 72.753 66.9892L74.5349 72.7168L74.0258 66.4801C74.0258 65.8437 74.4076 65.2073 75.044 65.08V65.08C75.6804 64.9528 76.1895 65.4619 76.3168 66.2256L77.2078 72.4623L77.8442 67.2438C77.9715 66.3528 78.8624 65.8437 79.6261 66.3528V66.3528C80.008 66.6074 80.2625 67.1165 80.2625 67.6256L80.008 72.9714L80.8989 70.9349C81.1535 70.1712 82.1717 70.1712 82.4263 70.9349V70.9349C82.5536 71.1895 82.5536 71.444 82.4263 71.6986L80.008 81.2446L71.4802 77.0444Z" fill="#F4C9DB"/>
<path d="M34.3144 105.682H34.1871C34.0598 105.555 33.9325 105.428 34.0598 105.301L34.5689 104.282H33.5507C33.4234 104.282 33.2961 104.155 33.2961 104.028C33.2961 103.9 33.4234 103.773 33.5507 103.773H35.7145L34.6962 105.81C34.4417 105.682 34.3144 105.682 34.3144 105.682Z" fill="#002031"/>
<path d="M76.1896 78.4446C76.0623 78.4446 76.0623 78.4446 76.1896 78.4446C75.8077 78.4446 75.8077 78.19 75.8077 78.0627C76.1896 77.2991 76.1896 76.6627 75.8077 76.1535C75.2986 75.2626 73.7712 75.2626 73.644 75.2626C73.5167 75.2626 73.3894 75.1353 73.3894 74.8807C73.3894 74.7535 73.5167 74.4989 73.7712 74.6262C73.8985 74.6262 75.6804 74.7535 76.4441 75.899C76.826 76.5354 76.826 77.4263 76.4441 78.4446C76.3168 78.4446 76.1896 78.4446 76.1896 78.4446Z" fill="#002031"/>
<path d="M89.5539 100.337H89.4266L87.7719 99.3184C87.6447 99.1911 87.6447 99.0638 87.6447 98.9365C87.6447 98.8092 87.7719 98.682 87.8992 98.682L89.8084 98.3001C89.9357 98.3001 90.1903 98.4274 90.1903 98.5547C90.1903 98.682 90.063 98.9365 89.9357 98.9365L88.7902 99.1911L89.8084 99.8275C89.9357 99.9548 90.063 100.082 89.9357 100.209C89.8084 100.337 89.6811 100.337 89.5539 100.337Z" fill="#002031"/>
<path d="M82.9354 220.107C82.8081 220.107 82.8081 220.107 82.6808 220.107L80.6443 219.089C80.5171 218.962 80.3898 218.835 80.3898 218.707C80.3898 218.58 80.5171 218.325 80.6443 218.325L82.6808 217.18C82.9354 217.053 83.1899 217.18 83.3172 217.307C83.4445 217.562 83.3172 217.816 83.1899 217.944L81.9171 218.58L83.1899 219.216C83.4445 219.344 83.5718 219.598 83.4445 219.853C83.1899 219.98 83.0627 220.107 82.9354 220.107Z" fill="#002031"/>
<path d="M239.363 278.911H134.993C127.356 278.911 123.92 274.965 123.283 267.965L106.482 45.988C106.1 39.8785 109.41 35.9329 116.155 35.9329H221.034C227.144 35.9329 232.362 40.8968 232.744 46.879L249.545 267.965C249.927 273.947 245.472 278.911 239.363 278.911Z" fill="#134BB9"/>
<path d="M243.308 278.911H145.43C138.684 278.911 133.211 273.692 132.702 267.074L115.901 46.2426C115.519 40.6422 119.847 35.9329 125.447 35.9329H224.98C231.09 35.9329 236.308 40.8968 236.69 46.879L237.326 55.1522L240.508 159.013L252.345 251.673L253.491 267.965C253.873 273.947 249.418 278.911 243.308 278.911Z" fill="#1BC1D7"/>
<path d="M252.345 251.927H131.429L116.537 55.5339H237.326L252.345 251.927Z" fill="white"/>
<path fill-rule="evenodd" clip-rule="evenodd" d="M183.487 265.801C183.869 270.128 187.687 273.692 192.015 273.692C194.051 273.692 196.087 272.928 197.488 271.401C198.888 269.874 199.524 267.964 199.397 265.801C199.015 261.473 195.197 257.909 190.869 257.909C188.705 257.909 186.796 258.673 185.396 260.2C183.996 261.728 183.359 263.637 183.487 265.801ZM186.16 260.837C187.305 259.564 188.96 258.8 190.869 258.8C194.687 258.8 198.124 261.982 198.378 265.801C198.506 267.71 197.997 269.492 196.724 270.765C195.578 272.038 193.924 272.801 192.014 272.801C188.196 272.801 184.76 269.619 184.505 265.801C184.378 263.892 184.887 262.11 186.16 260.837Z" fill="white"/>
<path d="M231.344 187.523H143.393C140.593 187.523 138.302 185.232 138.048 182.56L131.811 97.4091C131.556 93.4634 134.611 90.0269 138.684 90.0269H222.689C226.38 90.0269 229.308 92.827 229.562 96.5181L235.926 182.687C236.181 185.36 234.017 187.523 231.344 187.523Z" fill="white"/>
<path d="M219.507 209.034H158.667C156.885 209.034 155.485 207.634 155.358 205.852V205.852C155.23 204.07 156.503 202.67 158.285 202.67H219.125C220.907 202.67 222.307 204.07 222.434 205.852V205.852C222.562 207.634 221.289 209.034 219.507 209.034Z" fill="#DCEEFD"/>
<path d="M194.051 221.125H159.558C157.776 221.125 156.376 219.725 156.249 217.943V217.943C156.121 216.162 157.394 214.761 159.176 214.761H193.669C195.451 214.761 196.851 216.162 196.978 217.943V217.943C197.106 219.725 195.833 221.125 194.051 221.125Z" fill="#DCEEFD"/>
<path d="M220.398 221.125H206.652C204.87 221.125 203.47 219.725 203.342 217.943V217.943C203.215 216.162 204.488 214.761 206.27 214.761H220.016C221.798 214.761 223.198 216.162 223.325 217.943V217.943C223.453 219.725 222.18 221.125 220.398 221.125Z" fill="#DCEEFD"/>
<path fill-rule="evenodd" clip-rule="evenodd" d="M110.046 83.1539H111.064C112.083 83.1539 112.974 82.772 113.61 82.0083C114.246 81.2447 114.628 80.3537 114.501 79.3355L113.865 71.1895C113.737 69.1531 111.955 67.4984 109.919 67.4984H108.901C107.882 67.4984 106.991 67.8803 106.355 68.6439C105.719 69.4076 105.337 70.2986 105.464 71.3168L106.1 79.4627C106.228 81.4992 108.01 83.1539 110.046 83.1539ZM106.991 69.4075C107.5 68.8984 108.137 68.6438 108.901 68.6438H109.919C111.446 68.6438 112.719 69.9166 112.846 71.444L113.483 79.5899C113.61 80.3536 113.355 80.99 112.846 81.4991C112.337 82.0082 111.701 82.2628 110.937 82.2628H109.919C108.391 82.2628 107.119 80.99 106.991 79.4626L106.355 71.3167C106.228 70.553 106.482 69.9166 106.991 69.4075Z" fill="#002031"/>
<path fill-rule="evenodd" clip-rule="evenodd" d="M111.319 100.973H112.337C113.355 100.973 114.246 100.591 114.883 99.8275C115.519 99.0638 115.901 98.1729 115.774 97.1546L115.137 89.0087C115.01 86.9722 113.228 85.3176 111.192 85.3176H110.173C109.155 85.3176 108.264 85.6994 107.628 86.4631C106.991 87.2268 106.61 88.1177 106.737 89.136L107.373 97.2819C107.5 99.3184 109.282 100.973 111.319 100.973ZM108.264 87.0994C108.773 86.5903 109.41 86.3357 110.173 86.3357H111.192C112.719 86.3357 113.992 87.6085 114.119 89.1359L114.755 97.2818C114.883 98.0455 114.628 98.6819 114.119 99.191C113.61 99.7002 112.973 99.9547 112.21 99.9547H111.192C109.664 99.9547 108.391 98.6819 108.264 97.1546L107.628 89.0086C107.5 88.2449 107.755 87.6085 108.264 87.0994Z" fill="#002031"/>
<path fill-rule="evenodd" clip-rule="evenodd" d="M165.795 48.6609H181.068C181.959 48.6609 182.85 48.2791 183.359 47.6427C183.996 47.0063 184.25 46.1153 184.123 45.2244C183.869 43.5697 182.596 42.4242 180.941 42.4242H165.667C164.777 42.4242 164.013 42.806 163.376 43.4424C162.74 44.0788 162.485 44.9698 162.613 45.8608C162.867 47.5154 164.14 48.6609 165.795 48.6609ZM164.14 44.0789C164.649 43.5697 165.158 43.3152 165.795 43.3152H181.068C182.214 43.3152 183.105 44.0789 183.232 45.2244C183.359 45.8608 183.105 46.3699 182.723 46.879C182.214 47.3881 181.705 47.6427 181.068 47.6427H165.795C164.649 47.6427 163.758 46.879 163.631 45.7335C163.504 45.0971 163.758 44.588 164.14 44.0789Z" fill="white"/>
<path d="M254.891 89.2632V89.2632L266.346 120.192C267.492 123.374 270.546 125.411 273.983 125.283L291.802 126.938L290.911 112.301L275.383 112.174L263.037 88.4995L254.891 89.2632" fill="#DD933C"/>
<path d="M352.133 134.448L344.114 119.301C341.823 115.101 337.496 112.428 332.659 112.301C332.023 112.301 331.641 112.301 331.641 112.301L310.64 112.174L291.039 112.301L291.293 126.938L301.603 128.084L292.693 160.922H339.023L338.769 134.193L352.133 134.448Z" fill="#FFCC00"/>
<path fill-rule="evenodd" clip-rule="evenodd" d="M294.985 112.173C294.985 112.81 294.475 113.319 293.839 113.319C293.203 113.319 292.693 112.937 292.693 112.173H294.985ZM303.257 112.301C303.384 112.428 303.512 112.683 303.512 112.937C303.512 113.574 302.875 114.083 302.239 114.083C301.603 114.083 301.093 113.574 301.093 112.937C301.093 112.683 301.221 112.428 301.348 112.301H303.257ZM334.313 113.319C334.823 113.319 335.204 113.065 335.332 112.683C334.695 112.556 333.932 112.428 333.168 112.428C333.295 112.937 333.677 113.319 334.313 113.319ZM327.186 115.865C327.186 116.501 326.677 117.01 326.04 117.01C325.404 117.01 324.895 116.501 324.895 115.865C324.895 115.228 325.404 114.719 326.04 114.719C326.677 114.719 327.186 115.228 327.186 115.865ZM316.876 117.519C316.876 118.156 316.367 118.665 315.731 118.665C315.094 118.665 314.585 118.156 314.585 117.519C314.585 116.883 315.094 116.374 315.731 116.374C316.367 116.374 316.876 116.883 316.876 117.519ZM312.803 136.484C312.167 136.484 311.658 136.993 311.658 137.63C311.658 138.266 312.167 138.775 312.803 138.775C313.44 138.775 313.949 138.266 313.949 137.63C313.949 136.993 313.44 136.484 312.803 136.484ZM317.258 143.103C316.622 143.103 316.113 143.612 316.113 144.248C316.113 144.885 316.622 145.394 317.258 145.394C317.895 145.394 318.404 144.885 318.404 144.248C318.404 143.612 317.895 143.103 317.258 143.103ZM317.003 131.902C317.003 131.266 316.494 130.757 315.858 130.757C315.221 130.757 314.712 131.266 314.712 131.902C314.712 132.539 315.221 133.048 315.858 133.048C316.494 133.048 317.003 132.539 317.003 131.902ZM304.148 123.502C304.148 124.138 303.639 124.647 303.003 124.647C302.366 124.647 301.857 124.138 301.857 123.502C301.857 122.865 302.366 122.356 303.003 122.356C303.639 122.356 304.148 122.865 304.148 123.502ZM303.257 151.503C302.621 151.503 302.112 152.012 302.112 152.649C302.112 153.285 302.621 153.794 303.257 153.794C303.894 153.794 304.403 153.285 304.403 152.649C304.403 152.012 303.894 151.503 303.257 151.503ZM321.585 122.738C321.585 122.102 322.095 121.592 322.731 121.592C323.367 121.592 323.876 122.102 323.876 122.738C323.876 123.374 323.367 123.884 322.731 123.884C322.095 123.884 321.585 123.374 321.585 122.738ZM312.549 152.522C311.912 152.522 311.403 153.031 311.403 153.667C311.403 154.303 311.912 154.813 312.549 154.813C313.185 154.813 313.694 154.303 313.694 153.667C313.567 153.031 313.058 152.522 312.549 152.522ZM311.53 122.865C312.167 122.865 312.676 123.374 312.676 124.011C312.676 124.647 312.167 125.156 311.53 125.156C310.894 125.156 310.385 124.647 310.385 124.011C310.385 123.374 310.894 122.865 311.53 122.865ZM303.893 137.884C303.257 137.884 302.748 138.393 302.748 139.03C302.748 139.666 303.257 140.175 303.893 140.175C304.53 140.175 305.039 139.666 305.039 139.03C305.039 138.393 304.53 137.884 303.893 137.884ZM329.222 153.54C329.222 152.903 329.731 152.394 330.368 152.394C331.004 152.394 331.513 152.903 331.513 153.54C331.513 154.176 331.004 154.685 330.368 154.685C329.731 154.685 329.222 154.176 329.222 153.54ZM330.622 136.993C329.986 136.993 329.477 137.503 329.477 138.139C329.477 138.775 329.986 139.284 330.622 139.284C331.259 139.284 331.768 138.775 331.768 138.139C331.768 137.503 331.259 136.993 330.622 136.993ZM323.877 159.649C323.877 159.013 324.386 158.504 325.022 158.504C325.659 158.504 326.168 159.013 326.168 159.649C326.168 160.286 325.659 160.795 325.022 160.795C324.386 160.795 323.877 160.286 323.877 159.649ZM320.567 150.612C319.931 150.612 319.422 151.121 319.422 151.758C319.422 152.394 319.931 152.903 320.567 152.903C321.204 152.903 321.713 152.394 321.713 151.758C321.713 151.121 321.204 150.612 320.567 150.612ZM348.314 134.193C348.314 133.557 348.824 133.048 349.46 133.048C350.096 133.048 350.606 133.557 350.478 134.066V134.32H348.314V134.193ZM331.513 122.993C330.877 122.993 330.368 123.502 330.368 124.138C330.368 124.774 330.877 125.284 331.513 125.284C332.15 125.284 332.659 124.774 332.659 124.138C332.659 123.502 332.15 122.993 331.513 122.993ZM320.695 136.612C320.058 136.612 319.549 137.121 319.549 137.757C319.549 138.393 320.058 138.903 320.695 138.903C321.331 138.903 321.84 138.393 321.84 137.757C321.84 137.121 321.331 136.612 320.695 136.612ZM325.913 129.357C325.913 128.72 326.422 128.211 327.059 128.211C327.695 128.211 328.204 128.72 328.204 129.357C328.204 129.993 327.695 130.502 327.059 130.502C326.422 130.502 325.913 129.993 325.913 129.357ZM326.549 144.757C325.913 144.757 325.404 145.267 325.404 145.903C325.404 146.539 325.913 147.049 326.549 147.049C327.186 147.049 327.695 146.539 327.695 145.903C327.695 145.267 327.059 144.757 326.549 144.757ZM307.839 116.247C307.839 116.883 307.33 117.392 306.694 117.392C306.057 117.392 305.548 116.883 305.548 116.247C305.548 115.61 306.057 115.101 306.694 115.101C307.33 115.101 307.839 115.61 307.839 116.247ZM334.441 131.902C335.077 131.902 335.586 131.393 335.586 130.757C335.586 130.12 335.077 129.611 334.441 129.611C333.804 129.611 333.295 130.12 333.295 130.757C333.295 131.393 333.804 131.902 334.441 131.902ZM334.186 144.63C334.186 143.994 334.695 143.485 335.332 143.485C335.968 143.485 336.477 143.994 336.477 144.63C336.477 145.267 335.968 145.776 335.332 145.776C334.695 145.776 334.186 145.267 334.186 144.63ZM338.259 151.376C338.259 151.885 338.514 152.267 339.023 152.394V150.358C338.514 150.612 338.259 150.994 338.259 151.376ZM306.185 145.521C306.821 145.521 307.33 146.03 307.33 146.667C307.33 147.303 306.821 147.812 306.185 147.812C305.548 147.812 305.039 147.303 305.039 146.667C305.039 146.03 305.548 145.521 306.185 145.521ZM316.749 158.631C316.113 158.631 315.603 159.14 315.603 159.776C315.603 160.286 315.985 160.795 316.494 160.922H316.876C317.385 160.795 317.767 160.413 317.767 159.776C317.894 159.14 317.385 158.631 316.749 158.631ZM338.896 124.138C338.896 123.502 339.405 122.993 340.041 122.993C340.678 122.993 341.187 123.502 341.187 124.138C341.187 124.774 340.678 125.284 340.041 125.284C339.405 125.284 338.896 124.774 338.896 124.138ZM345.132 128.847C344.496 128.847 343.987 129.357 343.987 129.993C343.987 130.629 344.496 131.139 345.132 131.139C345.769 131.139 346.278 130.629 346.278 129.993C346.278 129.357 345.769 128.847 345.132 128.847ZM345.968 123.347C345.819 123.433 345.701 123.502 345.514 123.502C345.005 123.502 344.496 122.993 344.369 122.356C344.369 121.847 344.751 121.465 345.132 121.338L346.151 123.247C346.082 123.281 346.023 123.315 345.968 123.347ZM334.441 116.247C334.441 115.61 334.95 115.101 335.586 115.101C336.095 115.101 336.605 115.61 336.732 116.247C336.732 116.883 336.223 117.392 335.586 117.392C334.95 117.392 334.441 116.883 334.441 116.247ZM334.441 159.013C333.804 159.013 333.295 159.522 333.295 160.158C333.295 160.413 333.423 160.668 333.55 160.922L333.55 160.922H335.205C335.332 160.668 335.459 160.413 335.459 160.158C335.586 159.522 335.077 159.013 334.441 159.013ZM294.475 154.431L295.111 152.267C295.62 152.267 296.002 152.776 296.002 153.413C296.002 154.049 295.493 154.558 294.857 154.558C294.793 154.558 294.729 154.526 294.666 154.494C294.602 154.463 294.539 154.431 294.475 154.431ZM307.839 158.376C307.203 158.376 306.694 158.886 306.694 159.522C306.694 160.158 307.203 160.667 307.839 160.667C308.476 160.667 308.985 160.158 308.985 159.522C308.985 158.886 308.476 158.376 307.839 158.376ZM297.657 116.629C298.293 116.629 298.802 117.138 298.802 117.774C298.802 118.411 298.293 118.92 297.657 118.92C297.02 118.92 296.511 118.411 296.511 117.774C296.511 117.138 297.02 116.629 297.657 116.629ZM306.057 132.284C306.057 132.92 306.567 133.429 307.203 133.429C307.839 133.429 308.349 132.92 308.349 132.284C308.349 131.648 307.839 131.138 307.203 131.138C306.567 131.138 306.057 131.648 306.057 132.284ZM300.457 156.976C299.821 156.976 299.312 157.485 299.312 158.122C299.312 158.758 299.821 159.267 300.457 159.267C301.093 159.267 301.603 158.758 301.603 158.122C301.475 157.485 301.093 156.976 300.457 156.976ZM293.711 122.483C294.348 122.483 294.857 122.993 294.857 123.629C294.857 124.265 294.348 124.902 293.711 124.774C293.075 124.774 292.566 124.265 292.566 123.629C292.566 122.993 293.075 122.483 293.711 122.483ZM300.33 145.394C300.33 144.758 299.821 144.248 299.184 144.248C298.548 144.248 298.039 144.758 298.039 145.394C298.039 146.03 298.548 146.539 299.184 146.539C299.821 146.539 300.33 145.903 300.33 145.394Z" fill="#FFDB4B"/>
<path d="M338.768 134.193L365.624 178.996L374.152 179.505L352.133 134.448L338.768 134.193Z" fill="#DD933C"/>
<path d="M298.675 163.722L292.693 160.922H299.694L298.675 163.722Z" fill="#002031"/>
<path d="M299.312 160.922L261.255 258.037H279.329L321.458 160.922H299.312Z" fill="#F17277"/>
<path d="M339.023 160.922V160.922C339.278 171.232 338.259 177.214 329.732 177.214H293.711L299.312 160.922H339.023V160.922Z" fill="#F17277"/>
<path d="M314.585 172.25L303.766 207.634C302.748 211.325 303.003 215.271 304.53 218.834L321.586 258.291H340.932L323.495 213.234L336.223 172.25H314.585Z" fill="#F17277"/>
<path d="M276.656 258.037L272.201 269.619L259.346 269.11L264.31 258.037H276.656Z" fill="#DD933C"/>
<path d="M330.75 269.619L325.913 258.291H338.514L343.35 269.11L330.75 269.619Z" fill="#DD933C"/>
<path d="M338.896 253.964H319.549C319.295 253.964 319.04 253.709 319.04 253.455C319.04 253.2 319.295 252.945 319.549 252.945H338.896C339.15 252.945 339.405 253.2 339.405 253.455C339.405 253.709 339.15 253.964 338.896 253.964Z" fill="#002031"/>
<path d="M281.747 252.945H263.419C263.164 252.945 262.909 252.691 262.909 252.436C262.909 252.182 263.164 251.927 263.419 251.927H281.747C282.001 251.927 282.256 252.182 282.256 252.436C282.256 252.691 282.001 252.945 281.747 252.945Z" fill="#002031"/>
<path d="M308.094 191.851H307.967C307.712 191.724 307.585 191.469 307.712 191.215L313.949 172.759H308.73C308.476 172.759 308.221 172.504 308.221 172.25C308.221 171.995 308.476 171.741 308.73 171.741H314.585C314.712 171.741 314.84 171.868 314.967 171.995C315.094 172.123 315.094 172.25 315.094 172.377L308.603 191.469C308.476 191.724 308.348 191.851 308.094 191.851Z" fill="#002031"/>
<path d="M315.985 119.047C320.44 119.429 327.059 116.119 330.114 112.428C329.604 112.428 310.64 112.301 310.64 112.301C310.64 112.301 309.876 118.538 315.985 119.047Z" fill="#DD933C"/>
<path d="M328.204 96.2637L324.768 112.556L313.185 112.937L319.295 98.5548L328.204 96.2637Z" fill="#DD933C"/>
<path d="M316.24 105.555L317.64 102.373L322.349 101.864L316.24 105.555Z" fill="#D2793C"/>
<path d="M310.258 83.6629C309.24 85.1903 310.258 88.6269 312.422 87.8632C313.694 86.7177 314.84 84.9357 314.967 83.1538C314.967 80.7355 310.894 81.881 310.258 83.6629Z" fill="#002031"/>
<path d="M330.113 91.1725C329.859 96.9001 322.731 101.864 322.731 101.864C322.731 101.864 316.622 104.664 311.658 101.228C306.694 97.791 311.658 86.0813 313.058 83.5357C314.203 81.6265 317.64 80.8628 320.186 80.8628C325.913 80.8628 330.368 85.4449 330.113 91.1725Z" fill="#DD933C"/>
<path d="M331.768 84.6812C332.786 77.9353 322.986 78.0626 322.986 78.0626C322.986 78.0626 322.349 75.8988 321.331 75.2624C319.549 74.2442 318.913 76.1534 319.167 77.4262C318.276 75.8988 317.767 73.6078 315.603 73.6078C313.949 73.9896 313.694 76.7898 314.713 77.6808C307.839 71.5713 305.166 83.9175 317.513 85.1903C320.949 85.5721 324.513 85.4448 324.768 85.1903C324.386 88.7541 326.168 92.318 329.732 93.4635C329.859 93.5908 331.386 88.6268 331.768 84.6812Z" fill="#002031"/>
<path d="M315.985 97.6638C315.603 97.6638 315.094 97.6638 314.585 97.5365C314.458 97.5365 314.331 97.2819 314.331 97.1547C314.331 97.0274 314.585 96.9001 314.712 96.9001C316.494 97.2819 317.767 96.9001 318.276 95.7546C318.404 95.6273 318.531 95.5 318.658 95.6273C318.785 95.7546 318.913 95.8819 318.785 96.0091C318.404 97.1547 317.385 97.6638 315.985 97.6638Z" fill="#002031"/>
<path fill-rule="evenodd" clip-rule="evenodd" d="M309.112 90.5362C309.112 92.3181 310.512 93.8454 312.294 93.8454C313.058 93.8454 313.949 93.4636 314.458 92.9545C315.094 92.3181 315.476 91.4271 315.476 90.5362C315.476 88.7542 314.076 87.2269 312.294 87.2269C311.531 87.2269 310.767 87.4814 310.131 88.1178C309.494 88.7542 309.112 89.6452 309.112 90.5362ZM310.64 88.7543C311.021 88.3724 311.658 88.1179 312.167 88.1179C313.44 88.1179 314.458 89.2634 314.458 90.5362C314.458 91.2999 314.203 91.809 313.822 92.3181C313.44 92.6999 312.803 92.9545 312.294 92.9545C311.021 92.9545 310.003 91.809 310.003 90.5362C310.003 89.7725 310.258 89.2634 310.64 88.7543Z" fill="white"/>
<path fill-rule="evenodd" clip-rule="evenodd" d="M315.858 91.1725C315.858 92.9544 317.258 94.4818 319.04 94.4818C319.804 94.4818 320.695 94.0999 321.204 93.5908C321.713 92.9544 322.095 92.0635 322.095 91.1725C322.095 89.3906 320.695 87.8632 318.913 87.8632C318.149 87.8632 317.386 88.1178 316.749 88.7542C316.24 89.3906 315.858 90.2815 315.858 91.1725ZM317.386 89.3906C317.767 89.0088 318.276 88.7542 318.913 88.7542C320.186 88.7542 321.204 89.8997 321.204 91.0452C321.204 91.6816 320.949 92.1908 320.568 92.6999C320.186 93.0817 319.677 93.3363 319.04 93.3363C317.767 93.3363 316.749 92.318 316.749 91.0452C316.749 90.4088 317.004 89.8997 317.386 89.3906Z" fill="white"/>
<path d="M315.222 95.1181V95.1181C315.094 95.1181 314.203 94.8635 313.821 94.2271C313.694 93.8453 313.949 93.0816 314.458 91.9361C314.712 91.5543 314.84 91.0451 314.967 90.7906C314.967 90.6633 315.222 90.536 315.349 90.536C315.476 90.536 315.603 90.7906 315.603 90.9179C315.476 91.1724 315.349 91.6815 315.094 92.1907C314.84 92.6998 314.331 93.718 314.458 93.8453C314.585 94.0999 315.094 94.3544 315.349 94.3544C315.476 94.3544 315.603 94.609 315.603 94.7363C315.476 94.9908 315.349 95.1181 315.222 95.1181Z" fill="#002031"/>
<path d="M316.24 90.7906V90.7906L314.84 90.6633C314.585 90.6633 314.331 90.4088 314.458 90.1542C314.458 89.8997 314.713 89.6451 314.967 89.7724L316.24 89.8997C316.495 89.8997 316.749 90.1542 316.622 90.4088C316.749 90.5361 316.495 90.7906 316.24 90.7906Z" fill="white"/>
<path d="M326.677 92.1906V92.1906L321.586 91.5542C321.331 91.5542 321.204 91.2997 321.204 91.0451C321.204 90.7905 321.458 90.6633 321.713 90.6633L326.677 91.2997C326.931 91.2997 327.059 91.5542 327.059 91.8088C327.186 91.9361 326.931 92.1906 326.677 92.1906Z" fill="white"/>
<circle cx="327.059" cy="93.5907" r="3.05472" fill="#DD933C"/>
<path d="M264.055 91.1724L268.255 83.7902C268.51 83.4083 268.383 82.7719 268.128 82.5174V82.5174C267.873 82.2628 267.364 82.1355 267.11 82.3901L263.546 84.9357L263.673 78.5717C263.673 77.9353 263.164 77.2989 262.528 77.2989V77.2989C262.019 77.2989 261.637 77.6807 261.509 78.3171L260.491 84.172L260.237 77.9353C260.237 77.2989 259.727 76.6625 259.091 76.7898V76.7898C258.455 76.7898 257.946 77.2989 257.946 78.0626V84.172L256.673 79.2081C256.418 78.3171 255.527 77.9353 254.764 78.5717V78.5717C254.382 78.8262 254.254 79.3354 254.382 79.8445L255.018 85.6994L253.109 83.0265C252.345 82.3901 251.454 82.5174 251.2 83.281V83.281C251.072 83.5356 251.2 83.7902 251.327 84.0447L256.291 93.0816L264.055 91.1724Z" fill="#DD933C"/>
<path d="M263.164 85.8267C263.164 85.8267 263.037 85.8267 263.164 85.8267C263.037 85.8267 259.218 84.5539 257.182 85.8267C257.055 85.9539 256.8 85.8267 256.8 85.6994C256.673 85.5721 256.8 85.3175 256.927 85.3175C259.218 83.9175 263.164 85.1903 263.291 85.3175C263.419 85.3175 263.546 85.5721 263.546 85.6994C263.419 85.6994 263.291 85.8267 263.164 85.8267Z" fill="#002031"/>
<path d="M373.643 178.487L378.48 184.596C378.862 184.978 378.989 185.487 378.734 185.869V185.869C378.48 186.251 378.098 186.378 377.716 186.251L374.916 184.596L376.952 190.578C377.207 191.215 376.825 191.978 376.316 192.106V192.106C375.807 192.233 375.298 191.978 375.043 191.469L372.37 186.123L373.898 192.106C374.025 192.742 373.77 193.378 373.134 193.633V193.633C372.498 193.76 371.861 193.378 371.734 192.742L369.952 186.887L370.079 191.978C370.079 192.869 369.316 193.506 368.552 193.124V193.124C368.17 192.997 367.788 192.487 367.788 191.978L366.643 186.251L364.861 189.56C364.224 190.451 363.461 190.578 362.952 189.815V189.815C362.824 189.56 362.697 189.305 362.824 189.051L365.752 178.741L373.643 178.487Z" fill="#DD933C"/>
<path d="M338.768 134.702C338.641 134.702 338.387 134.575 338.387 134.448L335.586 129.229C335.459 128.975 335.586 128.72 335.841 128.593C336.096 128.466 336.35 128.593 336.477 128.847L339.278 134.066C339.405 134.32 339.278 134.575 339.023 134.702C339.023 134.702 338.896 134.702 338.768 134.702Z" fill="#002031"/>
<path d="M258.965 263.764L250.82 269.619L245.983 271.91C243.565 273.183 243.565 275.474 243.565 275.474H276.785L275.385 265.419C275.13 264.655 273.094 264.528 272.839 265.292C272.33 266.692 270.675 268.219 268.766 268.346C265.966 268.474 262.911 265.801 261.384 264.273C260.747 263.51 259.856 263.255 258.965 263.764Z" fill="#FFCC00"/>
<path d="M277.165 278.911H243.436V275.474H276.91L277.165 278.911Z" fill="white"/>
<rect x="251.545" y="269.53" width="0.890964" height="3.56386" transform="rotate(-73.1361 251.545 269.53)" fill="#002031"/>
<rect x="253.81" y="267.796" width="0.890909" height="3.69091" transform="rotate(-73.5477 253.81 267.796)" fill="#002031"/>
<path d="M327.696 263.764L320.568 269.619L316.114 271.91C313.95 273.183 314.332 275.474 314.332 275.474H347.552L344.37 265.419C343.988 264.655 341.824 264.528 341.697 265.292C341.442 266.692 340.042 268.219 338.133 268.346C335.333 268.474 331.769 265.801 329.987 264.273C329.478 263.51 328.46 263.255 327.696 263.764Z" fill="#FFCC00"/>
<path d="M348.569 278.911H314.84L314.203 275.474H347.678L348.569 278.911Z" fill="white"/>
<rect x="321.167" y="269.524" width="0.890949" height="3.81835" transform="rotate(-73.9484 321.167 269.524)" fill="#002031"/>
<path d="M326.931 268.856L323.24 267.71L323.495 266.819L327.186 267.837L326.931 268.856Z" fill="#002031"/>
<path d="M243.436 17.4773L244.581 21.0411C244.708 21.2957 244.836 21.423 245.09 21.5503L248.654 22.6958C249.291 22.9503 249.291 23.8413 248.654 24.0959L245.218 25.2414C244.963 25.3687 244.836 25.4959 244.708 25.7505L243.563 30.078C243.308 30.8417 242.29 30.8417 242.163 30.078L241.017 25.7505C241.017 25.4959 240.763 25.3687 240.508 25.2414L237.326 24.0959C236.69 23.8413 236.69 22.9503 237.326 22.6958L240.508 21.5503C240.763 21.423 240.89 21.2957 241.017 21.0411L242.163 17.4773C242.29 16.8409 243.181 16.8409 243.436 17.4773Z" fill="#A7FAC1"/>
<path d="M45.3878 55.5341L46.1515 58.0797C46.1515 58.2069 46.2788 58.3342 46.5333 58.4615L49.0789 59.2252C49.588 59.3525 49.588 60.1161 49.0789 60.2434L46.5333 61.0071C46.406 61.0071 46.1515 61.2617 46.1515 61.3889L45.3878 64.571C45.2605 65.0801 44.4968 65.0801 44.3696 64.571L43.6059 61.3889C43.6059 61.2617 43.4786 61.0071 43.224 61.0071L40.933 60.2434C40.4239 60.1161 40.4239 59.3525 40.933 59.2252L43.3513 58.4615C43.4786 58.4615 43.6059 58.3342 43.7332 58.0797L44.4968 55.5341C44.4968 55.0249 45.2605 55.0249 45.3878 55.5341Z" fill="#A7FAC1"/>
<path d="M287.856 53.8794L288.62 56.425C288.62 56.5523 288.747 56.6796 289.002 56.8069L291.547 57.5706C292.056 57.6978 292.056 58.4615 291.547 58.5888L289.129 59.3525C289.002 59.3525 288.874 59.607 288.747 59.7343L287.983 62.7891C287.856 63.2982 287.093 63.2982 286.965 62.7891L286.202 59.7343C286.202 59.607 286.074 59.4798 285.82 59.3525L283.529 58.5888C283.02 58.4615 283.02 57.6978 283.529 57.5706L285.82 56.6796C285.947 56.6796 286.074 56.5523 286.202 56.2978L286.965 53.7522C287.093 53.3703 287.729 53.3703 287.856 53.8794Z" fill="white"/>
<path d="M300.075 36.9511L300.839 39.2422C300.839 39.3694 300.966 39.4967 301.094 39.4967L303.385 40.2604C303.894 40.3877 303.894 41.0241 303.385 41.1514L301.094 41.915C300.966 41.915 300.839 42.0423 300.712 42.2969L299.948 45.097C299.821 45.6062 299.184 45.6062 299.057 45.097L298.293 42.2969C298.293 42.1696 298.166 42.0423 298.039 41.915L296.002 41.1514C295.621 41.0241 295.621 40.3877 296.002 40.2604L298.039 39.4967C298.166 39.4967 298.293 39.3694 298.293 39.2422L299.057 36.9511C299.312 36.442 299.948 36.442 300.075 36.9511Z" fill="#3DEC94"/>
<path d="M64.8615 41.1514L65.3706 42.806C65.3706 42.9333 65.4979 43.0606 65.6252 43.0606L67.2798 43.5697C67.6617 43.697 67.6617 44.0788 67.2798 44.2061L65.6252 44.7152C65.4979 44.7152 65.3706 44.8425 65.3706 44.9698L64.8615 47.0063C64.7342 47.3881 64.2251 47.3881 64.2251 47.0063L63.716 44.9698C63.716 44.8425 63.5887 44.7152 63.4614 44.7152L61.9341 44.2061C61.6795 44.0788 61.6795 43.697 61.9341 43.5697L63.4614 43.0606C63.5887 43.0606 63.5887 42.9333 63.716 42.806L64.2251 41.1514C64.2251 40.8968 64.7342 40.8968 64.8615 41.1514Z" fill="#A7FAC1"/>
<path fill-rule="evenodd" clip-rule="evenodd" d="M157.203 171.041H177.568C179.859 171.041 181.641 169.132 181.514 166.841L180.114 146.476C179.986 144.185 177.823 142.276 175.532 142.276H155.167C152.876 142.276 151.094 144.185 151.221 146.476L152.621 166.841C152.749 169.132 154.912 171.041 157.203 171.041ZM170.95 160.858H162.294L161.658 152.203H170.313L170.95 160.858Z" fill="#1BC1D7"/>
<path fill-rule="evenodd" clip-rule="evenodd" d="M154.53 134.257H174.895C177.314 134.257 179.096 132.348 178.841 130.057L177.441 109.692C177.314 107.401 175.15 105.492 172.859 105.492H152.494C150.203 105.492 148.421 107.401 148.548 109.692L149.948 130.057C150.076 132.348 152.239 134.257 154.53 134.257ZM168.277 124.074H159.622L158.985 115.419H167.64L168.277 124.074Z" fill="#1BC1D7"/>
<path fill-rule="evenodd" clip-rule="evenodd" d="M191.314 134.257H211.679C214.098 134.257 215.879 132.348 215.625 130.057L214.225 109.692C214.098 107.401 211.934 105.492 209.643 105.492H189.278C186.987 105.492 185.205 107.401 185.332 109.692L186.732 130.057C186.86 132.348 189.023 134.257 191.314 134.257ZM205.061 124.074H196.405L195.769 115.419H204.424L205.061 124.074Z" fill="#1BC1D7"/>
<path fill-rule="evenodd" clip-rule="evenodd" d="M197.869 151.758H189.596C188.832 151.758 188.196 151.122 188.196 150.358L187.687 143.485C187.687 142.721 188.196 142.085 188.96 142.085H195.833C196.596 142.085 197.233 142.721 197.233 143.485L197.869 151.758Z" fill="#1BC1D7"/>
<path fill-rule="evenodd" clip-rule="evenodd" d="M208.179 161.304H198.633L197.869 151.758H207.543L208.179 161.304Z" fill="#1BC1D7"/>
<path fill-rule="evenodd" clip-rule="evenodd" d="M217.216 170.977H210.343C209.579 170.977 208.943 170.341 208.943 169.577L208.306 161.304H216.579C217.343 161.304 217.98 161.94 217.98 162.704L218.489 169.577C218.489 170.341 217.852 170.977 217.216 170.977Z" fill="#1BC1D7"/>
<path fill-rule="evenodd" clip-rule="evenodd" d="M215.816 151.758H207.543L206.906 143.485C206.906 142.721 207.415 142.085 208.179 142.085H215.052C215.816 142.085 216.452 142.721 216.452 143.485L216.961 150.358C217.089 151.122 216.579 151.758 215.816 151.758Z" fill="#1BC1D7"/>
<path fill-rule="evenodd" clip-rule="evenodd" d="M197.869 170.977H190.996C190.232 170.977 189.596 170.341 189.596 169.577L189.087 162.704C189.087 161.94 189.596 161.304 190.36 161.304H198.633L199.269 169.577C199.269 170.341 198.633 170.977 197.869 170.977Z" fill="#1BC1D7"/>
</svg>
