<svg width="400" height="300" viewBox="0 0 400 300" fill="none" xmlns="http://www.w3.org/2000/svg">
<mask id="mask0" style="mask-type:alpha" maskUnits="userSpaceOnUse" x="0" y="0" width="400" height="300">
<rect width="400" height="300" fill="#C4C4C4"/>
</mask>
<g mask="url(#mask0)">
<path d="M112.137 147.306H111.143V189.921H112.137V147.306Z" fill="#002031"/>
<path d="M137.357 147.306H136.364V189.921H137.357V147.306Z" fill="#002031"/>
<path d="M140.34 153.021H108.037C105.801 153.021 103.937 151.157 103.937 148.921C103.937 146.685 105.801 144.821 108.037 144.821H140.34V153.021Z" fill="#59ACF5"/>
<path d="M140.836 153.021C143.1 153.021 144.936 151.186 144.936 148.921C144.936 146.656 143.1 144.821 140.836 144.821C138.571 144.821 136.736 146.656 136.736 148.921C136.736 151.186 138.571 153.021 140.836 153.021Z" fill="#002031"/>
<path d="M202.336 63.566L187.924 67.4176C185.564 68.0388 183.576 69.5297 182.209 71.6418L181.339 73.1327C180.594 74.2509 180.842 75.866 181.836 76.7357L186.93 81.7054L225.694 69.9024L225.321 69.4054C223.706 67.0448 221.097 65.4297 218.239 65.1812L202.336 63.566Z" fill="#FE6F43"/>
<path d="M199.852 69.6549L192.646 69.0337L200.597 66.4246L219.109 67.0458L217.37 68.7852L199.852 69.6549Z" fill="#002031"/>
<path d="M271.291 87.1729L274.894 80.2153L263.961 77.3577L260.855 80.9608L271.291 87.1729Z" fill="#A87A6A"/>
<path d="M166.43 196.506V276.891C166.43 280.867 163.2 284.097 159.224 284.097H105.552C101.576 284.097 98.3459 280.867 98.3459 276.891V196.506C98.3459 192.53 101.576 189.3 105.552 189.3H159.224C163.2 189.3 166.43 192.53 166.43 196.506Z" fill="#002031"/>
<path d="M73 297.391C73 299.876 96.6061 300 175.624 300C251.661 300 278 298.509 278 297.391C278 296.397 252.406 295.279 176.37 295.279C96.4818 295.155 73 295.527 73 297.391Z" fill="#DCEEFD"/>
<path d="M211.903 160.724L237.373 284.47L245.324 289.315L249.424 283.351L234.764 143.827L220.973 142.833C221.097 142.833 212.152 145.815 211.903 160.724Z" fill="#237978"/>
<path d="M227.93 160.973L227.433 140.721L208.797 143.951L209.294 161.842L227.93 160.973Z" fill="#237978"/>
<path d="M190.285 144.821C190.285 144.821 189.415 156.003 189.291 172.651C189.167 189.424 195.255 283.103 195.255 283.103L206.809 285.091L216.749 144.324L190.285 144.821Z" fill="#237978"/>
<path d="M190.906 146.064H234.764C235.633 146.064 236.379 145.318 236.379 144.448L223.458 69.6544L196.124 70.5241L189.291 144.448C189.291 145.318 190.036 146.064 190.906 146.064Z" fill="#FFCC00"/>
<path d="M182.333 293.664H208.797L208.3 283.476C208.3 283.476 204.945 283.6 201.839 283.6C201.839 283.6 201.218 282.109 199.354 280.245C198.609 279.5 195.13 278.63 193.888 280.37L188.421 286.954L187.179 287.948L185.067 289.688C182.333 291.055 182.333 293.664 182.333 293.664Z" fill="#82C6F8"/>
<path d="M209.17 297.515H182.085V293.664H197.243C198.485 293.664 199.603 293.042 200.1 291.924C200.721 290.93 201.84 290.185 202.958 290.185H208.549L209.17 297.515Z" fill="#002031"/>
<path d="M194.501 285.906L189.035 286.015L189.053 286.884L194.518 286.776L194.501 285.906Z" fill="#002031"/>
<path d="M197.351 283.626L191.265 283.816L191.292 284.686L197.378 284.495L197.351 283.626Z" fill="#002031"/>
<path d="M203.579 294.906H206.312C206.933 294.906 207.43 294.409 207.43 293.788C207.43 293.167 206.933 292.67 206.312 292.67H203.579C202.958 292.67 202.461 293.167 202.461 293.788C202.461 294.409 202.958 294.906 203.579 294.906Z" fill="#FE6F43"/>
<path d="M182.333 293.664H197.988L196 291.303C195.379 290.682 194.633 290.309 193.764 290.309H192.521C191.9 290.309 191.154 290.061 190.657 289.688C189.664 288.942 188.421 288.321 187.179 288.073L185.067 289.812C182.333 291.055 182.333 293.664 182.333 293.664Z" fill="#59ACF5"/>
<path d="M233.646 293.664H268.558C268.558 293.664 268.558 291.055 265.825 289.688L263.34 288.445L260.358 286.955L251.288 280.37C250.418 279.873 249.3 280.121 248.555 280.867C246.815 282.606 245.697 284.842 242.591 284.718C240.479 284.594 237.87 283.6 237.249 282.109C237 281.364 235.385 281.488 235.137 282.358L233.646 293.664Z" fill="#82C6F8"/>
<path d="M233.147 297.515H268.681V293.664H247.684C246.938 293.664 246.193 293.415 245.572 292.918L243.211 291.055C242.59 290.558 241.844 290.309 241.099 290.309H233.893L233.147 297.515Z" fill="#002031"/>
<path d="M259.412 286.026L255.608 287.182L255.86 288.014L259.664 286.859L259.412 286.026Z" fill="#002031"/>
<path d="M253.026 286.085L252.778 285.215L256.753 284.097L257.002 284.842L253.026 286.085Z" fill="#002031"/>
<path d="M236.379 294.906H240.976C241.597 294.906 242.094 294.409 242.094 293.788C242.094 293.167 241.597 292.67 240.976 292.67H236.379C235.758 292.67 235.261 293.167 235.261 293.788C235.261 294.409 235.758 294.906 236.379 294.906Z" fill="#FE6F43"/>
<path d="M249.299 293.664H268.557C268.557 293.664 268.557 291.055 265.823 289.688L263.338 288.445L261.848 289.564C261.351 289.936 260.605 290.185 259.984 290.185H253.399C252.529 290.185 251.66 290.558 251.163 291.179L249.299 293.664Z" fill="#59ACF5"/>
<path d="M214.387 179.485C214.387 179.485 214.387 179.361 214.387 179.485C214.138 179.485 213.89 179.236 213.89 178.988L214.635 161.097L222.09 161.221C222.338 161.221 222.587 161.47 222.587 161.718C222.587 161.967 222.338 162.215 222.09 162.215L215.505 162.091L214.759 178.988C214.884 179.236 214.635 179.485 214.387 179.485Z" fill="#002031"/>
<path d="M189.788 155.382L235.385 148.3L234.888 143.827L190.285 144.821L189.788 155.382Z" fill="#0E6866"/>
<path d="M202.088 48.6569C201.467 49.2781 199.852 70.7721 199.852 70.7721C199.852 70.7721 212.4 78.8479 217.618 69.7781L213.394 49.6509L202.088 48.6569Z" fill="#A87A6A"/>
<path d="M205.691 148.3H185.067C181.961 148.3 179.476 145.815 179.6 142.709L179.849 135.503L179.973 132.397L181.712 76.115C185.688 72.3878 190.906 70.2756 196.373 69.9029L200.1 69.6544C200.1 69.6544 200.97 72.512 201.218 76.2393L205.691 148.3Z" fill="#FE6F43"/>
<path d="M205.691 148.3H185.067V151.903H205.691V148.3Z" fill="#F45A31"/>
<path d="M242.964 148.3H225.942V151.903H242.964V148.3Z" fill="#F45A31"/>
<path d="M181.588 76.1153L117.106 140.224L136.861 140.473L181.588 101.212V76.1153Z" fill="#FE6F43"/>
<path d="M93.2509 297.018C96.819 297.018 99.7115 294.125 99.7115 290.558C99.7115 286.989 96.819 284.097 93.2509 284.097C89.6828 284.097 86.7903 286.989 86.7903 290.558C86.7903 294.125 89.6828 297.018 93.2509 297.018Z" fill="#002031"/>
<path d="M130.028 297.018C133.596 297.018 136.488 294.125 136.488 290.558C136.488 286.989 133.596 284.097 130.028 284.097C126.459 284.097 123.567 286.989 123.567 290.558C123.567 294.125 126.459 297.018 130.028 297.018Z" fill="#002031"/>
<path d="M157.858 297.018C161.425 297.018 164.318 294.125 164.318 290.558C164.318 286.989 161.425 284.097 157.858 284.097C154.29 284.097 151.397 286.989 151.397 290.558C151.397 294.125 154.29 297.018 157.858 297.018Z" fill="#002031"/>
<path d="M143.446 284.097H89.8967C85.921 284.097 82.6907 280.867 82.6907 276.891V196.506C82.6907 192.53 85.921 189.3 89.8967 189.3H143.57C147.546 189.3 150.776 192.53 150.776 196.506V276.891C150.776 280.867 147.546 284.097 143.446 284.097Z" fill="#59ACF5"/>
<path d="M159.597 196.009V277.139C159.597 280.121 157.857 282.855 155.248 284.097H152.266C155.869 283.849 158.727 280.867 158.727 277.139V196.009C158.727 192.655 156.366 189.921 153.136 189.176H155.372C157.982 190.542 159.597 193.151 159.597 196.009Z" fill="white"/>
<path d="M279.615 81.5817H269.303C268.061 81.5817 267.315 80.5878 267.439 79.3453L271.167 58.2241C271.415 56.9817 272.533 55.9877 273.776 55.9877H284.088C285.33 55.9877 286.076 56.9817 285.952 58.2241L282.224 79.3453C281.976 80.5878 280.858 81.5817 279.615 81.5817Z" fill="#002031"/>
<path d="M277.876 81.5817H267.564C266.321 81.5817 265.576 80.5878 265.7 79.3453L269.427 58.2241C269.676 56.9817 270.794 55.9877 272.037 55.9877H282.349C283.591 55.9877 284.337 56.9817 284.212 58.2241L280.485 79.3453C280.361 80.5878 279.118 81.5817 277.876 81.5817Z" fill="#82C6F8"/>
<path d="M278.994 76.1153H268.433L271.539 58.1001H282.224L278.994 76.1153Z" fill="white"/>
<path d="M268.93 76.1153H268.433L271.539 58.1001H272.036L268.93 76.1153Z" fill="#002031"/>
<path d="M272.906 80.5876C272.533 80.5876 272.036 80.4633 271.788 80.0906C271.539 79.7179 271.415 79.3451 271.539 78.9724C271.664 78.1027 272.409 77.4815 273.279 77.4815C273.652 77.4815 274.149 77.6057 274.397 77.9785C274.646 78.3512 274.77 78.7239 274.646 79.0967C274.521 79.9664 273.776 80.5876 272.906 80.5876ZM273.279 78.3512C272.906 78.3512 272.409 78.7239 272.409 79.0967C272.409 79.2209 272.409 79.4694 272.533 79.5936C272.658 79.7179 272.782 79.7179 272.906 79.7179C273.279 79.7179 273.776 79.3451 273.776 78.9724C273.776 78.8482 273.776 78.5997 273.652 78.4754C273.652 78.4754 273.527 78.3512 273.279 78.3512Z" fill="white"/>
<path d="M274.583 66.3615H271.974C271.726 66.3615 271.353 66.6099 271.353 66.8584L270.856 69.4675C270.856 69.5918 270.856 69.5918 270.856 69.5918C270.856 69.8402 270.98 69.9645 271.229 69.9645C271.229 69.9645 271.229 69.9645 271.353 69.9645H273.962C274.211 69.9645 274.583 69.716 274.583 69.4675L274.708 69.0948L275.08 67.2311L275.205 66.8584C275.08 66.6099 274.832 66.3615 274.583 66.3615ZM273.341 68.8463H272.223L272.471 67.7281H273.59L273.341 68.8463Z" fill="#002031"/>
<path d="M275.453 61.6405H272.844C272.596 61.6405 272.223 61.889 272.223 62.1375L271.726 64.7466V64.8708C271.726 65.1193 271.85 65.3678 272.223 65.3678H274.832C275.08 65.3678 275.453 65.1193 275.453 64.8708L275.95 62.2617C275.95 61.889 275.702 61.6405 275.453 61.6405ZM274.211 64.1254H273.093L273.341 63.0072H274.459L274.211 64.1254Z" fill="#002031"/>
<path d="M280.174 61.6405H277.565C277.317 61.6405 276.944 61.889 276.944 62.1375L276.447 64.7466C276.447 64.9951 276.571 65.2435 276.944 65.2435H279.553C279.802 65.2435 280.174 64.9951 280.174 64.7466L280.671 62.1375C280.671 61.889 280.423 61.6405 280.174 61.6405ZM278.932 64.0011H277.814L278.062 62.8829H279.18L278.932 64.0011Z" fill="#002031"/>
<path fill-rule="evenodd" clip-rule="evenodd" d="M277.13 67.6653H276.012C275.888 67.6653 275.888 67.5411 275.888 67.5411L276.012 66.6714C276.012 66.5471 276.136 66.5471 276.261 66.5471H277.13C277.255 66.5471 277.255 66.6714 277.255 66.6714L277.13 67.6653Z" fill="#002031"/>
<path fill-rule="evenodd" clip-rule="evenodd" d="M278.249 68.9082H277.006L277.131 67.6658H278.373L278.249 68.9082Z" fill="#002031"/>
<path fill-rule="evenodd" clip-rule="evenodd" d="M279.118 70.1506H278.248C278.124 70.1506 278.124 70.0264 278.124 70.0264L278.248 68.9082H279.367C279.491 68.9082 279.491 69.0324 279.491 69.0324L279.367 69.9021C279.242 70.0264 279.118 70.1506 279.118 70.1506Z" fill="#002031"/>
<path fill-rule="evenodd" clip-rule="evenodd" d="M279.491 67.6658H278.373L278.497 66.5476C278.497 66.4233 278.621 66.4233 278.746 66.4233H279.615C279.739 66.4233 279.739 66.5476 279.739 66.5476L279.615 67.4173C279.739 67.5415 279.615 67.6658 279.491 67.6658Z" fill="#002031"/>
<path fill-rule="evenodd" clip-rule="evenodd" d="M276.509 70.1501H275.64C275.515 70.1501 275.515 70.0259 275.515 70.0259L275.64 69.1562C275.64 69.0319 275.764 69.0319 275.888 69.0319H277.006L276.882 70.1501C276.758 70.0259 276.634 70.1501 276.509 70.1501Z" fill="#002031"/>
<path d="M260.606 76.612L263.588 67.4181L272.658 65.9272L271.913 69.406L267.44 71.2696L265.079 84.6878L260.979 82.9484L260.606 76.612Z" fill="#A87A6A"/>
<path d="M283.591 69.4057C284.62 69.4057 285.455 68.5713 285.455 67.542C285.455 66.5128 284.62 65.6784 283.591 65.6784C282.562 65.6784 281.728 66.5128 281.728 67.542C281.728 68.5713 282.562 69.4057 283.591 69.4057Z" fill="#A87A6A"/>
<path d="M282.845 72.7605C283.875 72.7605 284.709 71.9261 284.709 70.8968C284.709 69.8676 283.875 69.0332 282.845 69.0332C281.817 69.0332 280.982 69.8676 280.982 70.8968C280.982 71.9261 281.817 72.7605 282.845 72.7605Z" fill="#A87A6A"/>
<path d="M282.224 76.1153C283.254 76.1153 284.088 75.2809 284.088 74.2516C284.088 73.2224 283.254 72.388 282.224 72.388C281.196 72.388 280.361 73.2224 280.361 74.2516C280.361 75.2809 281.196 76.1153 282.224 76.1153Z" fill="#A87A6A"/>
<path d="M232.527 75.8665L247.436 105.188L260.606 76.612L271.291 87.2968L255.388 123.824C254.021 127.054 250.915 129.042 247.436 129.042C243.958 129.042 240.852 126.93 239.485 123.7L222.961 90.2786L232.527 75.8665Z" fill="#FE6F43"/>
<path d="M225.943 31.5118C227.309 33.6239 225.943 38.3451 222.961 37.3512C221.222 35.7361 219.731 33.3754 219.358 30.8906C219.482 27.536 225.073 29.1512 225.943 31.5118Z" fill="#002031"/>
<path d="M198.609 42.0728C198.982 49.9001 208.797 56.7334 208.797 56.7334C208.797 56.7334 217.121 60.7092 224.079 55.8637C230.912 51.1425 224.203 34.8667 222.215 31.3879C220.724 28.6546 215.879 27.6606 212.4 27.6606C204.324 27.7849 198.237 34.1213 198.609 42.0728Z" fill="#A87A6A"/>
<path d="M196.373 33.0031C195.006 23.6849 208.424 23.8091 208.424 23.8091C208.424 23.8091 209.294 20.7031 210.785 19.9576C213.27 18.4667 214.14 21.2 213.767 22.9394C215.009 20.8273 215.755 17.7213 218.612 17.7213C220.973 18.2182 221.346 22.0697 219.73 23.4364C229.173 14.9879 232.776 32.1334 215.755 33.8728C210.909 34.3697 206.188 34.3697 205.691 33.8728C206.312 38.8425 203.703 43.6879 198.858 45.1788C198.982 45.3031 196.746 38.4698 196.373 33.0031Z" fill="#002031"/>
<path d="M225.073 46.5451C223.954 46.5451 222.836 46.0481 221.967 45.1784C221.097 44.3087 220.6 43.0663 220.6 41.8239C220.6 39.2148 222.712 37.1027 225.197 37.1027C226.315 37.1027 227.433 37.5996 228.303 38.4693C229.173 39.339 229.67 40.5815 229.67 41.8239C229.545 44.433 227.557 46.5451 225.073 46.5451ZM221.47 41.8239C221.47 42.9421 221.842 43.936 222.588 44.5572C223.209 45.1784 224.203 45.5512 225.073 45.5512C227.06 45.5512 228.8 43.8118 228.8 41.6996C228.8 40.5814 228.427 39.5875 227.682 38.9663C227.06 38.3451 226.067 37.9724 225.197 37.9724C223.209 37.9724 221.47 39.7118 221.47 41.8239Z" fill="#DCEEFD"/>
<path d="M214.885 47.415C213.767 47.415 212.649 46.9181 211.779 46.0484C210.909 45.1787 210.412 43.9362 210.412 42.6938C210.412 40.0847 212.524 37.9726 215.009 37.9726C216.128 37.9726 217.246 38.4696 218.115 39.3393C218.985 40.209 219.482 41.4514 219.482 42.6938C219.482 45.3029 217.37 47.415 214.885 47.415ZM215.009 38.8423C213.021 38.8423 211.282 40.5817 211.282 42.6938C211.282 43.6877 211.655 44.6817 212.4 45.4271C213.021 46.0484 214.015 46.4211 214.885 46.4211C216.873 46.4211 218.612 44.6817 218.612 42.5696C218.612 41.5756 218.24 40.5817 217.494 39.8362C216.873 39.215 216.003 38.8423 215.009 38.8423Z" fill="#DCEEFD"/>
<path d="M220.351 47.5398C220.227 47.5398 220.103 47.4155 220.103 47.2913C220.103 47.167 220.103 47.0428 220.351 46.9185C220.6 46.7943 221.47 46.5458 221.594 46.0488C221.718 45.6761 221.097 44.4337 220.6 43.564C220.227 42.9428 219.979 42.3216 219.854 41.9488C219.854 41.8246 219.854 41.7004 220.103 41.5761C220.227 41.5761 220.351 41.5761 220.476 41.8246C220.6 42.1973 220.848 42.8185 221.221 43.4397C221.967 44.9307 222.339 45.8004 222.215 46.4216C221.718 47.2913 220.476 47.5398 220.351 47.5398C220.476 47.5398 220.476 47.5398 220.351 47.5398Z" fill="#002031"/>
<path d="M219.109 41.8238C218.86 41.8238 218.736 41.6996 218.736 41.4511C218.736 41.2026 218.86 40.9541 219.109 40.9541L221.097 40.8299C221.345 40.8299 221.594 40.9541 221.594 41.2026C221.594 41.4511 221.469 41.6996 221.221 41.6996L219.109 41.8238Z" fill="#DCEEFD"/>
<path d="M203.455 43.936C203.206 43.936 203.082 43.8117 203.082 43.5632C203.082 43.3148 203.206 43.0663 203.455 43.0663L211.034 42.0723C211.282 42.0723 211.531 42.1966 211.531 42.4451C211.531 42.6935 211.406 42.942 211.158 42.942L203.455 43.936Z" fill="#DCEEFD"/>
<path d="M200.597 50.8942C202.999 50.8942 204.946 48.9474 204.946 46.5458C204.946 44.1441 202.999 42.1973 200.597 42.1973C198.195 42.1973 196.249 44.1441 196.249 46.5458C196.249 48.9474 198.195 50.8942 200.597 50.8942Z" fill="#A87A6A"/>
<path d="M216.899 43.2935C217.373 43.2206 217.69 42.7216 217.607 42.179C217.524 41.6365 217.072 41.2558 216.597 41.3287C216.122 41.4016 215.804 41.9006 215.888 42.4432C215.971 42.9857 216.424 43.3665 216.899 43.2935Z" fill="#002031"/>
<path d="M224.233 42.5473C224.708 42.4743 225.024 41.9754 224.941 41.4328C224.858 40.8902 224.406 40.5096 223.931 40.5825C223.456 40.6554 223.138 41.1544 223.223 41.6971C223.306 42.2396 223.758 42.6203 224.233 42.5473Z" fill="#002031"/>
<path d="M217.743 51.5156C215.506 51.5156 214.388 50.2732 214.388 50.149C214.264 49.9005 214.264 49.652 214.512 49.4035C214.761 49.2793 215.009 49.2793 215.258 49.5277C215.382 49.652 216.873 51.3913 220.476 49.9004C220.724 49.7761 220.973 49.9005 221.097 50.149C221.221 50.3974 221.097 50.6459 220.849 50.7702C219.606 51.2671 218.612 51.5156 217.743 51.5156Z" fill="#002031"/>
<path d="M211.282 39.5877C211.158 39.5877 211.034 39.5877 210.909 39.4635C210.661 39.3393 210.661 38.9665 210.909 38.718C211.034 38.5938 213.021 36.2332 215.009 36.1089C215.382 36.1089 215.506 36.3574 215.506 36.6059C215.506 36.8544 215.258 37.1029 215.009 37.1029C213.767 37.2271 212.152 38.718 211.655 39.3393C211.53 39.5877 211.406 39.5877 211.282 39.5877Z" fill="#002031"/>
<path d="M222.091 37.1031C221.843 37.1031 221.594 36.9789 221.594 36.7304C221.594 36.4819 221.718 36.2334 221.967 36.1092L224.7 35.7365C224.949 35.7365 225.197 35.8607 225.322 36.1092C225.322 36.3577 225.197 36.6061 224.949 36.7304L222.091 37.1031C222.215 37.1031 222.091 37.1031 222.091 37.1031Z" fill="#002031"/>
<path d="M215.134 58.0996L210.164 57.6026L215.755 60.9571L215.134 58.0996Z" fill="#A36B5B"/>
<path d="M197.367 91.1489C197.242 91.1489 197.118 91.0246 197.118 90.9004V72.264C197.118 72.1397 197.242 72.0155 197.367 72.0155C197.491 72.0155 197.615 72.1397 197.615 72.264V90.7761C197.739 91.0246 197.615 91.1489 197.367 91.1489Z" fill="white"/>
<path d="M246.442 108.17H246.318C246.07 108.046 245.945 107.797 246.07 107.549L247.064 105.064C247.188 104.94 247.312 104.815 247.561 104.691C247.809 104.691 247.933 104.815 248.058 104.94L249.052 107.176C249.176 107.424 249.052 107.673 248.803 107.797C248.555 107.921 248.306 107.797 248.182 107.549L247.685 106.43L247.188 107.921C246.815 108.046 246.691 108.17 246.442 108.17Z" fill="#002031"/>
<path d="M180.594 110.779L182.955 99.9701L180.843 101.709L180.594 110.779Z" fill="#002031"/>
<path d="M217.37 68.7845L225.943 148.3H243.461C247.064 148.3 249.673 145.07 248.927 141.591L232.527 75.8663C230.167 71.6421 225.694 69.033 220.849 68.9087L217.37 68.7845Z" fill="#FE6F43"/>
<path d="M223.458 90.1549C223.333 90.1549 223.209 90.0307 223.209 89.9064L220.227 70.5246C220.227 70.4003 220.352 70.2761 220.476 70.1519C220.6 70.1519 220.724 70.2761 220.849 70.4003L223.83 89.7822C223.706 90.0307 223.582 90.1549 223.458 90.1549Z" fill="white"/>
<path d="M194.137 127.8L179.724 135.503L179.849 132.397L192.894 125.44L194.137 127.8Z" fill="#F45A31"/>
<path d="M247.188 136.373L235.882 130.285L237.124 127.925L246.318 132.894L247.188 136.373Z" fill="#F45A31"/>
<path d="M245.573 129.54C245.324 129.54 245.2 129.415 245.076 129.167L237.497 97.6092C237.373 97.3607 237.621 97.1122 237.87 96.988C238.118 96.8638 238.367 97.1122 238.491 97.3607L246.07 128.918C246.194 129.167 245.946 129.415 245.573 129.54C245.697 129.54 245.573 129.54 245.573 129.54Z" fill="#002031"/>
<path d="M117.231 140.224L112.634 144.821L114.87 154.015H128.785V144.821H137.482L136.861 140.473L117.231 140.224Z" fill="#A87A6A"/>
<path d="M94.8665 200.606H93.8726V273.412H94.8665V200.606Z" fill="#002031"/>
<path d="M109.155 200.606H108.161V273.412H109.155V200.606Z" fill="#002031"/>
<path d="M123.318 200.606H122.324V273.412H123.318V200.606Z" fill="#002031"/>
<path d="M137.606 200.606H136.612V273.412H137.606V200.606Z" fill="#002031"/>
<path d="M118.222 150.601L117.373 150.788L118.125 154.185L118.973 153.996L118.222 150.601Z" fill="#002031"/>
<path d="M122.196 150.59L121.346 150.777L122.098 154.174L122.947 153.987L122.196 150.59Z" fill="#002031"/>
<path d="M126.173 150.596L125.323 150.784L126.075 154.18L126.925 153.993L126.173 150.596Z" fill="#002031"/>
<path d="M306.079 46.9175C317.127 46.9175 326.082 38.1288 326.082 27.2872C326.082 16.4457 317.127 7.65692 306.079 7.65692C295.031 7.65692 286.076 16.4457 286.076 27.2872C286.076 38.1288 295.031 46.9175 306.079 46.9175Z" fill="#1540EB"/>
<path d="M306.452 46.2961L299.246 53.2536C298.749 53.7506 297.879 53.3779 297.879 52.6324L298.376 43.4385L306.452 46.2961Z" fill="#1540EB"/>
<path d="M315.149 27.6597C314.9 27.784 314.528 27.6597 314.403 27.4112L312.043 24.0567C311.919 23.9324 311.794 23.8082 311.546 23.8082L307.197 23.3112C307.073 23.3112 306.949 23.3112 306.949 23.3112L303.594 24.3052C303.47 24.3052 303.346 24.4294 303.222 24.5537L302.352 25.7961V25.9203L301.731 27.4112C301.606 27.6597 301.731 27.9082 301.855 28.1567L303.967 30.3931C304.091 30.6415 304.464 30.6415 304.712 30.6415L306.452 30.1446C306.576 30.1446 306.825 30.1446 306.949 30.1446L308.067 30.6415C308.191 30.7658 308.315 30.89 308.44 31.0143L309.558 33.7476C309.558 33.8718 309.682 33.9961 309.558 34.1203L309.434 34.7415C309.434 34.8658 309.434 35.1143 309.558 35.2385L311.546 38.7173C311.67 38.9658 312.043 39.09 312.415 39.09L313.037 38.9658C313.161 38.9658 313.285 38.8415 313.409 38.7173L314.652 36.8537C314.776 36.7294 314.776 36.6052 314.776 36.4809V35.2385C314.776 35.1143 314.776 34.8658 314.9 34.7415L315.273 34.3688C315.397 34.2446 315.522 33.9961 315.397 33.7476L315.025 32.3809C315.025 32.2567 315.025 32.2567 315.025 32.1325V31.2628C315.025 31.1385 315.025 31.0143 315.149 31.0143L316.267 28.7779C316.267 28.1567 315.77 27.5355 315.149 27.6597ZM325.337 21.9446C323.97 16.9749 320.615 12.9991 316.515 10.5143L312.291 12.8749C312.167 12.9991 311.919 12.7506 312.043 12.6264L312.291 12.1294C312.291 12.0052 312.291 11.8809 312.167 11.8809L307.57 11.1355C307.446 11.1355 307.446 11.1355 307.322 11.2597L305.085 15.3597C304.961 15.484 305.085 15.6082 305.209 15.6082L306.7 15.9809C306.825 15.9809 306.949 15.9809 306.949 15.8567L307.819 14.3658C307.943 14.1173 308.315 14.2415 308.191 14.49V14.6143L308.315 14.7385C308.315 14.8628 308.44 14.8628 308.564 14.8628H308.812C309.061 14.8628 309.185 15.1112 308.937 15.2355L308.564 15.484C308.44 15.484 308.44 15.6082 308.44 15.6082V16.2294C308.44 16.3537 308.44 16.3537 308.315 16.3537L307.446 16.8506L306.079 17.0991H305.955L304.712 18.0931L303.719 19.087C303.719 19.087 303.594 19.2112 303.719 19.3355L303.967 20.0809C303.967 20.2052 303.967 20.3294 303.843 20.3294L302.973 20.7021C302.849 20.7021 302.849 20.8264 302.849 20.8264L302.725 21.8203C302.725 21.9446 302.849 22.0688 302.973 22.0688H304.091C304.215 22.0688 304.215 22.0688 304.215 21.9446L305.706 19.9567C305.706 19.8325 305.831 19.8325 305.955 19.8325L307.197 20.3294C307.197 20.3294 307.197 20.3294 307.322 20.3294L308.067 21.1991C308.191 21.3234 308.315 21.3234 308.44 21.1991L308.812 20.8264C308.812 20.8264 308.812 20.7021 308.812 20.5779L308.564 19.8325C308.564 19.7082 308.688 19.4597 308.812 19.584L310.055 19.9567H310.676C310.8 19.9567 310.925 20.0809 310.925 20.2052L310.8 20.8264C310.8 20.9506 310.925 21.0749 311.049 21.0749L312.664 20.9506C312.788 20.9506 312.912 21.0749 312.912 21.1991L312.664 21.9446V22.0688L315.397 26.1688C315.522 26.2931 315.646 26.2931 315.646 26.1688L318.006 24.4294C318.131 24.4294 318.131 24.3052 318.131 24.1809C318.006 23.8082 317.882 22.69 318.006 22.69C318.131 22.69 320.243 22.8143 320.864 22.8143C320.988 22.8143 320.988 22.8143 320.988 22.9385L322.852 26.0446C322.976 26.1688 323.1 26.1688 323.225 26.0446L324.715 24.1809C324.715 24.0567 324.84 24.0567 324.964 24.0567L326.206 24.3052C325.709 23.9324 325.585 22.9385 325.337 21.9446ZM302.103 11.1355L301.979 8.2779C301.979 8.15366 301.979 8.15366 301.855 8.02942C301.358 8.15366 300.985 8.15366 300.488 8.2779C297.755 9.02335 295.394 10.2658 293.406 11.8809C293.531 12.0052 293.655 12.1294 293.779 12.3779L295.022 15.2355C295.27 15.8567 295.891 16.1052 296.637 15.9809C296.885 15.9809 297.134 15.7325 297.382 15.6082L298.997 13.7446C299.122 13.6203 299.122 13.6203 299.246 13.4961L301.482 12.1294C301.979 12.1294 302.228 11.6324 302.103 11.1355ZM300.985 33.9961L298.003 33.0021H297.879L294.649 31.2628C294.525 31.1385 294.276 31.1385 294.152 31.1385L292.537 31.387C292.288 31.387 292.164 31.5112 292.04 31.6355L286.946 29.5234C286.822 29.5234 286.822 29.3991 286.822 29.3991L286.449 27.6597C286.449 27.5355 286.449 27.4112 286.573 27.4112L288.312 26.79C288.312 26.79 288.312 26.79 288.437 26.79L289.555 26.6658C289.679 26.6658 289.679 26.6658 289.679 26.5415L291.17 24.3052C291.17 24.3052 291.17 24.3052 291.17 24.1809L291.418 22.8143C291.418 22.69 291.418 22.69 291.543 22.69L293.655 21.4476L293.779 21.3234L294.028 20.2052C294.028 20.0809 294.028 20.0809 294.028 19.9567L292.164 17.7203L292.04 17.5961H290.052C289.928 17.5961 289.803 17.5961 289.803 17.7203L289.431 18.7143L289.058 19.9567C289.058 20.0809 288.934 20.2052 288.809 20.0809L287.567 19.7082C286.2 22.9385 285.703 26.4173 286.2 30.0203L287.07 30.5173L291.791 32.2567L291.294 34.2446C291.294 34.3688 291.294 34.6173 291.418 34.7415L292.785 37.2264C292.909 37.3506 293.034 37.4749 293.158 37.5991L294.028 37.9718C294.276 38.0961 294.525 38.3446 294.525 38.5931L294.649 42.4446L294.773 43.3143C295.394 43.8112 296.14 44.184 296.885 44.5567L298.749 40.2082C298.749 40.2082 298.749 40.084 298.873 40.084L299.991 38.5931C300.115 38.4688 300.115 38.4688 300.24 38.3446L300.985 37.9718C301.234 37.8476 301.358 37.5991 301.358 37.3506L301.606 34.4931C301.482 34.3688 301.234 34.1203 300.985 33.9961Z" fill="#1BC1D7"/>
<path d="M256.63 46.5453C267.402 46.5453 276.136 37.8122 276.136 27.0392C276.136 16.2663 267.402 7.53314 256.63 7.53314C245.857 7.53314 237.124 16.2663 237.124 27.0392C237.124 37.8122 245.857 46.5453 256.63 46.5453Z" fill="#DCEEFD"/>
<path d="M268.93 16.9758L266.818 14.7395C266.694 14.6152 266.445 14.491 266.197 14.491L261.103 15.1122C260.855 15.1122 260.606 15.2364 260.482 15.3607L257.997 16.8516C257.748 17.1001 257.5 17.3486 257.5 17.7213V20.2061C257.5 20.4546 257.624 20.7031 257.997 20.7031L258.742 20.8274C258.991 20.8274 258.991 21.0758 258.991 21.2001C258.991 21.3243 258.867 21.6971 258.867 21.8213L258.991 22.8152C258.991 23.0637 259.115 23.188 259.364 23.3122L260.233 23.8092C260.358 23.9334 260.482 24.1819 260.482 24.3061L260.358 24.9274C260.358 25.1758 260.109 25.4243 259.985 25.4243L259.364 25.7971C259.239 25.9213 258.991 26.1698 258.867 26.294L258.742 26.5425C258.618 26.6668 258.37 26.9152 258.245 27.0395L257.997 27.1637C257.873 27.288 257.5 27.288 257.376 27.1637L256.382 26.791C256.258 26.791 256.133 26.6668 256.009 26.6668C255.636 26.5425 255.388 26.1698 255.388 25.7971V24.0577C255.388 23.8092 255.512 23.4365 255.885 23.3122L256.258 23.188C256.506 23.188 256.63 22.9395 256.63 22.8152V22.5668C256.63 22.3183 256.506 22.194 256.382 22.194H256.009C255.761 22.194 255.636 21.9455 255.512 21.8213L255.015 20.7031C254.891 20.5789 254.767 20.4546 254.518 20.5789L254.27 20.7031C254.145 20.8274 253.897 20.7031 253.773 20.5789L253.524 20.2061C253.4 20.0819 253.4 20.0819 253.276 20.0819C253.152 20.0819 252.903 20.2061 252.903 20.3304L251.412 26.6668C251.412 26.9152 251.288 27.1637 251.164 27.288L249.176 29.8971C249.052 30.0213 248.803 30.2698 248.679 30.394L248.43 30.7668C248.306 30.891 248.058 31.1395 247.809 31.388C247.685 31.5122 247.561 31.7607 247.561 31.8849C247.561 32.0092 247.685 32.1334 247.809 32.1334C248.058 32.1334 248.182 32.3819 248.306 32.5062V32.6304C248.306 32.8789 248.306 32.8789 248.058 32.7546L247.933 32.6304C247.809 32.5062 247.436 32.3819 247.312 32.5062H246.815C246.567 32.5062 246.442 32.7546 246.442 32.8789V33.0031C246.442 33.2516 246.691 33.3759 246.815 33.3759H247.436C247.561 33.3759 247.561 33.3759 247.685 33.5001C248.058 33.7486 249.052 34.6183 249.176 34.7425C249.3 34.8668 249.3 34.991 249.3 35.1152C249.176 35.2395 249.052 35.2395 248.927 35.2395L248.306 34.8668C248.182 34.7425 247.809 34.7425 247.685 34.7425L246.815 34.8668C246.691 34.8668 246.442 34.8668 246.318 34.7425C246.07 34.6183 245.697 34.494 245.448 34.7425L245.324 34.8668C245.2 34.991 245.2 35.2395 245.324 35.3637C245.448 35.3637 245.573 35.488 245.573 35.488L246.939 35.9849C247.064 36.1092 247.436 35.9849 247.561 35.8607L247.685 35.7365C247.809 35.6122 248.058 35.488 248.306 35.6122L249.176 35.9849C249.3 36.1092 249.424 36.2334 249.3 36.3577C249.176 36.4819 248.927 36.6062 248.803 36.4819L248.43 36.3577C248.306 36.2334 247.933 36.3577 247.809 36.3577L247.685 36.4819C247.561 36.6062 247.188 36.6062 247.064 36.4819L245.697 35.9849C245.573 35.8607 245.2 35.8607 245.076 35.9849L244.579 36.2334C244.455 36.3577 244.206 36.4819 244.206 36.7304V36.8546C244.206 37.1031 244.33 37.3516 244.455 37.3516L244.703 37.4759C244.827 37.6001 245.076 37.6001 245.2 37.4759L245.448 37.2274C245.573 37.1031 245.821 37.1031 245.945 37.2274L246.691 37.8486C246.815 37.9728 247.064 38.0971 247.312 37.9728L248.555 37.7243C248.803 37.7243 249.052 37.4759 249.176 37.3516L249.797 36.7304C249.921 36.6062 250.17 36.4819 250.418 36.4819H250.915C251.164 36.4819 251.288 36.3577 251.412 36.1092L251.536 35.9849C251.661 35.8607 251.785 35.6122 252.033 35.6122L252.903 35.3637C253.152 35.3637 253.4 35.3637 253.524 35.488L253.773 35.6122C253.897 35.7365 254.27 35.7365 254.394 35.7365L254.891 35.6122C255.139 35.6122 255.388 35.6122 255.388 35.8607L256.258 37.1031C256.382 37.2274 256.63 37.3516 256.879 37.3516H257.997C258.245 37.3516 258.494 37.4759 258.618 37.6001L260.233 38.7183C260.358 38.8425 260.482 39.091 260.358 39.2152L259.115 41.3274C258.991 41.4516 258.991 41.8243 259.115 41.9486L259.612 42.5698C259.736 42.694 259.985 42.8183 260.233 42.8183H261.476C261.724 42.8183 261.848 42.694 261.848 42.4456L261.973 41.0789C261.973 40.8304 261.848 40.7062 261.6 40.7062C261.352 40.7062 261.103 40.5819 261.103 40.4577C260.979 40.3334 261.103 40.0849 261.227 39.9607L262.221 39.2152C262.345 39.091 262.47 38.8425 262.47 38.7183C262.47 38.4698 262.47 38.2213 262.594 38.0971L263.215 36.7304C263.339 36.6062 263.339 36.2334 263.215 36.1092L262.47 34.2455C262.345 34.1213 262.221 33.7486 262.221 33.6243L261.6 32.5062C261.476 32.3819 261.6 32.1334 261.724 32.0092L262.345 31.5122C262.47 31.388 262.718 31.388 262.967 31.388L263.961 31.7607C264.085 31.8849 264.458 31.8849 264.582 31.7607L266.073 31.2637C266.197 31.1395 266.57 31.0152 266.57 30.891L266.818 30.6425C266.942 30.5183 266.942 30.2698 266.694 30.1455L266.321 29.8971C266.197 29.7728 266.197 29.6486 266.321 29.4001L268.061 27.9092C268.185 27.7849 268.309 27.5365 268.309 27.288L268.185 25.7971C268.185 25.5486 267.936 25.4243 267.812 25.4243L266.57 25.3001C266.321 25.3001 266.197 25.0516 266.197 24.9274V23.6849C266.197 23.4365 266.321 23.3122 266.57 23.3122H267.936C268.185 23.3122 268.309 23.188 268.309 22.9395L269.179 17.7213C269.179 17.3486 269.179 17.1001 268.93 16.9758ZM255.761 26.294C255.885 26.4183 256.009 26.5425 256.258 26.6668L257.127 26.9152C257.252 26.9152 257.624 26.9152 257.748 26.9152H257.873C257.997 26.791 258.245 26.6668 258.37 26.5425V26.4183C258.494 26.294 258.618 26.0455 258.867 25.9213L259.488 25.4243C259.612 25.3001 259.861 25.0516 259.861 24.9274V24.6789C259.861 24.5546 259.736 24.3061 259.612 24.1819L258.991 23.8092C258.867 23.6849 258.618 23.6849 258.37 23.8092L255.761 25.7971C255.761 26.0455 255.636 26.1698 255.761 26.294ZM253.152 19.4607C253.276 19.4607 253.4 19.3364 253.524 19.2122L253.897 18.591C254.021 18.4667 254.021 18.094 253.897 17.9698L253.773 17.8455C253.648 17.7213 253.524 17.7213 253.4 17.8455L253.027 18.591C252.903 18.7152 252.903 19.088 252.903 19.2122C252.903 19.3364 253.027 19.4607 253.152 19.4607ZM254.021 17.2243C254.27 17.3486 254.518 17.3486 254.642 17.2243L255.264 16.6031C255.388 16.4789 255.388 16.2304 255.388 16.2304C255.264 16.1061 255.015 16.2304 254.891 16.3546L254.021 16.9758C253.897 16.9758 253.897 17.1001 254.021 17.2243ZM255.761 15.7334C255.885 15.8577 256.009 15.9819 256.133 15.8577L257.5 15.1122C257.624 14.988 257.873 14.8637 257.997 14.7395C258.121 14.6152 258.121 14.491 257.873 14.6152L255.761 15.1122C255.512 15.1122 255.512 15.3607 255.512 15.4849L255.761 15.7334ZM259.364 14.8637H259.736C259.985 14.8637 260.233 14.8637 260.482 14.7395L261.103 14.491C261.227 14.3667 261.227 14.3667 261.103 14.3667H259.612C259.364 14.3667 259.239 14.491 259.239 14.6152C258.991 14.7395 259.115 14.8637 259.364 14.8637ZM262.47 14.491L263.215 14.1183C263.339 13.994 263.339 13.994 263.215 13.994H262.47C262.221 13.994 262.097 14.1183 262.097 14.3667C262.097 14.491 262.345 14.6152 262.47 14.491ZM247.064 34.6183H246.567C246.442 34.6183 246.194 34.494 246.194 34.3698C246.194 34.2456 246.318 33.9971 246.442 33.9971H246.939C247.064 33.9971 247.312 34.1213 247.312 34.2455C247.312 34.3698 247.188 34.6183 247.064 34.6183Z" fill="#1BC1D7"/>
<path d="M258.121 46.2973L265.327 53.2549C265.824 53.7519 266.694 53.3792 266.694 52.6337L266.197 43.4398L258.121 46.2973Z" fill="#DCEEFD"/>
</g>
</svg>
