<svg width="295" height="220" viewBox="0 0 295 220" fill="none" xmlns="http://www.w3.org/2000/svg">
<path d="M80.892 7.77661H3.125V119.243H80.892V7.77661Z" fill="#E1F6F8"/>
<path d="M35.3573 69.5198C36.2445 67.1236 36.6879 64.5775 36.6879 61.7318C36.6879 56.4901 34.9137 51.5477 31.8088 47.6538C29.2952 44.3588 28.1124 40.0156 29.1474 35.972C29.443 34.7737 29.591 33.5756 29.591 32.2276C29.591 23.0918 21.7547 15.903 12.5877 16.9514C8.89133 17.4007 5.49068 19.1979 3.125 21.8937V119.243H42.3064C44.3764 115.349 45.5592 111.006 45.855 106.363C46.2986 97.3766 43.1936 89.1395 37.7229 83.1487C34.6179 79.5542 33.583 74.1626 35.3573 69.5198Z" fill="#C2EDF1"/>
<path d="M42.6578 0V128.316" stroke="white" stroke-width="1.027"/>
<path d="M0.533203 44.7159H84.7808" stroke="white" stroke-width="1.027"/>
<path d="M0.533203 82.3033H84.7808" stroke="white" stroke-width="1.027"/>
<path d="M98.1424 162.015H53.4264C49.3612 162.015 45.8984 165.272 45.8984 169.418V233.676C45.8984 237.673 49.2107 241.078 53.4264 241.078H97.9919C102.057 241.078 105.52 237.82 105.52 233.676V169.418C105.52 165.272 102.208 162.015 98.1424 162.015Z" fill="#CBF0F3"/>
<path d="M116.199 162.015H74.0994C70.0685 162.015 66.6348 165.272 66.6348 169.418V233.676C66.6348 237.673 69.9193 241.078 74.0994 241.078H116.199C120.23 241.078 123.664 237.82 123.664 233.676V169.418C123.515 165.272 120.23 162.015 116.199 162.015Z" fill="#97E0E7"/>
<path d="M270.814 202.194L284.069 144.869C286.154 135.092 277.515 124.427 268.432 124.427H148.994C139.909 124.427 130.825 131.686 128.74 140.721L114.592 202.047H270.814V202.194Z" fill="#CBF0F3"/>
<path d="M257.011 124.427H133.496C124.396 124.427 115.297 131.699 113.209 140.752L99.0371 202.194H255.52L269.691 140.752C271.78 131.699 266.111 124.427 257.011 124.427Z" fill="#CBF0F3"/>
<path d="M124.898 197.01H92.3925C89.8807 197.01 87.8121 195.223 87.2211 192.842L82.3451 171.707C81.6064 168.433 83.5273 165.903 86.7778 165.903H116.92C120.17 165.903 123.273 168.433 124.012 171.707L128.74 192.098C129.331 194.628 127.41 197.01 124.898 197.01Z" fill="white"/>
<path d="M229.946 197.01H61.4512V241.078H229.946V197.01Z" fill="#CBF0F3"/>
<path d="M184.77 139.316L215.688 122.846L212.086 142.61C212.086 142.61 188.521 155.487 180.567 154.139C172.162 152.642 167.359 122.995 166.459 115.958C166.309 115.06 166.909 114.311 167.659 114.012L176.214 111.466L184.77 139.316Z" fill="#79D4E7"/>
<path d="M168.318 115.354H167.608C166.472 115.354 165.62 114.452 165.336 113.399L163.916 104.673C163.632 103.169 164.2 101.664 165.336 100.611L167.608 98.5049L169.028 101.664L168.318 115.354Z" fill="#FF7254"/>
<path d="M178.904 116.65H170.628C169.445 116.65 168.411 115.742 168.263 114.529L167.968 112.863L165.159 95.7441V95.4411C165.012 94.2292 165.751 93.3203 166.933 93.3203H175.21C176.392 93.3203 177.426 94.2292 177.574 95.2896V95.7441L180.382 112.863L180.678 114.378C180.826 115.742 179.939 116.65 178.904 116.65Z" fill="black"/>
<path d="M179.397 114.058H169.18L166.436 98.5049H176.652L179.397 114.058Z" fill="#38BFDB"/>
<path d="M165.607 101.1L166.849 100.086C167.47 99.5793 168.402 99.7482 168.867 100.593C169.178 101.269 169.023 102.113 168.557 102.62L165.762 104.985L165.141 102.451L165.607 101.1Z" fill="#FF7254"/>
<path d="M165.451 103.861L166.849 102.678C167.47 102.171 168.402 102.34 168.867 103.185C169.178 103.861 169.023 104.705 168.557 105.212L165.762 107.578L165.141 105.043L165.451 103.861Z" fill="#FF7254"/>
<path d="M165.451 107.749L166.849 106.566C167.47 106.06 168.401 106.229 168.867 107.073C169.178 107.749 169.023 108.594 168.557 109.101L165.762 111.466L165.141 108.932L165.451 107.749Z" fill="#FF7254"/>
<path d="M180.653 110.532L179.804 112.762L179.126 109.492L176.072 107.262C175.393 106.816 175.393 105.924 175.733 105.478C176.242 104.883 177.09 104.883 177.768 105.181L179.465 106.37C180.483 107.113 180.822 108.154 180.653 109.194V110.532Z" fill="#FF7254"/>
<path d="M213.096 124.427L196.246 150.35C201.142 148.264 205.894 145.88 208.775 144.241L213.096 124.427Z" fill="#38BFDB"/>
<path d="M236.578 120.539H222.852C215.839 120.539 207.036 127.551 206.589 132.773C206.141 136.801 209.573 140.68 209.573 140.68L194.951 182.752H243.292L244.485 165.297C246.574 156.644 248.364 143.067 249.259 136.503C250.005 130.833 247.47 125.164 242.694 122.329C240.607 121.285 238.518 120.539 236.578 120.539Z" fill="#79D4E7"/>
<path fill-rule="evenodd" clip-rule="evenodd" d="M224.762 128.26C228.753 128.812 234.221 125.089 237.029 122.883C237.768 122.331 237.916 121.366 237.472 120.677C236.88 120.539 236.29 120.539 235.698 120.539H222.103C221.511 120.539 221.067 120.539 220.477 120.677C219.885 121.091 219.59 121.78 219.59 122.331C219.441 123.572 220.477 127.571 224.762 128.26Z" fill="#FF7254"/>
<path d="M132.225 209.971L127.817 213.727C126.753 214.594 125.384 215.171 123.864 215.027L116.871 214.882C115.959 214.882 115.199 215.316 114.743 216.183C114.287 217.194 114.895 218.495 116.111 218.783L128.121 222.684C129.945 223.263 132.073 222.829 133.289 221.383L139.218 215.171L132.225 209.971Z" fill="#004CBC"/>
<path d="M133.417 221.487L134.033 220.774C133.417 219.633 132.185 218.92 130.798 219.062C128.95 219.205 127.409 220.631 127.563 222.485V222.628L128.18 222.771C130.028 223.2 132.031 222.771 133.417 221.487Z" fill="#326FC9"/>
<path d="M215.687 197.548H184.188C184.188 197.548 181.514 206.69 177.799 218.976C177.651 219.426 177.502 219.875 177.353 220.476C173.342 233.511 168.439 243.55 164.576 254.039L154.77 251.792C156.85 239.655 158.335 232.312 160.416 218.976C161.456 211.635 162.793 204.142 164.279 196.201C165.764 191.256 167.844 187.509 170.519 184.663C173.49 181.666 177.056 179.718 181.068 178.519C187.159 176.721 194.44 176.272 202.463 176.272H202.613C206.772 176.272 211.08 176.422 215.538 176.422L215.687 197.548Z" fill="#FFB612"/>
<path d="M242.906 176.272C242.158 188.038 233.619 197.01 220.286 197.01H213.096V176.272H242.906Z" fill="#FFB612"/>
<path d="M217.638 195.066L191.826 176.683C191.826 176.683 184.322 182.465 174.117 190.173C173.666 190.471 173.366 190.767 172.916 191.063C161.961 199.365 148.904 209.891 138.399 217.748L130.145 210.781C140.65 199.959 149.654 190.173 159.709 180.093C164.812 174.905 170.215 169.568 176.218 164.083C180.27 160.969 184.322 159.19 188.073 158.449C192.276 157.708 196.328 158.301 200.38 159.635C206.534 161.711 212.537 165.713 219.139 170.309L219.289 170.457C222.74 172.829 226.193 175.498 229.946 178.018L217.638 195.066Z" fill="#FFB612"/>
<path d="M192.359 176.272L209.168 192.303C212.32 195.244 216.522 197.01 220.874 197.01H202.565L192.359 176.272Z" fill="#FF9C12"/>
<path fill-rule="evenodd" clip-rule="evenodd" d="M230.143 85.5746C230.143 85.5746 250.647 84.2096 247.824 119.243H213.204C213.057 119.243 211.273 84.3612 230.143 85.5746Z" fill="black"/>
<path fill-rule="evenodd" clip-rule="evenodd" d="M234.265 121.527L223.465 121.835L225.769 106.457L235.13 103.689L234.265 121.527Z" fill="#FF7254"/>
<path d="M224.258 112.762L223.465 116.651C223.465 116.651 231.084 112.762 231.242 112.762H224.258Z" fill="#F25A37"/>
<path fill-rule="evenodd" clip-rule="evenodd" d="M215.833 105.997C216.275 110.371 218.187 113.388 223.336 113.991H223.484C223.777 113.991 226.131 114.142 226.868 113.991C229.515 113.539 232.163 112.935 234.37 110.824C234.958 110.371 235.399 108.863 235.989 108.259C236.134 108.108 236.282 107.807 236.428 107.656C236.576 107.354 236.87 107.053 237.018 106.751C237.165 106.6 237.311 106.298 237.311 106.147C238.194 104.488 238.782 102.678 238.93 100.868C239.223 96.9462 238.782 93.9293 237.605 91.6668C236.87 90.1583 235.841 89.1024 234.664 88.3483C233.929 87.8957 233.193 87.594 232.31 87.2922C231.869 87.1414 231.575 87.1414 231.134 86.9906C230.692 86.9906 230.398 86.8398 229.957 86.8398C229.957 86.8398 229.957 86.8398 229.809 86.8398H229.661C229.222 86.8398 228.78 86.8398 228.484 86.8398C228.045 86.8398 227.455 86.8398 227.014 86.8398C226.72 86.8398 226.279 86.8398 225.985 86.9906H225.837C225.691 86.9906 225.691 86.9906 225.543 86.9906C225.25 87.1414 224.954 87.1414 224.66 87.2922H224.513C224.219 87.4432 223.925 87.4432 223.631 87.594C223.484 87.7448 223.19 87.7448 222.896 87.8957C222.6 88.0465 222.455 88.1973 222.159 88.3483C222.013 88.4991 221.719 88.6499 221.571 88.8007C220.982 89.2532 220.395 89.7058 219.953 90.3091C219.805 90.4599 219.659 90.6109 219.512 90.7616C219.364 90.9124 219.364 90.9124 219.218 91.0634C217.01 93.9293 215.833 98.0021 215.688 102.075C215.688 102.226 215.688 102.376 215.688 102.678C215.688 103.734 215.833 104.941 215.833 105.997Z" fill="#FF7254"/>
<path fill-rule="evenodd" clip-rule="evenodd" d="M228.65 86.8398C229.09 87.4231 229.237 90.0477 229.53 92.8182C229.97 97.0467 235.831 102.004 235.391 110.17C237.736 108.712 240.228 102.733 240.228 101.129C240.52 97.3384 240.081 93.9847 238.908 91.7975C238.176 90.3394 237.004 89.0272 235.684 88.298C234.952 87.8605 233.779 87.4231 232.9 87.2773C232.462 87.1315 231.727 86.9856 231.289 86.9856C230.995 86.8398 229.09 86.9858 228.65 86.8398Z" fill="black"/>
<path d="M235.129 104.985C236.562 104.985 237.722 103.825 237.722 102.393C237.722 100.962 236.562 99.801 235.129 99.801C233.698 99.801 232.537 100.962 232.537 102.393C232.537 103.825 233.698 104.985 235.129 104.985Z" fill="#FF7254"/>
<path fill-rule="evenodd" clip-rule="evenodd" d="M228.505 86.8398C228.073 86.8398 227.498 86.8398 227.065 86.8398C226.633 86.8398 226.201 86.9913 225.913 86.9913C225.769 86.9913 225.769 86.9913 225.626 86.9913C225.336 86.9913 225.049 87.1429 224.761 87.2944H224.617C222.6 88.0517 221.016 89.2638 219.576 91.0817C221.593 94.4145 234.554 98.3535 234.554 98.5049L235.13 88.5063C233.258 87.1429 230.809 86.9913 229.945 86.8398H229.802C229.369 86.9913 228.937 86.9913 228.505 86.8398Z" fill="black"/>
<path d="M224.761 105.581L220.873 105.686" stroke="black" stroke-width="0.5" stroke-linecap="round"/>
<path d="M235.084 156.838L228.166 157.005C226.013 157.005 224.014 158.341 222.938 160.345L222.168 162.015H224.63L224.783 161.848V162.015H225.86H228.32H229.55H232.01H233.086H240.314C239.852 159.009 237.699 156.672 235.084 156.838Z" fill="#FF7254"/>
<path d="M264.004 162.015H224.4C220.395 162.015 216.984 165.272 216.984 169.418V233.676C216.984 237.673 220.248 241.078 224.4 241.078H264.004C268.009 241.078 271.421 237.822 271.421 233.676V169.418C271.421 165.272 268.158 162.015 264.004 162.015Z" fill="#CBF0F3"/>
<path d="M283.447 162.015H243.843C239.838 162.015 236.426 165.272 236.426 169.418V233.676C236.426 237.673 239.689 241.078 243.843 241.078H283.447C287.452 241.078 290.863 237.822 290.863 233.676V169.418C290.863 165.272 287.599 162.015 283.447 162.015Z" fill="#97E0E7"/>
<path d="M246.795 146.248L241.163 139.981L237.723 152.942L245.701 152.372C246.014 150.378 246.483 148.242 246.795 146.248Z" fill="#38BFDB"/>
<path d="M222.03 161.11L221.063 162.678C220.579 163.331 221.063 164.245 222.03 164.507C222.835 164.768 223.64 164.507 224.124 163.854L226.058 160.849L223.157 160.719L222.03 161.11Z" fill="#FF7254"/>
<path d="M225.919 161.11L224.951 162.678C224.468 163.331 224.951 164.245 225.919 164.507C226.724 164.768 227.53 164.507 228.013 163.854L229.946 160.849L227.046 160.719L225.919 161.11Z" fill="#FF7254"/>
<path d="M228.51 161.11L227.543 162.678C227.06 163.331 227.543 164.245 228.51 164.507C229.315 164.768 230.121 164.507 230.604 163.854L232.538 160.849L229.637 160.719L228.51 161.11Z" fill="#FF7254"/>
<path d="M265.056 152.228L246.205 127.019L240.904 140.661L252.095 153.117L235.896 153.414L233.834 162.014H261.374C265.644 162.014 267.706 156.083 265.056 152.228Z" fill="#79D4E7"/>
<path d="M127.652 81.6553H165.04C170.873 81.6553 175.509 76.9953 175.509 71.1327V33.8527C175.509 27.9901 170.873 23.3301 165.04 23.3301H127.652C121.82 23.3301 117.184 27.9901 117.184 33.8527V71.1327C117.184 76.9953 121.82 81.6553 127.652 81.6553Z" fill="#004CBC"/>
<path d="M127.652 81.6553H165.04C170.873 81.6553 175.509 76.9953 175.509 71.1327V33.8527C175.509 27.9901 170.873 23.3301 165.04 23.3301H127.652C121.82 23.3301 117.184 27.9901 117.184 33.8527V71.1327C117.184 76.9953 121.82 81.6553 127.652 81.6553Z" fill="#004CBC"/>
<path d="M163.844 77.7668V89.2576C163.844 90.6006 162.289 91.1977 161.356 90.3023L148.291 77.7668H163.844Z" fill="#004CBC"/>
<path d="M143.819 34.9951H148.875C150.101 34.9951 151.02 35.8707 150.867 37.038L149.794 55.1321C149.794 56.1535 148.875 57.0291 147.802 57.0291H144.891C143.819 57.0291 142.9 56.1535 142.9 55.1321L141.827 37.038C141.674 36.0166 142.593 34.9951 143.819 34.9951Z" fill="white"/>
<path d="M145.699 67.398C147.846 67.398 149.587 65.6571 149.587 63.5098C149.587 61.3623 147.846 59.6213 145.699 59.6213C143.551 59.6213 141.811 61.3623 141.811 63.5098C141.811 65.6571 143.551 67.398 145.699 67.398Z" fill="white"/>
</svg>
