<svg xmlns="http://www.w3.org/2000/svg" fill="none" viewBox="0 0 357 203">
  <path fill="#F4C9DB" d="M28.2 64.5c.2 0 3.6-2.7 5.1-3.8.4-.3 1-.3 1.3-.2.5.4.8 1 .4 1.7l-3 3.3-3.8-1z"/>
  <path fill="#F4C9DB" d="M25.2 66.6l4.8-3.5h.1l12 2.5.4 2.3-9 .1-5.8 4-2.5-5.4z"/>
  <path fill="#F4C9DB" d="M13.2 103.6L2.2 93c-2.7-2.7-2.9-6.6.2-8.9L25 66.6l3.7 5.6-15.5 15.2 8.4 7.1-8.4 9zM58.7 92.7l7.5-10.3-16.6-21.6 9-.1L76.2 80c2 2 2 5.3.4 7.5l-17.3 23.5-.7-18.4z"/>
  <path fill="#002031" d="M57.1 131.6l-2 2 .6-2.3 1.4.3zM30.6 132.8l-6.4-.4s2-3.5 6-4.3l.4 4.7z"/>
  <path fill="#fff" d="M34 67.5c-.7 0-3 1.2-3.7 1.6-2.8 1.4-5 3.7-6.3 6.5-1.4 3.1-.2 6.6-1.6 9.9-.4 1-1 1.9-1.4 3-.7 2 0 5 1.2 7 .3.3 3.1 3.7 3.7 3.2 0 0 8.8-5.5 21.8-4.6 4.6.4 6.6-1.1 7.5-2.3.8-.8.8-2 .4-3-1.7-3.6-7.9-17.2-9-17.8l-12.5-3.5z"/>
  <path fill="#F4C9DB" d="M26.3 99.4l5.1 38.8 22.4.4 5.2-20c1-3.6.5-7.4-1.1-10.7l-4.3-8.4-27.3-.1z"/>
  <path fill="#EDA7C5" d="M30.1 128.2l.4 2.6 25.1.6-20.1-7-5.4 3.8z"/>
  <path fill="#237978" d="M78.6 197.6l-24.8-59.4H31.2l-1.4 1c-7 4.7-11 12.8-10.2 21.4l6 73.5c.2 2 1.9 3.6 3.9 3.6h9.8c2.2 0 3.8-1.8 3.8-3.8l-.5-61.6L59 201.9 50 229.7c-.5 1.6.3 3.4 1.9 4l11 3.9c1.7.6 3.5-.3 4.1-2l11.9-32.1c.6-2 .6-4-.2-5.9z"/>
  <path fill="#002031" d="M43.1 174.7c-.2 0-.5-.3-.5-.5v-12.4l.1-.3.4-.2H48c.2 0 .5.3.5.5 0 .3-.3.6-.5.6h-4.4v11.8c-.1.2-.2.5-.5.5z"/>
  <path fill="#F4C9DB" d="M30.9 80.6L33.1 94h10.3L39 84.6l-8.1-4z"/>
  <path fill="#EDA7C5" d="M41.8 90.8l-1-2.4-5.3-.8 6.3 3.2z"/>
  <path fill="#F4C9DB" d="M28 78.2c.2 5.9 6.6 9.3 6.6 9.3s8 2 11.8-.5c5-3.4.3-14-1.1-16.7-1.2-2-4.7-2.6-7.3-2.6-5.8 0-10.3 4.8-10 10.5z"/>
  <path fill="#002031" d="M42.4 85c-1 0-1.7-.4-2.3-1a.4.4 0 010-.6h.5c.9 1 2.3 1.2 4 .2 0-.2.3 0 .3.1.1.1 0 .4-.1.4a4 4 0 01-2.4.9zM43.4 82H43c-.1-.2 0-.5.1-.5.2 0 .7-.3.7-.7 0-.3-.8-1-1.2-1.6l-.9-1c0-.1 0-.4.2-.4.1 0 .4 0 .4.2s.5.6.8 1c1 .9 1.4 1.5 1.4 2 0 .8-.8 1.2-1 1.3l-.2-.3z"/>
  <path fill="#FE6F43" d="M62.3 107.1V87.6l-8.2 9.8c-1.2.7-2.2.4-3.3.4l-5.8-.1-1.6-3.6H33l.5 4h-4.7c-1.2 0-2.3-.4-3.3-1l-4.1-2.6-8.3 9 10.6 10.6.2 18.3s6.8-7.3 14.4-4.8c7.6 2.6 18.5 4 18.5 4l3-12c.7-1.7.4-4.2-.7-8.4l3.1-4z"/>
  <path fill="#002031" d="M38 79.5c-.4 0-.7-.1-1-.3-.1 0-.2-.2-.1-.3.1-.2.2-.3.4-.2 0 0 1.4.7 2-.6.1-.1.3-.3.4-.1.1.1.2.2.1.4a2 2 0 01-1.8 1.1zM44.9 77.3c-.4 0-.8 0-1-.2-.1-.1-.3-.3-.1-.4 0-.1.2-.3.3-.1.2.1 1.4.6 2-.7.2 0 .3-.2.5 0 0 0 .2.2 0 .3-.3.9-1 1.1-1.7 1.1z"/>
  <path fill="#fff" d="M28.5 81.2s2-.8 3 1c0 0 2.8-4.5.4-8l2 2 14.4-2s-1.9-8.3-10-7.4c-.8.1-2.2.2-2.8.4a9.9 9.9 0 00-8 12.6c.2.6.5 1.2 1 1.4z"/>
  <circle cx="30.1" cy="82.9" r="2.9" fill="#F4C9DB"/>
  <path fill="#002031" d="M54 138.7H31.3a.5.5 0 01-.5-.5c0-.3.3-.5.5-.5H54c.3 0 .6.2.6.5 0 .2-.3.5-.6.5z"/>
  <path fill="#F4C9DB" d="M49.6 60.8L46.3 57c-.3-.4-.3-.9 0-1.3s.6-.4 1-.2l2.6 1.2-1-5.6c-.2-.6.2-1.4.8-1.4.5 0 1 .3 1.2 1l1.8 5.7-.5-6.3c0-.6.3-1.2 1-1.4.6-.1 1.1.4 1.3 1.2l.8 6.2.7-5.2c.1-.9 1-1.4 1.8-.9.3.3.6.8.6 1.3l-.3 5.3 1-2a.8.8 0 011.5 0v.7L58 65l-8.5-4.2z"/>
  <path fill="#002031" d="M12.4 89.4c-.2-.1-.3-.2-.2-.4l.5-1h-1a.3.3 0 01-.3-.2c0-.2.2-.3.3-.3h2.1l-1 2h-.4zM54.3 62.2c-.1 0-.1 0 0 0-.4 0-.4-.3-.4-.4.4-.8.4-1.4 0-1.9-.5-.9-2-.9-2.1-.9-.1 0-.3-.1-.3-.4 0-.1.2-.4.4-.2.1 0 2 .1 2.7 1.2.4.7.4 1.6 0 2.6h-.3zM67.7 84h-.1l-1.7-1-.1-.3.2-.3 2-.4.3.3-.2.4-1.2.2 1 .7c.2.1.3.2.2.4h-.4zM61 203.9h-.2l-2-1-.3-.4c0-.2.2-.4.3-.4l2-1.2c.3-.1.5 0 .7.2 0 .2 0 .5-.2.6l-1.2.6 1.2.7c.3 0 .4.3.3.6l-.5.3z"/>
  <g>
    <path fill="#134BB9" d="M217.5 262.7H113.1c-7.6 0-11-4-11.7-11l-16.8-222c-.4-6 3-10 9.7-10h104.9c6 0 11.3 5 11.7 11l16.8 221c.4 6-4 11-10.2 11z"/>
    <path fill="#1BC1D7" d="M221.4 262.7h-97.8c-6.8 0-12.3-5.3-12.8-11.9L94 30a9.6 9.6 0 019.6-10.3H203c6.1 0 11.3 5 11.7 11l.7 8.2 3.1 103.9 11.9 92.6 1.1 16.3c.4 6-4 11-10.2 11z"/>
    <path fill="#fff" d="M230.5 235.7h-121L94.8 39.3h120.8l15 196.4z"/>
    <path fill="#fff" d="M209.5 171.3h-88c-2.8 0-5-2.3-5.3-5l-6.3-85.1c-.2-4 2.8-7.4 7-7.4h84c3.6 0 6.5 2.8 6.8 6.5l6.4 86.1c.2 2.7-2 4.9-4.6 4.9z"/>
    <path fill="#DCEEFD" d="M197.6 192.8h-60.8a3.3 3.3 0 01-3.3-3.2 2.9 2.9 0 013-3.2h60.8c1.7 0 3.1 1.4 3.3 3.2a2.9 2.9 0 01-3 3.2zM172.2 204.9h-34.5a3.3 3.3 0 01-3.3-3.2 2.9 2.9 0 013-3.2h34.4c1.8 0 3.2 1.4 3.3 3.2a2.9 2.9 0 01-3 3.2zM198.5 204.9h-13.7a3.3 3.3 0 01-3.3-3.2 2.9 2.9 0 012.9-3.2h13.7c1.8 0 3.2 1.4 3.4 3.2a2.9 2.9 0 01-3 3.2z"/>
    <path fill="#002031" fill-rule="evenodd" d="M88.2 66.9h1c1 0 2-.4 2.5-1.1.7-.8 1-1.7 1-2.7l-.7-8.2a4 4 0 00-4-3.7h-1c-1 0-1.9.4-2.5 1.2-.6.8-1 1.6-.9 2.7l.6 8.1a4 4 0 004 3.7zm-3-13.7c.4-.6 1-.8 1.8-.8h1a3 3 0 013 2.8l.6 8.1c.1.8-.1 1.4-.6 2-.5.5-1.2.7-2 .7h-1a3 3 0 01-2.9-2.8l-.6-8.1c-.1-.8.1-1.4.6-2zM89.5 84.7h1a3.4 3.4 0 003.4-3.8l-.6-8.1a4 4 0 00-4-3.7h-1c-1 0-1.9.3-2.5 1.1-.7.8-1 1.7-1 2.7l.7 8.1a4 4 0 004 3.7zm-3.1-13.9c.5-.5 1.1-.7 2-.7h1a3 3 0 012.9 2.8l.6 8.1c.1.8-.1 1.4-.6 2-.6.4-1.2.7-2 .7h-1a3 3 0 01-2.9-2.8l-.6-8.1c-.2-.8 0-1.4.6-2z" clip-rule="evenodd"/>
    <path fill="#fff" fill-rule="evenodd" d="M144 32.4h15.2a3 3 0 002.3-1c.6-.7.9-1.5.8-2.4a3.2 3.2 0 00-3.2-2.8h-15.3c-.9 0-1.7.3-2.3 1-.6.6-.9 1.5-.8 2.4a3.2 3.2 0 003.2 2.8zm-1.7-4.6c.5-.5 1-.7 1.6-.7h15.3c1.1 0 2 .7 2.2 1.9 0 .6-.2 1.1-.5 1.6-.6.5-1 .8-1.7.8h-15.3c-1.1 0-2-.8-2.1-2-.2-.6 0-1 .5-1.6z" clip-rule="evenodd"/>
  </g>
  <g>
    <path fill="#DD933C" d="M233 73l11.5 31a7.7 7.7 0 007.6 5l17.8 1.7L269 96h-15.5l-12.3-23.8-8.2.8z"/>
    <path fill="#FC0" d="M330.3 118.2l-8-15.2a13.4 13.4 0 00-11.5-7h-41.6l.2 14.7 10.3 1.1-8.9 32.9h46.4l-.3-26.8 13.4.3z"/>
    <path fill="#FFDB4B" fill-rule="evenodd" d="M273.1 96c0 .6-.5 1-1.1 1-.7 0-1.2-.3-1.2-1h2.3zm8.3 0l.2.7c0 .6-.6 1.1-1.2 1.1-.7 0-1.2-.5-1.2-1.1 0-.3.2-.5.3-.7h1.9zm31 1c.6 0 1-.2 1-.6l-2.1-.2c.1.5.5.9 1.1.9zm-7 2.6c0 .6-.6 1.2-1.2 1.2-.7 0-1.2-.6-1.2-1.2s.5-1.1 1.2-1.1c.6 0 1.1.5 1.1 1.1zm-10.4 1.7c0 .6-.5 1.1-1.1 1.1-.7 0-1.2-.5-1.2-1.1 0-.7.5-1.2 1.2-1.2.6 0 1.1.5 1.1 1.2zm-4 19c-.7 0-1.2.4-1.2 1 0 .7.5 1.2 1.1 1.2.7 0 1.2-.5 1.2-1.1 0-.7-.5-1.2-1.2-1.2zm4.4 6.5c-.6 0-1.2.6-1.2 1.2s.6 1.1 1.2 1.1 1.1-.5 1.1-1.1c0-.6-.5-1.2-1.1-1.2zm-.3-11.2c0-.6-.5-1.1-1.1-1.1-.6 0-1.2.5-1.2 1.1 0 .7.6 1.2 1.2 1.2s1.1-.5 1.1-1.2zm-12.8-8.4c0 .7-.5 1.2-1.2 1.2-.6 0-1.1-.5-1.1-1.2 0-.6.5-1.1 1.1-1.1.7 0 1.2.5 1.2 1.1zm-1 28c-.5 0-1 .6-1 1.2s.5 1.1 1 1.1c.7 0 1.2-.5 1.2-1.1 0-.6-.5-1.2-1.1-1.2zm18.4-28.7c0-.7.5-1.2 1.2-1.2.6 0 1.1.5 1.1 1.2 0 .6-.5 1.1-1.1 1.1-.7 0-1.2-.5-1.2-1.1zm-9 29.8c-.7 0-1.2.5-1.2 1.1 0 .6.5 1.2 1.2 1.2.6 0 1.1-.6 1.1-1.2-.1-.6-.6-1.1-1.1-1.1zm-1-29.7c.6 0 1.1.5 1.1 1.2 0 .6-.5 1.1-1.1 1.1-.7 0-1.2-.5-1.2-1.1 0-.7.5-1.2 1.2-1.2zm-7.7 15c-.6 0-1.1.5-1.1 1.2 0 .6.5 1.1 1.1 1.1.7 0 1.2-.5 1.2-1.1 0-.7-.5-1.2-1.2-1.2zm25.4 15.7c0-.7.5-1.2 1.1-1.2.6 0 1.1.5 1.1 1.2 0 .6-.5 1.1-1.1 1.1-.6 0-1.1-.5-1.1-1.1zm1.4-16.6c-.7 0-1.2.5-1.2 1.2 0 .6.5 1.1 1.2 1.1.6 0 1.1-.5 1.1-1.1 0-.7-.5-1.2-1.1-1.2zm-6.8 22.7c0-.6.5-1.2 1.2-1.2.6 0 1.1.6 1.1 1.2s-.5 1.1-1.1 1.1c-.7 0-1.2-.5-1.2-1.1zm-3.3-9c-.6 0-1.1.5-1.1 1.1 0 .6.5 1.1 1.1 1.1.6 0 1.1-.5 1.1-1.1 0-.6-.5-1.1-1.1-1.1zm27.7-16.5c0-.6.6-1.1 1.2-1.1s1.1.5 1 1v.3h-2.2v-.2zm-16.8-11.2c-.6 0-1.1.5-1.1 1.2 0 .6.5 1.1 1.1 1.1.7 0 1.2-.5 1.2-1.1 0-.7-.5-1.2-1.2-1.2zm-10.8 13.7c-.6 0-1.1.5-1.1 1.1 0 .6.5 1.1 1.1 1.1.7 0 1.2-.5 1.2-1.1 0-.6-.5-1.1-1.2-1.1zm5.2-7.3c0-.6.6-1.1 1.2-1.1s1.1.5 1.1 1.1c0 .6-.5 1.1-1.1 1.1-.6 0-1.2-.5-1.2-1.1zm.7 15.4c-.7 0-1.2.5-1.2 1.1 0 .7.5 1.2 1.2 1.2.6 0 1.1-.5 1.1-1.2 0-.6-.6-1.1-1.1-1.1zM286 100c0 .6-.5 1.1-1.2 1.1-.6 0-1.1-.5-1.1-1.1 0-.6.5-1.2 1.1-1.2.7 0 1.2.6 1.2 1.2zm26.6 15.6c.6 0 1.1-.5 1.1-1.1 0-.6-.5-1.1-1.1-1.1-.7 0-1.2.5-1.2 1.1 0 .6.5 1.1 1.2 1.1zm-.3 12.8c0-.7.5-1.2 1.2-1.2.6 0 1.1.5 1.1 1.2 0 .6-.5 1.1-1.1 1.1-.7 0-1.2-.5-1.2-1.1zm4 6.7c0 .5.3 1 .9 1v-2c-.6.3-.8.6-.8 1zm-32-5.8c.7 0 1.2.5 1.2 1.1 0 .6-.5 1.2-1.2 1.2-.6 0-1.1-.6-1.1-1.2s.5-1.1 1.1-1.1zm10.6 13c-.7 0-1.2.6-1.2 1.2 0 .5.4 1 1 1.2h.3c.5-.2.9-.5.9-1.2.1-.6-.4-1.1-1-1.1zM317 108c0-.7.5-1.2 1.2-1.2.6 0 1.1.5 1.1 1.2 0 .6-.5 1.1-1.1 1.1-.7 0-1.2-.5-1.2-1.1zm6.3 4.7c-.7 0-1.2.5-1.2 1.1 0 .7.5 1.2 1.2 1.2.6 0 1.1-.5 1.1-1.2 0-.6-.5-1.1-1.1-1.1zm.8-5.5l-.5.1c-.5 0-1-.5-1.1-1.1 0-.5.4-.9.8-1l1 1.9h-.2zm-11.5-7.1c0-.6.5-1.2 1.1-1.2.5 0 1 .6 1.2 1.2 0 .6-.5 1.1-1.2 1.1-.6 0-1.1-.5-1.1-1.1zm0 42.8c-.7 0-1.2.5-1.2 1.1 0 .3.2.5.3.8h1.6c.2-.3.3-.5.3-.8.1-.6-.4-1.1-1-1.1zm-40-4.6l.6-2.2c.6 0 1 .5 1 1.2 0 .6-.6 1.1-1.2 1.1h-.2l-.2-.1zm13.4 4c-.7 0-1.2.4-1.2 1 0 .7.5 1.2 1.2 1.2.6 0 1.1-.5 1.1-1.1 0-.7-.5-1.2-1.1-1.2zm-10.2-41.8c.6 0 1.1.5 1.1 1.1 0 .7-.5 1.2-1.1 1.2-.6 0-1.2-.5-1.2-1.2 0-.6.6-1.1 1.2-1.1zm8.4 15.6c0 .7.5 1.2 1.1 1.2.7 0 1.2-.5 1.2-1.2 0-.6-.5-1.1-1.2-1.1-.6 0-1.1.5-1.1 1.1zm-5.6 24.7c-.6 0-1.2.5-1.2 1.2 0 .6.6 1.1 1.2 1.1s1.1-.5 1.1-1.1c0-.7-.5-1.2-1.1-1.2zm-6.8-34.5c.7 0 1.2.5 1.2 1.2 0 .6-.5 1.2-1.2 1.1-.6 0-1.1-.5-1.1-1.1 0-.7.5-1.2 1.1-1.2zm6.7 23c0-.7-.5-1.2-1.2-1.2-.6 0-1.1.5-1.1 1.1 0 .7.5 1.2 1.1 1.2.7 0 1.2-.7 1.2-1.2z" clip-rule="evenodd"/>
    <path fill="#DD933C" d="M316.9 118l26.9 44.7 8.5.5-22-45-13.4-.3z"/>
    <path fill="#002031" d="M276.8 147.5l-6-2.8h7l-1 2.8z"/>
    <path fill="#F17277" d="M277.4 144.7l-38 97h18l42.2-97h-22.2z"/>
    <path fill="#F17277" d="M317.2 144.7c.2 10.3-.8 16.3-9.3 16.3h-36l5.5-16.3h39.8z"/>
    <path fill="#F17277" d="M292.7 156L282 191.4a17 17 0 00.8 11.2l17 39.4h19.4l-17.5-45 12.8-41h-21.7z"/>
    <path fill="#002031" d="M286.2 175.6h-.1c-.3-.1-.4-.4-.3-.6l6.3-18.5h-5.2c-.3 0-.5-.3-.5-.5 0-.3.2-.5.5-.5h5.8l.4.2.1.4-6.5 19.1c0 .3-.2.4-.5.4z"/>
    <path fill="#DD933C" d="M294.1 102.8c4.5.4 11-3 14.1-6.6l-19.4-.2s-.8 6.3 5.3 6.8z"/>
    <path fill="#DD933C" d="M306.3 80L303 96.3l-11.6.4 6.1-14.4 9-2.3z"/>
    <path fill="#D2793C" d="M294.4 89.3l1.4-3.2 4.7-.5-6.1 3.7z"/>
    <path fill="#002031" d="M288.4 67.4c-1 1.5 0 5 2.2 4.2 1.2-1.1 2.4-3 2.5-4.7 0-2.4-4-1.3-4.7.5z"/>
    <path fill="#DD933C" d="M308.2 75c-.2 5.6-7.3 10.6-7.3 10.6s-6.1 2.8-11.1-.6c-5-3.5 0-15.2 1.4-17.7 1.1-2 4.6-2.7 7.1-2.7a9.8 9.8 0 0110 10.3z"/>
    <path fill="#002031" d="M309.9 68.4c1-6.7-8.8-6.6-8.8-6.6s-.6-2.2-1.6-2.8c-1.8-1-2.5.9-2.2 2.2-.9-1.6-1.4-3.8-3.6-3.8-1.6.3-1.9 3.1-.9 4-6.8-6-9.5 6.3 2.8 7.5 3.5.4 7 .3 7.3 0-.4 3.6 1.4 7.2 5 8.3a36 36 0 002-8.8zM294.1 81.4l-1.4-.1-.2-.4.3-.3c1.8.4 3.1 0 3.6-1.1.1-.1.3-.3.4-.1.1.1.2.2.1.4-.4 1.1-1.4 1.6-2.8 1.6z"/>
    <path fill="#fff" fill-rule="evenodd" d="M287.2 74.3c0 1.8 1.4 3.3 3.2 3.3.8 0 1.7-.4 2.2-.9.6-.6 1-1.5 1-2.4 0-1.8-1.4-3.3-3.2-3.3a3 3 0 00-2.1.9c-.7.6-1 1.5-1 2.4zm1.6-1.8c.4-.4 1-.6 1.5-.6 1.3 0 2.3 1.1 2.3 2.4 0 .7-.3 1.3-.6 1.8-.4.3-1 .6-1.6.6-1.2 0-2.3-1.1-2.3-2.4 0-.8.3-1.3.7-1.8zM294 75c0 1.7 1.4 3.2 3.2 3.2.7 0 1.6-.4 2.1-.9a4 4 0 001-2.4c0-1.8-1.5-3.3-3.3-3.3a3 3 0 00-2.1.9 4 4 0 00-1 2.4zm1.5-1.9c.4-.3 1-.6 1.5-.6 1.3 0 2.3 1.1 2.3 2.3 0 .6-.2 1.1-.6 1.6-.4.4-.9.7-1.5.7-1.3 0-2.3-1-2.3-2.3 0-.6.2-1.2.6-1.7z" clip-rule="evenodd"/>
    <path fill="#002031" d="M293.4 78.9c-.2 0-1-.3-1.4-1-.2-.3 0-1 .6-2.2l.5-1.2.4-.2.2.4-.5 1.2c-.2.5-.7 1.6-.6 1.7.1.2.6.5.9.5l.2.4c0 .2-.2.4-.3.4z"/>
    <path fill="#fff" d="M294.4 74.5H293c-.3 0-.5-.3-.4-.6 0-.3.2-.5.5-.4l1.3.1c.2 0 .5.3.4.6 0 0-.2.3-.4.3zM304.8 76l-5-.7c-.3 0-.5-.3-.5-.5 0-.3.3-.4.5-.4l5 .6c.3 0 .4.3.4.6.1 0-.1.3-.4.3z"/>
    <circle cx="305.2" cy="77.3" r="3.1" fill="#DD933C"/>
    <path fill="#DD933C" d="M242.2 75l4.2-7.5c.2-.3.1-1-.1-1.2-.3-.3-.8-.4-1-.2l-3.6 2.6.1-6.4c0-.6-.5-1.3-1.1-1.3-.5 0-1 .4-1 1l-1 6-.3-6.3c0-.7-.5-1.3-1.2-1.2-.6 0-1.1.5-1.1 1.3V68l-1.3-5c-.2-.8-1.1-1.2-1.9-.6-.4.3-.5.8-.4 1.3l.7 5.8-2-2.6c-.7-.7-1.6-.5-1.9.2 0 .3 0 .5.2.8l5 9 7.7-1.9z"/>
    <path fill="#002031" d="M241.3 69.6s-.1 0 0 0c-.1 0-4-1.3-6 0-.1.1-.4 0-.4-.2 0 0 0-.3.2-.3 2.3-1.4 6.2-.2 6.3 0 .2 0 .3.2.3.3l-.4.2z"/>
    <path fill="#DD933C" d="M351.8 162.2l4.8 6.1c.4.4.5 1 .3 1.3-.3.4-.7.5-1 .4l-2.9-1.7 2 6c.3.7 0 1.4-.6 1.5-.5.2-1 0-1.2-.6l-2.7-5.3 1.5 6c.2.6-.1 1.2-.7 1.5-.7.1-1.3-.3-1.4-1l-1.8-5.8.1 5.1c0 1-.8 1.5-1.5 1.2-.4-.2-.8-.7-.8-1.2l-1.1-5.7-1.8 3.3c-.6.9-1.4 1-2 .3 0-.3-.2-.6 0-.8l2.9-10.3 7.9-.3z"/>
    <path fill="#002031" d="M316.9 118.4c-.1 0-.4 0-.4-.2l-2.8-5.2c-.1-.3 0-.5.3-.7.2 0 .5 0 .6.3l2.8 5.2c.1.3 0 .5-.2.6h-.3z"/>
  </g>
  <path fill="#A7FAC1" d="M221.6 1.2l1.1 3.6.5.5 3.6 1.1c.6.3.6 1.2 0 1.4L223.4 9a1 1 0 00-.6.5l-1.1 4.3c-.3.8-1.3.8-1.4 0l-1.1-4.3c0-.3-.3-.4-.6-.5l-3.1-1.2a.8.8 0 010-1.4l3.1-1.1c.3-.1.4-.3.6-.5l1.1-3.6c.1-.6 1-.6 1.3 0zM23.5 39.3l.8 2.5c0 .2.1.3.4.4l2.5.8c.5.1.5.9 0 1l-2.5.8c-.2 0-.4.2-.4.3l-.8 3.2c-.1.5-.9.5-1 0l-.8-3.2s0-.3-.3-.3L19 44c-.5-.1-.5-.9 0-1l2.4-.8.4-.4.7-2.5c0-.5.8-.5 1 0z"/>
  <path fill="#fff" d="M266 37.6l.8 2.6c0 .1 0 .2.3.4l2.6.7c.5.1.5.9 0 1l-2.4.8c-.2 0-.3.3-.4.4l-.8 3c-.1.5-.9.5-1 0l-.8-3c0-.1 0-.3-.3-.4l-2.3-.8c-.5-.1-.5-.9 0-1l2.3-.9s.2-.1.3-.4l.8-2.5c.1-.4.8-.4.9.1z"/>
  <path fill="#3DEC94" d="M278.2 20.7l.8 2.3.2.2 2.3.8c.5.1.5.8 0 .9l-2.3.8c-.1 0-.2 0-.4.3l-.7 2.8c-.1.5-.8.5-1 0l-.7-2.8-.2-.3-2-.8c-.4-.1-.4-.8 0-.9l2-.8c.1 0 .2 0 .2-.2l.8-2.3c.2-.5.9-.5 1 0z"/>
  <path fill="#A7FAC1" d="M43 24.9l.5 1.6c0 .2.1.3.3.3l1.6.5c.4.1.4.5 0 .6l-1.6.6c-.2 0-.3 0-.3.2l-.5 2c-.1.4-.6.4-.6 0l-.6-2c0-.1 0-.2-.2-.2l-1.5-.6c-.3 0-.3-.5 0-.6l1.5-.5.2-.3.6-1.6c0-.3.5-.3.6 0z"/>
  <g>
    <path fill="#1BC1D7" fill-rule="evenodd" d="M135.3 154.8h20.4c2.3 0 4-2 4-4.2l-1.5-20.4a4.7 4.7 0 00-4.5-4.2h-20.4a4 4 0 00-4 4.2l1.5 20.4a4.7 4.7 0 004.5 4.2zm13.8-10.2h-8.7l-.6-8.7h8.6l.7 8.7zM132.7 118H153c2.4 0 4.2-2 4-4.2l-1.4-20.4a4.7 4.7 0 00-4.6-4.2h-20.4a4 4 0 00-4 4.2l1.5 20.4a4.7 4.7 0 004.6 4.2zm13.7-10.2h-8.6l-.7-8.6h8.7l.6 8.6zM169.4 118h20.4c2.4 0 4.2-2 4-4.2l-1.4-20.4a4.7 4.7 0 00-4.6-4.2h-20.4a4 4 0 00-4 4.2l1.5 20.4a4.7 4.7 0 004.5 4.2zm13.8-10.2h-8.7l-.6-8.6h8.7l.6 8.6z" clip-rule="evenodd"/>
    <g fill="#1BC1D7" fill-rule="evenodd" clip-rule="evenodd">
      <path d="M176 135.5h-8.3c-.7 0-1.4-.6-1.4-1.4l-.5-6.9c0-.7.5-1.4 1.3-1.4h6.9c.7 0 1.4.7 1.4 1.4l.6 8.3zM186.3 145h-9.5l-.8-9.5h9.7l.6 9.5zM195.3 154.7h-6.8c-.8 0-1.4-.6-1.4-1.4l-.7-8.3h8.3c.8 0 1.4.7 1.4 1.4l.5 7c0 .7-.6 1.3-1.3 1.3zM194 135.5h-8.3l-.7-8.3c0-.7.5-1.4 1.3-1.4h6.9c.7 0 1.4.7 1.4 1.4l.5 6.9c.1.8-.4 1.4-1.2 1.4z"/>
      <path d="M176 154.7h-6.9c-.7 0-1.4-.6-1.4-1.4l-.5-6.9c0-.7.5-1.4 1.3-1.4h8.3l.6 8.3c0 .8-.6 1.4-1.4 1.4z"/>
    </g>
  </g>
</svg>
