<svg width="357" height="203" viewBox="0 0 357 203" fill="none" xmlns="http://www.w3.org/2000/svg">
<g id="holder_qrcode_maken">
<g id="Group">
<path id="Path" d="M28.2305 64.4789C28.3577 64.4789 31.7943 61.806 33.3217 60.6605C33.7035 60.4059 34.2126 60.4059 34.5945 60.5332C35.1036 60.915 35.3582 61.5514 34.9763 62.1878L32.0489 65.4971L28.2305 64.4789Z" fill="#F4C9DB"/>
<path id="Path_2" d="M25.1758 66.6427L30.0124 63.0789H30.1397L42.104 65.6245L42.4859 67.9155L33.5763 68.0428L27.7214 71.9885L25.1758 66.6427Z" fill="#F4C9DB"/>
<path id="Path_3" d="M13.2113 103.554L2.26524 93.1171C-0.53492 90.4442 -0.6622 86.4985 2.39252 84.2075L25.0484 66.6428L28.7395 72.2431L13.2113 87.3895L21.6118 94.5172L13.2113 103.554Z" fill="#F4C9DB"/>
<path id="Path_4" d="M58.6502 92.7352L66.1597 82.4255L49.6133 60.7879L58.5229 60.6606L76.3421 80.1345C78.2513 82.171 78.3786 85.353 76.7239 87.644L59.4139 111.064L58.6502 92.7352Z" fill="#F4C9DB"/>
<path id="Path_5" d="M57.1229 131.555L55.0864 133.592L55.7228 131.301L57.1229 131.555Z" fill="#002031"/>
<path id="Path_6" d="M30.649 132.828L24.1577 132.447C24.1577 132.447 26.1942 128.883 30.1399 128.119L30.649 132.828Z" fill="#002031"/>
<path id="Path_7" d="M34.0851 67.5337C33.3214 67.5337 31.0304 68.6792 30.2667 69.0611C27.4665 70.4611 25.3028 72.7522 24.03 75.5523C22.6299 78.7343 23.7754 82.1709 22.3753 85.4802C21.9935 86.4984 21.3571 87.3894 20.9752 88.4076C20.3388 90.5714 20.9752 93.4988 22.2481 95.408C22.5026 95.7899 25.3028 99.2264 25.9392 98.7173C25.9392 98.7173 34.7215 93.2443 47.7041 94.1352C52.2862 94.5171 54.3226 92.9897 55.2136 91.8442C55.9773 90.9532 55.9773 89.8077 55.5954 88.7895C53.9408 85.2256 47.7041 71.6067 46.6858 70.9703C42.8674 70.0793 34.2124 67.5337 34.0851 67.5337Z" fill="white"/>
<path id="Path_8" d="M26.3213 99.3536L31.4125 138.174L53.8138 138.556L59.0323 118.573C59.9232 115.009 59.5414 111.191 57.8868 107.881L53.5592 99.4809L26.3213 99.3536Z" fill="#F4C9DB"/>
<path id="Path_9" d="M30.1396 128.246L30.5215 130.792L55.5957 131.428L35.4854 124.428L30.1396 128.246Z" fill="#EDA7C5"/>
<path id="Path_10" d="M78.6332 197.614L53.8136 138.174H42.4857H34.467H31.1577L29.7576 139.192C22.7572 143.902 18.8115 152.048 19.5752 160.575L25.6847 234.143C25.812 236.18 27.4666 237.707 29.5031 237.707H39.3036C41.4674 237.707 43.1221 235.925 43.1221 233.889L42.6129 172.285L59.0321 201.942L49.8679 229.689C49.3588 231.343 50.2497 233.125 51.7771 233.634L62.8505 237.58C64.5051 238.216 66.287 237.325 66.9234 235.671L78.7605 203.469C79.3969 201.56 79.3969 199.523 78.6332 197.614Z" fill="#237978"/>
<path id="Path_11" d="M43.1224 174.704C42.8678 174.704 42.6133 174.449 42.6133 174.194V161.848C42.6133 161.721 42.6133 161.594 42.7406 161.466C42.8678 161.339 42.9951 161.339 43.1224 161.339H47.959C48.2136 161.339 48.4682 161.594 48.4682 161.848C48.4682 162.103 48.2136 162.357 47.959 162.357H43.6315V174.194C43.5042 174.449 43.377 174.704 43.1224 174.704Z" fill="#002031"/>
<path id="Path_12" d="M30.9033 80.6434L33.0671 94.0078H43.3768L39.0492 84.5891L30.9033 80.6434Z" fill="#F4C9DB"/>
<path id="Path_13" d="M41.8494 90.8259L40.8311 88.4076L35.4854 87.6439L41.8494 90.8259Z" fill="#EDA7C5"/>
<path id="Path_14" d="M27.9757 78.2253C28.2303 84.0801 34.5943 87.5167 34.5943 87.5167C34.5943 87.5167 42.6129 89.5532 46.4313 87.0076C51.3953 83.571 46.6859 73.0068 45.2858 70.3339C44.1403 68.2974 40.5765 67.661 38.0308 67.661C32.176 67.7883 27.7212 72.4977 27.9757 78.2253Z" fill="#F4C9DB"/>
<path id="Path_15" d="M42.3587 84.9711C41.4677 84.9711 40.704 84.5892 40.0676 83.9528C39.9403 83.8256 39.9403 83.571 40.0676 83.4437C40.1949 83.3164 40.4495 83.3164 40.5767 83.4437C41.4677 84.462 42.8678 84.5892 44.5224 83.571C44.6497 83.4437 44.9043 83.571 44.9043 83.6983C45.0316 83.8256 44.9043 84.0801 44.777 84.0801C43.886 84.7165 43.1224 84.9711 42.3587 84.9711Z" fill="#002031"/>
<path id="Path_16" d="M43.377 82.0435C43.2497 82.0435 43.1224 82.0435 43.1224 81.9162C42.9951 81.7889 43.1224 81.5344 43.2497 81.5344C43.377 81.4071 43.8861 81.1525 43.8861 80.7707C43.8861 80.5161 43.1224 79.7525 42.7406 79.2433C42.3587 78.8615 41.9769 78.4796 41.8496 78.2251C41.7223 78.0978 41.8496 77.8432 41.9769 77.8432C42.1042 77.716 42.3587 77.8432 42.3587 77.9705C42.486 78.2251 42.8678 78.6069 43.2497 78.9888C44.1406 79.8797 44.6498 80.5161 44.6498 81.0253C44.5225 81.7889 43.7588 82.1708 43.6315 82.2981C43.5042 82.0435 43.377 82.0435 43.377 82.0435Z" fill="#002031"/>
<path id="Path_17" d="M62.3416 107.118V87.6439L54.0683 97.4445C52.9228 98.0809 51.9046 97.8263 50.7591 97.8263L45.0315 97.6991L43.3768 94.1352H33.0671L33.5762 98.0809H28.8669C27.7214 98.0809 26.5758 97.6991 25.5576 97.0627L21.4846 94.517L13.2114 103.554L23.7757 114.118L24.0302 132.447C24.0302 132.447 30.7761 125.064 38.4129 127.61C46.0497 130.155 56.8685 131.683 56.8685 131.683L59.9232 119.591C60.5596 117.937 60.3051 115.391 59.1596 111.191L62.3416 107.118Z" fill="#FE6F43"/>
<path id="Path_18" d="M38.0308 79.4981C37.6489 79.4981 37.2671 79.3708 37.0125 79.2435C36.8852 79.1162 36.758 78.9889 36.8852 78.8617C37.0125 78.7344 37.1398 78.6071 37.2671 78.7344C37.3944 78.7344 38.6672 79.3708 39.3036 78.098C39.4308 77.9707 39.5581 77.8434 39.6854 77.9707C39.8127 78.098 39.94 78.2253 39.8127 78.3525C39.4308 79.1162 38.6672 79.4981 38.0308 79.4981Z" fill="#002031"/>
<path id="Path_19" d="M44.9043 77.3344C44.5225 77.3344 44.1406 77.2071 43.8861 77.0798C43.7588 76.9525 43.6315 76.8252 43.7588 76.698C43.8861 76.5707 44.0133 76.4434 44.1406 76.5707C44.2679 76.698 45.5407 77.2071 46.1771 75.9343C46.3044 75.807 46.4317 75.6797 46.5589 75.807C46.6862 75.9343 46.8135 76.0616 46.6862 76.1888C46.3044 77.0798 45.5407 77.3344 44.9043 77.3344Z" fill="#002031"/>
<path id="Path_20" d="M28.4848 81.1527C28.4848 81.1527 30.5213 80.389 31.5395 82.1709C31.5395 82.1709 34.3397 77.7161 31.9214 74.2795L33.9579 76.1887L48.3405 74.1523C48.3405 74.1523 46.4313 65.879 38.2854 66.77C37.5217 66.8973 36.1216 67.0246 35.4852 67.1518C29.8849 68.1701 25.9392 73.3886 27.5939 79.7526C27.7211 80.389 27.9757 81.0254 28.4848 81.1527Z" fill="white"/>
<circle id="Oval" cx="30.1398" cy="82.9345" r="2.92744" fill="#F4C9DB"/>
<path id="Path_21" d="M53.941 138.683H31.4124C31.1579 138.683 30.9033 138.429 30.9033 138.174C30.9033 137.92 31.1579 137.665 31.4124 137.665H53.941C54.1956 137.665 54.4501 137.92 54.4501 138.174C54.4501 138.429 54.1956 138.683 53.941 138.683Z" fill="#002031"/>
<path id="Path_22" d="M49.6135 60.7878L46.3042 57.0967C46.0496 56.7148 46.0496 56.2057 46.3042 55.8239C46.5588 55.442 46.9406 55.442 47.3224 55.5693L49.868 56.8421L48.8498 51.2418C48.7225 50.6054 49.1044 49.8417 49.7408 49.8417C50.2499 49.7144 50.759 50.0962 50.8863 50.7326L52.6682 56.4603L52.1591 50.2235C52.1591 49.5871 52.5409 48.9507 53.1773 48.8234C53.8137 48.6962 54.3228 49.2053 54.4501 49.969L55.3411 56.2057L55.9775 50.9872C56.1048 50.0962 56.9957 49.5871 57.7594 50.0962C58.1413 50.3508 58.3958 50.8599 58.3958 51.3691L58.1413 56.7148L59.0322 54.6783C59.2868 53.9147 60.305 53.9147 60.5596 54.6783C60.6869 54.9329 60.6869 55.1875 60.5596 55.442L58.1413 64.988L49.6135 60.7878Z" fill="#F4C9DB"/>
<path id="Path_23" d="M12.4474 89.4258H12.3202C12.1929 89.2985 12.0656 89.1712 12.1929 89.044L12.702 88.0257H11.6838C11.5565 88.0257 11.4292 87.8984 11.4292 87.7712C11.4292 87.6439 11.5565 87.5166 11.6838 87.5166H13.8475L12.8293 89.5531C12.5747 89.4258 12.4474 89.4258 12.4474 89.4258Z" fill="#002031"/>
<path id="Path_24" d="M54.3231 62.1879C54.1958 62.1879 54.1958 62.1879 54.3231 62.1879C53.9413 62.1879 53.9413 61.9334 53.9413 61.8061C54.3231 61.0424 54.3231 60.406 53.9413 59.8969C53.4322 59.0059 51.9048 59.0059 51.7775 59.0059C51.6502 59.0059 51.5229 58.8786 51.5229 58.6241C51.5229 58.4968 51.6502 58.2422 51.9048 58.3695C52.0321 58.3695 53.814 58.4968 54.5777 59.6423C54.9595 60.2787 54.9595 61.1697 54.5777 62.1879C54.4504 62.1879 54.3231 62.1879 54.3231 62.1879Z" fill="#002031"/>
<path id="Path_25" d="M67.687 84.0799H67.5598L65.9051 83.0617C65.7778 82.9344 65.7778 82.8071 65.7778 82.6799C65.7778 82.5526 65.9051 82.4253 66.0324 82.4253L67.9416 82.0435C68.0689 82.0435 68.3234 82.1707 68.3234 82.298C68.3234 82.4253 68.1962 82.6799 68.0689 82.6799L66.9234 82.9344L67.9416 83.5708C68.0689 83.6981 68.1962 83.8254 68.0689 83.9527C67.9416 84.0799 67.8143 84.0799 67.687 84.0799Z" fill="#002031"/>
<path id="Path_26" d="M61.0686 203.851C60.9413 203.851 60.9413 203.851 60.814 203.851L58.7775 202.833C58.6502 202.705 58.5229 202.578 58.5229 202.451C58.5229 202.323 58.6502 202.069 58.7775 202.069L60.814 200.923C61.0686 200.796 61.3231 200.923 61.4504 201.051C61.5777 201.305 61.4504 201.56 61.3231 201.687L60.0503 202.323L61.3231 202.96C61.5777 203.087 61.705 203.342 61.5777 203.596C61.3231 203.723 61.1958 203.851 61.0686 203.851Z" fill="#002031"/>
</g>
<g id="Group_2">
<path id="Path_27" d="M217.496 262.654H113.126C105.49 262.654 102.053 258.708 101.417 251.708L84.6156 29.7315C84.2338 23.6221 87.543 19.6764 94.2889 19.6764H199.168C205.277 19.6764 210.496 24.6403 210.877 30.6225L227.678 251.708C228.06 257.69 223.605 262.654 217.496 262.654Z" fill="#134BB9"/>
<path id="Path_28" d="M221.442 262.654H123.563C116.817 262.654 111.344 257.436 110.835 250.817L94.0342 29.9861C93.6524 24.3858 97.9799 19.6764 103.58 19.6764H203.113C209.223 19.6764 214.441 24.6403 214.823 30.6225L215.459 38.8957L218.641 142.756L230.479 235.416L231.624 251.708C232.006 257.69 227.551 262.654 221.442 262.654Z" fill="#1BC1D7"/>
<path id="Path_29" d="M230.478 235.671H109.562L94.6704 39.2773H215.459L230.478 235.671Z" fill="white"/>
<path id="Path_30" d="M209.477 171.267H121.527C118.726 171.267 116.435 168.976 116.181 166.303L109.944 81.1526C109.689 77.2069 112.744 73.7704 116.817 73.7704H200.822C204.513 73.7704 207.441 76.5705 207.695 80.2617L214.059 166.43C214.314 169.103 212.15 171.267 209.477 171.267Z" fill="white"/>
<path id="Path_31" d="M197.64 192.777H136.8C135.018 192.777 133.618 191.377 133.491 189.595C133.363 187.814 134.636 186.413 136.418 186.413H197.258C199.04 186.413 200.44 187.814 200.567 189.595C200.695 191.377 199.422 192.777 197.64 192.777Z" fill="#DCEEFD"/>
<path id="Path_32" d="M172.184 204.869H137.691C135.909 204.869 134.509 203.469 134.382 201.687C134.255 199.905 135.527 198.505 137.309 198.505H171.802C173.584 198.505 174.984 199.905 175.111 201.687C175.239 203.469 173.966 204.869 172.184 204.869Z" fill="#DCEEFD"/>
<path id="Path_33" d="M198.531 204.869H184.785C183.003 204.869 181.603 203.469 181.476 201.687C181.348 199.905 182.621 198.505 184.403 198.505H198.149C199.931 198.505 201.331 199.905 201.459 201.687C201.586 203.469 200.313 204.869 198.531 204.869Z" fill="#DCEEFD"/>
<path id="Shape" fill-rule="evenodd" clip-rule="evenodd" d="M88.1792 66.8974H89.1975C90.2157 66.8974 91.1067 66.5156 91.7431 65.7519C92.3795 64.9882 92.7613 64.0972 92.634 63.079L91.9976 54.9331C91.8703 52.8966 90.0884 51.2419 88.0519 51.2419H87.0337C86.0155 51.2419 85.1245 51.6238 84.4881 52.3875C83.8517 53.1511 83.4699 54.0421 83.5971 55.0603L84.2335 63.2063C84.3608 65.2428 86.1427 66.8974 88.1792 66.8974ZM85.1244 53.151C85.6335 52.6419 86.2699 52.3873 87.0336 52.3873H88.0518C89.5792 52.3873 90.852 53.6601 90.9793 55.1875L91.6157 63.3334C91.743 64.0971 91.4884 64.7335 90.9793 65.2426C90.4702 65.7517 89.8338 66.0063 89.0701 66.0063H88.0518C86.5245 66.0063 85.2517 64.7335 85.1244 63.2061L84.488 55.0602C84.3607 54.2965 84.6153 53.6601 85.1244 53.151Z" fill="#002031"/>
<path id="Shape_2" fill-rule="evenodd" clip-rule="evenodd" d="M89.4522 84.7165H90.4704C91.4887 84.7165 92.3796 84.3347 93.016 83.571C93.6524 82.8073 94.0343 81.9163 93.907 80.8981L93.2706 72.7522C93.1433 70.7157 91.3614 69.061 89.3249 69.061H88.3067C87.2884 69.061 86.3975 69.4429 85.7611 70.2066C85.1247 70.9702 84.7428 71.8612 84.8701 72.8794L85.5065 81.0254C85.6338 83.0619 87.4157 84.7165 89.4522 84.7165ZM86.3974 70.8429C86.9066 70.3338 87.543 70.0792 88.3066 70.0792H89.3249C90.8522 70.0792 92.125 71.352 92.2523 72.8794L92.8887 81.0253C93.016 81.789 92.7614 82.4254 92.2523 82.9345C91.7432 83.4436 91.1068 83.6982 90.3431 83.6982H89.3249C87.7975 83.6982 86.5247 82.4254 86.3974 80.898L85.761 72.7521C85.6338 71.9884 85.8883 71.352 86.3974 70.8429Z" fill="#002031"/>
<path id="Shape_3" fill-rule="evenodd" clip-rule="evenodd" d="M143.928 32.4043H159.202C160.093 32.4043 160.984 32.0225 161.493 31.3861C162.129 30.7497 162.384 29.8587 162.257 28.9678C162.002 27.3131 160.729 26.1676 159.075 26.1676H143.801C142.91 26.1676 142.146 26.5494 141.51 27.1858C140.873 27.8222 140.619 28.7132 140.746 29.6042C141.001 31.2588 142.274 32.4043 143.928 32.4043ZM142.274 27.8223C142.783 27.3132 143.292 27.0586 143.928 27.0586H159.202C160.347 27.0586 161.238 27.8223 161.366 28.9678C161.493 29.6042 161.238 30.1133 160.856 30.6224C160.347 31.1316 159.838 31.3861 159.202 31.3861H143.928C142.783 31.3861 141.892 30.6224 141.764 29.4769C141.637 28.8405 141.892 28.3314 142.274 27.8223Z" fill="white"/>
</g>
<g id="Group_3">
<path id="Path_34" d="M233.024 73.0066L244.479 103.936C245.625 107.118 248.679 109.154 252.116 109.027L269.935 110.682L269.044 96.0443L253.516 95.917L241.17 72.2429L233.024 73.0066Z" fill="#DD933C"/>
<path id="Path_35" d="M330.266 118.191L322.248 103.045C319.957 98.8446 315.629 96.1717 310.792 96.0444C310.156 96.0444 309.774 96.0444 309.774 96.0444L288.773 95.9171L269.172 96.0444L269.426 110.682L279.736 111.827L270.827 144.665H317.156L316.902 117.937L330.266 118.191Z" fill="#FFCC00"/>
<path id="Shape_4" fill-rule="evenodd" clip-rule="evenodd" d="M273.118 95.9169C273.118 96.5533 272.608 97.0624 271.972 97.0624C271.336 97.0624 270.827 96.6806 270.827 95.9169H273.118ZM281.39 96.0445C281.518 96.1718 281.645 96.4263 281.645 96.6809C281.645 97.3173 281.008 97.8264 280.372 97.8264C279.736 97.8264 279.227 97.3173 279.227 96.6809C279.227 96.4263 279.354 96.1718 279.481 96.0445H281.39ZM312.447 97.0628C312.956 97.0628 313.338 96.8082 313.465 96.4264C312.828 96.2991 312.065 96.1718 311.301 96.1718C311.428 96.6809 311.81 97.0628 312.447 97.0628ZM305.319 99.6083C305.319 100.245 304.81 100.754 304.173 100.754C303.537 100.754 303.028 100.245 303.028 99.6083C303.028 98.9719 303.537 98.4628 304.173 98.4628C304.81 98.4628 305.319 98.9719 305.319 99.6083ZM295.009 101.263C295.009 101.899 294.5 102.408 293.864 102.408C293.227 102.408 292.718 101.899 292.718 101.263C292.718 100.627 293.227 100.117 293.864 100.117C294.5 100.117 295.009 100.627 295.009 101.263ZM290.936 120.228C290.3 120.228 289.791 120.737 289.791 121.373C289.791 122.01 290.3 122.519 290.936 122.519C291.573 122.519 292.082 122.01 292.082 121.373C292.082 120.737 291.573 120.228 290.936 120.228ZM295.391 126.846C294.755 126.846 294.246 127.355 294.246 127.992C294.246 128.628 294.755 129.137 295.391 129.137C296.028 129.137 296.537 128.628 296.537 127.992C296.537 127.355 296.028 126.846 295.391 126.846ZM295.136 115.646C295.136 115.009 294.627 114.5 293.991 114.5C293.355 114.5 292.845 115.009 292.845 115.646C292.845 116.282 293.355 116.791 293.991 116.791C294.627 116.791 295.136 116.282 295.136 115.646ZM282.281 107.245C282.281 107.882 281.772 108.391 281.136 108.391C280.499 108.391 279.99 107.882 279.99 107.245C279.99 106.609 280.499 106.1 281.136 106.1C281.772 106.1 282.281 106.609 282.281 107.245ZM281.39 135.247C280.754 135.247 280.245 135.756 280.245 136.392C280.245 137.029 280.754 137.538 281.39 137.538C282.027 137.538 282.536 137.029 282.536 136.392C282.536 135.756 282.027 135.247 281.39 135.247ZM299.718 106.481C299.718 105.845 300.228 105.336 300.864 105.336C301.5 105.336 302.01 105.845 302.01 106.481C302.01 107.118 301.5 107.627 300.864 107.627C300.228 107.627 299.718 107.118 299.718 106.481ZM290.682 136.265C290.045 136.265 289.536 136.774 289.536 137.411C289.536 138.047 290.045 138.556 290.682 138.556C291.318 138.556 291.827 138.047 291.827 137.411C291.7 136.774 291.191 136.265 290.682 136.265ZM289.663 106.609C290.3 106.609 290.809 107.118 290.809 107.754C290.809 108.391 290.3 108.9 289.663 108.9C289.027 108.9 288.518 108.391 288.518 107.754C288.518 107.118 289.027 106.609 289.663 106.609ZM282.027 121.628C281.39 121.628 280.881 122.137 280.881 122.773C280.881 123.41 281.39 123.919 282.027 123.919C282.663 123.919 283.172 123.41 283.172 122.773C283.172 122.137 282.663 121.628 282.027 121.628ZM307.355 137.283C307.355 136.647 307.865 136.138 308.501 136.138C309.137 136.138 309.646 136.647 309.646 137.283C309.646 137.92 309.137 138.429 308.501 138.429C307.865 138.429 307.355 137.92 307.355 137.283ZM308.755 120.737C308.119 120.737 307.61 121.246 307.61 121.882C307.61 122.519 308.119 123.028 308.755 123.028C309.392 123.028 309.901 122.519 309.901 121.882C309.901 121.246 309.392 120.737 308.755 120.737ZM302.01 143.393C302.01 142.756 302.519 142.247 303.155 142.247C303.792 142.247 304.301 142.756 304.301 143.393C304.301 144.029 303.792 144.538 303.155 144.538C302.519 144.538 302.01 144.029 302.01 143.393ZM298.7 134.356C298.064 134.356 297.555 134.865 297.555 135.501C297.555 136.138 298.064 136.647 298.7 136.647C299.337 136.647 299.846 136.138 299.846 135.501C299.846 134.865 299.337 134.356 298.7 134.356ZM326.448 117.937C326.448 117.3 326.957 116.791 327.593 116.791C328.229 116.791 328.739 117.3 328.611 117.809V118.064H326.448V117.937ZM309.646 106.736C309.01 106.736 308.501 107.245 308.501 107.882C308.501 108.518 309.01 109.027 309.646 109.027C310.283 109.027 310.792 108.518 310.792 107.882C310.792 107.245 310.283 106.736 309.646 106.736ZM298.828 120.355C298.191 120.355 297.682 120.864 297.682 121.501C297.682 122.137 298.191 122.646 298.828 122.646C299.464 122.646 299.973 122.137 299.973 121.501C299.973 120.864 299.464 120.355 298.828 120.355ZM304.046 113.1C304.046 112.464 304.555 111.955 305.192 111.955C305.828 111.955 306.337 112.464 306.337 113.1C306.337 113.737 305.828 114.246 305.192 114.246C304.555 114.246 304.046 113.737 304.046 113.1ZM304.682 128.501C304.046 128.501 303.537 129.01 303.537 129.646C303.537 130.283 304.046 130.792 304.682 130.792C305.319 130.792 305.828 130.283 305.828 129.646C305.828 129.01 305.192 128.501 304.682 128.501ZM285.972 99.9902C285.972 100.627 285.463 101.136 284.827 101.136C284.19 101.136 283.681 100.627 283.681 99.9902C283.681 99.3538 284.19 98.8447 284.827 98.8447C285.463 98.8447 285.972 99.3538 285.972 99.9902ZM312.574 115.646C313.21 115.646 313.719 115.137 313.719 114.5C313.719 113.864 313.21 113.355 312.574 113.355C311.937 113.355 311.428 113.864 311.428 114.5C311.428 115.137 311.937 115.646 312.574 115.646ZM312.319 128.374C312.319 127.737 312.829 127.228 313.465 127.228C314.101 127.228 314.61 127.737 314.61 128.374C314.61 129.01 314.101 129.519 313.465 129.519C312.829 129.519 312.319 129.01 312.319 128.374ZM316.392 135.119C316.392 135.629 316.647 136.01 317.156 136.138V134.101C316.647 134.356 316.392 134.738 316.392 135.119ZM284.318 129.265C284.954 129.265 285.463 129.774 285.463 130.41C285.463 131.047 284.954 131.556 284.318 131.556C283.681 131.556 283.172 131.047 283.172 130.41C283.172 129.774 283.681 129.265 284.318 129.265ZM294.882 142.374C294.246 142.374 293.736 142.883 293.736 143.52C293.736 144.029 294.118 144.538 294.627 144.665H295.009C295.518 144.538 295.9 144.156 295.9 143.52C296.028 142.883 295.518 142.374 294.882 142.374ZM317.029 107.882C317.029 107.245 317.538 106.736 318.174 106.736C318.811 106.736 319.32 107.245 319.32 107.882C319.32 108.518 318.811 109.027 318.174 109.027C317.538 109.027 317.029 108.518 317.029 107.882ZM323.265 112.591C322.629 112.591 322.12 113.1 322.12 113.736C322.12 114.373 322.629 114.882 323.265 114.882C323.902 114.882 324.411 114.373 324.411 113.736C324.411 113.1 323.902 112.591 323.265 112.591ZM324.102 107.09C323.952 107.177 323.834 107.245 323.647 107.245C323.138 107.245 322.629 106.736 322.502 106.1C322.502 105.59 322.884 105.209 323.265 105.081L324.284 106.991C324.215 107.025 324.156 107.059 324.102 107.09ZM312.574 99.9902C312.574 99.3538 313.083 98.8447 313.719 98.8447C314.229 98.8447 314.738 99.3538 314.865 99.9902C314.865 100.627 314.356 101.136 313.719 101.136C313.083 101.136 312.574 100.627 312.574 99.9902ZM312.574 142.756C311.937 142.756 311.428 143.266 311.428 143.902C311.428 144.156 311.556 144.411 311.683 144.666L311.683 144.666H313.338C313.465 144.411 313.592 144.157 313.592 143.902C313.719 143.266 313.21 142.756 312.574 142.756ZM272.608 138.174L273.244 136.011C273.753 136.011 274.135 136.52 274.135 137.156C274.135 137.792 273.626 138.302 272.99 138.302C272.926 138.302 272.863 138.27 272.799 138.238C272.735 138.206 272.672 138.174 272.608 138.174ZM285.972 142.12C285.336 142.12 284.827 142.629 284.827 143.265C284.827 143.902 285.336 144.411 285.972 144.411C286.609 144.411 287.118 143.902 287.118 143.265C287.118 142.629 286.609 142.12 285.972 142.12ZM275.79 100.372C276.426 100.372 276.935 100.881 276.935 101.518C276.935 102.154 276.426 102.663 275.79 102.663C275.153 102.663 274.644 102.154 274.644 101.518C274.644 100.881 275.153 100.372 275.79 100.372ZM284.191 116.027C284.191 116.664 284.7 117.173 285.336 117.173C285.972 117.173 286.482 116.664 286.482 116.027C286.482 115.391 285.972 114.882 285.336 114.882C284.7 114.882 284.191 115.391 284.191 116.027ZM278.59 140.72C277.954 140.72 277.445 141.229 277.445 141.865C277.445 142.502 277.954 143.011 278.59 143.011C279.227 143.011 279.736 142.502 279.736 141.865C279.608 141.229 279.227 140.72 278.59 140.72ZM271.844 106.227C272.481 106.227 272.99 106.736 272.99 107.372C272.99 108.009 272.481 108.645 271.844 108.518C271.208 108.518 270.699 108.009 270.699 107.372C270.699 106.736 271.208 106.227 271.844 106.227ZM278.463 129.137C278.463 128.501 277.954 127.992 277.317 127.992C276.681 127.992 276.172 128.501 276.172 129.137C276.172 129.774 276.681 130.283 277.317 130.283C277.954 130.283 278.463 129.646 278.463 129.137Z" fill="#FFDB4B"/>
<path id="Path_36" d="M316.901 117.937L343.757 162.739L352.285 163.248L330.266 118.191L316.901 117.937Z" fill="#DD933C"/>
<path id="Path_37" d="M276.808 147.466L270.826 144.665H277.827L276.808 147.466Z" fill="#002031"/>
<path id="Path_38" d="M277.445 144.665L239.388 241.78H257.462L299.592 144.665H277.445Z" fill="#F17277"/>
<path id="Path_39" d="M317.156 144.665C317.411 154.975 316.392 160.957 307.865 160.957H271.844L277.445 144.665H317.156V144.665Z" fill="#F17277"/>
<path id="Path_40" d="M292.718 155.993L281.9 191.377C280.881 195.068 281.136 199.014 282.663 202.578L299.719 242.035H319.065L301.628 196.977L314.356 155.993H292.718Z" fill="#F17277"/>
<path id="Path_41" d="M286.227 175.594H286.1C285.845 175.467 285.718 175.213 285.845 174.958L292.082 156.502H286.864C286.609 156.502 286.354 156.248 286.354 155.993C286.354 155.739 286.609 155.484 286.864 155.484H292.718C292.846 155.484 292.973 155.611 293.1 155.739C293.228 155.866 293.228 155.993 293.228 156.121L286.736 175.213C286.609 175.467 286.482 175.594 286.227 175.594Z" fill="#002031"/>
<path id="Path_42" d="M294.119 102.79C298.573 103.172 305.192 99.8628 308.247 96.1717C307.737 96.1717 288.773 96.0444 288.773 96.0444C288.773 96.0444 288.009 102.281 294.119 102.79Z" fill="#DD933C"/>
<path id="Path_43" d="M306.337 80.0071L302.901 96.2989L291.318 96.6808L297.428 82.2981L306.337 80.0071Z" fill="#DD933C"/>
<path id="Path_44" d="M294.373 89.2985L295.773 86.1165L300.482 85.6074L294.373 89.2985Z" fill="#D2793C"/>
<path id="Path_45" d="M288.391 67.4064C287.372 68.9338 288.391 72.3703 290.554 71.6067C291.827 70.4611 292.973 68.6792 293.1 66.8973C293.1 64.479 289.027 65.6245 288.391 67.4064Z" fill="#002031"/>
<path id="Path_46" d="M308.247 74.9159C307.992 80.6435 300.864 85.6074 300.864 85.6074C300.864 85.6074 294.755 88.4076 289.791 84.971C284.827 81.5345 289.791 69.8247 291.191 67.2791C292.337 65.3699 295.773 64.6062 298.319 64.6062C304.046 64.6062 308.501 69.1883 308.247 74.9159Z" fill="#DD933C"/>
<path id="Path_47" d="M309.901 68.4246C310.92 61.6787 301.119 61.806 301.119 61.806C301.119 61.806 300.483 59.6422 299.464 59.0058C297.682 57.9876 297.046 59.8968 297.301 61.1696C296.41 59.6422 295.901 57.3512 293.737 57.3512C292.082 57.733 291.828 60.5332 292.846 61.4242C285.973 55.3147 283.3 67.6609 295.646 68.9337C299.083 69.3155 302.646 69.1882 302.901 68.9337C302.519 72.4975 304.301 76.0614 307.865 77.2069C307.992 77.3342 309.52 72.3703 309.901 68.4246Z" fill="#002031"/>
<path id="Path_48" d="M294.119 81.4072C293.737 81.4072 293.228 81.4072 292.718 81.2799C292.591 81.2799 292.464 81.0254 292.464 80.8981C292.464 80.7708 292.718 80.6435 292.846 80.6435C294.628 81.0254 295.9 80.6435 296.41 79.498C296.537 79.3707 296.664 79.2434 296.791 79.3707C296.919 79.498 297.046 79.6253 296.919 79.7526C296.537 80.8981 295.519 81.4072 294.119 81.4072Z" fill="#002031"/>
<path id="Shape_5" fill-rule="evenodd" clip-rule="evenodd" d="M287.246 74.2795C287.246 76.0614 288.646 77.5888 290.428 77.5888C291.191 77.5888 292.082 77.2069 292.591 76.6978C293.228 76.0614 293.61 75.1705 293.61 74.2795C293.61 72.4976 292.21 70.9702 290.428 70.9702C289.664 70.9702 288.9 71.2248 288.264 71.8612C287.627 72.4976 287.246 73.3885 287.246 74.2795ZM288.773 72.4976C289.155 72.1158 289.791 71.8612 290.3 71.8612C291.573 71.8612 292.591 73.0067 292.591 74.2795C292.591 75.0432 292.337 75.5523 291.955 76.0614C291.573 76.4433 290.937 76.6978 290.428 76.6978C289.155 76.6978 288.137 75.5523 288.137 74.2795C288.137 73.5158 288.391 73.0067 288.773 72.4976Z" fill="white"/>
<path id="Shape_6" fill-rule="evenodd" clip-rule="evenodd" d="M293.991 74.9159C293.991 76.6978 295.391 78.2251 297.173 78.2251C297.937 78.2251 298.828 77.8433 299.337 77.3342C299.846 76.6978 300.228 75.8068 300.228 74.9159C300.228 73.1339 298.828 71.6066 297.046 71.6066C296.282 71.6066 295.519 71.8611 294.882 72.4975C294.373 73.1339 293.991 74.0249 293.991 74.9159ZM295.519 73.1339C295.9 72.7521 296.41 72.4975 297.046 72.4975C298.319 72.4975 299.337 73.6431 299.337 74.7886C299.337 75.425 299.082 75.9341 298.701 76.4432C298.319 76.8251 297.81 77.0796 297.173 77.0796C295.9 77.0796 294.882 76.0614 294.882 74.7886C294.882 74.1522 295.137 73.6431 295.519 73.1339Z" fill="white"/>
<path id="Path_49" d="M293.355 78.8615C293.228 78.8615 292.337 78.6069 291.955 77.9705C291.828 77.5887 292.082 76.825 292.591 75.6795C292.846 75.2977 292.973 74.7885 293.1 74.534C293.1 74.4067 293.355 74.2794 293.482 74.2794C293.609 74.2794 293.737 74.534 293.737 74.6613C293.609 74.9158 293.482 75.4249 293.228 75.9341C292.973 76.4432 292.464 77.4614 292.591 77.5887C292.718 77.8433 293.228 78.0978 293.482 78.0978C293.609 78.0978 293.737 78.3524 293.737 78.4797C293.609 78.7342 293.482 78.8615 293.355 78.8615Z" fill="#002031"/>
<path id="Path_50" d="M294.373 74.534L292.973 74.4068C292.718 74.4068 292.464 74.1522 292.591 73.8976C292.591 73.6431 292.846 73.3885 293.1 73.5158L294.373 73.6431C294.627 73.6431 294.882 73.8976 294.755 74.1522C294.882 74.2795 294.627 74.534 294.373 74.534Z" fill="white"/>
<path id="Path_51" d="M304.81 75.934L299.719 75.2976C299.464 75.2976 299.337 75.043 299.337 74.7885C299.337 74.5339 299.591 74.4066 299.846 74.4066L304.81 75.043C305.065 75.043 305.192 75.2976 305.192 75.5521C305.319 75.6794 305.065 75.934 304.81 75.934Z" fill="white"/>
<circle id="Oval_2" cx="305.192" cy="77.3341" r="3.05472" fill="#DD933C"/>
<path id="Path_52" d="M242.188 74.9159L246.389 67.5336C246.643 67.1518 246.516 66.5154 246.261 66.2608C246.007 66.0063 245.498 65.879 245.243 66.1336L241.679 68.6792L241.806 62.3151C241.806 61.6787 241.297 61.0423 240.661 61.0423C240.152 61.0423 239.77 61.4242 239.643 62.0606L238.624 67.9155L238.37 61.6787C238.37 61.0423 237.861 60.4059 237.224 60.5332C236.588 60.5332 236.079 61.0423 236.079 61.806V67.9155L234.806 62.9516C234.551 62.0606 233.661 61.6787 232.897 62.3151C232.515 62.5697 232.388 63.0788 232.515 63.588L233.151 69.4428L231.242 66.77C230.479 66.1336 229.588 66.2608 229.333 67.0245C229.206 67.2791 229.333 67.5336 229.46 67.7882L234.424 76.8251L242.188 74.9159Z" fill="#DD933C"/>
<path id="Path_53" d="M241.297 69.5701C241.297 69.5701 241.17 69.5701 241.297 69.5701C241.17 69.5701 237.351 68.2973 235.315 69.5701C235.188 69.6974 234.933 69.5701 234.933 69.4428C234.806 69.3156 234.933 69.061 235.06 69.061C237.351 67.6609 241.297 68.9337 241.424 69.061C241.552 69.061 241.679 69.3156 241.679 69.4428C241.552 69.4428 241.424 69.5701 241.297 69.5701Z" fill="#002031"/>
<path id="Path_54" d="M351.776 162.23L356.613 168.339C356.995 168.721 357.122 169.23 356.868 169.612C356.613 169.994 356.231 170.121 355.849 169.994L353.049 168.339L355.086 174.322C355.34 174.958 354.958 175.722 354.449 175.849C353.94 175.976 353.431 175.722 353.176 175.213L350.504 169.867L352.031 175.849C352.158 176.485 351.904 177.122 351.267 177.376C350.631 177.504 349.994 177.122 349.867 176.485L348.085 170.63L348.212 175.722C348.212 176.613 347.449 177.249 346.685 176.867C346.303 176.74 345.921 176.231 345.921 175.722L344.776 169.994L342.994 173.303C342.358 174.194 341.594 174.322 341.085 173.558C340.958 173.303 340.83 173.049 340.958 172.794L343.885 162.485L351.776 162.23Z" fill="#DD933C"/>
<path id="Path_55" d="M316.902 118.446C316.775 118.446 316.52 118.318 316.52 118.191L313.72 112.973C313.593 112.718 313.72 112.464 313.974 112.336C314.229 112.209 314.484 112.336 314.611 112.591L317.411 117.809C317.538 118.064 317.411 118.318 317.156 118.446C317.156 118.446 317.029 118.446 316.902 118.446Z" fill="#002031"/>
</g>
<path id="Path_56" d="M221.569 1.22071L222.715 4.78455C222.842 5.03911 222.969 5.16639 223.224 5.29367L226.788 6.43919C227.424 6.69375 227.424 7.58471 226.788 7.83927L223.351 8.9848C223.097 9.11208 222.969 9.23936 222.842 9.49392L221.696 13.8214C221.442 14.5851 220.424 14.5851 220.296 13.8214L219.151 9.49392C219.151 9.23936 218.896 9.11208 218.642 8.9848L215.46 7.83927C214.823 7.58471 214.823 6.69375 215.46 6.43919L218.642 5.29367C218.896 5.16639 219.024 5.03911 219.151 4.78455L220.296 1.22071C220.424 0.584308 221.315 0.584308 221.569 1.22071Z" fill="#A7FAC1"/>
<path id="Path_57" d="M23.5212 39.2775L24.2849 41.8231C24.2849 41.9504 24.4122 42.0776 24.6667 42.2049L27.2123 42.9686C27.7215 43.0959 27.7215 43.8596 27.2123 43.9868L24.6667 44.7505C24.5395 44.7505 24.2849 45.0051 24.2849 45.1324L23.5212 48.3144C23.3939 48.8235 22.6303 48.8235 22.503 48.3144L21.7393 45.1324C21.7393 45.0051 21.612 44.7505 21.3575 44.7505L19.0664 43.9868C18.5573 43.8596 18.5573 43.0959 19.0664 42.9686L21.4847 42.2049C21.612 42.2049 21.7393 42.0776 21.8666 41.8231L22.6303 39.2775C22.6303 38.7683 23.3939 38.7683 23.5212 39.2775Z" fill="#A7FAC1"/>
<path id="Path_58" d="M265.99 37.6228L266.753 40.1685C266.753 40.2957 266.881 40.423 267.135 40.5503L269.681 41.314C270.19 41.4413 270.19 42.2049 269.681 42.3322L267.262 43.0959C267.135 43.0959 267.008 43.3505 266.881 43.4777L266.117 46.5325C265.99 47.0416 265.226 47.0416 265.099 46.5325L264.335 43.4777C264.335 43.3505 264.208 43.2232 263.953 43.0959L261.662 42.3322C261.153 42.2049 261.153 41.4413 261.662 41.314L263.953 40.423C264.08 40.423 264.208 40.2957 264.335 40.0412L265.099 37.4956C265.226 37.1137 265.862 37.1137 265.99 37.6228Z" fill="white"/>
<path id="Path_59" d="M278.208 20.6946L278.972 22.9856C278.972 23.1129 279.099 23.2402 279.227 23.2402L281.518 24.0039C282.027 24.1311 282.027 24.7675 281.518 24.8948L279.227 25.6585C279.099 25.6585 278.972 25.7858 278.845 26.0403L278.081 28.8405C277.954 29.3496 277.318 29.3496 277.19 28.8405L276.427 26.0403C276.427 25.9131 276.299 25.7858 276.172 25.6585L274.136 24.8948C273.754 24.7675 273.754 24.1311 274.136 24.0039L276.172 23.2402C276.299 23.2402 276.427 23.1129 276.427 22.9856L277.19 20.6946C277.445 20.1855 278.081 20.1855 278.208 20.6946Z" fill="#3DEC94"/>
<path id="Path_60" d="M42.9948 24.8948L43.5039 26.5494C43.5039 26.6767 43.6312 26.804 43.7585 26.804L45.4132 27.3131C45.795 27.4404 45.795 27.8222 45.4132 27.9495L43.7585 28.4586C43.6312 28.4586 43.5039 28.5859 43.5039 28.7132L42.9948 30.7497C42.8675 31.1315 42.3584 31.1315 42.3584 30.7497L41.8493 28.7132C41.8493 28.5859 41.722 28.4586 41.5947 28.4586L40.0674 27.9495C39.8128 27.8222 39.8128 27.4404 40.0674 27.3131L41.5947 26.804C41.722 26.804 41.722 26.6767 41.8493 26.5494L42.3584 24.8948C42.3584 24.6402 42.8675 24.6402 42.9948 24.8948Z" fill="#A7FAC1"/>
<g id="Symbols_1_">
<g id="Logo_CoronaCheck_1_">
<g id="Group-5_1_">
<g id="Group-2_1_">
<g id="Rectangle_10_">
<path id="Shape_7" fill-rule="evenodd" clip-rule="evenodd" d="M135.337 154.784H155.702C157.993 154.784 159.775 152.875 159.647 150.584L158.247 130.219C158.12 127.928 155.956 126.019 153.665 126.019H133.3C131.009 126.019 129.227 127.928 129.355 130.219L130.755 150.584C130.882 152.875 133.046 154.784 135.337 154.784ZM149.083 144.602H140.428L139.792 135.947H148.447L149.083 144.602Z" fill="#1BC1D7"/>
</g>
<g id="Rectangle_9_">
<path id="Shape_8" fill-rule="evenodd" clip-rule="evenodd" d="M132.664 118H153.029C155.447 118 157.229 116.091 156.974 113.8L155.574 93.4351C155.447 91.1441 153.283 89.2349 150.992 89.2349H130.627C128.336 89.2349 126.554 91.1441 126.682 93.4351L128.082 113.8C128.209 116.091 130.373 118 132.664 118ZM146.41 107.818H137.755L137.119 99.1627H145.774L146.41 107.818Z" fill="#1BC1D7"/>
</g>
<g id="Rectangle_8_">
<path id="Shape_9" fill-rule="evenodd" clip-rule="evenodd" d="M169.448 118H189.813C192.231 118 194.013 116.091 193.759 113.8L192.358 93.4352C192.231 91.1442 190.067 89.235 187.776 89.235H167.412C165.121 89.235 163.339 91.1442 163.466 93.4352L164.866 113.8C164.993 116.091 167.157 118 169.448 118ZM183.194 107.818H174.539L173.903 99.1627H182.558L183.194 107.818Z" fill="#1BC1D7"/>
</g>
</g>
</g>
</g>
<g id="Group_4">
<path id="Path_61" fill-rule="evenodd" clip-rule="evenodd" d="M176.003 135.501H167.73C166.966 135.501 166.329 134.865 166.329 134.101L165.82 127.228C165.82 126.464 166.329 125.828 167.093 125.828H173.966C174.73 125.828 175.366 126.464 175.366 127.228L176.003 135.501Z" fill="#1BC1D7"/>
<path id="Path_62" fill-rule="evenodd" clip-rule="evenodd" d="M186.312 145.047H176.766L176.002 135.501H185.676L186.312 145.047Z" fill="#1BC1D7"/>
<path id="Path_63" fill-rule="evenodd" clip-rule="evenodd" d="M195.349 154.721H188.476C187.712 154.721 187.076 154.084 187.076 153.321L186.439 145.047H194.713C195.476 145.047 196.113 145.684 196.113 146.447L196.622 153.321C196.622 154.084 195.985 154.721 195.349 154.721Z" fill="#1BC1D7"/>
<path id="Path_64" fill-rule="evenodd" clip-rule="evenodd" d="M193.949 135.501H185.676L185.04 127.228C185.04 126.464 185.549 125.828 186.312 125.828H193.185C193.949 125.828 194.586 126.464 194.586 127.228L195.095 134.101C195.222 134.865 194.713 135.501 193.949 135.501Z" fill="#1BC1D7"/>
<path id="Path_65" fill-rule="evenodd" clip-rule="evenodd" d="M176.003 154.721H169.129C168.366 154.721 167.729 154.084 167.729 153.321L167.22 146.447C167.22 145.684 167.729 145.047 168.493 145.047H176.766L177.403 153.321C177.403 154.084 176.766 154.721 176.003 154.721Z" fill="#1BC1D7"/>
</g>
</g>
</g>
</svg>
