<svg xmlns="http://www.w3.org/2000/svg" fill="none" viewBox="0 0 248 186">
  <path fill="#27DC71" d="M232.9 182.5c0 3-25.2 3.2-96 3.2C68.5 185.7 7 184 7 182.5c0-1.6 61.5-3.3 129.7-3.3 71.5 0 96 .5 96 3.3z"/>
  <path fill="#F4C9DB" d="M19.5 44.3l3.6-2.7c.2-.1.6-.1.8 0 .4.2.6.7.3 1.1l-2 2.3-2.7-.7z"/>
  <path fill="#F4C9DB" d="M17.4 45.8l3.4-2.5 8.4 1.8.2 1.6h-6.2l-4 2.8-1.8-3.7zM36.2 161.1L35 167l1.5 4.4 3.6-1.5 3.4-5.8-7.4-2.9z"/>
  <path fill="#F4C9DB" d="M9 71.4l-7.5-7.2c-2-1.9-2-4.6 0-6.2l15.8-12.2 2.6 3.9L9 60.2l5.8 5-5.8 6.2zM40.7 64l5.2-7.2-11.5-15 6.2-.2L53 55.2a4.1 4.1 0 01.2 5.2l-12 16.3-.5-12.8z"/>
  <path fill="#002031" d="M39.6 91l-1.4 1.3.4-1.6 1 .2zM21.2 91.8l-4.5-.3s1.4-2.5 4.2-3l.3 3.3z"/>
  <path fill="#fff" d="M23.6 46.4c-.5 0-2.1.8-2.7 1-1.9 1-3.4 2.6-4.3 4.6-1 2.2-.2 4.6-1.1 6.9-.3.7-.8 1.3-1 2-.5 1.5 0 3.6.9 4.9.1.3 2 2.6 2.5 2.3 0 0 6.1-3.8 15.2-3.2 3.1.3 4.6-.8 5.2-1.6.5-.6.5-1.4.2-2.1-1.1-2.5-5.4-12-6.1-12.4-2.7-.6-8.7-2.4-8.8-2.4z"/>
  <path fill="#F4C9DB" d="M18.2 68.5l3.5 27 15.6.3 3.6-14c.6-2.4.4-5-.8-7.3l-3-5.9H18.2z"/>
  <path fill="#EDA7C5" d="M20.9 88.6l.2 1.8 17.4.4-14-4.8-3.6 2.6z"/>
  <path fill="#237978" d="M54.6 136.8L37.3 95.5H21.6l-1 .7c-4.9 3.3-7.6 9-7 14.9l4.2 51.1c0 1.4 1.2 2.5 2.6 2.5h6.8c1.5 0 2.7-1.3 2.7-2.7l-.4-42.8L41 139.8l-6.3 19.3c-.4 1.2.2 2.4 1.3 2.7l7.7 2.8c1.1.4 2.4-.2 2.8-1.3l8.2-22.4c.5-1.3.5-2.8 0-4z"/>
  <path fill="#002031" d="M29.9 120.9c-.2 0-.4-.2-.4-.4V112l.1-.3.3-.1h3.3c.2 0 .4.2.4.4 0 .1-.2.3-.4.3h-3v8.2c0 .2-.1.4-.3.4z"/>
  <path fill="#F4C9DB" d="M21.4 55.5l1.5 9.3H30l-3-6.5-5.7-2.8z"/>
  <path fill="#EDA7C5" d="M29 62.6l-.7-1.7-3.7-.5 4.4 2.2z"/>
  <path fill="#F4C9DB" d="M19.3 53.8c.2 4.1 4.6 6.5 4.6 6.5s5.6 1.4 8.3-.4c3.4-2.3.2-9.7-.8-11.5-.8-1.5-3.3-1.9-5-1.9a7 7 0 00-7 7.3z"/>
  <path fill="#002031" d="M29.3 58.5c-.6 0-1.1-.2-1.5-.7v-.3h.3c.6.7 1.6.8 2.7 0l.3.1v.3c-.7.5-1.2.6-1.8.6zM30 56.5H30c-.1-.2 0-.4 0-.4.2 0 .5-.2.5-.5 0-.2-.5-.7-.8-1l-.6-.8c-.1 0 0-.2 0-.2h.3l.7.8c.6.6 1 1 1 1.4-.2.5-.7.8-.8.9l-.1-.2z"/>
  <path fill="#FE6F43" d="M43.2 74V60.3l-5.7 6.8c-.8.4-1.5.3-2.3.3l-4-.1-1.1-2.5h-7.2l.3 2.7H20c-.8 0-1.6-.2-2.3-.7l-2.9-1.7-5.7 6.2 7.3 7.4.2 12.7s4.7-5.1 10-3.3A88.7 88.7 0 0039.4 91l2.1-8.4c.5-1.2.3-3-.5-5.8l2.2-2.9z"/>
  <path fill="#002031" d="M26.3 54.7l-.7-.1v-.3c0-.1.1-.2.2-.1 0 0 1 .4 1.4-.4.1-.1.2-.2.3-.1 0 0 .2.1 0 .2-.2.6-.7.8-1.2.8zM31.1 53.2c-.3 0-.5 0-.7-.2 0 0-.2-.1 0-.2 0-.1 0-.2.2-.1 0 0 1 .4 1.4-.4 0-.1.2-.2.3-.1 0 0 .1.1 0 .2-.2.6-.7.8-1.2.8z"/>
  <path fill="#fff" d="M19.7 55.9s1.4-.6 2.1.7c0 0 2-3.1.3-5.5l1.4 1.3 10-1.4s-1.3-5.7-7-5.1l-2 .2a6.9 6.9 0 00-5.4 8.8c0 .4.2.9.6 1z"/>
  <circle cx="20.9" cy="57.1" r="2" fill="#F4C9DB"/>
  <path fill="#104A4A" d="M20.1 164.5h8v1.5h-8zM35.8 161.8l7.5 2.7-.5 1.4-7.5-2.7z"/>
  <path fill="#002031" d="M37.4 95.9H21.7a.4.4 0 01-.3-.4c0-.2.2-.3.3-.3h15.7c.2 0 .3.1.3.3 0 .2-.1.4-.3.4z"/>
  <path fill="#fff" d="M40.5 169.5c-1.3.2-2.1 2.3-4.3 1-1-.8-1.3-2.1-1.1-3 0-.4-1-1-1.4-.8l-2.3 2.7c-1 1.1-1 2.8.2 3.8 1.6 1.6 4.1 3.9 5.7 5 4.4 3 9.3 4.6 10.4 3.4l1.1-1.4-.6-.2a2 2 0 00-.7-1.2l-2.4-2.4-3-5.6c-.2-.6-1-1.4-1.6-1.3z"/>
  <path fill="#FE6F43" d="M43 169.7l2.9 5.6 2.4 2.5c1 1 .8 2 .1 2.7-1 1.2-5.9-.3-10.3-3.4-1.6-1.1-4-3.4-5.7-5-1.1-1-1.2-2.7-.2-3.8l2.3-2.7c.3-.2 1.3.3 1.2.8-.2.8.3 2.3 1.3 3 2 1.5 2.9-.7 4.2-1 .7 0 1.5.9 1.8 1.3z"/>
  <path fill="#FE9C7E" d="M33.8 173.4c1.4-2.4.2-4.8-1-5.8l-.6.7c-1 1.2-1 2.8.2 3.8l1.4 1.3z"/>
  <path fill="#F4C9DB" d="M27.2 166v10.6h-6l-.8-10.6h6.8z"/>
  <path fill="#FE6F43" d="M18.5 172.7l-3 3.7-1.9 1.5c-1.6.8-1.6 2.2-1.6 2.2h16.1l-.3-4.7c0-.6-.5-1-1-1h-3.3s-.3-.8-1.4-1.8c-.4-.3-3-.8-3.6.1z"/>
  <path fill="#FE9C7E" d="M28.1 180v-2.9s-2.6.5-2.5 3h2.5z"/>
  <path fill="#fff" d="M28.4 182.3H11.9V180h16.3l.2 2.2z"/>
  <path fill="#002031" d="M15.2 176.4v-.7h2.5v.7h-2.5zM16.4 174.5l2.8-.1v.6l-2.8.1zM41.6 172.5l2.4-1 .2.5-2.3 1zM43.2 174.4l1.8-.9.3.6-1.9.8z"/>
  <path fill="#F4C9DB" d="M34.4 41.7L32 39.2a.8.8 0 010-1c.2-.2.4-.2.7-.1l1.8.9-.7-4c-.1-.3.1-.9.6-.9.3 0 .7.2.8.6l1.2 4-.3-4.3c0-.5.2-.9.7-1 .4 0 .8.3.8.8l.7 4.3.4-3.6c.1-.6.7-1 1.2-.6.3.2.5.5.5.9l-.2 3.7.6-1.4c.2-.5 1-.5 1 0 .2.2.2.3 0 .5l-1.6 6.6-6-2.9z"/>
  <path fill="#002031" d="M8.6 61.6h-.1c-.1 0-.2-.1-.1-.2l.3-.7H8l-.2-.2.2-.2h1.5l-.7 1.4h-.2zM37.7 42.7c-.1 0-.1 0 0 0-.3 0-.3-.2-.3-.3.3-.5.3-1 0-1.3-.4-.6-1.4-.6-1.5-.6-.1 0-.2-.1-.2-.3 0 0 .1-.2.3-.2 0 0 1.3.1 1.8 1 .3.4.3 1 0 1.7h-.1zM47 58h-.1l-1.2-.8V57l.1-.1 1.3-.3c.1 0 .3 0 .3.2l-.2.2-.8.2.7.5c.1 0 .2.1.1.2l-.3.1zM42.3 141.1h-.1l-1.4-.7-.2-.2c0-.1 0-.3.2-.3l1.4-.8.4.1c.1.2 0 .4 0 .4l-1 .5 1 .4c.1.1.2.3.1.5l-.4.1z"/>
  <g>
    <path fill="#134BB9" d="M151 182H78.6c-5.3 0-7.7-2.7-8.1-7.6L58.7 20.1c-.3-4.2 2-7 6.7-7h73c4.2 0 7.8 3.5 8 7.7l11.7 153.6a7 7 0 01-7 7.6z"/>
    <path fill="#1BC1D7" d="M153.8 182h-68a8.9 8.9 0 01-8.9-8.2L65.3 20.3a6.6 6.6 0 016.6-7.1H141c4.2 0 7.8 3.4 8 7.6l.5 5.7 2.2 72.2 8.3 64.4.8 11.3a7 7 0 01-7.1 7.6z"/>
    <path fill="#fff" d="M160 163.3H76L65.7 26.8h84L160 163.3z"/>
    <path fill="#fff" fill-rule="evenodd" d="M112.2 172.9c.3 3 3 5.5 6 5.5 1.4 0 2.8-.5 3.8-1.6 1-1 1.4-2.4 1.3-3.9-.3-3-3-5.5-6-5.5a5 5 0 00-5 5.5zm1.9-3.4c.8-1 2-1.5 3.3-1.5 2.6 0 5 2.2 5.2 4.9 0 1.3-.3 2.6-1.2 3.5-.8.8-2 1.4-3.3 1.4-2.6 0-5-2.2-5.2-4.9 0-1.3.3-2.6 1.2-3.4z" clip-rule="evenodd"/>
    <path fill="#fff" d="M145.5 118.5H84.4c-2 0-3.6-1.6-3.8-3.4l-4.3-59.2c-.2-2.8 2-5.2 4.8-5.2h58.4c2.5 0 4.6 2 4.7 4.6l4.5 59.8a3.1 3.1 0 01-3.2 3.4z"/>
    <path fill="#DCEEFD" d="M137.3 133.5H95c-1.3 0-2.2-1-2.3-2.3a2 2 0 012-2.2H137c1.2 0 2.2 1 2.3 2.2a2 2 0 01-2 2.3zM119.6 141.9h-24c-1.2 0-2.2-1-2.3-2.3a2 2 0 012-2.2h24c1.2 0 2.2 1 2.3 2.2a2 2 0 01-2 2.3zM137.9 141.9h-9.6c-1.2 0-2.2-1-2.3-2.3a2 2 0 012-2.2h9.6c1.2 0 2.2 1 2.3 2.2a2 2 0 01-2 2.3z"/>
    <path fill="#002031" fill-rule="evenodd" d="M61.2 46h.7c.7 0 1.3-.3 1.8-.8.4-.6.7-1.2.6-1.9l-.5-5.6c0-1.5-1.3-2.6-2.7-2.6h-.7c-.7 0-1.3.3-1.8.8-.4.5-.7 1.1-.6 1.8l.4 5.7c.1 1.4 1.4 2.6 2.8 2.6zM59 36.4c.3-.3.8-.5 1.3-.5h.7c1 0 2 .9 2 2l.5 5.6c0 .5-.1 1-.5 1.3-.3.4-.8.6-1.3.6h-.7c-1 0-2-1-2-2l-.5-5.7c0-.5.1-1 .5-1.3zM62 58.4h.8c.7 0 1.3-.3 1.7-.8.5-.6.8-1.2.7-1.9l-.5-5.7c0-1.4-1.3-2.5-2.7-2.5h-.7c-.7 0-1.4.2-1.8.8-.4.5-.7 1.1-.6 1.8l.4 5.7c.1 1.4 1.4 2.6 2.8 2.6zm-2-9.7c.3-.3.7-.5 1.3-.5h.7c1 0 2 .9 2 2l.5 5.6c0 .5-.1 1-.5 1.3-.3.4-.8.5-1.3.5H62c-1 0-2-.8-2-1.9l-.5-5.7c0-.5 0-1 .4-1.3z" clip-rule="evenodd"/>
    <path fill="#fff" fill-rule="evenodd" d="M100 22h10.5a2 2 0 001.6-.7c.5-.4.7-1 .6-1.7-.2-1.1-1.1-2-2.2-2H99.8c-.6 0-1.1.3-1.6.8a2 2 0 00-.5 1.7c.2 1.1 1 1.9 2.2 1.9zm-1.2-3.2c.3-.3.7-.5 1.1-.5h10.6c.8 0 1.5.5 1.5 1.3.1.5 0 .8-.3 1.2-.4.3-.7.5-1.2.5H100c-.8 0-1.4-.5-1.5-1.3 0-.5.1-.8.4-1.2z" clip-rule="evenodd"/>
  </g>
  <g>
    <path fill="#DD933C" d="M161.8 50.2l8 21.5c.8 2.2 3 3.6 5.3 3.6l12.4 1.1-.6-10.2H176l-8.6-16.5-5.7.5z"/>
    <path fill="#FC0" d="M229.4 81.6l-5.6-10.5a9.3 9.3 0 00-8-4.9H187l.1 10.2 7.2.8-6.2 22.8h32.2l-.2-18.6 9.3.2z"/>
    <path fill="#FFDB4B" fill-rule="evenodd" d="M189.7 66.1c0 .5-.3.8-.8.8-.4 0-.8-.2-.8-.8h1.6zm5.8.1l.1.5c0 .4-.4.8-.8.8a.8.8 0 01-.8-.8l.1-.5h1.4zm21.5.7c.4 0 .7-.1.7-.4l-1.5-.2c.1.4.4.6.8.6zm-5 1.8c0 .4-.3.8-.7.8a.8.8 0 01-.8-.8c0-.4.3-.8.8-.8.4 0 .8.4.8.8zm-7 1.2c0 .4-.4.8-.9.8a.8.8 0 01-.8-.8c0-.5.4-.8.8-.8.5 0 .8.3.8.8zM202 83c-.4 0-.7.4-.7.8 0 .5.3.8.8.8.4 0 .8-.3.8-.8 0-.4-.4-.8-.8-.8zm3.2 4.6c-.5 0-.8.4-.8.8 0 .5.3.8.8.8.4 0 .8-.3.8-.8 0-.4-.4-.8-.8-.8zm-.2-7.8c0-.4-.3-.7-.8-.7-.4 0-.8.3-.8.7 0 .5.4.8.8.8.5 0 .8-.3.8-.8zm-9-5.8c0 .5-.3.8-.7.8a.8.8 0 01-.8-.8c0-.4.3-.8.8-.8.4 0 .8.4.8.8zm-.5 19.5c-.5 0-.8.3-.8.8 0 .4.3.8.8.8.4 0 .8-.4.8-.8 0-.5-.4-.8-.8-.8zm12.7-20c0-.5.3-.8.8-.8.4 0 .8.3.8.8 0 .4-.4.8-.8.8a.8.8 0 01-.8-.8zm-6.3 20.7c-.4 0-.8.3-.8.8 0 .4.4.8.8.8.5 0 .8-.4.8-.8 0-.5-.4-.8-.8-.8zm-.7-20.6c.4 0 .8.3.8.8 0 .4-.4.8-.8.8a.8.8 0 01-.8-.8c0-.5.4-.8.8-.8zM196 84c-.4 0-.8.4-.8.8s.4.8.8.8.8-.4.8-.8-.4-.8-.8-.8zM213.5 95c0-.5.4-.8.8-.8s.8.3.8.8c0 .4-.4.8-.8.8a.8.8 0 01-.8-.8zm1-11.5c-.5 0-.8.3-.8.8 0 .4.3.8.8.8.4 0 .8-.4.8-.8 0-.5-.4-.8-.8-.8zM209.8 99c0-.4.3-.8.8-.8.4 0 .8.4.8.8 0 .5-.4.8-.8.8a.8.8 0 01-.8-.8zm-2.3-6.2c-.5 0-.8.3-.8.7 0 .5.3.8.8.8.4 0 .8-.3.8-.8 0-.4-.4-.7-.8-.7zm19.3-11.5c0-.4.3-.8.8-.8.4 0 .8.4.7.8v.1h-1.5zM215 73.7c-.4 0-.8.3-.8.8 0 .4.4.8.8.8s.8-.4.8-.8c0-.5-.4-.8-.8-.8zm-7.5 9.4c-.5 0-.8.4-.8.8 0 .5.3.8.8.8.4 0 .8-.3.8-.8 0-.4-.4-.8-.8-.8zm3.6-5c0-.5.4-.8.8-.8s.8.3.8.8c0 .4-.4.8-.8.8a.8.8 0 01-.8-.8zm.4 10.7c-.4 0-.8.3-.8.8 0 .4.4.8.8.8.5 0 .8-.4.8-.8 0-.5-.4-.8-.8-.8zm-13-19.8c0 .4-.3.8-.8.8a.8.8 0 01-.8-.8c0-.5.4-.8.8-.8.5 0 .8.3.8.8zm18.5 10.8c.5 0 .8-.3.8-.7 0-.5-.3-.8-.8-.8-.4 0-.8.3-.8.8 0 .4.4.7.8.7zm-.1 8.9c0-.4.3-.8.7-.8.5 0 .8.4.8.8s-.3.8-.8.8a.8.8 0 01-.7-.8zm2.8 4.7c0 .3.2.6.5.7v-1.4c-.3.2-.5.4-.5.7zm-22.3-4c.4 0 .8.3.8.7 0 .5-.4.8-.8.8a.8.8 0 01-.8-.8c0-.4.4-.8.8-.8zm7.3 9c-.4 0-.8.4-.8.8s.3.7.7.8h.2c.4 0 .6-.3.6-.8.1-.4-.2-.8-.7-.8zm15.4-24c0-.4.4-.7.8-.7.5 0 .8.3.8.8 0 .4-.3.8-.8.8a.8.8 0 01-.8-.8zm4.4 3.3c-.5 0-.8.4-.8.8 0 .5.3.8.8.8.4 0 .8-.3.8-.8 0-.4-.4-.8-.8-.8zm.5-3.8l-.3.1c-.3 0-.7-.3-.8-.8 0-.3.3-.6.6-.7l.7 1.3-.2.1zm-8-5c0-.4.4-.7.8-.7s.7.3.8.8c0 .4-.3.8-.8.8a.8.8 0 01-.8-.8zm0 29.8c-.4 0-.8.3-.8.8l.2.5h1.2l.1-.5c.1-.5-.2-.8-.7-.8zm-27.7-3.2l.4-1.5c.4 0 .6.4.6.8s-.3.8-.8.8h-.1-.1zm9.2 2.7c-.4 0-.8.4-.8.8 0 .5.4.8.8.8.5 0 .8-.3.8-.8 0-.4-.3-.8-.8-.8zm-7-29c.4 0 .8.4.8.8 0 .5-.4.8-.8.8a.8.8 0 01-.8-.8c0-.4.3-.8.8-.8zm5.8 11c0 .4.4.7.8.7s.8-.3.8-.8c0-.4-.4-.8-.8-.8s-.8.4-.8.8zm-3.9 17c-.4 0-.8.4-.8.9 0 .4.4.8.8.8.5 0 .8-.4.8-.8 0-.5-.3-.8-.8-.8zm-4.7-23.9c.5 0 .8.4.8.8s-.3.9-.8.8a.8.8 0 01-.8-.8c0-.4.4-.8.8-.8zm4.6 16c0-.5-.3-.9-.8-.9-.4 0-.8.4-.8.8 0 .5.4.8.8.8.5 0 .8-.4.8-.8z" clip-rule="evenodd"/>
    <path fill="#DD933C" d="M220.1 81.4l18.7 31.2 6 .3-15.4-31.3-9.3-.2z"/>
    <path fill="#002031" d="M192.3 102l-4.2-2h4.9l-.7 2z"/>
    <path fill="#F17277" d="M192.7 100l-26.4 67.5h12.5l29.3-67.5h-15.4z"/>
    <path fill="#F17277" d="M220.3 100c.2 7.2-.5 11.3-6.4 11.3h-25l3.8-11.3h27.6z"/>
    <path fill="#F17277" d="M203.3 107.9l-7.5 24.6c-.7 2.5-.5 5.3.5 7.8l11.9 27.4h13.4l-12-31.3 8.8-28.5h-15z"/>
    <path fill="#DD933C" d="M177 167.5l-3.1 8-9-.3 3.5-7.7h8.6zM214.6 175.6l-3.4-8h8.8l3.3 7.6-8.7.4z"/>
    <path fill="#002031" d="M220.2 164.7h-13.4a.4.4 0 01-.4-.4c0-.2.2-.3.4-.3h13.4c.2 0 .4.1.4.3 0 .2-.2.4-.4.4zM180.5 164h-12.7c-.2 0-.4-.2-.4-.4s.2-.3.4-.3h12.7c.2 0 .4.1.4.3 0 .2-.2.4-.4.4zM198.8 121.5c-.2 0-.3-.3-.2-.4l4.3-12.9h-3.6a.4.4 0 01-.4-.3c0-.2.2-.4.4-.4h4l.3.2v.3l-4.4 13.2c-.1.2-.2.3-.4.3z"/>
    <path fill="#DD933C" d="M204.3 71c3.1.2 7.7-2.1 9.8-4.7h-13.5s-.5 4.3 3.7 4.6z"/>
    <path fill="#DD933C" d="M212.8 55l-2.4 11.4-8 .3 4.2-10 6.2-1.6z"/>
    <path fill="#D2793C" d="M204.5 61.5l1-2.2 3.2-.3-4.2 2.5z"/>
    <path fill="#002031" d="M200.3 46.3c-.7 1 0 3.5 1.5 3 1-.9 1.7-2 1.8-3.3 0-1.7-2.8-1-3.3.3z"/>
    <path fill="#DD933C" d="M214.1 51.5c-.2 4-5.1 7.5-5.1 7.5s-4.3 2-7.7-.5c-3.5-2.4 0-10.5 1-12.3.8-1.3 3.2-1.8 5-1.8 3.9 0 7 3.2 6.8 7.1z"/>
    <path fill="#002031" d="M215.3 47c.7-4.7-6.1-4.6-6.1-4.6s-.5-1.5-1.2-2c-1.2-.6-1.7.7-1.5 1.6-.6-1-1-2.7-2.5-2.7-1.1.3-1.3 2.3-.6 2.9-4.8-4.3-6.6 4.3 2 5.2 2.4.3 4.8.2 5 0-.3 2.5 1 5 3.5 5.7 0 .1 1.1-3.3 1.4-6zM204.3 56h-1l-.1-.3.2-.2c1.3.3 2.1 0 2.5-.8h.3s.1.1 0 .2c-.2.8-1 1.2-1.9 1.2z"/>
    <path fill="#fff" fill-rule="evenodd" d="M199.5 51.1c0 1.2 1 2.3 2.2 2.3.6 0 1.2-.3 1.5-.6.5-.5.7-1 .7-1.7 0-1.2-1-2.3-2.2-2.3a2 2 0 00-1.5.6c-.4.5-.7 1-.7 1.7zm1-1.2c.4-.3.8-.5 1.1-.5 1 0 1.6.8 1.6 1.7 0 .5-.1.9-.4 1.2-.3.3-.7.5-1 .5-1 0-1.7-.8-1.7-1.7 0-.5.2-.9.5-1.2zM204.2 51.5c0 1.3 1 2.3 2.2 2.3.6 0 1.2-.2 1.5-.6.4-.4.6-1 .6-1.7 0-1.2-1-2.3-2.2-2.3a2 2 0 00-1.5.7c-.3.4-.6 1-.6 1.6zm1-1.2c.3-.3.7-.4 1.1-.4 1 0 1.6.8 1.6 1.6 0 .4-.2.8-.4 1.1-.3.3-.6.4-1 .4-1 0-1.7-.7-1.7-1.5 0-.5.2-.8.5-1.2z" clip-rule="evenodd"/>
    <path fill="#002031" d="M203.8 54.3c-.1 0-.7-.2-1-.6 0-.3 0-.8.4-1.6l.4-.8.3-.2.1.3-.3.9-.5 1.1c.1.2.5.4.7.4l.1.2c0 .2-.1.3-.2.3z"/>
    <path fill="#fff" d="M204.5 51.3l-1-.1c-.2 0-.3-.2-.3-.4 0-.1.2-.3.4-.2h.9c.2 0 .3.2.2.4.1.1 0 .3-.2.3zM211.7 52.3l-3.5-.5c-.2 0-.3-.2-.3-.3 0-.2.2-.3.4-.3l3.4.4c.2 0 .3.2.3.4 0 0 0 .3-.3.3z"/>
    <circle cx="212" cy="53.2" r="2.1" fill="#DD933C"/>
    <path fill="#DD933C" d="M168.2 51.5l3-5c.1-.4 0-.8-.2-1-.1-.1-.5-.2-.7 0l-2.4 1.7v-4.4c0-.5-.3-.9-.7-.9-.4 0-.7.3-.8.7l-.7 4-.1-4.3c0-.4-.4-.8-.8-.8-.5 0-.8.4-.8 1v4.2l-1-3.5c0-.6-.7-.9-1.2-.4-.3.2-.4.5-.3.9l.4 4-1.3-1.8c-.5-.5-1.1-.4-1.3.2v.5l3.5 6.3 5.4-1.4z"/>
    <path fill="#002031" d="M167.6 47.8s-2.7-.9-4.2 0c0 .1-.2 0-.2 0v-.3c1.7-1 4.4-.1 4.5 0l.2.2-.3.1z"/>
    <path fill="#DD933C" d="M244.4 112.2l3.3 4.3c.3.2.4.6.2.9-.2.2-.4.3-.7.2l-2-1.1 1.5 4.1c.1.5-.1 1-.5 1-.3.2-.7 0-.9-.4l-1.8-3.7 1 4.2c.1.4 0 .9-.5 1a.8.8 0 01-1-.6l-1.2-4v3.5c0 .6-.4 1-1 .8-.2 0-.5-.4-.5-.8l-.8-4-1.2 2.3c-.5.6-1 .7-1.4.2v-.5l2-7.2 5.5-.2z"/>
    <path fill="#002031" d="M220.1 81.8s-.2 0-.2-.2l-2-3.6c0-.2 0-.4.2-.5.2 0 .4 0 .4.2l2 3.7c0 .1 0 .3-.2.4h-.2z"/>
    <path fill="#FC0" d="M164.7 171.5l-5.7 4-3.3 1.6c-1.7 1-1.7 2.5-1.7 2.5h23l-1-7c0-.5-1.5-.6-1.7 0-.3 1-1.5 2-2.8 2-2 .2-4-1.7-5.1-2.8-.5-.5-1.1-.7-1.7-.3z"/>
    <path fill="#fff" d="M177.3 182H154v-2.4H177l.2 2.4z"/>
    <path fill="#002031" d="M159.5 175.5l.2-.6 2.4.8-.2.5zM161.1 174.3l.2-.6 2.5.7-.2.6z"/>
    <g>
      <path fill="#FC0" d="M212.4 171.5l-5 4-3 1.6c-1.5 1-1.2 2.5-1.2 2.5h23l-2.2-7c-.2-.5-1.7-.6-1.8 0-.2 1-1.2 2-2.5 2-2 .2-4.4-1.7-5.7-2.8-.3-.5-1-.7-1.6-.3z"/>
      <path fill="#fff" d="M227 182h-23.5l-.4-2.4h23.2l.6 2.4z"/>
      <path fill="#002031" d="M208 175.5v-.6l2.7.8-.2.5zM212 175l-2.7-.8.2-.6 2.6.7-.2.7z"/>
    </g>
  </g>
  <path fill="#A7FAC1" d="M153.9.3l.8 2.5c0 .2.2.3.3.4l2.5.8c.5.1.5.8 0 1l-2.4.7c-.2.1-.2.2-.3.4l-.8 3c-.2.5-1 .5-1 0l-.8-3c0-.2-.2-.3-.3-.4l-2.3-.8a.5.5 0 010-1l2.3-.7.3-.4.8-2.5c0-.4.7-.4.9 0zM16.3 26.8l.5 1.7c0 .1 0 .2.2.3l1.8.5c.4.1.4.7 0 .8l-1.8.5-.2.2-.5 2.3c-.1.3-.7.3-.8 0l-.5-2.3s0-.2-.3-.2l-1.5-.5c-.4-.1-.4-.7 0-.8l1.6-.5c.1 0 .2 0 .3-.3l.5-1.7c0-.4.6-.4.7 0z"/>
  <path fill="#fff" d="M184.8 25.6l.5 1.8s0 .2.3.3l1.7.5c.4 0 .4.6 0 .7l-1.7.5-.2.3-.6 2.1c0 .4-.6.4-.7 0l-.5-2.1s0-.2-.3-.3l-1.6-.5c-.3 0-.3-.6 0-.7l1.6-.6.3-.3.5-1.8c.1-.2.6-.2.7.1z"/>
  <path fill="#3DEC94" d="M193.2 13.9l.6 1.6.2.1 1.5.6c.4 0 .4.5 0 .6l-1.5.5-.3.3-.5 2c-.1.3-.6.3-.7 0l-.5-2c0-.1 0-.2-.2-.3l-1.4-.5c-.3-.1-.3-.5 0-.6l1.4-.6.2-.1.5-1.6c.2-.4.7-.4.7 0z"/>
  <path fill="#A7FAC1" d="M29.8 16.8l.3 1.1.2.2 1.2.4c.2 0 .2.3 0 .4l-1.2.4-.2.1-.3 1.5c-.1.2-.5.2-.5 0l-.3-1.5-.2-.1-1-.4c-.2 0-.2-.3 0-.4l1-.4.2-.2.3-1.1c0-.2.4-.2.5 0z"/>
  <g>
    <path fill="#1BC1D7" fill-rule="evenodd" d="M94 107H108c1.6 0 2.8-1.3 2.8-2.9l-1-14.1c-.1-1.6-1.6-3-3.2-3H92.5a2.7 2.7 0 00-2.7 3l1 14.1c0 1.6 1.6 3 3.2 3zm9.5-7h-6l-.4-6h6l.4 6zM92.1 81.5h14.2c1.6 0 2.9-1.3 2.7-3l-1-14c0-1.7-1.6-3-3.2-3H90.7a2.7 2.7 0 00-2.8 3l1 14c.1 1.7 1.6 3 3.2 3zm9.6-7h-6l-.5-6.1h6l.5 6zM117.7 81.5h14.1c1.7 0 3-1.3 2.8-3l-1-14c-.1-1.7-1.6-3-3.2-3h-14.2a2.7 2.7 0 00-2.7 3l1 14c0 1.7 1.6 3 3.2 3zm9.5-7h-6l-.4-6.1h6l.4 6z" clip-rule="evenodd"/>
    <g fill="#1BC1D7" fill-rule="evenodd" clip-rule="evenodd">
      <path d="M122.2 93.6h-5.7a1 1 0 01-1-1L115 88c0-.5.4-1 1-1h4.7c.5 0 1 .5 1 1l.4 5.7zM129.4 100.3h-6.7l-.5-6.7h6.7l.5 6.7zM135.7 107h-4.8a1 1 0 01-1-1l-.4-5.7h5.7c.6 0 1 .4 1 1l.3 4.7c0 .6-.4 1-.8 1z"/>
      <path d="M134.7 93.6h-5.8l-.4-5.7c0-.5.4-1 .9-1h4.8c.5 0 1 .5 1 1l.3 4.8c0 .5-.3 1-.8 1zM122.2 107h-4.8a1 1 0 01-1-1l-.3-4.7c0-.6.4-1 .9-1h5.7l.5 5.7c0 .6-.5 1-1 1z"/>
    </g>
  </g>
</svg>
