<svg xmlns="http://www.w3.org/2000/svg" viewBox="0 0 499.5 131.1">
  <defs>
    <style>
      .cls-1{fill:#fff}.cls-3{fill:#fff200}
    </style>
  </defs>
  <g id="Layer_2" data-name="Layer 2">
    <g id="EN">
      <path d="M282.4 66.3a.7.7 0 01.8-.8h14a.7.7 0 01.7.8v2.3c0 .5-.2.7-.7.7h-10.4v6.5h9.2c.5 0 .8.3.8.7V79c0 .4-.2.6-.8.6h-9.2V87h10.6c.5 0 .7.2.7.7V90c0 .5-.2.7-.7.7h-14.2c-.5 0-.8-.2-.8-.7zM317.3 90.8h-2.8c-.5 0-.7-.3-.7-.8V89a12.5 12.5 0 01-6.4 2.2c-5.2 0-5.7-3-5.7-7V73c0-.5.2-.8.8-.8h2.7c.5 0 .7.3.7.8v10.7c0 2.3.5 3.7 2.8 3.7 1.6 0 4.1-1.2 5.1-1.7V72.9c0-.5.2-.8.7-.8h2.8c.5 0 .7.3.7.8V90c0 .5-.2.8-.8.8zM326.9 90c0 .5-.2.7-.7.7h-2.8c-.5 0-.7-.2-.7-.7V72.9c0-.5.2-.8.7-.8h2.7a.7.7 0 01.8.8v1.7a14.3 14.3 0 015.7-2.6c.5-.1.8 0 1 .7l.2 2.5c0 .5 0 .8-.7 1a37.6 37.6 0 00-6.2 1.7zM343.6 91c-7.6 0-8.1-5.5-8.1-9.9 0-3.5.8-9.3 8.1-9.3s8.4 4.9 8.4 9.3-.5 10-8.4 10zm0-15.6c-3.2 0-4 2-4 6s.7 6 4 6c3.4 0 4-2 4-6s-.5-6-4-6zM364.6 91.1a15 15 0 01-4.8-.8V97c0 .4 0 .8-.7.8h-2.7c-.6 0-.7-.3-.7-.8V72.9c0-.5.2-.8.7-.8h2.7c.5 0 .7.4.7.8V74h.1a11.8 11.8 0 016-2.2c5 0 6.3 3.8 6.3 9.5 0 6.2-1.6 9.8-7.6 9.8zm.3-15.5a13.6 13.6 0 00-5 1.7v9.5a15.3 15.3 0 004.3.7c2.7 0 3.7-1.4 3.7-6.2s-1-5.7-3-5.7zM379.4 82.6c.2 3.8 1.5 4.9 4.7 4.9 1.3 0 3.4-.3 4.9-.4.7-.1.9-.1 1 .6l.2 1.3c.1.6 0 .9-.6 1.2a20.7 20.7 0 01-6.1.9c-7.3 0-8.4-4.6-8.4-9.6 0-3.7.7-9.7 8.1-9.7 6.8 0 8 4.4 8.2 8.5 0 1.3-.4 2.3-1.9 2.3zm0-2.9h7.6c0-2.3-.6-4.5-3.8-4.5-2.8 0-3.5 1.7-3.7 4.5zM406.6 88.6a12 12 0 01-7 2.5c-4 0-5.2-2.2-5.2-5.4 0-4.5 2.3-6.4 7.1-6.4h4.9v-1c0-2.3-.8-3-4-3-1.2 0-3.6.1-5.1.3-.8.1-1 0-1.1-.5l-.3-1.4c-.1-.5 0-.8.8-1.1a24 24 0 016.5-.8c6.5 0 7.3 2.6 7.3 7V86c0 1.5.2 1.6 1.4 1.7.6 0 .7.2.7.6V90c0 .4-.2.7-.9.8a9.3 9.3 0 01-1.8.2c-1.8 0-2.9-.5-3.2-2.3zm-.3-6.3h-4.6c-1.9 0-3.1.7-3.1 3.2 0 1.6.6 2.2 2.4 2.2a12.8 12.8 0 005.3-1.8zM430.7 90.8H428c-.5 0-.7-.3-.7-.8V79.4c0-2.3-.6-3.8-2.8-3.8-1.5 0-4.1 1.3-5.2 1.8V90c0 .5-.2.7-.7.7H416c-.5 0-.7-.2-.7-.7V72.9c0-.5.2-.8.7-.8h2.7c.5 0 .7.3.7.8V74h.1a12.6 12.6 0 016.4-2.3c5.2 0 5.6 3.4 5.6 7.2V90c0 .5-.1.8-.7.8zM292.6 105.3a20.6 20.6 0 017 1c.6.3.8.6.7 1.2l-.3 1.6c-.1.5-.3.7-1 .6a52.6 52.6 0 00-6.1-.5c-5.2 0-6 4.2-6 9.1s1 8.9 6 8.9a46.2 46.2 0 006.1-.5c.7 0 .9.1 1 .6l.3 1.5a1 1 0 01-.6 1.2 21.6 21.6 0 01-7 1.1c-8.5 0-10.3-6.3-10.3-12.7s1.6-13.1 10.2-13.1zM311.2 131c-7.7 0-8.1-5.5-8.1-9.9 0-3.5.7-9.3 8-9.3s8.5 4.9 8.5 9.3-.6 10-8.4 10zm0-15.6c-3.2 0-4 2-4 6s.7 6 3.9 6c3.5 0 4.1-2 4.1-6s-.5-6-4-6zM349.8 130.8h-2.7c-.5 0-.7-.3-.7-.8v-10.8c0-2.8-.7-3.6-2.6-3.6-1.4 0-3.7 1.1-4.9 1.8V130c0 .5-.1.7-.7.7h-2.8c-.5 0-.6-.2-.6-.7v-11c0-2.3-.6-3.4-2.5-3.4a13.3 13.3 0 00-5 1.7V130c0 .5-.1.7-.7.7H324c-.5 0-.7-.2-.7-.7v-17.1c0-.5.2-.8.7-.8h2.7a.7.7 0 01.8.8v1.1a11.5 11.5 0 015.6-2.2c2.2 0 4 .4 5.2 2.6a11.8 11.8 0 016.7-2.6c5 0 5.5 3.3 5.5 7V130c0 .5-.1.8-.7.8zM381.1 130.8h-2.7c-.5 0-.7-.3-.7-.8v-10.8c0-2.8-.7-3.6-2.6-3.6-1.4 0-3.7 1.1-4.9 1.8V130c0 .5-.1.7-.7.7h-2.8c-.5 0-.6-.2-.6-.7v-11c0-2.3-.6-3.4-2.5-3.4a13.3 13.3 0 00-5 1.7V130c0 .5-.1.7-.6.7h-2.8c-.5 0-.7-.2-.7-.7v-17.1c0-.5.2-.8.7-.8h2.8a.7.7 0 01.8.8v1.1a11.4 11.4 0 015.6-2.2c2.2 0 4 .4 5.2 2.6a11.8 11.8 0 016.7-2.6c5 0 5.5 3.2 5.5 7V130c0 .5-.1.8-.7.8zM388.6 109.4c-2 0-2.3-1-2.3-2.2s.5-2.2 2.3-2.2 2.2 1 2.2 2.2-.3 2.2-2.2 2.2zm2 20.6c0 .5-.2.8-.7.8h-2.7c-.5 0-.8-.3-.8-.8V113c0-.6.3-.8.8-.8h2.7c.5 0 .7.4.7.8zM401.5 131a18.9 18.9 0 01-5.8-.8c-.8-.3-1-.6-.8-1.2l.2-1.3c.1-.6.4-.6 1-.6a41.1 41.1 0 005.4.5c2.4 0 3.4-.6 3.4-2.2 0-1.7-.6-2-3-2.4-3.7-.6-7-1.4-7-5.5 0-3.8 3-5.7 7.2-5.7a19 19 0 015.8.8c.6.3.9.6.8 1.1l-.3 1.4c-.2.5-.4.6-1 .5-1.7-.2-3.8-.4-5.2-.4-2.4 0-3 .7-3 2.1s.9 1.7 3.2 2.1c3.6.5 6.9 1.3 6.9 5.8s-3.8 5.9-7.8 5.9zM419 131a18.8 18.8 0 01-5.9-.8c-.8-.3-.9-.6-.8-1.2l.3-1.3c0-.6.3-.6 1-.6a41.4 41.4 0 005.4.5c2.4 0 3.4-.6 3.4-2.2 0-1.7-.7-2-3-2.4-3.7-.6-7-1.4-7-5.5 0-3.8 2.9-5.7 7.1-5.7a19.1 19.1 0 015.8.8c.6.3 1 .6.8 1.1l-.3 1.4c-.1.5-.3.6-1 .5-1.6-.2-3.8-.4-5.2-.4-2.4 0-3 .7-3 2.1s1 1.7 3.3 2.1c3.6.5 6.8 1.3 6.8 5.8S423 131 419 131zM432.9 109.4c-2 0-2.3-1-2.3-2.2s.4-2.2 2.3-2.2 2.2.9 2.2 2.2-.3 2.2-2.2 2.2zm2 20.6c0 .5-.2.8-.7.8h-2.7c-.5 0-.8-.3-.8-.8V113c0-.6.3-.8.8-.8h2.7c.5 0 .7.4.7.8zM447.3 131c-7.6 0-8.1-5.5-8.1-9.9 0-3.5.8-9.3 8.1-9.3s8.4 4.9 8.4 9.3-.5 10-8.4 10zm0-15.6c-3.2 0-4 2-4 6s.8 6 4 6c3.5 0 4.1-2 4.1-6s-.6-6-4-6zM474.8 130.8h-2.7a.6.6 0 01-.8-.8v-10.6c0-2.3-.5-3.8-2.7-3.8-1.5 0-4.2 1.3-5.2 1.7V130c0 .5-.2.7-.7.7H460c-.5 0-.7-.2-.7-.7v-17.1c0-.5.2-.8.7-.8h2.7c.5 0 .7.3.7.8v1.1h.1a12.7 12.7 0 016.4-2.3c5.1 0 5.6 3.4 5.6 7.2v11c0 .6-.1.9-.7.9zM499.5 130.8V52.4H493v78.4h6.5zM0 48.3l80.7-10.6a86 86 0 009.3-2 58.4 58.4 0 0017.3-8c5-3.3 9.6-8.2 14.2-13.5a133.8 133.8 0 008.8-12.1V0a120.4 120.4 0 01-10.1 13.2A70.2 70.2 0 01106 25.6a55.7 55.7 0 01-16.8 7.2 81.4 81.4 0 01-9 1.7l-6.5.8L0 43.2z" class="cls-1"/>
      <path d="M105.3 35a55.1 55.1 0 01-16.9 6.3 96 96 0 01-14.8 1.9l-3.2.3c-24 2.1-48 4.4-70.4 6.6v5.2c22.6-2.8 46.7-5.7 70.7-8.4l3.2-.4 6-.7c3.4-.4 6.4-1 9.1-1.6a58 58 0 0017.5-6.9c5-3 9.5-7.3 14.4-12.6a143 143 0 009.4-12.2v-1.9a125.6 125.6 0 01-10.6 12.9A65.2 65.2 0 01105.3 35z" class="cls-1"/>
      <path d="M119 33.8a61.5 61.5 0 01-14.9 10.4 61.4 61.4 0 01-17 5.1c-2.6.5-5.5.8-8.8 1.1L0 57V62l69.6-7.4 9-1c3.4-.4 6.4-.8 9-1.4a63.5 63.5 0 0017.6-5.8 68.2 68.2 0 0015.3-11.8 114.9 114.9 0 009.7-11.4v-1.7A109.5 109.5 0 01119 33.8z" class="cls-1"/>
      <path d="M100 60.4a32.5 32.5 0 01-14.4 4.7c-4 .5-8 .7-11.9.9l-5.7.3c-11.8.6-23.4 1.4-35.3 2.2L0 70.7v5.1l33-3 35.3-3.1L77 69l8.8-.9a76.5 76.5 0 0017.5-4.1 67.7 67.7 0 0015.8-9 98.4 98.4 0 0011-10.2V43a67 67 0 01-11.1 9.5c-5.5 3.6-15 5.6-19 7.9z" class="cls-1"/>
      <path d="M101.8 70.1a86.4 86.4 0 01-17 3c-2.7.3-5.5.4-8.7.6l-8.8.3C45.5 75 24 76.3 0 77.5v5.1l67.5-5.1 8.7-.6c3.4-.2 6.2-.5 8.8-.8a88.8 88.8 0 0017.5-3.5 68 68 0 0016.2-7.7 94.6 94.6 0 0011.6-8.9c-4.4 3.7-8.5 4.5-12.7 7a66.5 66.5 0 01-15.8 7.1z" class="cls-1"/>
      <path d="M101 78.6A101.8 101.8 0 0184 81l-8.6.4-8.7.3c-21.9.8-44 1.8-66.7 2.8v5.1L67 85.2l8.6-.6 8.7-.6a107 107 0 0017.3-2.9 75.5 75.5 0 0016.5-6.4 94.2 94.2 0 0012.3-8v-2.1a94.5 94.5 0 01-13.2 8.1 72.3 72.3 0 01-16.2 6z" class="cls-1"/>
      <path d="M100.2 87a129 129 0 01-17 1.8l-8.5.3L0 91v5.1l66.3-3.5 8.5-.4 8.7-.5a131.4 131.4 0 0017.2-2.3 88.1 88.1 0 0016.6-5.3 101.2 101.2 0 0013-6.7v-2a101.4 101.4 0 01-13.7 6.8 85.6 85.6 0 01-16.4 4.6z" class="cls-1"/>
      <path d="M99.6 95.3C90.5 96.5 81 96.7 72 96.8l-6.3.1L0 98.1v5l65.7-2.8 6.3-.2c9.2-.4 18.7-.8 28-2.3a102.4 102.4 0 0016.8-4 110.2 110.2 0 0013.5-5.7v-2a109.5 109.5 0 01-14.1 5.5 99.3 99.3 0 01-16.6 3.7zM99 103.7c-8.5.7-17.3.7-25.8.7h-8L0 105v5.1c21-.7 43.1-1.5 65.4-2.1l7.9-.3c8.5-.2 17.4-.4 26-1.3a124.6 124.6 0 0016.9-3 118.9 118.9 0 0014-4.5V97a116.8 116.8 0 01-14.5 4.3 122.6 122.6 0 01-16.6 2.4zM98.8 112l-11.9.2h-5L65 112l-33.8-.1H0v5.1l31.3-.8 33.8-.8 16.9-.2c4.6-.1 10.8-.3 17-.7a176.3 176.3 0 0031.4-4.9v-1.8a159.2 159.2 0 01-31.6 4.2zM81.7 120l-16.8-.2L0 118.7v5.1l64.9-.6 16.9-.2 16.8-.4c11.6-.4 22-1.2 31.7-2.5v-1.7a312 312 0 01-31.7 1.6H81.7zM130.3 129L0 125.7v5.1h130.3V129zM118.6 43.4c-5 4-8.8 6.9-14.9 9.3-5.2 2.1-11 3-17.4 3.9-4.1.6-8.5 1.4-12.7 1.7l-5 .4-68.6 5v5.1l68.8-6.7 8.9-.8c3.3-.4 6.3-.7 9-1.2a69.6 69.6 0 0017.6-5A70.1 70.1 0 00120 44.6 112.1 112.1 0 00130.3 34v-1.9a129.3 129.3 0 01-11.7 11.2zM185.7 0l27.8 44.2c4.3 6.8 9.2 12.3 26.5 16l25 5.4v1.3l-25.3-5.5c-14.3-3.2-20-4.2-26.4-13.2-5.4-7.5-27.6-39.3-27.6-39.3zM185.7 42.6l27.6 28.8c6.5 6.8 14.9 9.4 26.5 11.4l25.1 4.3v1.3l-25-4.2c-11.8-2-20-3.2-26.7-9.3l-27.5-25.7z" class="cls-1"/>
      <path d="M185.7 52.7S206 71.6 213.3 78c6.6 6 12 7.8 26.6 10.4s25 4.2 25 4.2v1.3l-25.1-4c-11.9-1.9-19.5-2.7-26.6-8.5L185.7 59z" class="cls-1"/>
      <path d="M185.7 63.5S209 81.9 213.3 85s10 7 26.7 9.4l25 3.5v1.4s-15-2.1-25-3.4-17.7-1.8-26.6-7.8c-8.8-5.8-27.6-19-27.6-19z" class="cls-1"/>
      <path d="M185.7 73.8s23.3 15.5 27.7 18 9.6 6.4 26.6 8.5l25 3.2v1.3l-25-2.7c-11-1.2-18.4-2.8-26.6-7.3S185.7 79 185.7 79z" class="cls-1"/>
      <path d="M185.7 84.1s20.6 11.2 27.6 14.7a72 72 0 0026.6 7.2l25 2.8v1.3l-25-2.6a70.6 70.6 0 01-26.6-5.8C205 98 185.7 89 185.7 89z" class="cls-1"/>
      <path d="M185.7 94.6s16.3 7 27.7 11.5c11.2 4.4 19.8 4.8 26.6 5.6l25 2.6v1.2l-25-2c-12-1-17-1.6-26.7-4.8s-27.6-9.4-27.6-9.4zM185.7 105.3s16.4 5 27.6 8a151.6 151.6 0 0026.7 4.5c5.2.3 25 2 25 2v1.2l-25-1.8c-11.1-.8-20-1.6-26.6-3l-27.6-6.5zM185.7 115.8l27.6 4.6c10.7 1.8 25 2.9 26.6 3l25 1.6v1.3l-25-1.3a668.7 668.7 0 01-54.2-5zM185.7 126.6l27.6 1 51.6 2v1.2h-79.2zM239.9 66c-19.2-4.2-23.5-11.2-26.7-15.6s-27.5-39.7-27.5-39.7v8c1 1.2 21.7 28.4 27.6 35.9C219.8 63 230 64.9 239.9 67s25 5 25 5v-1l-25-5z" class="cls-1"/>
      <path d="M239.9 71.5c-15.7-3-22.1-8-26.7-14l-27.5-36.2V29c1 1.1 21.9 25.9 27.5 32.3 6.5 7.5 15.6 9.5 26.7 11.5l25 4.7v-1.1l-25-4.8z" class="cls-1"/>
      <path d="M239.9 77.3c-16.4-3.2-19.7-5.8-26.6-13.4-4.4-4.7-26.6-31-27.6-32v7s20.8 22.1 27.5 28.6c8.8 8.6 17 9.3 26.7 11l25 4.6v-1.2l-25-4.6z" class="cls-1"/>
      <path fill="#034ea2" stroke="#fff" stroke-width="2" d="M168.3 129.8V53.4H54.2v76.4h114.1z"/>
      <path d="M112.5 64.3h3.9l-3.2 2.5 1.3 3.9-3.2-2.4-3.2 2.4 1.3-3.9-3.3-2.5h4l1.2-3.9 1.2 3.9zM112.6 115.2h4l-3.2 2.4 1.2 3.8-3.2-2.4-3.1 2.4 1.2-3.8-3.2-2.4h3.9l1.2-3.7 1.2 3.7zM125.2 111.8h4l-3.2 2.4 1.2 3.8-3.2-2.3-3.2 2.3 1.3-3.8-3.2-2.4h3.9l1.2-3.7 1.2 3.7zM125.2 67.7h4L126 70l1.2 3.9-3.2-2.4-3.2 2.4 1.3-3.9-3.2-2.3h3.9l1.2-3.8 1.2 3.8zM134.6 77h3.9l-3.2 2.4 1.3 3.8-3.2-2.3-3.2 2.3 1.3-3.8-3.3-2.4h4l1.2-3.7 1.2 3.7zM134.6 102.6h3.9l-3.2 2.4 1.3 3.8-3.2-2.4-3.2 2.4 1.3-3.8-3.3-2.4h4l1.2-3.7 1.2 3.7zM138.1 89.6h3.9l-3.2 2.4 1.3 3.8-3.2-2.3-3.2 2.3L135 92l-3.3-2.4h4l1.2-3.7 1.2 3.7zM99.6 67.7h4l-3.2 2.4 1.2 3.8-3.1-2.4-3.2 2.4 1.2-3.8-3.2-2.4h4l1.2-3.7 1.1 3.7zM90.5 77h4l-3.2 2.4 1.2 3.8-3.1-2.3-3.2 2.3 1.2-3.8-3.2-2.4h4l1.2-3.7 1.1 3.7zM87.2 89.6h3.9L87.9 92l1.3 3.8-3.2-2.3-3.2 2.3L84 92l-3.2-2.4h4l1.2-3.7 1.2 3.7zM90.5 102.6h4l-3.2 2.4 1.2 3.8-3.1-2.3-3.2 2.3 1.2-3.8-3.2-2.4h4l1.2-3.7 1.1 3.7zM99.8 111.8h3.9l-3.2 2.4 1.3 3.8-3.2-2.3-3.2 2.3 1.3-3.8-3.3-2.4h4l1.2-3.7 1.2 3.7z" class="cls-3"/>
    </g>
  </g>
</svg>
