<?xml version="1.0" encoding="utf-8"?>
<!-- Generator: Adobe Illustrator 25.4.1, SVG Export Plug-In . SVG Version: 6.00 Build 0)  -->
<svg version="1.1" id="Laag_1" xmlns="http://www.w3.org/2000/svg" xmlns:xlink="http://www.w3.org/1999/xlink" x="0px" y="0px"
	 viewBox="0 0 141.7 141.7" style="enable-background:new 0 0 141.7 141.7;" xml:space="preserve">
<style type="text/css">
	.st0{fill:#FFFFFF;}
	.st1{fill:#E17000;}
</style>
<g>
	<g>
		<g>
			<path d="M141.7,121.7c0,11-9,20-20,20H20c-11,0-20-9-20-20V20C0,9,9,0,20,0h101.7c11,0,20,9,20,20V121.7z"/>
		</g>
	</g>
	<g>
		<path class="st0" d="M15.8,108.2V74.8h9.6c11.3,0,17.6,5.7,17.6,15.8c0,12.1-6.8,17.7-17.8,17.7H15.8z M21.9,103.2h3.5
			c6.7,0,11.1-3.6,11.1-12.4c0-7.2-4.4-11-11.6-11h-3.1V103.2z"/>
		<path class="st0" d="M51.2,72.5c2.2,0,3.4,1.4,3.4,3.3c0,1.8-1.2,3.3-3.4,3.3c-2.2,0-3.4-1.3-3.4-3.3C47.9,74,49,72.5,51.2,72.5z
			 M54.1,108.2h-5.8V83.1l5.8-0.3V108.2z"/>
		<path class="st0" d="M68.1,103.3h6c5.4,0,7.7,2.1,7.7,6.2c0,4.8-4,8.7-13.2,8.7c-7.2,0-10.5-2.6-10.5-6.5c0-2.4,1.3-4.4,3.8-5.5
			v-0.2c-1.2-0.6-2-1.9-2-3.4c0-1.6,1-3.1,2.8-3.8v-0.2c-2.3-1.3-3.6-3.4-3.6-6.7c0-6.1,4.1-9.4,10.5-9.4c1.4,0,2.6,0.2,3.9,0.5h8.2
			v3.8h-3.9v0.2c1.1,0.8,2,2.6,2,4.7c0,5.6-3.8,8.5-10.7,8.5c-1.1,0-2.2-0.2-3.2-0.4c-0.7,0.4-1.1,1-1.1,1.6
			C64.9,102.7,65.8,103.3,68.1,103.3z M69.2,114c5.5,0,7.5-1.4,7.5-3.4c0-1.5-0.9-2.3-3.4-2.3l-8.4-0.3c-1,0.7-1.4,1.5-1.4,2.7
			C63.5,112.6,65.3,114,69.2,114z M74.5,91.5c0-3.1-1.7-4.7-4.9-4.7c-2.9,0-4.9,1.6-4.9,5.1c0,3.3,1.8,4.6,4.8,4.6
			C72.7,96.5,74.5,95,74.5,91.5z"/>
		<path class="st1" d="M88.6,72.5c2.2,0,3.4,1.4,3.4,3.3c0,1.8-1.2,3.3-3.4,3.3c-2.2,0-3.4-1.3-3.4-3.3C85.2,74,86.4,72.5,88.6,72.5
			z M91.5,108.2h-5.8V83.1l5.8-0.3V108.2z"/>
		<path class="st1" d="M98.8,108.2V74.8h9.6c11.3,0,17.6,5.7,17.6,15.8c0,12.1-6.8,17.7-17.8,17.7H98.8z M104.9,103.2h3.5
			c6.7,0,11.1-3.6,11.1-12.4c0-7.2-4.4-11-11.6-11h-3.1V103.2z"/>
	</g>
</g>
</svg>
