<?xml version="1.0" encoding="utf-8"?>
<!-- Generator: Adobe Illustrator 24.3.0, SVG Export Plug-In . SVG Version: 6.00 Build 0)  -->
<svg version="1.1" id="Layer_1" xmlns="http://www.w3.org/2000/svg" xmlns:xlink="http://www.w3.org/1999/xlink" x="0px" y="0px"
	 viewBox="0 0 335 236" enable-background="new 0 0 335 236" xml:space="preserve">
<g>
	<g>
		<g>
			<path fill="#DCEEFD" d="M221.4,203.4h-5.1V20.9h5.1V203.4z M217.2,202.6h3.3V21.7h-3.3V202.6z"/>
		</g>
		<g>
			<path fill="#DCEEFD" d="M305.2,203.5h-84.7V20.9h84.7V203.5z M221.4,202.6h82.9V21.8h-82.9V202.6z"/>
		</g>
		<g>
			<path fill="#DCEEFD" d="M291.9,128.3h-58.1l-0.4-95.5h58.1L291.9,128.3z M234.7,127.4H291l-0.4-93.7h-56.4L234.7,127.4z"/>
		</g>
		<g>
			<g>
				<polygon fill="#DCEEFD" points="271.5,68.8 245.2,72 243.7,62.9 270,59.7 				"/>
			</g>
			<g>
				<polygon fill="#DCEEFD" points="252.2,62.4 251.4,62.1 255.3,52.3 261.5,61.4 260.7,61.9 255.5,54.1 				"/>
			</g>
			<g>
				<path fill="#FFFFFF" d="M253,65.5c-0.2-0.6-0.7-1.2-1.4-1.6c-0.6-0.2-1.2-0.3-1.7-0.2c-1.3,0.1-1.9,1.5-2,2.5
					c-0.1,1.1,0.3,2.2,1.1,3.1c0.5,0.5,1.2,0.9,2,0.6c0.6-0.2,1.1-0.6,1.5-1.1C253.1,67.9,253.3,66.5,253,65.5z M251.4,67.9
					c-0.1,0.1-0.2,0.3-0.3,0.4c-0.1,0.1-0.3,0.3-0.3,0.3c-0.2,0.1-0.3,0.2-0.5,0.2c-0.1,0-0.2-0.1-0.3-0.2c-0.5-0.5-0.8-1.2-0.9-1.8
					c0-0.4,0-0.7,0.2-1.2c0-0.1,0.2-0.3,0.3-0.4c0.1-0.1,0.1-0.1,0.2-0.2c0.1,0,0.1,0,0.2-0.1c0.2,0,0.3,0,0.4-0.1
					c0.1,0,0.2,0,0.4,0.1c0.3,0.1,0.5,0.4,0.7,0.7C251.9,66.4,251.7,67.2,251.4,67.9z"/>
			</g>
			<g>
				<path fill="#FFFFFF" d="M258.9,63.4c-0.4-0.5-1-0.8-1.6-0.9c-0.9-0.1-1.7,0.1-2.4,0.4c-0.2,0.1-0.4,0.2-0.4,0.4
					c-0.2,0.1-0.3,0.3-0.2,0.5c0.2,1.7,0.4,3.5,0.5,5.2c0,0.8,1.4,0.8,1.4,0c0-0.7-0.1-1.4-0.1-2.1c1.2-0.2,2.5-0.5,3.1-1.6
					C259.3,64.7,259.3,63.9,258.9,63.4z M257.7,64.7C257.7,64.7,257.7,64.7,257.7,64.7C257.7,64.7,257.7,64.7,257.7,64.7
					c0,0.1-0.1,0.1-0.1,0.2c0,0,0,0,0,0.1c0,0-0.1,0.1-0.1,0.1c0,0-0.1,0.1-0.1,0.1c0,0,0,0,0,0c0,0,0,0,0,0
					c-0.1,0.1-0.2,0.1-0.3,0.2c0,0-0.1,0-0.1,0c0,0,0,0-0.1,0c0,0,0,0,0,0c0,0-0.1,0-0.1,0c-0.1,0-0.3,0.1-0.5,0.1
					c-0.2,0-0.3,0.1-0.5,0.1c-0.1-0.6-0.1-1.1-0.2-1.7c0.1,0,0.3-0.1,0.4-0.1c0.1,0,0.3-0.1,0.4-0.1c0,0,0.1,0,0.1,0
					c0.1,0,0.1,0,0.2,0c0.1,0,0.1,0,0.2,0c0,0,0.1,0,0.1,0c0,0,0.1,0,0.1,0c0.1,0,0.1,0,0.2,0c0,0,0.1,0,0.1,0c0,0,0,0,0,0
					c0,0,0.1,0,0.1,0c0,0,0.1,0,0.1,0.1c0,0,0,0,0.1,0c0,0,0,0,0.1,0c0,0,0,0,0,0c0,0,0,0.1,0,0.1c0,0,0,0,0,0c0,0,0,0,0,0
					c0,0.1,0,0.1,0,0.2c0,0,0,0,0,0.1c0,0,0,0.1,0,0.1c0,0,0,0,0,0.1C257.8,64.6,257.8,64.7,257.7,64.7z"/>
			</g>
			<g>
				<path fill="#FFFFFF" d="M265.4,67.1c-0.1-0.3-0.5-0.5-0.9-0.4c-0.6,0.2-1.1,0.3-1.7,0.4c-0.3,0.1-0.6,0.1-0.8,0.1
					c0,0-0.1,0-0.1,0c-0.1-0.4-0.1-0.7-0.1-1.1c0.5-0.1,1.1-0.3,1.6-0.4c0.2,0,0.3-0.1,0.4-0.3c0.1-0.1,0.1-0.3,0.1-0.5
					c-0.1-0.3-0.5-0.5-0.9-0.4c-0.5,0.1-0.9,0.2-1.4,0.3c0-0.5-0.1-0.9-0.1-1.4l2.2-0.4c0.4-0.1,0.6-0.5,0.5-0.8
					c-0.1-0.3-0.5-0.5-0.9-0.4c-0.9,0.2-1.8,0.3-2.7,0.5c0,0,0,0-0.1,0c0,0,0,0,0,0c-0.3,0.1-0.5,0.4-0.4,0.7c0,0,0,0,0,0
					c0.1,1.5,0.3,3,0.5,4.5c0,0.1,0,0.1,0,0.2c0,0.3,0.3,0.7,0.7,0.6c1.2-0.1,2.5-0.3,3.6-0.7C265.3,67.8,265.5,67.5,265.4,67.1z"/>
			</g>
		</g>
	</g>
	<g>
		<g>
			<path fill="#DCEEFD" d="M187.3,154.2h-140V70.5c0-38.6,31.4-70,70-70s70,31.4,70,70V154.2z M48.1,153.3h138.2V70.5
				c0-38.1-31-69.1-69.1-69.1s-69.1,31-69.1,69.1V153.3z"/>
		</g>
		<g>
			<path fill="#DCEEFD" d="M179.1,154.2H55.4V70.1c0-34.1,27.8-61.9,61.9-61.9c34.1,0,61.9,27.8,61.9,61.9V154.2z M56.3,153.3h122
				V70.1c0-33.6-27.4-61-61-61s-61,27.4-61,61V153.3z"/>
		</g>
		<g>
			<rect x="95.5" y="12.5" fill="#DCEEFD" width="0.9" height="141.2"/>
		</g>
		<g>
			<rect x="138.7" y="12.5" fill="#DCEEFD" width="0.9" height="141.2"/>
		</g>
		<g>
			<rect x="60.5" y="46.2" fill="#DCEEFD" width="114" height="0.9"/>
		</g>
		<g>
			<rect x="60.5" y="100.5" fill="#DCEEFD" width="118.2" height="0.9"/>
		</g>
	</g>
	<g>
		<g>
			<g>
				<path fill="#B8DCFB" d="M194.3,131.9h-35.2c-2.4,0-4.2-1.9-3.9-4.3l0,0c0.2-2.4,2.3-4.3,4.7-4.3h35.2c2.4,0,4.2,1.9,3.9,4.3v0
					C198.8,130,196.7,131.9,194.3,131.9z"/>
			</g>
			<g>
				<polygon fill="#B8DCFB" points="162.6,150.7 159.2,150.9 159.5,130.2 163,129.9 				"/>
			</g>
			<g>
				<polygon fill="#B8DCFB" points="190,154 186.6,153.6 191.5,129.7 194.9,130.1 				"/>
			</g>
			<g>
				<polygon fill="#B8DCFB" points="168.8,153.8 166.7,153.8 168.8,129.8 170.9,129.8 				"/>
			</g>
			<g>
				<polygon fill="#B8DCFB" points="172.7,153.8 170.7,153.8 172.8,129.8 174.8,129.8 				"/>
			</g>
			<g>
				<polygon fill="#B8DCFB" points="176.7,153.8 174.7,153.8 176.8,129.8 178.8,129.8 				"/>
			</g>
			<g>
				<polygon fill="#B8DCFB" points="180.7,153.8 178.7,153.8 180.8,129.8 182.8,129.8 				"/>
			</g>
		</g>
		<g>
			<g>
				<path fill="#DCEEFD" d="M192.7,131.9h-35.2c-2.4,0-4.2-1.9-3.9-4.3v0c0.2-2.4,2.3-4.3,4.7-4.3h35.2c2.4,0,4.2,1.9,3.9,4.3v0
					C197.2,130,195.1,131.9,192.7,131.9z"/>
			</g>
			<g>
				<polygon fill="#DCEEFD" points="161,150.7 157.5,150.9 157.9,130.2 161.4,129.9 				"/>
			</g>
			<g>
				<polygon fill="#DCEEFD" points="188.3,154 184.9,153.6 189.9,129.7 193.3,130.1 				"/>
			</g>
			<g>
				<polygon fill="#DCEEFD" points="167.9,153.8 165.9,153.8 168,129.8 170,129.8 				"/>
			</g>
			<g>
				<polygon fill="#DCEEFD" points="171.9,153.8 169.9,153.8 172,129.8 174,129.8 				"/>
			</g>
			<g>
				<polygon fill="#DCEEFD" points="175.9,153.8 173.8,153.8 175.9,129.8 178,129.8 				"/>
			</g>
			<g>
				<polygon fill="#DCEEFD" points="179.8,153.8 177.8,153.8 179.9,129.8 181.9,129.8 				"/>
			</g>
		</g>
	</g>
	<g>
		<g>
			<circle fill="#002031" cx="45.9" cy="95.7" r="4.7"/>
		</g>
		<g>
			<circle fill="#002031" cx="45.9" cy="99.8" r="4.7"/>
		</g>
		<g>
			<circle fill="#002031" cx="49.3" cy="102.2" r="4.7"/>
		</g>
		<g>
			<circle fill="#002031" cx="57.8" cy="86.9" r="4.1"/>
		</g>
		<g>
			<circle fill="#002031" cx="60.6" cy="90.9" r="2.8"/>
		</g>
		<g>
			<circle fill="#002031" cx="47" cy="91.1" r="4.7"/>
		</g>
		<g>
			<circle fill="#002031" cx="52" cy="88.7" r="5.3"/>
		</g>
		<g>
			<path fill="#002031" d="M46.8,101c0,0,0.6,4,3.4,3.8L50,101H46.8z"/>
		</g>
		<g>
			<g>
				<g>
					<path fill="#B8DCFB" d="M36.5,130.7h35.2c2.4,0,4.2-1.9,3.9-4.3v0c-0.2-2.4-2.3-4.3-4.7-4.3H35.8c-2.4,0-4.2,1.9-3.9,4.3v0
						C32,128.8,34.1,130.7,36.5,130.7z"/>
				</g>
				<g>
					<polygon fill="#B8DCFB" points="68.2,149.5 71.7,149.7 71.3,129 67.9,128.7 					"/>
				</g>
				<g>
					<polygon fill="#B8DCFB" points="41.2,154.4 44.6,154 39.4,128.5 36,128.9 					"/>
				</g>
				<g>
					<polygon fill="#B8DCFB" points="62.1,152.6 64.1,152.6 62,128.6 60,128.6 					"/>
				</g>
				<g>
					<polygon fill="#B8DCFB" points="58.1,152.6 60.2,152.6 58.1,128.6 56,128.6 					"/>
				</g>
				<g>
					<polygon fill="#B8DCFB" points="54.1,152.6 56.2,152.6 54.1,128.6 52,128.6 					"/>
				</g>
				<g>
					<polygon fill="#B8DCFB" points="50.2,152.6 52.2,152.6 50.1,128.6 48.1,128.6 					"/>
				</g>
			</g>
			<g>
				<g>
					<path fill="#DCEEFD" d="M38.2,130.7h35.2c2.4,0,4.2-1.9,3.9-4.3v0c-0.2-2.4-2.3-4.3-4.7-4.3H37.4c-2.4,0-4.2,1.9-3.9,4.3l0,0
						C33.7,128.8,35.8,130.7,38.2,130.7z"/>
				</g>
				<g>
					<polygon fill="#DCEEFD" points="69.9,149.5 73.3,149.7 73,129 69.5,128.7 					"/>
				</g>
				<g>
					<polygon fill="#DCEEFD" points="42.5,152.8 45.9,152.4 41,128.5 37.6,128.9 					"/>
				</g>
				<g>
					<polygon fill="#DCEEFD" points="63,152.6 65,152.6 62.9,128.6 60.9,128.6 					"/>
				</g>
				<g>
					<polygon fill="#DCEEFD" points="59,152.6 61,152.6 58.9,128.6 56.9,128.6 					"/>
				</g>
				<g>
					<polygon fill="#DCEEFD" points="55,152.6 57,152.6 54.9,128.6 52.9,128.6 					"/>
				</g>
				<g>
					<polygon fill="#DCEEFD" points="51,152.6 53.1,152.6 51,128.6 48.9,128.6 					"/>
				</g>
			</g>
		</g>
		<g>
			<path fill="#DCEEFD" d="M50.3,154.8H32.4c-0.8,0-1.5-0.7-1.5-1.5v0c0-0.8,0.7-1.5,1.5-1.5h17.8c0.8,0,1.5,0.7,1.5,1.5v0
				C51.8,154.1,51.1,154.8,50.3,154.8z"/>
		</g>
		<g>
			<path fill="#FE6F43" d="M51.2,114.6l-7.6,2.9c-2.5,1-4.5,2.9-5.5,5.4l-7.8,20.8c-1.4,3.6,0.8,7.5,4.6,8.1l19.6,1.4l1.9-8.6
				L42,142.4l10.3-20.9L51.2,114.6z"/>
		</g>
		<g>
			<path fill="#FE8864" d="M34.8,151.8l19.6,1.4l0.5-2.1H32.8C33.4,151.5,34.1,151.7,34.8,151.8z M51.3,115.4H49l-5.5,2.1
				c-2,0.7-3.6,2.1-4.7,3.8h13.5L51.3,115.4z M42,142.4l1.6-3.2H31.9l-1.7,4.5c-0.2,0.5-0.3,0.9-0.4,1.4h26.4l0.1-0.5L42,142.4z
				 M49.5,127.3H36.3l-2.2,5.9h12.4L49.5,127.3z"/>
		</g>
		<g>
			<polygon fill="#FE6F43" points="51.2,114.5 59.4,114.1 67.9,116 79.2,148.6 49.3,151.8 43.5,117.5 			"/>
		</g>
		<g>
			<path fill="#FE8864" d="M76,139.2H47.2l1,5.9H78L76,139.2z M67.9,116l-2.5-0.6H48.8l-5.3,2.1l0.6,3.8h25.5L67.9,116z M49.3,151.8
				l5.8-0.6h-5.9L49.3,151.8z M71.8,127.3H45.2l1,5.9h27.7L71.8,127.3z"/>
		</g>
		<g>
			<polygon fill="#C26E5E" points="61.3,145.6 58.7,151.6 63.6,152.2 65.4,155.1 69.2,153.5 67.9,147 			"/>
		</g>
		<g>
			<path fill="#FE6F43" d="M60.2,114.2l16.5-10.9l4.4-23.6h7.3l-2.6,25.5c-0.2,1.1-0.7,2-1.4,2.8l-15.5,13.4L60.2,114.2z"/>
		</g>
		<g>
			<path fill="#FE8864" d="M81.1,79.6L80,85.6h7.8l0.6-5.9H81.1z M67.4,109.4h15.3l1.7-1.4c0.8-0.8,1.3-1.7,1.4-2.8l0.2-1.7h-9.6
				L67.4,109.4z M77.8,97.5h8.8l0.6-5.9h-8.3L77.8,97.5z M68.8,121.3L68.8,121.3l6.9-5.9h-14L68.8,121.3z"/>
		</g>
		<g>
			<path fill="#C26E5E" d="M49.1,98.6l2.3,15.8l8.8,4.5c0.6,0.3,1.3-0.1,1.4-0.8l0.1-4.4l-4.1-11.5L49.1,98.6z"/>
		</g>
		<g>
			<path fill="#C26E5E" d="M46.8,96.7c0.1,4.7,4.7,8.6,9.4,9c5.4,0.5,8.6-3.3,7.7-9c-0.8-4.6-4-8.5-8.7-8.5S46.7,92,46.8,96.7z"/>
		</g>
		<g>
			<path fill="#002031" d="M59,99.1c-0.1,0-0.2-0.1-0.2-0.2c0-0.1,0.1-0.2,0.2-0.2c0.6,0,1.3-0.2,1.4-0.4c0.1-0.2-0.4-1.4-0.7-2
				c-0.2-0.5-0.4-0.8-0.5-1.1c0-0.1,0-0.2,0.1-0.3c0.1,0,0.2,0,0.3,0.1c0.1,0.2,0.2,0.6,0.4,1c0.6,1.2,0.9,2,0.7,2.3
				C60.6,98.9,59.4,99,59,99.1C59,99.1,59,99.1,59,99.1z"/>
		</g>
		<g>
			<path fill="#002031" d="M41.8,144.3c-0.1,0-0.2-0.1-0.2-0.2c0-0.3,0.1-0.9,0.1-1.3l-1.2,0.6c-0.1,0.1-0.2,0-0.3-0.1
				c-0.1-0.1,0-0.2,0.1-0.3l1.6-0.7c0.1,0,0.2,0,0.2,0c0.1,0,0.1,0.1,0.1,0.2c0,0-0.2,1.2-0.2,1.6C42.1,144.2,42,144.3,41.8,144.3z"
				/>
		</g>
		<g>
			<path fill="#002031" d="M45.7,135.1C45.7,135.1,45.7,135.1,45.7,135.1c-0.2-0.1-0.3-0.2-0.2-0.3l1.2-2.5l0.4,0.2l-1.2,2.5
				C45.9,135.1,45.8,135.1,45.7,135.1z"/>
		</g>
		<g>
			
				<rect x="54.3" y="137.5" transform="matrix(0.1908 -0.9816 0.9816 0.1908 -97.6879 170.3546)" fill="#FFFFFF" width="0.4" height="13.9"/>
		</g>
		<g>
			<path fill="#C26E5E" d="M49.7,100.8c0.4,1.2,1,1.9-0.2,2.3c-1.2,0.4-2.6-0.2-3-1.4c-0.4-1.2,0.2-2.6,1.4-3S49.2,99.6,49.7,100.8z
				"/>
		</g>
		<g>
			<path fill="#002031" d="M54.5,94.9C54.5,94.9,54.5,94.9,54.5,94.9c-0.2,0-0.2-0.2-0.2-0.3c0.2-0.8,1-1.4,1.8-1.5
				c0.1,0,0.2,0.1,0.3,0.2c0,0.1-0.1,0.2-0.2,0.3c-0.7,0.1-1.2,0.6-1.4,1.2C54.7,94.9,54.6,94.9,54.5,94.9z"/>
		</g>
		<g>
			<path fill="#002031" d="M61.9,93.9c0,0-0.1,0-0.1,0c-0.5-0.4-1.3-0.4-1.9,0c-0.1,0.1-0.2,0-0.3-0.1c-0.1-0.1,0-0.2,0.1-0.3
				c0.7-0.4,1.7-0.4,2.4,0.1c0.1,0.1,0.1,0.2,0.1,0.3C62.1,93.9,62,93.9,61.9,93.9z"/>
		</g>
		<g>
			<path fill="#FFFFFF" d="M57.4,99.7l3.3,0.1c0.2,0,0.3,0.2,0.2,0.3c-0.5,0.7-2,2.2-3.7-0.1C57.1,99.9,57.2,99.7,57.4,99.7z"/>
		</g>
		<g>
			<path fill="#002031" d="M56.4,96.8C56.4,96.8,56.4,96.8,56.4,96.8c-0.2-0.1-0.3-0.2-0.2-0.3c0.2-0.4,0.5-0.6,0.9-0.6
				c0.4,0,0.8,0.1,1,0.4c0.1,0.1,0.1,0.2,0,0.3c-0.1,0.1-0.2,0.1-0.3,0c-0.1-0.2-0.4-0.3-0.6-0.3c-0.2,0-0.5,0.2-0.6,0.4
				C56.6,96.7,56.5,96.8,56.4,96.8z"/>
		</g>
		<g>
			<path fill="#002031" d="M60.6,96.2C60.6,96.2,60.6,96.2,60.6,96.2c-0.2-0.1-0.3-0.2-0.2-0.3c0.2-0.4,0.5-0.6,0.9-0.6
				c0.4,0,0.8,0.1,1,0.4c0.1,0.1,0.1,0.2,0,0.3c-0.1,0.1-0.2,0.1-0.3,0c-0.1-0.2-0.4-0.3-0.6-0.3c-0.2,0-0.5,0.2-0.6,0.4
				C60.8,96.2,60.7,96.2,60.6,96.2z"/>
		</g>
		<g>
			
				<rect x="73.6" y="118.1" transform="matrix(0.9445 -0.3284 0.3284 0.9445 -39.6275 31.6369)" fill="#FFFFFF" width="0.4" height="30"/>
		</g>
		<g>
			<path fill="#C26E5E" d="M81.1,79.6l-2.6-3.8c-0.2-0.3-0.2-0.7,0.1-1l0,0c0.2-0.2,0.6-0.2,0.9-0.1l1.9,1.2l-0.3-4.2
				c0-0.5,0.4-1,0.9-1l0,0c0.4,0,0.8,0.3,0.9,0.7l0.9,4.4l0.2-4.7c0-0.5,0.4-0.9,1-0.9l0,0c0.5,0,0.9,0.4,1,0.9L86,76l1.1-3.8
				c0.2-0.7,1-0.9,1.5-0.5l0,0c0.3,0.2,0.4,0.6,0.4,1l-0.7,3.9l0.9-1.5c0.3-0.5,1.1-0.4,1.3,0.2l0,0c0.1,0.2,0,0.4-0.1,0.6l-2.1,3.8
				H81.1z"/>
		</g>
		<g>
			<path fill="#002031" d="M83.1,79.2C83.1,79.2,83.1,79.2,83.1,79.2c-0.1,0-0.2-0.1-0.2-0.2c0.2-1.4-0.5-1.9-0.6-1.9
				c-0.1-0.1-0.1-0.2-0.1-0.3c0.1-0.1,0.2-0.1,0.3-0.1c0,0,1,0.6,0.7,2.3C83.3,79.1,83.2,79.2,83.1,79.2z"/>
		</g>
		<g>
			<circle fill="#002031" cx="47.7" cy="96.6" r="2.8"/>
		</g>
		<g>
			<circle fill="#002031" cx="48.7" cy="92.8" r="3.2"/>
		</g>
		<g>
			<circle fill="#002031" cx="52.8" cy="88.8" r="3.7"/>
		</g>
		<g>
			<circle fill="#002031" cx="58.4" cy="88.4" r="2.5"/>
		</g>
	</g>
	<g>
		<path fill="#59ACF5" d="M45.8,154.2l-4.6,56.5c0,0,15.8,7.7,29.8,7.5v8.6c0,0,17.9,12.6,43.7,3.9c0,0,28.5,8,50.1-3.9l-0.2-6.4
			c0,0,22.5-1.6,31-9.7l-1.6-56L45.8,154.2z"/>
	</g>
	<g>
		<g>
			<ellipse fill="#C8E7FC" cx="119.9" cy="154.8" rx="74.1" ry="8.5"/>
		</g>
	</g>
	<g>
		<path fill="#FFFFFF" d="M119,152.5c-2.6,0-7.4-0.3-7.4-1.5c0-1.2,4.9-1.5,7.4-1.5s7.4,0.3,7.4,1.5
			C126.4,152.2,121.6,152.5,119,152.5z M119,149.9c-4.5,0-7,0.7-7,1.1c0,0.4,2.5,1.1,7,1.1c4.5,0,7-0.7,7-1.1
			C126,150.6,123.5,149.9,119,149.9z"/>
	</g>
	<g>
		<path fill="#FFFFFF" d="M150.1,157.1c-2.6,0-7.4-0.3-7.4-1.5c0-1.2,4.9-1.5,7.4-1.5s7.4,0.3,7.4,1.5
			C157.5,156.8,152.6,157.1,150.1,157.1z M150.1,154.5c-4.5,0-7,0.7-7,1.1c0,0.4,2.5,1.1,7,1.1c4.5,0,7-0.7,7-1.1
			C157.1,155.2,154.6,154.5,150.1,154.5z"/>
	</g>
	<g>
		<g>
			<path fill="#FFFFFF" d="M86,156.7c-2.7,0-7.7-0.3-7.7-1.6c0-1.3,5-1.6,7.7-1.6c2.7,0,7.7,0.3,7.7,1.6
				C93.7,156.4,88.6,156.7,86,156.7z M86,154c-4.7,0-7.2,0.8-7.2,1.2c0,0.4,2.6,1.2,7.2,1.2s7.2-0.8,7.2-1.2
				C93.2,154.7,90.7,154,86,154z"/>
		</g>
	</g>
	<g>
		<g>
			<path fill="#DCEEFD" d="M90.9,155.2h-9.8c-0.5,0-0.9-0.4-0.9-0.9v-13.5c0-0.2,0.2-0.4,0.4-0.4h10.6c0.2,0,0.4,0.2,0.4,0.4v13.5
				C91.7,154.8,91.3,155.2,90.9,155.2z"/>
		</g>
		<g>
			
				<rect x="85.6" y="142.5" transform="matrix(0.8983 0.4395 -0.4395 0.8983 72.1969 -23.6562)" fill="#FFFFFF" width="3.1" height="3.1"/>
		</g>
		<g>
			<rect x="81.5" y="144.8" fill="#FE6F43" width="8.8" height="8.8"/>
		</g>
		<g>
			
				<rect x="82.1" y="143.6" transform="matrix(0.9563 -0.2924 0.2924 0.9563 -38.7917 30.8181)" fill="#FFFFFF" width="3.1" height="3.1"/>
		</g>
		<g>
			
				<rect x="86" y="146.1" transform="matrix(0.8983 0.4395 -0.4395 0.8983 73.7789 -23.4618)" fill="#F0ECEC" width="3.1" height="3.1"/>
		</g>
		<g>
			<polygon fill="#F0ECEC" points="85.6,146.2 82.7,147.1 82,144.8 85.2,144.8 			"/>
		</g>
	</g>
	<g>
		<g>
			<path fill="#DCEEFD" d="M134.8,131h-25.6c-2.1,0-3.8-1.7-3.8-3.8v0c0-2.1,1.7-3.8,3.8-3.8h25.6c2.1,0,3.8,1.7,3.8,3.8v0
				C138.6,129.3,136.9,131,134.8,131z"/>
		</g>
		<g>
			<path fill="#F17277" d="M119.4,102c1.3,1.6,3.8,1.5,5.6,2.5c1,0.6,1.8,1.5,2.4,2.5c0.8,1.4,1.2,3.1,0.9,4.7
				c-0.3,1.6-1.5,3-3.1,3.5L119.4,102z"/>
		</g>
		<g>
			<path fill="#F17277" d="M106.6,88.1c-1.7,0-3.3,0.6-4.5,1.8c-0.9,0.9-1.6,2.1-2,3.3c-1.2,3.4-0.9,7.2,0.5,10.5
				c1,2.3,2.6,4.5,2.9,7c0.2,2.6-0.9,5.1-0.6,7.6c0.4,3.2,2.9,5.6,5.3,7.7c0.1-0.8,0.8-1.4,1.5-1.9c2.1-1.4,4.5-2.5,7-3.3
				c1.1-0.3,2.3-0.6,3-1.5c0.5-0.6,0.7-1.3,0.9-2c0.5-2,1-4.1,0.8-6.1c-0.3-3.5-2.1-6.6-3.5-9.8C115.6,96.8,113.1,88.3,106.6,88.1z"
				/>
		</g>
		<g>
			<path fill="#F17277" d="M124.6,96c0.3,5.3-4.3,8.8-9.2,9.1s-8.4-2.7-8.7-8c-0.3-5.3,3.4-9.8,8.4-10.1S124.3,90.7,124.6,96z"/>
		</g>
		<g>
			<path fill="#F4C9DB" d="M126.3,111l13.3-5.7l3.7-22.4l5.7,0.2l-1.5,25.9c-0.1,1.2-0.7,2.3-1.8,2.9l-16.3,9.2L126.3,111z"/>
		</g>
		<g>
			<path fill="#1540EB" d="M133.1,123.5l4-4.8l-0.7-12c0,0-9.5,3.5-12.1,4.5l-14.4,5.1l0,0l-5.2,1.7c-2.1,0.7-3.6,2.4-4,4.6l-2,11.2
				h9.1l-1.6,13.1l25.6-0.4l1.8-17.5c0.1-0.9,0-1.7-0.1-2.6L133.1,123.5z"/>
		</g>
		<g>
			<path fill="#F4C9DB" d="M98.9,133.7l-1.7,9.1c-0.5,2.8,1.7,5.4,4.6,5.3l17.6-0.7l1.2-4.9l-13.2-1.8l0.8-7H98.9z"/>
		</g>
		<g>
			<path fill="#F4C9DB" d="M109.7,96.3c0.3,4.3,4.7,7.6,9,7.7c4.9,0.2,7.7-3.5,6.5-8.6c-0.9-4.2-4.1-7.6-8.4-7.3
				C112.6,88.4,109.4,92,109.7,96.3z"/>
		</g>
		<g>
			<path fill="#F4C9DB" d="M112.6,101.5l1.5,13.3c0,0,6.8,2.1,9.6-3.4l-3.7-8.1L112.6,101.5z"/>
		</g>
		<g>
			<polygon fill="#EDA7C5" points="121.4,106.1 120.4,104 118.1,104.1 			"/>
		</g>
		<g>
			<path fill="#F4C9DB" d="M112.1,100c0.5,1.1,1.5,1.6-0.1,2.1c-1.1,0.4-2.3,0-2.8-1.1c-0.5-1.1,0-2.3,1.1-2.8
				C111.4,97.7,111.6,98.9,112.1,100z"/>
		</g>
		<g>
			<path fill="#F17277" d="M109.9,98.4c0,0,0.9-0.7,1.9,0.6l0.4-0.2c0.4-0.2,0.6-0.7,0.5-1.1l-2.1-6.6l-1.7,2.7
				C108.9,93.8,109.1,98.1,109.9,98.4z"/>
		</g>
		<g>
			<path fill="#F17277" d="M110.6,88.3c1.3-1.3,3.1-2.3,5.4-2.6c3.4-0.4,6.6,1.6,8.1,4.6l0.9,1.9L114.9,95l-2-2.6l0.9,3.2l-5.5,1.7
				l0,0C107.4,94,108.3,90.6,110.6,88.3z"/>
		</g>
		<g>
			<path fill="#FFFFFF" d="M107.9,94c-0.1,0-0.2-0.1-0.2-0.2c0-0.1-0.2-3,2.3-5.3c0.1-0.1,0.2-0.1,0.3,0c0.1,0.1,0.1,0.2,0,0.3
				c-2.3,2.2-2.1,4.9-2.1,5C108.1,93.9,108.1,94,107.9,94C107.9,94,107.9,94,107.9,94z"/>
		</g>
		<g>
			<path fill="#002031" d="M108.2,133.9C108.2,133.9,108.2,133.9,108.2,133.9c-0.2,0-0.2-0.1-0.2-0.3l1.1-8.2c0-0.1,0.1-0.2,0.2-0.2
				c0.1,0,0.2,0.1,0.2,0.2l-1.1,8.2C108.4,133.8,108.3,133.9,108.2,133.9z"/>
		</g>
		<g>
			<path fill="#002031" d="M109.1,127.8c0,0-0.1,0-0.1-0.1c-0.1-0.1-0.1-0.2,0-0.3l1.3-1.5c0.1-0.1,0.2-0.1,0.3,0
				c0.1,0.1,0.1,0.2,0,0.3l-1.3,1.5C109.2,127.8,109.1,127.8,109.1,127.8z"/>
		</g>
		<g>
			<path fill="#FFFFFF" d="M107.1,141.8C107.1,141.8,107.1,141.8,107.1,141.8c-0.2,0-0.2-0.2-0.2-0.3l0.2-0.5l-0.6,0.3
				c-0.1,0.1-0.2,0-0.3-0.1c-0.1-0.1,0-0.2,0.1-0.3l1-0.5c0.1,0,0.2,0,0.2,0c0.1,0.1,0.1,0.1,0.1,0.2l-0.3,1
				C107.3,141.8,107.2,141.8,107.1,141.8z"/>
		</g>
		<g>
			<path fill="#FFFFFF" d="M129.1,147h-5.4l-1-13.3c0-0.3,0.2-0.6,0.6-0.6h6.7c0.3,0,0.6,0.3,0.6,0.6L129.1,147z"/>
		</g>
		<g>
			<polygon fill="#C26E5E" points="123.6,135.5 129.7,135.5 128.7,144.6 124.3,144.6 			"/>
		</g>
		<g>
			<path fill="#F4C9DB" d="M120.6,142.4l0.5-1.5c0.2-0.5,0.7-0.8,1.2-0.8l7.6,0c0.5,0,0.9,0.4,0.8,0.9l-0.9,6.3l-10.4,0.1
				L120.6,142.4z"/>
		</g>
		<g>
			<path fill="#F4C9DB" d="M143.4,83.8l-3.2-4.1c-0.2-0.3-0.2-0.7,0.1-0.9l0,0c0.2-0.2,0.6-0.2,0.8-0.1l1.9,1.1l-0.3-4
				c0-0.5,0.4-0.9,0.9-0.9l0,0c0.4,0,0.8,0.3,0.8,0.7l0.8,4.2l0.2-4.5c0-0.5,0.4-0.9,0.9-0.9l0,0c0.5,0,0.9,0.4,0.9,0.9l0.1,4.4
				l1-3.6c0.2-0.6,1-0.9,1.5-0.5l0,0c0.3,0.2,0.4,0.6,0.4,0.9l-0.7,3.8l0.9-1.4c0.3-0.5,1.1-0.4,1.2,0.1l0,0c0.1,0.2,0,0.4,0,0.5
				l-3.2,4.9L143.4,83.8z"/>
		</g>
		<g>
			<path fill="#FFFFFF" d="M133.2,123.6c-0.1,0-0.2-0.1-0.2-0.2l-0.7-3.3c0-0.1,0.1-0.2,0.2-0.3c0.1,0,0.2,0.1,0.3,0.2l0.7,3.3
				C133.4,123.5,133.4,123.6,133.2,123.6C133.2,123.6,133.2,123.6,133.2,123.6z"/>
		</g>
		<g>
			<path fill="#002031" d="M145.4,83.3C145.3,83.3,145.3,83.3,145.4,83.3c-0.1,0-0.2-0.1-0.2-0.2c0.2-1.4-0.5-1.9-0.6-1.9
				c-0.1-0.1-0.1-0.2-0.1-0.3c0.1-0.1,0.2-0.1,0.3-0.1c0,0,1,0.6,0.7,2.3C145.6,83.2,145.5,83.3,145.4,83.3z"/>
		</g>
		<g>
			<path fill="#002031" d="M121.1,98.2c-0.1,0-0.2-0.1-0.2-0.2c0-0.1,0-0.2,0.2-0.3c0.1,0,0.6-0.2,0.7-0.5c0.1-0.2-0.4-0.9-0.6-1.4
				c-0.2-0.4-0.4-0.7-0.5-0.9c0-0.1,0-0.2,0.1-0.3c0.1,0,0.2,0,0.3,0.1c0.1,0.2,0.3,0.5,0.5,0.9c0.5,0.8,0.8,1.4,0.7,1.7
				C121.9,98,121.2,98.2,121.1,98.2C121.1,98.2,121.1,98.2,121.1,98.2z"/>
		</g>
		<g>
			<circle fill="#002031" cx="118.9" cy="96" r="0.4"/>
		</g>
		<g>
			<circle fill="#002031" cx="122.4" cy="94.9" r="0.4"/>
		</g>
		<g>
			<path fill="#FFFFFF" d="M118.9,98.9l3.4,0.1c0.2,0,0.3,0.2,0.2,0.3c-0.6,0.7-2.1,2.3-3.8-0.1C118.6,99.1,118.7,98.9,118.9,98.9z"
				/>
		</g>
	</g>
	<g>
		<g>
			<path fill="#DCEEFD" d="M292.5,230.6c0,1.7-31.8,3.1-54.5,3.1s-43.2-1.4-43.2-3.1c0-1.7,20.5-3.1,43.2-3.1
				S292.5,228.9,292.5,230.6z"/>
		</g>
		<g>
			<g>
				<path fill="#002031" d="M225.6,73.5l5-1.8l-0.1-0.2l0.9,0.1c0,0,0,0,0.1,0l0.1,0l0,0c0.7,0.1,1.3,0.5,1.5,1.2l4.8,14.1
					c0.3,1-0.2,2.1-1.2,2.4l-5.1,1.8c-1,0.4-2.1-0.2-2.4-1.2L224.4,76C224,75,224.6,73.9,225.6,73.5z"/>
			</g>
			<g>
				<path fill="#1540EB" d="M235.6,89.3l-5.1,1.8c-1,0.4-2.1-0.2-2.4-1.2l-4.8-14.1c-0.3-1,0.2-2.1,1.2-2.4l5.1-1.8
					c1-0.4,2.1,0.2,2.4,1.2l4.8,14.1C237.1,87.9,236.6,89,235.6,89.3z"/>
			</g>
		</g>
		<g>
			<path fill="#DD933C" d="M230.1,80.7l-5.2,2.8c-1.5,1-2.2,2.8-1.8,4.5l2.2,7.8l6.6-2.6l-1.5-4.7l2.7-2.3L230.1,80.7z"/>
		</g>
		<g>
			<path fill="#002031" d="M227.9,84.4c-0.1,0-0.1,0-0.2-0.1c-0.1-0.1,0-0.2,0.1-0.3l3.1-1.9c0.1-0.1,0.2,0,0.3,0.1
				c0.1,0.1,0,0.2-0.1,0.3l-3.1,1.9C228,84.4,228,84.4,227.9,84.4z"/>
		</g>
		<g>
			<path fill="#002031" d="M229.2,86.4c-0.1,0-0.1,0-0.2-0.1c-0.1-0.1,0-0.2,0.1-0.3l2.9-1.9c0.1-0.1,0.2,0,0.3,0.1
				c0.1,0.1,0,0.2-0.1,0.3l-2.9,1.9C229.3,86.4,229.2,86.4,229.2,86.4z"/>
		</g>
		<g>
			<path fill="#002031" d="M271.9,63.3c-0.6-0.6-3.5-2.7-4.2-3c-0.9-0.4-2-0.5-2.7,0.1c-0.4,0.3-0.6,0.9-0.6,1.4
				c-0.2,1.3,0.4,2.7,1.4,3.5c-0.8-0.7-1.8-1.4-2.8-1.1c-1.2,0.3-1.7,1.9-1.3,3c0.4,1.1,1.5,1.9,2.6,2.5L271.9,63.3z"/>
		</g>
		<g>
			<path fill="#002031" d="M280.3,76.1c0,0-0.3,3.9-3,3.9l-0.1-3.6L280.3,76.1z"/>
		</g>
		<g>
			<path fill="#F17277" d="M276.7,88.2l-9.4,0.1l-9.6,3c-1.3,0.4-2.5,1.1-3.5,2.1l-15.4,15.2l-7.3-17.5l-7.1,2.4
				c0,0,4.1,14.7,7.5,22.4c2,4.6,6.1,5.1,9.1,3.5c4.8-2.5,9.2-5.8,12-8.1l-2.2,11.4l-1.2,6.1l34-0.4l1.8-40.5L276.7,88.2z"/>
		</g>
		<g>
			<polygon fill="#DD933C" points="278,73.2 276.8,88.2 267.1,88.3 270.3,77.3 			"/>
		</g>
		<g>
			<path fill="#DD933C" d="M280,71.2c0.2,4.6-4,8.6-8.5,9.4c-5.2,0.9-8.5-2.6-8-8.2c0.4-4.5,3.3-8.5,7.8-8.8
				C275.9,63.2,279.8,66.6,280,71.2z"/>
		</g>
		<g>
			<path fill="#002031" d="M267.9,74.3C267.9,74.3,267.9,74.3,267.9,74.3c-0.1,0-0.9-0.1-1.1-0.7c-0.2-0.3,0.1-0.9,0.5-1.9
				c0.2-0.4,0.3-0.8,0.4-1c0-0.1,0.1-0.2,0.3-0.2c0.1,0,0.2,0.1,0.2,0.3c-0.1,0.3-0.2,0.6-0.4,1.1c-0.2,0.5-0.6,1.3-0.5,1.5
				c0.1,0.3,0.6,0.4,0.8,0.4c0.1,0,0.2,0.1,0.2,0.3C268.1,74.2,268,74.3,267.9,74.3z"/>
		</g>
		<g>
			<polygon fill="#D17B26" points="268.5,83.3 269.1,81.4 272.4,81.3 			"/>
		</g>
		<g>
			<path fill="#DD933C" d="M277.5,75.3c-0.3,1.2-0.8,1.9,0.4,2.2s2.5-0.4,2.8-1.6s-0.4-2.5-1.6-2.8
				C277.9,72.9,277.8,74.1,277.5,75.3z"/>
		</g>
		<g>
			<path fill="#002031" d="M272.4,70c-0.1,0-0.2-0.1-0.2-0.1c-0.2-0.6-0.8-1-1.5-1.1c-0.1,0-0.2-0.1-0.2-0.2c0-0.1,0.1-0.2,0.2-0.2
				c0.8,0.1,1.5,0.6,1.8,1.4C272.7,69.8,272.6,69.9,272.4,70C272.5,70,272.4,70,272.4,70z"/>
		</g>
		<g>
			<path fill="#002031" d="M265.1,69.5c-0.1,0-0.1,0-0.2-0.1c-0.1-0.1-0.1-0.2,0-0.3c0.6-0.5,1.6-0.6,2.3-0.2
				c0.1,0.1,0.2,0.2,0.1,0.3c-0.1,0.1-0.2,0.2-0.3,0.1c-0.6-0.3-1.3-0.2-1.8,0.2C265.2,69.5,265.2,69.5,265.1,69.5z"/>
		</g>
		<g>
			<path fill="#002031" d="M263.8,70.8l-0.1,2.6c0,0.7,0.6,1.3,1.3,1.3l0.2,0c0.4-0.3,1-0.5,1.5-0.5l3,0.1c0.8,0,1.6,0.4,2.1,1
				l0.1,0.1c0.5,0.6,1.2,0.9,1.9,0.8l0,0c0.8-0.1,1.5-0.5,1.9-1.3l1.7-3.7l1.6,2.1l-2,5.1c-0.7,1.7-2.4,2.9-4.2,2.9l-6,0.2
				c-1,0-2.1-0.3-2.9-1l0,0c-1.2-1-1.8-2.6-1.5-4.2L263.8,70.8z"/>
		</g>
		<g>
			<path fill="#FFFFFF" d="M269.7,75.5l-2.9-0.1c-0.2,0-0.3,0.2-0.2,0.3c0.4,0.7,1.7,2.1,3.3,0.1C270,75.6,269.9,75.5,269.7,75.5z"
				/>
		</g>
		<g>
			<path fill="#DD933C" d="M301.2,43.4l-1.8-4.8c-0.1-0.4,0-0.9,0.3-1.1l0,0c0.3-0.2,0.6-0.2,0.9,0.1l1.7,1.7l0.6-5
				c0.1-0.6,0.6-1.1,1.1-1h0c0.4,0.1,0.7,0.5,0.7,1l0,5.3l1.1-5.4c0.1-0.6,0.6-1,1.1-0.9v0c0.5,0.1,0.9,0.6,0.8,1.3l-0.8,5.4
				l1.8-4.2c0.3-0.8,1.2-0.9,1.6-0.3v0c0.2,0.3,0.3,0.8,0.2,1.2l-1.5,4.5l1.2-1.6c0.4-0.6,1.2-0.3,1.2,0.4l0,0c0,0.2,0,0.5-0.2,0.7
				l-2.8,4.1L301.2,43.4z"/>
		</g>
		<g>
			<path fill="#002031" d="M276.2,67.1c-0.8,0.1-1.6-0.2-2.4-0.5c-1.3-0.5-2.5-1.1-3.6-2c-1.1-0.8-2-2-2.4-3.3
				c-0.2-0.6-0.2-1.3,0-1.9c0.2-0.6,0.7-1.1,1.3-1.3c0.6-0.1,1.2,0.1,1.7,0.5s0.9,0.9,1.2,1.4c0.3,0.5,0.7,1,1,1.4
				c-0.4-0.6-0.7-1.4-0.7-2.1c0-0.5,0.1-1,0.4-1.4c0.4-0.4,1-0.5,1.6-0.4c0.6,0.1,1,0.4,1.4,0.8c0.9,0.8,1.4,2,1.7,3.1
				c0.3,1.2,0.3,2.4,0.3,3.6c0.1-0.4,0.3-0.8,0.6-1.1c0.3-0.3,0.8-0.5,1.2-0.4c0.2,0.1,0.4,0.2,0.5,0.4c1.1,1.1,1.4,2.6,1.5,4.1
				c0.1,0.7,0.1,1.3-0.1,2c-0.2,0.9-1.1,3.9-1.4,3.9C278.2,73.8,275.5,70.5,276.2,67.1z"/>
		</g>
		<g>
			<polygon fill="#104A4A" points="251.7,128.7 252.9,174.5 264,218.1 280.7,218.1 271.6,171.8 269.9,128.5 			"/>
		</g>
		<g>
			<defs>
				<polygon id="SVGID_1_" points="251.7,128.7 252.9,174.5 264,218.1 280.7,218.1 271.6,171.8 269.9,128.5 				"/>
			</defs>
			<clipPath id="SVGID_2_">
				<use xlink:href="#SVGID_1_"  overflow="visible"/>
			</clipPath>
			<g clip-path="url(#SVGID_2_)">
				<path fill="#2C5F5F" d="M270.3,187.3c0-0.4-0.1-0.9-0.3-1.2c-0.5-1.1-1.2-2.2-2.3-2.6c-1.2-0.5-2.1-0.6-3.1-1.6
					c-0.8-0.9-1.5-1.9-2.4-2.7c-2.3-2-5.7-2.2-8.8-2.2c-0.4,0-0.9,0-1.3,0.2c-0.7,0.4-1,1.3-1,2.1c0.2,2.4,2.4,3.9,4.3,5.3
					c1.9,1.3,3.7,2.7,5.8,3.7c2.1,1,4.4,1.6,6.6,1.2C268.9,189.1,270.2,188.4,270.3,187.3z M262,166.6c-0.5-1.4-1.9-2.3-3-3.3
					c-1.5-1.4-2.7-3.1-4.3-4.4c-0.7-0.6-1.5-1-2.4-1.1c-0.9-0.1-1.9,0.3-2.2,1.2c-0.4,1.1,0.4,2.3,1.2,3.2l0.9,1.3
					c1.6,2,3.5,3.8,5.7,5.3c0.5,0.4,1.1,0.7,1.8,0.8c0.6,0.1,1.4,0.1,1.9-0.4C262.3,168.6,262.4,167.5,262,166.6z M268.2,151.7
					c-0.7-0.8-2-0.8-3.1-0.5c-0.8,0.2-1.6,0.6-2,1.3c-0.5,0.9-0.2,2,0.2,2.9c1.1,2.5,2.9,4.8,5.3,6c1.8,0.9,3.8,1.2,5.7,2
					c2.4,1,4.3,2.8,6,4.7c1.4,1.7,2.4,4.4,5.1,3.6c0.7-0.2,1.3-0.7,1.5-1.5c0.1-0.4,0-0.9-0.1-1.3c-1.5-5.9-6.7-10.7-12.7-11.5
					c-0.9-0.1-1.8-0.2-2.7-0.5c-0.9-0.3-1.7-0.8-2.1-1.6C268.6,154.1,269,152.6,268.2,151.7z M271.4,167.6c0-1-0.4-2-1.1-2.5
					c-2-1.6-4.6,1-3.6,3.1C267.7,170.5,271.4,170.6,271.4,167.6z M278.7,217.9c0-1-0.4-2-1.1-2.5c-2-1.6-4.6,1-3.6,3.1
					C275.1,220.8,278.7,220.9,278.7,217.9z M252.8,142.9c1.8,1.5,3.5,3,5.4,4.5c1,0.8,2.4,1.6,3.5,0.9c0.7-0.4,0.9-1.4,0.8-2.2
					c-0.2-0.8-0.7-1.5-1.3-2c-1.6-1.5-3.7-2.4-4.9-4.2c-0.7-1-1-2.2-1.4-3.3c-0.5-1.4-1.1-2.8-2-4c-0.9-1.2-2.2-2.2-3.7-2.4
					c-3.3-0.7-6.3,3.1-4.9,6.3c0.7,1.5,2.3,2.3,3.7,3C249.6,140.3,251.2,141.6,252.8,142.9z M261.3,133.3c-0.4,0.9,0,2,0.6,2.8
					c1.1,1.5,2.7,2.5,4.1,3.6c1.4,1.1,2.8,2.6,3,4.4c0.2,2.1-1,5.6,1.7,6.8c2.3,1,4.3-2.7,5.1-4.3c0.6-1.3,0.9-2.7,1.1-4.2
					c0.3-1.7,0.6-3.6-0.1-5.2c-0.6-1.2-1.6-2.1-2.7-2.8c-1.6-1.1-3.5-2-5.3-2.6c-2.1-0.7-4.6-1-6.4,0.3
					C261.8,132.4,261.5,132.8,261.3,133.3z M255.6,191.9c1.1,2.3,3.3,4.4,5.2,6c0.4,0.4,0.9,0.7,1.5,0.9c0.6,0.2,1.2,0,1.6-0.4
					c0.4-0.5,0.3-1.1,0.2-1.7c-0.3-1.3-0.8-2.5-1.4-3.7c-0.4-1-0.9-2-1.6-2.8c-0.4-0.5-0.9-0.9-1.6-1.1
					C257.6,188.4,254.5,189.6,255.6,191.9z M271.3,217.8c0-0.5-0.3-1-0.4-1.5c-0.2-0.9,0.3-1.8,1-2.3c0.7-0.6,1.5-0.9,2.3-1.2
					c0.2-0.1,0.5-0.2,0.7-0.5c0.4-0.6-0.1-1.3-0.6-1.8c-1.2-1.2-2.4-2.2-3.7-3.2c-1.5-1.2-3.2-2.3-5.1-2.7c-1.9-0.5-4-0.3-5.5,0.9
					c-2.1,1.6-2.6,4.7-1.9,7.3c0.5,1.9,1.6,3.6,3.6,3.9c2.3,0.4,4.3,1.2,6.4,2.1c0.6,0.2,1.2,0.5,1.9,0.4
					C270.6,218.9,271.2,218.4,271.3,217.8z M275.5,173.4c-2-0.4-4.1,0.2-6.1,0c-1.3-0.1-2.5-0.5-3.8-0.6c-0.4,0-0.8,0-1,0.2
					c-0.2,0.2-0.3,0.4-0.3,0.7c-0.2,1.1,0.2,2.2,0.9,3c0.7,0.8,1.6,1.5,2.5,2.1c2.1,1.5,4.1,3,6,4.6c1.4,1.1,2.8,2.4,4.5,3
					c1.2,0.5,2.5,0.6,3.8,0.8c1.5,0.3,3.2,0.8,4.6,0c1.4-0.8,1.8-2.7,1.3-4.2c-0.6-1.9-2.4-2.6-3.9-3.6
					C281,177.5,278.9,174.1,275.5,173.4z M266.8,198.4c0.2,0.7,0.6,1.3,1.1,1.9c3.9,4.5,9.7,7.3,15.7,7.4c1.2,0,2.4-0.1,3.5-0.6
					c1.3-0.6,2.4-1.8,3-3.2c1-2.4,0.4-5.1-1.4-6.9c-2.2-2.2-5.1-2.2-8-2c-1.8,0.1-3.5,0-5.3-0.2c-1.8-0.3-3.7-0.8-5.5-0.4
					C268.1,194.9,266.4,196.6,266.8,198.4z"/>
			</g>
			<g clip-path="url(#SVGID_2_)">
				<polygon fill="#002031" points="271.5,169 258,193.7 257,189.1 271.6,160.9 				"/>
			</g>
		</g>
		<g>
			<path fill="#104A4A" d="M283.5,128.3l-0.8,10.8c-0.5,3.7-1,6-2.8,8.5l-14.2,25.1l-17.1,45.3l-16.3-7l17.6-46l19.7-36.6
				L283.5,128.3z"/>
		</g>
		<g>
			<defs>
				<path id="SVGID_3_" d="M283.5,128.3l-0.8,10.8c-0.5,3.7-1,6-2.8,8.5l-14.2,25.1l-17.1,45.3l-16.3-7l17.6-46l19.7-36.6
					L283.5,128.3z"/>
			</defs>
			<clipPath id="SVGID_4_">
				<use xlink:href="#SVGID_3_"  overflow="visible"/>
			</clipPath>
			<g clip-path="url(#SVGID_4_)">
				<path fill="#2C5F5F" d="M258.9,157c-0.2,0.4-0.3,0.8-0.3,1.2c0,1.2,0.1,2.5,0.9,3.4c0.9,1,1.7,1.4,2.1,2.8
					c0.4,1.2,0.5,2.4,1,3.5c1.2,2.8,4.2,4.4,6.9,5.8c0.4,0.2,0.8,0.4,1.3,0.4c0.8,0,1.5-0.7,1.8-1.5c0.9-2.2-0.4-4.6-1.6-6.6
					c-1.1-2-2.1-4.1-3.5-5.9c-1.4-1.8-3.2-3.4-5.4-4C260.9,155.9,259.5,156,258.9,157z M258.4,180.1c-0.1,1.5,0.7,2.9,1.3,4.3
					c0.8,1.9,1.1,4,1.9,5.8c0.4,0.8,0.9,1.6,1.6,2c0.8,0.5,1.8,0.5,2.5-0.1c0.9-0.8,0.7-2.2,0.4-3.4l-0.3-1.6
					c-0.5-2.5-1.5-5-2.8-7.2c-0.3-0.6-0.7-1.1-1.2-1.5c-0.5-0.4-1.2-0.7-1.8-0.5C259,178.2,258.5,179.1,258.4,180.1z M246.3,190.8
					c0.3,1.1,1.5,1.6,2.5,1.8c0.8,0.2,1.7,0.2,2.4-0.3c0.8-0.6,1-1.7,1.1-2.7c0.1-2.7-0.5-5.5-2.2-7.7c-1.2-1.6-2.9-2.7-4.2-4.2
					c-1.7-2-2.7-4.4-3.3-6.9c-0.6-2.1-0.3-5-3-5.4c-0.7-0.1-1.5,0.1-2,0.7c-0.3,0.3-0.4,0.8-0.5,1.2c-1.3,5.9,1.4,12.5,6.4,16
					c0.8,0.5,1.6,1,2.2,1.6c0.7,0.6,1.2,1.5,1.2,2.4C246.9,188.4,246,189.6,246.3,190.8z M250.4,175.1c-0.4,0.9-0.5,1.9-0.1,2.8
					c1.1,2.3,4.5,1.2,4.6-1.2C255,174.1,251.7,172.4,250.4,175.1z M270.4,131.3c-0.4,0.9-0.5,1.9-0.1,2.8c1.1,2.3,4.5,1.2,4.6-1.2
					C275,130.3,271.8,128.6,270.4,131.3z M260.2,199.9c-1-2.1-1.8-4.3-2.8-6.4c-0.6-1.2-1.5-2.5-2.7-2.4c-0.8,0.1-1.5,0.8-1.6,1.6
					c-0.2,0.8,0,1.6,0.3,2.4c0.8,2,2.3,3.8,2.6,5.9c0.2,1.2-0.1,2.4-0.2,3.6c-0.2,1.5-0.3,3,0,4.5s1,2.9,2.2,3.8
					c2.7,2.1,7,0,7.2-3.5c0.1-1.6-1.1-3.1-2-4.3C262,203.6,261.1,201.8,260.2,199.9z M244.4,210.4c0.7-0.7,0.9-1.8,0.7-2.8
					c-0.3-1.8-1.3-3.4-2.1-5c-0.8-1.6-1.4-3.6-0.7-5.3c0.8-2,3.4-4.6,1.5-6.8c-1.6-1.9-5,0.5-6.4,1.6c-1.1,0.9-2,2.1-2.8,3.2
					c-1,1.4-2.1,2.9-2.2,4.7c0,1.3,0.5,2.6,1.2,3.7c1,1.7,2.2,3.3,3.7,4.7c1.6,1.5,3.7,2.9,5.8,2.5
					C243.5,210.9,244,210.7,244.4,210.4z M253.4,213.2c0-2.5-1-5.4-2-7.7c-0.2-0.5-0.5-1.1-0.9-1.4c-0.4-0.4-1.1-0.6-1.6-0.3
					c-0.5,0.3-0.8,0.9-0.9,1.5c-0.3,1.3-0.3,2.6-0.4,3.9c0,1.1-0.1,2.1,0.2,3.2c0.2,0.6,0.4,1.2,0.9,1.7
					C250,215.5,253.3,215.8,253.4,213.2z M276.8,135.7c-0.3,0.4-0.2,1-0.3,1.5c-0.2,0.9-1.1,1.4-1.9,1.6c-0.9,0.2-1.8,0.1-2.6,0.1
					c-0.3,0-0.6,0-0.8,0.1c-0.6,0.3-0.5,1.3-0.3,1.9c0.5,1.6,1.2,3.1,1.9,4.5c0.9,1.7,1.9,3.4,3.4,4.7c1.5,1.3,3.5,2,5.4,1.6
					c2.6-0.5,4.4-3.1,4.9-5.7c0.4-2,0.1-3.9-1.6-5.1c-1.9-1.3-3.3-3-4.8-4.7c-0.4-0.5-0.9-1-1.5-1.2
					C277.9,135,277.1,135.1,276.8,135.7z M249.3,168.1c1.6,1.3,3.7,1.6,5.5,2.7c1.1,0.7,2,1.6,3.1,2.2c0.3,0.2,0.7,0.3,1,0.2
					c0.2-0.1,0.4-0.2,0.6-0.4c0.7-0.8,0.8-2,0.5-3.1c-0.2-1.1-0.8-2-1.3-3c-1.2-2.2-2.3-4.5-3.4-6.8c-0.7-1.6-1.5-3.3-2.7-4.6
					c-0.9-0.9-2-1.6-3.1-2.4c-1.2-1-2.5-2.1-4.1-2.1c-1.6,0.1-2.8,1.7-3,3.2c-0.3,1.9,1,3.4,1.9,5
					C246.1,161.9,246.5,165.9,249.3,168.1z M270.4,150.8c0.2-0.7,0-1.5-0.2-2.2c-1.5-5.8-5.5-10.9-10.8-13.6c-1.1-0.5-2.2-1-3.4-1
					c-1.5,0-2.9,0.6-4.1,1.5c-2,1.7-2.6,4.4-1.7,6.8c1,2.9,3.6,4.2,6.3,5.3c1.6,0.7,3.2,1.5,4.6,2.5c1.5,1.1,3,2.3,4.8,2.8
					C267.7,153.4,270,152.6,270.4,150.8z"/>
			</g>
		</g>
		<g>
			<polygon fill="#FFFFFF" points="252.1,160.7 251.5,160.3 264,138.3 262.1,138.3 262.1,137.6 265.2,137.6 			"/>
		</g>
		<g>
			<polygon fill="#002031" points="260.3,189.6 259.7,189.3 265.9,172.7 270.4,165.1 270.9,165.4 266.5,173 			"/>
		</g>
		<g>
			<polygon fill="#DD933C" points="235.9,212.6 233.4,219.8 241.4,223 244.6,216.3 			"/>
		</g>
		<g>
			<path fill="#DD933C" d="M267.4,218.1c0.2,0,1.3,4.5,1.3,4.5h9.4l-0.9-4.5H267.4z"/>
		</g>
		<g>
			<g>
				<circle fill="#59ACF5" cx="227.4" cy="58.8" r="7.2"/>
			</g>
			<g>
				<path fill="#FFFFFF" d="M226.9,62.4c-0.3,0-0.6-0.1-0.8-0.4l-2.7-3.4c-0.3-0.4-0.3-1,0.1-1.4c0.4-0.3,1-0.3,1.4,0.1l1.9,2.4
					l3.4-4.3c0.3-0.4,0.9-0.5,1.4-0.2c0.4,0.3,0.5,0.9,0.2,1.4l-4.2,5.2C227.4,62.3,227.2,62.4,226.9,62.4
					C226.9,62.4,226.9,62.4,226.9,62.4z"/>
			</g>
		</g>
		<g>
			<polygon fill="#FFCC00" points="267,88.1 267.6,85.8 277,85.6 274.3,128.4 258.6,128.6 264.6,89.1 			"/>
		</g>
		<g>
			<g>
				<path fill="#FFCC00" d="M266.3,219.1l-6.2,4.5l-5,1.8c-1.8,1-1.7,2.7-1.7,2.7h27.9l-1.7-7.7c-0.2-0.6-1.9-0.7-2.1-0.1
					c-0.3,1-1.6,2.2-3.1,2.3c-2.3,0.1-4.9-1.9-6.2-3.1C267.7,219,266.9,218.8,266.3,219.1z"/>
			</g>
			<g>
				<path fill="#FE6F43" d="M281.3,228.1l-1-4.8c0,0-4.9,0.2-4.2,4.8H281.3z"/>
			</g>
			<g>
				<polygon fill="#FFFFFF" points="281.8,230.8 253.4,230.8 253.2,228.1 281.4,228.1 				"/>
			</g>
			<g>
				
					<rect x="261.7" y="222.2" transform="matrix(0.2719 -0.9623 0.9623 0.2719 -24.3938 414.9904)" fill="#002031" width="0.7" height="2.9"/>
			</g>
			<g>
				
					<rect x="263.6" y="220.8" transform="matrix(0.2658 -0.964 0.964 0.2658 -20.4966 417.6486)" fill="#002031" width="0.7" height="3"/>
			</g>
		</g>
		<g>
			<g>
				<path fill="#FFCC00" d="M233.2,213.1l-7.5,1.1l-5.3-0.7c-2.1,0-2.8,1.6-2.8,1.6l24.8,12.9l2.1-7.6c0.1-0.6-1.4-1.5-1.8-1.1
					c-0.8,0.8-2.4,1.3-3.8,0.6c-2-0.9-3.4-3.9-4.1-5.6C234.6,213.6,233.9,213.1,233.2,213.1z"/>
			</g>
			<g>
				<path fill="#FE6F43" d="M242.4,228l1.3-4.7c0,0-4.5-2.1-5.9,2.3L242.4,228z"/>
			</g>
			<g>
				<polygon fill="#FFFFFF" points="241.6,230.6 216.5,217.6 217.5,215.1 242.5,228.1 				"/>
			</g>
			<g>
				
					<rect x="227.1" y="213.7" transform="matrix(0.6852 -0.7283 0.7283 0.6852 -85.1181 233.3621)" fill="#002031" width="0.7" height="2.9"/>
			</g>
			<g>
				
					<rect x="229.4" y="213.3" transform="matrix(0.6806 -0.7327 0.7327 0.6806 -84.0328 236.9178)" fill="#002031" width="0.7" height="3"/>
			</g>
		</g>
		<g>
			<polygon fill="#F17277" points="301.2,43.4 279.1,88.6 284.5,107.6 308.4,44.6 			"/>
		</g>
		<g>
			<circle fill="#002031" cx="269.9" cy="71.3" r="0.4"/>
		</g>
		<g>
			<circle fill="#002031" cx="265.7" cy="71" r="0.4"/>
		</g>
		<g>
			
				<rect x="245.2" y="111.8" transform="matrix(0.2211 -0.9753 0.9753 0.2211 87.2357 333.3897)" fill="#FFFFFF" width="14.3" height="0.7"/>
		</g>
		<g>
			<polygon fill="#002031" points="251.8,130.7 274.3,128.4 251.7,128.7 			"/>
		</g>
	</g>
	<g>
		<path fill="#A95643" d="M58.8,105.6c0,0-1.9,0.1-3.5-0.1c-0.2,0-0.2,0.2-0.1,0.3l4.5,2.6L58.8,105.6z"/>
	</g>
	<g>
		<path fill="#FFFFFF" d="M70.8,224.7C70.8,224.7,70.8,224.7,70.8,224.7c-0.1,0-0.2-0.1-0.2-0.2l1.8-43.9c0-0.1,0.1-0.2,0.2-0.2
			c0.1,0,0.2,0.1,0.2,0.2L71,224.5C71,224.6,70.9,224.7,70.8,224.7z"/>
	</g>
	<g>
		<path fill="#FFFFFF" d="M114.9,235.5c-0.1,0-0.2-0.1-0.2-0.2V187c0-0.1,0.1-0.2,0.2-0.2s0.2,0.1,0.2,0.2v48.3
			C115.1,235.4,115,235.5,114.9,235.5z"/>
	</g>
	<g>
		<path fill="#FFFFFF" d="M164.6,227.1c-0.1,0-0.2-0.1-0.2-0.2l-1-38.9c0-0.1,0.1-0.2,0.2-0.2c0,0,0,0,0,0c0.1,0,0.2,0.1,0.2,0.2
			l1,38.9C164.8,227,164.7,227.1,164.6,227.1C164.6,227.1,164.6,227.1,164.6,227.1z"/>
	</g>
</g>
</svg>
