<?xml version="1.0" encoding="utf-8"?>
<!-- Generator: Adobe Illustrator 24.3.0, SVG Export Plug-In . SVG Version: 6.00 Build 0)  -->
<svg version="1.1" id="Layer_1" xmlns="http://www.w3.org/2000/svg" xmlns:xlink="http://www.w3.org/1999/xlink" x="0px" y="0px"
	 viewBox="0 0 335 236" enable-background="new 0 0 335 236" xml:space="preserve">
<g>
	<g>
		<path fill="#DCEEFD" d="M167.5,223.8l-0.1,0c-0.2-0.1-19.5-5.3-40-23.3c-1.5-1.3-3.1-2.8-4.5-4.2c-44.6-43.1-49.3-108-45.4-154.7
			l0-0.5l0.5,0.1C78.4,41.2,130,48,167.2,8l0.3-0.3l0.3,0.3c37.2,40,88.7,33.2,89.3,33.1l0.5-0.1l0,0.5c9,108.6-38.7,154.5-68,172.2
			c-1.1,0.7-2.2,1.3-3.3,1.9c-10.8,6.1-18.6,8.1-18.6,8.2L167.5,223.8z M78.2,42.1c-3.8,46.6,1,110.8,45.2,153.6
			c1.5,1.4,3,2.8,4.5,4.2c19.6,17.2,38,22.7,39.5,23.1c1-0.3,8.3-2.4,18.3-8c1.2-0.7,2.2-1.3,3.3-1.9l0,0
			c29.1-17.5,76.4-63,67.6-170.9c-5.2,0.6-53.6,4.8-89.2-33.1C131.9,46.9,83.5,42.7,78.2,42.1z"/>
	</g>
	<g>
		<path fill="#DCEEFD" d="M185.2,199.4c-1,0.6-1.9,1.1-2.8,1.7c-9.3,5.2-15.8,6.9-15.8,6.9s-16.3-4.3-34-19.8
			c-1.3-1.1-2.6-2.3-3.9-3.6C106.6,163.3,84.2,123.8,90,52.9c0,0,44.2,6.3,76.5-28.4C198.8,59.2,243,52.9,243,52.9
			C250.7,145.3,210.2,184.3,185.2,199.4z"/>
	</g>
	<g>
		<path fill="#FE6F43" d="M170.9,66.1c1.1,2,1.2,4.4,0.5,6.6c-0.2,0.7-0.6,1.4-1.1,1.9c-0.4,0.4-1,0.7-1.6,0.8
			c-2,0.5-4.3-0.6-5.4-2.4c-1.7-2.8-1.1-6.7,1-9.1C166.5,61.5,169.7,63.9,170.9,66.1z"/>
	</g>
	<g>
		<path fill="#FE6F43" d="M134.1,63.6c-5.6-3.1-11.2-0.9-15.7,3.5c-4.6,4.6-6.1,9.6-3.7,15.4c-5.4,0.3-12,5.4-13.5,10.5
			s-0.6,10.7,1.1,15.8c-4.6,1-6.3,6.8-6.6,11.5c-0.4,6.5,0.5,14.1,6,17.8c-1.7,2.8-2.4,6.2-2.1,9.5c0.6,5.3,3.9,10.1,8.3,13
			c4.5,2.9,9.9,4,15.2,3.5c5.6-0.4,11.5-2.9,13.9-8c0.7-1.5,1.5-3.5,3.2-3.5c0.7,0,1.4,0.4,2,0.8c4.9,2.8,11,3.8,16.3,1.8
			c5.3-2,9.5-7.1,9.5-12.8c4.2,1.7,9.4,0.5,12.4-2.9c3-3.4,3.5-8.7,1.2-12.6c4.4-1.4,7.2-6.1,7.4-10.7c0.3-4.6-1.5-9.1-3.7-13.1
			c-0.8-1.4-1.6-2.8-2-4.3c-0.4-1.9,0-3.9,0.1-5.8c0.4-8.6-5.2-17.3-13.3-20.3L134.1,63.6z"/>
	</g>
	<g>
		<path fill="#F4C9DB" d="M187,119.2l29.8,12.1l-6-44.2l15.2,0.5l11.3,49.7c1.8,7.5-1.8,15.3-8.8,18.7h0c-3.9,1.9-8.4,2.2-12.5,0.9
			L185,146.8L187,119.2z"/>
	</g>
	<g>
		<path fill="#FFFFFF" d="M217.3,135c-0.2,0-0.3-0.1-0.3-0.3l-0.6-3.8c0-0.1,0-0.2,0.1-0.3c0.1-0.1,0.2-0.1,0.3,0l2.6,1.3
			c0.2,0.1,0.2,0.3,0.1,0.4c-0.1,0.2-0.3,0.2-0.4,0.1l-2-1.1l0.5,3.2C217.6,134.8,217.5,134.9,217.3,135
			C217.3,135,217.3,135,217.3,135z"/>
	</g>
	<g>
		<g>
			<path fill="#F4C9DB" d="M213.6,89.4L213.6,89.4c-1.8,0.5-3.8-0.8-4.3-2.9l-3.8-16.9l-1.5-4.4c-0.5-2.4,6.3-1.9,7.5,2l5.6,15.3
				C217.6,84.7,215.4,89,213.6,89.4z"/>
		</g>
		<g>
			<polygon fill="#F4C9DB" points="226.2,88.5 226.6,80.2 216.7,72.5 209.7,76.9 211.9,89.3 			"/>
		</g>
		<g>
			<path fill="#F4C9DB" d="M224.9,77.1l-9.2,1.6c-1.6,0.3-3.2-0.8-3.5-2.4l0,0c-0.3-1.6,0.8-3.2,2.4-3.5l9.2-1.6
				c1.6-0.3,3.2,0.8,3.5,2.4v0C227.6,75.2,226.6,76.8,224.9,77.1z"/>
		</g>
		<g>
			<path fill="#F4C9DB" d="M227.2,82.1l-9.2,1.6c-1.6,0.3-3.2-0.8-3.5-2.4v0c-0.3-1.6,0.8-3.2,2.4-3.5l9.2-1.6
				c1.6-0.3,3.2,0.8,3.5,2.4v0C229.9,80.3,228.8,81.8,227.2,82.1z"/>
		</g>
		<g>
			<path fill="#F4C9DB" d="M227.6,87.1l-4.3,0.8c-1.6,0.3-3.2-0.8-3.5-2.4v0c-0.3-1.6,0.8-3.2,2.4-3.5l4.3-0.8
				c1.6-0.3,3.2,0.8,3.5,2.4v0C230.2,85.2,229.2,86.8,227.6,87.1z"/>
		</g>
		<g>
			<path fill="#002031" d="M214.7,78.8c-0.6,0-1.2-0.2-1.7-0.6c-0.7-0.5-1.1-1.2-1.2-2c-0.2-1.5,0.8-2.8,2.3-3.2l3.4-0.8
				c0.2,0,0.4,0.1,0.4,0.2c0,0.2-0.1,0.4-0.2,0.4l-3.4,0.8c-1.1,0.3-1.9,1.3-1.8,2.4c0.1,0.6,0.4,1.2,0.9,1.6
				c0.5,0.4,1.1,0.5,1.8,0.4l11.3-2.2c0.2,0,0.3,0.1,0.4,0.3c0,0.2-0.1,0.3-0.3,0.4l-11.3,2.2C215.1,78.8,214.9,78.8,214.7,78.8z"/>
		</g>
		<g>
			<path fill="#002031" d="M215.7,84c-0.8,0-1.6-0.2-2.1-0.6c-0.6-0.4-1-1.1-1.1-1.9c-0.2-1.5,0.8-2.8,2.3-3.2l3.4-0.8
				c0.2,0,0.4,0.1,0.4,0.2c0,0.2-0.1,0.4-0.2,0.4l-3.4,0.8c-1.1,0.3-1.9,1.3-1.7,2.4c0.1,0.6,0.3,1.1,0.8,1.4
				c0.6,0.5,1.6,0.6,2.7,0.4L228,81c0.2,0,0.3,0.1,0.4,0.3c0,0.2-0.1,0.3-0.3,0.4l-11.3,2.2C216.4,84,216,84,215.7,84z"/>
		</g>
		<g>
			<path fill="#002031" d="M222.8,87.9c-0.6,0-1.2-0.2-1.7-0.6c-0.7-0.5-1.1-1.2-1.2-2c-0.2-1.5,0.8-2.8,2.3-3.2l5-1
				c0.2,0,0.3,0.1,0.4,0.3s-0.1,0.3-0.3,0.4l-5,1c-1.1,0.3-1.9,1.3-1.7,2.4c0.1,0.6,0.4,1.2,0.9,1.6c0.5,0.4,1.1,0.5,1.8,0.4L225,87
				c0.2,0,0.3,0.1,0.4,0.3c0,0.2-0.1,0.3-0.3,0.4l-1.7,0.2C223.2,87.9,223,87.9,222.8,87.9z"/>
		</g>
	</g>
	<g>
		<path fill="#237978" d="M190.5,148.8l22.1,7l-2.6-27.3l-23-9.4c-0.4-0.2-12.5-4-15.1-3.4l-54.4,11.6c-5.3,1.7-9.3,6.3-10.3,11.8
			l-4,31H125l-2.8,26.3c1.5,1.5,3,2.9,4.5,4.2c20.7,18.2,39.8,23.3,39.8,23.3s7.7-2,18.5-8.1c1.1-0.6,2.2-1.2,3.3-1.9l6.6-38.4
			c0.2-1.5,0.2-2.9,0-4.4L190.5,148.8z"/>
	</g>
	<g>
		<path fill="#478F8E" d="M162.7,149.6c9.3-2.1,18.7-3.8,28.1-5.3c6.8-1.1,13.6-2,20.5-2.5l-0.6-5.8c-3.1,0.3-6.1,0.6-9.2,0.9
			c-8.9,1-17.7,2.5-26.5,4.2c-17.1,3.3-34,7.7-50.9,12.1c-4.6,1.2-9.3,2.5-13.9,3.6c-0.3,0.1-0.6,0.1-0.9,0.2
			c3.4-1.4,6.8-2.6,10.2-3.9c8-3,16.2-5.7,24.5-7.9c16.7-4.3,33.7-7.2,50.6-10.6c4.3-0.9,8.6-1.8,12.8-3.1c0.9-0.3,1.8-0.6,2.7-0.9
			l-0.2-2l-12.8-5.2c-2.5,0.3-4.9,0.7-7.3,1c-8.5,1.3-17,3.1-25.4,5c-8.5,1.9-17,4-25.5,5.7c-4.2,0.9-8.4,1.7-12.6,2.4
			c-3.5,0.6-7.1,1.3-10.7,1.6c2.6-1.3,5.2-2.6,7.8-3.8c5.6-2.4,11.4-4.4,17.1-6.2c12.3-3.9,24.7-7.1,37.2-10.2
			c1.6-0.4,3.2-0.8,4.8-1.2c-3.9-1.1-9.1-2.4-10.7-2l-26.8,5.7c-8.1,2.4-16.1,5.1-23.8,8.4c-3.1,1.3-6,2.8-9,4.3
			c-1.5,0.8-3.2,1.6-4.5,2.8c-0.2,0.7-0.5,1.5-0.6,2.3l-0.6,4.6c2.9,1.6,6.5,1.5,9.7,1.2c3.6-0.3,7.1-1,10.6-1.6
			c1.6-0.3,3.2-0.6,4.8-0.9c-1.5,0.5-3,1-4.5,1.5c-4.5,1.5-8.9,3.2-13.3,4.8c-2.8,1.1-5.7,2.1-8.5,3.3l-1.5,11.9
			c1.4-0.2,2.8-0.5,4.2-0.8c9.1-2,18.1-4.6,27.1-7C144.4,153.9,153.5,151.6,162.7,149.6z M157.3,209.6c-1.9,1.1-3.7,2.4-5.3,3.9
			c-1,0.9-2,1.9-2.7,3.1c6.3,3.4,11.3,5.4,14.3,6.5c3.2-0.4,6.4-1,9.6-1.4c0,0,0,0,0,0c3.1-1.3,7.2-3.1,11.9-5.8
			c1.1-0.6,2.2-1.2,3.3-1.9c-2.3,0.2-4.7,0.5-7,0.7c-4.9,0.6-9.7,1.2-14.6,1.9c-3.5,0.5-7.2,1.2-10.7,1.2c1.3-1.1,2.7-2.1,4.2-3
			c3.7-2.2,7.6-4.1,11.6-5.8c6.1-2.6,12.3-4.9,18.6-7l1.1-6.6c-7.6,2.5-15.1,5.2-22.5,8.4C165.1,205.5,161.1,207.4,157.3,209.6z
			 M155.5,171.8c12.7-2.2,25.6-4.2,38.4-5.6l-1.1-5.7c-7.8,0.9-15.6,2-23.3,3.1c-8.8,1.4-17.7,2.9-26.4,4.5c-4.3,0.8-8.7,1.7-13,2.4
			c-1.7,0.3-3.5,0.6-5.2,1l-0.6,6.1c1.5-0.3,2.9-0.5,4.4-0.8C137.5,175.2,146.5,173.4,155.5,171.8z M211.3,142.1
			c-2.8,0.7-5.6,1.5-8.4,2.1c-7.8,1.9-15.7,3.6-23.5,5.4c-15.4,3.5-30.7,7.4-45.7,12.2c-4.2,1.4-8.4,2.8-12.6,4.4
			c-2.1,0.8-4.1,1.7-6.1,2.5c-1.1,0.4-2.2,0.9-3.1,1.5h13l-0.1,1c2.8-1,5.6-2,8.5-3c7.7-2.6,15.5-4.8,23.3-6.9
			c11.5-3.1,23.1-5.6,34.7-8.3l-0.8-4.2l8,2.5c1.8-0.4,3.6-0.8,5.3-1.3c2.7-0.6,5.4-1.3,8.1-2L211.3,142.1z M191.3,173.4
			c-17.3,4.5-34.5,9.7-51.2,15.9c-4.6,1.7-9.3,3.4-13.8,5.4c-1.4,0.6-2.7,1.3-4,2c1.5,1.4,2.9,2.8,4.4,4c1.7,1.5,3.3,2.9,5,4.2
			c2.8-0.4,5.5-0.8,8.3-1.3c6.9-1.2,13.7-2.5,20.5-3.8c10.4-2,20.8-4.1,31.3-5.7l1.1-6.1c-2.9,0.4-5.8,0.9-8.7,1.4
			c-13.9,2.3-27.6,5.4-41.4,7.9c-3.8,0.7-7.5,1.4-11.3,1.9c-0.1,0-0.3,0-0.4,0c3.9-1.6,7.8-3.1,11.8-4.5c8.2-3,16.6-5.8,24.9-8.4
			c8.8-2.7,17.7-5.2,26.7-7.5l0.5-3.1c0.2-1,0.2-2.1,0.1-3.1C193.8,172.8,192.6,173.1,191.3,173.4z"/>
	</g>
	<g>
		<g>
			<path fill="#002031" d="M174,146.1l-11.4,0.4l-0.1-0.5l-1.8,0.9c0,0-0.1,0-0.1,0.1l-0.1,0.1l0,0c-1.3,0.7-2.2,2.1-2.1,3.7
				l1.9,31.2c0.2,2.4,2,4,4.3,3.9l11.7-0.4c2.3-0.1,4-2,3.9-4.2l-1.9-31.2C178.2,147.8,176.3,146,174,146.1z"/>
		</g>
		<g>
			<path fill="#1540EB" d="M166.5,185.7l11.7-0.4c2.3-0.1,4-2,3.9-4.2l-1.7-32.1c-0.1-2.2-2.1-4-4.3-3.9l-11.7,0.4
				c-2.3,0.1-4,2-3.9,4.2l1.7,32.1C162.3,184.1,164.3,185.8,166.5,185.7z"/>
		</g>
	</g>
	<g>
		<path fill="#F4C9DB" d="M103.2,170.2l-2.4,25.9c-0.1,8.7,9.2,15.3,22.4,10l37.8-20.7l-4.8-12.4l-31.8,12.2l2.1-15H103.2z"/>
	</g>
	<g>
		<path fill="#F4C9DB" d="M117.5,127.4c0,0,14.1,9.9,34.6,5.8s20.7-17.5,20.7-17.5l-10,0.3c-1.9,0-3.6-1.2-4.1-3.1l-0.8-3l-22.5,5.3
			l-0.1,3.3c0,1.7-1.2,3.3-2.8,3.8L117.5,127.4z"/>
	</g>
	<g>
		<path fill="#F4C9DB" d="M136.1,88l-0.9,35.6c0,0,15.7,7.9,24.9-5.2l-5.6-21.9L136.1,88z"/>
	</g>
	<g>
		<polygon fill="#EDA7C5" points="157.1,106.4 155.5,100.6 144.8,100.2 		"/>
	</g>
	<g>
		<path fill="#F4C9DB" d="M130,77.9c-0.7,11.4,9.4,22.6,20.3,24.8c17.6,3.6,23-7.5,20-21.6c-2.4-11.4-9.5-20.2-20.6-21.1
			C138.5,59.1,130.7,66.4,130,77.9z"/>
	</g>
	<g>
		<path fill="#F4C9DB" d="M134.9,89.8c0.8,3,3.5,4.7-1,5.6c-3.1,0.6-6.2-1-7-4c-0.8-3,1-6.2,4-7S134.1,86.8,134.9,89.8z"/>
	</g>
	<g>
		<path fill="#FE6F43" d="M129.8,84.8c0,0,2.7-1.6,4.8,2.3l1-0.4c1.1-0.4,1.8-1.6,1.6-2.8l-3.1-18.1l-5.4,4.9
			C128.7,70.8,127.8,83.7,129.8,84.8z"/>
	</g>
	<g>
		<path fill="#002031" d="M126.3,170.5C126.3,170.5,126.3,170.5,126.3,170.5c-0.2,0-0.3-0.2-0.3-0.4l2.7-20.4c0-0.2,0.2-0.3,0.4-0.3
			c0.2,0,0.3,0.2,0.3,0.4l-2.7,20.4C126.6,170.3,126.5,170.5,126.3,170.5z"/>
	</g>
	<g>
		<path fill="#002031" d="M128.7,154.3c-0.1,0-0.1,0-0.2-0.1c-0.1-0.1-0.2-0.3,0-0.5l3.2-3.9c0.1-0.1,0.3-0.2,0.5,0
			c0.1,0.1,0.2,0.3,0,0.5l-3.2,3.9C128.9,154.3,128.8,154.3,128.7,154.3z"/>
	</g>
	<g>
		<path fill="#FFFFFF" d="M122.5,188.3C122.5,188.3,122.4,188.3,122.5,188.3c-0.3-0.1-0.4-0.3-0.3-0.4l0.6-1.8l-1.9,1
			c-0.2,0.1-0.4,0-0.4-0.1c-0.1-0.2,0-0.4,0.1-0.4l2.6-1.3c0.1-0.1,0.3,0,0.4,0c0.1,0.1,0.1,0.2,0.1,0.3l-0.8,2.5
			C122.8,188.2,122.7,188.3,122.5,188.3z"/>
	</g>
	<g>
		<path fill="#F4C9DB" d="M156.1,173l2.2-5.4H177c1.1,0,2,1,1.8,2.1l-1.6,9.8c-0.2,1.4-1.2,2.5-2.6,2.8l-13.7,3.2L156.1,173z"/>
	</g>
	<g>
		<path fill="#F4C9DB" d="M161,173.4l-6,0.5v-11v-1.4c0-0.3,0.2-0.9,0.4-1c1.4-0.6,3.4,0.3,3.7,1.8L161,173.4z"/>
	</g>
	<g>
		<path fill="#F4C9DB" d="M178.2,172.6h-10.1c-1.4,0-2.5-1.1-2.5-2.5l0,0c0-1.4,1.1-2.5,2.5-2.5h10.1c1.4,0,2.5,1.1,2.5,2.5l0,0
			C180.7,171.4,179.6,172.6,178.2,172.6z"/>
	</g>
	<g>
		<path fill="#F4C9DB" d="M178.2,177.5h-10.1c-1.4,0-2.5-1.1-2.5-2.5v0c0-1.4,1.1-2.5,2.5-2.5h10.1c1.4,0,2.5,1.1,2.5,2.5v0
			C180.7,176.4,179.6,177.5,178.2,177.5z"/>
	</g>
	<g>
		<path fill="#F4C9DB" d="M176.7,181.8l-9.8,2c-1.3,0.3-2.7-0.6-2.9-1.9v0c-0.3-1.3,0.6-2.7,1.9-2.9l9.8-2c1.3-0.3,2.7,0.6,2.9,1.9
			l0,0C178.9,180.2,178,181.6,176.7,181.8z"/>
	</g>
	<g>
		<path fill="#002031" d="M178.7,172.9h-8.2c-0.2,0-0.3-0.1-0.3-0.3c0-0.2,0.1-0.3,0.3-0.3h8.2c0.2,0,0.3,0.1,0.3,0.3
			C179,172.7,178.9,172.9,178.7,172.9z"/>
	</g>
	<g>
		<path fill="#002031" d="M170.3,178.5c-0.2,0-0.3-0.1-0.3-0.3c0-0.2,0.1-0.3,0.3-0.4l7.6-0.7c0.2,0,0.3,0.1,0.4,0.3
			c0,0.2-0.1,0.3-0.3,0.4L170.3,178.5C170.3,178.5,170.3,178.5,170.3,178.5z"/>
	</g>
	<g>
		<path fill="#002031" d="M191.7,154.9c-0.2,0-0.3-0.1-0.3-0.3l-1.6-8.2c0-0.2,0.1-0.3,0.3-0.4c0.2,0,0.3,0.1,0.4,0.3l1.6,8.2
			C192,154.7,191.9,154.9,191.7,154.9C191.7,154.9,191.7,154.9,191.7,154.9z"/>
	</g>
	<g>
		<path fill="#002031" d="M158.7,87.7c-0.2,0-0.4-0.1-0.4-0.3c-0.1-0.2,0.1-0.5,0.3-0.5c0.3-0.1,1.3-0.4,1.6-0.9
			c-0.4-0.9-1.9-4.4-2.3-5.7c-0.1-0.2,0.1-0.5,0.3-0.5c0.2-0.1,0.5,0.1,0.5,0.3c0.4,1.4,2.3,5.8,2.3,5.8l0.1,0.2l-0.1,0.2
			C160.6,87.2,159,87.6,158.7,87.7C158.7,87.7,158.7,87.7,158.7,87.7z"/>
	</g>
	<g>
		<path fill="#FFFFFF" d="M155.1,89.5l6.4,0.5c0.4,0,0.6,0.4,0.3,0.7c-1.1,1.4-4.1,4.2-7.2-0.5C154.5,89.8,154.7,89.5,155.1,89.5z"
			/>
	</g>
	<g>
		<path fill="#002031" d="M152.1,82.7c0,0-0.1,0-0.1,0c-0.2-0.1-0.4-0.3-0.3-0.5c0.2-0.7,0.8-1.3,1.5-1.4c0.7-0.2,1.5,0.1,2,0.6
			c0.2,0.2,0.1,0.5,0,0.6c-0.2,0.2-0.5,0.1-0.6,0c-0.3-0.3-0.7-0.4-1.1-0.4c-0.4,0.1-0.7,0.4-0.8,0.8
			C152.5,82.6,152.3,82.7,152.1,82.7z"/>
	</g>
	<g>
		<path fill="#002031" d="M161.6,81.6c0,0-0.1,0-0.1,0c-0.2-0.1-0.4-0.3-0.3-0.5c0.2-0.7,0.8-1.3,1.5-1.4c0.7-0.2,1.5,0.1,2,0.6
			c0.2,0.2,0.1,0.5,0,0.6c-0.2,0.2-0.5,0.1-0.6,0c-0.3-0.3-0.7-0.4-1.1-0.4c-0.4,0.1-0.7,0.4-0.8,0.8
			C162,81.5,161.8,81.6,161.6,81.6z"/>
	</g>
	<g>
		<path fill="#FFFFFF" d="M150.2,89.2c-0.1,0-0.1,0-0.2,0c-4.3-0.1-7.7-3.7-7.6-8c0.1-4.2,3.6-7.6,7.8-7.6c0.1,0,0.1,0,0.2,0
			c2.1,0,4,0.9,5.5,2.4c1.4,1.5,2.2,3.5,2.2,5.6c0,2.1-0.9,4-2.4,5.5C154.2,88.4,152.3,89.2,150.2,89.2z M150.2,74.5
			c-3.7,0-6.8,3-6.9,6.8c-0.1,3.8,2.9,7,6.8,7.1c1.8,0,3.6-0.6,4.9-1.9c1.3-1.3,2.1-3,2.1-4.8l0,0c0-1.8-0.6-3.6-1.9-4.9
			c-1.3-1.3-3-2.1-4.8-2.1C150.3,74.5,150.3,74.5,150.2,74.5z"/>
	</g>
	<g>
		<path fill="#FFFFFF" d="M166.7,86.2c-0.1,0-0.1,0-0.2,0c-2.1,0-4-0.9-5.5-2.4c-1.4-1.5-2.2-3.5-2.2-5.6c0-2.1,0.9-4,2.4-5.5
			c1.5-1.4,3.5-2.2,5.6-2.2c4.3,0.1,7.7,3.7,7.6,8l0,0C174.4,82.8,170.9,86.2,166.7,86.2z M166.7,71.5c-1.8,0-3.5,0.7-4.8,1.9
			c-1.3,1.3-2.1,3-2.1,4.8c0,1.8,0.6,3.6,1.9,4.9c1.3,1.3,3,2.1,4.8,2.1c3.8,0.1,7-2.9,7.1-6.8c0.1-3.8-2.9-7-6.8-7.1
			C166.8,71.5,166.8,71.5,166.7,71.5z M174.1,78.6L174.1,78.6L174.1,78.6z"/>
	</g>
	<g>
		<path fill="#FFFFFF" d="M134.9,86.4c-0.2,0-0.4-0.1-0.4-0.3c-0.1-0.2,0-0.5,0.3-0.5c0,0,0,0,8-2.3c0.2-0.1,0.5,0.1,0.5,0.3
			c0.1,0.2-0.1,0.5-0.3,0.5c0,0-7.8,2.2-7.9,2.3C135,86.4,134.9,86.4,134.9,86.4z"/>
	</g>
	<g>
		<path fill="#FFFFFF" d="M156.5,78c-0.1,0-0.2,0-0.2-0.1c-0.2-0.1-0.3-0.4-0.1-0.6c0,0,0.7-1,1.8-1.3c0.6-0.1,1.2,0,1.7,0.4
			c0.2,0.1,0.3,0.4,0.1,0.6c-0.1,0.2-0.4,0.2-0.6,0.1c-0.4-0.2-0.7-0.3-1.1-0.3c-0.7,0.1-1.2,0.9-1.2,0.9
			C156.8,77.9,156.6,78,156.5,78z"/>
	</g>
	<g>
		<path fill="#FE6F43" d="M137,57c2.1-1.9,4.6-3.6,7.4-4c0.8-0.1,1.6-0.1,2.3,0.2c2.2,1,1.9,4.3,0.6,6.3c2.1-4.1,6-7.2,10.4-8.4
			c0.9-0.2,2-0.4,2.7,0.2c0.6,0.5,0.8,1.5,0.8,2.3c0,2.3-0.8,4.7-2.2,6.6c2.2-2.8,4.6-5.9,8.2-6.5c0.8-0.1,1.7-0.1,2.4,0.3
			c1.3,0.7,1.6,2.5,1.5,4c-0.3,3.3-2.4,6.2-5.2,7.9c-7.6,4.7-19.1,3.5-21.6,2c1.4,1.3,0.3,5.6-1.1,6.9c-2.9,2.8-11.3,5.2-14.6,2.3
			C124.2,73.4,134.2,59.6,137,57z"/>
	</g>
	<g>
		<path fill="#002031" d="M164.7,151.2c-1.1,0-2-0.9-2-2s0.9-2,2-2s2,0.9,2,2S165.9,151.2,164.7,151.2z M164.7,147.9
			c-0.7,0-1.4,0.6-1.4,1.4c0,0.7,0.6,1.4,1.4,1.4c0.7,0,1.4-0.6,1.4-1.4C166.1,148.5,165.5,147.9,164.7,147.9z"/>
	</g>
	<g>
		<path fill="#FE6F43" d="M146.2,79.6c-0.1,0-0.2,0-0.2-0.1c-0.2-0.1-0.3-0.4-0.1-0.6c0.1-0.1,1.8-2.8,5.7-3.1
			c0.2,0,0.4,0.2,0.5,0.4c0,0.2-0.2,0.4-0.4,0.5c-3.4,0.2-5,2.7-5,2.7C146.5,79.6,146.3,79.6,146.2,79.6z"/>
	</g>
	<g>
		<path fill="#FE6F43" d="M167,75.1c-0.1,0-0.2,0-0.2-0.1c-2.3-1.4-4.8-0.1-4.8-0.1c-0.2,0.1-0.5,0-0.6-0.2c-0.1-0.2,0-0.5,0.2-0.6
			c0.1-0.1,3-1.6,5.7,0.1c0.2,0.1,0.3,0.4,0.1,0.6C167.3,75.1,167.2,75.1,167,75.1z"/>
	</g>
	<g>
		<path fill="#FFFFFF" d="M123.2,206.5c-0.1,0-0.2-0.1-0.3-0.2c-0.1-0.2,0-0.4,0.1-0.4l34.7-19.1c0.2-0.1,0.4,0,0.4,0.1
			c0.1,0.2,0,0.4-0.1,0.4l-34.7,19.1C123.3,206.4,123.3,206.5,123.2,206.5z"/>
	</g>
</g>
</svg>
