<svg width="16" height="16" viewBox="0 0 16 16" fill="none" xmlns="http://www.w3.org/2000/svg">
<path fill-rule="evenodd" clip-rule="evenodd" d="M7.96289 3.39988C8.42877 2.82354 8.39771 1.96896 7.86972 1.42971C7.30872 0.856763 6.39917 0.856763 5.83818 1.42971L0.420745 6.96259L0.32757 7.06724C-0.138307 7.64359 -0.107249 8.49817 0.420745 9.03741L5.83818 14.5703L5.94065 14.6654C6.50497 15.1413 7.34172 15.1095 7.86972 14.5703L7.96289 14.4656C8.42877 13.8893 8.39771 13.0347 7.86972 12.4955L4.83643 9.39754H14.5635L14.7018 9.39082C15.4303 9.31973 16 8.69302 16 7.93042C16 7.12014 15.3569 6.46329 14.5635 6.46329H4.97203L7.86972 3.50454L7.96289 3.39988Z" fill="#FFFFFF"/>
</svg>
