<svg width="12" height="8" viewBox="0 0 12 8" fill="none" xmlns="http://www.w3.org/2000/svg">
<path d="M-4.27969e-08 1.47908C-5.41363e-08 1.73849 0.0920505 1.96443 0.276151 2.14854L5.23849 7.16946C5.46444 7.40377 5.70711 7.50418 6 7.50418C6.29289 7.50418 6.53556 7.3954 6.76151 7.16946L11.7238 2.14854C11.9079 1.96444 12 1.74686 12 1.47908C12 0.935146 11.5732 0.5 11.0377 0.5C10.7699 0.5 10.5272 0.617155 10.3347 0.809623L6 5.20293L1.66527 0.809623C1.4728 0.617154 1.23013 0.5 0.962343 0.5C0.426779 0.499999 -1.90209e-08 0.935146 -4.27969e-08 1.47908Z" fill="#1540EB"/>
</svg>
