<svg width="10" height="17" viewBox="0 0 10 17" fill="none" xmlns="http://www.w3.org/2000/svg">
<path d="M1.30544 16.5C1.65132 16.5 1.95258 16.3773 2.19805 16.1318L8.89261 9.51534C9.20502 9.21409 9.33891 8.89052 9.33891 8.5C9.33891 8.10948 9.19386 7.78591 8.89261 7.48466L2.19805 0.868201C1.95258 0.622734 1.66248 0.5 1.30544 0.5C0.580195 0.5 0 1.06904 0 1.78312C0 2.14017 0.156206 2.46374 0.412831 2.72036L6.27057 8.5L0.412831 14.2796C0.156206 14.5363 0 14.8598 0 15.2169C0 15.931 0.580195 16.5 1.30544 16.5Z" fill="#383836"/>
</svg>
