<svg width="45" height="44" viewBox="0 0 45 44" fill="none" xmlns="http://www.w3.org/2000/svg">
<path d="M17.3099 13.9985L12.6433 9.33187L4.60591 1.3139C3.69653 0.406712 2.2242 0.407602 1.31591 1.31588C0.406858 2.22494 0.406858 3.69881 1.31591 4.60787L6.03992 9.33187H4.33659C3.05326 9.33187 2.00326 10.3819 2.00326 11.6652V34.9985C2.00326 36.2819 3.05326 37.3319 4.33659 37.3319H32.3366C32.8266 37.3319 33.2466 37.1452 33.6199 36.9119L39.3949 42.6869C40.3034 43.5954 41.7764 43.5954 42.6849 42.6869C43.5934 41.7784 43.5934 40.3054 42.6849 39.3969L23.6566 20.3685L17.3099 13.9985ZM6.66992 32.6652V13.9985H10.7066L29.3733 32.6652H6.66992ZM30.0033 13.9985V20.0885L44.0033 34.0885V10.4985L34.6699 19.8319V11.6652C34.6699 10.3819 33.6199 9.33187 32.3366 9.33187H19.2466L23.9133 13.9985H30.0033Z" fill="#383836"/>
</svg>
