<svg width="24" height="25" viewBox="0 0 24 25" fill="none" xmlns="http://www.w3.org/2000/svg">
<path fill-rule="evenodd" clip-rule="evenodd" d="M15.4152 10.3999C15.8333 10.7451 16.4533 10.722 16.8445 10.3308C17.2602 9.91519 17.2602 9.24129 16.8445 8.82564L12.8306 4.81174L12.7547 4.7427C12.3366 4.39752 11.7166 4.42054 11.3254 4.81174L7.31151 8.82564L7.24247 8.90156C6.89729 9.31968 6.9203 9.93964 7.31151 10.3308L7.38743 10.3999C7.80555 10.7451 8.42552 10.722 8.81672 10.3308L11.0641 8.08342L11.0641 15.2901L11.069 15.3926C11.1206 15.9323 11.5752 16.3544 12.1285 16.3544C12.7163 16.3544 13.1928 15.8779 13.1928 15.2901L13.1928 8.18389L15.3393 10.3308L15.4152 10.3999Z" fill="#383836"/>
<path d="M2 15.5C2 14.9477 2.44772 14.5 3 14.5C3.55228 14.5 4 14.9477 4 15.5V19.5C4 20.0523 4.44772 20.5 5 20.5H19C19.5523 20.5 20 20.0523 20 19.5V15.5C20 14.9477 20.4477 14.5 21 14.5C21.5523 14.5 22 14.9477 22 15.5V19.5C22 21.1569 20.6569 22.5 19 22.5H5C3.34315 22.5 2 21.1569 2 19.5V15.5Z" fill="#383836"/>
</svg>
