<svg xmlns="http://www.w3.org/2000/svg" fill="none" viewBox="0 0 24 24">
  <path stroke="currentColor" stroke-linecap="round" stroke-linejoin="round" stroke-width="2" d="m3.8 16.2-2.6 5.4 6.7-1.3a10.2 10.2 0 1 0 4.8-19 10.2 10.2 0 0 0-8.9 14.9Z"/>
  <path fill="currentColor" d="M8.4 12.6c.7 0 1.2-.5 1.2-1.2s-.5-1.2-1.2-1.2-1.2.5-1.2 1.2.5 1.2 1.2 1.2ZM12.6 12.6c.7 0 1.2-.5 1.2-1.2s-.5-1.2-1.2-1.2-1.2.5-1.2 1.2.5 1.2 1.2 1.2ZM16.8 12.6c.7 0 1.2-.5 1.2-1.2s-.5-1.2-1.2-1.2-1.2.5-1.2 1.2.5 1.2 1.2 1.2Z"/>
</svg>
