<svg xmlns="http://www.w3.org/2000/svg" width="24" height="24" fill="none" viewBox="0 0 24 24">
  <path fill="currentColor" fill-rule="evenodd" d="M21.5 0c1.3 0 2.4 1 2.5 2.4V8a1 1 0 0 1-1.9.1V2.4c0-.3-.2-.6-.6-.6H16a1 1 0 0 1-.1-1.9h5.6ZM1.9 15.9a1 1 0 0 0-1.9 0v5.6C0 23 1.2 24 2.5 24h5.6a1 1 0 0 0 0-1.9H2.4a.6.6 0 0 1-.6-.6v-5.6Zm22.1 0a1 1 0 0 0-1.9 0v5.6c0 .4-.3.6-.6.6h-5.6a1 1 0 0 0 0 1.9h5.6c1.4 0 2.5-1.2 2.5-2.5v-5.6ZM9 .9C9 .5 8.6 0 8 0H2.5A2.5 2.5 0 0 0 0 2.5v5.6a1 1 0 0 0 1.9 0V2.4c0-.4.3-.6.6-.6h5.6c.5 0 .9-.4.9-1Zm10.7 3.8c0-.2-.2-.4-.4-.4H4.7c-.2 0-.4.2-.4.4v6.1a1.2 1.2 0 0 1 0 2.4v6c0 .3.2.5.4.5h14.6c.2 0 .4-.2.4-.4v-6.1a1.2 1.2 0 0 1 0-2.4v-6ZM6 6h12v4.2c-.7.4-1 1-1 1.8a2 2 0 0 0 1 1.7V18H6v-4.3c.7-.3 1-1 1-1.7a2 2 0 0 0-1-1.7V6Zm5 1.6c.3 0 .5.1.5.4v3c0 .3-.2.5-.4.5H8a.4.4 0 0 1-.4-.4V8c0-.3.1-.4.4-.4h3Zm-.9 1.3H8.9v1.2h1.2V8.9Zm3.7 5h-1.3v-1.1c0-.2.1-.3.3-.3h1v1.3Zm2.6 2c0 .3-.2.5-.5.5H15v-1.3h1.3v.8Zm-1.3-.8h-1.3v-1.3h1.3v1.3Zm-1.3 1.3h-1a.2.2 0 0 1-.3-.2v-1h1.3v1.2Zm1.3-2.6h1.3v-1c0-.2 0-.3-.2-.3h-1v1.3ZM11.5 16c0 .3-.2.4-.4.4H8a.4.4 0 0 1-.4-.4v-3c0-.3.1-.5.4-.5h3c.3 0 .5.2.5.4V16Zm-2.6-1h1.2V14H8.9v1.2Zm3.6-7c0-.3.2-.4.4-.4H16c.3 0 .4.1.4.4v3c0 .3-.1.5-.4.5h-3a.4.4 0 0 1-.5-.4V8Zm2.6 1h-1.2V10h1.2V8.9Z" clip-rule="evenodd"/>
</svg>
