<svg xmlns="http://www.w3.org/2000/svg" width="20" height="20" fill="none" viewBox="0 0 20 20">
  <path fill="currentColor" fill-rule="evenodd" d="M8.8.9c0-.5-.4-.9-.9-.9H1C.4 0 0 .4 0 .9v7c0 .5.4.9.9.9h7c.5 0 .9-.4.9-.9V1ZM2 2h5v5H2V2Zm9.2 12.1h3v-2.9h-2.8l-.2.2v2.7Zm8.2 5.9c.3 0 .6-.3.6-.6v-2.3h-3V20h2.4Zm-2.3-3h-3v-2.9h3v3Zm-5.7 3h2.7v-3h-2.9v2.8l.2.2Zm8.6-5.9h-3v-2.9h2.8l.2.2v2.7ZM8 20c.4 0 .8-.4.8-.9v-7c0-.5-.4-.9-.9-.9H1c-.5 0-.9.4-.9.9v7c0 .5.4.9.9.9h7Zm-1-2H2v-5h5v5Zm5-18c-.4 0-.8.4-.8.9v7c0 .5.4.9.9.9h7c.5 0 .9-.4.9-.9V1c0-.5-.4-.9-.9-.9h-7Zm1 2h5v5h-5V2Z" clip-rule="evenodd"/>
</svg>
