<svg width="70" height="70" xmlns="http://www.w3.org/2000/svg" fill="none" viewBox="0 0 70 70">
  <path fill="#34C759" d="M35 68c.5 0 1.4-.1 2.2-.6 19-9.9 25-14.8 25-26.8v-25c0-3.5-1.4-4.6-4.2-5.7-4-1.6-16.4-6.2-20.2-7.5-1-.3-1.9-.4-2.8-.5-1 0-1.9.2-2.7.5-4 1.3-16.4 5.9-20.3 7.5-2.7 1-4.2 2.2-4.2 5.6v25.1c0 12 6.4 16.3 25 26.8.9.5 1.7.7 2.2.7z"/>
  <path fill="#fff" d="M44.7 29.2H25.3a2 2 0 00-2 2v15.4c0 1.1 1 2 2 2h19.4a2 2 0 002-2V31.2a2 2 0 00-2-2z"/>
  <path stroke="#fff" stroke-width="4" d="M35.6 20H34a5 5 0 00-5 5v7.4a5 5 0 005 5h1.6a5 5 0 005-5V25a5 5 0 00-5-5z"/>
</svg>
