<svg width="70" height="70" xmlns="http://www.w3.org/2000/svg" fill="none" viewBox="0 0 70 70">
  <path fill="#34C759" d="M35.2 68.1c.6 0 1.4-.2 2.2-.6 19-10 25-14.9 25-26.8V15.6c0-3.4-1.4-4.5-4.2-5.7-4-1.6-16.4-6.1-20.2-7.4-1-.3-1.8-.5-2.8-.5-1 0-1.8.2-2.7.5-3.9 1.2-16.3 5.9-20.2 7.4C9.5 11 8 12.2 8 15.6v25c0 12 6.4 16.4 25 26.9.9.4 1.7.6 2.2.6z"/>
  <path fill="#fff" d="M35 26.8a3.8 3.8 0 012.5 6.5l5.5 5.4c1.4-2.8 2.5-5.7 2.5-8.2a10.5 10.5 0 00-18-7.3l4.7 4.8c.7-.8 1.7-1.3 2.8-1.3zM41.6 41l-7-6.9-.2-.2L22.3 22a.5.5 0 00-.7 0L20.4 23c-.2.1-.2.5 0 .7l4.4 4.4c-.2.7-.3 1.5-.3 2.3 0 6.6 7.4 15.9 9.8 18.7.4.4 1 .4 1.4 0 1-1.1 2.6-3.2 4.4-5.7l4.6 4.6c.2.2.6.2.7 0l1.2-1.2c.2-.1.2-.5 0-.7l-5-5z"/>
</svg>
