<svg width="70" height="70" xmlns="http://www.w3.org/2000/svg" fill="none" viewBox="0 0 55 67">
  <path fill="#34C759" d="M27.2 66.1c.6 0 1.4-.2 2.2-.6 19-10 25-14.9 25-26.8V13.6c0-3.4-1.4-4.5-4.2-5.7-4-1.6-16.4-6.1-20.2-7.4-1-.3-1.8-.5-2.8-.5-1 0-1.8.2-2.7.5C20.6 1.7 8.2 6.4 4.3 7.9 1.5 9 0 10.2 0 13.6v25c0 12 6.4 16.4 25 26.9.9.4 1.7.6 2.2.6z"/>
  <path fill="#fff" d="M31.3 18h-14C16 18 15 19.2 15 20.8v21.4c0 1.6 1 2.8 2.2 2.8h21.6c1.2 0 2.2-1.2 2.2-2.8V27.7c0-1.1-.4-2.1-1.2-2.9l-5.6-5.6a4 4 0 00-2.9-1.2z"/>
  <circle cx="28" cy="31" r="4" fill="#34C759"/>
  <rect width="43.5" height="3" x="11.2" y="17.2" fill="#fff" rx=".5" transform="rotate(45 11.2 17.2)"/>
  <path fill="#34C759" d="M13.2 15L44 45.7 41.9 48 11 17z"/>
</svg>
