<svg width="222" height="143" fill="none" xmlns="http://www.w3.org/2000/svg" xmlns:xlink="http://www.w3.org/1999/xlink"  viewBox="0 0 335 236">
  <path fill="#DCEEFD" d="M221.4 203.4h-5.1V20.9h5.1v182.5zm-4.2-.8h3.3V21.7h-3.3v180.9z"/>
  <path fill="#DCEEFD" d="M305.2 203.5h-84.7V20.9h84.7v182.6zm-83.8-.9h82.9V21.8h-82.9v180.8z"/>
  <path fill="#DCEEFD" d="M291.9 128.3h-58.1l-.4-95.5h58.1l.4 95.5zm-57.2-.9H291l-.4-93.7h-56.4l.5 93.7z"/>
  <path fill="#DCEEFD" d="M271.5 68.8L245.2 72l-1.5-9.1 26.3-3.2z"/>
  <path fill="#DCEEFD" d="M252.2 62.4l-.8-.3 3.9-9.8 6.2 9.1-.8.5-5.2-7.8z"/>
  <path fill="#FFF" d="M253 65.5a3 3 0 00-1.4-1.6c-.6-.2-1.2-.3-1.7-.2-1.3.1-1.9 1.5-2 2.5-.1 1.1.3 2.2 1.1 3.1.5.5 1.2.9 2 .6.6-.2 1.1-.6 1.5-1.1.6-.9.8-2.3.5-3.3zm-1.6 2.4l-.3.4-.3.3-.5.2-.3-.2c-.5-.5-.8-1.2-.9-1.8 0-.4 0-.7.2-1.2l.3-.4.2-.2.2-.1.4-.1.4.1c.3.1.5.4.7.7.4.8.2 1.6-.1 2.3zM258.9 63.4c-.4-.5-1-.8-1.6-.9-.9-.1-1.7.1-2.4.4-.2.1-.4.2-.4.4-.2.1-.3.3-.2.5l.5 5.2c0 .8 1.4.8 1.4 0l-.1-2.1c1.2-.2 2.5-.5 3.1-1.6.1-.6.1-1.4-.3-1.9zm-1.2 1.3l-.1.2v.1l-.1.1-.1.1-.3.2h-.1-.1-.1l-.5.1-.5.1-.2-1.7.4-.1.4-.1H257.5l.1.1h.2v.6l-.1.3zM265.4 67.1c-.1-.3-.5-.5-.9-.4l-1.7.4-.8.1h-.1l-.1-1.1 1.6-.4c.2 0 .3-.1.4-.3l.1-.5c-.1-.3-.5-.5-.9-.4l-1.4.3-.1-1.4 2.2-.4c.4-.1.6-.5.5-.8-.1-.3-.5-.5-.9-.4l-2.7.5h-.1c-.3.1-.5.4-.4.7l.5 4.5v.2c0 .3.3.7.7.6 1.2-.1 2.5-.3 3.6-.7.4.2.6-.1.5-.5z"/>
  <path fill="#DCEEFD" d="M187.3 154.2h-140V70.5a70 70 0 01140 0v83.7zm-139.2-.9h138.2V70.5a69.2 69.2 0 00-138.2 0v82.8z"/>
  <path fill="#DCEEFD" d="M179.1 154.2H55.4V70.1a62 62 0 01123.8 0v84.1zm-122.8-.9h122V70.1a61.1 61.1 0 00-122 0v83.2z"/>
  <path fill="#DCEEFD" d="M95.5 12.5h.9v141.2h-.9zM138.7 12.5h.9v141.2h-.9z"/>
  <path fill="#DCEEFD" d="M60.5 46.2h114v.9h-114zM60.5 100.5h118.2v.9H60.5z"/>
  <path fill="#B8DCFB" d="M194.3 131.9h-35.2c-2.4 0-4.2-1.9-3.9-4.3a4.8 4.8 0 014.7-4.3h35.2c2.4 0 4.2 1.9 3.9 4.3a4.8 4.8 0 01-4.7 4.3z"/>
  <path fill="#B8DCFB" d="M162.6 150.7l-3.4.2.3-20.7 3.5-.3zM190 154l-3.4-.4 4.9-23.9 3.4.4zM168.8 153.8h-2.1l2.1-24h2.1zM172.7 153.8h-2l2.1-24h2zM176.7 153.8h-2l2.1-24h2zM180.7 153.8h-2l2.1-24h2z"/>
  <g>
	<path fill="#DCEEFD" d="M192.7 131.9h-35.2c-2.4 0-4.2-1.9-3.9-4.3a4.8 4.8 0 014.7-4.3h35.2c2.4 0 4.2 1.9 3.9 4.3a4.8 4.8 0 01-4.7 4.3z"/>
	<path fill="#DCEEFD" d="M161 150.7l-3.5.2.4-20.7 3.5-.3zM188.3 154l-3.4-.4 5-23.9 3.4.4zM167.9 153.8h-2l2.1-24h2zM171.9 153.8h-2l2.1-24h2zM175.9 153.8h-2.1l2.1-24h2.1zM179.8 153.8h-2l2.1-24h2z"/>
  </g>
  <g>
	<circle cx="45.9" cy="95.7" r="4.7" fill="#002031"/>
	<circle cx="45.9" cy="99.8" r="4.7" fill="#002031"/>
	<circle cx="49.3" cy="102.2" r="4.7" fill="#002031"/>
	<circle cx="57.8" cy="86.9" r="4.1" fill="#002031"/>
	<circle cx="60.6" cy="90.9" r="2.8" fill="#002031"/>
	<circle cx="47" cy="91.1" r="4.7" fill="#002031"/>
	<circle cx="52" cy="88.7" r="5.3" fill="#002031"/>
	<path fill="#002031" d="M46.8 101s.6 4 3.4 3.8L50 101h-3.2z"/>
	<path fill="#B8DCFB" d="M36.5 130.7h35.2c2.4 0 4.2-1.9 3.9-4.3a4.8 4.8 0 00-4.7-4.3H35.8c-2.4 0-4.2 1.9-3.9 4.3a4.6 4.6 0 004.6 4.3z"/>
	<path fill="#B8DCFB" d="M68.2 149.5l3.5.2-.4-20.7-3.4-.3zM41.2 154.4l3.4-.4-5.2-25.5-3.4.4zM62.1 152.6h2l-2.1-24h-2zM58.1 152.6h2.1l-2.1-24H56zM54.1 152.6h2.1l-2.1-24H52zM50.2 152.6h2l-2.1-24h-2z"/>
	<path fill="#DCEEFD" d="M38.2 130.7h35.2c2.4 0 4.2-1.9 3.9-4.3a4.8 4.8 0 00-4.7-4.3H37.4c-2.4 0-4.2 1.9-3.9 4.3a4.8 4.8 0 004.7 4.3z"/>
	<path fill="#DCEEFD" d="M69.9 149.5l3.4.2L73 129l-3.5-.3zM42.5 152.8l3.4-.4-4.9-23.9-3.4.4zM63 152.6h2l-2.1-24h-2zM59 152.6h2l-2.1-24h-2zM55 152.6h2l-2.1-24h-2zM51 152.6h2.1l-2.1-24h-2.1z"/>
	<path fill="#DCEEFD" d="M50.3 154.8H32.4c-.8 0-1.5-.7-1.5-1.5s.7-1.5 1.5-1.5h17.8c.8 0 1.5.7 1.5 1.5.1.8-.6 1.5-1.4 1.5z"/>
	<path fill="#FE6F43" d="M51.2 114.6l-7.6 2.9a9.7 9.7 0 00-5.5 5.4l-7.8 20.8a6 6 0 004.6 8.1l19.6 1.4 1.9-8.6-14.4-2.2 10.3-20.9-1.1-6.9z"/>
	<path fill="#FE8864" d="M34.8 151.8l19.6 1.4.5-2.1H32.8c.6.4 1.3.6 2 .7zm16.5-36.4H49l-5.5 2.1c-2 .7-3.6 2.1-4.7 3.8h13.5l-1-5.9zm-9.3 27l1.6-3.2H31.9l-1.7 4.5-.4 1.4h26.4l.1-.5-14.3-2.2zm7.5-15.1H36.3l-2.2 5.9h12.4l3-5.9z"/>
	<path fill="#FE6F43" d="M51.2 114.5l8.2-.4 8.5 1.9 11.3 32.6-29.9 3.2-5.8-34.3z"/>
	<path fill="#FE8864" d="M76 139.2H47.2l1 5.9H78l-2-5.9zM67.9 116l-2.5-.6H48.8l-5.3 2.1.6 3.8h25.5l-1.7-5.3zm-18.6 35.8l5.8-.6h-5.9l.1.6zm22.5-24.5H45.2l1 5.9h27.7l-2.1-5.9z"/>
	<path fill="#C26E5E" d="M61.3 145.6l-2.6 6 4.9.6 1.8 2.9 3.8-1.6-1.3-6.5z"/>
	<path fill="#FE6F43" d="M60.2 114.2l16.5-10.9 4.4-23.6h7.3l-2.6 25.5c-.2 1.1-.7 2-1.4 2.8l-15.5 13.4-8.7-7.2z"/>
	<path fill="#FE8864" d="M81.1 79.6l-1.1 6h7.8l.6-5.9h-7.3zm-13.7 29.8h15.3l1.7-1.4c.8-.8 1.3-1.7 1.4-2.8l.2-1.7h-9.6l-9 5.9zm10.4-11.9h8.8l.6-5.9h-8.3l-1.1 5.9zm-9 23.8l6.9-5.9h-14l7.1 5.9z"/>
	<path fill="#C26E5E" d="M49.1 98.6l2.3 15.8 8.8 4.5c.6.3 1.3-.1 1.4-.8l.1-4.4-4.1-11.5-8.5-3.6z"/>
	<path fill="#C26E5E" d="M46.8 96.7c.1 4.7 4.7 8.6 9.4 9 5.4.5 8.6-3.3 7.7-9-.8-4.6-4-8.5-8.7-8.5s-8.5 3.8-8.4 8.5z"/>
	<path fill="#002031" d="M59 99.1a.2.2 0 01-.2-.2l.2-.2c.6 0 1.3-.2 1.4-.4.1-.2-.4-1.4-.7-2l-.5-1.1.1-.3.3.1.4 1c.6 1.2.9 2 .7 2.3-.1.6-1.3.7-1.7.8zM41.8 144.3a.2.2 0 01-.2-.2l.1-1.3-1.2.6c-.1.1-.2 0-.3-.1-.1-.1 0-.2.1-.3l1.6-.7h.2l.1.2-.2 1.6c.1.1 0 .2-.2.2zM45.7 135.1c-.2-.1-.3-.2-.2-.3l1.2-2.5.4.2-1.2 2.5-.2.1z"/>
	<path fill="#FFF" d="M47.6 143.3l.1-.4 13.7 2.6-.1.4z"/>
	<g>
	  <path fill="#C26E5E" d="M49.7 100.8c.4 1.2 1 1.9-.2 2.3-1.2.4-2.6-.2-3-1.4-.4-1.2.2-2.6 1.4-3s1.3.9 1.8 2.1z"/>
	</g>
	<g>
	  <path fill="#002031" d="M54.5 94.9c-.2 0-.2-.2-.2-.3.2-.8 1-1.4 1.8-1.5l.3.2-.2.3c-.7.1-1.2.6-1.4 1.2l-.3.1z"/>
	</g>
	<g>
	  <path fill="#002031" d="M61.9 93.9h-.1c-.5-.4-1.3-.4-1.9 0-.1.1-.2 0-.3-.1-.1-.1 0-.2.1-.3.7-.4 1.7-.4 2.4.1l.1.3h-.3z"/>
	</g>
	<g>
	  <path fill="#FFF" d="M57.4 99.7l3.3.1c.2 0 .3.2.2.3-.5.7-2 2.2-3.7-.1-.1-.1 0-.3.2-.3z"/>
	</g>
	<g>
	  <path fill="#002031" d="M56.4 96.8c-.2-.1-.3-.2-.2-.3.2-.4.5-.6.9-.6s.8.1 1 .4v.3h-.3c-.1-.2-.4-.3-.6-.3-.2 0-.5.2-.6.4l-.2.1z"/>
	</g>
	<g>
	  <path fill="#002031" d="M60.6 96.2c-.2-.1-.3-.2-.2-.3.2-.4.5-.6.9-.6s.8.1 1 .4v.3H62c-.1-.2-.4-.3-.6-.3-.2 0-.5.2-.6.4l-.2.1z"/>
	</g>
	<g>
	  <path fill="#FFF" d="M68.7 119l.3-.1 9.9 28.3-.4.1z"/>
	</g>
	<g>
	  <path fill="#C26E5E" d="M81.1 79.6l-2.6-3.8a.8.8 0 01.1-1c.2-.2.6-.2.9-.1l1.9 1.2-.3-4.2c0-.5.4-1 .9-1 .4 0 .8.3.9.7l.9 4.4.2-4.7c0-.5.4-.9 1-.9.5 0 .9.4 1 .9V76l1.1-3.8a1 1 0 011.5-.5c.3.2.4.6.4 1l-.7 3.9.9-1.5c.3-.5 1.1-.4 1.3.2.1.2 0 .4-.1.6l-2.1 3.8h-7.2z"/>
	</g>
	<g>
	  <path fill="#002031" d="M83.1 79.2a.2.2 0 01-.2-.2c.2-1.4-.5-1.9-.6-1.9l-.1-.3.3-.1s1 .6.7 2.3c.1.1 0 .2-.1.2z"/>
	</g>
	<g>
	  <circle cx="47.7" cy="96.6" r="2.8" fill="#002031"/>
	</g>
	<g>
	  <circle cx="48.7" cy="92.8" r="3.2" fill="#002031"/>
	</g>
	<g>
	  <circle cx="52.8" cy="88.8" r="3.7" fill="#002031"/>
	</g>
	<g>
	  <circle cx="58.4" cy="88.4" r="2.5" fill="#002031"/>
	</g>
  </g>
  <g>
	<path fill="#59ACF5" d="M45.8 154.2l-4.6 56.5s15.8 7.7 29.8 7.5v8.6s17.9 12.6 43.7 3.9c0 0 28.5 8 50.1-3.9l-.2-6.4s22.5-1.6 31-9.7l-1.6-56-148.2-.5z"/>
  </g>
  <g>
	<ellipse cx="119.9" cy="154.8" fill="#C8E7FC" rx="74.1" ry="8.5"/>
  </g>
  <g>
	<path fill="#FFF" d="M119 152.5c-2.6 0-7.4-.3-7.4-1.5s4.9-1.5 7.4-1.5 7.4.3 7.4 1.5-4.8 1.5-7.4 1.5zm0-2.6c-4.5 0-7 .7-7 1.1 0 .4 2.5 1.1 7 1.1s7-.7 7-1.1c0-.4-2.5-1.1-7-1.1z"/>
  </g>
  <g>
	<path fill="#FFF" d="M150.1 157.1c-2.6 0-7.4-.3-7.4-1.5s4.9-1.5 7.4-1.5 7.4.3 7.4 1.5-4.9 1.5-7.4 1.5zm0-2.6c-4.5 0-7 .7-7 1.1 0 .4 2.5 1.1 7 1.1s7-.7 7-1.1c0-.4-2.5-1.1-7-1.1z"/>
  </g>
  <g>
	<path fill="#FFF" d="M86 156.7c-2.7 0-7.7-.3-7.7-1.6s5-1.6 7.7-1.6 7.7.3 7.7 1.6-5.1 1.6-7.7 1.6zm0-2.7c-4.7 0-7.2.8-7.2 1.2 0 .4 2.6 1.2 7.2 1.2s7.2-.8 7.2-1.2c0-.5-2.5-1.2-7.2-1.2z"/>
  </g>
  <g>
	<path fill="#DCEEFD" d="M90.9 155.2h-9.8a.9.9 0 01-.9-.9v-13.5c0-.2.2-.4.4-.4h10.6c.2 0 .4.2.4.4v13.5c.1.5-.3.9-.7.9z"/>
	<path fill="#FFF" d="M86.5 142l2.7 1.3-1.3 2.8-2.8-1.3z"/>
	<path fill="#FE6F43" d="M81.5 144.8h8.8v8.8h-8.8z"/>
	<path fill="#FFF" d="M81.7 144.1l3-.9.9 3-3 .9z"/>
	<path fill="#F0ECEC" d="M86.8 145.6l2.8 1.3-1.4 2.8-2.7-1.3zM85.6 146.2l-2.9.9-.7-2.3h3.2z"/>
  </g>
  <g>
	<path fill="#DCEEFD" d="M134.8 131h-25.6a3.8 3.8 0 110-7.6h25.6a3.8 3.8 0 110 7.6z"/>
	<path fill="#F17277" d="M119.4 102c1.3 1.6 3.8 1.5 5.6 2.5 1 .6 1.8 1.5 2.4 2.5a7 7 0 01.9 4.7c-.3 1.6-1.5 3-3.1 3.5l-5.8-13.2zM106.6 88.1c-1.7 0-3.3.6-4.5 1.8-.9.9-1.6 2.1-2 3.3-1.2 3.4-.9 7.2.5 10.5 1 2.3 2.6 4.5 2.9 7 .2 2.6-.9 5.1-.6 7.6.4 3.2 2.9 5.6 5.3 7.7.1-.8.8-1.4 1.5-1.9 2.1-1.4 4.5-2.5 7-3.3 1.1-.3 2.3-.6 3-1.5.5-.6.7-1.3.9-2 .5-2 1-4.1.8-6.1-.3-3.5-2.1-6.6-3.5-9.8-2.3-4.6-4.8-13.1-11.3-13.3z"/>
	<path fill="#F17277" d="M124.6 96c.3 5.3-4.3 8.8-9.2 9.1s-8.4-2.7-8.7-8c-.3-5.3 3.4-9.8 8.4-10.1s9.2 3.7 9.5 9z"/>
	<path fill="#F4C9DB" d="M126.3 111l13.3-5.7 3.7-22.4 5.7.2-1.5 25.9a3.5 3.5 0 01-1.8 2.9l-16.3 9.2-3.1-10.1z"/>
	<path fill="#1540EB" d="M133.1 123.5l4-4.8-.7-12-12.1 4.5-14.4 5.1-5.2 1.7a5.9 5.9 0 00-4 4.6l-2 11.2h9.1l-1.6 13.1 25.6-.4 1.8-17.5c.1-.9 0-1.7-.1-2.6l-.4-2.9z"/>
	<path fill="#F4C9DB" d="M98.9 133.7l-1.7 9.1a4.5 4.5 0 004.6 5.3l17.6-.7 1.2-4.9-13.2-1.8.8-7h-9.3zM109.7 96.3c.3 4.3 4.7 7.6 9 7.7 4.9.2 7.7-3.5 6.5-8.6-.9-4.2-4.1-7.6-8.4-7.3a7.6 7.6 0 00-7.1 8.2z"/>
	<path fill="#F4C9DB" d="M112.6 101.5l1.5 13.3s6.8 2.1 9.6-3.4l-3.7-8.1-7.4-1.8z"/>
	<path fill="#EDA7C5" d="M121.4 106.1l-1-2.1-2.3.1z"/>
	<path fill="#F4C9DB" d="M112.1 100c.5 1.1 1.5 1.6-.1 2.1-1.1.4-2.3 0-2.8-1.1a2 2 0 011.1-2.8c1.1-.5 1.3.7 1.8 1.8z"/>
	<path fill="#F17277" d="M109.9 98.4s.9-.7 1.9.6l.4-.2c.4-.2.6-.7.5-1.1l-2.1-6.6-1.7 2.7s.2 4.3 1 4.6z"/>
	<path fill="#F17277" d="M110.6 88.3a9.2 9.2 0 015.4-2.6 8.2 8.2 0 018.1 4.6l.9 1.9-10.1 2.8-2-2.6.9 3.2-5.5 1.7c-.9-3.3 0-6.7 2.3-9z"/>
	<path fill="#FFF" d="M107.9 94a.2.2 0 01-.2-.2c0-.1-.2-3 2.3-5.3h.3v.3c-2.3 2.2-2.1 4.9-2.1 5-.1.1-.1.2-.3.2z"/>
	<path fill="#002031" d="M108.2 133.9c-.2 0-.2-.1-.2-.3l1.1-8.2.2-.2.2.2-1.1 8.2c0 .2-.1.3-.2.3z"/>
	<path fill="#002031" d="M109.1 127.8l-.1-.1v-.3l1.3-1.5h.3v.3l-1.3 1.5-.2.1z"/>
	<path fill="#FFF" d="M107.1 141.8c-.2 0-.2-.2-.2-.3l.2-.5-.6.3c-.1.1-.2 0-.3-.1-.1-.1 0-.2.1-.3l1-.5h.2l.1.2-.3 1c0 .2-.1.2-.2.2zM129.1 147h-5.4l-1-13.3c0-.3.2-.6.6-.6h6.7c.3 0 .6.3.6.6l-1.5 13.3z"/>
	<path fill="#C26E5E" d="M123.6 135.5h6.1l-1 9.1h-4.4z"/>
	<path fill="#F4C9DB" d="M120.6 142.4l.5-1.5c.2-.5.7-.8 1.2-.8h7.6c.5 0 .9.4.8.9l-.9 6.3-10.4.1 1.2-5zM143.4 83.8l-3.2-4.1c-.2-.3-.2-.7.1-.9.2-.2.6-.2.8-.1l1.9 1.1-.3-4c0-.5.4-.9.9-.9.4 0 .8.3.8.7l.8 4.2.2-4.5c0-.5.4-.9.9-.9s.9.4.9.9l.1 4.4 1-3.6c.2-.6 1-.9 1.5-.5.3.2.4.6.4.9l-.7 3.8.9-1.4c.3-.5 1.1-.4 1.2.1v.5l-3.2 4.9-5-.6z"/>
	<path fill="#FFF" d="M133.2 123.6a.2.2 0 01-.2-.2l-.7-3.3.2-.3.3.2.7 3.3c-.1.2-.1.3-.3.3z"/>
	<path fill="#002031" d="M145.4 83.3c-.1 0-.1 0 0 0a.2.2 0 01-.2-.2c.2-1.4-.5-1.9-.6-1.9l-.1-.3.3-.1s1 .6.7 2.3c.1.1 0 .2-.1.2zM121.1 98.2a.2.2 0 01-.2-.2c0-.1 0-.2.2-.3.1 0 .6-.2.7-.5.1-.2-.4-.9-.6-1.4l-.5-.9.1-.3.3.1.5.9c.5.8.8 1.4.7 1.7-.4.7-1.1.9-1.2.9z"/>
	<circle cx="118.9" cy="96" r=".4" fill="#002031"/>
	<circle cx="122.4" cy="94.9" r=".4" fill="#002031"/>
	<path fill="#FFF" d="M118.9 98.9l3.4.1c.2 0 .3.2.2.3-.6.7-2.1 2.3-3.8-.1-.1-.1 0-.3.2-.3z"/>
  </g>
  <g>
	<path fill="#DCEEFD" d="M292.5 230.6c0 1.7-31.8 3.1-54.5 3.1s-43.2-1.4-43.2-3.1c0-1.7 20.5-3.1 43.2-3.1s54.5 1.4 54.5 3.1z"/>
	<path fill="#002031" d="M225.6 73.5l5-1.8-.1-.2.9.1h.2c.7.1 1.3.5 1.5 1.2l4.8 14.1c.3 1-.2 2.1-1.2 2.4l-5.1 1.8c-1 .4-2.1-.2-2.4-1.2L224.4 76c-.4-1 .2-2.1 1.2-2.5z"/>
	<path fill="#1540EB" d="M235.6 89.3l-5.1 1.8c-1 .4-2.1-.2-2.4-1.2l-4.8-14.1c-.3-1 .2-2.1 1.2-2.4l5.1-1.8c1-.4 2.1.2 2.4 1.2l4.8 14.1c.3 1-.2 2.1-1.2 2.4z"/>
	<path fill="#DD933C" d="M230.1 80.7l-5.2 2.8a4.2 4.2 0 00-1.8 4.5l2.2 7.8 6.6-2.6-1.5-4.7 2.7-2.3-3-5.5z"/>
	<path fill="#002031" d="M227.9 84.4l-.2-.1c-.1-.1 0-.2.1-.3l3.1-1.9c.1-.1.2 0 .3.1.1.1 0 .2-.1.3l-3.1 1.9h-.1zM229.2 86.4l-.2-.1c-.1-.1 0-.2.1-.3l2.9-1.9c.1-.1.2 0 .3.1.1.1 0 .2-.1.3l-2.9 1.9h-.1zM271.9 63.3c-.6-.6-3.5-2.7-4.2-3-.9-.4-2-.5-2.7.1-.4.3-.6.9-.6 1.4-.2 1.3.4 2.7 1.4 3.5-.8-.7-1.8-1.4-2.8-1.1-1.2.3-1.7 1.9-1.3 3 .4 1.1 1.5 1.9 2.6 2.5l7.6-6.4zM280.3 76.1s-.3 3.9-3 3.9l-.1-3.6 3.1-.3z"/>
	<path fill="#F17277" d="M276.7 88.2l-9.4.1-9.6 3a8.4 8.4 0 00-3.5 2.1l-15.4 15.2-7.3-17.5-7.1 2.4s4.1 14.7 7.5 22.4c2 4.6 6.1 5.1 9.1 3.5 4.8-2.5 9.2-5.8 12-8.1l-2.2 11.4-1.2 6.1 34-.4 1.8-40.5-8.7.3z"/>
	<path fill="#DD933C" d="M278 73.2l-1.2 15-9.7.1 3.2-11z"/>
	<path fill="#DD933C" d="M280 71.2c.2 4.6-4 8.6-8.5 9.4-5.2.9-8.5-2.6-8-8.2.4-4.5 3.3-8.5 7.8-8.8a8 8 0 018.7 7.6z"/>
	<path fill="#002031" d="M267.9 74.3c-.1 0-.9-.1-1.1-.7-.2-.3.1-.9.5-1.9l.4-1c0-.1.1-.2.3-.2.1 0 .2.1.2.3l-.4 1.1c-.2.5-.6 1.3-.5 1.5.1.3.6.4.8.4.1 0 .2.1.2.3l-.4.2z"/>
	<path fill="#D17B26" d="M268.5 83.3l.6-1.9 3.3-.1z"/>
	<path fill="#DD933C" d="M277.5 75.3c-.3 1.2-.8 1.9.4 2.2s2.5-.4 2.8-1.6-.4-2.5-1.6-2.8c-1.2-.2-1.3 1-1.6 2.2z"/>
	<path fill="#002031" d="M272.4 70l-.2-.1c-.2-.6-.8-1-1.5-1.1a.2.2 0 01-.2-.2l.2-.2c.8.1 1.5.6 1.8 1.4.2 0 .1.1-.1.2.1 0 0 0 0 0zM265.1 69.5l-.2-.1v-.3c.6-.5 1.6-.6 2.3-.2.1.1.2.2.1.3-.1.1-.2.2-.3.1-.6-.3-1.3-.2-1.8.2h-.1zM263.8 70.8l-.1 2.6c0 .7.6 1.3 1.3 1.3h.2c.4-.3 1-.5 1.5-.5l3 .1c.8 0 1.6.4 2.1 1l.1.1a2 2 0 001.9.8c.8-.1 1.5-.5 1.9-1.3l1.7-3.7 1.6 2.1-2 5.1a4.7 4.7 0 01-4.2 2.9l-6 .2c-1 0-2.1-.3-2.9-1a4.4 4.4 0 01-1.5-4.2l1.4-5.5z"/>
	<path fill="#FFF" d="M269.7 75.5l-2.9-.1c-.2 0-.3.2-.2.3.4.7 1.7 2.1 3.3.1.1-.2 0-.3-.2-.3z"/>
	<path fill="#DD933C" d="M301.2 43.4l-1.8-4.8c-.1-.4 0-.9.3-1.1.3-.2.6-.2.9.1l1.7 1.7.6-5c.1-.6.6-1.1 1.1-1 .4.1.7.5.7 1v5.3l1.1-5.4c.1-.6.6-1 1.1-.9.5.1.9.6.8 1.3l-.8 5.4 1.8-4.2c.3-.8 1.2-.9 1.6-.3.2.3.3.8.2 1.2l-1.5 4.5 1.2-1.6c.4-.6 1.2-.3 1.2.4 0 .2 0 .5-.2.7l-2.8 4.1-7.2-1.4z"/>
	<path fill="#002031" d="M276.2 67.1c-.8.1-1.6-.2-2.4-.5-1.3-.5-2.5-1.1-3.6-2-1.1-.8-2-2-2.4-3.3a3 3 0 010-1.9c.2-.6.7-1.1 1.3-1.3.6-.1 1.2.1 1.7.5s.9.9 1.2 1.4l1 1.4a4 4 0 01-.7-2.1c0-.5.1-1 .4-1.4.4-.4 1-.5 1.6-.4.6.1 1 .4 1.4.8.9.8 1.4 2 1.7 3.1.3 1.2.3 2.4.3 3.6.1-.4.3-.8.6-1.1.3-.3.8-.5 1.2-.4l.5.4c1.1 1.1 1.4 2.6 1.5 4.1.1.7.1 1.3-.1 2-.2.9-1.1 3.9-1.4 3.9-1.8-.1-4.5-3.4-3.8-6.8z"/>
	<path fill="#104A4A" d="M251.7 128.7l1.2 45.8 11.1 43.6h16.7l-9.1-46.3-1.7-43.3z"/>
	<defs>
	  <path id="a" d="M251.7 128.7l1.2 45.8 11.1 43.6h16.7l-9.1-46.3-1.7-43.3z"/>
	</defs>
	<clipPath id="b">
	  <use overflow="visible" xlink:href="#a"/>
	</clipPath>
	<g clip-path="url(#b)">
	  <path fill="#2C5F5F" d="M270.3 187.3c0-.4-.1-.9-.3-1.2-.5-1.1-1.2-2.2-2.3-2.6-1.2-.5-2.1-.6-3.1-1.6-.8-.9-1.5-1.9-2.4-2.7-2.3-2-5.7-2.2-8.8-2.2a3 3 0 00-1.3.2c-.7.4-1 1.3-1 2.1.2 2.4 2.4 3.9 4.3 5.3 1.9 1.3 3.7 2.7 5.8 3.7a11 11 0 006.6 1.2c1.1-.4 2.4-1.1 2.5-2.2zm-8.3-20.7c-.5-1.4-1.9-2.3-3-3.3-1.5-1.4-2.7-3.1-4.3-4.4-.7-.6-1.5-1-2.4-1.1-.9-.1-1.9.3-2.2 1.2-.4 1.1.4 2.3 1.2 3.2l.9 1.3c1.6 2 3.5 3.8 5.7 5.3.5.4 1.1.7 1.8.8.6.1 1.4.1 1.9-.4.7-.6.8-1.7.4-2.6zm6.2-14.9c-.7-.8-2-.8-3.1-.5-.8.2-1.6.6-2 1.3-.5.9-.2 2 .2 2.9a12 12 0 005.3 6c1.8.9 3.8 1.2 5.7 2 2.4 1 4.3 2.8 6 4.7 1.4 1.7 2.4 4.4 5.1 3.6a2 2 0 001.5-1.5c.1-.4 0-.9-.1-1.3a15.7 15.7 0 00-12.7-11.5c-.9-.1-1.8-.2-2.7-.5-.9-.3-1.7-.8-2.1-1.6-.7-1.2-.3-2.7-1.1-3.6zm3.2 15.9c0-1-.4-2-1.1-2.5-2-1.6-4.6 1-3.6 3.1 1 2.3 4.7 2.4 4.7-.6zm7.3 50.3c0-1-.4-2-1.1-2.5-2-1.6-4.6 1-3.6 3.1 1.1 2.3 4.7 2.4 4.7-.6zm-25.9-75l5.4 4.5c1 .8 2.4 1.6 3.5.9.7-.4.9-1.4.8-2.2-.2-.8-.7-1.5-1.3-2-1.6-1.5-3.7-2.4-4.9-4.2-.7-1-1-2.2-1.4-3.3a15 15 0 00-2-4 5.8 5.8 0 00-3.7-2.4c-3.3-.7-6.3 3.1-4.9 6.3.7 1.5 2.3 2.3 3.7 3 1.6.8 3.2 2.1 4.8 3.4zm8.5-9.6c-.4.9 0 2 .6 2.8 1.1 1.5 2.7 2.5 4.1 3.6 1.4 1.1 2.8 2.6 3 4.4.2 2.1-1 5.6 1.7 6.8 2.3 1 4.3-2.7 5.1-4.3.6-1.3.9-2.7 1.1-4.2.3-1.7.6-3.6-.1-5.2a7.3 7.3 0 00-2.7-2.8c-1.6-1.1-3.5-2-5.3-2.6-2.1-.7-4.6-1-6.4.3-.6.3-.9.7-1.1 1.2zm-5.7 58.6a20 20 0 005.2 6c.4.4.9.7 1.5.9.6.2 1.2 0 1.6-.4.4-.5.3-1.1.2-1.7-.3-1.3-.8-2.5-1.4-3.7-.4-1-.9-2-1.6-2.8a3 3 0 00-1.6-1.1c-1.9-.7-5 .5-3.9 2.8zm15.7 25.9c0-.5-.3-1-.4-1.5-.2-.9.3-1.8 1-2.3.7-.6 1.5-.9 2.3-1.2.2-.1.5-.2.7-.5.4-.6-.1-1.3-.6-1.8a36.8 36.8 0 00-3.7-3.2 12.6 12.6 0 00-5.1-2.7c-1.9-.5-4-.3-5.5.9-2.1 1.6-2.6 4.7-1.9 7.3.5 1.9 1.6 3.6 3.6 3.9 2.3.4 4.3 1.2 6.4 2.1.6.2 1.2.5 1.9.4.6-.3 1.2-.8 1.3-1.4zm4.2-44.4c-2-.4-4.1.2-6.1 0-1.3-.1-2.5-.5-3.8-.6-.4 0-.8 0-1 .2a1 1 0 00-.3.7c-.2 1.1.2 2.2.9 3 .7.8 1.6 1.5 2.5 2.1 2.1 1.5 4.1 3 6 4.6 1.4 1.1 2.8 2.4 4.5 3 1.2.5 2.5.6 3.8.8 1.5.3 3.2.8 4.6 0 1.4-.8 1.8-2.7 1.3-4.2-.6-1.9-2.4-2.6-3.9-3.6-3-1.9-5.1-5.3-8.5-6zm-8.7 25c.2.7.6 1.3 1.1 1.9 3.9 4.5 9.7 7.3 15.7 7.4 1.2 0 2.4-.1 3.5-.6a6.3 6.3 0 001.6-10.1c-2.2-2.2-5.1-2.2-8-2-1.8.1-3.5 0-5.3-.2-1.8-.3-3.7-.8-5.5-.4-1.8.5-3.5 2.2-3.1 4z"/>
	</g>
	<g clip-path="url(#b)">
	  <path fill="#002031" d="M271.5 169L258 193.7l-1-4.6 14.6-28.2z"/>
	</g>
	<path fill="#104A4A" d="M283.5 128.3l-.8 10.8c-.5 3.7-1 6-2.8 8.5l-14.2 25.1-17.1 45.3-16.3-7 17.6-46 19.7-36.6 13.9-.1z"/>
	<defs>
	  <path id="c" d="M283.5 128.3l-.8 10.8c-.5 3.7-1 6-2.8 8.5l-14.2 25.1-17.1 45.3-16.3-7 17.6-46 19.7-36.6 13.9-.1z"/>
	</defs>
	<clipPath id="d">
	  <use overflow="visible" xlink:href="#c"/>
	</clipPath>
	<g clip-path="url(#d)">
	  <path fill="#2C5F5F" d="M258.9 157l-.3 1.2c0 1.2.1 2.5.9 3.4.9 1 1.7 1.4 2.1 2.8.4 1.2.5 2.4 1 3.5 1.2 2.8 4.2 4.4 6.9 5.8.4.2.8.4 1.3.4.8 0 1.5-.7 1.8-1.5.9-2.2-.4-4.6-1.6-6.6-1.1-2-2.1-4.1-3.5-5.9a10.7 10.7 0 00-5.4-4c-1.2-.2-2.6-.1-3.2.9zm-.5 23.1c-.1 1.5.7 2.9 1.3 4.3.8 1.9 1.1 4 1.9 5.8.4.8.9 1.6 1.6 2 .8.5 1.8.5 2.5-.1.9-.8.7-2.2.4-3.4l-.3-1.6c-.5-2.5-1.5-5-2.8-7.2-.3-.6-.7-1.1-1.2-1.5-.5-.4-1.2-.7-1.8-.5-1 .3-1.5 1.2-1.6 2.2zm-12.1 10.7c.3 1.1 1.5 1.6 2.5 1.8.8.2 1.7.2 2.4-.3.8-.6 1-1.7 1.1-2.7.1-2.7-.5-5.5-2.2-7.7-1.2-1.6-2.9-2.7-4.2-4.2-1.7-2-2.7-4.4-3.3-6.9-.6-2.1-.3-5-3-5.4-.7-.1-1.5.1-2 .7-.3.3-.4.8-.5 1.2a16 16 0 006.4 16c.8.5 1.6 1 2.2 1.6.7.6 1.2 1.5 1.2 2.4 0 1.1-.9 2.3-.6 3.5zm4.1-15.7c-.4.9-.5 1.9-.1 2.8 1.1 2.3 4.5 1.2 4.6-1.2.1-2.6-3.2-4.3-4.5-1.6zm20-43.8c-.4.9-.5 1.9-.1 2.8 1.1 2.3 4.5 1.2 4.6-1.2.1-2.6-3.1-4.3-4.5-1.6zm-10.2 68.6l-2.8-6.4c-.6-1.2-1.5-2.5-2.7-2.4a2 2 0 00-1.6 1.6 4 4 0 00.3 2.4c.8 2 2.3 3.8 2.6 5.9.2 1.2-.1 2.4-.2 3.6-.2 1.5-.3 3 0 4.5s1 2.9 2.2 3.8c2.7 2.1 7 0 7.2-3.5.1-1.6-1.1-3.1-2-4.3a26.2 26.2 0 01-3-5.2zm-15.8 10.5c.7-.7.9-1.8.7-2.8-.3-1.8-1.3-3.4-2.1-5s-1.4-3.6-.7-5.3c.8-2 3.4-4.6 1.5-6.8-1.6-1.9-5 .5-6.4 1.6a17 17 0 00-2.8 3.2c-1 1.4-2.1 2.9-2.2 4.7a7 7 0 001.2 3.7c1 1.7 2.2 3.3 3.7 4.7 1.6 1.5 3.7 2.9 5.8 2.5.4 0 .9-.2 1.3-.5zm9 2.8c0-2.5-1-5.4-2-7.7-.2-.5-.5-1.1-.9-1.4-.4-.4-1.1-.6-1.6-.3s-.8.9-.9 1.5c-.3 1.3-.3 2.6-.4 3.9 0 1.1-.1 2.1.2 3.2.2.6.4 1.2.9 1.7 1.3 1.4 4.6 1.7 4.7-.9zm23.4-77.5c-.3.4-.2 1-.3 1.5-.2.9-1.1 1.4-1.9 1.6-.9.2-1.8.1-2.6.1l-.8.1c-.6.3-.5 1.3-.3 1.9.5 1.6 1.2 3.1 1.9 4.5.9 1.7 1.9 3.4 3.4 4.7 1.5 1.3 3.5 2 5.4 1.6 2.6-.5 4.4-3.1 4.9-5.7.4-2 .1-3.9-1.6-5.1-1.9-1.3-3.3-3-4.8-4.7-.4-.5-.9-1-1.5-1.2-.7 0-1.5.1-1.8.7zm-27.5 32.4c1.6 1.3 3.7 1.6 5.5 2.7 1.1.7 2 1.6 3.1 2.2.3.2.7.3 1 .2l.6-.4c.7-.8.8-2 .5-3.1-.2-1.1-.8-2-1.3-3l-3.4-6.8c-.7-1.6-1.5-3.3-2.7-4.6-.9-.9-2-1.6-3.1-2.4-1.2-1-2.5-2.1-4.1-2.1-1.6.1-2.8 1.7-3 3.2-.3 1.9 1 3.4 1.9 5 1.8 2.9 2.2 6.9 5 9.1zm21.1-17.3c.2-.7 0-1.5-.2-2.2a21.4 21.4 0 00-10.8-13.6c-1.1-.5-2.2-1-3.4-1-1.5 0-2.9.6-4.1 1.5a6 6 0 00-1.7 6.8c1 2.9 3.6 4.2 6.3 5.3 1.6.7 3.2 1.5 4.6 2.5 1.5 1.1 3 2.3 4.8 2.8 1.8.5 4.1-.3 4.5-2.1z"/>
	</g>
	<path fill="#FFF" d="M252.1 160.7l-.6-.4 12.5-22h-1.9v-.7h3.1z"/>
	<path fill="#002031" d="M260.3 189.6l-.6-.3 6.2-16.6 4.5-7.6.5.3-4.4 7.6z"/>
	<path fill="#DD933C" d="M235.9 212.6l-2.5 7.2 8 3.2 3.2-6.7zM267.4 218.1a38 38 0 011.3 4.5h9.4l-.9-4.5h-9.8z"/>
	<circle cx="227.4" cy="58.8" r="7.2" fill="#59ACF5"/>
	<path fill="#FFF" d="M226.9 62.4a1 1 0 01-.8-.4l-2.7-3.4a1 1 0 01.1-1.4 1 1 0 011.4.1l1.9 2.4 3.4-4.3c.3-.4.9-.5 1.4-.2.4.3.5.9.2 1.4l-4.2 5.2c-.2.5-.4.6-.7.6z"/>
	<path fill="#FC0" d="M267 88.1l.6-2.3 9.4-.2-2.7 42.8-15.7.2 6-39.5z"/>
	<g>
	  <path fill="#FC0" d="M266.3 219.1l-6.2 4.5-5 1.8c-1.8 1-1.7 2.7-1.7 2.7h27.9l-1.7-7.7c-.2-.6-1.9-.7-2.1-.1-.3 1-1.6 2.2-3.1 2.3-2.3.1-4.9-1.9-6.2-3.1-.5-.5-1.3-.7-1.9-.4z"/>
	  <path fill="#FE6F43" d="M281.3 228.1l-1-4.8s-4.9.2-4.2 4.8h5.2z"/>
	  <path fill="#FFF" d="M281.8 230.8h-28.4l-.2-2.7h28.2z"/>
	  <path fill="#002031" d="M260.6 223.6l.2-.7 2.8.8-.2.7zM262.4 222.2l.2-.6 2.9.7-.2.7z"/>
	</g>
	<g>
	  <path fill="#FC0" d="M233.2 213.1l-7.5 1.1-5.3-.7c-2.1 0-2.8 1.6-2.8 1.6l24.8 12.9 2.1-7.6c.1-.6-1.4-1.5-1.8-1.1-.8.8-2.4 1.3-3.8.6-2-.9-3.4-3.9-4.1-5.6-.2-.7-.9-1.2-1.6-1.2z"/>
	  <path fill="#FE6F43" d="M242.4 228l1.3-4.7s-4.5-2.1-5.9 2.3l4.6 2.4z"/>
	  <path fill="#FFF" d="M241.6 230.6l-25.1-13 1-2.5 25 13z"/>
	  <path fill="#002031" d="M226.1 214.4l.5-.5 2.1 2-.5.5zM228.4 214l.5-.5 2.2 2-.5.6z"/>
	</g>
	<g>
	  <path fill="#F17277" d="M301.2 43.4l-22.1 45.2 5.4 19 23.9-63z"/>
	</g>
	<g>
	  <circle cx="269.9" cy="71.3" r=".4" fill="#002031"/>
	</g>
	<g>
	  <circle cx="265.7" cy="71" r=".4" fill="#002031"/>
	</g>
	<g>
	  <path fill="#FFF" d="M250.5 119l3.1-14 .7.2-3.1 14z"/>
	</g>
	<g>
	  <path fill="#002031" d="M251.8 130.7l22.5-2.3-22.6.3z"/>
	</g>
  </g>
  <g>
	<path fill="#A95643" d="M58.8 105.6s-1.9.1-3.5-.1c-.2 0-.2.2-.1.3l4.5 2.6-.9-2.8z"/>
  </g>
  <g>
	<path fill="#FFF" d="M70.8 224.7a.2.2 0 01-.2-.2l1.8-43.9.2-.2.2.2-1.8 43.9-.2.2z"/>
  </g>
  <g>
	<path fill="#FFF" d="M114.9 235.5a.2.2 0 01-.2-.2V187l.2-.2.2.2v48.3l-.2.2z"/>
  </g>
  <g>
	<path fill="#FFF" d="M164.6 227.1a.2.2 0 01-.2-.2l-1-38.9.2-.2.2.2 1 38.9-.2.2z"/>
  </g>
</svg>
