<svg width="141" height="129"  xmlns="http://www.w3.org/2000/svg" viewBox="0 0 335 236">
  <path fill="#DCEEFD" d="M265.6 41H148.2l1.7-.9 3.8-1.9a36 36 0 006.7-3.7c2.5-2 4.4-4.4 6.2-6.7 1.5-1.9 3-3.8 4.9-5.6 4.2-3.9 9.8-6 14.9-5.7 6.7.5 11.2 4.7 14.4 8.5 2.8-3.5 7.1-6.3 12-8.1 3.3-1.2 6.1-1.5 8.5-.9 2.9.7 5.3 2.9 5.9 5.5.5 2.1.1 4.2-.4 6.1 4.6-1.9 9.7-3.4 14.1-1.7 2.8 1.1 4.2 3.1 5.7 5.1a17 17 0 002.1 2.6c4.1 4.3 11.6 5.7 16.9 6.5v.9zm-113.5-1h108c-4.4-1-9-2.7-12-5.8l-2.2-2.7c-1.4-2-2.7-3.8-5.2-4.8-4.4-1.7-9.7.1-14.3 2.1l-.9.4.2-.9c.6-2.2 1.1-4.4.6-6.6a6.9 6.9 0 00-5.2-4.8c-2.2-.5-4.8-.2-7.9.9-5 1.8-9.3 4.8-12 8.3l-.4.5-.4-.5c-3.1-3.7-7.6-8.1-14.1-8.6a19.2 19.2 0 00-14.1 5.4c-1.8 1.7-3.3 3.6-4.8 5.5-1.9 2.4-3.8 4.8-6.4 6.9a36 36 0 01-6.9 3.9l-2 .8zM298.7 16.4h-55.4l1.5-.9c.9-.5 1.7-2 2.7-3.7C250.1 7.3 253.9.5 264.2.4c2.6.2 4.4 2.3 5.3 3.6a9.5 9.5 0 011.9 4.5 8.6 8.6 0 013.4-1.8c1.7-.4 4-.2 5.2 1 .5.5.7 1 .9 1.5l.4.8c.9 1.6 3.4 2.8 7.4 3.4l1.3.2c2.4.4 4.8.7 6.8 1.7l1.9 1.1zm-52.4-1h47.5l-3.9-.7-1.3-.2c-4.4-.7-7-2-8.1-3.9l-.4-.9c-.2-.4-.4-.9-.7-1.2-.8-.8-2.7-1.2-4.3-.8-1.3.3-2.6 1-3.8 2.3l-1.2 1.1.4-1.6c.2-.9-.4-3-1.8-4.9-.8-1.1-2.4-3-4.5-3.2-9.7.1-13.2 6.3-15.8 10.9-.9 1.3-1.5 2.4-2.1 3.1zM269.5 231.8c0 3.4-26.2 3.7-100 3.7-70.9 0-134.9-2-134.9-3.7 0-1.7 64-3.7 134.9-3.7 74.5 0 100 .6 100 3.7z"/>
  <path fill="#82C6F8" d="M184.5 232.7H87c-7.2 0-10.4-3.7-11-10.2L60.3 14.9c-.4-5.7 2.7-9.4 9-9.4h98.1c5.7 0 10.6 4.6 11 10.2L194 222.4a9.4 9.4 0 01-9.5 10.3z"/>
  <path fill="#59ACF5" d="M188.2 232.7H96.7a12 12 0 01-12-11.1L69.1 15.1A9 9 0 0178 5.5h93.1c5.7 0 10.6 4.6 11 10.2l.6 7.7 3 97.1 11 86.6 1.1 15.2a9.6 9.6 0 01-9.6 10.4z"/>
  <path fill="#DCEEFD" d="M196.6 207.2h-113L69.7 23.5h112.9z"/>
  <path fill="#FFF" d="M140.2 227.8a8 8 0 01-7.8-7.3 6.8 6.8 0 016.8-7.4 8 8 0 017.8 7.3 7 7 0 01-1.8 5.2 6.5 6.5 0 01-5 2.2zm-1-14a6 6 0 00-6.1 6.6 7.2 7.2 0 007.1 6.6 6 6 0 006.1-6.6 7.2 7.2 0 00-7.1-6.6zM177 147.3H94.8a5.1 5.1 0 01-5-4.7L84 63a6.4 6.4 0 016.4-6.9H169c3.4 0 6.2 2.6 6.5 6l5.9 80.6a4.4 4.4 0 01-4.4 4.6z"/>
  <path fill="#F0ECEC" d="M178.8 108.1c-1 5.3-4.4 10.5-2.9 15.8.9 3 3.2 5.4 4.7 8.2l-1.8-24z"/>
  <path fill="#002031" d="M163.3 113.6h-17.4l1.3 17.4h17.4l-1.3-17.4zm-4.6 5l.5 7.5h-7.5l-.5-7.5h7.5zM121 113.6h-17.4l1.3 17.4h17.4l-1.3-17.4zm-4.7 5l.5 7.5h-7.5l-.5-7.5h7.5zM160.2 71.2h-17.4l1.3 17.4h17.4l-1.3-17.4zm-4.6 5l.5 7.5h-7.5l-.5-7.5h7.5zM137.8 71.2h-19.9l1.2 17.5h5l-.9-12.5h15zM112.9 71.2h-12.5l.4 5h7.5l.5 7.5h-7.5l.4 5h12.5zM161.9 93.7h-17.5l.4 4.9h12.5l.7 10h5z"/>
  <path fill="#002031" d="M138.7 83.7h-10l.4 5h5l.4 5h-10l.7 9.9h-5l-.7-9.9h-17.4l.3 4.9h12.5l.7 10h15l-.8-10h10z"/>
  <path fill="#002031" d="M103.2 108.6l-.4-5h7.5l.3 5zM126.5 121.6l-.6-8h5l.6 8z"/>
  <path fill="#002031" d="M131 121.6l-.3-4.3h6.3l.3 4.3zM145.5 108.6h7.5l-.4-5h-7.4z"/>
  <path fill="#002031" d="M140.3 103.6h-5.1l1.6 22.5h-9.9l.3 4.9h15l-1.7-22.4z"/>
  <g>
	<path fill="#76C0F7" d="M166 167.3h-56.9c-1.6 0-3-1.3-3.1-2.9a2.7 2.7 0 012.7-2.9h56.9c1.6 0 3 1.3 3.1 2.9a2.7 2.7 0 01-2.7 2.9z"/>
  </g>
  <g>
	<path fill="#76C0F7" d="M142.2 178.7H110c-1.6 0-3-1.3-3.1-2.9a2.7 2.7 0 012.7-2.9h32.2c1.6 0 3 1.3 3.1 2.9a2.7 2.7 0 01-2.7 2.9z"/>
  </g>
  <g>
	<path fill="#76C0F7" d="M166.8 178.7H154c-1.6 0-3-1.3-3.1-2.9a2.7 2.7 0 012.7-2.9h12.8c1.6 0 3 1.3 3.1 2.9.2 1.6-1.1 2.9-2.7 2.9z"/>
  </g>
  <g>
	<path fill="#002031" d="M64.6 49.7h-1a3.7 3.7 0 01-3.6-3.3l-.6-7.6a3 3 0 01.8-2.4c.6-.6 1.4-1 2.3-1h1c1.8 0 3.5 1.5 3.6 3.3l.6 7.6a3 3 0 01-.8 2.4c-.6.6-1.4 1-2.3 1zm-2-13.7c-.7 0-1.3.3-1.8.8s-.7 1.2-.6 1.9l.6 7.6a3 3 0 002.9 2.7h1c.7 0 1.3-.3 1.8-.8s.7-1.2.6-1.9l-.6-7.6c-.2-1.5-1.5-2.7-2.9-2.7h-1z"/>
  </g>
  <g>
	<path fill="#002031" d="M65.8 66.3h-1a3.7 3.7 0 01-3.6-3.3l-.6-7.6a3 3 0 01.8-2.4c.6-.6 1.4-1 2.3-1h1c1.8 0 3.5 1.5 3.6 3.3l.6 7.6a3 3 0 01-.8 2.4c-.6.6-1.4 1-2.3 1zm-2-13.7c-.7 0-1.3.3-1.8.8s-.7 1.2-.6 1.9l.6 7.6a3 3 0 002.9 2.7h1c.7 0 1.3-.3 1.8-.8s.7-1.2.6-1.9l-.6-7.6a3 3 0 00-2.9-2.7h-1z"/>
  </g>
  <g>
	<path fill="#FFF" d="M130.1 17.3h-14.3a2.7 2.7 0 01-2.8-2.5 3 3 0 01.7-2.2c.5-.6 1.3-.9 2.1-.9H130c1.5 0 2.7 1.1 2.8 2.5a3 3 0 01-.7 2.2c-.4.6-1.2.9-2 .9zm-14.4-4.9c-.6 0-1.2.3-1.6.7-.4.4-.6 1-.5 1.6a2 2 0 002.1 1.9H130c.6 0 1.2-.3 1.6-.7.4-.4.6-1 .5-1.6a2 2 0 00-2.1-1.9h-14.3z"/>
  </g>
  <g>
	<path fill="#002031" d="M240.1 77.7l-4.8-1.7.1-.2-.9.1h-.2c-.7.1-1.3.5-1.5 1.2l-4.7 13.7a2 2 0 001.2 2.4l5 1.8c1 .3 2-.2 2.3-1.1l4.7-13.7c.3-1.1-.2-2.2-1.2-2.5z"/>
	<path fill="#1540EB" d="M230.3 93l5 1.8c1 .3 2-.2 2.3-1.1l4.7-13.7c.3-1-.2-2-1.2-2.4l-5-1.8c-1-.3-2 .2-2.3 1.1l-4.7 13.7c-.2 1 .3 2.1 1.2 2.4z"/>
	<path fill="#C26E5E" d="M235.6 84.4l5.2 2.8c1.5 1 2.2 2.8 1.8 4.5l-2.2 7.7-6.5-2.5 1.4-4.7-2.7-2.3 3-5.5z"/>
	<path fill="#237978" d="M216.7 94.7l11.7 16.7 5.6-15.6 6.7 3.1s-2.6 12.8-6.2 20.2c-2.1 4.4-5.9 4.5-8.6 2.8-7.7-5-13-13.9-13-13.9l3.8-13.3z"/>
	<path fill="#0E6866" d="M231.2 103.9l-2.7 7.6-1.9-2.7c.3 2 2.1 3.5 4.1 3.5a4.2 4.2 0 00.5-8.4zm2.8-8v.5a4.2 4.2 0 006.5 3.5l.2-.9-6.7-3.1zm-.1 23.9v.4l.6-1 1.2-2.8c-1 .7-1.8 1.9-1.8 3.4zm-10.7-4.2c-1.3 0-2.4.6-3.2 1.4 1.7 1.8 3.7 3.5 5.9 4.9l.6.4c.5-.7.8-1.6.8-2.5a4 4 0 00-4.1-4.2zm-7.5-11.8c-.6 0-1.2.1-1.7.4l-1.1 3.8s1.1 1.8 3 4.2a4.2 4.2 0 004.1-4.2c-.1-2.3-2-4.2-4.3-4.2z"/>
	<path fill="#002031" d="M237.9 88.1h-.1l-3.1-1.9-.1-.3.3-.1 3.1 1.9.1.3-.2.1zM236.6 90.1h-.1l-2.9-1.9-.1-.3.3-.1 2.9 1.9.1.3-.2.1z"/>
	<path fill="#C26E5E" d="M193.5 169.7l-8.8 4.1 1.6 7.7 12.7-3zM235.1 214.4l3.2 9.2-10.9 2.3-2.8-7.7z"/>
	<path fill="#002031" d="M204.4 87.6c-.5-2.7-1.6-5.3-2.8-7.8-.6-1.2-1.2-2.5-1-3.8l.6-1.8c.8-2.2 1-4.6 1.2-7 .1-1.9.3-3.9-.3-5.7-.1-.4-.3-.7-.6-.9-.2-.1.3-.5.7-.8v-.2-.1-.1-.1c-6.4-2.1-12.2.4-12.1 7.8 0 2.7-2 3.5-2.5 6.2-.8 4.4 2.3 5.6 1.6 9.1-.4 1.9-4.3 3.1-4.5 7.7-.2 4.8 3.1 6.9 4.4 8.1l1.9-2.3c.8.9 2 1.4 3.2 1.5 1.2.1 2.4-.1 3.5-.4 2.9-.8 5.9-2.5 6.8-5.4a18 18 0 00-.1-4z"/>
	<path fill="#002031" d="M199.4 80.1c1.6 5.1 2.5 10.5 4.3 15.5.5 1.4 1 2.7 2 3.8l.6.5a16 16 0 008.2-2.9c1.6-1.2 5.6-4.8 3.8-8.7-.8-1.7-2.9-2.3-2.9-3.7 0-.9.5-1.7.4-2.6 0-1-.7-1.9-1.5-2.5l-2.3-1.9a5.6 5.6 0 01-1.3-3.9c.1-1.2.7-2.4.6-3.6-.2-1.3-1.3-2.4-2.4-3.1-1.3-.8-2.7-1.3-3.9-2.2-1.1-.9-1.2-1.7-1.8-2.8-1.2-2.2-4.4-.4-5.2 1.3-.6 1.2-.5 2.7-.5 4.1 0 2.1-.2 4.1 0 6.2.3 2.1 1.2 4.3 1.9 6.5z"/>
	<path fill="#F17277" d="M236.7 161.3l-21.3-37.9-11.6-1.3c-.3 0 7.4 36.3 7.4 36.3l-1.7 1a103.5 103.5 0 0110.3 13.2l1.6 2.5 10.3-2.3c4.6-1.7 6.9-7 5-11.5z"/>
	<path fill="#F09899" d="M193 169.5l9.9-5.6 1.7 3.2c1.9 3.3 4.1 6.5 6.1 9.8l-13.7 3a5.6 5.6 0 01-4-10.4z"/>
	<path fill="#F17277" d="M195.3 167.4l11.3-6.4 2 3.6c2.2 3.8 4.6 7.5 6.9 11.2l-15.6 3.4c-3 .7-6.1-.9-7.3-3.8a6.3 6.3 0 012.7-8z"/>
	<path fill="#002031" d="M200.9 164.2l2.7 14.3 4-.9-6.7-13.4z"/>
	<path fill="#F09899" d="M234.2 211.3l1.3 3.9-11.1 3.2-1.7-4.6z"/>
	<path fill="#FFF" d="M230.5 213.5l.6-.2 1 2.8-.7.2zM226.8 214.6l.7-.2.8 2.8-.7.2z"/>
	<path fill="#F17277" d="M195 122.3c0 4.2-6.4 7.4-5.4 18.2.4 4.2 11.7 26.4 14.8 31.9 2.7 4.8 12.3 31.7 15.4 39.3 1 2.5 3.7 3.8 6.3 3l5.9-1.7a5.2 5.2 0 003.6-6.4l-23.4-84.3H195z"/>
	<path fill="#237978" d="M210.7 89.4h-18.8c-4.8 0-8.2 4.2-7.4 9.1l1.9 5.8 3.2.5s3.9 7.2 5 18.8l20.6-.4c-.5-2.8 5.3-17.8 4.7-21.9-.5-4.6-5.9-10.1-9.2-11.9z"/>
	<path fill="#0E6866" d="M215.7 103.8a4.2 4.2 0 00-4.2 4.2c0 2.3 1.9 4.2 4.2 4.2a4 4 0 002.4-.8l1.4-5.2a4.2 4.2 0 00-3.8-2.4zm-29.2.6l1.7.3c-.6-.4-1.2-.7-1.9-.8l.2.5zm21.7 11.2a4.2 4.2 0 00-4.2 4.2c0 1.6.9 3 2.3 3.7l4-.1a4 4 0 002.1-3.6c0-2.3-1.9-4.2-4.2-4.2zm-14.8 0c.5 2.4 1 5.1 1.3 8.1a4.1 4.1 0 002.7-3.9c0-2.3-1.7-4.1-4-4.2zm14.8-15c2.3 0 4.2-1.9 4.2-4.2 0-2.3-1.9-4.2-4.2-4.2s-4.2 1.9-4.2 4.2c0 2.3 1.9 4.2 4.2 4.2zm-7.5 3.2a4.2 4.2 0 00-4.2 4.2c0 2.3 1.9 4.2 4.2 4.2s4.2-1.9 4.2-4.2c0-2.3-1.9-4.2-4.2-4.2zm-3.3-7.4c0-2.3-1.9-4.2-4.2-4.2s-4.2 1.9-4.2 4.2c0 2.3 1.9 4.2 4.2 4.2s4.2-1.9 4.2-4.2z"/>
	<path fill="#C26E5E" d="M204.6 95a20 20 0 01-13.1-5.5h19.3c0-.1-1.2 5.1-6.2 5.5z"/>
	<path fill="#C26E5E" d="M210.8 89.4l-3.6-1.2c-.8-.1-1.5-.7-1.8-1.4l-.5-1.1-1.6.4.4 4.2h5.7l1.4-.9z"/>
	<path fill="#FC0" d="M239 220.8l7.6 5.2 6 2.1a4.2 4.2 0 012.3 3.2h-32.5l1.2-9c.2-.6 2.2-.8 2.4-.2.5 1.2 2 2.6 3.8 2.7 2.6.1 5.5-2.2 6.9-3.6.6-.6 1.5-.7 2.3-.4z"/>
	<path fill="#FE6F43" d="M222.5 231.3l.7-5.5s5.8.2 5.3 5.5h-6z"/>
	<path fill="#FFF" d="M222.1 234.4h33v-3.1h-32.7z"/>
	<path fill="#002031" d="M242.7 226.2l3.1-1 .2.7-3.1 1zM240.5 225.3l-.2-.7 3.3-.9.2.7z"/>
	<path fill="#C8E7FC" d="M182.4 199.8a4.3 4.3 0 01-4.3-4.3v-12.9h8.6v12.9c0 2.4-2 4.3-4.3 4.3z"/>
	<path fill="#FFF" d="M189.8 179.7c-1.4-1.2-4.3-.2-4.6-3.6a4.1 4.1 0 012.1-3.6c.5-.3.3-2-.3-2.2l-4.7-.2c-2-.1-3.7 1.4-3.8 3.4-.2 3.1-.5 7.6-.3 10.1.6 7.2 3 13.6 5.2 13.7h2.4l-.4-.8c.3-.4.6-.9.6-1.7l.6-4.6 3.3-7.7c.2-.7.4-2.3-.1-2.8z"/>
	<path fill="#FC0" d="M191.5 182.5l-3.3 7.7-.6 4.6c-.1 1.9-1.4 2.5-2.7 2.5-2.1 0-4.6-6.4-5.2-13.7-.2-2.6.1-7 .3-10.1.1-2 1.8-3.5 3.8-3.4l4.7.2c.6.1.9 1.6.3 1.9-1.1.5-2.2 2.3-2.1 3.9.3 3.4 3.2 2.5 4.6 3.6.7.5.5 2.1.2 2.8z"/>
	<path fill="#FE6F43" d="M180 176.1a6 6 0 005.2-5.9l-1.2-.1c-2-.1-3.7 1.4-3.8 3.4l-.2 2.6z"/>
	<path fill="#002031" d="M189.4 186.2c0-.1-.1-1.1-1.7-1.1v-.7c2.4 0 2.4 1.8 2.4 1.8h-.7.4-.4zM188.3 188.4c0-.1-.1-1.1-1.7-1.1v-.7c2.4 0 2.4 1.8 2.4 1.8h-.7.4-.4z"/>
	<path fill="#C26E5E" d="M194.9 74.7l2.3 14.9 9.7.3-5.2-11.9z"/>
	<path fill="#A95643" d="M204.2 83.8l-1.2-2.7-3.9-.4z"/>
	<path fill="#C26E5E" d="M193.1 72.9c.1 4.4 4.4 8.1 8.8 8.5 5.1.5 8.1-3.1 7.2-8.5-.7-4.4-3.7-8-8.2-8s-7.9 3.6-7.8 8z"/>
	<path fill="#002031" d="M209 61.2l-.5.4s-.3-1.9-1.2-2.3l-1.1-.2c-.7.1-1.4.3-2.1.7-.5.3-1.3-.5-2.2-.7-1.7-.4-2.4 1.1-3.6 1.4-.6.2-1.1.3-1.6.6l-.9.6-.3.4c-.1.3 0 .6.2.9.4.8 1 1.5 1.7 2.1l-.4-.8a7.7 7.7 0 004.1 3.2c1.6.6 3.4.7 5.1.7.7 0 1.4-.1 2-.3.6-.2 1.2-.6 1.7-1.1.4-.5.5-1.1.7-1.7v-3.3c-.1-.7-1-1-1.6-.6z"/>
	<path fill="#002031" d="M199.5 69c.1 1.1-.1 2.3-.8 3.2l-2.5 3.5c-1 1.5-.4 4.5.1 8 .1 1.1-1.3-1.8-2.1-1.1l-.4.2c-.3.1-.5-.3-.7-.5-1.6-2.8-2.6-6-2.8-9.2-.1-2.4.2-5 1.8-6.8a5.2 5.2 0 014.9-1.7c1.9.5 2.3 2.6 2.5 4.4z"/>
	<path fill="#C26E5E" d="M194.8 127.8l4.9 3.4-1.5 2.1-2 1.9-2.8 1.7-.6.3-1.8-2.4-.5-1.8-1.4-1.7 5.7-3.5z"/>
	<path fill="#A95643" d="M195.4 128.2s-1.2 4.7-3.8 7.4l-.6-.8-.5-1.8-.2-.3 5.1-4.5z"/>
	<path fill="#237978" d="M185.8 92.7l-11.4 17.7a7.5 7.5 0 001.1 9.8c2.9 3 14.1 13 14.1 13l6.2-5.5-12.7-12.3 13.2-15.4-10.5-7.3z"/>
	<path fill="#0E6866" d="M185.7 127.2c-.8 0-1.6.2-2.2.7l3.9 3.6 2 1.8a4 4 0 00.4-1.8 4 4 0 00-4.1-4.3zm3.8-5.5c.4.9 1.1 1.5 2 1.9l-1-.9-1-1zm-3.6-9.5l4-4.7a4.2 4.2 0 00-8.4.5c0 2.3 1.9 4.2 4.2 4.2h.2zm7.6-14.1l-4.3-3-.2 1.3a4.2 4.2 0 006.8 3.3l-2.3-1.6zm-15.2 17.5c-2 0-3.6 1.3-4.1 3.1l.5.7.1.1.6.7.3.3.1.1.2.2.1.1.3.3.2.1.3.3.2.1.3.3.1.1.4.4.1.1.5.4.6.5a4.2 4.2 0 003.3-4.1c.1-1.9-1.8-3.8-4.1-3.8zm5.5-19.4v-.3l-2.8 4.2a4.2 4.2 0 002.8-3.9z"/>
	<path fill="#002031" d="M182.4 117.1l-.6-.4.4-.7-1.5.3-.1-.7 2.3-.4c.1 0 .3 0 .4.2.1.1.1.3 0 .4l-.9 1.3zM192 137.9l-.2-.7c6.3-2.3 8.2-7.2 8.2-7.3l.7.2c-.2.3-2.1 5.3-8.7 7.8z"/>
	<g>
	  <path fill="#FFF" d="M227.5 177.3L213.4 135l3.5-.4.1.7-2.6.3 13.8 41.4z"/>
	</g>
	<g>
	  <path fill="#002031" d="M204.4 77.3c-1.1 0-2-.5-2.4-1.4-.1-.1 0-.3.1-.3.1-.1.3 0 .3.1.5 1 1.5 1.4 3 1 .1 0 .3 0 .3.2 0 .1 0 .3-.2.3l-1.1.1z"/>
	</g>
	<g>
	  <path fill="#FFF" d="M207.4 73.9c-1.4 0-2.5-1.2-2.5-2.6s1.1-2.6 2.5-2.6 2.5 1.2 2.5 2.6-1.1 2.6-2.5 2.6zm0-4.7c-1.1 0-2 1-2 2.1a2 2 0 002 2.1c1.1 0 2-1 2-2.1s-.9-2.1-2-2.1z"/>
	</g>
	<g>
	  <path fill="#FFF" d="M201.8 74.4a2.6 2.6 0 01-2.5-2.6c0-1.4 1.1-2.6 2.5-2.6s2.5 1.2 2.5 2.6c0 1.5-1.1 2.6-2.5 2.6zm0-4.7a2 2 0 00-2 2.1 2 2 0 002 2.1 2 2 0 002-2.1c0-1.1-.9-2.1-2-2.1z"/>
	</g>
	<g>
	  <path fill="#002031" d="M205 75.1a.2.2 0 01-.2-.2l.2-.3c.1 0 .6-.2.7-.4.1-.2-.4-1-.6-1.4l-.5-1c0-.1 0-.3.2-.3.1 0 .3 0 .3.2l.4.9c.5.9.7 1.5.6 1.8-.3.5-1 .7-1.1.7z"/>
	</g>
	<g>
	  <path fill="#FFF" d="M204 71.4a.2.2 0 01-.2-.2l.2-.3 1.1-.1.3.2-.2.3-1.2.1c.1 0 .1 0 0 0z"/>
	</g>
	<g>
	  <path fill="#FFF" d="M198.7 72.1a.2.2 0 01-.2-.2l.2-.3.8-.1.3.2-.2.3-.9.1c.1 0 0 0 0 0z"/>
	</g>
	<g>
	  <path fill="#C26E5E" d="M191.5 89.4l3.7-.9c1-.3 1.7-1.4 1.5-2.5l-.2-1.4 1.3 5.9-6.3-1.1z"/>
	</g>
	<g>
	  <path fill="#002031" d="M189.3 107.7l3.6-4.3.5.5-3.6 4.2z"/>
	</g>
	<g>
	  <path fill="#FFF" d="M215.5 123.4c-.3-1.4.8-5.1 2-9.5 1.3-4.6 2.7-9.8 2.5-11.9a15 15 0 00-3.2-7.4l.6-.5c2.1 2.4 3.1 5.6 3.4 7.8a44 44 0 01-2.5 12.2 39.2 39.2 0 00-2 9.2l-.8.1z"/>
	</g>
  </g>
</svg>
