<svg xmlns="http://www.w3.org/2000/svg" fill-rule="evenodd" stroke-linejoin="round" stroke-miterlimit="2" clip-rule="evenodd" viewBox="0 0 215 139">
  <path fill="#dceefd" fill-rule="nonzero" d="M211.6 116.9l-105.7-8.2h105.7v8.2zM214.3 99.9h-94.4v-49a47.3 47.3 0 0194.4 0v49zm-93.6-.9h92.6V51a46.4 46.4 0 00-92.6 0v48z"/>
  <path fill="#dceefd" fill-rule="nonzero" d="M124.7 99.6h-.9V51.1a48 48 0 0145.7-47.3v.9a47 47 0 00-44.8 46.4v48.5z"/>
  <circle cx="168.4" cy="77.5" r="1.4" fill="#f4c9db" transform="translate(-70 -14)"/>
  <path fill="#f4c9db" fill-rule="nonzero" d="M107.3 68.5L98 63.8l3.5-10.6 6.4 1 2.9 12.5-3.5 1.8z"/>
  <path fill="#002031" fill-rule="nonzero" d="M99.5 65.1l-1.2-16.3c-.1-.9.6-1.7 1.6-1.8l6.5-.5c.9-.1 1.7.6 1.8 1.6l1.2 16.3c.1.9-.6 1.7-1.6 1.8l-6.5.5c-.9 0-1.7-.7-1.8-1.6z"/>
  <path fill="#1540eb" fill-rule="nonzero" d="M98.4 65.2l-1.2-16.3c-.1-.9.6-1.7 1.6-1.8l6.5-.5c.9-.1 1.7.6 1.8 1.6l1.2 16.3c.1.9-.6 1.7-1.6 1.8l-6.5.5c-.9 0-1.7-.7-1.8-1.6z"/>
  <path fill="#f4c9db" fill-rule="nonzero" d="M113 63.5l-1.3-1.7-.1-2.8c0-1.6-1.2-3-2.8-3.3l-4.6-.8c-.9-.2-1.8.5-1.9 1.4-.1.7.4 1.4 1.1 1.6l5.6 1.8.5 6.7 3.5-2.9z"/>
  <circle cx="167.5" cy="72.6" r="1.4" fill="#f4c9db" transform="translate(-70 -14)"/>
  <circle cx="167.6" cy="75.2" r="1.4" fill="#f4c9db" transform="translate(-70 -14)"/>
  <path fill="#fff" fill-rule="nonzero" d="M99.2 51.1h-.3c-.3-.1-.6-.3-.8-.6-.2-.3-.2-.6-.2-.9.2-.7.8-1.1 1.5-.9.7.2 1.1.8.9 1.5 0 .5-.6.9-1.1.9zm0-2.1c-.4 0-.7.3-.8.6-.1.4.2.9.6 1 .4.1.9-.2 1-.6a.9.9 0 00-.6-1h-.2z"/>
  <path fill="#002031" fill-rule="nonzero" d="M93.1 56.2h-.2l-.2-.3.4-3.6-4.3 1c-.1 0-.3 0-.4-.2a.3.3 0 010-.4l2.7-3-3.7-2.1-.2-.3.3-.3 4.4-.7L91 43l.1-.4c.1-.1.3-.1.4 0l3.2 2.7 1.8-4.4.3-.2c.1 0 .3.1.3.3l.8 4.3c0 .2-.1.3-.3.4-.2 0-.3-.1-.4-.3l-.6-3.2-1.5 3.8-.2.2-.3-.1-2.8-2.3.8 2.7v.3l-.2.1-3.9.6 3.2 1.8.2.2-.1.3-2.3 2.5 3.7-.9.3.1.1.3-.3 3.3 2-1.5c.1-.1.3-.1.5.1.1.1.1.3-.1.5l-2.6 1.9c.1.1 0 .1 0 .1zM148.7 28.1c-1 1.7.3 5.2 2.6 4.3a8.4 8.4 0 002.4-5.1c-.3-2.6-4.5-1.1-5 .8z"/>
  <path fill="#f17277" fill-rule="nonzero" d="M210.2 91.2c0 2-.7 3.7-1.7 5a5.6 5.6 0 01-4.2 2.1h-66.8c-2 0-4.9-1.3-6-4.3-.8-2.2-.7-5.3 1.2-9.4l.3-.6 2.2-4.2 2.9-5.6 2.1-4 2.6-5 .9-1.8c.5-1 1.1-1.8 1.7-2.6A11 11 0 01152 57l1.6-.1h20.8c4.5 0 8.8 1.6 12.5 4.4 1.4 1 2.6 2.3 3.8 3.6L208.4 86l.3.4.3.4.2.3.5 1 .4 1.4.1 1.7z"/>
  <path fill="none" fill-rule="nonzero" d="M174.3 63.5c6.1 0 12 2.4 16.3 6.8l17.7 17.8a6 6 0 01-4.1 10.4h-66.8c-3.6 0-9.7-3.4-4.4-12.1L143.6 69c2.1-3.4 5.8-5.5 9.9-5.5h20.8z"/>
  <path fill="#002031" fill-rule="nonzero" d="M146.2 92.7c-.2 0-.4-.2-.3-.4l2.9-13.7c0-.2.2-.3.4-.3s.3.2.3.4l-2.9 13.7c-.1.2-.2.3-.4.3z"/>
  <path fill="none" fill-rule="nonzero" d="M179.6 78.9l8.7 8.8h-18.8c-1.1 0-2.1.9-2.1 2.1v8.5"/>
  <path fill="#e93737" fill-rule="nonzero" d="M158.7 51.8h-3a4.6 4.6 0 00-2.6 8.3l8.1 6.1-3.6-9 1.1-5.4z"/>
  <path fill="#f4c9db" fill-rule="nonzero" d="M160.9 96.7c-.2.2-.5 2.2-2 2.9a7 7 0 01-6 0l-4-.9-9.1-.3c-.6.2-1.3 0-1.7-.5-.6-.8-.3-1.8.5-2.3l11.4-5.7c.5-.3 1.1-.4 1.6-.3l9.4 1.1-.1 6z"/>
  <path fill="#002031" fill-rule="nonzero" d="M138.6 96c-.2 0-.3-.1-.3-.3 0-.2.1-.3.3-.4l7.7-1.1c.2 0 .3.1.4.3 0 .2-.1.3-.3.4l-7.8 1.1z"/>
  <path fill="#e93737" d="M162.6 98.3h-3.8v-9h3.8z"/>
  <path fill="none" fill-rule="nonzero" d="M185.8 86.6l1.5-.5c.8-.3 1.5.5 1.1 1.3-.3.5-1 .7-1.4.3l-1.2-1.1z"/>
  <path fill="#f4c9db" fill-rule="nonzero" d="M168.2 42.1l1.6 9.2.5 2.7v.2l-.6.8-.1.1-1.3 1.8-4.2 5.5-.8 1-1.7 2.1-.2.2-.2.3-.3-.6-.9-2-3-6.5-.1-.3.3-4.9.3-5.1c0 .1-8.9.9-8.7-5.7a36.1 36.1 0 011.7-11.5c.5-1 1-1.9 1.6-2.7a7.8 7.8 0 014.8-3.3c.8-.2 2.5-.2 3.3-.3.9 0 1.9 0 2.8.2 2.5.6 4.4 2.7 5.4 5.1.8 1.9 1.1 4 1.3 6l.1 1.5.1.1.8.6c.5.6.9 1.4.9 2.2a3.5 3.5 0 01-3.4 3.3z"/>
  <path fill="#eda7c5" fill-rule="nonzero" d="M157.4 46.6s1.8 0 5.1-1l-5.2 4.3.1-3.3z"/>
  <path fill="#e93737" fill-rule="nonzero" d="M169.8 51.3l7.7.8a8 8 0 016.9 5.4l1 2.8-1.9-.7a12.8 12.8 0 00-10.5.6l-11.8 5.9 4.8-6.9c1.1-1.8 2.6-3.4 4.4-4.6l-.6-3.3z"/>
  <path fill="none" fill-rule="nonzero" d="M151.1 78.3l-8 17a6.7 6.7 0 01-5.7 3M181.8 71.4c2.2.8 4.1 2.3 5.8 3.9 3.5 3.3 6.4 7.3 8.4 11.6.1.3.3.6.1.9-.1.2-.3.3-.5.3-1.1.3-2.4-.2-3.2-1-.9-.8-1.5-1.8-2.2-2.8a20.5 20.5 0 00-6.2-5.5c-1.4-.8-3-1.5-4.2-2.6-1.2-1.1-2.2-2.7-1.9-4.3.1-.3.1-.5.3-.7.3-.3.6-.4 1-.4a5 5 0 014.7 1.8"/>
  <path fill="#002031" fill-rule="nonzero" d="M190.2 87.7h-2l-2.4-3c-.1-.1-.1-.3.1-.5.1-.1.3-.1.5.1l2.2 2.8h1.7c.2 0 .3.1.3.3-.1.1-.2.3-.4.3z"/>
  <path fill="#002031" fill-rule="nonzero" d="M162.5 98.6c-.2 0-.3-.1-.3-.3v-9c0-1.2 1-2.3 2.3-2.3h23.8c.2 0 .3.1.3.3 0 .2-.1.3-.3.3h-23.8c-.9 0-1.6.7-1.6 1.6v9c0 .3-.2.4-.4.4z"/>
  <path fill="#002031" fill-rule="nonzero" d="M158.7 98.6c-.2 0-.3-.1-.3-.3v-9.4h4.1c.2 0 .3.1.3.3 0 .2-.1.3-.3.3H159v8.7c0 .3-.1.4-.3.4z"/>
  <path fill="#fff" fill-rule="nonzero" d="M161.2 66.4l-.2-.1c-.1-.1-.2-.3-.1-.4l4.8-6.9c1.8-3 4.3-5 7.2-5.6h.4l.1.3c0 .2-.2.2-.4.3-2.7.6-5.1 2.5-6.9 5.4l-4.8 7c0-.1-.1 0-.1 0z"/>
  <path fill="#002031" fill-rule="nonzero" d="M154.7 39.8c-.1 0-1.2 0-1.7-.7-.3-.4 0-1.3.6-2.7a7 7 0 00.6-1.7c0-.2.2-.3.3-.3.2 0 .3.2.3.3 0 .5-.3 1.2-.6 1.9s-.7 1.8-.6 2.1c.2.3.9.4 1.2.4.2 0 .3.1.3.3-.1.2-.2.4-.4.4z"/>
  <circle cx="226.7" cy="49.6" r=".6" fill="#002031" transform="translate(-70 -14)"/>
  <circle cx="221" cy="49.6" r=".6" fill="#002031" transform="translate(-70 -14)"/>
  <path fill="#002031" fill-rule="nonzero" d="M143 93.8c-.2 0-.3-.1-.3-.3 0-.2.1-.3.3-.4l6.4-1.3c.2 0 .3.1.4.3 0 .2-.1.3-.3.4l-6.5 1.3z"/>
  <path fill="#f17277" fill-rule="nonzero" d="M120.5 63l24.4 22.4-11.7 11-22.6-21.1c-1.4-1.3-1.7-3.4-.5-4.9l5.3-6.9c1.1-1.6 3.5-1.8 5.1-.5z"/>
  <path fill="#002031" fill-rule="nonzero" d="M137.4 80.6l-.3-.2-1.1-2.7.1-.4c.1-.1.2-.1.4 0l3.5 1.8c.2.1.2.3.1.4-.1.2-.3.2-.4.1l-2.8-1.4.8 1.9c.1.2 0 .4-.2.4l-.1.1z"/>
  <path fill="#f17277" d="M106.8 69.2l6-8.3 3 2-6 8.4z"/>
  <path fill="#002031" fill-rule="nonzero" d="M109.7 71.7l-.2-.1c-.1-.1-.2-.3-.1-.5l6-8.4c.1-.1.3-.2.5-.1.1.1.2.3.1.5l-6 8.4-.3.2zM170.8 27.2c0-7.2-10.1-5.7-10.1-5.7s-1-2.2-2.2-2.7c-2-.9-2.4 1.3-1.9 2.6-1.2-1.5-2.1-3.8-4.2-3.4-1.7.6-1.6 3.6-.3 4.5-8.1-5.4-9 8 4.1 7.5 3.7-.1 7.3-.7 7.6-1.1.1 3.8 1.7 8.2 5.5 8.8 0 0 1.8-6.4 1.5-10.5z"/>
  <path fill="#f4c9db" fill-rule="nonzero" d="M167.9 37.7l-.4-2.3s3.8.1 4 2.9l-3.6-.6z"/>
  <path fill="#002031" fill-rule="nonzero" d="M154.7 41.9c-.7 0-1.2-.2-1.2-.2-.2-.1-.3-.2-.2-.4.1-.2.2-.3.4-.2.1 0 2.5.7 3.7-1.4.1-.2.3-.2.4-.1.2.1.2.3.1.4a3.4 3.4 0 01-3.2 1.9z"/>
  <g>
    <path fill="#e93737" fill-rule="nonzero" d="M177.1 78.9H169a.8.8 0 01-.8-.8v-2.4c0-.4.3-.8.8-.8h8.1c.4 0 .8.3.8.8v2.4c0 .5-.4.8-.8.8z"/>
    <path fill="#fff" fill-rule="nonzero" d="M177.1 78.3h-8.5a.9.9 0 01-.8-.8V75c0-.4.4-.8.8-.8h8.5c.4 0 .8.4.8.8v2.6c0 .4-.4.7-.8.7z"/>
    <path fill="#002031" fill-rule="nonzero" d="M172.8 75.7h-3.3a.2.2 0 01-.2-.2l.2-.2h3.3l.2.2-.2.2zM174.9 77.2h-5.4a.2.2 0 01-.2-.2l.2-.2h5.4l.2.2-.2.2z"/>
  </g>
  <g>
    <path fill="#dceefd" fill-rule="nonzero" d="M144.5 141.9h-17.9c-1.3 0-2.3-1-2.3-2.3v-4.4c0-1.3 1-2.3 2.3-2.3h17.9c1.3 0 2.3 1 2.3 2.3v4.4c0 1.3-1 2.3-2.3 2.3zm-17.8-8.1c-.8 0-1.4.6-1.4 1.4v4.4c0 .8.6 1.4 1.4 1.4h17.9c.8 0 1.4-.6 1.4-1.4v-4.4c0-.8-.6-1.4-1.4-1.4h-17.9z"/>
  </g>
  <g>
    <path fill="#dceefd" fill-rule="nonzero" d="M91.4 21.1H74.3c-1.2 0-2.2-1-2.2-2.2v-4.2c0-1.2 1-2.2 2.2-2.2h17.1c1.2 0 2.2 1 2.2 2.2v4.2c0 1.2-1 2.2-2.2 2.2zm-17.1-7.8c-.7 0-1.3.6-1.3 1.3v4.2c0 .7.6 1.3 1.3 1.3h17.1c.7 0 1.3-.6 1.3-1.3v-4.2c0-.7-.6-1.3-1.3-1.3H74.3z"/>
  </g>
  <g>
    <path fill="#dceefd" fill-rule="nonzero" d="M107 9.8H89.9c-1.2 0-2.2-1-2.2-2.2V3.4c0-1.2 1-2.2 2.2-2.2H107c1.2 0 2.2 1 2.2 2.2v4.2c0 1.2-1 2.2-2.2 2.2zM89.9 2c-.7 0-1.3.6-1.3 1.3v4.2c0 .7.6 1.3 1.3 1.3H107c.7 0 1.3-.6 1.3-1.3V3.3c0-.7-.6-1.3-1.3-1.3H89.9z"/>
  </g>
  <g>
    <path fill="#59acf5" d="M101.7 98.2h112.8v10.6H101.7z"/>
    <path fill="#1540eb" d="M187.9 98.2h26.6v10.6h-26.6z"/>
  </g>
  <g>
    <path fill="#002031" fill-rule="nonzero" d="M158.5 34.2c-.2 0-.3-.1-.3-.3-.2-1.2-1.5-1.1-1.6-1.1-.2 0-.3-.1-.4-.3 0-.2.1-.3.3-.4.7-.1 2 .2 2.3 1.6 0 .3-.1.4-.3.5z"/>
  </g>
  <g>
    <path fill="#002031" fill-rule="nonzero" d="M150.2 33.3l-.2-.1c-.1-.1-.2-.3-.1-.4.4-.5 1.5-1.4 2.7-.6.2.1.2.3.1.4-.1.2-.3.2-.4.1-1-.6-1.7.4-1.8.5l-.3.1z"/>
  </g>
  <g>
    <ellipse cx="98.9" cy="49.1" fill="#002031" rx="8.2" ry="10.5" transform="translate(-70 -14)"/>
    <path fill="#002031" fill-rule="nonzero" d="M78.9 61.6l-4.7 1.6c-.9.3-1.9-.2-2.2-1.1l-5-14.6c-.3-.9.2-1.9 1.1-2.2l4.7-1.6c.9-.3 1.9.2 2.2 1.1l5 14.6c.3.9-.2 1.9-1.1 2.2z"/>
    <path fill="#59acf5" fill-rule="nonzero" d="M77.8 61.9l-4.7 1.6c-.9.3-1.9-.2-2.2-1.1l-5-14.6c-.3-.9.2-1.9 1.1-2.2l4.7-1.6c.9-.3 1.9.2 2.2 1.1l5 14.6c.3.9-.2 1.9-1.1 2.2z"/>
    <path fill="#fc0" fill-rule="nonzero" d="M52 64.4l11.4 16.3L69 65l6.8-.2s-1.8 15-6.4 23.4c-2.3 4.1-5.7 4.4-8.4 2.7a47.9 47.9 0 01-12.7-13.6L52 64.4zM27 99.8s-12.2 9.8-7.1 29.5c.5 1.9.8 3.8.9 5.7l.9 29.2H68L52.3 99.3l-25.3.5z"/>
    <path fill="#c26e5e" fill-rule="nonzero" d="M27.1 40.6l2.8 18.2 11.9.3-6.4-14.6-8.3-3.9z"/>
    <path fill="#a95643" fill-rule="nonzero" d="M38.5 51.7l-1.4-3.3-4.8-.5 6.2 3.8z"/>
    <path fill="#c26e5e" fill-rule="nonzero" d="M35.7 48.8c-5.4-.5-10.8-5-10.8-10.4a9.7 9.7 0 019.7-9.9 9 9 0 016.8 3 12.5 12.5 0 013.2 6.9c1 6.6-2.7 11-8.9 10.4z"/>
    <path fill="#a95643" fill-rule="nonzero" d="M42.7 33.3s-7.4-.4-8.2-1.1l6.7-.7c.7.6 1.1 1 1.5 1.8z"/>
    <path fill="#002031" fill-rule="nonzero" d="M42.9 23.1l-.5.6s-.7-2.3-1.8-2.6c-.4-.1-.9-.2-1.3 0-.9.2-1.6.5-2.5 1.2-.6.4-1.7-.4-2.8-.6-2.1-.3-2.7 1.7-4.2 2.3l-1.9 1-1 .9c-.1.2-.3.3-.3.5-.1.4.1.7.3 1 .6.9 5.1 4.2 7.2 4.6a14.9 14.9 0 008.7-.7c.8-.3 1.4-.9 1.9-1.6.4-.7.4-1.4.6-2.2l-.5-4c-.2-.7-1.3-1-1.9-.4z"/>
    <path fill="#fc0" fill-rule="nonzero" d="M55.9 72.4c-.7-5.1-4.4-8.3-8-12.4a8.4 8.4 0 00-3.8-2.6l-2.1-.7c-.5-.1-.9-.3-1.3-.6l-2.2-4.3-9.7.4.3 2c.1 1.2-.7 2.4-1.9 2.8l-4.5 1.2h.1c-5.6.3-9.4 5.3-8.5 11.2l2.3 7.1 3.9.6s4.8 8.8 6.1 23.1l25.6-.3c-.4-3.4 4.4-22.5 3.7-27.5z"/>
    <path fill="#fede6a" fill-rule="nonzero" d="M2.2 83.9c10.4-3.9 21-7.5 31.7-10.7 6.6-2 13.4-3.9 20.5-5.4l-.1-.1c-.6-1-1.2-1.9-1.9-2.7l-.4-.5v.1l-1.5-1.8c-6.3 1.4-12.4 3.2-18.2 4.9l-9.4 2.9c7.8-4.3 15.7-8.3 23.8-11.9-.7-.5-1.5-1-2.4-1.3l-2.1-.7c-.5-.1-.9-.3-1.3-.6l-2.2-4.3-1.4.1-8.1 2.3v.1c.1 1.2-.7 2.4-1.9 2.8l-4.5 1.2h.1a9 9 0 00-8.1 6.3l-1 1.5c5.5-2.2 11.1-4.3 16.8-6.1-6.8 3.3-13.6 7.1-20.1 11L2.2 83.9zM64.2 78.5l-.8 2.2-1.3-1.8c-12.7 2.7-25 6.7-37.1 10.9l1.1 5.8a379 379 0 0128-8.8l.3-1.5 1.1 1.2 8.7-2-7.3 3.3 4 3.2 1.5.7 6.7-3 .2-.4c1.5-3.2 3-6.3 4.2-11.9-2.9.4-6.2 1.5-9.3 2.1zM29.4 164.1h7.8l3-2.4c7.5-5.5 15.5-10.3 23.6-15l-2-8.4a270.4 270.4 0 00-33.4 13.9c7.1-5.4 14.6-10.2 22.5-14.3l9.7-4.7-2.7-11.1a329 329 0 00-33.1 12.3c9.5-6.4 19.4-12.1 29.6-17.1l2.1-1-1.4-5.8-3.2 1.5c-11 5.3-21.5 11.5-31.6 18.4.3 1.4.5 2.9.6 4.4l.2 7.6c11.6-5.3 23.6-10 35.8-13.9l-8.6 4.3c-9.6 5-18.5 10.9-26.9 17.7l.4 11.9 1.5-.8.1-.1c7.6-4.2 15.4-7.9 23.4-11.3a212 212 0 00-9.8 6.7c-3 2.2-5.7 4.5-7.6 7.2z"/>
    <path fill="#fede6a" fill-rule="nonzero" d="M53.1 102.6a276 276 0 00-28.3 9.4c9-5.7 18.3-10.9 27.8-15.6.2-1.9.7-4.4 1.2-7.1-12.5 6-24.5 12.8-36.1 20.3l2.2 2c-.7 2.6-1.2 5.6-1.1 9a303 303 0 0135.8-12.4l-1.5-5.6zM67.3 69.9c1.7-.6 5.8-3.9 6.1-4.9H69l-1.7 4.9zM12.6 90.5l2.7-3.1c-4.4 2.6-8.6 5.3-12.8 8.1l.8.9c1.1 1.2 3.3 3.2 5.7 5.4l4.6-1.7 6.6-2.4-7.6-7.2zM24.8 88.6A272 272 0 0158 72.9L54.6 68a283 283 0 00-31.5 14.9l1.7 5.7z"/>
    <path fill="#fff" fill-rule="nonzero" d="M30.2 110.9c-.2 0-.3-.1-.3-.3L28 77.7c-.7-13.8-3.4-17.9-5.5-18.9-1.5-.7-2.8.2-2.9.2-.2.1-.4.1-.5-.1-.1-.2-.1-.4.1-.5.1 0 1.6-1.2 3.6-.3 3.4 1.6 5.3 8.2 5.9 19.5l1.9 32.9c0 .2-.2.4-.4.4z"/>
    <path fill="#478f8e" fill-rule="nonzero" d="M12.5 110l-3.3 15.3 19.5.1 2.9-16.1-19.1.7z"/>
    <path fill="#104a4a" fill-rule="nonzero" d="M36.8 125.4l-3.4-16.1h-1.8l-2.9 16.1h8.1z"/>
    <path fill="#fff" fill-rule="nonzero" d="M19.4 119.3l-7.3-9.1c-.1-.1-.1-.4.1-.5.1-.1.4-.1.5.1l6.8 8.6 11.3-9.1c.1-.1.4-.1.5.1.1.1.1.4-.1.5l-11.8 9.4z"/>
    <path fill="#c26e5e" fill-rule="nonzero" d="M27 105.6l2.6 1.8a8.8 8.8 0 013.8 7.6l-.3 7.9h-6.6l-2.1-5.9-2.2-3-.7-2.2-1.7-2.1 7.2-4.1z"/>
    <path fill="#002031" fill-rule="nonzero" d="M39.4 41.1c-.1 0-.3-.1-.3-.3l.2-.4c.2 0 .7-.2.8-.5.1-.2-.4-1.2-.7-1.7l-.6-1.2c-.1-.2 0-.4.2-.4s.4 0 .4.2l.5 1.1c.6 1.1.9 1.8.7 2.3-.1.6-1 .9-1.2.9.1 0 0 0 0 0z"/>
    <path fill="#c26e5e" fill-rule="nonzero" d="M34.2 107.9l-6.3-1.6.2 3.2 6.1-.2v-1.4z"/>
    <path fill="#a95643" fill-rule="nonzero" d="M27.7 106s-1.5 5.7-4.6 9.1l-.7-1-.7-2.2-.2-.3 6.2-5.6z"/>
    <path fill="#002031" d="M28.7 118.8h.7v4.1h-.7z"/>
    <path fill="#fc0" fill-rule="nonzero" d="M15.9 62.6S4.3 80.3 1.9 84.3c-2.4 4-2.2 8.4 1.3 12 3.5 3.6 17.3 15.9 17.3 15.9l7.6-6.8-15.6-15.1L26 74.6l-10.1-12z"/>
    <path fill="#002031" d="M30.7 123v-5.7h.7v5.6z"/>
    <circle cx="112.1" cy="51.1" r=".6" fill="#002031" transform="translate(-70 -14)"/>
    <circle cx="106.6" cy="51.4" r=".6" fill="#002031" transform="translate(-70 -14)"/>
    <path fill="#fff" fill-rule="nonzero" d="M54.4 86.8c-.3 0-.4-.2-.3-.4l1.7-9 .2-1.5c.3-3.7-1-7.5-3.4-10.4V65h.5c2.6 3.1 3.9 7 3.6 10.9l-.2 1.6-1.7 9c-.1.2-.2.3-.4.3z"/>
    <path fill="#fede6a" fill-rule="nonzero" d="M17.5 64.5l-1.6-1.9-2.2 3.3 3.8-1.4zM12.6 90.5l2.7-3.1c-4.4 2.6-8.6 5.3-12.8 8.1l.8.9c1.1 1.2 3.3 3.2 5.7 5.4l4.6-1.7 6.6-2.4-7.6-7.2zM25 76l1.1-1.2-7.2-8.6a365 365 0 00-8.4 4.9A4544 4544 0 002.2 84c7.5-2.9 15.2-5.5 22.8-8zM28.2 105.6l-1.6-1.6-9 5.7 3 2.7 7.6-6.8z"/>
    <g>
      <path fill="#c26e5e" fill-rule="nonzero" d="M75.8 64.9l.7-5.8-6.5 2.1-1 3.8 6.8-.1z"/>
    </g>
    <g>
      <path fill="#c26e5e" fill-rule="nonzero" d="M73.8 59.8l.2-2.2 3.1-3.7c.6-.5 1.4-.4 1.9.2.4.5.4 1.2 0 1.7l-2.8 4.7-2.4-.7z"/>
    </g>
    <g>
      <path fill="#c26e5e" fill-rule="nonzero" d="M75 58.2l-6.8-4.3-.5 4.3 2.3 3.4 4.4-1.6.6-1.8z"/>
    </g>
    <g>
      <path fill="#002031" d="M67.9 55.2l.3-.4 1.6 1.3-.3.4z"/>
    </g>
    <g>
      <path fill="#002031" d="M67.7 57l.3-.4 1.9 1.7-.4.4z"/>
    </g>
    <g>
      <path fill="#fff" fill-rule="nonzero" d="M41.2 41.8h-3.7c-.2 0-.3.2-.2.4.6.9 2.1 2.8 4.2.1 0-.2-.1-.5-.3-.5z"/>
    </g>
    <g transform="translate(-70 -14)">
      <circle cx="92.4" cy="39.2" r="6.8" fill="#002031"/>
    </g>
    <g transform="translate(-70 -14)">
      <ellipse cx="95.3" cy="53.9" fill="#c26e5e" rx="2" ry="2.3"/>
    </g>
    <g>
      <path fill="#002031" fill-rule="nonzero" d="M27.4 39.1c.2.5.3 1.1.8 1.1.4 0 .7-1.9.7-2.3 1.8-.3 3-1.2 4.2-2.6a7.8 7.8 0 001.6-5.1c0-.2 0-.4-.2-.5l-.3-.2-5.5-2.5a44 44 0 00-3.5 3.9 8.7 8.7 0 00-1.8 3.6c-.1.5-.1 1.1.1 1.5 0 0 .4 1.5 1.2 1.6.9.1 2.3.3 2.7 1.5z"/>
    </g>
    <g>
      <path fill="#fff" fill-rule="nonzero" d="M21.8 30.6c-.2 0-.3-.2-.3-.3 0 0 .1-4.6 5.8-5.8.2 0 .4.1.4.3 0 .2-.1.4-.3.4-5.2 1.1-5.3 5-5.3 5.2 0 .1-.1.2-.3.2z"/>
    </g>
    <g>
      <path fill="#002031" fill-rule="nonzero" d="M12 92.4l-.6-.3.7-1.1-2.1.4-.1-.6 2.8-.5.3.1v.3l-1 1.7z"/>
    </g>
    <g>
      <path fill="#002031" d="M20.3 81l4.5-5.2.4.4-4.5 5.2z"/>
    </g>
  </g>
</svg>
