<?xml version="1.0" encoding="UTF-8"?>
<svg width="1234px" height="480px" viewBox="0 0 1234 480" version="1.1" xmlns="http://www.w3.org/2000/svg" xmlns:xlink="http://www.w3.org/1999/xlink">
    <title>Artboard</title>
    <defs>
        <polygon id="path-1" points="0.7 0.7 1.9 46.5 13 90.1 29.7 90.1 20.6 43.8 18.9 0.5"></polygon>
        <polygon id="path-3" points="0.7 0.7 1.9 46.5 13 90.1 29.7 90.1 20.6 43.8 18.9 0.5"></polygon>
        <path d="M51.5,0.3 L50.7,11.1 C50.2,14.8 49.7,17.1 47.9,19.6 L33.7,44.7 L16.6,90 L0.3,83 L17.9,37 L37.6,0.4 L51.5,0.3 Z" id="path-5"></path>
    </defs>
    <g id="Artboard" stroke="none" stroke-width="1" fill="none" fill-rule="evenodd">
        <g id="1_veilig_op_pad" transform="translate(70.000000, 211.000000)">
            <g id="Group" transform="translate(187.000000, 20.000000)" fill-rule="nonzero">
                <path d="M5.4,183.4 L0.3,183.4 L0.3,0.9 L5.4,0.9 L5.4,183.4 Z M1.2,182.6 L4.5,182.6 L4.5,1.7 L1.2,1.7 L1.2,182.6 Z" id="Shape" fill="#DCEEFD"></path>
                <path d="M89.2,183.5 L4.5,183.5 L4.5,0.9 L89.2,0.9 L89.2,183.5 Z M5.4,182.6 L88.3,182.6 L88.3,1.8 L5.4,1.8 L5.4,182.6 Z" id="Shape" fill="#DCEEFD"></path>
                <path d="M75.9,108.3 L17.8,108.3 L17.4,12.8 L75.5,12.8 L75.9,108.3 Z M18.7,107.4 L75,107.4 L74.6,13.7 L18.2,13.7 L18.7,107.4 Z" id="Shape" fill="#DCEEFD"></path>
                <g transform="translate(27.000000, 32.000000)">
                    <polygon id="Path" fill="#DCEEFD" points="28.5 16.8 2.2 20 0.7 10.9 27 7.7"></polygon>
                    <polygon id="Path" fill="#DCEEFD" points="9.2 10.4 8.4 10.1 12.3 0.3 18.5 9.4 17.7 9.9 12.5 2.1"></polygon>
                    <path d="M10,13.5 C9.8,12.9 9.3,12.3 8.6,11.9 C8,11.7 7.4,11.6 6.9,11.7 C5.6,11.8 5,13.2 4.9,14.2 C4.8,15.3 5.2,16.4 6,17.3 C6.5,17.8 7.2,18.2 8,17.9 C8.6,17.7 9.1,17.3 9.5,16.8 C10.1,15.9 10.3,14.5 10,13.5 Z M8.4,15.9 C8.3,16 8.2,16.2 8.1,16.3 C8,16.4 7.8,16.6 7.8,16.6 C7.6,16.7 7.5,16.8 7.3,16.8 C7.2,16.8 7.1,16.7 7,16.6 C6.5,16.1 6.2,15.4 6.1,14.8 C6.1,14.4 6.1,14.1 6.3,13.6 C6.3,13.5 6.5,13.3 6.6,13.2 C6.7,13.1 6.7,13.1 6.8,13 C6.9,13 6.9,13 7,12.9 C7.2,12.9 7.3,12.9 7.4,12.8 C7.5,12.8 7.6,12.8 7.8,12.9 C8.1,13 8.3,13.3 8.5,13.6 C8.9,14.4 8.7,15.2 8.4,15.9 Z" id="Shape" fill="#FFFFFF"></path>
                    <path d="M15.9,11.4 C15.5,10.9 14.9,10.6 14.3,10.5 C13.4,10.4 12.6,10.6 11.9,10.9 C11.7,11 11.5,11.1 11.5,11.3 C11.3,11.4 11.2,11.6 11.3,11.8 C11.5,13.5 11.7,15.3 11.8,17 C11.8,17.8 13.2,17.8 13.2,17 C13.2,16.3 13.1,15.6 13.1,14.9 C14.3,14.7 15.6,14.4 16.2,13.3 C16.3,12.7 16.3,11.9 15.9,11.4 Z M14.7,12.7 C14.7,12.7 14.7,12.7 14.7,12.7 C14.7,12.7 14.7,12.7 14.7,12.7 C14.7,12.8 14.6,12.8 14.6,12.9 C14.6,12.9 14.6,12.9 14.6,13 C14.6,13 14.5,13.1 14.5,13.1 C14.5,13.1 14.4,13.2 14.4,13.2 C14.4,13.2 14.4,13.2 14.4,13.2 C14.4,13.2 14.4,13.2 14.4,13.2 C14.3,13.3 14.2,13.3 14.1,13.4 C14.1,13.4 14,13.4 14,13.4 C14,13.4 14,13.4 13.9,13.4 C13.9,13.4 13.9,13.4 13.9,13.4 C13.9,13.4 13.8,13.4 13.8,13.4 C13.7,13.4 13.5,13.5 13.3,13.5 C13.1,13.5 13,13.6 12.8,13.6 C12.7,13 12.7,12.5 12.6,11.9 C12.7,11.9 12.9,11.8 13,11.8 C13.1,11.8 13.3,11.7 13.4,11.7 C13.4,11.7 13.5,11.7 13.5,11.7 C13.6,11.7 13.6,11.7 13.7,11.7 C13.8,11.7 13.8,11.7 13.9,11.7 C13.9,11.7 14,11.7 14,11.7 C14,11.7 14.1,11.7 14.1,11.7 C14.2,11.7 14.2,11.7 14.3,11.7 C14.3,11.7 14.4,11.7 14.4,11.7 C14.4,11.7 14.4,11.7 14.4,11.7 C14.4,11.7 14.5,11.7 14.5,11.7 C14.5,11.7 14.6,11.7 14.6,11.8 C14.6,11.8 14.6,11.8 14.7,11.8 C14.7,11.8 14.7,11.8 14.8,11.8 C14.8,11.8 14.8,11.8 14.8,11.8 C14.8,11.8 14.8,11.9 14.8,11.9 C14.8,11.9 14.8,11.9 14.8,11.9 C14.8,11.9 14.8,11.9 14.8,11.9 C14.8,12 14.8,12 14.8,12.1 C14.8,12.1 14.8,12.1 14.8,12.2 C14.8,12.2 14.8,12.3 14.8,12.3 C14.8,12.3 14.8,12.3 14.8,12.4 C14.8,12.6 14.8,12.7 14.7,12.7 Z" id="Shape" fill="#FFFFFF"></path>
                    <path d="M22.4,15.1 C22.3,14.8 21.9,14.6 21.5,14.7 C20.9,14.9 20.4,15 19.8,15.1 C19.5,15.2 19.2,15.2 19,15.2 C19,15.2 18.9,15.2 18.9,15.2 C18.8,14.8 18.8,14.5 18.8,14.1 C19.3,14 19.9,13.8 20.4,13.7 C20.6,13.7 20.7,13.6 20.8,13.4 C20.9,13.3 20.9,13.1 20.9,12.9 C20.8,12.6 20.4,12.4 20,12.5 C19.5,12.6 19.1,12.7 18.6,12.8 C18.6,12.3 18.5,11.9 18.5,11.4 L20.7,11 C21.1,10.9 21.3,10.5 21.2,10.2 C21.1,9.9 20.7,9.7 20.3,9.8 C19.4,10 18.5,10.1 17.6,10.3 C17.6,10.3 17.6,10.3 17.5,10.3 C17.5,10.3 17.5,10.3 17.5,10.3 C17.2,10.4 17,10.7 17.1,11 C17.1,11 17.1,11 17.1,11 C17.2,12.5 17.4,14 17.6,15.5 C17.6,15.6 17.6,15.6 17.6,15.7 C17.6,16 17.9,16.4 18.3,16.3 C19.5,16.2 20.8,16 21.9,15.6 C22.3,15.8 22.5,15.5 22.4,15.1 Z" id="Path" fill="#FFFFFF"></path>
                </g>
            </g>
            <g id="Group" transform="translate(18.000000, 0.000000)" fill="#DCEEFD" fill-rule="nonzero">
                <path d="M140.3,154.2 L0.3,154.2 L0.3,70.5 C0.3,31.9 31.7,0.5 70.3,0.5 C108.9,0.5 140.3,31.9 140.3,70.5 L140.3,154.2 Z M1.1,153.3 L139.3,153.3 L139.3,70.5 C139.3,32.4 108.3,1.4 70.2,1.4 C32.1,1.4 1.1,32.4 1.1,70.5 L1.1,153.3 Z" id="Shape"></path>
                <path d="M132.1,154.2 L8.4,154.2 L8.4,70.1 C8.4,36 36.2,8.2 70.3,8.2 C104.4,8.2 132.2,36 132.2,70.1 L132.2,154.2 L132.1,154.2 Z M9.3,153.3 L131.3,153.3 L131.3,70.1 C131.3,36.5 103.9,9.1 70.3,9.1 C36.7,9.1 9.3,36.5 9.3,70.1 L9.3,153.3 Z" id="Shape"></path>
                <rect id="Rectangle" x="48.5" y="12.5" width="1" height="141.2"></rect>
                <rect id="Rectangle" x="91.7" y="12.5" width="1" height="141.2"></rect>
                <rect id="Rectangle" x="13.5" y="46.2" width="114" height="1"></rect>
                <rect id="Rectangle" x="13.5" y="100.5" width="118.2" height="1"></rect>
            </g>
            <g id="Group" transform="translate(124.000000, 123.000000)" fill-rule="nonzero">
                <g transform="translate(2.000000, 0.000000)" fill="#B8DCFB" id="Path">
                    <path d="M39.3,8.9 L4.1,8.9 C1.7,8.9 -0.1,7 0.2,4.6 L0.2,4.6 C0.4,2.2 2.5,0.3 4.9,0.3 L40.1,0.3 C42.5,0.3 44.3,2.2 44,4.6 L44,4.6 C43.8,7 41.7,8.9 39.3,8.9 Z"></path>
                    <polygon points="7.6 27.7 4.2 27.9 4.5 7.2 8 6.9"></polygon>
                    <polygon points="35 31 31.6 30.6 36.5 6.7 39.9 7.1"></polygon>
                    <polygon points="13.8 30.8 11.7 30.8 13.8 6.8 15.9 6.8"></polygon>
                    <polygon points="17.7 30.8 15.7 30.8 17.8 6.8 19.8 6.8"></polygon>
                    <polygon points="21.7 30.8 19.7 30.8 21.8 6.8 23.8 6.8"></polygon>
                    <polygon points="25.7 30.8 23.7 30.8 25.8 6.8 27.8 6.8"></polygon>
                </g>
                <g fill="#DCEEFD" id="Path">
                    <path d="M39.7,8.9 L4.5,8.9 C2.1,8.9 0.3,7 0.6,4.6 L0.6,4.6 C0.8,2.2 2.9,0.3 5.3,0.3 L40.5,0.3 C42.9,0.3 44.7,2.2 44.4,4.6 L44.4,4.6 C44.2,7 42.1,8.9 39.7,8.9 Z"></path>
                    <polygon points="8 27.7 4.5 27.9 4.9 7.2 8.4 6.9"></polygon>
                    <polygon points="35.3 31 31.9 30.6 36.9 6.7 40.3 7.1"></polygon>
                    <polygon points="14.9 30.8 12.9 30.8 15 6.8 17 6.8"></polygon>
                    <polygon points="18.9 30.8 16.9 30.8 19 6.8 21 6.8"></polygon>
                    <polygon points="22.9 30.8 20.8 30.8 22.9 6.8 25 6.8"></polygon>
                    <polygon points="26.8 30.8 24.8 30.8 26.9 6.8 28.9 6.8"></polygon>
                </g>
            </g>
            <g id="Group" transform="translate(0.000000, 70.000000)" fill-rule="nonzero">
                <circle id="Oval" fill="#002031" cx="16.9" cy="25.7" r="4.7"></circle>
                <circle id="Oval" fill="#002031" cx="16.9" cy="29.8" r="4.7"></circle>
                <circle id="Oval" fill="#002031" cx="20.3" cy="32.2" r="4.7"></circle>
                <circle id="Oval" fill="#002031" cx="28.8" cy="16.9" r="4.1"></circle>
                <circle id="Oval" fill="#002031" cx="31.6" cy="20.9" r="2.8"></circle>
                <circle id="Oval" fill="#002031" cx="18" cy="21.1" r="4.7"></circle>
                <circle id="Oval" fill="#002031" cx="23" cy="18.7" r="5.3"></circle>
                <path d="M17.8,31 C17.8,31 18.4,35 21.2,34.8 L21,31 L17.8,31 Z" id="Path" fill="#002031"></path>
                <g transform="translate(2.000000, 52.000000)" id="Path">
                    <g fill="#B8DCFB">
                        <path d="M5.5,8.7 L40.7,8.7 C43.1,8.7 44.9,6.8 44.6,4.4 L44.6,4.4 C44.4,2 42.3,0.1 39.9,0.1 L4.8,0.1 C2.4,0.1 0.6,2 0.9,4.4 L0.9,4.4 C1,6.8 3.1,8.7 5.5,8.7 Z"></path>
                        <polygon points="37.2 27.5 40.7 27.7 40.3 7 36.9 6.7"></polygon>
                        <polygon points="10.2 32.4 13.6 32 8.4 6.5 5 6.9"></polygon>
                        <polygon points="31.1 30.6 33.1 30.6 31 6.6 29 6.6"></polygon>
                        <polygon points="27.1 30.6 29.2 30.6 27.1 6.6 25 6.6"></polygon>
                        <polygon points="23.1 30.6 25.2 30.6 23.1 6.6 21 6.6"></polygon>
                        <polygon points="19.2 30.6 21.2 30.6 19.1 6.6 17.1 6.6"></polygon>
                    </g>
                    <g transform="translate(2.000000, 0.000000)" fill="#DCEEFD">
                        <path d="M5.2,8.7 L40.4,8.7 C42.8,8.7 44.6,6.8 44.3,4.4 L44.3,4.4 C44.1,2 42,0.1 39.6,0.1 L4.4,0.1 C2,0.1 0.2,2 0.5,4.4 L0.5,4.4 C0.7,6.8 2.8,8.7 5.2,8.7 Z"></path>
                        <polygon points="36.9 27.5 40.3 27.7 40 7 36.5 6.7"></polygon>
                        <polygon points="9.5 30.8 12.9 30.4 8 6.5 4.6 6.9"></polygon>
                        <polygon points="30 30.6 32 30.6 29.9 6.6 27.9 6.6"></polygon>
                        <polygon points="26 30.6 28 30.6 25.9 6.6 23.9 6.6"></polygon>
                        <polygon points="22 30.6 24 30.6 21.9 6.6 19.9 6.6"></polygon>
                        <polygon points="18 30.6 20.1 30.6 18 6.6 15.9 6.6"></polygon>
                    </g>
                </g>
                <path d="M21.3,84.8 L3.4,84.8 C2.6,84.8 1.9,84.1 1.9,83.3 L1.9,83.3 C1.9,82.5 2.6,81.8 3.4,81.8 L21.2,81.8 C22,81.8 22.7,82.5 22.7,83.3 L22.7,83.3 C22.8,84.1 22.1,84.8 21.3,84.8 Z" id="Path" fill="#DCEEFD"></path>
                <path d="M22.2,44.6 L14.6,47.5 C12.1,48.5 10.1,50.4 9.1,52.9 L1.3,73.7 C-0.1,77.3 2.1,81.2 5.9,81.8 L25.5,83.2 L27.4,74.6 L13,72.4 L23.3,51.5 L22.2,44.6 Z" id="Path" fill="#FE6F43"></path>
                <path d="M5.8,81.8 L25.4,83.2 L25.9,81.1 L3.8,81.1 C4.4,81.5 5.1,81.7 5.8,81.8 Z M22.3,45.4 L20,45.4 L14.5,47.5 C12.5,48.2 10.9,49.6 9.8,51.3 L23.3,51.3 L22.3,45.4 Z M13,72.4 L14.6,69.2 L2.9,69.2 L1.2,73.7 C1,74.2 0.9,74.6 0.8,75.1 L27.2,75.1 L27.3,74.6 L13,72.4 Z M20.5,57.3 L7.3,57.3 L5.1,63.2 L17.5,63.2 L20.5,57.3 Z" id="Shape" fill="#FE8864"></path>
                <polygon id="Path" fill="#FE6F43" points="22.2 44.5 30.4 44.1 38.9 46 50.2 78.6 20.3 81.8 14.5 47.5"></polygon>
                <path d="M47,69.2 L18.2,69.2 L19.2,75.1 L49,75.1 L47,69.2 Z M38.9,46 L36.4,45.4 L19.8,45.4 L14.5,47.5 L15.1,51.3 L40.6,51.3 L38.9,46 Z M20.3,81.8 L26.1,81.2 L20.2,81.2 L20.3,81.8 Z M42.8,57.3 L16.2,57.3 L17.2,63.2 L44.9,63.2 L42.8,57.3 Z" id="Shape" fill="#FE8864"></path>
                <polygon id="Path" fill="#C26E5E" points="32.3 75.6 29.7 81.6 34.6 82.2 36.4 85.1 40.2 83.5 38.9 77"></polygon>
                <path d="M31.2,44.2 L47.7,33.3 L52.1,9.7 L59.4,9.7 L56.8,35.2 C56.6,36.3 56.1,37.2 55.4,38 L39.9,51.4 L31.2,44.2 Z" id="Path" fill="#FE6F43"></path>
                <path d="M52.1,9.6 L51,15.6 L58.8,15.6 L59.4,9.7 L52.1,9.7 L52.1,9.6 Z M38.4,39.4 L53.7,39.4 L55.4,38 C56.2,37.2 56.7,36.3 56.8,35.2 L57,33.5 L47.4,33.5 L38.4,39.4 Z M48.8,27.5 L57.6,27.5 L58.2,21.6 L49.9,21.6 L48.8,27.5 Z M39.8,51.3 L39.8,51.3 L46.7,45.4 L32.7,45.4 L39.8,51.3 Z" id="Shape" fill="#FE8864"></path>
                <path d="M20.1,28.6 L22.4,44.4 L31.2,48.9 C31.8,49.2 32.5,48.8 32.6,48.1 L32.7,43.7 L28.6,32.2 L20.1,28.6 Z" id="Path" fill="#C26E5E"></path>
                <path d="M17.8,26.7 C17.9,31.4 22.5,35.3 27.2,35.7 C32.6,36.2 35.8,32.4 34.9,26.7 C34.1,22.1 30.9,18.2 26.2,18.2 C21.5,18.2 17.7,22 17.8,26.7 Z" id="Path" fill="#C26E5E"></path>
                <path d="M30,29.1 C29.9,29.1 29.8,29 29.8,28.9 C29.8,28.8 29.9,28.7 30,28.7 C30.6,28.7 31.3,28.5 31.4,28.3 C31.5,28.1 31,26.9 30.7,26.3 C30.5,25.8 30.3,25.5 30.2,25.2 C30.2,25.1 30.2,25 30.3,24.9 C30.4,24.9 30.5,24.9 30.6,25 C30.7,25.2 30.8,25.6 31,26 C31.6,27.2 31.9,28 31.7,28.3 C31.6,28.9 30.4,29 30,29.1 C30,29.1 30,29.1 30,29.1 Z" id="Path" fill="#002031"></path>
                <path d="M12.8,74.3 C12.7,74.3 12.6,74.2 12.6,74.1 C12.6,73.8 12.7,73.2 12.7,72.8 L11.5,73.4 C11.4,73.5 11.3,73.4 11.2,73.3 C11.1,73.2 11.2,73.1 11.3,73 L12.9,72.3 C13,72.3 13.1,72.3 13.1,72.3 C13.2,72.3 13.2,72.4 13.2,72.5 C13.2,72.5 13,73.7 13,74.1 C13.1,74.2 13,74.3 12.8,74.3 Z" id="Path" fill="#002031"></path>
                <path d="M16.7,65.1 C16.7,65.1 16.7,65.1 16.7,65.1 C16.5,65 16.4,64.9 16.5,64.8 L17.7,62.3 L18.1,62.5 L16.9,65 C16.9,65.1 16.8,65.1 16.7,65.1 Z" id="Path" fill="#002031"></path>
                <rect id="Rectangle" fill="#FFFFFF" transform="translate(25.502820, 74.418460) rotate(-79.000209) translate(-25.502820, -74.418460) " x="25.3028257" y="67.4686574" width="1" height="13.8996052"></rect>
                <path d="M20.7,30.8 C21.1,32 21.7,32.7 20.5,33.1 C19.3,33.5 17.9,32.9 17.5,31.7 C17.1,30.5 17.7,29.1 18.9,28.7 C20.1,28.3 20.2,29.6 20.7,30.8 Z" id="Path" fill="#C26E5E"></path>
                <path d="M25.5,24.9 C25.5,24.9 25.5,24.9 25.5,24.9 C25.3,24.9 25.3,24.7 25.3,24.6 C25.5,23.8 26.3,23.2 27.1,23.1 C27.2,23.1 27.3,23.2 27.4,23.3 C27.4,23.4 27.3,23.5 27.2,23.6 C26.5,23.7 26,24.2 25.8,24.8 C25.7,24.9 25.6,24.9 25.5,24.9 Z" id="Path" fill="#002031"></path>
                <path d="M32.9,23.9 C32.9,23.9 32.8,23.9 32.8,23.9 C32.3,23.5 31.5,23.5 30.9,23.9 C30.8,24 30.7,23.9 30.6,23.8 C30.5,23.7 30.6,23.6 30.7,23.5 C31.4,23.1 32.4,23.1 33.1,23.6 C33.2,23.7 33.2,23.8 33.2,23.9 C33.1,23.9 33,23.9 32.9,23.9 Z" id="Path" fill="#002031"></path>
                <path d="M28.4,29.7 L31.7,29.8 C31.9,29.8 32,30 31.9,30.1 C31.4,30.8 29.9,32.3 28.2,30 C28.1,29.9 28.2,29.7 28.4,29.7 Z" id="Path" fill="#FFFFFF"></path>
                <path d="M27.4,26.8 C27.4,26.8 27.4,26.8 27.4,26.8 C27.2,26.7 27.1,26.6 27.2,26.5 C27.4,26.1 27.7,25.9 28.1,25.9 C28.5,25.9 28.9,26 29.1,26.3 C29.2,26.4 29.2,26.5 29.1,26.6 C29,26.7 28.9,26.7 28.8,26.6 C28.7,26.4 28.4,26.3 28.2,26.3 C28,26.3 27.7,26.5 27.6,26.7 C27.6,26.7 27.5,26.8 27.4,26.8 Z" id="Path" fill="#002031"></path>
                <path d="M31.6,26.2 C31.6,26.2 31.6,26.2 31.6,26.2 C31.4,26.1 31.3,26 31.4,25.9 C31.6,25.5 31.9,25.3 32.3,25.3 C32.7,25.3 33.1,25.4 33.3,25.7 C33.4,25.8 33.4,25.9 33.3,26 C33.2,26.1 33.1,26.1 33,26 C32.9,25.8 32.6,25.7 32.4,25.7 C32.2,25.7 31.9,25.9 31.8,26.1 C31.8,26.2 31.7,26.2 31.6,26.2 Z" id="Path" fill="#002031"></path>
                <rect id="Rectangle" fill="#FFFFFF" transform="translate(44.786640, 63.113930) rotate(-19.172420) translate(-44.786640, -63.113930) " x="44.5866473" y="48.1144789" width="1" height="29.9989021"></rect>
                <path d="M52.1,9.6 L49.5,5.8 C49.3,5.5 49.3,5.1 49.6,4.8 L49.6,4.8 C49.8,4.6 50.2,4.6 50.5,4.7 L52.4,5.9 L52.1,1.7 C52.1,1.2 52.5,0.7 53,0.7 L53,0.7 C53.4,0.7 53.8,1 53.9,1.4 L54.8,5.8 L55,1.1 C55,0.6 55.4,0.2 56,0.2 L56,0.2 C56.5,0.2 56.9,0.6 57,1.1 L57,6 L58.1,2.2 C58.3,1.5 59.1,1.3 59.6,1.7 L59.6,1.7 C59.9,1.9 60,2.3 60,2.7 L59.3,6.6 L60.2,5.1 C60.5,4.6 61.3,4.7 61.5,5.3 L61.5,5.3 C61.6,5.5 61.5,5.7 61.4,5.9 L59.3,9.7 L52.1,9.7 L52.1,9.6 Z" id="Path" fill="#C26E5E"></path>
                <path d="M54.1,9.2 C54.1,9.2 54.1,9.2 54.1,9.2 C54,9.2 53.9,9.1 53.9,9 C54.1,7.6 53.4,7.1 53.3,7.1 C53.2,7 53.2,6.9 53.2,6.8 C53.3,6.7 53.4,6.7 53.5,6.7 C53.5,6.7 54.5,7.3 54.2,9 C54.3,9.1 54.2,9.2 54.1,9.2 Z" id="Path" fill="#002031"></path>
                <circle id="Oval" fill="#002031" cx="18.7" cy="26.6" r="2.8"></circle>
                <circle id="Oval" fill="#002031" cx="19.7" cy="22.8" r="3.2"></circle>
                <circle id="Oval" fill="#002031" cx="23.8" cy="18.8" r="3.7"></circle>
                <circle id="Oval" fill="#002031" cx="29.4" cy="18.4" r="2.5"></circle>
            </g>
            <path d="M16.8,154.2 L12.2,210.7 C12.2,210.7 28,218.4 42,218.2 L42,226.8 C42,226.8 59.9,239.4 85.7,230.7 C85.7,230.7 114.2,238.7 135.8,226.8 L135.6,220.4 C135.6,220.4 158.1,218.8 166.6,210.7 L165,154.7 L16.8,154.2 Z" id="Path" fill="#59ACF5" fill-rule="nonzero"></path>
            <ellipse id="Oval" fill="#C8E7FC" fill-rule="nonzero" cx="90.9" cy="154.8" rx="74.1" ry="8.5"></ellipse>
            <path d="M90,152.5 C87.4,152.5 82.6,152.2 82.6,151 C82.6,149.8 87.5,149.5 90,149.5 C92.5,149.5 97.4,149.8 97.4,151 C97.4,152.2 92.6,152.5 90,152.5 Z M90,149.9 C85.5,149.9 83,150.6 83,151 C83,151.4 85.5,152.1 90,152.1 C94.5,152.1 97,151.4 97,151 C97,150.6 94.5,149.9 90,149.9 Z" id="Shape" fill="#FFFFFF" fill-rule="nonzero"></path>
            <path d="M121.1,157.1 C118.5,157.1 113.7,156.8 113.7,155.6 C113.7,154.4 118.6,154.1 121.1,154.1 C123.6,154.1 128.5,154.4 128.5,155.6 C128.5,156.8 123.6,157.1 121.1,157.1 Z M121.1,154.5 C116.6,154.5 114.1,155.2 114.1,155.6 C114.1,156 116.6,156.7 121.1,156.7 C125.6,156.7 128.1,156 128.1,155.6 C128.1,155.2 125.6,154.5 121.1,154.5 Z" id="Shape" fill="#FFFFFF" fill-rule="nonzero"></path>
            <path d="M57,156.7 C54.3,156.7 49.3,156.4 49.3,155.1 C49.3,153.8 54.3,153.5 57,153.5 C59.7,153.5 64.7,153.8 64.7,155.1 C64.7,156.4 59.6,156.7 57,156.7 Z M57,154 C52.3,154 49.8,154.8 49.8,155.2 C49.8,155.6 52.4,156.4 57,156.4 C61.6,156.4 64.2,155.6 64.2,155.2 C64.2,154.7 61.7,154 57,154 Z" id="Shape" fill="#FFFFFF" fill-rule="nonzero"></path>
            <g id="Group" transform="translate(51.000000, 140.000000)" fill-rule="nonzero">
                <path d="M10.9,15.2 L1.1,15.2 C0.6,15.2 0.2,14.8 0.2,14.3 L0.2,0.8 C0.2,0.6 0.4,0.4 0.6,0.4 L11.2,0.4 C11.4,0.4 11.6,0.6 11.6,0.8 L11.6,14.3 C11.7,14.8 11.3,15.2 10.9,15.2 Z" id="Path" fill="#DCEEFD"></path>
                <rect id="Rectangle" fill="#FFFFFF" transform="translate(7.173770, 4.046340) rotate(26.070538) translate(-7.173770, -4.046340) " x="5.62369007" y="2.49626007" width="3.10015986" height="3.10015986"></rect>
                <rect id="Rectangle" fill="#FE6F43" x="1.5" y="4.8" width="8.8" height="8.8"></rect>
                <rect id="Rectangle" fill="#FFFFFF" transform="translate(3.644655, 5.165785) rotate(-17.001630) translate(-3.644655, -5.165785) " x="2.09464923" y="3.61577923" width="3.10001155" height="3.10001155"></rect>
                <rect id="Rectangle" fill="#F0ECEC" transform="translate(7.532890, 7.650420) rotate(26.070538) translate(-7.532890, -7.650420) " x="5.98281007" y="6.10034007" width="3.10015986" height="3.10015986"></rect>
                <polygon id="Path" fill="#F0ECEC" points="5.6 6.2 2.7 7.1 2 4.8 5.2 4.8"></polygon>
            </g>
            <g id="Group" transform="translate(68.000000, 74.000000)" fill-rule="nonzero">
                <path d="M37.8,57 L12.2,57 C10.1,57 8.4,55.3 8.4,53.2 L8.4,53.2 C8.4,51.1 10.1,49.4 12.2,49.4 L37.8,49.4 C39.9,49.4 41.6,51.1 41.6,53.2 L41.6,53.2 C41.6,55.3 39.9,57 37.8,57 Z" id="Path" fill="#DCEEFD"></path>
                <path d="M22.4,28 C23.7,29.6 26.2,29.5 28,30.5 C29,31.1 29.8,32 30.4,33 C31.2,34.4 31.6,36.1 31.3,37.7 C31,39.3 29.8,40.7 28.2,41.2 L22.4,28 Z" id="Path" fill="#F17277"></path>
                <path d="M9.6,14.1 C7.9,14.1 6.3,14.7 5.1,15.9 C4.2,16.8 3.5,18 3.1,19.2 C1.9,22.6 2.2,26.4 3.6,29.7 C4.6,32 6.2,34.2 6.5,36.7 C6.7,39.3 5.6,41.8 5.9,44.3 C6.3,47.5 8.8,49.9 11.2,52 C11.3,51.2 12,50.6 12.7,50.1 C14.8,48.7 17.2,47.6 19.7,46.8 C20.8,46.5 22,46.2 22.7,45.3 C23.2,44.7 23.4,44 23.6,43.3 C24.1,41.3 24.6,39.2 24.4,37.2 C24.1,33.7 22.3,30.6 20.9,27.4 C18.6,22.8 16.1,14.3 9.6,14.1 Z" id="Path" fill="#F17277"></path>
                <path d="M27.6,22 C27.9,27.3 23.3,30.8 18.4,31.1 C13.5,31.4 10,28.4 9.7,23.1 C9.4,17.8 13.1,13.3 18.1,13 C23.1,12.7 27.3,16.7 27.6,22 Z" id="Path" fill="#F17277"></path>
                <path d="M29.3,37 L42.6,31.3 L46.3,8.9 L52,9.1 L50.5,35 C50.4,36.2 49.8,37.3 48.7,37.9 L32.4,47.1 L29.3,37 Z" id="Path" fill="#F4C9DB"></path>
                <path d="M36.1,49.5 L40.1,44.7 L39.4,32.7 C39.4,32.7 29.9,36.2 27.3,37.2 L12.9,42.3 L12.9,42.3 L7.7,44 C5.6,44.7 4.1,46.4 3.7,48.6 L1.7,59.8 L10.8,59.8 L9.2,72.9 L34.8,72.5 L36.6,55 C36.7,54.1 36.6,53.3 36.5,52.4 L36.1,49.5 Z" id="Path" fill="#1540EB"></path>
                <path d="M1.9,59.7 L0.2,68.8 C-0.3,71.6 1.9,74.2 4.8,74.1 L22.4,73.4 L23.6,68.5 L10.4,66.7 L11.2,59.7 L1.9,59.7 Z" id="Path" fill="#F4C9DB"></path>
                <path d="M12.7,22.3 C13,26.6 17.4,29.9 21.7,30 C26.6,30.2 29.4,26.5 28.2,21.4 C27.3,17.2 24.1,13.8 19.8,14.1 C15.6,14.4 12.4,18 12.7,22.3 Z" id="Path" fill="#F4C9DB"></path>
                <path d="M15.6,27.5 L17.1,40.8 C17.1,40.8 23.9,42.9 26.7,37.4 L23,29.3 L15.6,27.5 Z" id="Path" fill="#F4C9DB"></path>
                <polygon id="Path" fill="#EDA7C5" points="24.4 32.1 23.4 30 21.1 30.1"></polygon>
                <path d="M15.1,26 C15.6,27.1 16.6,27.6 15,28.1 C13.9,28.5 12.7,28.1 12.2,27 C11.7,25.9 12.2,24.7 13.3,24.2 C14.4,23.7 14.6,24.9 15.1,26 Z" id="Path" fill="#F4C9DB"></path>
                <path d="M12.9,24.4 C12.9,24.4 13.8,23.7 14.8,25 L15.2,24.8 C15.6,24.6 15.8,24.1 15.7,23.7 L13.6,17.1 L11.9,19.8 C11.9,19.8 12.1,24.1 12.9,24.4 Z" id="Path" fill="#F17277"></path>
                <path d="M13.6,14.3 C14.9,13 16.7,12 19,11.7 C22.4,11.3 25.6,13.3 27.1,16.3 L28,18.2 L17.9,21 L15.9,18.4 L16.8,21.6 L11.3,23.3 L11.3,23.3 C10.4,20 11.3,16.6 13.6,14.3 Z" id="Path" fill="#F17277"></path>
                <path d="M10.9,20 C10.8,20 10.7,19.9 10.7,19.8 C10.7,19.7 10.5,16.8 13,14.5 C13.1,14.4 13.2,14.4 13.3,14.5 C13.4,14.6 13.4,14.7 13.3,14.8 C11,17 11.2,19.7 11.2,19.8 C11.1,19.9 11.1,20 10.9,20 C10.9,20 10.9,20 10.9,20 Z" id="Path" fill="#FFFFFF"></path>
                <path d="M11.2,59.9 C11.2,59.9 11.2,59.9 11.2,59.9 C11,59.9 11,59.8 11,59.6 L12.1,51.4 C12.1,51.3 12.2,51.2 12.3,51.2 C12.4,51.2 12.5,51.3 12.5,51.4 L11.4,59.6 C11.4,59.8 11.3,59.9 11.2,59.9 Z" id="Path" fill="#002031"></path>
                <path d="M12.1,53.8 C12.1,53.8 12,53.8 12,53.7 C11.9,53.6 11.9,53.5 12,53.4 L13.3,51.9 C13.4,51.8 13.5,51.8 13.6,51.9 C13.7,52 13.7,52.1 13.6,52.2 L12.3,53.7 C12.2,53.8 12.1,53.8 12.1,53.8 Z" id="Path" fill="#002031"></path>
                <path d="M10.1,67.8 C10.1,67.8 10.1,67.8 10.1,67.8 C9.9,67.8 9.9,67.6 9.9,67.5 L10.1,67 L9.5,67.3 C9.4,67.4 9.3,67.3 9.2,67.2 C9.1,67.1 9.2,67 9.3,66.9 L10.3,66.4 C10.4,66.4 10.5,66.4 10.5,66.4 C10.6,66.5 10.6,66.5 10.6,66.6 L10.3,67.6 C10.3,67.8 10.2,67.8 10.1,67.8 Z" id="Path" fill="#FFFFFF"></path>
                <path d="M32.1,73 L26.7,73 L25.7,59.7 C25.7,59.4 25.9,59.1 26.3,59.1 L33,59.1 C33.3,59.1 33.6,59.4 33.6,59.7 L32.1,73 Z" id="Path" fill="#FFFFFF"></path>
                <polygon id="Path" fill="#C26E5E" points="26.6 61.5 32.7 61.5 31.7 70.6 27.3 70.6"></polygon>
                <path d="M23.6,68.4 L24.1,66.9 C24.3,66.4 24.8,66.1 25.3,66.1 L32.9,66.1 C33.4,66.1 33.8,66.5 33.7,67 L32.8,73.3 L22.4,73.4 L23.6,68.4 Z" id="Path" fill="#F4C9DB"></path>
                <path d="M46.4,9.8 L43.2,5.7 C43,5.4 43,5 43.3,4.8 L43.3,4.8 C43.5,4.6 43.9,4.6 44.1,4.7 L46,5.8 L45.7,1.8 C45.7,1.3 46.1,0.9 46.6,0.9 L46.6,0.9 C47,0.9 47.4,1.2 47.4,1.6 L48.2,5.8 L48.4,1.3 C48.4,0.8 48.8,0.4 49.3,0.4 L49.3,0.4 C49.8,0.4 50.2,0.8 50.2,1.3 L50.3,5.7 L51.3,2.1 C51.5,1.5 52.3,1.2 52.8,1.6 L52.8,1.6 C53.1,1.8 53.2,2.2 53.2,2.5 L52.5,6.3 L53.4,4.9 C53.7,4.4 54.5,4.5 54.6,5 L54.6,5 C54.7,5.2 54.6,5.4 54.6,5.5 L51.4,10.4 L46.4,9.8 Z" id="Path" fill="#F4C9DB"></path>
                <path d="M36.2,49.6 C36.1,49.6 36,49.5 36,49.4 L35.3,46.1 C35.3,46 35.4,45.9 35.5,45.8 C35.6,45.8 35.7,45.9 35.8,46 L36.5,49.3 C36.4,49.5 36.4,49.6 36.2,49.6 C36.2,49.6 36.2,49.6 36.2,49.6 Z" id="Path" fill="#FFFFFF"></path>
                <path d="M48.4,9.3 C48.3,9.3 48.3,9.3 48.4,9.3 C48.3,9.3 48.2,9.2 48.2,9.1 C48.4,7.7 47.7,7.2 47.6,7.2 C47.5,7.1 47.5,7 47.5,6.9 C47.6,6.8 47.7,6.8 47.8,6.8 C47.8,6.8 48.8,7.4 48.5,9.1 C48.6,9.2 48.5,9.3 48.4,9.3 Z" id="Path" fill="#002031"></path>
                <path d="M24.1,24.2 C24,24.2 23.9,24.1 23.9,24 C23.9,23.9 23.9,23.8 24.1,23.7 C24.2,23.7 24.7,23.5 24.8,23.2 C24.9,23 24.4,22.3 24.2,21.8 C24,21.4 23.8,21.1 23.7,20.9 C23.7,20.8 23.7,20.7 23.8,20.6 C23.9,20.6 24,20.6 24.1,20.7 C24.2,20.9 24.4,21.2 24.6,21.6 C25.1,22.4 25.4,23 25.3,23.3 C24.9,24 24.2,24.2 24.1,24.2 C24.1,24.2 24.1,24.2 24.1,24.2 Z" id="Path" fill="#002031"></path>
                <circle id="Oval" fill="#002031" cx="21.9" cy="22" r="1"></circle>
                <circle id="Oval" fill="#002031" cx="25.4" cy="20.9" r="1"></circle>
                <path d="M21.9,24.9 L25.3,25 C25.5,25 25.6,25.2 25.5,25.3 C24.9,26 23.4,27.6 21.7,25.2 C21.6,25.1 21.7,24.9 21.9,24.9 Z" id="Path" fill="#FFFFFF"></path>
            </g>
            <g id="Group" transform="translate(165.000000, 33.000000)">
                <path d="M98.5,197.6 C98.5,199.3 66.7,200.7 44,200.7 C21.3,200.7 0.8,199.3 0.8,197.6 C0.8,195.9 21.3,194.5 44,194.5 C66.7,194.5 98.5,195.9 98.5,197.6 Z" id="Path" fill="#DCEEFD" fill-rule="nonzero"></path>
                <g transform="translate(29.000000, 38.000000)" fill-rule="nonzero" id="Path">
                    <path d="M2.6,2.5 L7.6,0.7 L7.5,0.5 L8.4,0.6 C8.4,0.6 8.4,0.6 8.5,0.6 L8.6,0.6 L8.6,0.6 C9.3,0.7 9.9,1.1 10.1,1.8 L14.9,15.9 C15.2,16.9 14.7,18 13.7,18.3 L8.6,20.1 C7.6,20.5 6.5,19.9 6.2,18.9 L1.4,5 C1,4 1.6,2.9 2.6,2.5 Z" fill="#002031"></path>
                    <path d="M12.6,18.3 L7.5,20.1 C6.5,20.5 5.4,19.9 5.1,18.9 L0.3,4.8 C-2.84217094e-14,3.8 0.5,2.7 1.5,2.4 L6.6,0.6 C7.6,0.2 8.7,0.8 9,1.8 L13.8,15.9 C14.1,16.9 13.6,18 12.6,18.3 Z" fill="#1540EB"></path>
                </g>
                <path d="M36.1,47.7 L30.9,50.5 C29.4,51.5 28.7,53.3 29.1,55 L31.3,62.8 L37.9,60.2 L36.4,55.5 L39.1,53.2 L36.1,47.7 Z" id="Path" fill="#DD933C" fill-rule="nonzero"></path>
                <path d="M33.9,51.4 C33.8,51.4 33.8,51.4 33.7,51.3 C33.6,51.2 33.7,51.1 33.8,51 L36.9,49.1 C37,49 37.1,49.1 37.2,49.2 C37.3,49.3 37.2,49.4 37.1,49.5 L34,51.4 C34,51.4 34,51.4 33.9,51.4 Z" id="Path" fill="#002031" fill-rule="nonzero"></path>
                <path d="M35.2,53.4 C35.1,53.4 35.1,53.4 35,53.3 C34.9,53.2 35,53.1 35.1,53 L38,51.1 C38.1,51 38.2,51.1 38.3,51.2 C38.4,51.3 38.3,51.4 38.2,51.5 L35.3,53.4 C35.3,53.4 35.2,53.4 35.2,53.4 Z" id="Path" fill="#002031" fill-rule="nonzero"></path>
                <path d="M77.9,30.3 C77.3,29.7 74.4,27.6 73.7,27.3 C72.8,26.9 71.7,26.8 71,27.4 C70.6,27.7 70.4,28.3 70.4,28.8 C70.2,30.1 70.8,31.5 71.8,32.3 C71,31.6 70,30.9 69,31.2 C67.8,31.5 67.3,33.1 67.7,34.2 C68.1,35.3 69.2,36.1 70.3,36.7 L77.9,30.3 Z" id="Path" fill="#002031" fill-rule="nonzero"></path>
                <path d="M86.3,43.1 C86.3,43.1 86,47 83.3,47 L83.2,43.4 L86.3,43.1 Z" id="Path" fill="#002031" fill-rule="nonzero"></path>
                <path d="M82.7,55.2 L73.3,55.3 L63.7,58.3 C62.4,58.7 61.2,59.4 60.2,60.4 L44.8,75.6 L37.5,58.1 L30.4,60.5 C30.4,60.5 34.5,75.2 37.9,82.9 C39.9,87.5 44,88 47,86.4 C51.8,83.9 56.2,80.6 59,78.3 L56.8,89.7 L55.6,95.8 L89.6,95.4 L91.4,54.9 L82.7,55.2 Z" id="Path" fill="#F17277" fill-rule="nonzero"></path>
                <polygon id="Path" fill="#DD933C" fill-rule="nonzero" points="84 40.2 82.8 55.2 73.1 55.3 76.3 44.3"></polygon>
                <path d="M86,38.2 C86.2,42.8 82,46.8 77.5,47.6 C72.3,48.5 69,45 69.5,39.4 C69.9,34.9 72.8,30.9 77.3,30.6 C81.9,30.2 85.8,33.6 86,38.2 Z" id="Path" fill="#DD933C" fill-rule="nonzero"></path>
                <path d="M73.9,41.3 C73.9,41.3 73.9,41.3 73.9,41.3 C73.8,41.3 73,41.2 72.8,40.6 C72.6,40.3 72.9,39.7 73.3,38.7 C73.5,38.3 73.6,37.9 73.7,37.7 C73.7,37.6 73.8,37.5 74,37.5 C74.1,37.5 74.2,37.6 74.2,37.8 C74.1,38.1 74,38.4 73.8,38.9 C73.6,39.4 73.2,40.2 73.3,40.4 C73.4,40.7 73.9,40.8 74.1,40.8 C74.2,40.8 74.3,40.9 74.3,41.1 C74.1,41.2 74,41.3 73.9,41.3 Z" id="Path" fill="#002031" fill-rule="nonzero"></path>
                <polygon id="Path" fill="#D17B26" fill-rule="nonzero" points="74.5 50.3 75.1 48.4 78.4 48.3"></polygon>
                <path d="M83.5,42.3 C83.2,43.5 82.7,44.2 83.9,44.5 C85.1,44.8 86.4,44.1 86.7,42.9 C87,41.7 86.3,40.4 85.1,40.1 C83.9,39.9 83.8,41.1 83.5,42.3 Z" id="Path" fill="#DD933C" fill-rule="nonzero"></path>
                <path d="M78.4,37 C78.3,37 78.2,36.9 78.2,36.9 C78,36.3 77.4,35.9 76.7,35.8 C76.6,35.8 76.5,35.7 76.5,35.6 C76.5,35.5 76.6,35.4 76.7,35.4 C77.5,35.5 78.2,36 78.5,36.8 C78.7,36.8 78.6,36.9 78.4,37 C78.5,37 78.4,37 78.4,37 Z" id="Path" fill="#002031" fill-rule="nonzero"></path>
                <path d="M71.1,36.5 C71,36.5 71,36.5 70.9,36.4 C70.8,36.3 70.8,36.2 70.9,36.1 C71.5,35.6 72.5,35.5 73.2,35.9 C73.3,36 73.4,36.1 73.3,36.2 C73.2,36.3 73.1,36.4 73,36.3 C72.4,36 71.7,36.1 71.2,36.5 C71.2,36.5 71.2,36.5 71.1,36.5 Z" id="Path" fill="#002031" fill-rule="nonzero"></path>
                <path d="M69.8,37.8 L69.7,40.4 C69.7,41.1 70.3,41.7 71,41.7 L71.2,41.7 C71.6,41.4 72.2,41.2 72.7,41.2 L75.7,41.3 C76.5,41.3 77.3,41.7 77.8,42.3 L77.9,42.4 C78.4,43 79.1,43.3 79.8,43.2 L79.8,43.2 C80.6,43.1 81.3,42.7 81.7,41.9 L83.4,38.2 L85,40.3 L83,45.4 C82.3,47.1 80.6,48.3 78.8,48.3 L72.8,48.5 C71.8,48.5 70.7,48.2 69.9,47.5 L69.9,47.5 C68.7,46.5 68.1,44.9 68.4,43.3 L69.8,37.8 Z" id="Path" fill="#002031" fill-rule="nonzero"></path>
                <path d="M75.7,42.5 L72.8,42.4 C72.6,42.4 72.5,42.6 72.6,42.7 C73,43.4 74.3,44.8 75.9,42.8 C76,42.6 75.9,42.5 75.7,42.5 Z" id="Path" fill="#FFFFFF" fill-rule="nonzero"></path>
                <path d="M107.2,10.4 L105.4,5.6 C105.3,5.2 105.4,4.7 105.7,4.5 L105.7,4.5 C106,4.3 106.3,4.3 106.6,4.6 L108.3,6.3 L108.9,1.3 C109,0.7 109.5,0.2 110,0.3 L110,0.3 C110.4,0.4 110.7,0.8 110.7,1.3 L110.7,6.6 L111.8,1.2 C111.9,0.6 112.4,0.2 112.9,0.3 L112.9,0.3 C113.4,0.4 113.8,0.9 113.7,1.6 L112.9,7 L114.7,2.8 C115,2 115.9,1.9 116.3,2.5 L116.3,2.5 C116.5,2.8 116.6,3.3 116.5,3.7 L115,8.2 L116.2,6.6 C116.6,6 117.4,6.3 117.4,7 L117.4,7 C117.4,7.2 117.4,7.5 117.2,7.7 L114.4,11.8 L107.2,10.4 Z" id="Path" fill="#DD933C" fill-rule="nonzero"></path>
                <path d="M82.2,34.1 C81.4,34.2 80.6,33.9 79.8,33.6 C78.5,33.1 77.3,32.5 76.2,31.6 C75.1,30.8 74.2,29.6 73.8,28.3 C73.6,27.7 73.6,27 73.8,26.4 C74,25.8 74.5,25.3 75.1,25.1 C75.7,25 76.3,25.2 76.8,25.6 C77.3,26 77.7,26.5 78,27 C78.3,27.5 78.7,28 79,28.4 C78.6,27.8 78.3,27 78.3,26.3 C78.3,25.8 78.4,25.3 78.7,24.9 C79.1,24.5 79.7,24.4 80.3,24.5 C80.9,24.6 81.3,24.9 81.7,25.3 C82.6,26.1 83.1,27.3 83.4,28.4 C83.7,29.6 83.7,30.8 83.7,32 C83.8,31.6 84,31.2 84.3,30.9 C84.6,30.6 85.1,30.4 85.5,30.5 C85.7,30.6 85.9,30.7 86,30.9 C87.1,32 87.4,33.5 87.5,35 C87.6,35.7 87.6,36.3 87.4,37 C87.2,37.9 86.3,40.9 86,40.9 C84.2,40.8 81.5,37.5 82.2,34.1 Z" id="Path" fill="#002031" fill-rule="nonzero"></path>
                <polygon id="Path" fill="#104A4A" fill-rule="nonzero" points="57.7 95.7 58.9 141.5 70 185.1 86.7 185.1 77.6 138.8 75.9 95.5"></polygon>
                <g transform="translate(57.000000, 95.000000)" id="Clipped">
                    <g>
                        <mask id="mask-2" fill="white">
                            <use xlink:href="#path-1"></use>
                        </mask>
                        <g id="SVGID_1_"></g>
                        <path d="M19.3,59.3 C19.3,58.9 19.2,58.4 19,58.1 C18.5,57 17.8,55.9 16.7,55.5 C15.5,55 14.6,54.9 13.6,53.9 C12.8,53 12.1,52 11.2,51.2 C8.9,49.2 5.5,49 2.4,49 C2,49 1.5,49 1.1,49.2 C0.4,49.6 0.1,50.5 0.1,51.3 C0.3,53.7 2.5,55.2 4.4,56.6 C6.3,57.9 8.1,59.3 10.2,60.3 C12.3,61.3 14.6,61.9 16.8,61.5 C17.9,61.1 19.2,60.4 19.3,59.3 Z M11,38.6 C10.5,37.2 9.1,36.3 8,35.3 C6.5,33.9 5.3,32.2 3.7,30.9 C3,30.3 2.2,29.9 1.3,29.8 C0.4,29.7 -0.6,30.1 -0.9,31 C-1.3,32.1 -0.5,33.3 0.3,34.2 L1.2,35.5 C2.8,37.5 4.7,39.3 6.9,40.8 C7.4,41.2 8,41.5 8.7,41.6 C9.3,41.7 10.1,41.7 10.6,41.2 C11.3,40.6 11.4,39.5 11,38.6 Z M17.2,23.7 C16.5,22.9 15.2,22.9 14.1,23.2 C13.3,23.4 12.5,23.8 12.1,24.5 C11.6,25.4 11.9,26.5 12.3,27.4 C13.4,29.9 15.2,32.2 17.6,33.4 C19.4,34.3 21.4,34.6 23.3,35.4 C25.7,36.4 27.6,38.2 29.3,40.1 C30.7,41.8 31.7,44.5 34.4,43.7 C35.1,43.5 35.7,43 35.9,42.2 C36,41.8 35.9,41.3 35.8,40.9 C34.3,35 29.1,30.2 23.1,29.4 C22.2,29.3 21.3,29.2 20.4,28.9 C19.5,28.6 18.7,28.1 18.3,27.3 C17.6,26.1 18,24.6 17.2,23.7 Z M20.4,39.6 C20.4,38.6 20,37.6 19.3,37.1 C17.3,35.5 14.7,38.1 15.7,40.2 C16.7,42.5 20.4,42.6 20.4,39.6 Z M27.7,89.9 C27.7,88.9 27.3,87.9 26.6,87.4 C24.6,85.8 22,88.4 23,90.5 C24.1,92.8 27.7,92.9 27.7,89.9 Z M1.8,14.9 C3.6,16.4 5.3,17.9 7.2,19.4 C8.2,20.2 9.6,21 10.7,20.3 C11.4,19.9 11.6,18.9 11.5,18.1 C11.3,17.3 10.8,16.6 10.2,16.1 C8.6,14.6 6.5,13.7 5.3,11.9 C4.6,10.9 4.3,9.7 3.9,8.6 C3.4,7.2 2.8,5.8 1.9,4.6 C1,3.4 -0.3,2.4 -1.8,2.2 C-5.1,1.5 -8.1,5.3 -6.7,8.5 C-6,10 -4.4,10.8 -3,11.5 C-1.4,12.3 0.2,13.6 1.8,14.9 Z M10.3,5.3 C9.9,6.2 10.3,7.3 10.9,8.1 C12,9.6 13.6,10.6 15,11.7 C16.4,12.8 17.8,14.3 18,16.1 C18.2,18.2 17,21.7 19.7,22.9 C22,23.9 24,20.2 24.8,18.6 C25.4,17.3 25.7,15.9 25.9,14.4 C26.2,12.7 26.5,10.8 25.8,9.2 C25.2,8 24.2,7.1 23.1,6.4 C21.5,5.3 19.6,4.4 17.8,3.8 C15.7,3.1 13.2,2.8 11.4,4.1 C10.8,4.4 10.5,4.8 10.3,5.3 Z M4.6,63.9 C5.7,66.2 7.9,68.3 9.8,69.9 C10.2,70.3 10.7,70.6 11.3,70.8 C11.9,71 12.5,70.8 12.9,70.4 C13.3,69.9 13.2,69.3 13.1,68.7 C12.8,67.4 12.3,66.2 11.7,65 C11.3,64 10.8,63 10.1,62.2 C9.7,61.7 9.2,61.3 8.5,61.1 C6.6,60.4 3.5,61.6 4.6,63.9 Z M20.3,89.8 C20.3,89.3 20,88.8 19.9,88.3 C19.7,87.4 20.2,86.5 20.9,86 C21.6,85.4 22.4,85.1 23.2,84.8 C23.4,84.7 23.7,84.6 23.9,84.3 C24.3,83.7 23.8,83 23.3,82.5 C22.1,81.3 20.9,80.3 19.6,79.3 C18.1,78.1 16.4,77 14.5,76.6 C12.6,76.1 10.5,76.3 9,77.5 C6.9,79.1 6.4,82.2 7.1,84.8 C7.6,86.7 8.7,88.4 10.7,88.7 C13,89.1 15,89.9 17.1,90.8 C17.7,91 18.3,91.3 19,91.2 C19.6,90.9 20.2,90.4 20.3,89.8 Z M24.5,45.4 C22.5,45 20.4,45.6 18.4,45.4 C17.1,45.3 15.9,44.9 14.6,44.8 C14.2,44.8 13.8,44.8 13.6,45 C13.4,45.2 13.3,45.4 13.3,45.7 C13.1,46.8 13.5,47.9 14.2,48.7 C14.9,49.5 15.8,50.2 16.7,50.8 C18.8,52.3 20.8,53.8 22.7,55.4 C24.1,56.5 25.5,57.8 27.2,58.4 C28.4,58.9 29.7,59 31,59.2 C32.5,59.5 34.2,60 35.6,59.2 C37,58.4 37.4,56.5 36.9,55 C36.3,53.1 34.5,52.4 33,51.4 C30,49.5 27.9,46.1 24.5,45.4 Z M15.8,70.4 C16,71.1 16.4,71.7 16.9,72.3 C20.8,76.8 26.6,79.6 32.6,79.7 C33.8,79.7 35,79.6 36.1,79.1 C37.4,78.5 38.5,77.3 39.1,75.9 C40.1,73.5 39.5,70.8 37.7,69 C35.5,66.8 32.6,66.8 29.7,67 C27.9,67.1 26.2,67 24.4,66.8 C22.6,66.5 20.7,66 18.9,66.4 C17.1,66.9 15.4,68.6 15.8,70.4 Z" id="Shape" fill="#2C5F5F" fill-rule="nonzero" mask="url(#mask-2)"></path>
                    </g>
                    <g>
                        <mask id="mask-4" fill="white">
                            <use xlink:href="#path-3"></use>
                        </mask>
                        <g id="SVGID_1_"></g>
                        <polygon id="Path" fill="#002031" fill-rule="nonzero" mask="url(#mask-4)" points="20.5 41 7 65.7 6 61.1 20.6 32.9"></polygon>
                    </g>
                </g>
                <path d="M89.5,95.3 L88.7,106.1 C88.2,109.8 87.7,112.1 85.9,114.6 L71.7,139.7 L54.6,185 L38.3,178 L55.9,132 L75.6,95.4 L89.5,95.3 Z" id="Path" fill="#104A4A" fill-rule="nonzero"></path>
                <g id="Clipped" transform="translate(38.000000, 95.000000)">
                    <mask id="mask-6" fill="white">
                        <use xlink:href="#path-5"></use>
                    </mask>
                    <g id="SVGID_3_"></g>
                    <path d="M26.9,29 C26.7,29.4 26.6,29.8 26.6,30.2 C26.6,31.4 26.7,32.7 27.5,33.6 C28.4,34.6 29.2,35 29.6,36.4 C30,37.6 30.1,38.8 30.6,39.9 C31.8,42.7 34.8,44.3 37.5,45.7 C37.9,45.9 38.3,46.1 38.8,46.1 C39.6,46.1 40.3,45.4 40.6,44.6 C41.5,42.4 40.2,40 39,38 C37.9,36 36.9,33.9 35.5,32.1 C34.1,30.3 32.3,28.7 30.1,28.1 C28.9,27.9 27.5,28 26.9,29 Z M26.4,52.1 C26.3,53.6 27.1,55 27.7,56.4 C28.5,58.3 28.8,60.4 29.6,62.2 C30,63 30.5,63.8 31.2,64.2 C32,64.7 33,64.7 33.7,64.1 C34.6,63.3 34.4,61.9 34.1,60.7 L33.8,59.1 C33.3,56.6 32.3,54.1 31,51.9 C30.7,51.3 30.3,50.8 29.8,50.4 C29.3,50 28.6,49.7 28,49.9 C27,50.2 26.5,51.1 26.4,52.1 Z M14.3,62.8 C14.6,63.9 15.8,64.4 16.8,64.6 C17.6,64.8 18.5,64.8 19.2,64.3 C20,63.7 20.2,62.6 20.3,61.6 C20.4,58.9 19.8,56.1 18.1,53.9 C16.9,52.3 15.2,51.2 13.9,49.7 C12.2,47.7 11.2,45.3 10.6,42.8 C10,40.7 10.3,37.8 7.6,37.4 C6.9,37.3 6.1,37.5 5.6,38.1 C5.3,38.4 5.2,38.9 5.1,39.3 C3.8,45.2 6.5,51.8 11.5,55.3 C12.3,55.8 13.1,56.3 13.7,56.9 C14.4,57.5 14.9,58.4 14.9,59.3 C14.9,60.4 14,61.6 14.3,62.8 Z M18.4,47.1 C18,48 17.9,49 18.3,49.9 C19.4,52.2 22.8,51.1 22.9,48.7 C23,46.1 19.7,44.4 18.4,47.1 Z M38.4,3.3 C38,4.2 37.9,5.2 38.3,6.1 C39.4,8.4 42.8,7.3 42.9,4.9 C43,2.3 39.8,0.6 38.4,3.3 Z M28.2,71.9 C27.2,69.8 26.4,67.6 25.4,65.5 C24.8,64.3 23.9,63 22.7,63.1 C21.9,63.2 21.2,63.9 21.1,64.7 C20.9,65.5 21.1,66.3 21.4,67.1 C22.2,69.1 23.7,70.9 24,73 C24.2,74.2 23.9,75.4 23.8,76.6 C23.6,78.1 23.5,79.6 23.8,81.1 C24.1,82.6 24.8,84 26,84.9 C28.7,87 33,84.9 33.2,81.4 C33.3,79.8 32.1,78.3 31.2,77.1 C30,75.6 29.1,73.8 28.2,71.9 Z M12.4,82.4 C13.1,81.7 13.3,80.6 13.1,79.6 C12.8,77.8 11.8,76.2 11,74.6 C10.2,73 9.6,71 10.3,69.3 C11.1,67.3 13.7,64.7 11.8,62.5 C10.2,60.6 6.8,63 5.4,64.1 C4.3,65 3.4,66.2 2.6,67.3 C1.6,68.7 0.5,70.2 0.4,72 C0.4,73.3 0.9,74.6 1.6,75.7 C2.6,77.4 3.8,79 5.3,80.4 C6.9,81.9 9,83.3 11.1,82.9 C11.5,82.9 12,82.7 12.4,82.4 Z M21.4,85.2 C21.4,82.7 20.4,79.8 19.4,77.5 C19.2,77 18.9,76.4 18.5,76.1 C18.1,75.7 17.4,75.5 16.9,75.8 C16.4,76.1 16.1,76.7 16,77.3 C15.7,78.6 15.7,79.9 15.6,81.2 C15.6,82.3 15.5,83.3 15.8,84.4 C16,85 16.2,85.6 16.7,86.1 C18,87.5 21.3,87.8 21.4,85.2 Z M44.8,7.7 C44.5,8.1 44.6,8.7 44.5,9.2 C44.3,10.1 43.4,10.6 42.6,10.8 C41.7,11 40.8,10.9 40,10.9 C39.7,10.9 39.4,10.9 39.2,11 C38.6,11.3 38.7,12.3 38.9,12.9 C39.4,14.5 40.1,16 40.8,17.4 C41.7,19.1 42.7,20.8 44.2,22.1 C45.7,23.4 47.7,24.1 49.6,23.7 C52.2,23.2 54,20.6 54.5,18 C54.9,16 54.6,14.1 52.9,12.9 C51,11.6 49.6,9.9 48.1,8.2 C47.7,7.7 47.2,7.2 46.6,7 C45.9,7 45.1,7.1 44.8,7.7 Z M17.3,40.1 C18.9,41.4 21,41.7 22.8,42.8 C23.9,43.5 24.8,44.4 25.9,45 C26.2,45.2 26.6,45.3 26.9,45.2 C27.1,45.1 27.3,45 27.5,44.8 C28.2,44 28.3,42.8 28,41.7 C27.8,40.6 27.2,39.7 26.7,38.7 C25.5,36.5 24.4,34.2 23.3,31.9 C22.6,30.3 21.8,28.6 20.6,27.3 C19.7,26.4 18.6,25.7 17.5,24.9 C16.3,23.9 15,22.8 13.4,22.8 C11.8,22.9 10.6,24.5 10.4,26 C10.1,27.9 11.4,29.4 12.3,31 C14.1,33.9 14.5,37.9 17.3,40.1 Z M38.4,22.8 C38.6,22.1 38.4,21.3 38.2,20.6 C36.7,14.8 32.7,9.7 27.4,7 C26.3,6.5 25.2,6 24,6 C22.5,6 21.1,6.6 19.9,7.5 C17.9,9.2 17.3,11.9 18.2,14.3 C19.2,17.2 21.8,18.5 24.5,19.6 C26.1,20.3 27.7,21.1 29.1,22.1 C30.6,23.2 32.1,24.4 33.9,24.9 C35.7,25.4 38,24.6 38.4,22.8 Z" id="Shape" fill="#2C5F5F" fill-rule="nonzero" mask="url(#mask-6)"></path>
                </g>
                <polygon id="Path" fill="#FFFFFF" fill-rule="nonzero" points="58.1 127.7 57.5 127.3 70 105.3 68.1 105.3 68.1 104.6 71.2 104.6"></polygon>
                <polygon id="Path" fill="#002031" fill-rule="nonzero" points="66.3 156.6 65.7 156.3 71.9 139.7 76.4 132.1 76.9 132.4 72.5 140"></polygon>
                <polygon id="Path" fill="#DD933C" fill-rule="nonzero" points="41.9 179.6 39.4 186.8 47.4 190 50.6 183.3"></polygon>
                <path d="M73.4,185.1 C73.6,185.1 74.7,189.6 74.7,189.6 L84.1,189.6 L83.2,185.1 L73.4,185.1 Z" id="Path" fill="#DD933C" fill-rule="nonzero"></path>
                <g transform="translate(26.000000, 18.000000)" fill-rule="nonzero">
                    <circle id="Oval" fill="#59ACF5" cx="7.4" cy="7.8" r="7.2"></circle>
                    <path d="M6.9,11.4 C6.6,11.4 6.3,11.3 6.1,11 L3.4,7.6 C3.1,7.2 3.1,6.6 3.5,6.2 C3.9,5.9 4.5,5.9 4.9,6.3 L6.8,8.7 L10.2,4.4 C10.5,4 11.1,3.9 11.6,4.2 C12,4.5 12.1,5.1 11.8,5.6 L7.6,10.8 C7.4,11.3 7.2,11.4 6.9,11.4 C6.9,11.4 6.9,11.4 6.9,11.4 Z" id="Path" fill="#FFFFFF"></path>
                </g>
                <polygon id="Path" fill="#FFCC00" fill-rule="nonzero" points="73 55.1 73.6 52.8 83 52.6 80.3 95.4 64.6 95.6 70.6 56.1"></polygon>
                <g transform="translate(59.000000, 185.000000)" fill-rule="nonzero">
                    <path d="M13.3,1.1 L7.1,5.6 L2.1,7.4 C0.3,8.4 0.4,10.1 0.4,10.1 L28.3,10.1 L26.6,2.4 C26.4,1.8 24.7,1.7 24.5,2.3 C24.2,3.3 22.9,4.5 21.4,4.6 C19.1,4.7 16.5,2.7 15.2,1.5 C14.7,1 13.9,0.8 13.3,1.1 Z" id="Path" fill="#FFCC00"></path>
                    <path d="M28.3,10.1 L27.3,5.3 C27.3,5.3 22.4,5.5 23.1,10.1 L28.3,10.1 Z" id="Path" fill="#FE6F43"></path>
                    <polygon id="Path" fill="#FFFFFF" points="28.8 12.8 0.4 12.8 0.2 10.1 28.4 10.1"></polygon>
                    <rect id="Rectangle" fill="#002031" transform="translate(9.075990, 5.630120) rotate(-74.222243) translate(-9.075990, -5.630120) " x="8.72599859" y="4.1801556" width="1" height="2.8999288"></rect>
                    <rect id="Rectangle" fill="#002031" transform="translate(10.958510, 4.288140) rotate(-74.585076) translate(-10.958510, -4.288140) " x="10.6085195" y="2.78818077" width="1" height="2.99991846"></rect>
                </g>
                <g transform="translate(22.000000, 180.000000)" fill-rule="nonzero">
                    <path d="M17.2,0.1 L9.7,1.2 L4.4,0.5 C2.3,0.5 1.6,2.1 1.6,2.1 L26.4,15 L28.5,7.4 C28.6,6.8 27.1,5.9 26.7,6.3 C25.9,7.1 24.3,7.6 22.9,6.9 C20.9,6 19.5,3 18.8,1.3 C18.6,0.6 17.9,0.1 17.2,0.1 Z" id="Path" fill="#FFCC00"></path>
                    <path d="M26.4,15 L27.7,10.3 C27.7,10.3 23.2,8.2 21.8,12.6 L26.4,15 Z" id="Path" fill="#FE6F43"></path>
                    <polygon id="Path" fill="#FFFFFF" points="25.6 17.6 0.5 4.6 1.5 2.1 26.5 15.1"></polygon>
                    <rect id="Rectangle" fill="#002031" transform="translate(11.424385, 2.131045) rotate(-46.746504) translate(-11.424385, -2.131045) " x="11.074399" y="0.681103052" width="1" height="2.8998839"></rect>
                    <rect id="Rectangle" fill="#002031" transform="translate(13.719010, 1.772855) rotate(-47.111200) translate(-13.719010, -1.772855) " x="13.3689985" y="0.272805763" width="1" height="3.00009847"></rect>
                </g>
                <polygon id="Path" fill="#F17277" fill-rule="nonzero" points="107.2 10.4 85.1 55.6 90.5 74.6 114.4 11.6"></polygon>
                <circle id="Oval" fill="#002031" fill-rule="nonzero" cx="75.9" cy="38.3" r="1"></circle>
                <circle id="Oval" fill="#002031" fill-rule="nonzero" cx="71.7" cy="38" r="1"></circle>
                <rect id="Rectangle" fill="#FFFFFF" fill-rule="nonzero" transform="translate(58.410180, 79.069110) rotate(-77.226969) translate(-58.410180, -79.069110) " x="51.2598393" y="78.7190933" width="14.3006814" height="1"></rect>
                <polygon id="Path" fill="#002031" fill-rule="nonzero" points="57.8 97.7 80.3 95.4 57.7 95.7"></polygon>
            </g>
            <path d="M29.8,105.6 C29.8,105.6 27.9,105.7 26.3,105.5 C26.1,105.5 26.1,105.7 26.2,105.8 L30.7,108.4 L29.8,105.6 Z" id="Path" fill="#A95643" fill-rule="nonzero"></path>
            <path d="M41.8,224.7 C41.8,224.7 41.8,224.7 41.8,224.7 C41.7,224.7 41.6,224.6 41.6,224.5 L43.4,180.6 C43.4,180.5 43.5,180.4 43.6,180.4 C43.7,180.4 43.8,180.5 43.8,180.6 L42,224.5 C42,224.6 41.9,224.7 41.8,224.7 Z" id="Path" fill="#FFFFFF" fill-rule="nonzero"></path>
            <path d="M85.9,235.5 C85.8,235.5 85.7,235.4 85.7,235.3 L85.7,187 C85.7,186.9 85.8,186.8 85.9,186.8 C86,186.8 86.1,186.9 86.1,187 L86.1,235.3 C86.1,235.4 86,235.5 85.9,235.5 Z" id="Path" fill="#FFFFFF" fill-rule="nonzero"></path>
            <path d="M135.6,227.1 C135.5,227.1 135.4,227 135.4,226.9 L134.4,188 C134.4,187.9 134.5,187.8 134.6,187.8 C134.6,187.8 134.6,187.8 134.6,187.8 C134.7,187.8 134.8,187.9 134.8,188 L135.8,226.9 C135.8,227 135.7,227.1 135.6,227.1 C135.6,227.1 135.6,227.1 135.6,227.1 Z" id="Path" fill="#FFFFFF" fill-rule="nonzero"></path>
        </g>
        <g id="2_qr_op_zak" transform="translate(969.000000, 211.000000)" fill-rule="nonzero">
            <path d="M231.6,41 L114.2,41 L115.9,40.1 C117.2,39.4 118.5,38.8 119.7,38.2 C122.1,37.1 124.4,36 126.4,34.5 C128.9,32.5 130.8,30.1 132.6,27.8 C134.1,25.9 135.6,24 137.5,22.2 C141.7,18.3 147.3,16.2 152.4,16.5 C159.1,17 163.6,21.2 166.8,25 C169.6,21.5 173.9,18.7 178.8,16.9 C182.1,15.7 184.9,15.4 187.3,16 C190.2,16.7 192.6,18.9 193.2,21.5 C193.7,23.6 193.3,25.7 192.8,27.6 C197.4,25.7 202.5,24.2 206.9,25.9 C209.7,27 211.1,29 212.6,31 C213.2,31.9 213.9,32.8 214.7,33.6 C218.8,37.9 226.3,39.3 231.6,40.1 L231.6,41 Z M118.1,40 L226.1,40 C221.7,39 217.1,37.3 214.1,34.2 C213.3,33.3 212.6,32.4 211.9,31.5 C210.5,29.5 209.2,27.7 206.7,26.7 C202.3,25 197,26.8 192.4,28.8 L191.5,29.2 L191.7,28.3 C192.3,26.1 192.8,23.9 192.3,21.7 C191.7,19.4 189.7,17.5 187.1,16.9 C184.9,16.4 182.3,16.7 179.2,17.8 C174.2,19.6 169.9,22.6 167.2,26.1 L166.8,26.6 L166.4,26.1 C163.3,22.4 158.8,18 152.3,17.5 C147.5,17.1 142.2,19.2 138.2,22.9 C136.4,24.6 134.9,26.5 133.4,28.4 C131.5,30.8 129.6,33.2 127,35.3 C124.9,36.9 122.5,38.1 120.1,39.2 C119.5,39.4 118.8,39.7 118.1,40 Z" id="Shape" fill="#DCEEFD"></path>
            <path d="M264.7,16.4 L209.3,16.4 L210.8,15.5 C211.7,15 212.5,13.5 213.5,11.8 C216.1,7.3 219.9,0.5 230.2,0.4 C232.8,0.6 234.6,2.7 235.5,4 C236.6,5.5 237.3,7.2 237.4,8.5 C238.5,7.6 239.6,7 240.8,6.7 C242.5,6.3 244.8,6.5 246,7.7 C246.5,8.2 246.7,8.7 246.9,9.2 C247,9.5 247.1,9.7 247.3,10 C248.2,11.6 250.7,12.8 254.7,13.4 C255.1,13.5 255.6,13.5 256,13.6 C258.4,14 260.8,14.3 262.8,15.3 L264.7,16.4 Z M212.3,15.4 L259.8,15.4 C258.5,15.1 257.2,14.9 255.9,14.7 C255.5,14.6 255,14.6 254.6,14.5 C250.2,13.8 247.6,12.5 246.5,10.6 C246.3,10.3 246.2,10 246.1,9.7 C245.9,9.3 245.7,8.8 245.4,8.5 C244.6,7.7 242.7,7.3 241.1,7.7 C239.8,8 238.5,8.7 237.3,10 L236.1,11.1 L236.5,9.5 C236.7,8.6 236.1,6.5 234.7,4.6 C233.9,3.5 232.3,1.6 230.2,1.4 C220.5,1.5 217,7.7 214.4,12.3 C213.5,13.6 212.9,14.7 212.3,15.4 Z" id="Shape" fill="#DCEEFD"></path>
            <path d="M235.5,231.8 C235.5,235.2 209.3,235.5 135.5,235.5 C64.6,235.5 0.6,233.5 0.6,231.8 C0.6,230.1 64.6,228.1 135.5,228.1 C210,228.1 235.5,228.7 235.5,231.8 Z" id="Path" fill="#DCEEFD"></path>
            <g id="Group" transform="translate(25.000000, 5.000000)">
                <path d="M125.5,227.7 L28,227.7 C20.8,227.7 17.6,224 17,217.5 L1.3,9.9 C0.9,4.2 4,0.5 10.3,0.5 L108.4,0.5 C114.1,0.5 119,5.1 119.4,10.7 L135,217.4 C135.5,223.1 131.2,227.7 125.5,227.7 Z" id="Path" fill="#82C6F8"></path>
                <path d="M129.2,227.7 L37.7,227.7 C31.4,227.7 26.2,222.9 25.7,216.6 L10.1,10.1 C9.7,4.9 13.8,0.5 19,0.5 L112.1,0.5 C117.8,0.5 122.7,5.1 123.1,10.7 L123.7,18.4 L126.7,115.5 L137.7,202.1 L138.8,217.3 C139.1,223.1 134.9,227.7 129.2,227.7 Z" id="Path" fill="#59ACF5"></path>
                <polygon id="Path" fill="#DCEEFD" points="137.6 202.2 24.6 202.2 10.7 18.5 123.6 18.5"></polygon>
                <path d="M81.2,222.8 C77.2,222.8 73.7,219.5 73.4,215.5 C73.3,213.5 73.9,211.7 75.2,210.3 C76.5,208.9 78.3,208.1 80.2,208.1 C84.2,208.1 87.7,211.4 88,215.4 C88.1,217.4 87.5,219.2 86.2,220.6 C85,222 83.2,222.8 81.2,222.8 Z M80.2,208.8 C78.4,208.8 76.8,209.5 75.7,210.7 C74.5,211.9 74,213.6 74.1,215.4 C74.4,219.1 77.6,222 81.2,222 C83,222 84.6,221.3 85.7,220.1 C86.9,218.9 87.4,217.2 87.3,215.4 C87.1,211.8 83.9,208.8 80.2,208.8 Z" id="Shape" fill="#FFFFFF"></path>
                <g transform="translate(24.000000, 51.000000)">
                    <path d="M94,91.3 L11.8,91.3 C9.2,91.3 7,89.2 6.8,86.6 L1,7 C0.7,3.3 3.7,0.1 7.4,0.1 L86,0.1 C89.4,0.1 92.2,2.7 92.5,6.1 L98.4,86.7 C98.5,89.2 96.6,91.3 94,91.3 Z" id="Path" fill="#FFFFFF"></path>
                    <path d="M95.8,52.1 C94.8,57.4 91.4,62.6 92.9,67.9 C93.8,70.9 96.1,73.3 97.6,76.1 L95.8,52.1 Z" id="Path" fill="#F0ECEC"></path>
                    <g transform="translate(17.000000, 15.000000)" fill="#002031">
                        <path d="M63.3,42.6 L45.9,42.6 L47.2,60 L64.6,60 L63.3,42.6 Z M58.7,47.6 L59.2,55.1 L51.7,55.1 L51.2,47.6 L58.7,47.6 Z" id="Shape"></path>
                        <path d="M21,42.6 L3.6,42.6 L4.9,60 L22.3,60 L21,42.6 Z M16.3,47.6 L16.8,55.1 L9.3,55.1 L8.8,47.6 L16.3,47.6 Z" id="Shape"></path>
                        <path d="M60.2,0.2 L42.8,0.2 L44.1,17.6 L61.5,17.6 L60.2,0.2 Z M55.6,5.2 L56.1,12.7 L48.6,12.7 L48.1,5.2 L55.6,5.2 Z" id="Shape"></path>
                        <polygon id="Path" points="37.8 0.2 17.9 0.2 19.1 17.7 24.1 17.7 23.2 5.2 38.2 5.2"></polygon>
                        <polygon id="Path" points="12.9 0.2 0.4 0.2 0.8 5.2 8.3 5.2 8.8 12.7 1.3 12.7 1.7 17.7 14.2 17.7"></polygon>
                        <polygon id="Path" points="61.9 22.7 44.4 22.7 44.8 27.6 57.3 27.6 58 37.6 63 37.6"></polygon>
                        <polygon id="Path" points="38.7 12.7 28.7 12.7 29.1 17.7 34.1 17.7 34.5 22.7 24.5 22.7 25.2 32.6 20.2 32.6 19.5 22.7 2.1 22.7 2.4 27.6 14.9 27.6 15.6 37.6 30.6 37.6 29.8 27.6 39.8 27.6"></polygon>
                        <polygon id="Path" points="3.2 37.6 2.8 32.6 10.3 32.6 10.6 37.6"></polygon>
                        <polygon id="Path" points="26.5 50.6 25.9 42.6 30.9 42.6 31.5 50.6"></polygon>
                        <polygon id="Path" points="31 50.6 30.7 46.3 37 46.3 37.3 50.6"></polygon>
                        <g transform="translate(26.000000, 32.000000)" id="Path">
                            <polygon points="19.5 5.6 27 5.6 26.6 0.6 19.2 0.6"></polygon>
                            <polygon points="14.3 0.6 9.2 0.6 10.8 23.1 0.9 23.1 1.2 28 16.2 28 14.5 5.6"></polygon>
                        </g>
                    </g>
                </g>
                <path d="M107,162.3 L50.1,162.3 C48.5,162.3 47.1,161 47,159.4 L47,159.4 C46.9,157.8 48.1,156.5 49.7,156.5 L106.6,156.5 C108.2,156.5 109.6,157.8 109.7,159.4 L109.7,159.4 C109.8,161 108.6,162.3 107,162.3 Z" id="Path" fill="#76C0F7"></path>
                <path d="M83.2,173.7 L51,173.7 C49.4,173.7 48,172.4 47.9,170.8 L47.9,170.8 C47.8,169.2 49,167.9 50.6,167.9 L82.8,167.9 C84.4,167.9 85.8,169.2 85.9,170.8 L85.9,170.8 C86,172.4 84.8,173.7 83.2,173.7 Z" id="Path" fill="#76C0F7"></path>
                <path d="M107.8,173.7 L95,173.7 C93.4,173.7 92,172.4 91.9,170.8 L91.9,170.8 C91.8,169.2 93,167.9 94.6,167.9 L107.4,167.9 C109,167.9 110.4,169.2 110.5,170.8 L110.5,170.8 C110.7,172.4 109.4,173.7 107.8,173.7 Z" id="Path" fill="#76C0F7"></path>
                <path d="M5.6,44.7 L4.6,44.7 C2.8,44.7 1.1,43.2 1,41.4 L0.4,33.8 C0.3,32.9 0.6,32 1.2,31.4 C1.8,30.8 2.6,30.4 3.5,30.4 L4.5,30.4 C6.3,30.4 8,31.9 8.1,33.7 L8.7,41.3 C8.8,42.2 8.5,43.1 7.9,43.7 C7.3,44.3 6.5,44.7 5.6,44.7 Z M3.6,31 C2.9,31 2.3,31.3 1.8,31.8 C1.3,32.3 1.1,33 1.2,33.7 L1.8,41.3 C1.9,42.8 3.2,44 4.7,44 L5.7,44 C6.4,44 7,43.7 7.5,43.2 C8,42.7 8.2,42 8.1,41.3 L7.5,33.7 C7.3,32.2 6,31 4.6,31 L3.6,31 Z" id="Shape" fill="#002031"></path>
                <path d="M6.8,61.3 L5.8,61.3 C4,61.3 2.3,59.8 2.2,58 L1.6,50.4 C1.5,49.5 1.8,48.6 2.4,48 C3,47.4 3.8,47 4.7,47 L5.7,47 C7.5,47 9.2,48.5 9.3,50.3 L9.9,57.9 C10,58.8 9.7,59.7 9.1,60.3 C8.5,60.9 7.7,61.3 6.8,61.3 Z M4.8,47.6 C4.1,47.6 3.5,47.9 3,48.4 C2.5,48.9 2.3,49.6 2.4,50.3 L3,57.9 C3.1,59.4 4.4,60.6 5.9,60.6 L6.9,60.6 C7.6,60.6 8.2,60.3 8.7,59.8 C9.2,59.3 9.4,58.6 9.3,57.9 L8.7,50.3 C8.6,48.8 7.3,47.6 5.8,47.6 L4.8,47.6 L4.8,47.6 Z" id="Shape" fill="#002031"></path>
                <path d="M71.1,12.3 L56.8,12.3 C55.3,12.3 54.1,11.2 54,9.8 C53.9,9 54.2,8.2 54.7,7.6 C55.2,7 56,6.7 56.8,6.7 L71,6.7 C72.5,6.7 73.7,7.8 73.8,9.2 C73.9,10 73.6,10.8 73.1,11.4 C72.7,12 71.9,12.3 71.1,12.3 Z M56.7,7.4 C56.1,7.4 55.5,7.7 55.1,8.1 C54.7,8.5 54.5,9.1 54.6,9.7 C54.7,10.8 55.6,11.6 56.7,11.6 L71,11.6 C71.6,11.6 72.2,11.3 72.6,10.9 C73,10.5 73.2,9.9 73.1,9.3 C73,8.2 72.1,7.4 71,7.4 L56.7,7.4 L56.7,7.4 Z" id="Shape" fill="#FFFFFF"></path>
            </g>
            <g id="Group" transform="translate(139.000000, 58.000000)">
                <g transform="translate(55.000000, 17.000000)" id="Path">
                    <path d="M12.1,2.7 L7.3,1 L7.4,0.8 L6.5,0.9 C6.5,0.9 6.5,0.9 6.4,0.9 L6.3,0.9 L6.3,0.9 C5.6,1 5,1.4 4.8,2.1 L0.1,15.8 C-0.2,16.8 0.3,17.8 1.3,18.2 L6.3,20 C7.3,20.3 8.3,19.8 8.6,18.9 L13.3,5.2 C13.6,4.1 13.1,3 12.1,2.7 Z" fill="#002031"></path>
                    <path d="M2.3,18 L7.3,19.8 C8.3,20.1 9.3,19.6 9.6,18.7 L14.3,5 C14.6,4 14.1,3 13.1,2.6 L8.1,0.8 C7.1,0.5 6.1,1 5.8,1.9 L1.1,15.6 C0.9,16.6 1.4,17.7 2.3,18 Z" fill="#1540EB"></path>
                </g>
                <path d="M62.6,26.4 L67.8,29.2 C69.3,30.2 70,32 69.6,33.7 L67.4,41.4 L60.9,38.9 L62.3,34.2 L59.6,31.9 L62.6,26.4 Z" id="Path" fill="#C26E5E"></path>
                <path d="M43.7,36.7 L55.4,53.4 L61,37.8 L67.7,40.9 C67.7,40.9 65.1,53.7 61.5,61.1 C59.4,65.5 55.6,65.6 52.9,63.9 C45.2,58.9 39.9,50 39.9,50 L43.7,36.7 Z" id="Path" fill="#237978"></path>
                <path d="M58.2,45.9 L55.5,53.5 L53.6,50.8 C53.9,52.8 55.7,54.3 57.7,54.3 C60,54.3 61.9,52.4 61.9,50.1 C61.9,47.9 60.2,46.1 58.2,45.9 Z M61,37.9 L61,38 C61,38.1 61,38.3 61,38.4 C61,40.7 62.9,42.6 65.2,42.6 C66.1,42.6 66.9,42.3 67.5,41.9 C67.6,41.3 67.7,41 67.7,41 L61,37.9 Z M60.9,61.8 C60.9,61.9 60.9,62.1 60.9,62.2 C61.1,61.9 61.3,61.6 61.5,61.2 C61.9,60.3 62.3,59.4 62.7,58.4 C61.7,59.1 60.9,60.3 60.9,61.8 Z M50.2,57.6 C48.9,57.6 47.8,58.2 47,59 C48.7,60.8 50.7,62.5 52.9,63.9 C53.1,64 53.3,64.2 53.5,64.3 C54,63.6 54.3,62.7 54.3,61.8 C54.4,59.5 52.5,57.6 50.2,57.6 Z M42.7,45.8 C42.1,45.8 41.5,45.9 41,46.2 L39.9,50 C39.9,50 41,51.8 42.9,54.2 C45.2,54.1 47,52.3 47,50 C46.9,47.7 45,45.8 42.7,45.8 Z" id="Shape" fill="#0E6866"></path>
                <path d="M64.9,30.1 C64.9,30.1 64.8,30.1 64.8,30.1 L61.7,28.2 C61.6,28.1 61.6,28 61.6,27.9 C61.7,27.8 61.8,27.8 61.9,27.8 L65,29.7 C65.1,29.8 65.1,29.9 65.1,30 C65,30.1 64.9,30.1 64.9,30.1 Z" id="Path" fill="#002031"></path>
                <path d="M63.6,32.1 C63.6,32.1 63.5,32.1 63.5,32.1 L60.6,30.2 C60.5,30.1 60.5,30 60.5,29.9 C60.6,29.8 60.7,29.8 60.8,29.8 L63.7,31.7 C63.8,31.8 63.8,31.9 63.8,32 C63.7,32 63.7,32.1 63.6,32.1 Z" id="Path" fill="#002031"></path>
                <polygon id="Path" fill="#C26E5E" points="20.5 111.7 11.7 115.8 13.3 123.5 26 120.5"></polygon>
                <polygon id="Path" fill="#C26E5E" points="62.1 156.4 65.3 165.6 54.4 167.9 51.6 160.2"></polygon>
                <path d="M31.4,29.6 C30.9,26.9 29.8,24.3 28.6,21.8 C28,20.6 27.4,19.3 27.6,18 C27.7,17.4 27.9,16.8 28.2,16.2 C29,14 29.2,11.6 29.4,9.2 C29.5,7.3 29.7,5.3 29.1,3.5 C29,3.1 28.8,2.8 28.5,2.6 C28.3,2.5 28.8,2.1 29.2,1.8 C29.2,1.8 29.2,1.8 29.2,1.8 C29.2,1.7 29.2,1.7 29.2,1.6 C29.2,1.6 29.2,1.5 29.2,1.5 C29.2,1.5 29.2,1.5 29.2,1.6 C29.2,1.6 29.2,1.6 29.2,1.6 C29.2,1.5 29.2,1.5 29.2,1.4 C29.2,1.4 29.2,1.4 29.2,1.3 C29.2,1.3 29.2,1.3 29.2,1.3 C22.8,-0.8 17,1.7 17.1,9.1 C17.1,11.8 15.1,12.6 14.6,15.3 C13.8,19.7 16.9,20.9 16.2,24.4 C15.8,26.3 11.9,27.5 11.7,32.1 C11.5,36.9 14.8,39 16.1,40.2 L18,37.9 C18.8,38.8 20,39.3 21.2,39.4 C22.4,39.5 23.6,39.3 24.7,39 C27.6,38.2 30.6,36.5 31.5,33.6 C31.6,32.3 31.6,31 31.4,29.6 Z" id="Path" fill="#002031"></path>
                <path d="M26.4,22.1 C28,27.2 28.9,32.6 30.7,37.6 C31.2,39 31.7,40.3 32.7,41.4 C32.9,41.6 33.1,41.7 33.3,41.9 C36.2,41.6 39.2,40.8 41.5,39 C43.1,37.8 47.1,34.2 45.3,30.3 C44.5,28.6 42.4,28 42.4,26.6 C42.4,25.7 42.9,24.9 42.8,24 C42.8,23 42.1,22.1 41.3,21.5 C40.5,20.8 39.7,20.3 39,19.6 C38.1,18.5 37.6,17.1 37.7,15.7 C37.8,14.5 38.4,13.3 38.3,12.1 C38.1,10.8 37,9.7 35.9,9 C34.6,8.2 33.2,7.7 32,6.8 C30.9,5.9 30.8,5.1 30.2,4 C29,1.8 25.8,3.6 25,5.3 C24.4,6.5 24.5,8 24.5,9.4 C24.5,11.5 24.3,13.5 24.5,15.6 C24.8,17.7 25.7,19.9 26.4,22.1 Z" id="Path" fill="#002031"></path>
                <path d="M63.7,103.3 L42.4,65.4 C42.4,65.4 31.1,64.1 30.8,64.1 C30.5,64.1 38.2,100.4 38.2,100.4 L36.5,101.4 C37.6,102.6 38.7,103.8 39.7,105 C42.3,108 44.6,111.2 46.8,114.6 C47.3,115.4 47.9,116.2 48.4,117.1 L58.7,114.8 C63.3,113.1 65.6,107.8 63.7,103.3 Z" id="Path" fill="#F17277"></path>
                <path d="M20,111.5 L29.9,105.9 C30.5,107 31,108 31.6,109.1 C33.5,112.4 35.7,115.6 37.7,118.9 L24,121.9 C21.3,122.5 18.6,121.1 17.6,118.6 L17.6,118.6 C16.5,116 17.5,112.9 20,111.5 Z" id="Path" fill="#F09899"></path>
                <path d="M22.3,109.4 L33.6,103 C34.2,104.2 34.9,105.4 35.6,106.6 C37.8,110.4 40.2,114.1 42.5,117.8 L26.9,121.2 C23.9,121.9 20.8,120.3 19.6,117.4 L19.6,117.4 C18.3,114.5 19.5,111 22.3,109.4 Z" id="Path" fill="#F17277"></path>
                <polygon id="Path" fill="#002031" points="27.9 106.2 30.6 120.5 34.6 119.6"></polygon>
                <polygon id="Path" fill="#F09899" points="61.2 153.3 62.5 157.2 51.4 160.4 49.7 155.8"></polygon>
                <rect id="Rectangle" fill="#FFFFFF" transform="translate(58.263530, 156.800825) rotate(-17.643176) translate(-58.263530, -156.800825) " x="57.9135162" y="155.300766" width="1" height="3.00011791"></rect>
                <rect id="Rectangle" fill="#FFFFFF" transform="translate(54.545610, 157.893930) rotate(-16.463262) translate(-54.545610, -157.893930) " x="54.1956106" y="156.393933" width="1" height="2.99999484"></rect>
                <path d="M22,64.3 C22,68.5 15.6,71.7 16.6,82.5 C17,86.7 28.3,108.9 31.4,114.4 C34.1,119.2 43.7,146.1 46.8,153.7 C47.8,156.2 50.5,157.5 53.1,156.7 L59,155 C61.8,154.2 63.4,151.3 62.6,148.6 L39.2,64.3 L22,64.3 Z" id="Path" fill="#F17277"></path>
                <path d="M37.7,31.4 L18.9,31.4 C14.1,31.4 10.7,35.6 11.5,40.5 L13.4,46.3 L16.6,46.8 C16.6,46.8 20.5,54 21.6,65.6 L42.2,65.2 C41.7,62.4 47.5,47.4 46.9,43.3 C46.4,38.7 41,33.2 37.7,31.4 Z" id="Path" fill="#237978"></path>
                <path d="M42.7,45.8 C40.4,45.8 38.5,47.7 38.5,50 C38.5,52.3 40.4,54.2 42.7,54.2 C43.6,54.2 44.4,53.9 45.1,53.4 C45.6,51.6 46.1,49.8 46.5,48.2 C45.8,46.8 44.4,45.8 42.7,45.8 Z M13.5,46.4 L15.2,46.7 C14.6,46.3 14,46 13.3,45.9 L13.5,46.4 Z M35.2,57.6 C32.9,57.6 31,59.5 31,61.8 C31,63.4 31.9,64.8 33.3,65.5 L37.3,65.4 C38.6,64.7 39.4,63.3 39.4,61.8 C39.4,59.5 37.5,57.6 35.2,57.6 Z M20.4,57.6 C20.9,60 21.4,62.7 21.7,65.7 C23.3,65.1 24.4,63.6 24.4,61.8 C24.4,59.5 22.7,57.7 20.4,57.6 Z M35.2,42.6 C37.5,42.6 39.4,40.7 39.4,38.4 C39.4,36.1 37.5,34.2 35.2,34.2 C32.9,34.2 31,36.1 31,38.4 C31,40.7 32.9,42.6 35.2,42.6 Z M27.7,45.8 C25.4,45.8 23.5,47.7 23.5,50 C23.5,52.3 25.4,54.2 27.7,54.2 C30,54.2 31.9,52.3 31.9,50 C31.9,47.7 30,45.8 27.7,45.8 Z M24.4,38.4 C24.4,36.1 22.5,34.2 20.2,34.2 C17.9,34.2 16,36.1 16,38.4 C16,40.7 17.9,42.6 20.2,42.6 C22.5,42.6 24.4,40.7 24.4,38.4 Z" id="Shape" fill="#0E6866"></path>
                <path d="M31.6,37 C27.9,37.3 21.1,34.5 18.5,31.5 C18.9,31.5 20.7,31.5 21,31.5 L37.8,31.5 C37.8,31.4 36.6,36.6 31.6,37 Z" id="Path" fill="#C26E5E"></path>
                <path d="M37.8,31.4 L34.2,30.2 C33.4,30.1 32.7,29.5 32.4,28.8 L31.9,27.7 L30.3,28.1 L30.7,32.3 L36.4,32.3 L37.8,31.4 Z" id="Path" fill="#C26E5E"></path>
                <g transform="translate(49.000000, 162.000000)">
                    <path d="M17,0.8 L24.6,6 L30.6,8.1 C32.8,9.3 32.9,11.3 32.9,11.3 L0.4,11.3 L1.6,2.3 C1.8,1.7 3.8,1.5 4,2.1 C4.5,3.3 6,4.7 7.8,4.8 C10.4,4.9 13.3,2.6 14.7,1.2 C15.3,0.6 16.2,0.5 17,0.8 Z" id="Path" fill="#FFCC00"></path>
                    <path d="M0.5,11.3 L1.2,5.8 C1.2,5.8 7,6 6.5,11.3 L0.5,11.3 Z" id="Path" fill="#FE6F43"></path>
                    <polygon id="Path" fill="#FFFFFF" points="0.1 14.4 33.1 14.4 33.1 11.3 0.4 11.3"></polygon>
                    <rect id="Rectangle" fill="#002031" transform="translate(22.343165, 6.038145) rotate(-16.171279) translate(-22.343165, -6.038145) " x="20.6932224" y="5.68815718" width="3.29988517" height="1"></rect>
                    <polygon id="Path" fill="#002031" points="18.5 5.3 18.3 4.6 21.6 3.7 21.8 4.4"></polygon>
                </g>
                <g transform="translate(5.000000, 112.000000)" id="Path">
                    <path d="M4.4,29.8 L4.4,29.8 C2,29.8 0.1,27.9 0.1,25.5 L0.1,12.6 L8.7,12.6 L8.7,25.5 C8.7,27.9 6.7,29.8 4.4,29.8 Z" fill="#C8E7FC"></path>
                    <path d="M11.8,9.7 C10.4,8.5 7.5,9.5 7.2,6.1 C7.1,4.5 8.3,3 9.3,2.5 C9.8,2.2 9.6,0.5 9,0.3 L4.3,0.1 C2.3,2.84217094e-14 0.6,1.5 0.5,3.5 C0.3,6.6 0,11.1 0.2,13.6 C0.8,20.8 3.2,27.2 5.4,27.3 L7.8,27.3 L7.4,26.5 C7.7,26.1 8,25.6 8,24.8 L8.6,20.2 L11.9,12.5 C12.1,11.8 12.3,10.2 11.8,9.7 Z" fill="#FFFFFF"></path>
                    <path d="M13.5,12.5 L10.2,20.2 L9.6,24.8 C9.5,26.7 8.2,27.3 6.9,27.3 C4.8,27.3 2.3,20.9 1.7,13.6 C1.5,11 1.8,6.6 2,3.5 C2.1,1.5 3.8,0 5.8,0.1 L10.5,0.3 C11.1,0.4 11.4,1.9 10.8,2.2 C9.7,2.7 8.6,4.5 8.7,6.1 C9,9.5 11.9,8.6 13.3,9.7 C14,10.2 13.8,11.8 13.5,12.5 Z" fill="#FFCC00"></path>
                    <path d="M2,6.1 C5.8,5.5 7.2,2.3 7.2,0.2 L6,0.1 C4,0 2.3,1.5 2.2,3.5 C2.1,4.3 2,5.2 2,6.1 Z" fill="#FE6F43"></path>
                    <path d="M11.4,16.2 C11.4,16.1 11.3,15.1 9.7,15.1 L9.7,14.4 C12.1,14.4 12.1,16.2 12.1,16.2 L11.4,16.2 L11.8,16.2 L11.4,16.2 Z" fill="#002031"></path>
                    <path d="M10.3,18.4 C10.3,18.3 10.2,17.3 8.6,17.3 L8.6,16.6 C11,16.6 11,18.4 11,18.4 L10.3,18.4 L10.7,18.4 L10.3,18.4 Z" fill="#002031"></path>
                </g>
                <polygon id="Path" fill="#C26E5E" points="21.9 16.7 24.2 31.6 33.9 31.9 28.7 20"></polygon>
                <polygon id="Path" fill="#A95643" points="31.2 25.8 30 23.1 26.1 22.7"></polygon>
                <path d="M20.1,14.9 C20.2,19.3 24.5,23 28.9,23.4 C34,23.9 37,20.3 36.1,14.9 C35.4,10.5 32.4,6.9 27.9,6.9 C23.4,6.9 20,10.5 20.1,14.9 Z" id="Path" fill="#C26E5E"></path>
                <path d="M36,3.2 C35.7,3.4 35.5,3.6 35.5,3.6 C35.5,3.6 35.2,1.7 34.3,1.3 C34,1.2 33.6,1.1 33.2,1.1 C32.5,1.2 31.8,1.4 31.1,1.8 C30.6,2.1 29.8,1.3 28.9,1.1 C27.2,0.7 26.5,2.2 25.3,2.5 C24.7,2.7 24.2,2.8 23.7,3.1 C23.4,3.3 23.1,3.5 22.8,3.7 C22.7,3.8 22.6,3.9 22.5,4.1 C22.4,4.4 22.5,4.7 22.7,5 C23.1,5.8 23.7,6.5 24.4,7.1 L24,6.3 C24.9,7.8 26.4,8.9 28.1,9.5 C29.7,10.1 31.5,10.2 33.2,10.2 C33.9,10.2 34.6,10.1 35.2,9.9 C35.8,9.7 36.4,9.3 36.9,8.8 C37.3,8.3 37.4,7.7 37.6,7.1 C37.6,7 37.7,5.2 37.6,3.8 C37.5,3.1 36.6,2.8 36,3.2 Z" id="Path" fill="#002031"></path>
                <path d="M26.5,11 C26.6,12.1 26.4,13.3 25.7,14.2 C24.9,15.2 23.9,16.7 23.2,17.7 C22.2,19.2 22.8,22.2 23.3,25.7 C23.4,26.8 22,23.9 21.2,24.6 C21.1,24.7 21,24.8 20.8,24.8 C20.5,24.9 20.3,24.5 20.1,24.3 C18.5,21.5 17.5,18.3 17.3,15.1 C17.2,12.7 17.5,10.1 19.1,8.3 C20.2,7 22.2,6.2 24,6.6 C25.9,7.1 26.3,9.2 26.5,11 Z" id="Path" fill="#002031"></path>
                <path d="M21.8,69.8 L26.7,73.2 C26.7,73.2 25.3,75.2 25.2,75.3 C25.1,75.4 23.2,77.2 23.2,77.2 L20.4,78.9 L19.8,79.2 L18,76.8 L17.5,75 L16.1,73.3 L21.8,69.8 Z" id="Path" fill="#C26E5E"></path>
                <path d="M22.4,70.2 C22.4,70.2 21.2,74.9 18.6,77.6 L18,76.8 L17.5,75 L17.3,74.7 L22.4,70.2 Z" id="Path" fill="#A95643"></path>
                <path d="M12.8,34.7 C12.8,34.7 3.4,49.2 1.4,52.4 C-0.6,55.7 -0.4,59.2 2.5,62.2 C5.4,65.2 16.6,75.2 16.6,75.2 L22.8,69.7 L10.1,57.4 L23.3,42 L12.8,34.7 Z" id="Path" fill="#237978"></path>
                <path d="M12.7,69.2 C11.9,69.2 11.1,69.4 10.5,69.9 C12,71.2 13.4,72.5 14.4,73.5 C14.4,73.5 14.4,73.5 14.4,73.5 C15.5,74.5 16.2,75.1 16.4,75.3 C16.7,74.7 16.8,74.1 16.8,73.5 C17,71.1 15.1,69.2 12.7,69.2 Z M16.5,63.7 C16.9,64.6 17.6,65.2 18.5,65.6 L17.5,64.7 L16.5,63.7 Z M12.9,54.2 L16.9,49.5 C16.6,47.4 14.9,45.8 12.7,45.8 C10.4,45.8 8.5,47.7 8.5,50 C8.5,52.3 10.4,54.2 12.7,54.2 C12.8,54.2 12.8,54.2 12.9,54.2 Z M20.5,40.1 L16.2,37.1 C16.1,37.5 16,37.9 16,38.4 C16,40.7 17.9,42.6 20.2,42.6 C21.2,42.6 22.1,42.3 22.8,41.7 L20.5,40.1 Z M5.3,57.6 C3.3,57.6 1.7,58.9 1.2,60.7 C1.4,60.9 1.5,61.2 1.7,61.4 C1.7,61.4 1.8,61.5 1.8,61.5 C2,61.7 2.2,62 2.4,62.2 C2.5,62.3 2.6,62.4 2.7,62.5 C2.7,62.5 2.8,62.6 2.8,62.6 C2.9,62.7 3,62.8 3,62.8 C3,62.8 3.1,62.9 3.1,62.9 C3.2,63 3.3,63.1 3.4,63.2 C3.4,63.2 3.5,63.3 3.6,63.3 C3.7,63.4 3.8,63.5 3.9,63.6 C3.9,63.6 4,63.7 4.1,63.7 C4.2,63.8 4.3,63.9 4.4,64 C4.4,64 4.5,64.1 4.5,64.1 C4.6,64.2 4.8,64.4 4.9,64.5 C4.9,64.5 5,64.6 5,64.6 C5.2,64.7 5.3,64.9 5.5,65 C5.5,65 5.5,65 5.5,65 C5.7,65.2 5.9,65.3 6.1,65.5 C6.1,65.5 6.1,65.5 6.1,65.5 C8,65.1 9.4,63.4 9.4,61.4 C9.5,59.5 7.6,57.6 5.3,57.6 Z M10.8,38.2 C10.8,38.1 10.8,38 10.8,37.9 C10,39.1 9.1,40.6 8,42.1 C9.6,41.5 10.8,40 10.8,38.2 Z" id="Shape" fill="#0E6866"></path>
                <path d="M9.4,59.1 L8.8,58.7 L9.2,58 L7.7,58.3 L7.6,57.6 L9.9,57.2 C10,57.2 10.2,57.2 10.3,57.4 C10.4,57.5 10.4,57.7 10.3,57.8 L9.4,59.1 Z" id="Path" fill="#002031"></path>
                <path d="M19,79.9 L18.8,79.2 C25.1,76.9 27,72 27,71.9 L27.7,72.1 C27.5,72.4 25.6,77.4 19,79.9 Z" id="Path" fill="#002031"></path>
                <polygon id="Path" fill="#FFFFFF" points="54.5 119.3 40.4 77 43.9 76.6 44 77.3 41.4 77.6 55.2 119"></polygon>
                <path d="M31.4,19.3 C30.3,19.3 29.4,18.8 29,17.9 C28.9,17.8 29,17.6 29.1,17.6 C29.2,17.5 29.4,17.6 29.4,17.7 C29.9,18.7 30.9,19.1 32.4,18.7 C32.5,18.7 32.7,18.7 32.7,18.9 C32.7,19 32.7,19.2 32.5,19.2 C32.1,19.2 31.7,19.3 31.4,19.3 Z" id="Path" fill="#002031"></path>
                <path d="M34.4,15.9 C33,15.9 31.9,14.7 31.9,13.3 C31.9,11.9 33,10.7 34.4,10.7 C35.8,10.7 36.9,11.9 36.9,13.3 C36.9,14.7 35.8,15.9 34.4,15.9 Z M34.4,11.2 C33.3,11.2 32.4,12.2 32.4,13.3 C32.4,14.5 33.3,15.4 34.4,15.4 C35.5,15.4 36.4,14.4 36.4,13.3 C36.4,12.2 35.5,11.2 34.4,11.2 Z" id="Shape" fill="#FFFFFF"></path>
                <path d="M28.8,16.4 C27.4,16.4 26.3,15.2 26.3,13.8 C26.3,12.4 27.4,11.2 28.8,11.2 C30.2,11.2 31.3,12.4 31.3,13.8 C31.3,15.3 30.2,16.4 28.8,16.4 Z M28.8,11.7 C27.7,11.7 26.8,12.6 26.8,13.8 C26.8,15 27.7,15.9 28.8,15.9 C29.9,15.9 30.8,15 30.8,13.8 C30.8,12.7 29.9,11.7 28.8,11.7 Z" id="Shape" fill="#FFFFFF"></path>
                <path d="M32,17.1 C31.9,17.1 31.8,17 31.8,16.9 C31.8,16.8 31.9,16.6 32,16.6 C32.1,16.6 32.6,16.4 32.7,16.2 C32.8,16 32.3,15.2 32.1,14.8 C31.9,14.4 31.7,14.1 31.6,13.8 C31.6,13.7 31.6,13.5 31.8,13.5 C31.9,13.5 32.1,13.5 32.1,13.7 C32.2,13.9 32.3,14.3 32.5,14.6 C33,15.5 33.2,16.1 33.1,16.4 C32.8,16.9 32.1,17.1 32,17.1 C32,17.1 32,17.1 32,17.1 Z" id="Path" fill="#002031"></path>
                <path d="M31,13.4 C30.9,13.4 30.8,13.3 30.8,13.2 C30.8,13.1 30.9,13 31,12.9 L32.1,12.8 C32.2,12.8 32.3,12.9 32.4,13 C32.4,13.1 32.3,13.2 32.2,13.3 L31,13.4 C31.1,13.4 31.1,13.4 31,13.4 Z" id="Path" fill="#FFFFFF"></path>
                <path d="M25.7,14.1 C25.6,14.1 25.5,14 25.5,13.9 C25.5,13.8 25.6,13.6 25.7,13.6 L26.5,13.5 C26.6,13.5 26.8,13.6 26.8,13.7 C26.8,13.8 26.7,14 26.6,14 L25.7,14.1 C25.8,14.1 25.7,14.1 25.7,14.1 Z" id="Path" fill="#FFFFFF"></path>
                <path d="M18.5,31.4 L22.2,30.5 C23.2,30.2 23.9,29.1 23.7,28 L23.5,26.6 L24.8,32.5 L18.5,31.4 Z" id="Path" fill="#C26E5E"></path>
                <rect id="Rectangle" fill="#002031" transform="translate(18.348915, 47.754400) rotate(-49.335313) translate(-18.348915, -47.754400) " x="15.5490483" y="47.4044167" width="5.59973346" height="1"></rect>
                <path d="M42.5,65.4 C42.2,64 43.3,60.3 44.5,55.9 C45.8,51.3 47.2,46.1 47,44 C46.7,41.4 45.4,38.5 43.8,36.6 L44.4,36.1 C46.5,38.5 47.5,41.7 47.8,43.9 C48.1,46.2 46.7,51.2 45.3,56.1 C44.2,60 43.1,64 43.3,65.3 L42.5,65.4 Z" id="Path" fill="#FFFFFF"></path>
            </g>
        </g>
    </g>
</svg>