<svg xmlns="http://www.w3.org/2000/svg" viewBox="0 0 126 254">
  <g fill="none" fill-rule="nonzero">
    <path fill="#104A4A" d="M71.8 75.2h-7.6c0-.6.5-1.2 1.2-1.2h5.1c.7-.1 1.3.4 1.3 1.2Z"/>
    <path fill="#237978" d="M75.5 70.2h-6.7c-.8 0-1.3.8-1.1 1.4l1 4.3 5.4-.8 1.4-4.9Z"/>
    <path fill="#59ACF5" d="m66.7 139 .5-16.4 16.6 3-.4 14.1z"/>
    <path fill="#002031" d="m25.8 57.7 6.2-2.2-.1-.4 1.2.2h.2c.8 0 1.6.6 2 1.5l6.1 17.6c.4 1.2-.2 2.7-1.4 3l-6.4 2.4c-1.2.4-2.6-.3-3-1.4l-6.2-17.7c-.5-1.2.2-2.5 1.4-3Z"/>
    <path fill="#1540EB" d="m38.6 77.4-6.4 2.3c-1.2.4-2.6-.3-3-1.5L23 60.6c-.5-1.2.2-2.6 1.4-3l6.4-2.3c1.2-.5 2.6.2 3 1.4L40 74.3c.4 1.3-.2 2.6-1.4 3v.1Z"/>
    <path fill="#C8915C" d="M31.6 66.3 25 70a5 5 0 0 0-2.1 5.7l2.9 10 8.3-3.3-2-6 3.6-3-4-7-.1-.1Z"/>
    <path fill="#237978" d="M56 79.5 41.3 101l-7.5-19.7-9.2.3s3.6 19.5 8.2 29c2.7 5.6 9.6 5.3 13.2 3 9.8-6.5 17.4-13.9 17.4-13.9l-7.2-20.2H56Z"/>
    <path fill="#F48D91" d="M63.6 83h-1.3l.8-1.4z"/>
    <path fill="#002031" d="m28.8 71-.2-.1c-.1-.1 0-.2.1-.4l4-2.3c0-.2.1 0 .2 0 .2.2 0 .3 0 .4l-4 2.4h-.1Zm1.7 2.5-.3-.1.1-.4 3.7-2.5.4.1c0 .2 0 .3-.2.4l-3.6 2.5h-.1Z"/>
    <path fill="#59ACF5" d="M96.2 126.2s.8 8.2 1 23l1 91-10.2 1.7-13-116.3 21.2.6Z"/>
    <path fill="#59ACF5" d="M77.8 138.7 37.5 241.5l-7.2 4.3-3.7-5.3 33-115 13.2-1s4.9 1 5 14.2Z"/>
    <path fill="#237978" d="M66 75.1h31c5.8 0 12.5 5.2 11.6 11.3l-2.3 7.1-3.9.7-5 32-36.5-.2c-1.4 0-2.4-1.1-2.6-2.5L57 91.2c0-3.3-2.3-5.8-2.2-6.8.4-7 5.7-9.3 11.3-9.3H66Z"/>
    <path fill="#FC0" d="m25.4 237.9-8.2 5.9-4.9 2.3c-2.4 1.3-2.4 3.6-2.4 3.6h31.2l-1.3-10c-.2-.8-1.6-1-1.9-.3-.5 1.4-2.8 2.3-4.7 2.4-2.9.1-3.8-1.8-5.4-3.5-.6-.6-1.6-.8-2.4-.4Z"/>
    <path fill="#FFF" d="M39.4 253H11.8c-1.1 0-2-.8-2-1.9v-1.5h31.4l.1 1.3a2 2 0 0 1-2 2.2l.1-.1Z"/>
    <path fill="#002031" d="m21.3 244.6-3.4-1 .2-.7 3.5 1-.3.7Zm-.8-3.4-.2.6 3.6 1 .2-.6-3.6-1Z"/>
    <path fill="#FC0" d="m99.5 237.9 4.9 5.9 2.9 2.3a4.3 4.3 0 0 1 2.5 3.6H86.2l.5-9 5.7.1s.6-1.4 2.2-3c.8-.7 3.8-1.4 4.9 0v.1Z"/>
    <path fill="#FFF" d="M88 253h19.7c1.2 0 2-.9 2.2-2v-1.3H86v1.2c0 1.2.9 2.2 2 2.2v-.1Z"/>
    <path fill="#002031" d="M100.9 242.8v.7l3.9.1v-.7l-4-.1h.1Zm-2.6-2v.7l4.5.2v-.8l-4.5-.1Z"/>
    <path fill="#C8915C" d="m100.7 129.4-1.4.9c-1.3.8-3 .8-4.3.1l-1.7-.9-6.6 2.9c-.7.3-1.4.2-2-.3l-1.8-1.5c-.8-.6-.8-1.8 0-2.5a30 30 0 0 0 2.5-2.4c-.1.2-2 .6-3 1-.6 0-1.2-.3-1.3-.7 0-.6.1-1 .6-1.2l6-2.4c1.6-.8 3.1-.6 4.8-.1l3.2.5 5 6.6Z"/>
    <path fill="#002031" d="M84.4 132.1h-.2c-.1-.2 0-.3 0-.4l6.4-3.9.3.1c.1.1 0 .2-.1.3l-6.3 4h-.1v-.1Zm-1.4-1.4h-.2c-.1-.2 0-.3 0-.4l5.6-4.1h.3v.3l-5.6 4.1-.1.1Z"/>
    <path fill="#237978" d="M105.6 78.8s14.8 16.7 18.2 21c3.1 4 2.7 8.6-1.4 12.3-3.7 3.2-22 17.7-22 17.7l-6.1-8.7 15.6-16-18.5-17.4 14.2-9v.1Z"/>
    <path fill="#002031" d="m111.5 107-2.5-2.8 4.3.8-.1.8-2.2-.6 1 1.2-.5.6Zm-12-12.3-.5.5 3.9 3.8.5-.5-4-3.8h.1Z"/>
    <path fill="#FE6F43" d="m71.8 75.2-3.8 9 3.2 41.8h8.7l3.6-51.1-11.7.3z"/>
    <path fill="#FE9C7E" d="M82.9 84.4v-1c-5 2.1-9.8 4.6-14.4 7.4l.2 1c4.4-2.8 9.2-5.3 14.2-7.4Zm-1.3 18.2v-.8c-2 .4-4.2 1-6.2 1.6l-5.8 1.5.1.9c2-.4 4-1 5.9-1.6l6-1.6Zm-.4 3.2a92 92 0 0 0-11.2 5.7v1h.3c3.5-2.2 7.1-4.1 11-5.7v-1h-.1ZM68 85a60 60 0 0 1 15-3.8l.2-.9a62 62 0 0 0-15.2 4v.8-.1Zm12.2 37c-2.8 1.6-6 2.5-9.2 2.7l.2.8c3.1-.2 6.1-1 8.9-2.6v-1l.1.1Zm-9.4-.4.1 1c3.2-2 6.3-3.7 9.6-5.3l.1-1c-3.4 1.6-6.6 3.4-9.8 5.3Zm-2-27v.9a67 67 0 0 0 10.3-2.6l3.3-1 .1-.9-3.6 1.1c-3.4 1-6.8 2-10.1 2.5Zm6.8 20.5c1.7-.6 3.4-1.3 5.2-1.8l.1-.9-5.5 2a88 88 0 0 1-4.9 1.7l.1.9 5-1.9Zm-6.3-13.4.1 1c2-1.5 4.5-2.6 6.6-3.5l6.1-2.8.1-1-6.4 3c-2.2.9-4.4 2-6.5 3.3Z"/>
    <path fill="#C8915C" d="M87.5 56.2 86.3 75l-9 3.8-3.2-3.6 3.8-13.9 9.6-5z"/>
    <path fill="#002031" d="M89 44.6c.4-.6-.4-2.5-2.3-3.8-2-1.2-4.2-1.8-6.5-1.6-5 .4-7 2.7-7 2.7s-1.7-.1-2 .7c-.7 1.5 0 2.5.5 2.8h.2c3.3 2.1 6.9 3.8 10.6 4.9l6 1.7c.6.1 1.9.2 1.9-.3.6-6.6-.6-7-1.3-7l-.1-.1Z"/>
    <path fill="#C8915C" d="M90.3 53A14 14 0 0 1 79 65.4c-6.9 1.2-11.3-3.4-10.8-11 .6-6.5 5-13.4 11-13.8 6.2-.3 11.8 4.2 11 12.4h.1Z"/>
    <path fill="#002031" d="m87.4 57-.2 3.6c.8-1 1.4-2.1 2-3.2l-1.8-.4Z"/>
    <path fill="#002031" d="m68.8 52-.1 3.5c0 1 .7 1.7 1.7 1.7h.3a3 3 0 0 1 2-.7l4 .3c1 0 2 .5 2.7 1.4l.1.2c.7.8 1.5 1 2.5 1s2-.7 2.4-1.6l2.3-4.7 2.1 2.7-2.2 5.7c-1.2 3.2-3.6 5-8 5H73c-4.8 0-6.2-4.6-5.4-7.6l1.3-7-.1.1ZM57.3 93.7h-.6l.7 15 .6-.1-.7-14.9Z"/>
    <path fill="#002031" d="M72.2 52.8c.4 0 .6-.4.6-.8s-.4-.7-.8-.7c-.3 0-.6.5-.5.9 0 .4.4.7.7.6Zm5.9.4c.4 0 .6-.5.5-.9 0-.4-.4-.7-.7-.6-.4 0-.6.4-.5.8 0 .4.4.7.7.7Zm-3.3 3.2s-1 0-1.4-.7c-.2-.5 0-1.2.6-2.4l.4-1.3.2-.2c.1 0 .2 0 .2.2l-.4 1.4c-.2.8-.6 1.8-.5 2 .2.4.8.6 1 .6.2 0 .3.1.3.2l-.4.2Z"/>
    <path fill="#FFF" d="m76.5 59-3.7-.5-.2-.2c0-.1 0-.2.2-.2l3.6.5.2.2-.1.2Z"/>
    <path fill="#002031" d="m80.3 51-2.9-.4c-.2 0-.3-.2-.2-.3 0-.3.2-.4.4-.3l2.7.5c.2 0 .3.2.2.3 0 .1 0 .2-.2.2Zm-9.5-1s-.3 0-.3-.2l.2-.4 2.7-.6c.2 0 .4.2.5.3 0 .2-.1.3-.3.4l-2.8.5c.1 0 .1 0 0 0Z"/>
    <path fill="#002031" d="M79.3 40.3c-3 0-5.8 2.4-7.6 5 .9.7 2.3 1.3 4.1 1.5 4 .1 8.2-.2 12.2-.8 0 0-1.9 1.1-2.2 2-.9 3.5.3 5.5 1 7.1 1 1.9 1.4 2.8 2.3 2.5.6-1.4 1-3 1.2-4.5 1-9.6-4.4-12.8-11-12.8Z"/>
    <path fill="#C8915C" d="M86.2 59.5c1.8.4 3.5-.6 4-2.2.4-1.7-.6-3.5-2.2-3.9l-1.8 6v.1Z"/>
    <path fill="#FFF" d="m77.1 151.3-1-10.3h-5.3v-.7h5.9l1.2 11h-.8z"/>
    <path fill="#237978" d="M89.6 70.2H84c-.8 0-1.3.7-1.2 1.4l.6 4.6 7.7-.3v-4.3c0-.7-.6-1.4-1.5-1.4Z"/>
    <path fill="#002031" d="M122 112.3c-2-2.6-2.8-5.2-2.3-7.5a7.9 7.9 0 0 1 3.9-5.3l.3.6s-3 1.8-3.5 5c-.4 2.1.4 4.5 2.2 6.9l-.5.3h-.1Zm-76.4 1.5a8.5 8.5 0 0 0-5.6-3.7c-3.5-.5-6.4 1.8-6.4 1.8l-.4-.6c2-1.5 4.5-2 7-1.8 2.2.3 4.3 1.6 6 4l-.6.3Z"/>
    <path fill="#104A4A" d="M97 75.2h-7.5c0-.6.5-1.2 1.2-1.2h5c.8-.1 1.4.4 1.4 1.2H97Zm-23.7-5-1.5 5h2.3l1.4-5h-2.2Z"/>
    <path fill="#002031" d="m95.4 123.1-1.6-2 5-5.1.5.5-4.6 4.6 1.2 1.6z"/>
    <path fill="#FFF" d="M38.8 32 36 30.8a14 14 0 0 0-.7-4l2.3-2A2 2 0 0 0 38 22l-1.3-2.2c-.5-1-1.7-1.3-2.8-.9l-2.8 1.2c-1-.9-2-1.7-3.3-2.3l.2-3c0-1-.7-2.2-1.8-2.4l-2.5-.5c-1-.3-2.1.3-2.6 1.4L20 16c-1.3 0-2.7.3-3.9.6l-2-2.2c-.7-.9-1.9-1-2.9-.5l-2.1 1.3c-1 .7-1.3 1.8-1 2.9l1.2 2.8c-.9 1-1.8 2-2.3 3.2H4c-1.1-.2-2.1.6-2.4 1.7L1 28.2c-.2 1.1.4 2.2 1.3 2.7L5.2 32c0 1.3.3 2.8.6 4l-2.3 2c-.8.8-1 2-.4 3l1.3 2.1c.5 1 1.7 1.3 2.8.9l2.8-1.2a15 15 0 0 0 3.3 2.3l-.1 3c-.1 1 .6 2.2 1.7 2.4l2.5.5c1.1.2 2.2-.3 2.6-1.4l1.2-2.8a14 14 0 0 0 4-.7l1.9 2.2c.7.9 2 1 3 .4l2-1.3c1-.5 1.4-1.7 1-2.8L32 41.8c.8-1 1.7-2 2.2-3.2h3c1.2.2 2.1-.6 2.5-1.7l.5-2.5c.3-1-.3-2-1.3-2.5l-.1.1Zm-11.6 1c-.9 3.7-4.5 6-8.1 5.1-3.7-.9-6-4.4-5.1-8.1.8-3.7 4.4-6 8-5.1 3.7.7 6 4.4 5.2 8.1ZM63 13.5l-.1-2c0-1-.6-1.7-1.5-1.8l-2.2-.3A8.6 8.6 0 0 0 57 6l.7-2c.3-1-.1-1.8-.9-2.2l-1.7-1c-.8-.4-1.7-.2-2.3.5L51.5 3a10 10 0 0 0-4 0l-1.4-1.5c-.6-.7-1.5-.8-2.3-.4l-1.7 1.1c-.8.4-1.1 1.4-.8 2.3l.9 2c-.9 1.1-1.5 2.3-1.9 3.6l-2.1.5c-1 .2-1.6 1-1.5 1.8l.2 2c0 .8.6 1.6 1.5 1.7l2.1.3a8.6 8.6 0 0 0 2.2 3.4l-.6 2c-.3 1 0 1.8.8 2.2l1.8 1c.7.4 1.7.2 2.2-.6l1.4-1.7c1.3.2 2.7.2 4-.1l1.4 1.6c.5.7 1.5.8 2.3.4l1.7-1.1c.8-.5 1-1.4.8-2.3l-.8-2c.9-1 1.5-2.2 1.8-3.5l2.1-.5c.8 0 1.4-.8 1.4-1.7ZM51.8 16s0 .1 0 0a4 4 0 0 1-5.2-1.2 4 4 0 0 1 1.2-5.2 4 4 0 0 1 5.2 1.2c1.2 1.7.7 4.1-1.2 5.2Z"/>
  </g>
</svg>
