<svg xmlns="http://www.w3.org/2000/svg" fill="none" viewBox="0 0 407 282">
  <path fill="#104A4A" d="M184.8 91.2h-7.6c0-.6.5-1.2 1.2-1.2h5.1c.7-.1 1.3.4 1.3 1.2Z"/>
  <path fill="#237978" d="M188.5 86.2h-6.7c-.8 0-1.3.8-1.1 1.4l1 4.3 5.4-.8 1.4-4.9Z"/>
  <path fill="#59ACF5" d="m179.7 155 .5-16.4 16.6 3-.4 14.1-16.7-.7Z"/>
  <path fill="#002031" d="m138.8 73.7 6.2-2.2-.1-.4 1.2.2h.2c.8 0 1.6.6 2 1.5l6.1 17.6c.4 1.2-.2 2.7-1.4 3l-6.4 2.4c-1.2.4-2.6-.3-3-1.4l-6.2-17.7c-.5-1.2.2-2.5 1.4-3Z"/>
  <path fill="#1540EB" d="m151.6 93.4-6.4 2.3c-1.2.4-2.6-.3-3-1.5L136 76.6c-.5-1.2.2-2.6 1.4-3l6.4-2.3c1.2-.5 2.6.2 3 1.4l6.2 17.6c.4 1.3-.2 2.6-1.4 3Z"/>
  <path fill="#C8915C" d="M144.6 82.3 138 86a5 5 0 0 0-2.1 5.7l2.9 10 8.3-3.3-2-6 3.6-3-4-7Z"/>
  <path fill="#237978" d="M169 95.5 154.3 117l-7.5-19.7-9.2.3s3.6 19.5 8.2 29c2.7 5.6 9.6 5.3 13.2 3 9.8-6.5 17.4-13.9 17.4-13.9l-7.2-20.2Z"/>
  <path fill="#F48D91" d="M176.6 99h-1.3l.8-1.4.5 1.4Z"/>
  <path fill="#002031" d="m141.8 87-.2-.1c-.1-.1 0-.2.1-.4l4-2.3c0-.2.1 0 .2 0 .2.2 0 .3 0 .4l-4 2.4ZM143.5 89.5l-.3-.1.1-.4 3.7-2.5.4.1c0 .2 0 .3-.2.4l-3.6 2.5h-.1Z"/>
  <path fill="#59ACF5" d="M209.2 142.2s.8 8.2 1 23l1 91-10.2 1.7-13-116.3 21.2.6Z"/>
  <path fill="#59ACF5" d="m190.8 154.7-40.3 102.8-7.2 4.3-3.7-5.3 33-115 13.2-1s4.9 1 5 14.2Z"/>
  <path fill="#237978" d="M179 91.1h31c5.8 0 12.5 5.2 11.6 11.3l-2.3 7.1-3.9.7-5 32-36.5-.2c-1.4 0-2.4-1.1-2.6-2.5l-1.3-32.3c0-3.3-2.3-5.8-2.2-6.8.4-7 5.7-9.3 11.3-9.3Z"/>
  <path fill="#FC0" d="m138.4 253.9-8.2 5.9-4.9 2.3c-2.4 1.3-2.4 3.6-2.4 3.6h31.2l-1.3-10c-.2-.8-1.6-1-1.9-.3-.5 1.4-2.8 2.3-4.7 2.4-2.9.1-3.8-1.8-5.4-3.5-.6-.6-1.6-.8-2.4-.4Z"/>
  <path fill="#fff" d="M152.4 269h-27.6c-1.1 0-2-.8-2-1.9v-1.5h31.4l.1 1.3a2 2 0 0 1-2 2.2Z"/>
  <path fill="#002031" d="m134.3 260.6-3.4-1 .2-.7 3.5 1-.3.7ZM133.5 257.2l-.2.6 3.6 1 .2-.6-3.6-1Z"/>
  <path fill="#FC0" d="m212.5 253.9 4.9 5.9 2.9 2.3c2.5 1.3 2.5 3.6 2.5 3.6h-23.6l.5-9 5.7.1s.6-1.4 2.2-3c.8-.7 3.8-1.4 4.9 0Z"/>
  <path fill="#fff" d="M201 269h19.7c1.2 0 2-.9 2.2-2v-1.3H199v1.2c0 1.2.9 2.2 2 2.2Z"/>
  <path fill="#002031" d="M213.9 258.8v.7l3.9.1v-.7l-4-.1ZM211.3 256.8v.7l4.5.2v-.8l-4.5-.1Z"/>
  <path fill="#C8915C" d="m213.7 145.4-1.4.9c-1.3.8-3 .8-4.3.1l-1.7-.9-6.6 2.9c-.7.3-1.4.2-2-.3l-1.8-1.5c-.8-.6-.8-1.8 0-2.5a30 30 0 0 0 2.5-2.4c-.1.2-2 .6-3 1-.6 0-1.2-.3-1.3-.7 0-.6.1-1 .6-1.2l6-2.4c1.6-.8 3.1-.6 4.8-.1l3.2.5 5 6.6Z"/>
  <path fill="#002031" d="M197.4 148.1h-.2c-.1-.2 0-.3 0-.4l6.4-3.9.3.1c.1.1 0 .2-.1.3l-6.3 4h-.1ZM196 146.7h-.2c-.1-.2 0-.3 0-.4l5.6-4.1h.3v.3l-5.6 4.1-.1.1Z"/>
  <path fill="#237978" d="M218.6 94.8s14.8 16.7 18.2 21c3.1 4 2.7 8.6-1.4 12.3-3.7 3.2-22 17.7-22 17.7l-6.1-8.7 15.6-16-18.5-17.4 14.2-9Z"/>
  <path fill="#002031" d="m224.5 123-2.5-2.8 4.3.8-.1.8-2.2-.6 1 1.2-.5.6ZM212.5 110.7l-.5.5 3.9 3.8.5-.5-4-3.8Z"/>
  <path fill="#FE6F43" d="m184.8 91.2-3.8 9 3.2 41.8h8.7l3.6-51.1-11.7.3Z"/>
  <path fill="#FE9C7E" d="M195.9 100.4v-1c-5 2.1-9.8 4.6-14.4 7.4l.2 1c4.4-2.8 9.2-5.3 14.2-7.4ZM194.6 118.6v-.8c-2 .4-4.2 1-6.2 1.6l-5.8 1.5.1.9c2-.4 4-1 5.9-1.6l6-1.6ZM194.2 121.8a92 92 0 0 0-11.2 5.7v1h.3c3.5-2.2 7.1-4.1 11-5.7v-1ZM181 101c4.8-1.9 9.9-3.2 15-3.8l.2-.9c-5.2.7-10.3 2-15.2 4v.8ZM193.2 138a20.7 20.7 0 0 1-9.2 2.7l.2.8c3.1-.2 6.1-1 8.9-2.6v-1ZM183.8 137.6l.1 1c3.2-2 6.3-3.7 9.6-5.3l.1-1c-3.4 1.6-6.6 3.4-9.8 5.3ZM181.8 110.6v.9a67 67 0 0 0 10.3-2.6l3.3-1 .1-.9-3.6 1.1c-3.4 1-6.8 2-10.1 2.5ZM188.6 131.1c1.7-.6 3.4-1.3 5.2-1.8l.1-.9-5.5 2a88 88 0 0 1-4.9 1.7l.1.9 5-1.9ZM182.3 117.7l.1 1c2-1.5 4.5-2.6 6.6-3.5l6.1-2.8.1-1-6.4 3c-2.2.9-4.4 2-6.5 3.3Z"/>
  <path fill="#C8915C" d="M200.5 72.2 199.3 91l-9 3.8-3.2-3.6 3.8-13.9 9.6-5Z"/>
  <path fill="#002031" d="M202 60.6c.4-.6-.4-2.5-2.3-3.8a10.3 10.3 0 0 0-6.5-1.6c-5 .4-7 2.7-7 2.7s-1.7-.1-2 .7c-.7 1.5 0 2.5.5 2.8h.2a43.3 43.3 0 0 0 10.6 4.9l6 1.7c.6.1 1.9.2 1.9-.3.6-6.6-.6-7-1.3-7Z"/>
  <path fill="#C8915C" d="M203.3 69A14 14 0 0 1 192 81.4c-6.9 1.2-11.3-3.4-10.8-11 .6-6.5 5-13.4 11-13.8 6.2-.3 11.8 4.2 11 12.4Z"/>
  <path fill="#002031" d="m200.4 73-.2 3.6c.8-1 1.4-2.1 2-3.2l-1.8-.4ZM198.8 72.7h-.1.1Z"/>
  <path fill="#002031" d="m181.8 68-.1 3.5c0 1 .7 1.7 1.7 1.7h.3a3 3 0 0 1 2-.7l4 .3c1 0 2 .5 2.7 1.4l.1.2c.7.8 1.5 1 2.5 1s2-.7 2.4-1.6l2.3-4.7 2.1 2.7-2.2 5.7c-1.2 3.2-3.6 5-8 5H186c-4.8 0-6.2-4.6-5.4-7.6l1.3-7ZM170.3 109.7h-.6l.7 15 .6-.1-.7-14.9Z"/>
  <path fill="#002031" d="M185.2 68.8c.4 0 .6-.4.6-.8s-.4-.7-.8-.7c-.3 0-.6.5-.5.9 0 .4.4.7.7.6ZM191.1 69.2c.4 0 .6-.5.5-.9 0-.4-.4-.7-.7-.6-.4 0-.6.4-.5.8 0 .4.4.7.7.7ZM187.8 72.4s-1 0-1.4-.7c-.2-.5 0-1.2.6-2.4l.4-1.3.2-.2c.1 0 .2 0 .2.2l-.4 1.4c-.2.8-.6 1.8-.5 2 .2.4.8.6 1 .6.2 0 .3.1.3.2l-.4.2Z"/>
  <path fill="#fff" d="m189.5 75-3.7-.5-.2-.2c0-.1 0-.2.2-.2l3.6.5.2.2-.1.2Z"/>
  <path fill="#002031" d="m193.3 67-2.9-.4c-.2 0-.3-.2-.2-.3 0-.3.2-.4.4-.3l2.7.5c.2 0 .3.2.2.3 0 .1 0 .2-.2.2ZM183.8 66s-.3 0-.3-.2l.2-.4 2.7-.6c.2 0 .4.2.5.3 0 .2-.1.3-.3.4l-2.8.5c.1 0 .1 0 0 0Z"/>
  <path fill="#002031" d="M192.3 56.3c-3 0-5.8 2.4-7.6 5 .9.7 2.3 1.3 4.1 1.5A65.7 65.7 0 0 0 201 62s-1.9 1.1-2.2 2c-.9 3.5.3 5.5 1 7.1 1 1.9 1.4 2.8 2.3 2.5.6-1.4 1-3 1.2-4.5 1-9.6-4.4-12.8-11-12.8Z"/>
  <path fill="#C8915C" d="M199.2 75.5c1.8.4 3.5-.6 4-2.2.4-1.7-.6-3.5-2.2-3.9l-1.8 6Z"/>
  <path fill="#fff" d="m190.1 167.3-1-10.3h-5.3v-.7h5.9l1.2 11h-.8Z"/>
  <path fill="#237978" d="M202.6 86.2H197c-.8 0-1.3.7-1.2 1.4l.6 4.6 7.7-.3v-4.3c0-.7-.6-1.4-1.5-1.4Z"/>
  <path fill="#002031" d="M235 128.3c-2-2.6-2.8-5.2-2.3-7.5a7.9 7.9 0 0 1 3.9-5.3l.3.6s-3 1.8-3.5 5c-.4 2.1.4 4.5 2.2 6.9l-.5.3ZM158.6 129.8a8.5 8.5 0 0 0-5.6-3.7c-3.5-.5-6.4 1.8-6.4 1.8l-.4-.6a10 10 0 0 1 7-1.8c2.2.3 4.3 1.6 6 4l-.6.3Z"/>
  <path fill="#104A4A" d="M210 91.2h-7.5c0-.6.5-1.2 1.2-1.2h5c.8-.1 1.4.4 1.4 1.2ZM186.3 86.2l-1.5 5h2.3l1.4-5h-2.2Z"/>
  <path fill="#002031" d="m208.4 139.1-1.6-2 5-5.1.5.5-4.6 4.6 1.2 1.6-.5.4Z"/>
  <path fill="#fff" d="m151.8 48-2.8-1.2c0-1.3-.3-2.7-.7-4l2.3-2c.9-.7 1-1.9.4-2.8l-1.3-2.2c-.5-1-1.7-1.3-2.8-.9l-2.8 1.2c-1-.9-2-1.7-3.3-2.3l.2-3c0-1-.7-2.2-1.8-2.4l-2.5-.5c-1-.3-2.1.3-2.6 1.4L133 32c-1.3 0-2.7.3-3.9.6l-2-2.2c-.7-.9-1.9-1-2.9-.5l-2.1 1.3c-1 .7-1.3 1.8-1 2.9l1.2 2.8c-.9 1-1.8 2-2.3 3.2h-3c-1.1-.2-2.1.6-2.4 1.7l-.6 2.4c-.2 1.1.4 2.2 1.3 2.7l2.9 1.1c0 1.3.3 2.8.6 4l-2.3 2c-.8.8-1 2-.4 3l1.3 2.1c.5 1 1.7 1.3 2.8.9l2.8-1.2c1 .9 2.1 1.7 3.3 2.3l-.1 3c-.1 1 .6 2.2 1.7 2.4l2.5.5c1.1.2 2.2-.3 2.6-1.4l1.2-2.8c1.3 0 2.7-.3 4-.7l1.9 2.2c.7.9 2 1 3 .4l2-1.3c1-.5 1.4-1.7 1-2.8l-1.1-2.8c.8-1 1.7-2 2.2-3.2h3c1.2.2 2.1-.6 2.5-1.7l.5-2.5c.3-1-.3-2-1.3-2.5Zm-11.6 1c-.9 3.7-4.5 6-8.1 5.1-3.7-.9-6-4.4-5.1-8.1.8-3.7 4.4-6 8-5.1 3.7.7 6 4.4 5.2 8.1ZM176 29.5l-.1-2c0-1-.6-1.7-1.5-1.8l-2.2-.3A8.6 8.6 0 0 0 170 22l.7-2c.3-1-.1-1.8-.9-2.2l-1.7-1c-.8-.4-1.7-.2-2.3.5l-1.3 1.7a10 10 0 0 0-4 0l-1.4-1.5c-.6-.7-1.5-.8-2.3-.4l-1.7 1.1c-.8.4-1.1 1.4-.8 2.3l.9 2c-.9 1.1-1.5 2.3-1.9 3.6l-2.1.5c-1 .2-1.6 1-1.5 1.8l.2 2c0 .8.6 1.6 1.5 1.7l2.1.3a8.6 8.6 0 0 0 2.2 3.4l-.6 2c-.3 1 0 1.8.8 2.2l1.8 1c.7.4 1.7.2 2.2-.6l1.4-1.7c1.3.2 2.7.2 4-.1l1.4 1.6c.5.7 1.5.8 2.3.4l1.7-1.1c.8-.5 1-1.4.8-2.3l-.8-2c.9-1 1.5-2.2 1.8-3.5l2.1-.5c.8 0 1.4-.8 1.4-1.7ZM164.8 32s0 .1 0 0c-1.8 1-4 .5-5.2-1.2-1-1.7-.5-4.1 1.2-5.2 1.8-1 4.1-.5 5.2 1.2 1.2 1.7.7 4.1-1.2 5.2Z"/>
</svg>
