<svg class="plot" fill="currentColor" text-anchor="middle" width="640" height="460" viewBox="0 0 640 400" style="font-family: 'RO Sans', sans-serif; font-size: 14px;" xmlns="http://www.w3.org/2000/svg">

<g transform="translate(40,0)" fill="none" text-anchor="end"><g class="tick" opacity="1" transform="translate(0,320.02009032495334)"><line stroke="currentColor" x2="0"></line><line stroke="currentColor" x2="580" stroke-opacity="0.1"></line><text fill="currentColor" x="-9" dy="0.32em">0m</text></g><g class="tick" opacity="1" transform="translate(0,277.635438524649)"><line stroke="currentColor" x2="0"></line><line stroke="currentColor" x2="580" stroke-opacity="0.1"></line><text fill="currentColor" x="-9" dy="0.32em">0.5m</text></g><g class="tick" opacity="1" transform="translate(0,235.25078672434458)"><line stroke="currentColor" x2="0"></line><line stroke="currentColor" x2="580" stroke-opacity="0.1"></line><text fill="currentColor" x="-9" dy="0.32em">1m</text></g><g class="tick" opacity="1" transform="translate(0,192.8661349240402)"><line stroke="currentColor" x2="0"></line><line stroke="currentColor" x2="580" stroke-opacity="0.1"></line><text fill="currentColor" x="-9" dy="0.32em">1.5m</text></g><g class="tick" opacity="1" transform="translate(0,150.4814831237358)"><line stroke="currentColor" x2="0"></line><line stroke="currentColor" x2="580" stroke-opacity="0.1"></line><text fill="currentColor" x="-9" dy="0.32em">2m</text></g><g class="tick" opacity="1" transform="translate(0,108.0968313234314)"><line stroke="currentColor" x2="0"></line><line stroke="currentColor" x2="580" stroke-opacity="0.1"></line><text fill="currentColor" x="-9" dy="0.32em">2.5m</text></g><g class="tick" opacity="1" transform="translate(0,65.712179523127)"><line stroke="currentColor" x2="0"></line><line stroke="currentColor" x2="580" stroke-opacity="0.1"></line><text fill="currentColor" x="-9" dy="0.32em">3m</text></g><text fill="currentColor" transform="translate(-40,40)" dy="-1em" text-anchor="start">↑ Aantal downloads CoronaCheck Scanner (miljoen)</text></g><g transform="translate(0,320)" fill="none" text-anchor="middle"><g class="tick" opacity="1" transform="translate(46.71687037072535,0)"><line stroke="currentColor" y2="6"></line><text fill="currentColor" dy="0.32em" transform="translate(0, 11.82842712474619) rotate(-45)" text-anchor="end">apr. 2021</text></g><g class="tick" opacity="1" transform="translate(97.09339815116547,0)"><line stroke="currentColor" y2="6"></line><text fill="currentColor" dy="0.32em" transform="translate(0, 11.82842712474619) rotate(-45)" text-anchor="end">mei 2021</text></g><g class="tick" opacity="1" transform="translate(149.14914352428693,0)"><line stroke="currentColor" y2="6"></line><text fill="currentColor" dy="0.32em" transform="translate(0, 11.82842712474619) rotate(-45)" text-anchor="end">jun. 2021</text></g><g class="tick" opacity="1" transform="translate(199.52567130472704,0)"><line stroke="currentColor" y2="6"></line><text fill="currentColor" dy="0.32em" transform="translate(0, 11.82842712474619) rotate(-45)" text-anchor="end">jul. 2021</text></g><g class="tick" opacity="1" transform="translate(251.5814166778485,0)"><line stroke="currentColor" y2="6"></line><text fill="currentColor" dy="0.32em" transform="translate(0, 11.82842712474619) rotate(-45)" text-anchor="end">aug. 2021</text></g><g class="tick" opacity="1" transform="translate(303.63716205097,0)"><line stroke="currentColor" y2="6"></line><text fill="currentColor" dy="0.32em" transform="translate(0, 11.82842712474619) rotate(-45)" text-anchor="end">sep. 2021</text></g><g class="tick" opacity="1" transform="translate(354.0136898314101,0)"><line stroke="currentColor" y2="6"></line><text fill="currentColor" dy="0.32em" transform="translate(0, 11.82842712474619) rotate(-45)" text-anchor="end">okt. 2021</text></g><g class="tick" opacity="1" transform="translate(406.0694352045316,0)"><line stroke="currentColor" y2="6"></line><text fill="currentColor" dy="0.32em" transform="translate(0, 11.82842712474619) rotate(-45)" text-anchor="end">nov. 2021</text></g><g class="tick" opacity="1" transform="translate(456.44596298497174,0)"><line stroke="currentColor" y2="6"></line><text fill="currentColor" dy="0.32em" transform="translate(0, 11.82842712474619) rotate(-45)" text-anchor="end">dec. 2021</text></g><g class="tick" opacity="1" transform="translate(508.50170835809314,0)"><line stroke="currentColor" y2="6"></line><text fill="currentColor" dy="0.32em" transform="translate(0, 11.82842712474619) rotate(-45)" text-anchor="end">jan. 2022</text></g><g class="tick" opacity="1" transform="translate(560.5574537312147,0)"><line stroke="currentColor" y2="6"></line><text fill="currentColor" dy="0.32em" transform="translate(0, 11.82842712474619) rotate(-45)" text-anchor="end">feb. 2022</text></g><g class="tick" opacity="1" transform="translate(607.575546326292,0)"><line stroke="currentColor" y2="6"></line><text fill="currentColor" dy="0.32em" transform="translate(0, 11.82842712474619) rotate(-45)" text-anchor="end">mrt. 2022</text></g><text fill="currentColor" transform="translate(640,-10)" dy="-0.32em" text-anchor="end">Maand →</text></g><g fill="none" stroke="#ec025f" stroke-width="3" stroke-miterlimit="1"><path d="M40,320C45.64749963302799,319.99734389515385,51.29499926605598,319.9946877903077,51.75452314876936,319.99203168546154C59.5908719146156,319.9467366209043,59.789443496393446,319.901441556347,63.50904629753872,319.85614649178973C67.67648649145758,319.8053979353675,71.26681373465371,319.7546493789453,75.26356944630808,319.7039008225231C79.10900033146505,319.6550737036492,80.97256287269181,319.6062465847752,87.01809259507745,319.55741946590126C90.30674880980203,319.53085841743973,94.9327382129635,319.5042973689782,98.77261574384681,319.47773632051667C102.77589231859773,319.4500450146738,105.98648688004924,319.42235370883094,110.52713889261618,319.39466240298805C114.06699413506433,319.37307448700443,121.18030618099093,319.3514865710208,122.28166204138554,319.3298986550372C130.11801080723177,319.1762966769129,128.72314189200688,319.0226946987886,134.0361851901549,318.8690927206643C137.39642118335468,318.771947098738,143.06605552167304,318.6748014768117,145.79070833892425,318.5776558548854C153.6270571047705,318.29825623021776,152.70526322937573,318.0188566055502,157.54523148769363,317.73945698088255C160.99507941291827,317.5403056302902,166.5200180567821,317.34115427969783,169.29975463646298,317.1420029291055C177.13610340230923,316.58057583135866,180.30760990227907,316.0191487336118,181.05427778523236,315.45772163586497C188.89062655107858,309.56549211189025,187.595986809035,303.67326258791553,192.8088009340017,297.7810330639408C196.18416726262825,293.9657362474846,199.65550255792047,290.1504394310284,204.5633240827711,286.3351426145722C207.99706172667968,283.66578550062354,211.18565407550793,280.99642838667495,216.3178472315404,278.3270712727263C219.70669518039298,276.56446314295886,223.4153956832655,274.80185501319136,228.0723703803098,273.0392468834239C231.5730709449085,271.71427441171187,235.59191928151344,270.3893019399998,239.82689352907914,269.0643294682878C243.50597716877195,267.91327535112964,247.49391344647634,266.76222123397156,251.5814166778485,265.6111671168134C255.3552530027677,264.5484426140071,259.5665712618225,263.4857181112008,263.3359398266179,262.4229936083945C267.4296284306496,261.2688312834377,270.6105671029515,260.1146689584809,275.09046297538725,258.96050663352406C278.6533434879485,258.0425963577021,282.65012196340444,257.1246860818802,286.8449861241566,256.20677580605826C290.5475977935808,255.39657905867818,294.7864518039993,254.5863823112981,298.59950927292596,253.77618556391803C302.635448348867,252.91863103225973,306.55327571862637,252.06107650060144,310.3540324216953,251.20352196894314C314.4056348091771,250.28936979891418,320.2180286148666,249.3752176288852,322.1085555704647,248.46106545885624C329.94490433631097,244.6718493314745,330.55957688519976,240.88263320409274,333.86307871923407,237.093417076711C339.7005766655726,230.3976310674716,341.039711103693,223.70184505823215,345.6176018680034,217.00605904899274C349.144257530337,211.8478469248957,351.33618096174763,206.68963480079867,357.37212501677277,201.53142267670162C360.66139214684074,198.72047256930543,365.1688328164018,195.90952246190926,369.1266481655422,193.09857235451307C373.0067235549698,190.3428353201954,376.5331579289618,187.58709828587777,380.88117131431153,184.8313612515601C384.50136526160543,182.53691051100242,389.07243686569615,180.24245977044473,392.6356944630808,177.94800902988703C397.11463655061493,175.06393126991804,401.76482882635975,172.17985350994908,404.39021761185023,169.2957757499801C412.2265663776965,160.68728343073107,411.18935711597857,152.07879111148208,416.1447407606196,143.47029879223305C419.56794637969114,137.52350609317406,422.34390958833336,131.57671339411507,427.89926390938894,125.6299206950561C431.2292086154846,122.06534322221597,434.6339387821264,118.50076574937584,439.6537870581583,114.93618827653572C443.06363572064566,112.51486614492246,445.90412239849235,110.09354401330923,451.4083102069277,107.67222188169598C454.74399279996385,106.2048369799349,458.90029180865525,104.7374520781738,463.162833355697,103.27006717641272C466.82659497195226,102.0088129645738,470.8860238805371,100.74755875273488,474.9173565044664,99.48630454089596C478.7340989699036,98.29218761750872,483.07268350080034,97.09807069412147,486.67187965323575,95.90395377073423C491.06535179520296,94.44631733888723,492.0068464696936,92.9886809070402,498.42640280200516,91.5310444751932C501.6957895341124,90.78869142712814,506.3327787436195,90.0463383790631,510.1809259507745,89.30398533099805C514.1745211701367,88.53357364344117,518.1327104930399,87.7631619558843,521.9354490995439,86.99275026832743C525.9844974943877,86.17243771738434,529.935792984138,85.35212516644124,533.6899722483132,84.53181261549815C537.8052024065527,83.63260809933743,542.1442515448739,82.73340358317671,545.4444953970826,81.83419906701599C551.3237061636843,80.23231353687528,553.6264626352489,78.63042800673458,557.1990185458519,77.02854247659387C561.6548353557689,75.03061476003113,564.8505351630414,73.03268704346837,568.9535416946213,71.03475932690563C572.7162703145209,69.20252734244754,574.2728792576098,67.37029535798946,580.7080648433906,65.53806337353137C583.9768171780893,64.60738118930027,587.0720798256331,63.67669900506918,592.46258799216,62.746016820838086C595.8122412891909,62.16769237524021,598.5263805157022,61.58936792964233,604.2171111409294,61.01104348404445C607.5333443049049,60.67402898936297,611.7524892973018,60.33701449468148,615.9716342896987,60"></path></g>

</svg>
