<svg class="plot" fill="currentColor" text-anchor="middle" width="640" height="460" viewBox="0 0 640 400" style="font-family: 'RO Sans', sans-serif; font-size: 14px;" xmlns="http://www.w3.org/2000/svg">

<g transform="translate(40,0)" fill="none" text-anchor="end"><g class="tick" opacity="1" transform="translate(0,370.118674928572)"><line stroke="currentColor" x2="0"></line><line stroke="currentColor" x2="580" stroke-opacity="0.1"></line><text fill="currentColor" x="-9" dy="0.32em">0m</text></g><g class="tick" opacity="1" transform="translate(0,322.1401309334465)"><line stroke="currentColor" x2="0"></line><line stroke="currentColor" x2="580" stroke-opacity="0.1"></line><text fill="currentColor" x="-9" dy="0.32em">2m</text></g><g class="tick" opacity="1" transform="translate(0,274.1615869383212)"><line stroke="currentColor" x2="0"></line><line stroke="currentColor" x2="580" stroke-opacity="0.1"></line><text fill="currentColor" x="-9" dy="0.32em">4m</text></g><g class="tick" opacity="1" transform="translate(0,226.1830429431958)"><line stroke="currentColor" x2="0"></line><line stroke="currentColor" x2="580" stroke-opacity="0.1"></line><text fill="currentColor" x="-9" dy="0.32em">6m</text></g><g class="tick" opacity="1" transform="translate(0,178.2044989480704)"><line stroke="currentColor" x2="0"></line><line stroke="currentColor" x2="580" stroke-opacity="0.1"></line><text fill="currentColor" x="-9" dy="0.32em">8m</text></g><g class="tick" opacity="1" transform="translate(0,130.22595495294505)"><line stroke="currentColor" x2="0"></line><line stroke="currentColor" x2="580" stroke-opacity="0.1"></line><text fill="currentColor" x="-9" dy="0.32em">10m</text></g><g class="tick" opacity="1" transform="translate(0,82.24741095781965)"><line stroke="currentColor" x2="0"></line><line stroke="currentColor" x2="580" stroke-opacity="0.1"></line><text fill="currentColor" x="-9" dy="0.32em">12m</text></g><g class="tick" opacity="1" transform="translate(0,34.26886696269427)"><line stroke="currentColor" x2="0"></line><line stroke="currentColor" x2="580" stroke-opacity="0.1"></line><text fill="currentColor" x="-9" dy="0.32em">14m</text></g><g class="tick" opacity="1" transform="translate(0,-13.709677032431117)"><line stroke="currentColor" x2="0"></line><line stroke="currentColor" x2="580" stroke-opacity="0.1"></line><text fill="currentColor" x="-9" dy="0.32em">16m</text></g><text fill="currentColor" transform="translate(10,20)" dy="-1em" text-anchor="start">↑ Aantal downloads CoronaCheck (miljoen)</text></g><g transform="translate(0,370)" fill="none" text-anchor="middle"><g class="tick" opacity="1" transform="translate(57,0)"><line stroke="currentColor" y2="0"></line><text fill="currentColor" y="9" dy="0.71em">12</text></g><g class="tick" opacity="1" transform="translate(85,0)"><line stroke="currentColor" y2="0"></line><text fill="currentColor" y="9" dy="0.71em">14</text></g><g class="tick" opacity="1" transform="translate(113,0)"><line stroke="currentColor" y2="0"></line><text fill="currentColor" y="9" dy="0.71em">16</text></g><g class="tick" opacity="1" transform="translate(141,0)"><line stroke="currentColor" y2="0"></line><text fill="currentColor" y="9" dy="0.71em">18</text></g><g class="tick" opacity="1" transform="translate(169,0)"><line stroke="currentColor" y2="0"></line><text fill="currentColor" y="9" dy="0.71em">20</text></g><g class="tick" opacity="1" transform="translate(197,0)"><line stroke="currentColor" y2="0"></line><text fill="currentColor" y="9" dy="0.71em">22</text></g><g class="tick" opacity="1" transform="translate(225,0)"><line stroke="currentColor" y2="0"></line><text fill="currentColor" y="9" dy="0.71em">24</text></g><g class="tick" opacity="1" transform="translate(253,0)"><line stroke="currentColor" y2="0"></line><text fill="currentColor" y="9" dy="0.71em">26</text></g><g class="tick" opacity="1" transform="translate(281,0)"><line stroke="currentColor" y2="0"></line><text fill="currentColor" y="9" dy="0.71em">28</text></g><g class="tick" opacity="1" transform="translate(309,0)"><line stroke="currentColor" y2="0"></line><text fill="currentColor" y="9" dy="0.71em">30</text></g><g class="tick" opacity="1" transform="translate(337,0)"><line stroke="currentColor" y2="0"></line><text fill="currentColor" y="9" dy="0.71em">32</text></g><g class="tick" opacity="1" transform="translate(365,0)"><line stroke="currentColor" y2="0"></line><text fill="currentColor" y="9" dy="0.71em">34</text></g><g class="tick" opacity="1" transform="translate(393,0)"><line stroke="currentColor" y2="0"></line><text fill="currentColor" y="9" dy="0.71em">36</text></g><g class="tick" opacity="1" transform="translate(421,0)"><line stroke="currentColor" y2="0"></line><text fill="currentColor" y="9" dy="0.71em">38</text></g><g class="tick" opacity="1" transform="translate(449,0)"><line stroke="currentColor" y2="0"></line><text fill="currentColor" y="9" dy="0.71em">40</text></g><g class="tick" opacity="1" transform="translate(477,0)"><line stroke="currentColor" y2="0"></line><text fill="currentColor" y="9" dy="0.71em">42</text></g><g class="tick" opacity="1" transform="translate(505,0)"><line stroke="currentColor" y2="0"></line><text fill="currentColor" y="9" dy="0.71em">44</text></g><g class="tick" opacity="1" transform="translate(533,0)"><line stroke="currentColor" y2="0"></line><text fill="currentColor" y="9" dy="0.71em">46</text></g><g class="tick" opacity="1" transform="translate(561,0)"><line stroke="currentColor" y2="0"></line><text fill="currentColor" y="9" dy="0.71em">48</text></g><g class="tick" opacity="1" transform="translate(589,0)"><line stroke="currentColor" y2="0"></line><text fill="currentColor" y="9" dy="0.71em">50</text></g><g class="tick" opacity="1" transform="translate(NaN,0)"><line stroke="currentColor" y2="0"></line><text fill="currentColor" y="9" dy="0.71em">52</text></g><text fill="currentColor" transform="translate(640,-10)" dy="-0.32em" text-anchor="end">Weeknummer →</text></g><g fill="none" stroke="#ec025f" stroke-width="3" stroke-miterlimit="1"><path d="M57,370C63.90242359846152,369.99559397037643,70.80484719692303,369.99118794075287,71,369.9867819111293C80.33333333333333,369.7760601459027,81.05639780098251,369.56533838067617,85,369.3546166154496C91.84518473684246,368.98885218530273,94.19794756748904,368.6230877551559,99,368.25732332500905C103.5453676596051,367.91111015154024,103.66666666666667,367.5648969780714,113,367.21868380460256C116.20014166050777,367.09997689033463,122.31681344440163,366.98126997606664,127,366.8625630617987C131.65037743456094,366.7446877756267,135.415773688836,366.6268124894547,141,366.5089372032827C145.15795861823105,366.4211684534676,153.29424269166526,366.33339970365256,155,366.24563095383746C164.33333333333334,365.7653897177182,161.07681912849338,365.28514848159904,169,364.8049072454798C172.8840829218579,364.5694845265197,180.67749387922996,364.33406180755964,183,364.09863908859955C192.33333333333334,363.1525581759837,192.76218304627955,362.2064772633678,197,361.26039635075193C202.3502022648421,360.0659784944173,207.74764102157343,358.87156063808266,211,357.67714278174805C220.33333333333334,354.2495076201923,223.09395727586215,350.8218724586365,225,347.39423729708074C234.33333333333334,330.61011115829,233.28253757317802,313.8259850194992,239,297.0418588807085C243.12081175275094,284.94484466546555,246.5551467101797,272.84783045022266,253,260.7508162349797C256.98636049793043,253.2684023704599,262.06079195026666,245.7859885059401,267,238.3035746414203C271.44585204540687,231.56854654598462,275.66305430034356,224.8335184505489,281,218.0984903551132C285.2430066401859,212.7439728953212,290.1492535312632,207.38945543552921,295,202.03493797573722C299.5077024179448,197.05909117442678,304.2355412150622,192.08324437311634,309,187.1073975718059C313.57644053221196,182.3279109582195,318.0165045699505,177.54842434463308,323,172.76893773104666C327.41769602820085,168.53208845004514,331.28575055206375,164.2952391690436,337,160.0583898880421C341.1216476201756,157.00238053542458,345.70518612339936,153.94637118280707,351,150.89036183018956C355.26004665447147,148.43158939322336,360.26667806911234,145.97281695625713,365,143.51404451929093C369.6036144645165,141.1226499509419,374.3646677024017,138.7312553825929,379,136.33986081424388C383.6988658833505,133.91568890392216,389.22711293820316,131.49151699360044,393,129.06734508327872C402.3333333333333,123.07045089436001,402.4371009324681,117.07355670544129,407,111.07666251652257C411.78057081905564,104.79368826260894,415.1058792747451,98.51071400869529,421,92.22773975478165C425.0788491957944,87.8797961551594,428.3123224613432,83.53185255553714,435,79.18390895591489C438.9585674674136,76.61027588462437,443.86408030643605,74.03664281333387,449,71.46300974204335C453.3327101603189,69.29186867632795,458.2912653490395,67.12072761061253,463,64.94958654489713C467.6260628989288,62.81656443238584,471.77693193546736,60.683542319874554,477,58.55052020736326C481.291109513548,56.798095891517306,486.89831561055485,55.045671575671356,491,53.2932472598254C496.79406365098987,50.817762296700906,499.5229532496992,48.34227733357641,505,45.86679237045192C509.1919557292369,43.972135660932416,513.3415976477589,42.07747895141291,519,40.182822241893405C523.136634148367,38.79771366245014,528.3579510493792,37.41260508300687,533,36.02749650356361C537.691815051335,34.62753856475384,541.7541287708045,33.22758062594407,547,31.827622687134305C551.2809435065095,30.685173590370386,556.0791685195915,29.542724493606467,561,28.40027539684255C565.4580590875286,27.365266252931704,570.2267561602368,26.33025710902086,575,25.295247965110015C579.5690144689286,24.30452301730667,583.6014451859133,23.313798069503324,589,22.32307312169998C593.2195490660436,21.548715414466653,598.1097745330218,20.774357707233328,603,20"></path></g>

</svg>
