<svg class="plot" fill="currentColor" text-anchor="middle" width="640" height="460" viewBox="0 0 640 400" style="font-family: 'RO Sans', sans-serif; font-size: 14px;" xmlns="http://www.w3.org/2000/svg">

<g transform="translate(40,0)" fill="none" text-anchor="end"><g class="tick" opacity="1" transform="translate(0,320.0882315509391)"><line stroke="currentColor" x2="0"></line><line stroke="currentColor" x2="580" stroke-opacity="0.1"></line><text fill="currentColor" x="-9" dy="0.32em">0m</text></g><g class="tick" opacity="1" transform="translate(0,284.4175014360654)"><line stroke="currentColor" x2="0"></line><line stroke="currentColor" x2="580" stroke-opacity="0.1"></line><text fill="currentColor" x="-9" dy="0.32em">2m</text></g><g class="tick" opacity="1" transform="translate(0,248.7467713211916)"><line stroke="currentColor" x2="0"></line><line stroke="currentColor" x2="580" stroke-opacity="0.1"></line><text fill="currentColor" x="-9" dy="0.32em">4m</text></g><g class="tick" opacity="1" transform="translate(0,213.07604120631785)"><line stroke="currentColor" x2="0"></line><line stroke="currentColor" x2="580" stroke-opacity="0.1"></line><text fill="currentColor" x="-9" dy="0.32em">6m</text></g><g class="tick" opacity="1" transform="translate(0,177.4053110914441)"><line stroke="currentColor" x2="0"></line><line stroke="currentColor" x2="580" stroke-opacity="0.1"></line><text fill="currentColor" x="-9" dy="0.32em">8m</text></g><g class="tick" opacity="1" transform="translate(0,141.73458097657033)"><line stroke="currentColor" x2="0"></line><line stroke="currentColor" x2="580" stroke-opacity="0.1"></line><text fill="currentColor" x="-9" dy="0.32em">10m</text></g><g class="tick" opacity="1" transform="translate(0,106.06385086169655)"><line stroke="currentColor" x2="0"></line><line stroke="currentColor" x2="580" stroke-opacity="0.1"></line><text fill="currentColor" x="-9" dy="0.32em">12m</text></g><g class="tick" opacity="1" transform="translate(0,70.39312074682279)"><line stroke="currentColor" x2="0"></line><line stroke="currentColor" x2="580" stroke-opacity="0.1"></line><text fill="currentColor" x="-9" dy="0.32em">14m</text></g><text fill="currentColor" transform="translate(-40,40)" dy="-1em" text-anchor="start">↑ Number of downloads CoronaCheck (million)</text></g><g transform="translate(0,320)" fill="none" text-anchor="middle"><g class="tick" opacity="1" transform="translate(46.71687037162566,0)"><line stroke="currentColor" y2="6"></line><text fill="currentColor" dy="0.32em" transform="translate(0, 11.82842712474619) rotate(-45)" text-anchor="end">Apr 2021</text></g><g class="tick" opacity="1" transform="translate(97.0933981588181,0)"><line stroke="currentColor" y2="6"></line><text fill="currentColor" dy="0.32em" transform="translate(0, 11.82842712474619) rotate(-45)" text-anchor="end">May 2021</text></g><g class="tick" opacity="1" transform="translate(149.14914353891697,0)"><line stroke="currentColor" y2="6"></line><text fill="currentColor" dy="0.32em" transform="translate(0, 11.82842712474619) rotate(-45)" text-anchor="end">Jun 2021</text></g><g class="tick" opacity="1" transform="translate(199.52567132610943,0)"><line stroke="currentColor" y2="6"></line><text fill="currentColor" dy="0.32em" transform="translate(0, 11.82842712474619) rotate(-45)" text-anchor="end">Jul 2021</text></g><g class="tick" opacity="1" transform="translate(251.5814167062083,0)"><line stroke="currentColor" y2="6"></line><text fill="currentColor" dy="0.32em" transform="translate(0, 11.82842712474619) rotate(-45)" text-anchor="end">Aug 2021</text></g><g class="tick" opacity="1" transform="translate(303.63716208630717,0)"><line stroke="currentColor" y2="6"></line><text fill="currentColor" dy="0.32em" transform="translate(0, 11.82842712474619) rotate(-45)" text-anchor="end">Sep 2021</text></g><g class="tick" opacity="1" transform="translate(354.01368987349963,0)"><line stroke="currentColor" y2="6"></line><text fill="currentColor" dy="0.32em" transform="translate(0, 11.82842712474619) rotate(-45)" text-anchor="end">Oct 2021</text></g><g class="tick" opacity="1" transform="translate(406.0694352535985,0)"><line stroke="currentColor" y2="6"></line><text fill="currentColor" dy="0.32em" transform="translate(0, 11.82842712474619) rotate(-45)" text-anchor="end">Nov 2021</text></g><g class="tick" opacity="1" transform="translate(456.4459630407909,0)"><line stroke="currentColor" y2="6"></line><text fill="currentColor" dy="0.32em" transform="translate(0, 11.82842712474619) rotate(-45)" text-anchor="end">Dec 2021</text></g><g class="tick" opacity="1" transform="translate(508.50170842088977,0)"><line stroke="currentColor" y2="6"></line><text fill="currentColor" dy="0.32em" transform="translate(0, 11.82842712474619) rotate(-45)" text-anchor="end">Jan 2022</text></g><g class="tick" opacity="1" transform="translate(560.5574538009886,0)"><line stroke="currentColor" y2="6"></line><text fill="currentColor" dy="0.32em" transform="translate(0, 11.82842712474619) rotate(-45)" text-anchor="end">Feb 2022</text></g><g class="tick" opacity="1" transform="translate(607.5755464023682,0)"><line stroke="currentColor" y2="6"></line><text fill="currentColor" dy="0.32em" transform="translate(0, 11.82842712474619) rotate(-45)" text-anchor="end">Mar 2022</text></g><text fill="currentColor" transform="translate(640,-10)" dy="-0.32em" text-anchor="end">Month →</text></g><g fill="none" stroke="#ec025f" stroke-width="3" stroke-miterlimit="1"><path d="M40,320C45.795335570114545,319.9967242379511,51.59067114022909,319.9934484759022,51.75452315034491,319.9901727138533C59.59087191724151,319.8335068671888,60.19796320468254,319.6768410205243,63.50904630068981,319.5201751738598C69.25632361909018,319.24823936282905,71.23172398766911,318.9763035517983,75.26356945103471,318.70436774076757C79.07990012115319,318.4469677522586,79.18174383448302,318.18956776374966,87.01809260137962,317.9321677752407C89.70495968943717,317.8439124438149,94.84057112421374,317.755657112389,98.77261575172453,317.66740178096313C102.67711355261035,317.5797647421926,105.83857336983101,317.492127703422,110.52713890206942,317.40449066465146C114.01819753322474,317.33923700902795,120.84949321172174,317.2739833534045,122.28166205241433,317.208729697781C130.11801081931094,316.85168352469617,127.38381284715238,316.49463735161135,134.03618520275924,316.1375911785265C137.2972953901048,315.9625608509745,143.84071178428937,315.78753052342256,145.79070835310415,315.61250019587055C153.62705712000076,314.90911501385705,153.98712311134682,314.2057298318435,157.54523150344906,313.50234464983C162.03730838781428,312.6143277687419,166.56904544628338,311.7263108876538,169.29975465379394,310.8382940065657C177.13610342069055,308.289941376429,179.4539475665371,305.74158874629234,181.05427780413885,303.1932361161556C188.89062657103548,290.71469917323316,188.00836920753335,278.2361622303107,192.8088009544838,265.75762528738824C196.26867075062123,256.76382736572634,199.15216859084515,247.77002944406445,204.56332410482867,238.77623152240255C207.91030744472465,233.21326225855427,212.170844729105,227.650292994706,216.31784725517358,222.08732373085772C220.05062374022668,217.08001526537387,223.5914238498938,212.07270679989006,228.07237040551848,207.0653983344062C231.63483610402793,203.0844616218827,235.75416415134765,199.10352490935918,239.8268935558634,195.12258819683566C243.61160015776326,191.42318272174379,247.58113520003576,187.7237772466519,251.5814167062083,184.02437177156003C255.42383643349845,180.47095470458495,259.1517532563993,176.9175376376099,263.33593985655324,173.36412057063484C267.04507630188704,170.214139461259,270.29272890528296,167.06415835188318,275.0904630068981,163.91417724250735C278.55103460467797,161.64211819759709,282.3994138508666,159.37005915268685,286.844986157243,157.09800010777658C290.4217588016383,155.26997031133627,294.6253705779697,153.44194051489592,298.5995093075879,151.6139107184556C302.46474450747513,149.83597451733996,306.4621666863856,148.05803831622433,310.3540324579328,146.2801021151087C314.29924158694774,144.4777968602029,318.9408064431686,142.67549160529708,322.1085556082777,140.87318635039128C329.9449043751743,136.4146601774814,330.0320285641947,131.95613400457154,333.86307875862263,127.49760783166167C337.87688807036926,122.82638898532018,340.6688463006864,118.1551701389787,345.6176019089676,113.48395129263722C349.04223957316265,110.25137460768038,351.75709217001355,107.01879792272352,357.3721250593124,103.78622123776668C360.6957731263064,101.87279571343137,364.81448485706375,99.95937018909606,369.12664820965733,98.04594466476075C372.7644297727433,96.43176089535912,376.9276763268918,94.81757712595748,380.8811713600022,93.20339335655585C384.76525446288866,91.61754998223047,388.25036061889165,90.03170660790508,392.63569451034715,88.4458632335797C396.2385478044661,87.14298387101225,400.9464073670391,85.84010450844481,404.39021766069203,84.53722514587736C409.2549644692729,82.69677004511371,411.546164180899,80.85631494435006,416.14474081103697,79.01585984358641C419.6643437156467,77.60723460159342,423.1484195725688,76.19860935960041,427.89926396138185,74.78998411760742C431.3724183800595,73.76019391967775,435.7562819792191,72.73040372174809,439.6537871117268,71.70061352381842C443.59307630015917,70.65978323491821,447.0038306329784,69.61895294601801,451.40831026207167,68.5781226571178C455.00262808725637,67.7287431218658,459.0357168377172,66.87936358661379,463.1628334124166,66.0299840513618C466.90886983135596,65.25903256138903,470.90584338169145,64.48808107141626,474.9173565627615,63.717129581443494C478.75031629543525,62.98049333384123,482.1347774818493,62.24385708623896,486.6718797131064,61.5072208386367C490.213028208564,60.93228595576685,494.5527137366554,60.35735107289701,498.4264028634513,59.78241619002716C502.39117918222234,59.19396210044378,506.39430818522453,58.60550801086038,510.18092601379624,58.017053921277C514.2510973662298,57.38453458975837,517.846556279443,56.75201525823974,521.9354491641412,56.11949592672111C525.7082775043322,55.53586927594661,530.0885642709104,54.95224262517211,533.689972314486,54.36861597439761C538.0785108267734,53.65743079273231,541.9946897107004,52.94624561106701,545.444495464831,52.23506042940171C550.2846342196921,51.23725498614172,553.0915175924258,50.23944954288172,557.1990186151758,49.24164409962173C560.9585827111613,48.32836045136892,564.6429928397515,47.41507680311612,568.9535417655208,46.501793154863314C572.5921379046855,45.730877335620676,575.876351061196,44.95996151637803,580.7080649158656,44.18904569713539C584.1599651195369,43.63828367904005,588.1998081889006,43.08752166094471,592.4625880662105,42.53675964284937C596.1262200847705,42.06340905422499,599.7031316350582,41.59005846560062,604.2171112165554,41.11670787697624C607.7668385408044,40.744471917984164,611.8692364538524,40.37223595899208,615.9716343669004,40"></path></g>

</svg>
