<svg class="plot" fill="currentColor" text-anchor="middle" width="640" height="460" viewBox="0 0 640 400" style="font-family: 'RO Sans', sans-serif; font-size: 14px;" xmlns="http://www.w3.org/2000/svg">

<g transform="translate(40,0)" fill="none" text-anchor="end"><g class="tick" opacity="1" transform="translate(0,320.0880506390975)"><line stroke="currentColor" x2="0"></line><line stroke="currentColor" x2="580" stroke-opacity="0.1"></line><text fill="currentColor" x="-9" dy="0.32em">0m</text></g><g class="tick" opacity="1" transform="translate(0,284.4904605450932)"><line stroke="currentColor" x2="0"></line><line stroke="currentColor" x2="580" stroke-opacity="0.1"></line><text fill="currentColor" x="-9" dy="0.32em">2m</text></g><g class="tick" opacity="1" transform="translate(0,248.89287045108884)"><line stroke="currentColor" x2="0"></line><line stroke="currentColor" x2="580" stroke-opacity="0.1"></line><text fill="currentColor" x="-9" dy="0.32em">4m</text></g><g class="tick" opacity="1" transform="translate(0,213.2952803570845)"><line stroke="currentColor" x2="0"></line><line stroke="currentColor" x2="580" stroke-opacity="0.1"></line><text fill="currentColor" x="-9" dy="0.32em">6m</text></g><g class="tick" opacity="1" transform="translate(0,177.69769026308018)"><line stroke="currentColor" x2="0"></line><line stroke="currentColor" x2="580" stroke-opacity="0.1"></line><text fill="currentColor" x="-9" dy="0.32em">8m</text></g><g class="tick" opacity="1" transform="translate(0,142.10010016907583)"><line stroke="currentColor" x2="0"></line><line stroke="currentColor" x2="580" stroke-opacity="0.1"></line><text fill="currentColor" x="-9" dy="0.32em">10m</text></g><g class="tick" opacity="1" transform="translate(0,106.50251007507151)"><line stroke="currentColor" x2="0"></line><line stroke="currentColor" x2="580" stroke-opacity="0.1"></line><text fill="currentColor" x="-9" dy="0.32em">12m</text></g><g class="tick" opacity="1" transform="translate(0,70.90491998106718)"><line stroke="currentColor" x2="0"></line><line stroke="currentColor" x2="580" stroke-opacity="0.1"></line><text fill="currentColor" x="-9" dy="0.32em">14m</text></g><text fill="currentColor" transform="translate(-40,40)" dy="-1em" text-anchor="start">↑ Aantal downloads CoronaCheck (miljoen)</text></g><g transform="translate(0,320)" fill="none" text-anchor="middle"><g class="tick" opacity="1" transform="translate(46.5462010530689,0)"><line stroke="currentColor" y2="6"></line><text fill="currentColor" dy="0.32em" transform="translate(0, 11.82842712474619) rotate(-45)" text-anchor="end">apr. 2021</text></g><g class="tick" opacity="1" transform="translate(95.64270895108565,0)"><line stroke="currentColor" y2="6"></line><text fill="currentColor" dy="0.32em" transform="translate(0, 11.82842712474619) rotate(-45)" text-anchor="end">mei 2021</text></g><g class="tick" opacity="1" transform="translate(146.37576711236963,0)"><line stroke="currentColor" y2="6"></line><text fill="currentColor" dy="0.32em" transform="translate(0, 11.82842712474619) rotate(-45)" text-anchor="end">jun. 2021</text></g><g class="tick" opacity="1" transform="translate(195.47227501038634,0)"><line stroke="currentColor" y2="6"></line><text fill="currentColor" dy="0.32em" transform="translate(0, 11.82842712474619) rotate(-45)" text-anchor="end">jul. 2021</text></g><g class="tick" opacity="1" transform="translate(246.20533317167036,0)"><line stroke="currentColor" y2="6"></line><text fill="currentColor" dy="0.32em" transform="translate(0, 11.82842712474619) rotate(-45)" text-anchor="end">aug. 2021</text></g><g class="tick" opacity="1" transform="translate(296.9383913329543,0)"><line stroke="currentColor" y2="6"></line><text fill="currentColor" dy="0.32em" transform="translate(0, 11.82842712474619) rotate(-45)" text-anchor="end">sep. 2021</text></g><g class="tick" opacity="1" transform="translate(346.03489923097106,0)"><line stroke="currentColor" y2="6"></line><text fill="currentColor" dy="0.32em" transform="translate(0, 11.82842712474619) rotate(-45)" text-anchor="end">okt. 2021</text></g><g class="tick" opacity="1" transform="translate(396.767957392255,0)"><line stroke="currentColor" y2="6"></line><text fill="currentColor" dy="0.32em" transform="translate(0, 11.82842712474619) rotate(-45)" text-anchor="end">nov. 2021</text></g><g class="tick" opacity="1" transform="translate(445.86446529027177,0)"><line stroke="currentColor" y2="6"></line><text fill="currentColor" dy="0.32em" transform="translate(0, 11.82842712474619) rotate(-45)" text-anchor="end">dec. 2021</text></g><g class="tick" opacity="1" transform="translate(496.5975234515558,0)"><line stroke="currentColor" y2="6"></line><text fill="currentColor" dy="0.32em" transform="translate(0, 11.82842712474619) rotate(-45)" text-anchor="end">jan. 2022</text></g><g class="tick" opacity="1" transform="translate(547.3305816128396,0)"><line stroke="currentColor" y2="6"></line><text fill="currentColor" dy="0.32em" transform="translate(0, 11.82842712474619) rotate(-45)" text-anchor="end">feb. 2022</text></g><g class="tick" opacity="1" transform="translate(593.153988984322,0)"><line stroke="currentColor" y2="6"></line><text fill="currentColor" dy="0.32em" transform="translate(0, 11.82842712474619) rotate(-45)" text-anchor="end">mrt. 2022</text></g><text fill="currentColor" transform="translate(640,-10)" dy="-0.32em" text-anchor="end">Maand →</text></g><g fill="none" stroke="#ec025f" stroke-width="3" stroke-miterlimit="1"><path d="M40,320C45.64808157862239,319.99673095464306,51.29616315724478,319.99346190928605,51.45585184287057,319.9901928639291C59.093086404784295,319.8338482482362,59.68475207722946,319.6775036325434,62.91170368574116,319.5211590168505C68.5129481273367,319.2497807887689,70.4381554422875,318.97840256068724,74.36755552861172,318.7070243326056C78.0869168485984,318.4501521224873,78.18617280956857,318.1932799123689,85.8234073714823,317.93640770225056C88.44200370998003,317.8483333314263,93.44712411910666,317.7602589606021,97.27925921435288,317.6721845897778C101.08454742176498,317.58472724384853,104.1656775373829,317.49726989791924,108.73511105722345,317.40981255198994C112.1374651928833,317.34469269384465,118.79518411408134,317.27957283569935,120.19096290009404,317.21445297755406C127.82819746200775,316.85813889950816,125.16347287237683,316.5018248214622,131.6468147429646,316.1455107434163C134.82506320712378,315.9708393017567,141.20221758414198,315.79616786009706,143.10266658583518,315.62149641843746C150.7399011477489,314.9195534723055,151.09081820306102,314.2176105261735,154.55851842870575,313.5156675800415C158.9364558912359,312.62947150758293,163.3530458003845,311.7432754351244,166.01437027157633,310.85707936266584C173.65160483349004,308.3139519287601,175.91055475345374,305.7708244948543,177.4702221144469,303.22769706094857C185.10745667636064,290.77474637458675,184.24761663739952,278.321795688225,188.9260739573175,265.8688450018632C192.2980317367371,256.89348815403315,195.10826262610104,247.91813130620315,200.38192580018807,238.94277445837312C203.64386546137112,233.3912116245795,207.79614652599727,227.83964879078587,211.83777764305862,222.28808595699226C215.4757078107375,217.291044582888,218.92653954102138,212.29400320878375,223.29362948592922,207.29696183467948C226.76557630294963,203.32418771914504,230.78023612357288,199.35141360361058,234.7494813287998,195.37863948807615C238.43802211820872,191.68681935235864,242.30669503226247,187.99499921664116,246.20533317167036,184.30317908092366C249.9501206505795,180.75704801559755,253.58331463552165,177.2109169502714,257.66118501454093,173.6647858849453C261.27607581353425,170.52126356358238,264.44120863821416,167.37774124221946,269.1170368574115,164.23421892085653C272.48967860635804,161.96681855395556,276.2402741784312,159.6994181870546,280.5728887002821,157.43201782015362C284.05877893723505,155.6077362547428,288.1555809170913,153.783454689332,292.02874054315265,151.95917312392118C295.7957637750953,150.18488244086572,299.69161524004045,148.4105917578103,303.4845923860232,146.63630107475484C307.3295574852505,144.83769130473348,311.8531845717633,143.03908153471215,314.9404442288938,141.2404717646908C322.5776787908075,136.79108744831942,322.66258923664884,132.341703131948,326.39629607176437,127.89231881557663C330.3081182880109,123.23067793533808,333.02913550231267,118.56903705509954,337.852147914635,113.90739617486099C341.18976877723736,110.68144763363539,343.8356395392379,107.4554990924098,349.3079997575055,104.22955055118419C352.547197072984,102.32004835508835,356.56125623706544,100.4105461589925,360.76385160037614,98.50104396289666C364.30920057714144,96.8901699500994,368.36666297690425,95.27929593730215,372.21970344324666,93.6684219245049C376.005095670813,92.08583019703732,379.4016485780804,90.50323846956977,383.67555528611723,88.92064674210219C387.18686348817,87.62043883098701,391.77510079529503,86.32023091987182,395.1314071289878,85.02002300875664C399.8725453256951,83.18334161612975,402.1055278212925,81.34666022350287,406.58725897185843,79.50997883087598C410.017432098002,78.10424186392711,413.4129808851131,76.69850489697826,418.043110814729,75.2927679300294C421.4280156670041,74.26508923574222,425.70048944148067,73.23741054145505,429.4989626575996,72.20973184716787C433.33815823633125,71.1710356987466,436.66224852986727,70.13233955032534,440.9548145004701,69.09364340190407C444.45780411177526,68.246005452449,448.3884158944465,67.39836750299392,452.4106663433407,66.55072955353884C456.06151952253646,65.78135883883714,459.9569337581341,65.01198812413541,463.86651818621124,64.2426174094337C467.60208604001315,63.50749157640243,470.9005512711076,62.77236574337115,475.32237002908187,62.03723991033987C478.77354129300306,61.46348388613639,483.00295951938216,60.889727861932904,486.77822187195244,60.31597183772942C490.64225697716466,59.72872432688031,494.543670261203,59.141476816031194,498.234073714823,58.55422930518208C502.2008258656499,57.923006904703506,505.7049275710167,57.291784504224935,509.6899255576936,56.66056210374636C513.3668899007807,56.07813213342332,517.6358777266064,55.495702163100276,521.1457774005642,54.913272192777235C525.4228073030508,54.203545240278025,529.2394797882404,53.493818287778815,532.6016292434348,52.784091335279605C537.3187846537755,51.788331813443385,540.0543477767519,50.79257229160716,544.0574810863053,49.79681276977094C547.7215182170775,48.88540173766246,551.312310971632,47.97399070555399,555.5133329291758,47.06257967344551C559.0594757844127,46.29324455633389,562.2602401931575,45.52390943922227,566.9691847720464,44.75457432211065C570.3333754588011,44.20494159812753,574.270569939525,43.655308874144424,578.4250366149171,43.10567615016131C581.9955792115504,42.633296129613875,585.4816048249286,42.160916109066434,589.8808884577876,41.688536088519C593.3404205705805,41.317063370024705,596.5440524143713,40.9455906515304,601.3367403006582,40.574117933036106C603.805802788042,40.382745288690735,606.6626472025181,40.19137264434537,609.5194916169943,40"></path></g>

</svg>
