<svg class="plot" fill="currentColor" text-anchor="middle" width="640" height="460" viewBox="0 0 640 400" style="font-family: 'RO Sans', sans-serif; font-size: 14px;" xmlns="http://www.w3.org/2000/svg">

<g transform="translate(40,0)" fill="none" text-anchor="end"><g class="tick" opacity="1" transform="translate(0,320.08858038479997)"><line stroke="currentColor" x2="0"></line><line stroke="currentColor" x2="580" stroke-opacity="0.1"></line><text fill="currentColor" x="-9" dy="0.32em">0m</text></g><g class="tick" opacity="1" transform="translate(0,284.27682182409495)"><line stroke="currentColor" x2="0"></line><line stroke="currentColor" x2="580" stroke-opacity="0.1"></line><text fill="currentColor" x="-9" dy="0.32em">2m</text></g><g class="tick" opacity="1" transform="translate(0,248.46506326339)"><line stroke="currentColor" x2="0"></line><line stroke="currentColor" x2="580" stroke-opacity="0.1"></line><text fill="currentColor" x="-9" dy="0.32em">4m</text></g><g class="tick" opacity="1" transform="translate(0,212.65330470268503)"><line stroke="currentColor" x2="0"></line><line stroke="currentColor" x2="580" stroke-opacity="0.1"></line><text fill="currentColor" x="-9" dy="0.32em">6m</text></g><g class="tick" opacity="1" transform="translate(0,176.84154614198007)"><line stroke="currentColor" x2="0"></line><line stroke="currentColor" x2="580" stroke-opacity="0.1"></line><text fill="currentColor" x="-9" dy="0.32em">8m</text></g><g class="tick" opacity="1" transform="translate(0,141.02978758127512)"><line stroke="currentColor" x2="0"></line><line stroke="currentColor" x2="580" stroke-opacity="0.1"></line><text fill="currentColor" x="-9" dy="0.32em">10m</text></g><g class="tick" opacity="1" transform="translate(0,105.21802902057014)"><line stroke="currentColor" x2="0"></line><line stroke="currentColor" x2="580" stroke-opacity="0.1"></line><text fill="currentColor" x="-9" dy="0.32em">12m</text></g><g class="tick" opacity="1" transform="translate(0,69.4062704598652)"><line stroke="currentColor" x2="0"></line><line stroke="currentColor" x2="580" stroke-opacity="0.1"></line><text fill="currentColor" x="-9" dy="0.32em">14m</text></g><text fill="currentColor" transform="translate(-40,40)" dy="-1em" text-anchor="start">↑ Aantal downloads CoronaCheck (miljoen)</text></g><g transform="translate(0,320)" fill="none" text-anchor="middle"><g class="tick" opacity="1" transform="translate(46.855737486072414,0)"><line stroke="currentColor" y2="6"></line><text fill="currentColor" dy="0.32em" transform="translate(0, 11.82842712474619) rotate(-45)" text-anchor="end">apr. 2021</text></g><g class="tick" opacity="1" transform="translate(98.27376863161551,0)"><line stroke="currentColor" y2="6"></line><text fill="currentColor" dy="0.32em" transform="translate(0, 11.82842712474619) rotate(-45)" text-anchor="end">mei 2021</text></g><g class="tick" opacity="1" transform="translate(151.40573414867671,0)"><line stroke="currentColor" y2="6"></line><text fill="currentColor" dy="0.32em" transform="translate(0, 11.82842712474619) rotate(-45)" text-anchor="end">jun. 2021</text></g><g class="tick" opacity="1" transform="translate(202.8237652942198,0)"><line stroke="currentColor" y2="6"></line><text fill="currentColor" dy="0.32em" transform="translate(0, 11.82842712474619) rotate(-45)" text-anchor="end">jul. 2021</text></g><g class="tick" opacity="1" transform="translate(255.955730811281,0)"><line stroke="currentColor" y2="6"></line><text fill="currentColor" dy="0.32em" transform="translate(0, 11.82842712474619) rotate(-45)" text-anchor="end">aug. 2021</text></g><g class="tick" opacity="1" transform="translate(309.08769632834225,0)"><line stroke="currentColor" y2="6"></line><text fill="currentColor" dy="0.32em" transform="translate(0, 11.82842712474619) rotate(-45)" text-anchor="end">sep. 2021</text></g><g class="tick" opacity="1" transform="translate(360.5057274738854,0)"><line stroke="currentColor" y2="6"></line><text fill="currentColor" dy="0.32em" transform="translate(0, 11.82842712474619) rotate(-45)" text-anchor="end">okt. 2021</text></g><g class="tick" opacity="1" transform="translate(413.6376929909465,0)"><line stroke="currentColor" y2="6"></line><text fill="currentColor" dy="0.32em" transform="translate(0, 11.82842712474619) rotate(-45)" text-anchor="end">nov. 2021</text></g><g class="tick" opacity="1" transform="translate(465.05572413648963,0)"><line stroke="currentColor" y2="6"></line><text fill="currentColor" dy="0.32em" transform="translate(0, 11.82842712474619) rotate(-45)" text-anchor="end">dec. 2021</text></g><g class="tick" opacity="1" transform="translate(518.1876896535508,0)"><line stroke="currentColor" y2="6"></line><text fill="currentColor" dy="0.32em" transform="translate(0, 11.82842712474619) rotate(-45)" text-anchor="end">jan. 2022</text></g><g class="tick" opacity="1" transform="translate(571.319655170612,0)"><line stroke="currentColor" y2="6"></line><text fill="currentColor" dy="0.32em" transform="translate(0, 11.82842712474619) rotate(-45)" text-anchor="end">feb. 2022</text></g><g class="tick" opacity="1" transform="translate(619.3098175731188,0)"><line stroke="currentColor" y2="6"></line><text fill="currentColor" dy="0.32em" transform="translate(0, 11.82842712474619) rotate(-45)" text-anchor="end">mrt. 2022</text></g><text fill="currentColor" transform="translate(640,-10)" dy="-0.32em" text-anchor="end">Maand →</text></g><g fill="none" stroke="#ec025f" stroke-width="3" stroke-miterlimit="1"><path d="M40,320C45.91515052609044,319.99671128683883,51.83030105218088,319.99342257367766,51.99754060062672,319.9901338605165C59.99590100104454,319.8328486169179,60.61554352300821,319.6755633733193,63.99508120125345,319.51827812972067C69.86117990118605,319.2452671883331,71.87742044292376,318.9722562469456,75.99262180188018,318.69924530555807C79.8878527333721,318.440827655784,79.99180200208907,318.18241000601,87.99016240250688,317.92399235623594C90.73257879534239,317.83538809693033,95.97436580019848,317.7467838376247,99.9877030031336,317.6581795783191C103.97292386594731,317.5701960561619,107.19974489723901,317.48221253400465,111.98524360376034,317.3942290118474C115.54847769932796,317.32871736818703,122.52100616427579,317.2632057245267,123.98278420438706,317.1976940808663C131.98114460480485,316.8392362835529,129.19041879129858,316.48077848623956,135.98032480501377,316.12232068892615C139.3088564158131,315.9465983582952,145.98755387141605,315.77087602766426,147.9778654056405,315.5951536970333C155.9762258060583,314.8889875986012,156.34373593767546,314.1828215001691,159.9754060062672,313.476655401737C164.56035378441078,312.58512764099464,169.18578168607337,311.6935998802523,171.97294660689394,310.80207211950994C179.97130700731176,308.2436442761746,182.33707113827978,305.68521643283935,183.97048720752068,303.12678858950403C191.9688476079385,290.5989162764997,191.06835012255067,278.07104396349536,195.9680278081474,265.54317165049105C199.4994282589452,256.5138156861727,202.44254062236686,247.48445972185434,207.96556840877412,238.455103757536C211.3817485461066,232.8701406374655,215.73036978714242,227.28517751739506,219.96310900940082,221.70021439732457C223.7730583250543,216.67310894623347,227.38706227324408,211.64600349514237,231.96064961002756,206.61889804405126C235.59676706962463,202.62222222790663,239.80125966051025,198.62554641176197,243.9581902106543,194.62887059561734C247.82114326599972,190.91483908391305,251.87274597468786,187.2008075722088,255.955730811281,183.4867760605045C259.8775901749643,179.91931013933632,263.6825793579751,176.35184421816817,267.95327141190774,172.784378297C271.73909194473396,169.62194336515338,275.05388774441127,166.45950843330678,279.9508120125344,163.29707350146018C283.4829287742868,161.01603160268323,287.41087086621275,158.73498970390625,291.94835261316115,156.4539478051293C295.5990728058458,154.618690676916,299.88959163938347,152.78343354870267,303.9458932137879,150.94817642048938C307.89103974576426,149.16321093854816,311.9711061402837,147.37824545660698,315.9434338144146,145.59327997466576C319.9702076867287,143.78384909300115,324.7077340075066,141.97441821133654,327.94097441504135,140.16498732967193C335.9393348154591,135.68883384678443,336.02826024286264,131.2126803638969,339.93851501566803,126.73652688100941C344.035307336796,122.04683981907728,346.88498756584903,117.35715275714516,351.9360556162948,112.66746569521302C355.4314955327503,109.42210863641911,358.20247601735474,106.17675157762521,363.9335962169215,102.9313945188313C367.3259586391083,101.01040404062367,371.52982217147024,99.08941356241606,375.93113681754824,97.16842308420843C379.6441272503464,95.54785744856655,383.89344633585523,93.92729181292468,387.92867741817497,92.3067261772828C391.89306152181433,90.7146129838174,395.4502200785111,89.122499790352,399.92621801880165,87.5303865968866C403.6035580624108,86.22235614683044,408.4087496913337,84.91432569677426,411.9237586194283,83.60629524671809C416.889081040526,81.75856368927282,419.22764988017906,79.91083213182753,423.9212992200551,78.06310057438226C427.51366772416577,76.64890616607288,431.0697746809895,75.23471175776349,435.91883982068185,73.82051734945411C439.46379954532273,72.78665575431226,443.9382967959393,71.7527941591704,447.9163804213086,70.71893256402856C451.93711196195306,69.67398722961218,455.41838151779734,68.6290418951958,459.9139210219353,67.58409656077941C463.58254913110227,66.73135890318477,467.6990194813406,65.87862124559011,471.911461622562,65.02588358799547C475.73494501298205,64.25188405022294,479.8145535038101,63.47788451245042,483.9090022231888,62.703884974677905C487.82120601275477,61.964336348640785,491.27563882775644,61.22478772260366,495.90654282381547,60.48523909656654C499.5209023604552,59.90803114071152,503.95030818588,59.33082318485651,507.9040834244422,58.7536152290015C511.9508290259822,58.16283461665197,516.0367202296296,57.572054004302444,519.9016240250688,56.98127339195292C524.055943636996,56.34625332052807,527.7257364254763,55.71123324910322,531.8991646256957,55.076213177678376C535.7499938436642,54.49027908998742,540.220840312912,53.90434500229645,543.8967052263223,53.318410914605494C548.3759740409861,52.60441397830142,552.373117485963,51.89041704199735,555.8942458269491,51.17642010569328C560.834451438132,50.17466972072754,563.699365377632,49.17291933576181,567.8917864275758,48.17116895079607C571.7290771713455,47.25427452773991,575.4896601862188,46.33738010468375,579.8893270282026,45.42048568162759C583.603148877933,44.64652195561363,586.9552610974057,43.872558229599676,591.8868676288292,43.098594503585716C595.4101337207967,42.545654982782004,603.8844082294559,41.99271546197829,603.8844082294559,41.43977594117458C603.8844082294559,40.95985062744972,603.8844082294559,40.47992531372486,603.8844082294559,40"></path></g>

</svg>
