<svg class="plot" fill="currentColor" text-anchor="middle" width="640" height="460" viewBox="0 0 640 400" style="font-family: 'RO Sans', sans-serif; font-size: 14px;" xmlns="http://www.w3.org/2000/svg">

<g transform="translate(40,0)" fill="none" text-anchor="end"><g class="tick" opacity="1" transform="translate(0,320.02052764919773)"><line stroke="currentColor" x2="0"></line><line stroke="currentColor" x2="580" stroke-opacity="0.1"></line><text fill="currentColor" x="-9" dy="0.32em">0m</text></g><g class="tick" opacity="1" transform="translate(0,276.71325086073216)"><line stroke="currentColor" x2="0"></line><line stroke="currentColor" x2="580" stroke-opacity="0.1"></line><text fill="currentColor" x="-9" dy="0.32em">0.5m</text></g><g class="tick" opacity="1" transform="translate(0,233.40597407226653)"><line stroke="currentColor" x2="0"></line><line stroke="currentColor" x2="580" stroke-opacity="0.1"></line><text fill="currentColor" x="-9" dy="0.32em">1m</text></g><g class="tick" opacity="1" transform="translate(0,190.09869728380093)"><line stroke="currentColor" x2="0"></line><line stroke="currentColor" x2="580" stroke-opacity="0.1"></line><text fill="currentColor" x="-9" dy="0.32em">1.5m</text></g><g class="tick" opacity="1" transform="translate(0,146.79142049533533)"><line stroke="currentColor" x2="0"></line><line stroke="currentColor" x2="580" stroke-opacity="0.1"></line><text fill="currentColor" x="-9" dy="0.32em">2m</text></g><g class="tick" opacity="1" transform="translate(0,103.48414370686967)"><line stroke="currentColor" x2="0"></line><line stroke="currentColor" x2="580" stroke-opacity="0.1"></line><text fill="currentColor" x="-9" dy="0.32em">2.5m</text></g><g class="tick" opacity="1" transform="translate(0,60.17686691840407)"><line stroke="currentColor" x2="0"></line><line stroke="currentColor" x2="580" stroke-opacity="0.1"></line><text fill="currentColor" x="-9" dy="0.32em">3m</text></g><text fill="currentColor" transform="translate(-40,40)" dy="-1em" text-anchor="start">↑ Number of downloads CoronaCheck Scanner (million)</text></g><g transform="translate(0,320)" fill="none" text-anchor="middle"><g class="tick" opacity="1" transform="translate(47.14956579822994,0)"><line stroke="currentColor" y2="6"></line><text fill="currentColor" dy="0.32em" transform="translate(0, 11.82842712474619) rotate(-45)" text-anchor="end">Apr 2021</text></g><g class="tick" opacity="1" transform="translate(100.77130928495453,0)"><line stroke="currentColor" y2="6"></line><text fill="currentColor" dy="0.32em" transform="translate(0, 11.82842712474619) rotate(-45)" text-anchor="end">May 2021</text></g><g class="tick" opacity="1" transform="translate(156.1804442212366,0)"><line stroke="currentColor" y2="6"></line><text fill="currentColor" dy="0.32em" transform="translate(0, 11.82842712474619) rotate(-45)" text-anchor="end">Jun 2021</text></g><g class="tick" opacity="1" transform="translate(209.80218770796117,0)"><line stroke="currentColor" y2="6"></line><text fill="currentColor" dy="0.32em" transform="translate(0, 11.82842712474619) rotate(-45)" text-anchor="end">Jul 2021</text></g><g class="tick" opacity="1" transform="translate(265.2113226442432,0)"><line stroke="currentColor" y2="6"></line><text fill="currentColor" dy="0.32em" transform="translate(0, 11.82842712474619) rotate(-45)" text-anchor="end">Aug 2021</text></g><g class="tick" opacity="1" transform="translate(320.62045758052534,0)"><line stroke="currentColor" y2="6"></line><text fill="currentColor" dy="0.32em" transform="translate(0, 11.82842712474619) rotate(-45)" text-anchor="end">Sep 2021</text></g><g class="tick" opacity="1" transform="translate(374.2422010672499,0)"><line stroke="currentColor" y2="6"></line><text fill="currentColor" dy="0.32em" transform="translate(0, 11.82842712474619) rotate(-45)" text-anchor="end">Oct 2021</text></g><g class="tick" opacity="1" transform="translate(429.651336003532,0)"><line stroke="currentColor" y2="6"></line><text fill="currentColor" dy="0.32em" transform="translate(0, 11.82842712474619) rotate(-45)" text-anchor="end">Nov 2021</text></g><g class="tick" opacity="1" transform="translate(483.2730794902565,0)"><line stroke="currentColor" y2="6"></line><text fill="currentColor" dy="0.32em" transform="translate(0, 11.82842712474619) rotate(-45)" text-anchor="end">Dec 2021</text></g><g class="tick" opacity="1" transform="translate(538.6822144265385,0)"><line stroke="currentColor" y2="6"></line><text fill="currentColor" dy="0.32em" transform="translate(0, 11.82842712474619) rotate(-45)" text-anchor="end">Jan 2022</text></g><g class="tick" opacity="1" transform="translate(594.0913493628207,0)"><line stroke="currentColor" y2="6"></line><text fill="currentColor" dy="0.32em" transform="translate(0, 11.82842712474619) rotate(-45)" text-anchor="end">Feb 2022</text></g><text fill="currentColor" transform="translate(640,-10)" dy="-0.32em" text-anchor="end">Month →</text></g><g fill="none" stroke="#ec025f" stroke-width="3" stroke-miterlimit="1"><path d="M40,320C46.01130705124076,319.99728607732123,52.02261410248153,319.9945721546425,52.511740146902405,319.99185823196376C60.85290024483733,319.94557718883584,61.064263649403635,319.89929614570786,65.0234802938048,319.85301510257995C69.45938365833642,319.80116185650525,73.28099691653873,319.7493086104305,77.5352204407072,319.6974553643558C81.62837091384957,319.6475653814955,83.61198266638002,319.59767539863515,90.0469605876096,319.54778541577485C93.54746941049915,319.5206461889874,98.47146135829414,319.4935069622,102.558700734512,319.4663677354126C106.8198651905742,319.43807364791076,110.23728369079663,319.40977956040894,115.07044088141441,319.3814854729071C118.83833077287244,319.35942763326284,126.40987670255849,319.3373697936186,127.5821810283168,319.31531195397434C135.92334112625173,319.15836638289295,134.4386158689696,319.00142081181156,140.0939211752192,318.84447524073016C143.67062088877466,318.745214962331,149.70548854535164,318.64595468393185,152.6056613221216,318.54669440553266C160.94682142005652,318.2612128369431,159.96564631903624,317.9757312683535,165.117401469024,317.69024969976397C168.78948584373228,317.48676324189387,174.6703366247215,317.2832767840238,177.62914161592641,317.0797903261537C185.97030171386135,316.50614213781375,189.34611413088734,315.9324939494737,190.14088176282883,315.35884576113375C198.48204186076376,309.33835475655485,197.10400245999082,303.3178637519759,202.65262190973124,297.297372747397C206.24542664284374,293.39902492000647,209.94038258684677,289.50067709261594,215.1643620566336,285.6023292652254C218.8192983385634,282.8748658446057,222.2132972611924,280.147402423986,227.676102203536,277.4199390033663C231.28325703208773,275.6189625908412,235.23086906086536,273.81798617831606,240.18784235043842,272.01700976579093C243.91405525095573,270.6631954218656,248.19179458933775,269.3093810779404,252.69958249734083,267.95556673401506C256.6156697682546,266.7794565825118,260.8605057175772,265.60334643100845,265.2113226442432,264.42723627950517C269.2282664927287,263.34137849282905,273.71087451232455,262.2555207061529,277.7230627911456,261.16966291947676C282.08046354724024,259.99037690100903,285.46631574961077,258.81109088254124,290.234802938048,257.6318048640735C294.0272013691402,256.6939136064246,298.2814491235352,255.7560223487757,302.7465430849504,254.81813109112682C306.6876740424894,253.99029805955638,311.1995916445713,253.16246502798592,315.2582832318528,252.33463199641548C319.55421428135605,251.45841030091339,323.72442496284884,250.5821886054113,327.77002337875524,249.7059669099092C332.08262675782544,248.77191556413558,338.2694503327032,247.83786421836194,340.28176352565765,246.90381287258833C348.62292362359256,243.03211345618163,349.2771928874151,239.16041403977496,352.79350367256,235.28871462336826C359.00704857678784,228.44717539391578,360.4324489864409,221.60563616446328,365.3052438194625,214.7640969350108C369.0590838243919,209.49360134985452,371.39220921353945,204.22310576469826,377.81698396636483,198.95261017954198C381.31814305927674,196.08047158293093,386.11594945868234,193.2083329863199,390.3287241132672,190.33619438970885C394.45875086199095,187.52047073899425,398.21235532336044,184.70474708827967,402.8404642601696,181.88902343756507C406.69386821170906,179.54462731589828,411.5594045996532,177.20023119423146,415.352204407072,174.85583507256467C420.1196763685457,171.9089769877346,425.0694303186532,168.96211890290454,427.8639445539744,166.01526081807447C436.2051046519094,157.21937967322995,435.10107919750936,148.4234985283854,440.37568470087683,139.6276173835409C444.01941049333686,133.5513754779763,446.9741990359525,127.4751335724117,452.88742484777924,121.39889166684712C456.4318819336955,117.75672081741929,460.05594209982837,114.11454996799146,465.39916499468166,110.47237911856364C469.02867338607666,107.99834988171004,472.0521419482765,105.52432064485646,477.91090514158407,103.05029140800286C481.4614697445372,101.55096461406832,485.8855142175807,100.05163782013376,490.42264528848636,98.55231102619922C494.3224235034436,97.26360195504591,498.64335758185865,95.97489288389261,502.93438543538883,94.6861838127393C506.9969994037144,93.46607346801895,511.6150720867934,92.2459631232986,515.4461255822912,91.02585277857824C520.1226216925314,89.53648665830502,521.1247667023997,88.04712053803182,527.9578657291937,86.5577544177586C531.4378637447779,85.79924190056757,536.37356409766,85.04072938337654,540.469605876096,84.28221686618551C544.7204653115809,83.49503493176049,548.9336380310198,82.70785299733548,552.9813460229984,81.92067106291046C557.2912308832637,81.0825020279465,561.497065674321,80.24433299298255,565.4930861699008,79.4061639580186C569.8734161699298,78.48738564519236,574.4919833900725,77.56860733236614,578.0048263168032,76.64982901953991C584.262771147878,75.01307380059663,586.7138693531533,73.37631858165336,590.5165664637055,71.73956336271009C595.2594234356379,69.6981449494554,598.6605311224681,67.6567265362007,603.0283066106081,65.615308122946C607.0331046174758,63.74353874863067,611.2865756874932,61.871769374315335,615.5400467575105,60"></path></g>

</svg>

