<svg class="plot" fill="currentColor" text-anchor="middle" width="640" height="460" viewBox="0 0 640 400" style="font-family: 'RO Sans', sans-serif; font-size: 14px;" xmlns="http://www.w3.org/2000/svg">

<style>
        line[stroke-opacity] {
            stroke-opacity: 1;
            stroke: #949494;
        }
</style>

<!-- replace the below code -->
<g transform="translate(40,0)" fill="none" text-anchor="end"><g class="tick" opacity="1" transform="translate(0,320.08721164141554)"><line stroke="currentColor" x2="0"></line><line stroke="currentColor" x2="580" stroke-opacity="0.1"></line><text fill="currentColor" x="-9" dy="0.32em">0m</text></g><g class="tick" opacity="1" transform="translate(0,284.82881608226086)"><line stroke="currentColor" x2="0"></line><line stroke="currentColor" x2="580" stroke-opacity="0.1"></line><text fill="currentColor" x="-9" dy="0.32em">2m</text></g><g class="tick" opacity="1" transform="translate(0,249.57042052310618)"><line stroke="currentColor" x2="0"></line><line stroke="currentColor" x2="580" stroke-opacity="0.1"></line><text fill="currentColor" x="-9" dy="0.32em">4m</text></g><g class="tick" opacity="1" transform="translate(0,214.31202496395144)"><line stroke="currentColor" x2="0"></line><line stroke="currentColor" x2="580" stroke-opacity="0.1"></line><text fill="currentColor" x="-9" dy="0.32em">6m</text></g><g class="tick" opacity="1" transform="translate(0,179.0536294047967)"><line stroke="currentColor" x2="0"></line><line stroke="currentColor" x2="580" stroke-opacity="0.1"></line><text fill="currentColor" x="-9" dy="0.32em">8m</text></g><g class="tick" opacity="1" transform="translate(0,143.79523384564203)"><line stroke="currentColor" x2="0"></line><line stroke="currentColor" x2="580" stroke-opacity="0.1"></line><text fill="currentColor" x="-9" dy="0.32em">10m</text></g><g class="tick" opacity="1" transform="translate(0,108.53683828648731)"><line stroke="currentColor" x2="0"></line><line stroke="currentColor" x2="580" stroke-opacity="0.1"></line><text fill="currentColor" x="-9" dy="0.32em">12m</text></g><g class="tick" opacity="1" transform="translate(0,73.27844272733262)"><line stroke="currentColor" x2="0"></line><line stroke="currentColor" x2="580" stroke-opacity="0.1"></line><text fill="currentColor" x="-9" dy="0.32em">14m</text></g><text fill="currentColor" transform="translate(-40,40)" dy="-1em" text-anchor="start">↑ Aantal downloads CoronaCheck (miljoen)</text></g><g transform="translate(0,320)" fill="none" text-anchor="middle"><g class="tick" opacity="1" transform="translate(46.19765845169895,0)"><line stroke="currentColor" y2="6"></line><text fill="currentColor" dy="0.32em" transform="translate(0, 11.82842712474619) rotate(-45)" text-anchor="end">apr. 2021</text></g><g class="tick" opacity="1" transform="translate(92.68009683944106,0)"><line stroke="currentColor" y2="6"></line><text fill="currentColor" dy="0.32em" transform="translate(0, 11.82842712474619) rotate(-45)" text-anchor="end">mei 2021</text></g><g class="tick" opacity="1" transform="translate(140.7119498401079,0)"><line stroke="currentColor" y2="6"></line><text fill="currentColor" dy="0.32em" transform="translate(0, 11.82842712474619) rotate(-45)" text-anchor="end">jun. 2021</text></g><g class="tick" opacity="1" transform="translate(187.19438822785,0)"><line stroke="currentColor" y2="6"></line><text fill="currentColor" dy="0.32em" transform="translate(0, 11.82842712474619) rotate(-45)" text-anchor="end">jul. 2021</text></g><g class="tick" opacity="1" transform="translate(235.22624122851687,0)"><line stroke="currentColor" y2="6"></line><text fill="currentColor" dy="0.32em" transform="translate(0, 11.82842712474619) rotate(-45)" text-anchor="end">aug. 2021</text></g><g class="tick" opacity="1" transform="translate(283.2580942291837,0)"><line stroke="currentColor" y2="6"></line><text fill="currentColor" dy="0.32em" transform="translate(0, 11.82842712474619) rotate(-45)" text-anchor="end">sep. 2021</text></g><g class="tick" opacity="1" transform="translate(329.7405326169258,0)"><line stroke="currentColor" y2="6"></line><text fill="currentColor" dy="0.32em" transform="translate(0, 11.82842712474619) rotate(-45)" text-anchor="end">okt. 2021</text></g><g class="tick" opacity="1" transform="translate(377.77238561759265,0)"><line stroke="currentColor" y2="6"></line><text fill="currentColor" dy="0.32em" transform="translate(0, 11.82842712474619) rotate(-45)" text-anchor="end">nov. 2021</text></g><g class="tick" opacity="1" transform="translate(424.25482400533474,0)"><line stroke="currentColor" y2="6"></line><text fill="currentColor" dy="0.32em" transform="translate(0, 11.82842712474619) rotate(-45)" text-anchor="end">dec. 2021</text></g><g class="tick" opacity="1" transform="translate(472.28667700600164,0)"><line stroke="currentColor" y2="6"></line><text fill="currentColor" dy="0.32em" transform="translate(0, 11.82842712474619) rotate(-45)" text-anchor="end">jan. 2022</text></g><g class="tick" opacity="1" transform="translate(520.3185300066684,0)"><line stroke="currentColor" y2="6"></line><text fill="currentColor" dy="0.32em" transform="translate(0, 11.82842712474619) rotate(-45)" text-anchor="end">feb. 2022</text></g><g class="tick" opacity="1" transform="translate(563.7021391685611,0)"><line stroke="currentColor" y2="6"></line><text fill="currentColor" dy="0.32em" transform="translate(0, 11.82842712474619) rotate(-45)" text-anchor="end">mrt. 2022</text></g><g class="tick" opacity="1" transform="translate(611.7339921692279,0)"><line stroke="currentColor" y2="6"></line><text fill="currentColor" dy="0.32em" transform="translate(0, 11.82842712474619) rotate(-45)" text-anchor="end">apr. 2022</text></g><text fill="currentColor" transform="translate(640,-10)" dy="-0.32em" text-anchor="end">Maand →</text></g><g fill="none" stroke="#ec025f" stroke-width="3" stroke-miterlimit="1"><path d="M40,320C45.34735799402658,319.9967621040078,50.69471598805317,319.99352420801563,50.84590229047316,319.99028631202344C58.07650381745527,319.83543143872765,58.636667143586436,319.68057656543186,61.69180458094632,319.5257216921361C66.99481921066317,319.25692931359083,68.81752176593781,318.98813693504565,72.53770687141947,318.7193445565004C76.05903640787328,318.4649199741455,76.15300763491052,318.2104953917907,83.38360916189264,317.9560708094358C85.86278228800269,317.8688356624232,90.60141261021701,317.78160051541056,94.22951145236578,317.69436536839794C97.83219282872749,317.6077413669084,100.74927281864255,317.52111736541883,105.07541374283895,317.4344933639293C108.29661466435124,317.36999400565304,114.59985338349307,317.3054946473768,115.92131603331211,317.24099528910057C123.15191756029422,316.8880763787512,120.62907221220632,316.53515746840185,126.76721832378527,316.18223855805246C129.77624574225428,316.00923148744295,135.8138581531942,315.83622441683343,137.61312061425843,315.6632173462239C144.84372214124053,314.96796292059224,145.17595514723433,314.27270849496057,148.45902290473157,313.5774540693289C152.60386369035646,312.69970218828297,156.78529893137915,311.8219503072371,159.30492519520476,310.9441984261912C166.53552672218686,308.4253033890496,168.6742022608589,305.90640835190806,170.1508274856779,303.38751331476647C177.38142901266,291.05322158268814,176.56736985966802,278.7189298506098,180.99672977615106,266.3846381185315C184.1891527495632,257.4948036890188,186.8497571339224,248.60496925950613,191.84263206662422,239.71513482999347C194.9308946705639,234.2164705145581,198.86209379283125,228.71780619912272,202.68853435709738,223.21914188368734C206.13276842012476,218.2697152250747,209.39986581985374,213.32028856646204,213.53443664757054,208.3708619078494C216.8215248930909,204.4359426938581,220.62243020691676,200.5010234798668,224.3803389380437,196.5661042658755C227.87248893658364,192.90946193883482,231.53518019648675,189.25281961179417,235.22624122851687,185.59617728475348C238.77164314641198,182.0838358179379,242.21139319760883,178.57149435112234,246.07214351899,175.05915288430677C249.49456490976698,171.94558387126523,252.49117501119835,168.8320148582237,256.91804580946314,165.71844584518215C260.1111163354764,163.47265058724327,263.6620171033755,161.22685532930439,267.76394809993633,158.9810600713655C271.064237369026,157.174161321347,274.9429113067123,155.36726257132844,278.6098503904095,153.56036382130992C282.1763041522063,151.802979611455,285.86472688205225,150.04559540160002,289.45575268088265,148.2882111917451C293.095998412801,146.506739621324,297.3787717981245,144.72526805090288,300.3016549713558,142.94379648048178C307.5322564983379,138.5368084847482,307.6126460155617,134.12982048901463,311.147557261829,129.72283249328106C314.8511004044122,125.10561043762678,317.4272411612759,120.4883883819725,321.9934595523021,115.87116632631822C325.1533738262422,112.67595649835947,327.6583691903135,109.4807466704007,332.83936184277525,106.28553684244196C335.90609298290485,104.39422949345482,339.70642962124043,102.50292214446769,343.68526413324844,100.61161479548055C347.0418463512313,99.01609012683916,350.88327528543,97.42056545819776,354.53116642372163,95.82504078955637C358.11501115167624,94.25752891618673,361.3307197224511,92.6900170428171,365.37706871419476,91.12250516944746C368.7014226071706,89.83468639525007,373.0453661393621,88.54686762105267,376.2229710046679,87.25904884685528C380.71167444919774,85.43986842238365,382.8257651598471,83.62068799791203,387.0688732951411,81.8015075734404C390.31641202694766,80.4091652856079,393.53116994042927,79.0168229977754,397.9147755856142,77.6244807099429C401.1194562845159,76.60659433574715,405.1644486370855,75.58870796155139,408.7606778760874,74.57082158735564C412.3954612769267,73.54202273973432,415.54256539654216,72.51322389211302,419.60658016656055,71.4844250444917C422.9230583796061,70.64486388223563,426.6443906664902,69.80530271997955,430.45248245703374,68.96574155772348C433.9089514653217,68.20370185450346,437.5969602454373,67.44166215128347,441.2983847475069,66.67962244806345C444.8350579253276,65.95150132137135,447.9579013503005,65.22338019467925,452.14428703798,64.49525906798715C455.41170589339,63.92697012476395,459.41593512557944,63.35868118154075,462.9901893284532,62.79039223831755C466.6484897126513,62.20874036317743,470.34217813092175,61.62708848803731,473.83609161892633,61.045436612897184C477.5916400345745,60.42022886644299,480.9091711299109,59.7950211199888,484.6819939093995,59.16981337353461C488.16318383204117,58.59293313459351,492.20487584003786,58.01605289565241,495.52789619987266,57.43917265671131C499.5772020962885,56.73620839525066,503.19066161172947,56.03324413379,506.3737984903458,55.33027987232935C510.83979607579573,54.34400852615163,513.4297082663667,53.35773717997391,517.219700780819,52.371465833796194C520.6886517810673,51.4687392558959,524.0882581914342,50.5660126779956,528.0656030712922,49.663286100095306C531.4229368988848,48.90128165527085,534.453281434431,48.1392772104464,538.9115053617653,47.377272765621946C542.0965747896462,46.832877261789335,545.8241392887538,46.288481757956724,549.7574076522384,45.74408625412411C553.1378420937992,45.276207345054125,556.4382595314004,44.808328435984144,560.6033099427116,44.340449526914156C563.8786444862058,43.97251641645587,566.9117037845442,43.60458330599758,571.4492122331849,43.23665019553929C573.7868132125396,43.04710106101327,576.7582855795831,42.85755192648726,579.1962852978085,42.66800279196124C583.2011170522072,42.35663590077835,586.5888927830691,42.045269009595465,590.0421875882816,41.73390211841257C593.8549806410606,41.39012100891229,597.1683685526406,41.04633989941201,600.8880898787547,40.70255878991173C603.4219918699397,40.468372526607816,606.0285774066591,40.23418626330391,608.6351629433784,40"></path></g>

</svg>
