<svg class="plot" fill="currentColor" text-anchor="middle" width="640" height="460" viewBox="0 0 640 400" style="font-family: 'RO Sans', sans-serif; font-size: 14px;" xmlns="http://www.w3.org/2000/svg">

<g transform="translate(40,0)" fill="none" text-anchor="end"><g class="tick" opacity="1" transform="translate(0,320.020304775939)"><line stroke="currentColor" x2="0"></line><line stroke="currentColor" x2="580" stroke-opacity="0.1"></line><text fill="currentColor" x="-9" dy="0.32em">0m</text></g><g class="tick" opacity="1" transform="translate(0,277.1832247358435)"><line stroke="currentColor" x2="0"></line><line stroke="currentColor" x2="580" stroke-opacity="0.1"></line><text fill="currentColor" x="-9" dy="0.32em">0.5m</text></g><g class="tick" opacity="1" transform="translate(0,234.346144695748)"><line stroke="currentColor" x2="0"></line><line stroke="currentColor" x2="580" stroke-opacity="0.1"></line><text fill="currentColor" x="-9" dy="0.32em">1m</text></g><g class="tick" opacity="1" transform="translate(0,191.50906465565248)"><line stroke="currentColor" x2="0"></line><line stroke="currentColor" x2="580" stroke-opacity="0.1"></line><text fill="currentColor" x="-9" dy="0.32em">1.5m</text></g><g class="tick" opacity="1" transform="translate(0,148.671984615557)"><line stroke="currentColor" x2="0"></line><line stroke="currentColor" x2="580" stroke-opacity="0.1"></line><text fill="currentColor" x="-9" dy="0.32em">2m</text></g><g class="tick" opacity="1" transform="translate(0,105.83490457546148)"><line stroke="currentColor" x2="0"></line><line stroke="currentColor" x2="580" stroke-opacity="0.1"></line><text fill="currentColor" x="-9" dy="0.32em">2.5m</text></g><g class="tick" opacity="1" transform="translate(0,62.99782453536597)"><line stroke="currentColor" x2="0"></line><line stroke="currentColor" x2="580" stroke-opacity="0.1"></line><text fill="currentColor" x="-9" dy="0.32em">3m</text></g><text fill="currentColor" transform="translate(-40,40)" dy="-1em" text-anchor="start">↑ Aantal downloads CoronaCheck Scanner (miljoen)</text></g><g transform="translate(0,320)" fill="none" text-anchor="middle"><g class="tick" opacity="1" transform="translate(46.996330386772065,0)"><line stroke="currentColor" y2="6"></line><text fill="currentColor" dy="0.32em" transform="translate(0, 11.82842712474619) rotate(-45)" text-anchor="end">apr. 2021</text></g><g class="tick" opacity="1" transform="translate(99.46880828756258,0)"><line stroke="currentColor" y2="6"></line><text fill="currentColor" dy="0.32em" transform="translate(0, 11.82842712474619) rotate(-45)" text-anchor="end">mei 2021</text></g><g class="tick" opacity="1" transform="translate(153.69036878504613,0)"><line stroke="currentColor" y2="6"></line><text fill="currentColor" dy="0.32em" transform="translate(0, 11.82842712474619) rotate(-45)" text-anchor="end">jun. 2021</text></g><g class="tick" opacity="1" transform="translate(206.16284668583663,0)"><line stroke="currentColor" y2="6"></line><text fill="currentColor" dy="0.32em" transform="translate(0, 11.82842712474619) rotate(-45)" text-anchor="end">jul. 2021</text></g><g class="tick" opacity="1" transform="translate(260.38440718332015,0)"><line stroke="currentColor" y2="6"></line><text fill="currentColor" dy="0.32em" transform="translate(0, 11.82842712474619) rotate(-45)" text-anchor="end">aug. 2021</text></g><g class="tick" opacity="1" transform="translate(314.60596768080364,0)"><line stroke="currentColor" y2="6"></line><text fill="currentColor" dy="0.32em" transform="translate(0, 11.82842712474619) rotate(-45)" text-anchor="end">sep. 2021</text></g><g class="tick" opacity="1" transform="translate(367.0784455815941,0)"><line stroke="currentColor" y2="6"></line><text fill="currentColor" dy="0.32em" transform="translate(0, 11.82842712474619) rotate(-45)" text-anchor="end">okt. 2021</text></g><g class="tick" opacity="1" transform="translate(421.3000060790778,0)"><line stroke="currentColor" y2="6"></line><text fill="currentColor" dy="0.32em" transform="translate(0, 11.82842712474619) rotate(-45)" text-anchor="end">nov. 2021</text></g><g class="tick" opacity="1" transform="translate(473.77248397986824,0)"><line stroke="currentColor" y2="6"></line><text fill="currentColor" dy="0.32em" transform="translate(0, 11.82842712474619) rotate(-45)" text-anchor="end">dec. 2021</text></g><g class="tick" opacity="1" transform="translate(527.9940444773517,0)"><line stroke="currentColor" y2="6"></line><text fill="currentColor" dy="0.32em" transform="translate(0, 11.82842712474619) rotate(-45)" text-anchor="end">jan. 2022</text></g><g class="tick" opacity="1" transform="translate(582.2156049748353,0)"><line stroke="currentColor" y2="6"></line><text fill="currentColor" dy="0.32em" transform="translate(0, 11.82842712474619) rotate(-45)" text-anchor="end">feb. 2022</text></g><text fill="currentColor" transform="translate(640,-10)" dy="-0.32em" text-anchor="end">Maand →</text></g><g fill="none" stroke="#ec025f" stroke-width="3" stroke-miterlimit="1"><path d="M40,320C45.88246774331767,319.99731554298415,51.76493548663534,319.9946310859683,52.243578176851116,319.99194662895246C60.405963628085196,319.9461680694163,60.612796917232174,319.9003895098801,64.48715635370223,319.8546109503439C68.82798576599232,319.8033206865092,72.56769104592105,319.7520304226745,76.73073453055335,319.70074015883984C80.73615721509697,319.65139184263364,82.6772545588354,319.6020435264275,88.97431270740448,319.5526952102213C92.39979572803927,319.52585064006286,97.21825260511112,319.4990060699044,101.21789088425561,319.47216149974594C105.38772653698018,319.4441746074531,108.73190009551814,319.4161877151602,113.46146906110671,319.38820082286736C117.14860241795392,319.3663824701003,124.55786870875556,319.34456411733316,125.70504723795784,319.3227457645661C133.86743268919193,319.1675041865008,132.41452929244286,319.0122626084355,137.94862541480896,318.8570210303702C141.44866633988198,318.7588384429183,147.3541897181425,318.6606558554664,150.19220359166007,318.5624732680145C158.35458904289416,318.2800912363902,157.39444329869866,317.99770920476584,162.43578176851122,317.71532717314153C166.02916299173486,317.51405001305983,171.78397051155613,317.31277285297807,174.6793599453623,317.11149569289637C182.8417453965964,316.5440757306853,186.14520460794154,315.97665576847413,186.92293812221342,315.40923580626304C195.0853235734475,309.45411061324904,193.73681945363316,303.49898542023504,199.16651629906457,297.54386022722105C202.6823170675863,293.6878376303318,206.29807965770232,289.8318150334426,211.41009447591568,285.9757924365533C214.9866951384779,283.27794169368144,218.30795106718608,280.5800909508096,223.6536726527668,277.88224020793774C227.18351595360556,276.10081739739036,231.04651949417885,274.3193945868429,235.89725082961792,272.53797177629554C239.54360045128664,271.1988560961888,243.7296557397381,269.85974041608205,248.14082900646903,268.52062473597533C251.97298345388012,267.35728387429975,256.1268405659388,266.19394301262423,260.38440718332015,265.03060215094865C264.3152565666595,263.95653376407665,268.7017896211915,262.88246537720465,272.6279853601713,261.80839699033265C276.89199469690004,260.6419147427875,280.2052785126007,259.47543249524233,284.87156353702244,258.30895024769717C288.5826801461968,257.3812418842955,292.74574734173206,256.45353352089387,297.1151417138735,255.5258251574922C300.971803090891,254.70698009349908,305.3870175406792,253.88813502950597,309.3587198907246,253.06928996551287C313.56257699048837,252.2025816040883,317.6434082652202,251.33587324266372,321.60229806757576,250.46916488123915C325.8224701617405,249.54525473893437,331.87669261329563,248.6213445966296,333.84587624442685,247.69743445432482C342.00826169566096,243.8677709406869,342.6485081191215,240.03810742704903,346.089454421278,236.20844391341112C352.1698254885371,229.44118479894362,353.5646755368912,222.67392568447616,358.33303259812914,215.90666657000867C362.00641719724285,210.69339392912903,364.28953711206117,205.48012128824942,370.5766107749802,200.26684864736978C374.0027301285118,197.42589349911066,378.6977059703065,194.5849383508515,382.82018895183137,191.74398320259237C386.86169754909906,188.9588304905988,390.5348516530174,186.17367777860525,395.06376712868246,183.3885250666117C398.8345817374994,181.06958257572114,403.5958359226621,178.75064008483062,407.3073453055336,176.43169759394007C411.9726368621761,173.5168342035851,416.8163035890081,170.60197081323014,419.55092348238475,167.68710742287516C427.7133089336188,158.98672511841158,426.6329458664937,150.28634281394804,431.79450165923583,141.58596050948447C435.36013210481684,135.5756897154322,438.2515911738844,129.56541892137992,444.0380798360869,123.55514812732764C447.50656918420157,119.95252113790225,451.052955493435,116.34989414847685,456.28165801293807,112.74726715905146C459.83337577656056,110.30009900857425,462.7920428581903,107.85293085809704,468.5252361897892,105.40576270761983C471.9997021535808,103.92271443857835,476.3289268439597,102.43966616953689,480.7688143666403,100.95661790049542C484.5850093072802,99.68190063071562,488.8133335503466,98.4071833609358,493.01239254349144,97.132466091156C496.98793320686406,95.92560275615972,501.5070275340953,94.71873942116342,505.25597072034253,93.51187608616713C509.8322362954905,92.03868034553489,510.8129025040914,90.56548460490264,517.4995488971937,89.09228886427039C520.9049607151206,88.3420116863948,525.7348750530543,87.59173450851921,529.7431270740449,86.84145733064362C533.902878571925,86.06282200578148,538.0257510866485,85.28418668091935,541.986705250896,84.50555135605721C546.2042170918007,83.6764825089612,550.3199089506969,82.8474136618652,554.230283427747,82.0183448147692C558.5167305698768,81.10954188269189,563.0363088348441,80.20073895061458,566.4738616045981,79.29193601853727C572.5976809827247,77.6729514155019,574.9962452226365,76.05396681246654,578.7174397814492,74.43498220943117C583.3586439173787,72.41572793050115,586.6873030152327,70.39647365157111,590.9610179583003,68.3772193726411C594.8802974929056,66.52542951861449,596.5016702227293,64.6736396645879,603.2045961351515,62.8218498105613C606.609347161129,61.881233207040864,611.0287607365658,60.94061660352043,615.4481743120026,60"></path></g>

</svg>
