<svg class="plot" fill="currentColor" text-anchor="middle" width="640" height="460" viewBox="0 0 640 400" style="font-family: 'RO Sans', sans-serif; font-size: 14px;" xmlns="http://www.w3.org/2000/svg">

<g transform="translate(40,0)" fill="none" text-anchor="end"><g class="tick" opacity="1" transform="translate(0,320.0882315509391)"><line stroke="currentColor" x2="0"></line><line stroke="currentColor" x2="580" stroke-opacity="0.1"></line><text fill="currentColor" x="-9" dy="0.32em">0m</text></g><g class="tick" opacity="1" transform="translate(0,284.4175014360654)"><line stroke="currentColor" x2="0"></line><line stroke="currentColor" x2="580" stroke-opacity="0.1"></line><text fill="currentColor" x="-9" dy="0.32em">2m</text></g><g class="tick" opacity="1" transform="translate(0,248.7467713211916)"><line stroke="currentColor" x2="0"></line><line stroke="currentColor" x2="580" stroke-opacity="0.1"></line><text fill="currentColor" x="-9" dy="0.32em">4m</text></g><g class="tick" opacity="1" transform="translate(0,213.07604120631785)"><line stroke="currentColor" x2="0"></line><line stroke="currentColor" x2="580" stroke-opacity="0.1"></line><text fill="currentColor" x="-9" dy="0.32em">6m</text></g><g class="tick" opacity="1" transform="translate(0,177.4053110914441)"><line stroke="currentColor" x2="0"></line><line stroke="currentColor" x2="580" stroke-opacity="0.1"></line><text fill="currentColor" x="-9" dy="0.32em">8m</text></g><g class="tick" opacity="1" transform="translate(0,141.73458097657033)"><line stroke="currentColor" x2="0"></line><line stroke="currentColor" x2="580" stroke-opacity="0.1"></line><text fill="currentColor" x="-9" dy="0.32em">10m</text></g><g class="tick" opacity="1" transform="translate(0,106.06385086169655)"><line stroke="currentColor" x2="0"></line><line stroke="currentColor" x2="580" stroke-opacity="0.1"></line><text fill="currentColor" x="-9" dy="0.32em">12m</text></g><g class="tick" opacity="1" transform="translate(0,70.39312074682279)"><line stroke="currentColor" x2="0"></line><line stroke="currentColor" x2="580" stroke-opacity="0.1"></line><text fill="currentColor" x="-9" dy="0.32em">14m</text></g><text fill="currentColor" transform="translate(-40,40)" dy="-1em" text-anchor="start">↑ Aantal downloads CoronaCheck (miljoen)</text></g><g transform="translate(0,320)" fill="none" text-anchor="middle"><g class="tick" opacity="1" transform="translate(46.716870377027526,0)"><line stroke="currentColor" y2="6"></line><text fill="currentColor" dy="0.32em" transform="translate(0, 11.82842712474619) rotate(-45)" text-anchor="end">apr. 2021</text></g><g class="tick" opacity="1" transform="translate(97.09339820473394,0)"><line stroke="currentColor" y2="6"></line><text fill="currentColor" dy="0.32em" transform="translate(0, 11.82842712474619) rotate(-45)" text-anchor="end">mei 2021</text></g><g class="tick" opacity="1" transform="translate(149.14914362669722,0)"><line stroke="currentColor" y2="6"></line><text fill="currentColor" dy="0.32em" transform="translate(0, 11.82842712474619) rotate(-45)" text-anchor="end">jun. 2021</text></g><g class="tick" opacity="1" transform="translate(199.52567145440364,0)"><line stroke="currentColor" y2="6"></line><text fill="currentColor" dy="0.32em" transform="translate(0, 11.82842712474619) rotate(-45)" text-anchor="end">jul. 2021</text></g><g class="tick" opacity="1" transform="translate(251.58141687636692,0)"><line stroke="currentColor" y2="6"></line><text fill="currentColor" dy="0.32em" transform="translate(0, 11.82842712474619) rotate(-45)" text-anchor="end">aug. 2021</text></g><g class="tick" opacity="1" transform="translate(303.6371622983302,0)"><line stroke="currentColor" y2="6"></line><text fill="currentColor" dy="0.32em" transform="translate(0, 11.82842712474619) rotate(-45)" text-anchor="end">sep. 2021</text></g><g class="tick" opacity="1" transform="translate(354.01369012603664,0)"><line stroke="currentColor" y2="6"></line><text fill="currentColor" dy="0.32em" transform="translate(0, 11.82842712474619) rotate(-45)" text-anchor="end">okt. 2021</text></g><g class="tick" opacity="1" transform="translate(406.0694355479999,0)"><line stroke="currentColor" y2="6"></line><text fill="currentColor" dy="0.32em" transform="translate(0, 11.82842712474619) rotate(-45)" text-anchor="end">nov. 2021</text></g><g class="tick" opacity="1" transform="translate(456.44596337570636,0)"><line stroke="currentColor" y2="6"></line><text fill="currentColor" dy="0.32em" transform="translate(0, 11.82842712474619) rotate(-45)" text-anchor="end">dec. 2021</text></g><g class="tick" opacity="1" transform="translate(508.50170879766966,0)"><line stroke="currentColor" y2="6"></line><text fill="currentColor" dy="0.32em" transform="translate(0, 11.82842712474619) rotate(-45)" text-anchor="end">jan. 2022</text></g><g class="tick" opacity="1" transform="translate(560.557454219633,0)"><line stroke="currentColor" y2="6"></line><text fill="currentColor" dy="0.32em" transform="translate(0, 11.82842712474619) rotate(-45)" text-anchor="end">feb. 2022</text></g><g class="tick" opacity="1" transform="translate(607.5755468588256,0)"><line stroke="currentColor" y2="6"></line><text fill="currentColor" dy="0.32em" transform="translate(0, 11.82842712474619) rotate(-45)" text-anchor="end">mrt. 2022</text></g><text fill="currentColor" transform="translate(640,-10)" dy="-0.32em" text-anchor="end">Maand →</text></g><g fill="none" stroke="#ec025f" stroke-width="3" stroke-miterlimit="1"><path d="M40,320C45.79533557477529,319.9967242379511,51.59067114955057,319.9934484759022,51.75452315979816,319.9901727138533C59.59087193299693,319.8335068671888,60.1979632209262,319.6768410205243,63.50904631959632,319.5201751738598C69.25632364261878,319.24823936282905,71.23172401278639,318.9763035517983,75.26356947939449,318.70436774076757C79.07990015258214,318.4469677522586,79.18174386599388,318.18956776374966,87.01809263919264,317.9321677752407C89.70495972941104,317.8439124438149,94.84057116831778,317.755657112389,98.77261579899081,317.66740178096313C102.67711360301674,317.5797647421926,105.83857342277992,317.492127703422,110.52713895878898,317.40449066465146C114.01819759275187,317.33923700902795,120.84949327674275,317.2739833534045,122.28166211858712,317.208729697781C130.1180108917859,316.85168352469617,127.38381291742843,316.49463735161135,134.0361852783853,316.1375911785265C137.2972954683535,315.9625608509745,143.84071186780042,315.78753052342256,145.79070843818346,315.61250019587055C153.62705721138224,314.90911501385705,153.98712320301786,314.2057298318435,157.54523159798163,313.50234464983C162.0373084859595,312.6143277687419,166.56904554807315,311.7263108876538,169.2997547577798,310.8382940065657C177.13610353097857,308.289941376429,179.4539476786892,305.74158874629234,181.05427791757796,303.1932361161556C188.89062669077674,290.71469917323316,188.0083693265651,278.2361622303107,192.80880107737613,265.75762528738824C196.26867087629606,256.76382736572634,199.15216871883894,247.77002944406445,204.56332423717424,238.77623152240255C207.91030757976193,233.21326225855427,212.17084486756872,227.650292994706,216.31784739697244,222.08732373085772C220.05062388502753,217.08001526537387,223.59142399754225,212.07270679989006,228.0723705567706,207.0653983344062C231.63483625814507,203.0844616218827,235.75416430877763,199.10352490935918,239.82689371656878,195.12258819683566C243.61160032151238,191.42318272174379,247.58113536697726,187.7237772466519,251.58141687636692,184.02437177156003C255.42383660674722,180.47095470458495,259.1517534326461,176.9175376376099,263.3359400361651,173.36412057063484C267.04507648448185,170.214139461259,270.2927290904896,167.06415835188318,275.09046319596325,163.91417724250735C278.5510347965262,161.64211819759709,282.3994140458098,159.37005915268685,286.8449863557614,157.09800010777658C290.4217590030333,155.26997031133627,294.6253707827454,153.44194051489592,298.59950951555965,151.6139107184556C302.4647447185554,149.83597451733996,306.4621669006806,148.05803831622433,310.3540326753577,146.2801021151087C314.29924180754546,144.4777968602029,318.94080666749926,142.67549160529708,322.1085558351559,140.87318635039128C329.94490460835465,136.4146601774814,330.03202879744515,131.95613400457154,333.86307899495404,127.49760783166167C337.8768883099287,122.82638898532018,340.6688465424912,118.1551701389787,345.61760215475226,113.48395129263722C349.0422398217015,110.25137460768038,351.7570924207359,107.01879792272352,357.37212531455043,103.78622123776668C360.6957733842174,101.87279571343137,364.814485118287,99.95937018909606,369.1266484743485,98.04594466476075C372.76443004036,96.43176089535912,376.9276765978568,94.81757712595748,380.8811716341467,93.20339335655585C384.7652547401569,91.61754998223047,388.2503608989626,90.03170660790508,392.6356947939449,88.4458632335797C396.23854809096133,87.14298387101225,400.94640765732055,85.84010450844481,404.3902179537431,84.53722514587736C409.25496476623636,82.69677004511371,411.54616447970494,80.85631494435006,416.1447411135412,79.01585984358641C419.66434402098145,77.60723460159342,423.1484198807055,76.19860935960041,427.8992642733393,74.78998411760742C431.37241869481016,73.76019391967775,435.75628229749543,72.73040372174809,439.65378743313755,71.70061352381842C443.593076624738,70.65978323491821,447.0038309603003,69.61895294601801,451.4083105929357,68.5781226571178C455.002628421011,67.7287431218658,459.03571717471533,66.87936358661379,463.16283375273383,66.0299840513618C466.9088701746859,65.25903256138903,470.9058437282359,64.48808107141626,474.91735691253206,63.717129581443494C478.75031664828833,62.98049333384123,482.1347778374242,62.24385708623896,486.67188007233017,61.5072208386367C490.2130285706357,60.93228595576685,494.55271410221707,60.35735107289701,498.42640323212834,59.78241619002716C502.39117955408796,59.19396210044378,506.3943085603096,58.60550801086038,510.18092639192656,58.017053921277C514.2510977476335,57.38453458975837,517.846556663738,56.75201525823974,521.9354495517247,56.11949592672111C525.7082778949498,55.53586927594661,530.0885646650509,54.95224262517211,533.6899727115228,54.36861597439761C538.0785112273396,53.65743079273231,541.994690114416,52.94624561106701,545.444495871321,52.23506042940171C550.2846346300746,51.23725498614172,553.0915180050661,50.23944954288172,557.1990190311193,49.24164409962173C560.9585831301283,48.32836045136892,564.6429932616815,47.41507680311612,568.9535421909173,46.501793154863314C572.5921383330083,45.730877335620676,575.87635149216,44.95996151637803,580.7080653507154,44.18904569713539C584.1599655571628,43.63828367904005,588.1998086297755,43.08752166094471,592.4625885105137,42.53675964284937C596.12622053202,42.06340905422499,599.7031320851844,41.59005846560062,604.2171116703119,41.11670787697624C607.7668389974156,40.744471917984164,611.8692369137627,40.37223595899208,615.9716348301099,40"></path></g>

</svg>
