<svg class="plot" fill="currentColor" text-anchor="middle" width="640" height="460" viewBox="0 0 640 400" style="font-family: 'RO Sans', sans-serif; font-size: 14px;" xmlns="http://www.w3.org/2000/svg">

<g transform="translate(40,0)" fill="none" text-anchor="end"><g class="tick" opacity="1" transform="translate(0,370.0293154631974)"><line stroke="currentColor" x2="0"></line><line stroke="currentColor" x2="580" stroke-opacity="0.1"></line><text fill="currentColor" x="-9" dy="0.32em">0m</text></g><g class="tick" opacity="1" transform="translate(0,308.1823466922786)"><line stroke="currentColor" x2="0"></line><line stroke="currentColor" x2="580" stroke-opacity="0.1"></line><text fill="currentColor" x="-9" dy="0.32em">0.5m</text></g><g class="tick" opacity="1" transform="translate(0,246.33537792135976)"><line stroke="currentColor" x2="0"></line><line stroke="currentColor" x2="580" stroke-opacity="0.1"></line><text fill="currentColor" x="-9" dy="0.32em">1m</text></g><g class="tick" opacity="1" transform="translate(0,184.48840915044093)"><line stroke="currentColor" x2="0"></line><line stroke="currentColor" x2="580" stroke-opacity="0.1"></line><text fill="currentColor" x="-9" dy="0.32em">1.5m</text></g><g class="tick" opacity="1" transform="translate(0,122.64144037952212)"><line stroke="currentColor" x2="0"></line><line stroke="currentColor" x2="580" stroke-opacity="0.1"></line><text fill="currentColor" x="-9" dy="0.32em">2m</text></g><g class="tick" opacity="1" transform="translate(0,60.794471608603274)"><line stroke="currentColor" x2="0"></line><line stroke="currentColor" x2="580" stroke-opacity="0.1"></line><text fill="currentColor" x="-9" dy="0.32em">2.5m</text></g><g class="tick" opacity="1" transform="translate(0,-1.0524971623155324)"><line stroke="currentColor" x2="0"></line><line stroke="currentColor" x2="580" stroke-opacity="0.1"></line><text fill="currentColor" x="-9" dy="0.32em">3m</text></g><text fill="currentColor" transform="translate(10,20)" dy="-1em" text-anchor="start">↑ Aantal downloads CoronaCheck Scanner (miljoen)</text></g><g transform="translate(0,370)" fill="none" text-anchor="middle"><g class="tick" opacity="1" transform="translate(46.90476190476187,0)"><line stroke="currentColor" y2="0"></line><text fill="currentColor" y="9" dy="0.71em">12</text></g><g class="tick" opacity="1" transform="translate(74.52380952380949,0)"><line stroke="currentColor" y2="0"></line><text fill="currentColor" y="9" dy="0.71em">14</text></g><g class="tick" opacity="1" transform="translate(102.14285714285711,0)"><line stroke="currentColor" y2="0"></line><text fill="currentColor" y="9" dy="0.71em">16</text></g><g class="tick" opacity="1" transform="translate(129.76190476190473,0)"><line stroke="currentColor" y2="0"></line><text fill="currentColor" y="9" dy="0.71em">18</text></g><g class="tick" opacity="1" transform="translate(157.38095238095235,0)"><line stroke="currentColor" y2="0"></line><text fill="currentColor" y="9" dy="0.71em">20</text></g><g class="tick" opacity="1" transform="translate(184.99999999999997,0)"><line stroke="currentColor" y2="0"></line><text fill="currentColor" y="9" dy="0.71em">22</text></g><g class="tick" opacity="1" transform="translate(212.6190476190476,0)"><line stroke="currentColor" y2="0"></line><text fill="currentColor" y="9" dy="0.71em">24</text></g><g class="tick" opacity="1" transform="translate(240.2380952380952,0)"><line stroke="currentColor" y2="0"></line><text fill="currentColor" y="9" dy="0.71em">26</text></g><g class="tick" opacity="1" transform="translate(267.85714285714283,0)"><line stroke="currentColor" y2="0"></line><text fill="currentColor" y="9" dy="0.71em">28</text></g><g class="tick" opacity="1" transform="translate(295.4761904761905,0)"><line stroke="currentColor" y2="0"></line><text fill="currentColor" y="9" dy="0.71em">30</text></g><g class="tick" opacity="1" transform="translate(323.0952380952381,0)"><line stroke="currentColor" y2="0"></line><text fill="currentColor" y="9" dy="0.71em">32</text></g><g class="tick" opacity="1" transform="translate(350.7142857142857,0)"><line stroke="currentColor" y2="0"></line><text fill="currentColor" y="9" dy="0.71em">34</text></g><g class="tick" opacity="1" transform="translate(378.3333333333333,0)"><line stroke="currentColor" y2="0"></line><text fill="currentColor" y="9" dy="0.71em">36</text></g><g class="tick" opacity="1" transform="translate(405.9523809523809,0)"><line stroke="currentColor" y2="0"></line><text fill="currentColor" y="9" dy="0.71em">38</text></g><g class="tick" opacity="1" transform="translate(433.57142857142856,0)"><line stroke="currentColor" y2="0"></line><text fill="currentColor" y="9" dy="0.71em">40</text></g><g class="tick" opacity="1" transform="translate(461.1904761904762,0)"><line stroke="currentColor" y2="0"></line><text fill="currentColor" y="9" dy="0.71em">42</text></g><g class="tick" opacity="1" transform="translate(488.8095238095238,0)"><line stroke="currentColor" y2="0"></line><text fill="currentColor" y="9" dy="0.71em">44</text></g><g class="tick" opacity="1" transform="translate(516.4285714285713,0)"><line stroke="currentColor" y2="0"></line><text fill="currentColor" y="9" dy="0.71em">46</text></g><g class="tick" opacity="1" transform="translate(544.047619047619,0)"><line stroke="currentColor" y2="0"></line><text fill="currentColor" y="9" dy="0.71em">48</text></g><g class="tick" opacity="1" transform="translate(571.6666666666667,0)"><line stroke="currentColor" y2="0"></line><text fill="currentColor" y="9" dy="0.71em">50</text></g><g class="tick" opacity="1" transform="translate(599.2857142857142,0)"><line stroke="currentColor" y2="0"></line><text fill="currentColor" y="9" dy="0.71em">52</text></g><g class="tick" opacity="1" transform="translate(NaN,0)"><line stroke="currentColor" y2="0"></line><text fill="currentColor" y="9" dy="0.71em">02</text></g><text fill="currentColor" transform="translate(640,-10)" dy="-0.32em" text-anchor="end">Weeknummer →</text></g><g fill="none" stroke="#ec025f" stroke-width="3" stroke-miterlimit="1"><path d="M46.90476190476187,370C53.53959342106485,369.99612425662366,60.174424937367824,369.9922485132474,60.71428571428568,369.98837276987103C69.92063492063488,369.9222789759112,70.15392205204475,369.85618518195133,74.52380952380949,369.7900913879915C79.41982817589171,369.71603995071644,83.6378393126574,369.64198851344145,88.3333333333333,369.5679370761664C92.85104695679166,369.4966893681423,95.04040937990825,369.42544166011817,102.14285714285711,369.3541939520941C106.00645719908992,369.31543651833096,111.44119155598736,369.2766790845679,115.95238095238092,369.23792165080476C120.6555358550038,369.1975149645411,124.42742702217488,369.15710827827746,129.76190476190473,369.1167015920138C133.92062006104416,369.08520086925313,142.27752665942435,369.0537001464924,143.57142857142856,369.02219942373176C152.77777777777774,368.79806600890595,151.13904898783196,368.57393259408013,157.38095238095235,368.3497991792543C161.32864624878638,368.2080459268314,167.9894822006473,368.06629267440843,171.19047619047615,367.9245394219855C180.39682539682536,367.51684420384765,179.3138776405774,367.10914898570974,184.99999999999997,366.7014537675719C189.0529723290065,366.41085547697355,195.54381596280987,366.1202571863752,198.8095238095238,365.8296588957769C208.01587301587298,365.0104339474373,211.74184249750004,364.1912089990978,212.6190476190476,363.3719840507582C221.82539682539678,354.7741421461626,220.30441991155416,346.176300241567,226.4285714285714,337.5784583369714C230.39404081351304,332.0112415960884,234.47225707158367,326.4440248552053,240.2380952380952,320.87680811432233C244.27214078371807,316.9817272524424,248.01818317120703,313.0866463905624,254.04761904761904,309.1915655286825C258.02892699556713,306.61959748537504,262.3860061597842,304.04762944206755,267.85714285714283,301.4756613987601C271.96985820807566,299.54228392366866,276.6913072272153,297.6089064485773,281.66666666666663,295.6755289734858C285.9889511589037,293.9959302269177,290.6740838759709,292.3163314803497,295.4761904761905,290.63673273378157C299.9097929220433,289.08602307013206,304.85736068228783,287.53531340648254,309.2857142857143,285.98460374283303C314.0950876248676,284.3004695518884,317.8321382713148,282.61633536094376,323.0952380952381,280.93220116999913C327.2810040889742,279.5928019829836,331.97652485316445,278.2534027959681,336.90476190476187,276.91400360895256C341.2546877468568,275.73177818524016,346.23460523403253,274.5495527615278,350.7142857142857,273.3673273378154C355.45581338474926,272.1159982343297,360.05858030770713,270.86466913084394,364.5238095238095,269.6133400273582C369.28373886577623,268.27942460490704,376.11229240504935,266.94550918245585,378.3333333333333,265.61159376000467C387.53968253968253,260.082433520572,388.26181606151994,254.55327328113933,392.1428571428571,249.02411304170667C399.0009036886626,239.2537350718395,400.5741541449614,229.48335710197233,405.9523809523809,219.71297913210515C410.09558903667363,212.18620303268432,412.6707184937872,204.65942693326352,419.76190476190476,197.1326508338427C423.6262225375954,193.03095986495535,428.9216827156492,188.929268896068,433.57142857142856,184.82757792718067C438.12984347222005,180.80645294294558,442.27279158113276,176.7853279587105,447.38095238095235,172.7642029744754C451.63405170939967,169.4161791670305,457.00426718754426,166.06815535958555,461.1904761904762,162.72013155214063C466.45245548274175,158.5117339464672,471.91562401267777,154.30333634079378,475,150.09493873512034C484.2063492063492,137.53357198987163,482.98780841027684,124.97220524462293,488.8095238095238,112.41083849937422C492.831196054596,103.7333789303142,496.09247084549395,95.0559193612542,502.6190476190476,86.37845979219418C506.5311544838879,81.17708848724739,510.5315468499433,75.97571718230058,516.4285714285713,70.7743458773538C520.4346364567031,67.24086362622114,523.7702858721685,63.707381375088495,530.2380952380952,60.17389912395585C534.1567881715835,58.03304568429424,539.012871636182,55.89219224463263,544.047619047619,53.75133880497102C548.3374763407143,51.92722430804154,553.1432494413751,50.10310981111206,557.8571428571429,48.27899531418258C562.3593207552432,46.5368074352183,567.4498922768532,44.79461955625403,571.6666666666667,43.052431677289746C576.854754189818,40.90893943362724,577.881595195603,38.76544718996473,585.4761904761904,36.621954946302225C589.3150497060607,35.53847851606078,594.7636949264528,34.45500208581933,599.2857142857142,33.371525655577884C603.9762037322243,32.24768377038526,608.5357209137312,31.12384188519263,613.0952380952381,30"></path></g></svg>
