<svg class="plot" fill="currentColor" text-anchor="middle" width="640" height="460" viewBox="0 0 640 400" style="font-family: 'RO Sans', sans-serif; font-size: 14px;" xmlns="http://www.w3.org/2000/svg">
<style>
        line[stroke-opacity] {
            stroke-opacity: 1;
            stroke: #949494;
        }
</style>

<!-- replace the below code -->
<g transform="translate(40,0)" fill="none" text-anchor="end"><g class="tick" opacity="1" transform="translate(0,320.08721164141554)"><line stroke="currentColor" x2="0"></line><line stroke="currentColor" x2="580" stroke-opacity="0.1"></line><text fill="currentColor" x="-9" dy="0.32em">0m</text></g><g class="tick" opacity="1" transform="translate(0,284.82881608226086)"><line stroke="currentColor" x2="0"></line><line stroke="currentColor" x2="580" stroke-opacity="0.1"></line><text fill="currentColor" x="-9" dy="0.32em">2m</text></g><g class="tick" opacity="1" transform="translate(0,249.57042052310618)"><line stroke="currentColor" x2="0"></line><line stroke="currentColor" x2="580" stroke-opacity="0.1"></line><text fill="currentColor" x="-9" dy="0.32em">4m</text></g><g class="tick" opacity="1" transform="translate(0,214.31202496395144)"><line stroke="currentColor" x2="0"></line><line stroke="currentColor" x2="580" stroke-opacity="0.1"></line><text fill="currentColor" x="-9" dy="0.32em">6m</text></g><g class="tick" opacity="1" transform="translate(0,179.0536294047967)"><line stroke="currentColor" x2="0"></line><line stroke="currentColor" x2="580" stroke-opacity="0.1"></line><text fill="currentColor" x="-9" dy="0.32em">8m</text></g><g class="tick" opacity="1" transform="translate(0,143.79523384564203)"><line stroke="currentColor" x2="0"></line><line stroke="currentColor" x2="580" stroke-opacity="0.1"></line><text fill="currentColor" x="-9" dy="0.32em">10m</text></g><g class="tick" opacity="1" transform="translate(0,108.53683828648731)"><line stroke="currentColor" x2="0"></line><line stroke="currentColor" x2="580" stroke-opacity="0.1"></line><text fill="currentColor" x="-9" dy="0.32em">12m</text></g><g class="tick" opacity="1" transform="translate(0,73.27844272733262)"><line stroke="currentColor" x2="0"></line><line stroke="currentColor" x2="580" stroke-opacity="0.1"></line><text fill="currentColor" x="-9" dy="0.32em">14m</text></g><text fill="currentColor" transform="translate(-40,40)" dy="-1em" text-anchor="start">↑ Number of downloads CoronaCheck (million)</text></g><g transform="translate(0,320)" fill="none" text-anchor="middle"><g class="tick" opacity="1" transform="translate(46.197658449782686,0)"><line stroke="currentColor" y2="6"></line><text fill="currentColor" dy="0.32em" transform="translate(0, 11.82842712474619) rotate(-45)" text-anchor="end">Apr 2021</text></g><g class="tick" opacity="1" transform="translate(92.68009682315288,0)"><line stroke="currentColor" y2="6"></line><text fill="currentColor" dy="0.32em" transform="translate(0, 11.82842712474619) rotate(-45)" text-anchor="end">May 2021</text></g><g class="tick" opacity="1" transform="translate(140.7119498089687,0)"><line stroke="currentColor" y2="6"></line><text fill="currentColor" dy="0.32em" transform="translate(0, 11.82842712474619) rotate(-45)" text-anchor="end">Jun 2021</text></g><g class="tick" opacity="1" transform="translate(187.1943881823389,0)"><line stroke="currentColor" y2="6"></line><text fill="currentColor" dy="0.32em" transform="translate(0, 11.82842712474619) rotate(-45)" text-anchor="end">Jul 2021</text></g><g class="tick" opacity="1" transform="translate(235.2262411681548,0)"><line stroke="currentColor" y2="6"></line><text fill="currentColor" dy="0.32em" transform="translate(0, 11.82842712474619) rotate(-45)" text-anchor="end">Aug 2021</text></g><g class="tick" opacity="1" transform="translate(283.25809415397066,0)"><line stroke="currentColor" y2="6"></line><text fill="currentColor" dy="0.32em" transform="translate(0, 11.82842712474619) rotate(-45)" text-anchor="end">Sep 2021</text></g><g class="tick" opacity="1" transform="translate(329.7405325273408,0)"><line stroke="currentColor" y2="6"></line><text fill="currentColor" dy="0.32em" transform="translate(0, 11.82842712474619) rotate(-45)" text-anchor="end">Oct 2021</text></g><g class="tick" opacity="1" transform="translate(377.77238551315673,0)"><line stroke="currentColor" y2="6"></line><text fill="currentColor" dy="0.32em" transform="translate(0, 11.82842712474619) rotate(-45)" text-anchor="end">Nov 2021</text></g><g class="tick" opacity="1" transform="translate(424.2548238865269,0)"><line stroke="currentColor" y2="6"></line><text fill="currentColor" dy="0.32em" transform="translate(0, 11.82842712474619) rotate(-45)" text-anchor="end">Dec 2021</text></g><g class="tick" opacity="1" transform="translate(472.28667687234275,0)"><line stroke="currentColor" y2="6"></line><text fill="currentColor" dy="0.32em" transform="translate(0, 11.82842712474619) rotate(-45)" text-anchor="end">Jan 2022</text></g><g class="tick" opacity="1" transform="translate(520.3185298581586,0)"><line stroke="currentColor" y2="6"></line><text fill="currentColor" dy="0.32em" transform="translate(0, 11.82842712474619) rotate(-45)" text-anchor="end">Feb 2022</text></g><g class="tick" opacity="1" transform="translate(563.7021390066374,0)"><line stroke="currentColor" y2="6"></line><text fill="currentColor" dy="0.32em" transform="translate(0, 11.82842712474619) rotate(-45)" text-anchor="end">Mar 2022</text></g><g class="tick" opacity="1" transform="translate(611.7339919924533,0)"><line stroke="currentColor" y2="6"></line><text fill="currentColor" dy="0.32em" transform="translate(0, 11.82842712474619) rotate(-45)" text-anchor="end">Apr 2022</text></g><text fill="currentColor" transform="translate(640,-10)" dy="-0.32em" text-anchor="end">Month →</text></g><g fill="none" stroke="#ec025f" stroke-width="3" stroke-miterlimit="1"><path d="M40,320C45.34735799237323,319.9967621040078,50.694715984746466,319.99352420801563,50.84590228711971,319.99028631202344C58.07650381186618,319.83543143872765,58.636667137824155,319.68057656543186,61.69180457423942,319.5257216921361C66.99481920231663,319.25692931359083,68.81752175702772,318.98813693504565,72.53770686135914,318.7193445565004C76.0590363967242,318.4649199741455,76.15300762373238,318.2104953917907,83.38360914847885,317.9560708094358C85.86278227382238,317.8688356624232,90.60141259457156,317.78160051541056,94.22951143559855,317.69436536839794C97.83219281084635,317.6077413669084,100.74927279985947,317.52111736541883,105.07541372271827,317.4344933639293C108.29661464323459,317.36999400565304,114.59985336042753,317.3054946473768,115.92131600983798,317.24099528910057C123.15191753458446,316.8880763787512,120.6290721872766,316.53515746840185,126.7672182969577,316.18223855805246C129.77624571449635,316.00923148744295,135.81385812356945,315.83622441683343,137.6131205840774,315.6632173462239C144.84372210882387,314.96796292059224,145.17595511471495,314.27270849496057,148.4590228711971,313.5774540693289C152.60386365554044,312.69970218828297,156.78529889527024,311.8219503072371,159.30492515831682,310.9441984261912C166.5355266830633,308.4253033890496,168.67420222107407,305.90640835190806,170.15082744543653,303.38751331476647C177.38142897018298,291.05322158268814,176.56736981744268,278.7189298506098,180.99672973255622,266.3846381185315C184.1891527049813,257.4948036890188,186.8497570885179,248.60496925950613,191.84263201967596,239.71513482999347C194.93089462266076,234.2164705145581,198.8620937437126,228.71780619912272,202.68853430679565,223.21914188368734C206.13276836875812,218.2697152250747,209.39986576747697,213.32028856646204,213.5344365939154,208.3708619078494C216.8215248384194,204.4359426938581,220.62243015107006,200.5010234798668,224.38033888103507,196.5661042658755C227.87248887849526,192.90946193883482,231.5351801372659,189.25281961179417,235.2262411681548,185.59617728475348C238.7716430849537,182.0838358179379,242.21139313508704,178.57149435112234,246.0721434552745,175.05915288430677C249.4945648449933,171.94558387126523,252.49117494549816,168.8320148582237,256.9180457423942,165.71844584518215C260.11111626742024,163.47265058724327,263.6620170342214,161.22685532930439,267.7639480295139,158.9810600713655C271.06423729758313,157.174161321347,274.9429112340702,155.36726257132844,278.60985031663364,153.56036382130992C282.1763040773277,151.802979611455,285.8647268060332,150.04559540160002,289.45575260375335,148.2882111917451C293.09599833454615,146.506739621324,297.3787717185455,144.72526805090288,300.30165489087307,142.94379648048178C307.5322564156195,138.5368084847482,307.61264593281845,134.12982048901463,311.1475571779927,129.72283249328106C314.8511003194308,125.10561043762678,317.42724107549805,120.4883883819725,321.99345946511244,115.87116632631822C325.1533737380755,112.67595649835947,327.6583691013724,109.4807466704007,332.8393617522322,106.28553684244196C335.9060928914136,104.39422949345482,339.7064295285742,102.50292214446769,343.6852640393519,100.61161479548055C347.04184625629694,99.01609012683916,350.88327518930794,97.42056545819776,354.53116632647163,95.82504078955637C358.11501105331814,94.25752891618673,361.33071962309873,92.6900170428171,365.3770686135913,91.12250516944746C368.70142250553926,89.83468639525007,373.0453660363877,88.54686762105267,376.222970900711,87.25904884685528C380.711674343853,85.43986842238365,382.82576505384867,83.62068799791203,387.0688731878308,81.8015075734404C390.31641191863326,80.4091652856079,393.53116983112085,79.0168229977754,397.91477547495043,77.6244807099429C401.1194561728612,76.60659433574715,405.16444852418016,75.58870796155139,408.76067776207015,74.57082158735564C412.3954611617856,73.54202273973432,415.542565280428,72.51322389211302,419.60658004918986,71.4844250444917C422.92305826121003,70.64486388223563,426.64439054694355,69.80530271997955,430.45248233630963,68.96574155772348C433.9089513435289,68.20370185450346,437.5969601225042,67.44166215128347,441.2983846234293,66.67962244806345C444.8350578001565,65.95150132137135,447.9579012241639,65.22338019467925,452.144286910549,64.49525906798715C455.4117057649487,63.92697012476395,459.4159349959001,63.35868118154075,462.9901891976687,62.79039223831755C466.6484895807357,62.20874036317743,470.34217799786404,61.62708848803731,473.83609148478837,61.045436612897184C477.5916398992753,60.42022886644299,480.90917099358603,59.7950211199888,484.6819937719082,59.16981337353461C488.1631836934735,58.59293313459351,492.2048757002205,58.01605289565241,495.52789605902785,57.43917265671131C499.57720195419165,56.73620839525066,503.19066146851543,56.03324413379,506.37379834614757,55.33027987232935C510.83979593021667,54.34400852615163,513.4297081199867,53.35773717997391,517.2197006332673,52.371465833796194C520.6886516324429,51.4687392558959,524.0882580417588,50.5660126779956,528.065602920387,49.663286100095306C531.4229367469416,48.90128165527085,534.4532812815509,48.1392772104464,538.9115052075067,47.377272765621946C542.0965746344028,46.832877261789335,545.8241391323579,46.288481757956724,549.7574074946264,45.74408625412411C553.137841935142,45.276207345054125,556.4382593717228,44.808328435984144,560.6033097817461,44.340449526914156C563.8786443242276,43.97251641645587,566.911703621628,43.60458330599758,571.4492120688658,43.23665019553929C573.7868130474978,43.04710106101327,576.7582854136226,42.85755192648726,579.1962851310942,42.66800279196124C583.2011168842548,42.35663590077835,586.5888926140691,42.045269009595465,590.0421874182139,41.73390211841257C593.854980469814,41.39012100891229,597.1683683803695,41.04633989941201,600.8880897053336,40.70255878991173C603.4219916957352,40.468372526607816,606.0285772316486,40.23418626330391,608.635162767562,40"></path></g>

</svg>
