<svg class="plot" fill="currentColor" text-anchor="middle" width="640" height="460" viewBox="0 0 640 400" style="font-family: 'RO Sans', sans-serif; font-size: 14px;" xmlns="http://www.w3.org/2000/svg">


<g transform="translate(40,0)" fill="none" text-anchor="end"><g class="tick" opacity="1" transform="translate(0,370.1153289257295)"><line stroke="currentColor" x2="0"></line><line stroke="currentColor" x2="580" stroke-opacity="0.1"></line><text fill="currentColor" x="-9" dy="0.32em">0m</text></g><g class="tick" opacity="1" transform="translate(0,323.4895251135239)"><line stroke="currentColor" x2="0"></line><line stroke="currentColor" x2="580" stroke-opacity="0.1"></line><text fill="currentColor" x="-9" dy="0.32em">2m</text></g><g class="tick" opacity="1" transform="translate(0,276.8637213013182)"><line stroke="currentColor" x2="0"></line><line stroke="currentColor" x2="580" stroke-opacity="0.1"></line><text fill="currentColor" x="-9" dy="0.32em">4m</text></g><g class="tick" opacity="1" transform="translate(0,230.23791748911253)"><line stroke="currentColor" x2="0"></line><line stroke="currentColor" x2="580" stroke-opacity="0.1"></line><text fill="currentColor" x="-9" dy="0.32em">6m</text></g><g class="tick" opacity="1" transform="translate(0,183.61211367690692)"><line stroke="currentColor" x2="0"></line><line stroke="currentColor" x2="580" stroke-opacity="0.1"></line><text fill="currentColor" x="-9" dy="0.32em">8m</text></g><g class="tick" opacity="1" transform="translate(0,136.98630986470127)"><line stroke="currentColor" x2="0"></line><line stroke="currentColor" x2="580" stroke-opacity="0.1"></line><text fill="currentColor" x="-9" dy="0.32em">10m</text></g><g class="tick" opacity="1" transform="translate(0,90.36050605249558)"><line stroke="currentColor" x2="0"></line><line stroke="currentColor" x2="580" stroke-opacity="0.1"></line><text fill="currentColor" x="-9" dy="0.32em">12m</text></g><g class="tick" opacity="1" transform="translate(0,43.73470224028995)"><line stroke="currentColor" x2="0"></line><line stroke="currentColor" x2="580" stroke-opacity="0.1"></line><text fill="currentColor" x="-9" dy="0.32em">14m</text></g><g class="tick" opacity="1" transform="translate(0,-2.8911015719156836)"><line stroke="currentColor" x2="0"></line><line stroke="currentColor" x2="580" stroke-opacity="0.1"></line><text fill="currentColor" x="-9" dy="0.32em">16m</text></g><text fill="currentColor" transform="translate(10,20)" dy="-1em" text-anchor="start">↑ Aantal downloads CoronaCheck (miljoen)</text></g><g transform="translate(0,370)" fill="none" text-anchor="middle"><g class="tick" opacity="1" transform="translate(104.893298556421,0)"><line stroke="currentColor" y2="6"></line><text fill="currentColor" y="9" dy="0.71em">mei 2021</text></g><g class="tick" opacity="1" transform="translate(221.3195106723528,0)"><line stroke="currentColor" y2="6"></line><text fill="currentColor" y="9" dy="0.71em">jul. 2021</text></g><g class="tick" opacity="1" transform="translate(339.65434921641463,0)"><line stroke="currentColor" y2="6"></line><text fill="currentColor" y="9" dy="0.71em">sep. 2021</text></g><g class="tick" opacity="1" transform="translate(456.0805613323464,0)"><line stroke="currentColor" y2="6"></line><text fill="currentColor" y="9" dy="0.71em">nov. 2021</text></g><g class="tick" opacity="1" transform="translate(572.5067734482783,0)"><line stroke="currentColor" y2="6"></line><text fill="currentColor" y="9" dy="0.71em">jan. 2022</text></g><text fill="currentColor" transform="translate(640,-10)" dy="-0.32em" text-anchor="end">Weeknummer →</text></g><g fill="none" stroke="#ec025f" stroke-width="3" stroke-miterlimit="1"><path d="M40,370C46.587074049086176,369.9957181970166,53.17414809817235,369.99143639403314,53.36038499691021,369.9871545910497C62.267308328183674,369.7823740607065,62.957338304282175,369.57759353036334,66.72076999382041,369.37281300002013C73.25322024090535,369.0173611846578,75.49849289975238,368.6619093692954,80.08115499073062,368.30645755393306C84.41885941107556,367.97000575362415,84.53461665636736,367.6335539533153,93.44153998764084,367.2971021530064C96.49547746114212,367.18174214340775,102.33269817061363,367.06638213380904,106.80192498455104,366.9510221242104C111.23984162074397,366.8364702952111,114.83320902238614,366.7219184662118,120.16230998146123,366.60736663721246C124.13030483437412,366.52207250010537,131.8948682390398,366.4367783629982,133.52269497837148,366.3514842258911C142.42961830964495,365.8847832426328,139.3218837721756,365.41808225937456,146.88307997528167,364.95138127611625C150.5897116321349,364.72259622777705,158.02706669139417,364.4938111794379,160.24346497219187,364.2650261310987C169.15038830346535,363.3456196766931,169.55964525137793,362.4262132222876,173.60384996910207,361.506806767882C178.7096186883615,360.34606515294445,183.86046581601676,359.18532353800686,186.96423496601227,358.0245819230693C195.87115829728575,354.6935878729215,198.50565820470524,351.3625938227737,200.32461996292247,348.0315997726259C209.23154329419594,331.72069687015187,208.22875501499624,315.40979396767784,213.6850049598327,299.0988910652038C217.61755006815733,287.34294841778444,220.89498129955703,275.5870057703651,227.04538995674292,263.83106312294575C230.84962645594473,256.5596135990862,235.69222344477632,249.2881640752267,240.40577495365312,242.01671455136716C244.6485103083629,235.47157848639227,248.67304214663375,228.92644242141742,253.76615995056335,222.38130635644254C257.81531725465834,217.17775785745815,262.49741349427876,211.9742093584738,267.1265449474735,206.7706608594894C271.42830492999104,201.93510651709286,275.9401439680495,197.09955217469633,280.48692994438375,192.2639978322998C284.8542876176563,187.619267362972,289.09149940016505,182.9745368936442,293.8473149412939,178.32980642431642C298.06318063672853,174.21241379610467,301.7545161815749,170.09502116789295,307.20769993820414,165.9776285396812C311.14104272585735,163.00778242392815,315.5151740866595,160.0379363081751,320.5680849351143,157.06809019242203C324.6335037500099,154.67864208252334,329.41139826695473,152.28919397262462,333.92846993202454,149.89974586272592C338.3217600479735,147.57577592331415,342.8652960657543,145.2518059839024,347.28885492893477,142.92783604449062C351.77304473253537,140.57201291010782,357.0487239475973,138.21618977572498,360.64923992584494,135.86036664134218C369.55616325711844,130.0325530260835,369.65519004816457,124.2047394108248,374.00962492275517,118.37692579556611C378.5717868261536,112.27109805410983,381.74517262626017,106.16527031265356,387.3700099196654,100.05944257119728C391.2625096053905,95.83408789425836,394.34825587002956,91.60873321731945,400.7303949165756,87.38337854038053C404.5081081594963,84.88230825615541,409.189503883541,82.38123797193029,414.09077991348585,79.88016768770517C418.22554247219193,77.77024127166064,422.9575572114586,75.66031485561611,427.451164910396,73.55038843957158C431.86587786393966,71.47750622465584,435.82710703536173,69.4046240097401,440.81154990730624,67.33174179482437C444.90661241908526,65.62872653961625,450.25764329144477,63.92571128440814,454.17193490421647,62.22269602920002C459.7012864094899,59.817006597640066,462.30550181326277,57.4113171660801,467.5323199011267,55.00562773452015C471.53275864631297,53.16439028391075,475.4928167627967,51.32315283330136,480.8927048980368,49.48191538269196C484.840349527576,48.13585951050279,489.823121241033,46.78980363831363,494.25308989494704,45.44374776612446C498.73055099638515,44.08326120765541,502.6072706585526,42.72277464918636,507.6134748918572,41.362288090717314C511.6988358487851,40.25204999227567,516.2829110803937,39.14181189383403,520.9738598887675,38.03157379539239C525.2316667031603,37.023850297599196,529.7746928022991,36.016126799806,534.3342448856775,35.00840330201281C538.6908501729514,34.04553382748694,542.5376846110005,33.08266435296108,547.6946298825878,32.119794878435215C551.7195577018975,31.368287943557387,556.65211589071,30.616781008679563,561.055014879498,29.865274073801736C565.5614450738916,29.09609595927908,570.1114675621147,28.326917844756426,574.4153998764083,27.55773973023377C579.041623805391,26.730963206068427,583.1282817418033,25.904186681903088,587.7757848733185,25.077410157737745C592.0640438275514,24.314542068664355,597.042750054068,23.551673979590966,601.1361698702286,22.788805890517576C606.1242551670964,21.859203927011716,610.3104050171177,20.92960196350586,614.4965548671389,20"></path></g>

</svg>
