<svg class="plot" fill="currentColor" text-anchor="middle" width="640" height="460" viewBox="0 0 640 400" style="font-family: 'RO Sans', sans-serif; font-size: 14px;" xmlns="http://www.w3.org/2000/svg">

<g transform="translate(40,0)" fill="none" text-anchor="end"><g class="tick" opacity="1" transform="translate(0,320.0199951326357)"><line stroke="currentColor" x2="0"></line><line stroke="currentColor" x2="580" stroke-opacity="0.1"></line><text fill="currentColor" x="-9" dy="0.32em">0m</text></g><g class="tick" opacity="1" transform="translate(0,277.8361710067332)"><line stroke="currentColor" x2="0"></line><line stroke="currentColor" x2="580" stroke-opacity="0.1"></line><text fill="currentColor" x="-9" dy="0.32em">0.5m</text></g><g class="tick" opacity="1" transform="translate(0,235.65234688083072)"><line stroke="currentColor" x2="0"></line><line stroke="currentColor" x2="580" stroke-opacity="0.1"></line><text fill="currentColor" x="-9" dy="0.32em">1m</text></g><g class="tick" opacity="1" transform="translate(0,193.46852275492822)"><line stroke="currentColor" x2="0"></line><line stroke="currentColor" x2="580" stroke-opacity="0.1"></line><text fill="currentColor" x="-9" dy="0.32em">1.5m</text></g><g class="tick" opacity="1" transform="translate(0,151.2846986290257)"><line stroke="currentColor" x2="0"></line><line stroke="currentColor" x2="580" stroke-opacity="0.1"></line><text fill="currentColor" x="-9" dy="0.32em">2m</text></g><g class="tick" opacity="1" transform="translate(0,109.10087450312321)"><line stroke="currentColor" x2="0"></line><line stroke="currentColor" x2="580" stroke-opacity="0.1"></line><text fill="currentColor" x="-9" dy="0.32em">2.5m</text></g><g class="tick" opacity="1" transform="translate(0,66.9170503772207)"><line stroke="currentColor" x2="0"></line><line stroke="currentColor" x2="580" stroke-opacity="0.1"></line><text fill="currentColor" x="-9" dy="0.32em">3m</text></g><text fill="currentColor" transform="translate(-40,40)" dy="-1em" text-anchor="start">↑ Aantal downloads CoronaCheck Scanner (miljoen)</text></g><g transform="translate(0,320)" fill="none" text-anchor="middle"><g class="tick" opacity="1" transform="translate(46.52528396391745,0)"><line stroke="currentColor" y2="6"></line><text fill="currentColor" dy="0.32em" transform="translate(0, 11.82842712474619) rotate(-45)" text-anchor="end">apr. 2021</text></g><g class="tick" opacity="1" transform="translate(95.46491369329834,0)"><line stroke="currentColor" y2="6"></line><text fill="currentColor" dy="0.32em" transform="translate(0, 11.82842712474619) rotate(-45)" text-anchor="end">mei 2021</text></g><g class="tick" opacity="1" transform="translate(146.0358644136586,0)"><line stroke="currentColor" y2="6"></line><text fill="currentColor" dy="0.32em" transform="translate(0, 11.82842712474619) rotate(-45)" text-anchor="end">jun. 2021</text></g><g class="tick" opacity="1" transform="translate(194.9754941430395,0)"><line stroke="currentColor" y2="6"></line><text fill="currentColor" dy="0.32em" transform="translate(0, 11.82842712474619) rotate(-45)" text-anchor="end">jul. 2021</text></g><g class="tick" opacity="1" transform="translate(245.54644486339976,0)"><line stroke="currentColor" y2="6"></line><text fill="currentColor" dy="0.32em" transform="translate(0, 11.82842712474619) rotate(-45)" text-anchor="end">aug. 2021</text></g><g class="tick" opacity="1" transform="translate(296.11739558376,0)"><line stroke="currentColor" y2="6"></line><text fill="currentColor" dy="0.32em" transform="translate(0, 11.82842712474619) rotate(-45)" text-anchor="end">sep. 2021</text></g><g class="tick" opacity="1" transform="translate(345.05702531314097,0)"><line stroke="currentColor" y2="6"></line><text fill="currentColor" dy="0.32em" transform="translate(0, 11.82842712474619) rotate(-45)" text-anchor="end">okt. 2021</text></g><g class="tick" opacity="1" transform="translate(395.62797603350117,0)"><line stroke="currentColor" y2="6"></line><text fill="currentColor" dy="0.32em" transform="translate(0, 11.82842712474619) rotate(-45)" text-anchor="end">nov. 2021</text></g><g class="tick" opacity="1" transform="translate(444.56760576288207,0)"><line stroke="currentColor" y2="6"></line><text fill="currentColor" dy="0.32em" transform="translate(0, 11.82842712474619) rotate(-45)" text-anchor="end">dec. 2021</text></g><g class="tick" opacity="1" transform="translate(495.1385564832424,0)"><line stroke="currentColor" y2="6"></line><text fill="currentColor" dy="0.32em" transform="translate(0, 11.82842712474619) rotate(-45)" text-anchor="end">jan. 2022</text></g><g class="tick" opacity="1" transform="translate(545.7095072036026,0)"><line stroke="currentColor" y2="6"></line><text fill="currentColor" dy="0.32em" transform="translate(0, 11.82842712474619) rotate(-45)" text-anchor="end">feb. 2022</text></g><g class="tick" opacity="1" transform="translate(591.3864949510248,0)"><line stroke="currentColor" y2="6"></line><text fill="currentColor" dy="0.32em" transform="translate(0, 11.82842712474619) rotate(-45)" text-anchor="end">mrt. 2022</text></g><text fill="currentColor" transform="translate(640,-10)" dy="-0.32em" text-anchor="end">Maand →</text></g><g fill="none" stroke="#ec025f" stroke-width="3" stroke-miterlimit="1"><path d="M40,320C45.486415065004955,319.99735648035477,50.97283013000992,319.9947129607096,51.41924693685554,319.99206944106436C59.03207822809257,319.9469889943485,59.22498591973415,319.90190854763256,62.83849387371109,319.8568281009167C66.88706548028793,319.80632000216326,70.37498522447741,319.75581190340984,74.25774081056663,319.7053038046564C77.99348783325975,319.6567080392634,79.80389567127189,319.6081122738704,85.67698774742217,319.5595165084774C88.87184107588749,319.5330813120251,93.36588261661034,319.5066461155729,97.09623468427772,319.4802109191206C100.98532513780044,319.4526508206917,104.10434337846935,319.4250907222628,108.51548162113326,319.39753062383386C111.954368985822,319.3760449960791,118.8647868533339,319.35455936832426,119.93472855798879,319.3330737405695C127.54755984922583,319.18019956193723,126.19247701124807,319.0273253833049,131.35397549484435,318.87445120467265C134.61836691989964,318.7777658797761,140.1262853383271,318.68108055487954,142.77322243169988,318.584395229983C150.3860537229369,318.306319461345,149.49055232702452,318.0282436927071,154.19246936855544,317.75016792406916C157.54391670964685,317.55196019577625,162.91126661289294,317.35375246748333,165.61171630541097,317.1555447391904C173.224547596648,316.5967778048187,176.30559269108807,316.038010870447,177.03096324226652,315.4792439360753C184.64379453350355,309.6149330737406,183.38608201538995,303.7506222114058,188.45021017912205,297.8863113490711C191.7293003745392,294.0890922365539,195.10162219788046,290.29187312403667,199.86945711597758,286.49465401151946C203.20525369197685,283.8379448906195,206.30289729277655,281.1812357697196,211.28870405283314,278.52452664881963C214.58089132998825,276.77027013871987,218.18380795375415,275.0160136286201,222.7079509896887,273.26175711852034C226.1088004918931,271.9430626537952,230.01301855132738,270.6243681890701,234.12719792654423,269.30567372434496C237.70134245382744,268.1600735512831,241.57553016414028,267.0144733782212,245.54644486339976,265.8688732051594C249.21263942936469,264.81118412157593,253.30383755975166,263.7534950379925,256.9656918002553,262.695805954409C260.94261544576483,261.5471123009113,264.0328236771222,260.3984186474135,268.3849387371109,259.2497249939158C271.84619461831664,258.3361639760958,275.7289723189091,257.42260295827583,279.8041856739664,256.50904194045586C283.4011871370895,255.70268408101455,287.51913561204043,254.89632622157325,291.22343261082193,254.08996836213194C295.1442539276017,253.23647710986725,298.9503324579704,252.38298585760253,302.6426795476775,251.52949460533785C306.57871740876686,250.6196738865904,312.22532334261695,249.70985316784297,314.06192648453305,248.8000324490955C321.67475777577005,245.0287704496904,322.2718979176738,241.25750845028531,325.4811734213885,237.4862464508802C331.1521674463231,230.8221865282172,332.453105530923,224.15812660555423,336.9004203582441,217.49406668289123C340.32648463662895,212.3602952867689,342.45588747272603,207.22652389064658,348.31966729509963,202.09275249452423C351.5151141136684,199.29512127849438,355.8939883059687,196.49749006246452,359.73891423195516,193.69985884643467C363.50831758798404,190.95717909196614,366.93416688987134,188.21449933749764,371.1581611688107,185.47181958302912C374.6750957241514,183.1882404477975,379.11578589529,180.9046613125659,382.5774081056663,178.6210821773343C386.9285965857181,175.75066980341256,391.4461506564798,172.8802574294908,393.99665504252175,170.00984505556906C401.60948633375887,161.44214164030177,400.6018615637153,152.87443822503445,405.4159019793774,144.30673480976716C408.7414669372296,138.3881193045077,411.43825088719615,132.46950379924826,416.8351489162329,126.55088829398879C420.07011305758664,123.00320056245097,423.37772954140075,119.45551283091316,428.25439585308845,115.90782509937534C431.5669848370428,113.4979757172602,434.32645184260775,111.08812633514506,439.673642789944,108.67827695302992C442.914181155538,107.21784483924176,446.95192935875843,105.75741272545359,451.0928897267995,104.29698061166543C454.6521492632591,103.04170249587624,458.5957904082929,101.78642438008706,462.51213666365504,100.53114626429786C466.2200135511809,99.3426873259241,470.4348479164456,98.15422838755036,473.93138360051057,96.9657694491766C478.1995400084183,95.51503961493738,479.11418027426924,94.06430978069817,485.35063053736616,92.61357994645894C488.5267640098602,91.87474432816849,493.0314916076309,91.13590870987802,496.76987747422174,90.39707309158757C500.64956271526177,89.63031178172574,504.49485194809523,88.8635504718639,508.1891244110773,88.09678916200207C512.1226811274839,87.28036342986935,515.9612731611103,86.46393769773665,519.6083713479328,85.64751196560394C523.6062221143292,84.7525680754982,527.8215078349436,83.85762418539247,531.0276182847883,82.96268029528673C536.7391353483002,81.36838484627238,538.9762099153783,79.77408939725804,542.4468652216439,78.17979394824368C546.7755880302047,76.1913328465969,549.8801363622334,74.2028717449501,553.8661121584994,72.21441064330331C557.521515846356,70.39086017143939,559.033725374576,68.56730969957545,565.285359095355,66.74375922771152C568.4608762654628,65.81748681755495,571.4678522235159,64.89121440739837,576.7046060322106,63.964941997241795C579.9587166130938,63.389357778318576,582.5954399966181,62.81377355939535,588.1238529690661,62.23818934047213C591.3454966648881,61.902771693572376,594.5839854012761,61.56735404667262,599.5430999059216,61.23193639977286C601.9829493159376,61.06691327979233,605.0457377407531,60.9018901598118,607.6997048608184,60.73686703983127C611.6499006390478,60.49124469322084,615.3844262183609,60.245622346610425,619.118951797674,60"></path></g>

</svg>
