<svg xmlns="http://www.w3.org/2000/svg" fill="none" viewBox="0 0 146 117">
  <path fill="url(#a)" d="M110.7 17.2v43.2c0 9.2-7.5 16.7-16.7 16.7H50.8C41.6 77 34 69.6 34 60.4V17.3C34.1 8 41.6.5 50.8.5h43.1c9.3 0 16.8 7.5 16.8 16.7Z"/>
  <path fill="#fff" d="M81.5 41.7 80 44l1.7 1.6c1-.4 2.3-.1 3 1 .4.8.4 1.8 0 2.5a2.4 2.4 0 0 1-3.9.4c-.7-.7-.9-1.7-.5-2.6l-1.7-1.7a9.6 9.6 0 0 1-5.3 2.2v3A3 3 0 0 1 73 56a3 3 0 0 1-3.6-3 3 3 0 0 1 1.9-2.7v-3c-2-.2-3.8-1-5.3-2.2l-1.7 1.7c.4 1 .1 2.3-1 3-.7.4-1.7.4-2.5 0a2.4 2.4 0 0 1-.4-3.8c.7-.7 1.8-1 2.7-.6l1.6-1.6a9.4 9.4 0 0 1-2.2-5.3h-3a3 3 0 0 1-3.3 1.9 3 3 0 0 1-2.3-2.3 3 3 0 0 1 5.7-1.7h3c.2-2 1-3.8 2.2-5.3l-1.7-1.6c-1 .4-2.3 0-3-1-.4-.8-.4-1.8 0-2.5a2.4 2.4 0 0 1 3.9-.4c.7.7.9 1.7.5 2.6l1.7 1.7c1.4-1.2 3.2-2 5.3-2.2v-3a3 3 0 0 1-1.1-4.8 3 3 0 0 1 5.1 2.1 3 3 0 0 1-1.9 2.8v3c2 .2 3.8 1 5.3 2.1l1.7-1.6c-.4-1-.1-2.3 1-3 .7-.4 1.7-.4 2.5 0 1.3.9 1.5 2.7.4 3.8-.7.7-1.8.9-2.7.5l-1.6 1.7 1.4 2.3c.2.6.8 1 1.4 1h10.7a1.6 1.6 0 0 0 1.6-1.6V21.2c0-3-1.2-3.9-3.6-5l-17-6.3a8 8 0 0 0-2.3-.4c-.8 0-1.6.2-2.3.4-3.3 1-13.8 5-17 6.4-2.3 1-3.6 2-3.6 4.9V45c0 10.2 5.4 14 21 23 .7.4 1.4.5 1.9.5.4 0 1.1-.2 1.8-.5 16-8.5 21-12.8 21-23v-2.7a1.6 1.6 0 0 0-1.6-1.6H82.9c-.6 0-1.2.5-1.4 1Z"/>
  <path fill="#154273" d="M11.9 113.5v2.6a15 15 0 0 1-3.5.4c-2.2 0-4-.7-5.6-2-1.4-1.2-2.2-3-2.2-5.6 0-2.8.8-5 2.4-6.4a8.3 8.3 0 0 1 5.8-2 15.8 15.8 0 0 1 3 .2l-.2 2.7a18.7 18.7 0 0 0-3-.2c-1.2 0-2.4.4-3.3 1.3-1 1-1.4 2.3-1.4 4.1 0 1.8.5 3.1 1.4 4 1 .8 2 1.2 3.2 1.2a16.1 16.1 0 0 0 3.4-.3ZM24.9 110.1c0 2-.6 3.5-1.8 4.7a5.9 5.9 0 0 1-4.2 1.7c-1.7 0-3-.5-4-1.5-1.1-1-1.7-2.5-1.7-4.4 0-2 .6-3.5 1.8-4.7a5.8 5.8 0 0 1 4.2-1.7c1.7 0 3 .5 4 1.5 1.1 1 1.7 2.5 1.7 4.4Zm-3 .1c0-1.1-.3-2-.8-2.6-.5-.5-1.2-.8-2-.8s-1.5.3-2 1c-.6.6-.9 1.5-.9 2.7 0 1.1.3 2 .8 2.6.5.5 1.2.8 2 .8s1.5-.3 2-1c.6-.6.9-1.5.9-2.7ZM34.2 104.4l-.2 2.8h-.6l-.7-.1c-.4 0-.7 0-1.1.2-.4 0-.8.3-1.2.6v8.4h-3v-11.8l3-.1v1.3c.4-.5.8-.9 1.2-1 .4-.3.8-.4 1.2-.4a5.3 5.3 0 0 1 1.4.1ZM46.7 110.1c0 2-.6 3.5-1.8 4.7a5.9 5.9 0 0 1-4.2 1.7c-1.6 0-3-.5-4-1.5s-1.6-2.5-1.6-4.4c0-2 .6-3.5 1.8-4.7a5.8 5.8 0 0 1 4.2-1.7c1.6 0 3 .5 4 1.5s1.6 2.5 1.6 4.4Zm-3 .1c0-1.1-.2-2-.8-2.6-.5-.5-1.2-.8-2-.8s-1.4.3-2 1c-.5.6-.8 1.5-.8 2.7 0 1.1.2 2 .7 2.6.6.5 1.3.8 2.1.8s1.4-.3 2-1c.5-.6.8-1.5.8-2.7ZM56.5 116.3V109c0-.8-.2-1.3-.6-1.6-.3-.4-.8-.5-1.5-.5a5.6 5.6 0 0 0-2.1.4v8.9h-3v-11.8l2.9-.1v.9a5.3 5.3 0 0 1 3-1 4 4 0 0 1 3.1 1c.7.8 1.1 1.8 1.1 3.2v7.8h-3ZM64.6 112.9c0 .4.1.7.4.9.3.2.7.3 1.3.3h1.2l1.1-.5v-2.2a10.8 10.8 0 0 0-1.5 0c-1 0-1.6.1-2 .4-.3.3-.5.6-.5 1Zm6.8-4.4v7.8h-2.7v-.8c-.5.3-1 .6-1.5.7a7 7 0 0 1-1.8.2c-1.3 0-2.2-.3-2.9-.9-.6-.6-1-1.4-1-2.4 0-1.1.5-2 1.4-2.7.9-.7 2.2-1 4-1h1.7v-.6c0-.6-.2-1-.6-1.4-.4-.3-1-.5-2-.5a7.6 7.6 0 0 0-3.4.7l-.4-2.4 2.1-.7c.7-.2 1.4-.2 2.2-.2 1.7 0 3 .3 3.7 1.1.8.7 1.2 1.8 1.2 3.1ZM78 103.5l-.5 12.8h-2.9l.7-15.7h4.9l3 9.3 3-9.3h4.6l.7 15.7h-3l-.6-12.8h-.1l-3.1 9.8h-3.4l-3.2-9.8ZM94.2 110.4c0-2 .5-3.6 1.6-4.6 1-1 2.3-1.6 3.8-1.6s2.7.4 3.5 1.3c.9.9 1.3 2 1.3 3.6a29.9 29.9 0 0 1 0 2.1H97c.2 1 .6 1.6 1.2 2a4 4 0 0 0 2.5.8 11.7 11.7 0 0 0 3.3-.6v2.4l-1.7.5-2 .1c-1.9 0-3.4-.5-4.5-1.5-1-1-1.6-2.5-1.6-4.5ZM97 109h4.6a3 3 0 0 0-.6-2c-.4-.4-1-.7-1.6-.7-.6 0-1.1.3-1.5.7-.5.5-.8 1.1-.9 2ZM109.9 99.6v16.7h-3V99.7l3-.1ZM118.8 106.8c-1 0-1.8.3-2.4 1-.6.6-1 1.5-1 2.7 0 1.2.3 2 .8 2.6.6.5 1.3.8 2.1.8l1-.1c.4 0 .7-.2 1-.4V107a14.5 14.5 0 0 0-1.5-.1Zm4.5-7.2v16.7h-2.8v-.8a5.1 5.1 0 0 1-3.1 1c-1.5 0-2.7-.6-3.6-1.5-.9-1-1.3-2.5-1.3-4.4a6 6 0 0 1 1.8-4.6 6.2 6.2 0 0 1 5.2-1.7l.9.1v-4.7l3-.1ZM125.9 110.4c0-2 .5-3.6 1.6-4.6 1-1 2.3-1.6 3.8-1.6s2.6.4 3.5 1.3c.8.9 1.3 2 1.3 3.6a29.9 29.9 0 0 1-.1 2.1h-7.3c.2 1 .6 1.6 1.2 2a4 4 0 0 0 2.4.8 11.7 11.7 0 0 0 3.4-.6v2.4l-1.8.5-2 .1c-1.8 0-3.3-.5-4.4-1.5-1-1-1.6-2.5-1.6-4.5Zm2.8-1.3h4.6a3 3 0 0 0-.6-2c-.4-.4-1-.7-1.6-.7-.6 0-1.1.3-1.6.7-.4.5-.7 1.1-.8 2ZM145.4 104.4l-.2 2.8h-.7l-.7-.1c-.3 0-.7 0-1 .2-.5 0-.9.3-1.2.6v8.4h-3v-11.8l3-.1v1.3c.3-.5.7-.9 1.1-1 .4-.3.8-.4 1.3-.4a5.3 5.3 0 0 1 1.4.1Z"/>
  <defs>
    <linearGradient id="a" x1="45.8" x2="122.8" y1="65.4" y2="-11.6" gradientUnits="userSpaceOnUse">
      <stop stop-color="#C9005D"/>
      <stop offset=".2" stop-color="#C9005D"/>
      <stop offset="1" stop-color="#315BBC"/>
      <stop offset="1" stop-color="#315BBC"/>
    </linearGradient>
  </defs>
</svg>
