<svg class="plot" fill="currentColor" text-anchor="middle" width="640" height="460" viewBox="0 0 640 400" style="font-family: 'RO Sans', sans-serif; font-size: 14px;" xmlns="http://www.w3.org/2000/svg">

<style>
        line[stroke-opacity] {
            stroke-opacity: 1;
            stroke: #949494;
        }
</style>

<!-- replace the below code -->
<g transform="translate(40,0)" fill="none" text-anchor="end"><g class="tick" opacity="1" transform="translate(0,320.01993492840796)"><line stroke="currentColor" x2="0"></line><line stroke="currentColor" x2="580" stroke-opacity="0.1"></line><text fill="currentColor" x="-9" dy="0.32em">0m</text></g><g class="tick" opacity="1" transform="translate(0,277.9631239410985)"><line stroke="currentColor" x2="0"></line><line stroke="currentColor" x2="580" stroke-opacity="0.1"></line><text fill="currentColor" x="-9" dy="0.32em">0.5m</text></g><g class="tick" opacity="1" transform="translate(0,235.90631295378898)"><line stroke="currentColor" x2="0"></line><line stroke="currentColor" x2="580" stroke-opacity="0.1"></line><text fill="currentColor" x="-9" dy="0.32em">1m</text></g><g class="tick" opacity="1" transform="translate(0,193.8495019664794)"><line stroke="currentColor" x2="0"></line><line stroke="currentColor" x2="580" stroke-opacity="0.1"></line><text fill="currentColor" x="-9" dy="0.32em">1.5m</text></g><g class="tick" opacity="1" transform="translate(0,151.79269097916992)"><line stroke="currentColor" x2="0"></line><line stroke="currentColor" x2="580" stroke-opacity="0.1"></line><text fill="currentColor" x="-9" dy="0.32em">2m</text></g><g class="tick" opacity="1" transform="translate(0,109.73587999186037)"><line stroke="currentColor" x2="0"></line><line stroke="currentColor" x2="580" stroke-opacity="0.1"></line><text fill="currentColor" x="-9" dy="0.32em">2.5m</text></g><g class="tick" opacity="1" transform="translate(0,67.67906900455088)"><line stroke="currentColor" x2="0"></line><line stroke="currentColor" x2="580" stroke-opacity="0.1"></line><text fill="currentColor" x="-9" dy="0.32em">3m</text></g><text fill="currentColor" transform="translate(-40,40)" dy="-1em" text-anchor="start">↑ Aantal downloads CoronaCheck Scanner (miljoen)</text></g><g transform="translate(0,320)" fill="none" text-anchor="middle"><g class="tick" opacity="1" transform="translate(46.33026737475066,0)"><line stroke="currentColor" y2="6"></line><text fill="currentColor" dy="0.32em" transform="translate(0, 11.82842712474619) rotate(-45)" text-anchor="end">apr. 2021</text></g><g class="tick" opacity="1" transform="translate(93.80727268538067,0)"><line stroke="currentColor" y2="6"></line><text fill="currentColor" dy="0.32em" transform="translate(0, 11.82842712474619) rotate(-45)" text-anchor="end">mei 2021</text></g><g class="tick" opacity="1" transform="translate(142.86684483969833,0)"><line stroke="currentColor" y2="6"></line><text fill="currentColor" dy="0.32em" transform="translate(0, 11.82842712474619) rotate(-45)" text-anchor="end">jun. 2021</text></g><g class="tick" opacity="1" transform="translate(190.34385015032836,0)"><line stroke="currentColor" y2="6"></line><text fill="currentColor" dy="0.32em" transform="translate(0, 11.82842712474619) rotate(-45)" text-anchor="end">jul. 2021</text></g><g class="tick" opacity="1" transform="translate(239.403422304646,0)"><line stroke="currentColor" y2="6"></line><text fill="currentColor" dy="0.32em" transform="translate(0, 11.82842712474619) rotate(-45)" text-anchor="end">aug. 2021</text></g><g class="tick" opacity="1" transform="translate(288.4629944589637,0)"><line stroke="currentColor" y2="6"></line><text fill="currentColor" dy="0.32em" transform="translate(0, 11.82842712474619) rotate(-45)" text-anchor="end">sep. 2021</text></g><g class="tick" opacity="1" transform="translate(335.93999976959367,0)"><line stroke="currentColor" y2="6"></line><text fill="currentColor" dy="0.32em" transform="translate(0, 11.82842712474619) rotate(-45)" text-anchor="end">okt. 2021</text></g><g class="tick" opacity="1" transform="translate(384.99957192391133,0)"><line stroke="currentColor" y2="6"></line><text fill="currentColor" dy="0.32em" transform="translate(0, 11.82842712474619) rotate(-45)" text-anchor="end">nov. 2021</text></g><g class="tick" opacity="1" transform="translate(432.4765772345413,0)"><line stroke="currentColor" y2="6"></line><text fill="currentColor" dy="0.32em" transform="translate(0, 11.82842712474619) rotate(-45)" text-anchor="end">dec. 2021</text></g><g class="tick" opacity="1" transform="translate(481.536149388859,0)"><line stroke="currentColor" y2="6"></line><text fill="currentColor" dy="0.32em" transform="translate(0, 11.82842712474619) rotate(-45)" text-anchor="end">jan. 2022</text></g><g class="tick" opacity="1" transform="translate(530.5957215431766,0)"><line stroke="currentColor" y2="6"></line><text fill="currentColor" dy="0.32em" transform="translate(0, 11.82842712474619) rotate(-45)" text-anchor="end">feb. 2022</text></g><g class="tick" opacity="1" transform="translate(574.9075931664313,0)"><line stroke="currentColor" y2="6"></line><text fill="currentColor" dy="0.32em" transform="translate(0, 11.82842712474619) rotate(-45)" text-anchor="end">mrt. 2022</text></g><text fill="currentColor" transform="translate(640,-10)" dy="-0.32em" text-anchor="end">Maand →</text></g><g fill="none" stroke="#ec025f" stroke-width="3" stroke-miterlimit="1"><path d="M40,320C45.322446422620395,319.9973644398448,50.6448928452408,319.9947288796896,51.077967905813665,319.9920933195344C58.463279843022775,319.94714860752595,58.650422237665296,319.90220389551746,62.15593581162733,319.85725918350903C66.0835105956767,319.80690316182023,69.46718932667288,319.7565471401315,73.233903717441,319.7061911184427C76.85800308673373,319.6577416721853,78.61430453434869,319.60929222592796,84.31187162325466,319.56084277967057C87.41124260911971,319.5344871781185,91.77097387956438,319.5081315765664,95.38983952906833,319.4817759750144C99.1626994615301,319.4542988585027,102.18850178972163,319.4268217419909,106.467807434882,319.3993446254792C109.80391918273865,319.3779236897497,116.50781023399486,319.35650275402014,117.54577534069567,319.33508181829063C124.93108727790477,319.1826679352726,123.6165028511176,319.03025405225463,128.62374324650932,318.8778401692366C131.79057409260145,318.7814459584537,137.13388121298993,318.6850517476708,139.701711152323,318.58865753688787C147.0870230895321,318.3114190388595,146.21828491630689,318.0341805408312,150.77967905813665,317.75694204280285C154.03096404110752,317.55933110691046,159.23790371902376,317.36172017101813,161.85764696395034,317.16410923512575C169.24295890115945,316.6070247167878,172.2319229599374,316.0499401984499,172.935614869764,315.492855680112C180.3209268069731,309.6462019302782,179.10080266153284,303.7995481804444,184.01358277557765,297.9528944306106C187.19467310018206,294.167108532777,190.46620870437985,290.38132263494333,195.09155068139134,286.5955367371097C198.32765264271896,283.9468268190029,201.33271913992854,281.2981169008961,206.16951858720498,278.64940698278934C209.36331457024332,276.90043244107113,212.85855334965726,275.15145789935286,217.24748649301864,273.40248335763465C220.5466971893325,272.08775940829736,224.3342326195471,270.77303545896007,228.3254543988323,269.4583115096228C231.79278097324874,268.31616067470344,235.55118355034222,267.17400983978405,239.403422304646,266.0318590048647C242.9600478827432,264.9773545640429,246.92897524155828,263.92285012322105,250.4813902104597,262.86834568239925C254.33945832584774,261.7231106813408,257.33731166929124,260.57787568028243,261.5593581162733,259.432640679224C264.9171698684697,258.52183034260884,268.6839057128228,257.6110200059936,272.637326022087,256.70020966937847C276.12682642311916,255.89627970841906,280.1217046576958,255.09234974745965,283.7152939279007,254.28841978650024C287.5189364055434,253.437498348731,291.2112653340255,252.58657691096178,294.7932618337143,251.73565547319254C298.61166608947025,250.82857417381823,304.0895158686949,249.9214928744439,305.871229739528,249.0144115750696C313.25654167673713,245.25450463493016,313.83583550967217,241.4945976947907,316.94919764534166,237.73469075465127C322.4507066458631,231.09069594424608,323.71276450557474,224.44670113384086,328.0271655511553,217.80270632343567C331.3508374473034,212.6843924262801,333.4166003130399,207.56607852912452,339.10513345696893,202.44776463196897C342.2050801957148,199.6585569272906,346.453086043573,196.86934922261221,350.1831013627827,194.08014151793384C353.8398512021598,191.34571981903494,357.16331454666226,188.61129812013604,361.2610692685963,185.87687642123714C364.6728956654112,183.60017301525014,368.98087004126626,181.3234696092631,372.33903717440995,179.0467662032761C376.5601847335005,176.1849964807076,380.9427258314741,173.32322675813916,383.4170050802237,170.46145703557067C390.8023170174328,161.91955049680416,389.8248064227876,153.37764395803765,394.49497298603734,144.83573741927114C397.7211491144195,138.93494253475967,400.33733617227375,133.03414765024823,405.572940891851,127.13335276573676C408.71122392684794,123.59634692383004,411.919987994658,120.05934108192331,416.6509087976646,116.52233524001659C419.86449675598783,114.11974177980757,422.5414935048836,111.71714831959854,427.7288767034783,109.31455485938952C430.8725673697819,107.85852002513487,434.7896422219481,106.40248519088023,438.806844609292,104.94645035662558C442.25973105017476,103.69495181313921,446.0855113558558,102.44345326965284,449.88481251510564,101.19195472616647C453.4818746844286,100.007074171284,457.5707432486091,98.82219361640155,460.9627804209194,97.63731306151908C465.10337742922036,96.19095129379151,465.99068248238996,94.74458952606393,472.040748326733,93.29822775833637C475.1219589238442,92.56161673283064,479.49205688463655,91.82500570732493,483.1187162325466,91.08839468181921C486.88245203951874,90.32394204743987,490.6128198076783,89.55948941306052,494.1966841383603,88.79503677868118C498.0126814016659,87.9810692588328,501.73655212511784,87.16710173898443,505.274652044174,86.35313421913605C509.153021846252,85.46088495510328,513.2423282764412,84.5686356910705,516.3526199499877,83.67638642703773C521.8934409054293,82.08689131258336,524.0636575925752,80.497396198129,527.4305878558014,78.90790108367463C531.6299411591818,76.92542712735482,534.6417060307566,74.94295317103501,538.508555761615,72.9604792147152C542.0547129610159,71.14241935148182,543.5217281427631,69.32435948824842,549.5865236674287,67.50629962501503C552.6671363811512,66.58281616935568,555.5842449559165,65.65933271369632,560.6644915732422,64.73584925803696C563.8213488315475,64.16199809105214,566.3792703110211,63.5881469240673,571.742459479056,63.01429575708247C574.8678201673424,62.67988803398537,578.0095224602712,62.34548031088827,582.8204273848696,62.01107258779117C585.1873587253191,61.84654634320882,588.1586117387642,61.68202009862648,590.7332616033079,61.51749385404413C594.5654006484557,61.27261106260202,598.2286352710371,61.0277282711599,601.8112295091216,60.782845479717786C605.6288622746188,60.521896986478524,609.2590298447769,60.26094849323926,612.8891974149352,60"></path></g>

</svg>
