<svg class="plot" fill="currentColor" text-anchor="middle" width="640" height="460" viewBox="0 0 640 400" style="font-family: 'RO Sans', sans-serif; font-size: 14px;" xmlns="http://www.w3.org/2000/svg">
<style>
        line[stroke-opacity] {
            stroke-opacity: 1;
            stroke: #949494;
        }
</style>

<!-- replace the below code -->

<g transform="translate(40,0)" fill="none" text-anchor="end"><g class="tick" opacity="1" transform="translate(0,320)"><line stroke="currentColor" x2="-6"></line><line stroke="currentColor" x2="580" stroke-opacity="0.1"></line><text fill="currentColor" x="-9" dy="0.32em">0M</text></g><g class="tick" opacity="1" transform="translate(0,288.8888888888889)"><line stroke="currentColor" x2="-6"></line><line stroke="currentColor" x2="580" stroke-opacity="0.1"></line><text fill="currentColor" x="-9" dy="0.32em">2M</text></g><g class="tick" opacity="1" transform="translate(0,257.77777777777777)"><line stroke="currentColor" x2="-6"></line><line stroke="currentColor" x2="580" stroke-opacity="0.1"></line><text fill="currentColor" x="-9" dy="0.32em">4M</text></g><g class="tick" opacity="1" transform="translate(0,226.6666666666667)"><line stroke="currentColor" x2="-6"></line><line stroke="currentColor" x2="580" stroke-opacity="0.1"></line><text fill="currentColor" x="-9" dy="0.32em">6M</text></g><g class="tick" opacity="1" transform="translate(0,195.55555555555554)"><line stroke="currentColor" x2="-6"></line><line stroke="currentColor" x2="580" stroke-opacity="0.1"></line><text fill="currentColor" x="-9" dy="0.32em">8M</text></g><g class="tick" opacity="1" transform="translate(0,164.44444444444446)"><line stroke="currentColor" x2="-6"></line><line stroke="currentColor" x2="580" stroke-opacity="0.1"></line><text fill="currentColor" x="-9" dy="0.32em">10M</text></g><g class="tick" opacity="1" transform="translate(0,133.33333333333334)"><line stroke="currentColor" x2="-6"></line><line stroke="currentColor" x2="580" stroke-opacity="0.1"></line><text fill="currentColor" x="-9" dy="0.32em">12M</text></g><g class="tick" opacity="1" transform="translate(0,102.22222222222223)"><line stroke="currentColor" x2="-6"></line><line stroke="currentColor" x2="580" stroke-opacity="0.1"></line><text fill="currentColor" x="-9" dy="0.32em">14M</text></g><g class="tick" opacity="1" transform="translate(0,71.11111111111113)"><line stroke="currentColor" x2="-6"></line><line stroke="currentColor" x2="580" stroke-opacity="0.1"></line><text fill="currentColor" x="-9" dy="0.32em">16M</text></g><g class="tick" opacity="1" transform="translate(0,40)"><line stroke="currentColor" x2="-6"></line><line stroke="currentColor" x2="580" stroke-opacity="0.1"></line><text fill="currentColor" x="-9" dy="0.32em">18M</text></g><text fill="currentColor" transform="translate(20,40)" dy="-1em" text-anchor="start">↑ Number of downloads CoronaCheck (million)</text></g><g transform="translate(0,320)" fill="none" text-anchor="middle"><g class="tick" opacity="1" transform="translate(43.42688330871492,0)"><line stroke="currentColor" y2="6"></line><text fill="currentColor" dy="0.32em" transform="translate(0, 11.82842712474619) rotate(-45)" text-anchor="end">Apr 2021</text></g><g class="tick" opacity="1" transform="translate(69.1285081240768,0)"><line stroke="currentColor" y2="6"></line><text fill="currentColor" dy="0.32em" transform="translate(0, 11.82842712474619) rotate(-45)" text-anchor="end">May 2021</text></g><g class="tick" opacity="1" transform="translate(95.68685376661743,0)"><line stroke="currentColor" y2="6"></line><text fill="currentColor" dy="0.32em" transform="translate(0, 11.82842712474619) rotate(-45)" text-anchor="end">Jun 2021</text></g><g class="tick" opacity="1" transform="translate(121.38847858197931,0)"><line stroke="currentColor" y2="6"></line><text fill="currentColor" dy="0.32em" transform="translate(0, 11.82842712474619) rotate(-45)" text-anchor="end">Jul 2021</text></g><g class="tick" opacity="1" transform="translate(147.94682422451993,0)"><line stroke="currentColor" y2="6"></line><text fill="currentColor" dy="0.32em" transform="translate(0, 11.82842712474619) rotate(-45)" text-anchor="end">Aug 2021</text></g><g class="tick" opacity="1" transform="translate(174.50516986706057,0)"><line stroke="currentColor" y2="6"></line><text fill="currentColor" dy="0.32em" transform="translate(0, 11.82842712474619) rotate(-45)" text-anchor="end">Sep 2021</text></g><g class="tick" opacity="1" transform="translate(200.20679468242247,0)"><line stroke="currentColor" y2="6"></line><text fill="currentColor" dy="0.32em" transform="translate(0, 11.82842712474619) rotate(-45)" text-anchor="end">Oct 2021</text></g><g class="tick" opacity="1" transform="translate(226.76514032496306,0)"><line stroke="currentColor" y2="6"></line><text fill="currentColor" dy="0.32em" transform="translate(0, 11.82842712474619) rotate(-45)" text-anchor="end">Nov 2021</text></g><g class="tick" opacity="1" transform="translate(252.46676514032495,0)"><line stroke="currentColor" y2="6"></line><text fill="currentColor" dy="0.32em" transform="translate(0, 11.82842712474619) rotate(-45)" text-anchor="end">Dec 2021</text></g><g class="tick" opacity="1" transform="translate(279.02511078286557,0)"><line stroke="currentColor" y2="6"></line><text fill="currentColor" dy="0.32em" transform="translate(0, 11.82842712474619) rotate(-45)" text-anchor="end">Jan 2022</text></g><g class="tick" opacity="1" transform="translate(305.5834564254062,0)"><line stroke="currentColor" y2="6"></line><text fill="currentColor" dy="0.32em" transform="translate(0, 11.82842712474619) rotate(-45)" text-anchor="end">Feb 2022</text></g><g class="tick" opacity="1" transform="translate(329.57163958641064,0)"><line stroke="currentColor" y2="6"></line><text fill="currentColor" dy="0.32em" transform="translate(0, 11.82842712474619) rotate(-45)" text-anchor="end">Mar 2022</text></g><g class="tick" opacity="1" transform="translate(356.1299852289512,0)"><line stroke="currentColor" y2="6"></line><text fill="currentColor" dy="0.32em" transform="translate(0, 11.82842712474619) rotate(-45)" text-anchor="end">Apr 2022</text></g><g class="tick" opacity="1" transform="translate(381.83161004431315,0)"><line stroke="currentColor" y2="6"></line><text fill="currentColor" dy="0.32em" transform="translate(0, 11.82842712474619) rotate(-45)" text-anchor="end">May 2022</text></g><g class="tick" opacity="1" transform="translate(408.38995568685374,0)"><line stroke="currentColor" y2="6"></line><text fill="currentColor" dy="0.32em" transform="translate(0, 11.82842712474619) rotate(-45)" text-anchor="end">Jun 2022</text></g><g class="tick" opacity="1" transform="translate(434.09158050221566,0)"><line stroke="currentColor" y2="6"></line><text fill="currentColor" dy="0.32em" transform="translate(0, 11.82842712474619) rotate(-45)" text-anchor="end">Jul 2022</text></g><g class="tick" opacity="1" transform="translate(460.64992614475625,0)"><line stroke="currentColor" y2="6"></line><text fill="currentColor" dy="0.32em" transform="translate(0, 11.82842712474619) rotate(-45)" text-anchor="end">Aug 2022</text></g><g class="tick" opacity="1" transform="translate(487.2082717872969,0)"><line stroke="currentColor" y2="6"></line><text fill="currentColor" dy="0.32em" transform="translate(0, 11.82842712474619) rotate(-45)" text-anchor="end">Sep 2022</text></g><g class="tick" opacity="1" transform="translate(512.9098966026588,0)"><line stroke="currentColor" y2="6"></line><text fill="currentColor" dy="0.32em" transform="translate(0, 11.82842712474619) rotate(-45)" text-anchor="end">Oct 2022</text></g><g class="tick" opacity="1" transform="translate(539.4682422451993,0)"><line stroke="currentColor" y2="6"></line><text fill="currentColor" dy="0.32em" transform="translate(0, 11.82842712474619) rotate(-45)" text-anchor="end">Nov 2022</text></g><g class="tick" opacity="1" transform="translate(565.1698670605614,0)"><line stroke="currentColor" y2="6"></line><text fill="currentColor" dy="0.32em" transform="translate(0, 11.82842712474619) rotate(-45)" text-anchor="end">Dec 2022</text></g><g class="tick" opacity="1" transform="translate(591.7282127031019,0)"><line stroke="currentColor" y2="6"></line><text fill="currentColor" dy="0.32em" transform="translate(0, 11.82842712474619) rotate(-45)" text-anchor="end">Jan 2023</text></g><g class="tick" opacity="1" transform="translate(618.2865583456426,0)"><line stroke="currentColor" y2="6"></line><text fill="currentColor" dy="0.32em" transform="translate(0, 11.82842712474619) rotate(-45)" text-anchor="end">Feb 2023 *</text></g><text fill="currentColor" transform="translate(640,80)" dy="-0.32em" text-anchor="end">Month →</text></g><g fill="none" stroke="#ec025f" stroke-width="3" stroke-miterlimit="1"><path d="M40,319.923L45.997,319.914L51.994,319.505L57.991,318.793L63.988,318.12L69.985,317.889L75.982,317.659L81.979,317.489L87.976,316.554L93.973,316.096L99.97,314.256L105.968,311.932L111.965,305.265L117.962,272.614L123.959,249.082L129.956,234.526L135.953,221.424L141.95,211.008L147.947,201.329L153.944,192.031L159.941,183.789L165.938,177.844L171.935,173.061L177.932,168.409L183.929,163.693L189.926,152.027L195.923,139.805L201.92,131.347L207.917,126.34L213.914,122.117L219.911,117.967L225.908,114.558L231.905,109.743L237.903,106.057L243.9,103.363L249.897,100.639L255.894,98.417L261.891,96.4L267.888,94.472L273.885,92.968L279.882,91.428L285.879,89.773L291.876,88.246L297.873,86.385L303.87,83.774L309.867,81.385L309.867,81.385L315.864,79.368L321.861,77.927L327.858,76.688L333.855,75.714L338.139,75.212L344.136,74.388L350.133,73.478L354.417,72.858L365.554,71.417L368.124,71.21L374.121,70.286L380.118,69.542L386.115,68.81L392.112,68.133L398.109,67.49L404.106,66.773L410.103,66.024L416.1,65.4L422.097,64.805L428.095,64.183L434.092,63.509L440.089,62.837L446.086,62.157L452.083,61.496L458.08,60.686L464.077,60.1L470.074,59.58L476.071,59.057L482.068,58.5L488.065,57.952L494.062,57.466L500.059,56.974L506.056,56.501L512.053,55.996L518.05,55.471L524.047,54.959L530.044,54.455L536.041,53.924L542.038,53.427L548.035,52.996L554.032,52.562L560.03,52.016L566.027,51.421L572.024,50.994L578.021,50.629L584.018,50.267L590.015,49.756L596.012,49.293L602.009,48.858L608.006,48.457L614.003,48.03L620,47.585"></path></g><g stroke="currentColor"><line x1="40" x2="620" y1="320" y2="320"></line></g>

</svg>
