<svg class="plot" fill="currentColor" text-anchor="middle" width="640" height="460" viewBox="0 0 640 400" style="font-family: 'RO Sans', sans-serif; font-size: 14px;" xmlns="http://www.w3.org/2000/svg">

<g transform="translate(40,0)" fill="none" text-anchor="end"><g class="tick" opacity="1" transform="translate(0,320.0895731964839)"><line stroke="currentColor" x2="0"></line><line stroke="currentColor" x2="580" stroke-opacity="0.1"></line><text fill="currentColor" x="-9" dy="0.32em">0m</text></g><g class="tick" opacity="1" transform="translate(0,283.8764353416687)"><line stroke="currentColor" x2="0"></line><line stroke="currentColor" x2="580" stroke-opacity="0.1"></line><text fill="currentColor" x="-9" dy="0.32em">2m</text></g><g class="tick" opacity="1" transform="translate(0,247.6632974868535)"><line stroke="currentColor" x2="0"></line><line stroke="currentColor" x2="580" stroke-opacity="0.1"></line><text fill="currentColor" x="-9" dy="0.32em">4m</text></g><g class="tick" opacity="1" transform="translate(0,211.4501596320383)"><line stroke="currentColor" x2="0"></line><line stroke="currentColor" x2="580" stroke-opacity="0.1"></line><text fill="currentColor" x="-9" dy="0.32em">6m</text></g><g class="tick" opacity="1" transform="translate(0,175.23702177722308)"><line stroke="currentColor" x2="0"></line><line stroke="currentColor" x2="580" stroke-opacity="0.1"></line><text fill="currentColor" x="-9" dy="0.32em">8m</text></g><g class="tick" opacity="1" transform="translate(0,139.0238839224079)"><line stroke="currentColor" x2="0"></line><line stroke="currentColor" x2="580" stroke-opacity="0.1"></line><text fill="currentColor" x="-9" dy="0.32em">10m</text></g><g class="tick" opacity="1" transform="translate(0,102.81074606759272)"><line stroke="currentColor" x2="0"></line><line stroke="currentColor" x2="580" stroke-opacity="0.1"></line><text fill="currentColor" x="-9" dy="0.32em">12m</text></g><g class="tick" opacity="1" transform="translate(0,66.59760821277752)"><line stroke="currentColor" x2="0"></line><line stroke="currentColor" x2="580" stroke-opacity="0.1"></line><text fill="currentColor" x="-9" dy="0.32em">14m</text></g><text fill="currentColor" transform="translate(-40,40)" dy="-1em" text-anchor="start">↑ Aantal downloads CoronaCheck (miljoen)</text></g><g transform="translate(0,320)" fill="none" text-anchor="middle"><g class="tick" opacity="1" transform="translate(47.149565800270025,0)"><line stroke="currentColor" y2="6"></line><text fill="currentColor" dy="0.32em" transform="translate(0, 11.82842712474619) rotate(-45)" text-anchor="end">apr. 2021</text></g><g class="tick" opacity="1" transform="translate(100.77130930229522,0)"><line stroke="currentColor" y2="6"></line><text fill="currentColor" dy="0.32em" transform="translate(0, 11.82842712474619) rotate(-45)" text-anchor="end">mei 2021</text></g><g class="tick" opacity="1" transform="translate(156.1804442543879,0)"><line stroke="currentColor" y2="6"></line><text fill="currentColor" dy="0.32em" transform="translate(0, 11.82842712474619) rotate(-45)" text-anchor="end">jun. 2021</text></g><g class="tick" opacity="1" transform="translate(209.80218775641313,0)"><line stroke="currentColor" y2="6"></line><text fill="currentColor" dy="0.32em" transform="translate(0, 11.82842712474619) rotate(-45)" text-anchor="end">jul. 2021</text></g><g class="tick" opacity="1" transform="translate(265.2113227085058,0)"><line stroke="currentColor" y2="6"></line><text fill="currentColor" dy="0.32em" transform="translate(0, 11.82842712474619) rotate(-45)" text-anchor="end">aug. 2021</text></g><g class="tick" opacity="1" transform="translate(320.62045766059845,0)"><line stroke="currentColor" y2="6"></line><text fill="currentColor" dy="0.32em" transform="translate(0, 11.82842712474619) rotate(-45)" text-anchor="end">sep. 2021</text></g><g class="tick" opacity="1" transform="translate(374.2422011626237,0)"><line stroke="currentColor" y2="6"></line><text fill="currentColor" dy="0.32em" transform="translate(0, 11.82842712474619) rotate(-45)" text-anchor="end">okt. 2021</text></g><g class="tick" opacity="1" transform="translate(429.6513361147164,0)"><line stroke="currentColor" y2="6"></line><text fill="currentColor" dy="0.32em" transform="translate(0, 11.82842712474619) rotate(-45)" text-anchor="end">nov. 2021</text></g><g class="tick" opacity="1" transform="translate(483.27307961674154,0)"><line stroke="currentColor" y2="6"></line><text fill="currentColor" dy="0.32em" transform="translate(0, 11.82842712474619) rotate(-45)" text-anchor="end">dec. 2021</text></g><g class="tick" opacity="1" transform="translate(538.6822145688343,0)"><line stroke="currentColor" y2="6"></line><text fill="currentColor" dy="0.32em" transform="translate(0, 11.82842712474619) rotate(-45)" text-anchor="end">jan. 2022</text></g><g class="tick" opacity="1" transform="translate(594.0913495209269,0)"><line stroke="currentColor" y2="6"></line><text fill="currentColor" dy="0.32em" transform="translate(0, 11.82842712474619) rotate(-45)" text-anchor="end">feb. 2022</text></g><text fill="currentColor" transform="translate(640,-10)" dy="-0.32em" text-anchor="end">Maand →</text></g><g fill="none" stroke="#ec025f" stroke-width="3" stroke-miterlimit="1"><path d="M40,320C46.168666462317226,319.99667442684034,52.337332924634445,319.99334885368063,52.51174015047255,319.990023280521C60.85290025078758,319.83097517906265,61.49909987444944,319.67192707760427,65.0234803009451,319.51287897614594C71.14099263732733,319.23680811970974,73.24364672109458,318.9607372632736,77.53522045141764,318.6846664068374C81.59739609751333,318.42335240407704,81.70580050157515,318.1620384013167,90.04696060189018,317.90072439855635C92.90691352338794,317.81112705998055,98.37335694808972,317.7215297214048,102.55870075236274,317.631932382829C106.71472318542403,317.5429627386427,110.07984172092624,317.4539930944564,115.07044090283526,317.3650234502701C118.78639074481538,317.29877755008766,126.05775303890404,317.2325316499053,127.5821810533078,317.1662857497229C135.92334115362283,316.8038103463651,133.0130083302457,316.4413349430073,140.09392120378035,316.0788595396495C143.56510950672137,315.9011677077189,150.53004756275593,315.72347587578827,152.6056613542529,315.5457840438577C160.94682145456792,314.83170321402156,161.3300826097099,314.11762238418544,165.11740150472545,313.4035415543493C169.89885439688072,312.5020215229767,174.72252233990304,311.60050149160406,177.629141655198,310.69898146023144C185.97030175551302,308.1118786787456,188.43745957137688,305.5247758972597,190.14088180567055,302.93767311577386C198.48204190598557,290.2693880236212,197.54295022725114,277.6011029314686,202.65262195614307,264.93281783931593C206.3353738032454,255.80226057495295,209.4046242730335,246.67170331058995,215.1643621066156,237.54114604622697C218.72695544205948,231.89358648730902,223.2619531379892,226.24602692839107,227.67610225708816,220.59846736947313C231.64934122420087,215.51501796548857,235.41823685104046,210.43156856150404,240.1878424075607,205.34811915751948C243.97979930318468,201.30664847560044,248.36449117570064,197.26517779368137,252.69958255803328,193.22370711176234C256.72809693867487,189.46804862036242,260.9533462603074,185.7123901289625,265.2113227085058,181.9567316375626C269.3012680480148,178.3492814483565,273.2693342974178,174.74183125915042,277.7230628589783,171.1343810699443C281.67113891388,167.93650146987616,285.1280027060538,164.73862186980804,290.2348030094509,161.5407422697399C293.9183018676974,159.2341343830315,298.01459063355605,156.92752649632308,302.7465431599234,154.62091860961468C306.5537286434689,152.76509186292301,311.0281337355532,150.90926511623132,315.258283310396,149.05343836953966C319.37251387703793,147.24846693944212,323.627446802394,145.44349550934456,327.7700234608685,143.63852407924702C331.96937981332576,141.80881304047165,336.90995057317815,139.9791020016963,340.2817636113411,138.14939096292093C348.62292371165614,133.62306861378673,348.71566037139996,129.09674626465255,352.79350376181367,124.57042391551835C357.0658794660248,119.82817469640186,360.03769341729304,115.08592547728539,365.30524391228613,110.3436762581689C368.950494001625,107.06194513739791,371.8402352360568,103.78021401662694,377.8169840627587,100.49848289585596C381.35473888564394,98.55596189713988,385.7387747389765,96.61344089842379,390.3287242132312,94.67091989970771C394.2008487613186,93.03219091445567,398.63228833582207,91.39346192920362,402.84046436370375,89.75473294395158C406.9747570002137,88.14477529672517,410.6843709133432,86.53481764949878,415.3522045141763,84.92486000227237C419.18715074208586,83.60216910660226,424.198286860364,82.27947821093215,427.86394466464884,80.95678731526205C433.04207458011194,79.08834632555096,435.48087154856756,77.21990533583988,440.3756848151214,75.3514643461288C444.1220177298712,73.92141960328809,447.83053497287517,72.49137486044738,452.88742496559394,71.06133011760667C456.58431722001814,70.01588096983006,461.2505858134993,68.97043182205347,465.3991651160665,67.92498267427686C469.59222017009364,66.86832556033418,473.22269257492957,65.81166844639151,477.9109052665391,64.75501133244883C481.7367661774177,63.89271616489592,486.02966328639826,63.030420997343015,490.42264541701167,62.16812582979011C494.40999851236893,61.385451281333985,498.66445390885525,60.60277673287786,502.9343855674841,59.820102184421735C507.01426150707346,59.072264674581945,510.61674698199727,58.32442716474215,515.4461257179566,57.57658965490236C519.2153921733213,56.992912334481424,523.8346367796543,56.4092350140605,527.9578658684293,55.82555769363957C532.1780499133903,55.22815559397165,536.4390572918915,54.63075349430373,540.4696060189018,54.033351394635815C544.8019745614787,53.391213998671255,548.6290500683658,52.7490766027067,552.9813461693743,52.10693920674214C556.9972171001676,51.514437951730585,561.6596784443672,50.92193669671904,565.4930863198468,50.32943544170748C570.1643309806284,49.607436005727095,574.3327869827779,48.8854365697467,578.0048264703194,48.163437133766315C583.1567631008814,47.15045909959953,586.1444636603296,46.137481065432745,590.516566620792,45.12450303126596C594.5183188353543,44.19733202724614,598.4340371893168,43.27016102322632,603.0283067712645,42.3429900192065C606.8982609039175,41.56199334613767,611.2191539128273,40.780996673068834,615.540046921737,40"></path></g>

</svg>
