<svg class="plot" fill="currentColor" text-anchor="middle" width="640" height="460" viewBox="0 0 640 400" style="font-family: 'RO Sans', sans-serif; font-size: 14px;" xmlns="http://www.w3.org/2000/svg">
<style>
        line[stroke-opacity] {
            stroke-opacity: 1;
            stroke: #949494;
        }
</style>

<!-- replace the below code -->
<g transform="translate(40,0)" fill="none" text-anchor="end"><g class="tick" opacity="1" transform="translate(0,320)"><line stroke="currentColor" x2="-6"></line><line stroke="currentColor" x2="580" stroke-opacity="0.1"></line><text fill="currentColor" x="-9" dy="0.32em">0M</text></g><g class="tick" opacity="1" transform="translate(0,288.8888888888889)"><line stroke="currentColor" x2="-6"></line><line stroke="currentColor" x2="580" stroke-opacity="0.1"></line><text fill="currentColor" x="-9" dy="0.32em">2M</text></g><g class="tick" opacity="1" transform="translate(0,257.77777777777777)"><line stroke="currentColor" x2="-6"></line><line stroke="currentColor" x2="580" stroke-opacity="0.1"></line><text fill="currentColor" x="-9" dy="0.32em">4M</text></g><g class="tick" opacity="1" transform="translate(0,226.6666666666667)"><line stroke="currentColor" x2="-6"></line><line stroke="currentColor" x2="580" stroke-opacity="0.1"></line><text fill="currentColor" x="-9" dy="0.32em">6M</text></g><g class="tick" opacity="1" transform="translate(0,195.55555555555554)"><line stroke="currentColor" x2="-6"></line><line stroke="currentColor" x2="580" stroke-opacity="0.1"></line><text fill="currentColor" x="-9" dy="0.32em">8M</text></g><g class="tick" opacity="1" transform="translate(0,164.44444444444446)"><line stroke="currentColor" x2="-6"></line><line stroke="currentColor" x2="580" stroke-opacity="0.1"></line><text fill="currentColor" x="-9" dy="0.32em">10M</text></g><g class="tick" opacity="1" transform="translate(0,133.33333333333334)"><line stroke="currentColor" x2="-6"></line><line stroke="currentColor" x2="580" stroke-opacity="0.1"></line><text fill="currentColor" x="-9" dy="0.32em">12M</text></g><g class="tick" opacity="1" transform="translate(0,102.22222222222223)"><line stroke="currentColor" x2="-6"></line><line stroke="currentColor" x2="580" stroke-opacity="0.1"></line><text fill="currentColor" x="-9" dy="0.32em">14M</text></g><g class="tick" opacity="1" transform="translate(0,71.11111111111113)"><line stroke="currentColor" x2="-6"></line><line stroke="currentColor" x2="580" stroke-opacity="0.1"></line><text fill="currentColor" x="-9" dy="0.32em">16M</text></g><g class="tick" opacity="1" transform="translate(0,40)"><line stroke="currentColor" x2="-6"></line><line stroke="currentColor" x2="580" stroke-opacity="0.1"></line><text fill="currentColor" x="-9" dy="0.32em">18M</text></g><text fill="currentColor" transform="translate(20,40)" dy="-1em" text-anchor="start">↑ Number of downloads CoronaCheck (million)</text></g><g transform="translate(0,320)" fill="none" text-anchor="middle"><g class="tick" opacity="1" transform="translate(45.12141280353201,0)"><line stroke="currentColor" y2="6"></line><text fill="currentColor" dy="0.32em" transform="translate(0, 11.82842712474619) rotate(-45)" text-anchor="end">Apr 2021</text></g><g class="tick" opacity="1" transform="translate(83.53200883002208,0)"><line stroke="currentColor" y2="6"></line><text fill="currentColor" dy="0.32em" transform="translate(0, 11.82842712474619) rotate(-45)" text-anchor="end">May 2021</text></g><g class="tick" opacity="1" transform="translate(123.22295805739515,0)"><line stroke="currentColor" y2="6"></line><text fill="currentColor" dy="0.32em" transform="translate(0, 11.82842712474619) rotate(-45)" text-anchor="end">Jun 2021</text></g><g class="tick" opacity="1" transform="translate(161.6335540838852,0)"><line stroke="currentColor" y2="6"></line><text fill="currentColor" dy="0.32em" transform="translate(0, 11.82842712474619) rotate(-45)" text-anchor="end">Jul 2021</text></g><g class="tick" opacity="1" transform="translate(201.32450331125827,0)"><line stroke="currentColor" y2="6"></line><text fill="currentColor" dy="0.32em" transform="translate(0, 11.82842712474619) rotate(-45)" text-anchor="end">Aug 2021</text></g><g class="tick" opacity="1" transform="translate(241.01545253863134,0)"><line stroke="currentColor" y2="6"></line><text fill="currentColor" dy="0.32em" transform="translate(0, 11.82842712474619) rotate(-45)" text-anchor="end">Sep 2021</text></g><g class="tick" opacity="1" transform="translate(279.42604856512145,0)"><line stroke="currentColor" y2="6"></line><text fill="currentColor" dy="0.32em" transform="translate(0, 11.82842712474619) rotate(-45)" text-anchor="end">Oct 2021</text></g><g class="tick" opacity="1" transform="translate(319.1169977924945,0)"><line stroke="currentColor" y2="6"></line><text fill="currentColor" dy="0.32em" transform="translate(0, 11.82842712474619) rotate(-45)" text-anchor="end">Nov 2021</text></g><g class="tick" opacity="1" transform="translate(357.5275938189846,0)"><line stroke="currentColor" y2="6"></line><text fill="currentColor" dy="0.32em" transform="translate(0, 11.82842712474619) rotate(-45)" text-anchor="end">Dec 2021</text></g><g class="tick" opacity="1" transform="translate(397.21854304635764,0)"><line stroke="currentColor" y2="6"></line><text fill="currentColor" dy="0.32em" transform="translate(0, 11.82842712474619) rotate(-45)" text-anchor="end">Jan 2022</text></g><g class="tick" opacity="1" transform="translate(436.90949227373073,0)"><line stroke="currentColor" y2="6"></line><text fill="currentColor" dy="0.32em" transform="translate(0, 11.82842712474619) rotate(-45)" text-anchor="end">Feb 2022</text></g><g class="tick" opacity="1" transform="translate(472.75938189845476,0)"><line stroke="currentColor" y2="6"></line><text fill="currentColor" dy="0.32em" transform="translate(0, 11.82842712474619) rotate(-45)" text-anchor="end">Mar 2022</text></g><g class="tick" opacity="1" transform="translate(512.4503311258278,0)"><line stroke="currentColor" y2="6"></line><text fill="currentColor" dy="0.32em" transform="translate(0, 11.82842712474619) rotate(-45)" text-anchor="end">Apr 2022</text></g><g class="tick" opacity="1" transform="translate(550.8609271523178,0)"><line stroke="currentColor" y2="6"></line><text fill="currentColor" dy="0.32em" transform="translate(0, 11.82842712474619) rotate(-45)" text-anchor="end">May 2022</text></g><g class="tick" opacity="1" transform="translate(590.551876379691,0)"><line stroke="currentColor" y2="6"></line><text fill="currentColor" dy="0.32em" transform="translate(0, 11.82842712474619) rotate(-45)" text-anchor="end">Jun 2022 *</text></g><text fill="currentColor" transform="translate(640,80)" dy="-0.32em" text-anchor="end">Month →</text></g><g fill="none" stroke="#ec025f" stroke-width="3" stroke-miterlimit="1"><path d="M40,319.92304666666666L48.962472406181014,319.91447555555555L57.92494481236203,319.50455555555556L66.88741721854305,318.7930288888889L75.84988962472406,318.11953555555556L84.81236203090508,317.88861333333335L93.7748344370861,317.65930888888886L102.7373068432671,317.4885711111111L111.69977924944813,316.55435111111115L120.66225165562913,316.09638L129.62472406181016,314.25595555555554L138.5871964679912,311.93243777777775L147.5496688741722,305.2646111111111L156.5121412803532,272.6142155555556L165.4746136865342,249.08172444444446L174.43708609271522,234.52607999999998L183.39955849889625,221.42433555555556L192.36203090507726,211.00811777777778L201.32450331125827,201.32853333333335L210.2869757174393,192.0309311111111L219.2494481236203,183.7889288888889L228.21192052980132,177.84403111111112L237.17439293598235,173.06094666666667L246.13686534216333,168.40893333333335L255.09933774834437,163.69315777777777L264.0618101545254,152.02731555555553L273.0242825607064,139.8049577777778L281.9867549668875,131.3468422222222L290.9492273730684,126.34031777777778L299.9116997792495,122.11676666666668L308.87417218543044,117.9673688888889L317.8366445916115,114.55835333333334L326.7991169977925,109.74275777777777L335.7615894039736,106.05705555555556L344.7240618101545,103.36258444444444L353.68653421633553,100.6392266666667L362.64900662251654,98.41680444444445L371.6114790286976,96.39959111111112L380.5739514348786,94.47216444444446L389.53642384105956,92.96783333333332L398.4988962472406,91.42812888888888L407.46136865342163,89.77312666666666L416.42384105960264,88.24605333333335L425.38631346578364,86.38522L434.3487858719647,83.77443777777779L443.3112582781457,81.38480888888887L443.3112582781457,81.38480888888887L452.27373068432667,79.3676888888889L461.23620309050773,77.92660666666664L470.19867549668874,76.6880733333333L479.16114790286974,75.7141088888889L485.56291390728484,75.2123488888889L494.5253863134658,74.38812222222222L503.4878587196468,73.4780911111111L509.88962472406183,72.85817111111112L526.5342163355408,71.41669999999999L530.3752759381898,71.20988888888887L539.3377483443708,70.28640222222222L548.300220750552,69.54180444444445L557.2626931567329,68.80994666666666L566.2251655629138,68.13317111111112L575.1876379690949,67.49030666666664L584.150110375276,66.7732422222222L593.1125827814569,66.02421111111113L602.075055187638,65.40009111111112L611.0375275938189,64.80521555555555L620,64.18269777777775"></path></g><g stroke="currentColor"><line x1="40" x2="620" y1="320" y2="320"></line></g>

</svg>
