<svg class="plot" fill="currentColor" text-anchor="middle" width="640" height="460" viewBox="0 0 640 400" style="font-family: 'RO Sans', sans-serif; font-size: 14px;" xmlns="http://www.w3.org/2000/svg">

<g transform="translate(40,0)" fill="none" text-anchor="end"><g class="tick" opacity="1" transform="translate(0,320.020304775939)"><line stroke="currentColor" x2="0"></line><line stroke="currentColor" x2="580" stroke-opacity="0.1"></line><text fill="currentColor" x="-9" dy="0.32em">0m</text></g><g class="tick" opacity="1" transform="translate(0,277.1832247358435)"><line stroke="currentColor" x2="0"></line><line stroke="currentColor" x2="580" stroke-opacity="0.1"></line><text fill="currentColor" x="-9" dy="0.32em">0.5m</text></g><g class="tick" opacity="1" transform="translate(0,234.346144695748)"><line stroke="currentColor" x2="0"></line><line stroke="currentColor" x2="580" stroke-opacity="0.1"></line><text fill="currentColor" x="-9" dy="0.32em">1m</text></g><g class="tick" opacity="1" transform="translate(0,191.50906465565248)"><line stroke="currentColor" x2="0"></line><line stroke="currentColor" x2="580" stroke-opacity="0.1"></line><text fill="currentColor" x="-9" dy="0.32em">1.5m</text></g><g class="tick" opacity="1" transform="translate(0,148.671984615557)"><line stroke="currentColor" x2="0"></line><line stroke="currentColor" x2="580" stroke-opacity="0.1"></line><text fill="currentColor" x="-9" dy="0.32em">2m</text></g><g class="tick" opacity="1" transform="translate(0,105.83490457546148)"><line stroke="currentColor" x2="0"></line><line stroke="currentColor" x2="580" stroke-opacity="0.1"></line><text fill="currentColor" x="-9" dy="0.32em">2.5m</text></g><g class="tick" opacity="1" transform="translate(0,62.99782453536597)"><line stroke="currentColor" x2="0"></line><line stroke="currentColor" x2="580" stroke-opacity="0.1"></line><text fill="currentColor" x="-9" dy="0.32em">3m</text></g><text fill="currentColor" transform="translate(-40,40)" dy="-1em" text-anchor="start">↑ Number of downloads CoronaCheck Scanner (million)</text></g><g transform="translate(0,320)" fill="none" text-anchor="middle"><g class="tick" opacity="1" transform="translate(46.99633038628368,0)"><line stroke="currentColor" y2="6"></line><text fill="currentColor" dy="0.32em" transform="translate(0, 11.82842712474619) rotate(-45)" text-anchor="end">Apr 2021</text></g><g class="tick" opacity="1" transform="translate(99.46880828341125,0)"><line stroke="currentColor" y2="6"></line><text fill="currentColor" dy="0.32em" transform="translate(0, 11.82842712474619) rotate(-45)" text-anchor="end">May 2021</text></g><g class="tick" opacity="1" transform="translate(153.6903687771097,0)"><line stroke="currentColor" y2="6"></line><text fill="currentColor" dy="0.32em" transform="translate(0, 11.82842712474619) rotate(-45)" text-anchor="end">Jun 2021</text></g><g class="tick" opacity="1" transform="translate(206.1628466742373,0)"><line stroke="currentColor" y2="6"></line><text fill="currentColor" dy="0.32em" transform="translate(0, 11.82842712474619) rotate(-45)" text-anchor="end">Jul 2021</text></g><g class="tick" opacity="1" transform="translate(260.38440716793576,0)"><line stroke="currentColor" y2="6"></line><text fill="currentColor" dy="0.32em" transform="translate(0, 11.82842712474619) rotate(-45)" text-anchor="end">Aug 2021</text></g><g class="tick" opacity="1" transform="translate(314.6059676616342,0)"><line stroke="currentColor" y2="6"></line><text fill="currentColor" dy="0.32em" transform="translate(0, 11.82842712474619) rotate(-45)" text-anchor="end">Sep 2021</text></g><g class="tick" opacity="1" transform="translate(367.07844555876187,0)"><line stroke="currentColor" y2="6"></line><text fill="currentColor" dy="0.32em" transform="translate(0, 11.82842712474619) rotate(-45)" text-anchor="end">Oct 2021</text></g><g class="tick" opacity="1" transform="translate(421.30000605246033,0)"><line stroke="currentColor" y2="6"></line><text fill="currentColor" dy="0.32em" transform="translate(0, 11.82842712474619) rotate(-45)" text-anchor="end">Nov 2021</text></g><g class="tick" opacity="1" transform="translate(473.7724839495879,0)"><line stroke="currentColor" y2="6"></line><text fill="currentColor" dy="0.32em" transform="translate(0, 11.82842712474619) rotate(-45)" text-anchor="end">Dec 2021</text></g><g class="tick" opacity="1" transform="translate(527.9940444432864,0)"><line stroke="currentColor" y2="6"></line><text fill="currentColor" dy="0.32em" transform="translate(0, 11.82842712474619) rotate(-45)" text-anchor="end">Jan 2022</text></g><g class="tick" opacity="1" transform="translate(582.2156049369848,0)"><line stroke="currentColor" y2="6"></line><text fill="currentColor" dy="0.32em" transform="translate(0, 11.82842712474619) rotate(-45)" text-anchor="end">Feb 2022</text></g><text fill="currentColor" transform="translate(640,-10)" dy="-0.32em" text-anchor="end">Month →</text></g><g fill="none" stroke="#ec025f" stroke-width="3" stroke-miterlimit="1"><path d="M40,320C45.88246774290703,319.99731554298415,51.764935485814064,319.9946310859683,52.24357817599643,319.99194662895246C60.40596362666072,319.9461680694163,60.61279691579326,319.9003895098801,64.48715635199287,319.8546109503439C68.82798576397994,319.8033206865092,72.56769104364761,319.7520304226745,76.7307345279893,319.70074015883984C80.7361572122533,319.65139184263364,82.67725455585624,319.6020435264275,88.97431270398573,319.5526952102213C92.39979572438139,319.52585064006286,97.21825260111686,319.4990060699044,101.21789087998215,319.47216149974594C105.38772653241564,319.4441746074531,108.73190009072019,319.4161877151602,113.4614690559786,319.38820082286736C117.14860241256842,319.3663824701003,124.55786870285283,319.34456411733316,125.70504723197503,319.3227457645661C133.86743268263933,319.1675041865008,132.41452928599168,319.0122626084355,137.94862540797146,318.8570210303702C141.44866633280017,318.7588384429183,147.35418971064846,318.6606558554664,150.1922035839679,318.5624732680145C158.35458903463217,318.2800912363902,157.39444329050366,317.99770920476584,162.4357817599643,317.71532717314153C166.0291629829371,317.51405001305983,171.78397050235668,317.31277285297807,174.67935993596075,317.11149569289637C182.84174538662504,316.5440757306853,186.14520459773962,315.97665576847413,186.9229381119572,315.40923580626304C195.08532356262148,309.45411061324904,193.73681944290126,303.49898542023504,199.16651628795364,297.54386022722105C202.68231705622995,293.6878376303318,206.29807964609356,289.8318150334426,211.41009446395006,285.9757924365533C214.9866951262626,283.27794169368144,218.3079510547389,280.5800909508096,223.65367263994648,277.88224020793774C227.18351594053885,276.10081739739036,231.04651948084248,274.3193945868429,235.89725081594293,272.53797177629554C239.5436004373571,271.1988560961888,243.72965572551635,269.85974041608205,248.14082899193934,268.52062473597533C251.97298343908292,267.35728387429975,256.1268405508516,266.19394301262423,260.38440716793576,265.03060215094865C264.31525655100074,263.95653376407665,268.7017896052265,262.88246537720465,272.6279853439322,261.80839699033265C276.89199468036327,260.6419147427875,280.2052784958327,259.47543249524233,284.87156351992866,258.30895024769717C288.582680128844,257.3812418842955,292.74574732408865,256.45353352089387,297.1151416959251,255.5258251574922C300.97180307267337,254.70698009349908,305.38701752215337,253.88813502950597,309.3587198719215,253.06928996551287C313.5625769713918,252.2025816040883,317.6434082458388,251.33587324266372,321.602298047918,250.46916488123915C325.8224701417882,249.54525473893437,331.8766925929207,248.6213445966296,333.8458762239144,247.69743445432482C342.00826167457865,243.8677709406869,342.6485080979945,240.03810742704903,346.0894543999108,236.20844391341112C352.16982546674535,229.44118479894362,353.5646755150022,222.67392568447616,358.3330325759073,215.90666657000867C362.0064171747646,210.69339392912903,364.2895370894235,205.48012128824942,370.5766107519037,200.26684864736978C374.00273010519606,197.42589349911066,378.69770594666306,194.5849383508515,382.8201889279001,191.74398320259237C386.8616975248857,188.9588304905988,390.5348516285477,186.17367777860525,395.06376710389657,183.3885250666117C398.83458171245024,181.06958257572114,403.59583589728055,178.75064008483062,407.30734527989296,176.43169759394007C411.9726368362098,173.5168342035851,416.81630356270364,170.60197081323014,419.5509234558894,167.68710742287516C427.7133089065537,158.98672511841158,426.63294583950403,150.28634281394804,431.79450163188585,141.58596050948447C435.36013207721794,135.5756897154322,438.2515911460837,129.56541892137992,444.0380798078823,123.55514812732764C447.5065691557548,119.95252113790225,451.0529554647406,116.34989414847685,456.2816579838787,112.74726715905146C459.8333757472532,110.30009900857425,462.7920428286764,107.85293085809704,468.52523615987513,105.40576270761983C471.9997021234242,103.92271443857835,476.32892681350097,102.43966616953689,480.7688143358716,100.95661790049542C484.58500927624505,99.68190063071562,488.8133335190163,98.4071833609358,493.012392511868,97.132466091156C496.9879331749631,95.92560275615972,501.5070275018789,94.71873942116342,505.2559706878644,93.51187608616713C509.8322362626929,92.03868034553489,510.81290247122536,90.56548460490264,517.4995488638608,89.09228886427039C520.90496068155,88.3420116863948,525.7348750191467,87.59173450851921,529.7431270398573,86.84145733064362C533.902878537447,86.06282200578148,538.0257510518827,85.28418668091935,541.9867052158537,84.50555135605721C546.204217056464,83.6764825089612,550.3199089150729,82.8474136618652,554.2302833918502,82.0183448147692C558.5167305336807,81.10954188269189,563.0363087983326,80.20073895061458,566.4738615678466,79.29193601853727C572.5976809455457,77.6729514155019,574.9962451852899,76.05396681246654,578.717439743843,74.43498220943117C583.3586438794484,72.41572793050115,586.6873029770702,70.39647365157111,590.9610179198395,68.3772193726411C594.8802974541711,66.52542951861449,596.5016701838817,64.6736396645879,603.204596095836,62.8218498105613C606.6093471215758,61.881233207040864,611.028760696704,60.94061660352043,615.4481742718323,60"></path></g>

</svg>

