<svg class="plot" fill="currentColor" text-anchor="middle" width="640" height="460" viewBox="0 0 640 400" style="font-family: 'RO Sans', sans-serif; font-size: 14px;" xmlns="http://www.w3.org/2000/svg">

<style>
        line[stroke-opacity] {
            stroke-opacity: 1;
            stroke: #949494;
        }
</style>

<!-- replace the below code -->
<g transform="translate(40,0)" fill="none" text-anchor="end"><g class="tick" opacity="1" transform="translate(0,320.0198979270571)"><line stroke="currentColor" x2="0"></line><line stroke="currentColor" x2="580" stroke-opacity="0.1"></line><text fill="currentColor" x="-9" dy="0.32em">0m</text></g><g class="tick" opacity="1" transform="translate(0,278.0411488614879)"><line stroke="currentColor" x2="0"></line><line stroke="currentColor" x2="580" stroke-opacity="0.1"></line><text fill="currentColor" x="-9" dy="0.32em">0.5m</text></g><g class="tick" opacity="1" transform="translate(0,236.0623997959187)"><line stroke="currentColor" x2="0"></line><line stroke="currentColor" x2="580" stroke-opacity="0.1"></line><text fill="currentColor" x="-9" dy="0.32em">1m</text></g><g class="tick" opacity="1" transform="translate(0,194.08365073034952)"><line stroke="currentColor" x2="0"></line><line stroke="currentColor" x2="580" stroke-opacity="0.1"></line><text fill="currentColor" x="-9" dy="0.32em">1.5m</text></g><g class="tick" opacity="1" transform="translate(0,152.10490166478033)"><line stroke="currentColor" x2="0"></line><line stroke="currentColor" x2="580" stroke-opacity="0.1"></line><text fill="currentColor" x="-9" dy="0.32em">2m</text></g><g class="tick" opacity="1" transform="translate(0,110.12615259921114)"><line stroke="currentColor" x2="0"></line><line stroke="currentColor" x2="580" stroke-opacity="0.1"></line><text fill="currentColor" x="-9" dy="0.32em">2.5m</text></g><g class="tick" opacity="1" transform="translate(0,68.14740353364192)"><line stroke="currentColor" x2="0"></line><line stroke="currentColor" x2="580" stroke-opacity="0.1"></line><text fill="currentColor" x="-9" dy="0.32em">3m</text></g><text fill="currentColor" transform="translate(-40,40)" dy="-1em" text-anchor="start">↑ Aantal downloads CoronaCheck Scanner (miljoen)</text></g><g transform="translate(0,320)" fill="none" text-anchor="middle"><g class="tick" opacity="1" transform="translate(46.19765844939944,0)"><line stroke="currentColor" y2="6"></line><text fill="currentColor" dy="0.32em" transform="translate(0, 11.82842712474619) rotate(-45)" text-anchor="end">apr. 2021</text></g><g class="tick" opacity="1" transform="translate(92.68009681989525,0)"><line stroke="currentColor" y2="6"></line><text fill="currentColor" dy="0.32em" transform="translate(0, 11.82842712474619) rotate(-45)" text-anchor="end">mei 2021</text></g><g class="tick" opacity="1" transform="translate(140.7119498027409,0)"><line stroke="currentColor" y2="6"></line><text fill="currentColor" dy="0.32em" transform="translate(0, 11.82842712474619) rotate(-45)" text-anchor="end">jun. 2021</text></g><g class="tick" opacity="1" transform="translate(187.1943881732367,0)"><line stroke="currentColor" y2="6"></line><text fill="currentColor" dy="0.32em" transform="translate(0, 11.82842712474619) rotate(-45)" text-anchor="end">jul. 2021</text></g><g class="tick" opacity="1" transform="translate(235.22624115608235,0)"><line stroke="currentColor" y2="6"></line><text fill="currentColor" dy="0.32em" transform="translate(0, 11.82842712474619) rotate(-45)" text-anchor="end">aug. 2021</text></g><g class="tick" opacity="1" transform="translate(283.258094138928,0)"><line stroke="currentColor" y2="6"></line><text fill="currentColor" dy="0.32em" transform="translate(0, 11.82842712474619) rotate(-45)" text-anchor="end">sep. 2021</text></g><g class="tick" opacity="1" transform="translate(329.7405325094238,0)"><line stroke="currentColor" y2="6"></line><text fill="currentColor" dy="0.32em" transform="translate(0, 11.82842712474619) rotate(-45)" text-anchor="end">okt. 2021</text></g><g class="tick" opacity="1" transform="translate(377.7723854922695,0)"><line stroke="currentColor" y2="6"></line><text fill="currentColor" dy="0.32em" transform="translate(0, 11.82842712474619) rotate(-45)" text-anchor="end">nov. 2021</text></g><g class="tick" opacity="1" transform="translate(424.2548238627653,0)"><line stroke="currentColor" y2="6"></line><text fill="currentColor" dy="0.32em" transform="translate(0, 11.82842712474619) rotate(-45)" text-anchor="end">dec. 2021</text></g><g class="tick" opacity="1" transform="translate(472.286676845611,0)"><line stroke="currentColor" y2="6"></line><text fill="currentColor" dy="0.32em" transform="translate(0, 11.82842712474619) rotate(-45)" text-anchor="end">jan. 2022</text></g><g class="tick" opacity="1" transform="translate(520.3185298284567,0)"><line stroke="currentColor" y2="6"></line><text fill="currentColor" dy="0.32em" transform="translate(0, 11.82842712474619) rotate(-45)" text-anchor="end">feb. 2022</text></g><g class="tick" opacity="1" transform="translate(563.7021389742528,0)"><line stroke="currentColor" y2="6"></line><text fill="currentColor" dy="0.32em" transform="translate(0, 11.82842712474619) rotate(-45)" text-anchor="end">mrt. 2022</text></g><g class="tick" opacity="1" transform="translate(611.7339919570984,0)"><line stroke="currentColor" y2="6"></line><text fill="currentColor" dy="0.32em" transform="translate(0, 11.82842712474619) rotate(-45)" text-anchor="end">apr. 2022</text></g><text fill="currentColor" transform="translate(640,-10)" dy="-0.32em" text-anchor="end">Maand →</text></g><g fill="none" stroke="#ec025f" stroke-width="3" stroke-miterlimit="1"><path d="M40,320C45.21094972610525,319.9973693317252,50.421899452210496,319.99473866345045,50.84590228644902,319.9921079951757C58.07650381074837,319.94724670534094,58.25972587306356,319.9023854155062,61.69180457289804,319.8575241256715C65.53710297895287,319.8072615701236,68.84989907992518,319.7569990145758,72.53770685934705,319.7067364590279C76.08588717273209,319.6583769401044,77.80539692834029,319.6100174211808,83.38360914579609,319.5616579022573C86.4180532918659,319.53535121950955,90.68645520063058,319.5090445367618,94.2295114322451,319.48273785401403C97.92333601413887,319.45531173795786,100.88575264765387,319.42788562190174,105.07541371869414,319.40045950584556C108.34163928836318,319.3790783296548,114.90509459885845,319.35769715346413,115.92131600514314,319.3363159772734C123.1519175294425,319.1841849906598,121.86487153315228,319.03205400404613,126.76721829159217,318.87992301743253C129.86770912226197,318.78370772457424,135.09908254805038,318.6874924317159,137.61312057804116,318.5912771388576C144.84372210234054,318.3145532250174,143.9931825973143,318.0378293111772,148.4590228644902,317.76110539733696C151.64219865363432,317.56386124839423,156.7400613156552,317.36661709945145,159.30492515093923,317.1693729505087C166.53552667523857,316.6133224403862,169.46187674186052,316.0572719302636,170.15082743738824,315.50122142014106C177.3814289616876,309.66541968254376,176.18686445569756,303.8296179449465,180.99672972383726,297.9938162073492C184.11118131986703,294.2150571314629,187.31418351227688,290.43629805557663,191.84263201028628,286.65753897969034C195.01094283768325,284.0137453493735,197.9530580225371,281.3699517190567,202.68853429673533,278.72615808873985C205.8154253880797,276.98042983009907,209.23744453379646,275.23470157145834,213.53443658318434,273.48897331281756C216.7645341190193,272.17668963119513,220.47272677058066,270.86440594957276,224.38033886963336,269.5521222679503C227.77503052617737,268.41209138666034,231.4547006110584,267.27206050537035,235.22624115608235,266.13202962408036C238.70836114573171,265.079482455843,242.5941458565839,264.02693528760557,246.0721434425314,262.9743881193682C249.84939123289593,261.83127879648003,252.78444436795945,260.68816947359187,256.9180457289804,259.5450601507037C260.20551672278066,258.63594037510705,263.8933455063683,257.72682059951035,267.7639480154295,256.8177008239137C271.18034899256696,256.015263042609,275.09154095005056,255.2128252613043,278.60985030187845,254.4103874799996C282.3338125841171,253.5610454430723,285.94879315710904,252.71170340614495,289.45575258832747,251.86236136921764C293.1941674131578,250.95696370937145,298.55726504536335,250.05156604952523,300.3016548747765,249.14616838967905C307.53225639907583,245.39324023738445,308.0994149574482,241.64031208508985,311.1475571612255,237.88738393279525C316.5338183920746,231.2557210845802,317.7694381684322,224.62405823636513,321.9934594476745,217.99239538815007C325.2475057605295,212.8835816268703,327.26999421502273,207.77476786559055,332.8393617341236,202.66595410431077C335.87436957197707,199.88192346628222,340.03338652615645,197.0978928282537,343.68526402057256,194.31386219022514C347.26541082918163,191.58451586931264,350.5192529592127,188.85516954840017,354.5311663070216,186.12582322748767C357.87152042546614,183.85334562557216,362.0892496633827,181.58086802365665,365.37706859347065,179.30839042174114C369.5097898968563,176.45193244865814,373.80052380393175,173.59547447557512,376.22297087991967,170.73901650249212C383.453572404219,162.21296465227874,382.49653908514557,153.68691280206536,387.0688731663687,145.160860951852C390.2274660910643,139.27101857129094,392.7888482356784,133.38117619072992,397.9147754528177,127.49133381016887C400.9873165031429,123.96089302792178,404.12886212194485,120.43045224567472,408.7606777392667,116.90001146342763C411.90694619583013,114.5018774726425,414.5278641662124,112.10374348185739,419.60658002571574,109.70560949107227C422.68441542616466,108.25227721258955,426.51943385702737,106.79894493410683,430.4524823121647,105.34561265562411C433.83303633275955,104.09643702676361,437.57867269112654,102.8472613979031,441.2983845986138,101.5980857690426C444.820094097906,100.41540447870197,448.8233074386814,99.23272318836133,452.1442868850628,98.05004189802071C456.19814504220983,96.60636473182306,457.0668624808926,95.16268756562542,462.99018917151176,93.71901039942777C466.0068533597788,92.9837666024607,470.2854047933942,92.24852280549362,473.83609145796083,91.51327900852655C477.5209830501279,90.75024527967804,481.173205610255,89.98721155082953,484.68199374440985,89.22417782198102C488.41805199941246,88.411721112566,492.06391361747444,87.599264403151,495.5278960308589,86.78680769373598C499.32502022021293,85.89621453939357,503.328662254408,85.00562138505117,506.3737983173079,84.11502823070876C511.7985479808172,82.52848338852463,513.9233021170745,80.94193854634052,517.2197006037569,79.3553937041564C521.3310842060545,77.37659943070359,524.2797574450985,75.3978051572508,528.0656028902059,73.419010883798C531.5374737968644,71.60432553335886,532.9737573688375,69.78964018291973,538.9115051766549,67.97495483248059C541.9275840062292,67.05318546049882,544.7835838457182,66.13141608851704,549.757407463104,65.20964671653527C552.8481336366181,64.63686067845194,555.3524707730539,64.06407464036862,560.603309749553,63.49128860228528C563.663199155558,63.15750157554859,566.7390878358585,62.82371454881189,571.449212036002,62.4899275220752C573.7665599698029,62.32570665573069,576.6755700090204,62.16148578938618,579.1962850977513,61.99726492304167C582.9481469902148,61.75283666014922,586.534642736245,61.50840839725677,590.0421873842004,61.263980134364324C593.7798468802529,61.00351598932881,596.9228999837868,60.7430518442933,600.8880896706494,60.482587699257785C603.3369894579154,60.32172513283852,605.986076095157,60.16086256641926,608.6351627323986,60"></path></g>

</svg>
