<svg class="plot" fill="currentColor" text-anchor="middle" width="640" height="460" viewBox="0 0 640 400" style="font-family: 'RO Sans', sans-serif; font-size: 14px;" xmlns="http://www.w3.org/2000/svg">
<style>
        line[stroke-opacity] {
            stroke-opacity: 1;
            stroke: #949494;
        }
</style>

<!-- replace the below code -->
<g transform="translate(40,0)" fill="none" text-anchor="end"><g class="tick" opacity="1" transform="translate(0,320.0874310179519)"><line stroke="currentColor" x2="0"></line><line stroke="currentColor" x2="580" stroke-opacity="0.1"></line><text fill="currentColor" x="-9" dy="0.32em">0m</text></g><g class="tick" opacity="1" transform="translate(0,284.74034472245916)"><line stroke="currentColor" x2="0"></line><line stroke="currentColor" x2="580" stroke-opacity="0.1"></line><text fill="currentColor" x="-9" dy="0.32em">2m</text></g><g class="tick" opacity="1" transform="translate(0,249.39325842696627)"><line stroke="currentColor" x2="0"></line><line stroke="currentColor" x2="580" stroke-opacity="0.1"></line><text fill="currentColor" x="-9" dy="0.32em">4m</text></g><g class="tick" opacity="1" transform="translate(0,214.04617213147347)"><line stroke="currentColor" x2="0"></line><line stroke="currentColor" x2="580" stroke-opacity="0.1"></line><text fill="currentColor" x="-9" dy="0.32em">6m</text></g><g class="tick" opacity="1" transform="translate(0,178.6990858359807)"><line stroke="currentColor" x2="0"></line><line stroke="currentColor" x2="580" stroke-opacity="0.1"></line><text fill="currentColor" x="-9" dy="0.32em">8m</text></g><g class="tick" opacity="1" transform="translate(0,143.3519995404879)"><line stroke="currentColor" x2="0"></line><line stroke="currentColor" x2="580" stroke-opacity="0.1"></line><text fill="currentColor" x="-9" dy="0.32em">10m</text></g><g class="tick" opacity="1" transform="translate(0,108.00491324499508)"><line stroke="currentColor" x2="0"></line><line stroke="currentColor" x2="580" stroke-opacity="0.1"></line><text fill="currentColor" x="-9" dy="0.32em">12m</text></g><g class="tick" opacity="1" transform="translate(0,72.65782694950228)"><line stroke="currentColor" x2="0"></line><line stroke="currentColor" x2="580" stroke-opacity="0.1"></line><text fill="currentColor" x="-9" dy="0.32em">14m</text></g><text fill="currentColor" transform="translate(-40,40)" dy="-1em" text-anchor="start">↑ Number of downloads CoronaCheck (million)</text></g><g transform="translate(0,320)" fill="none" text-anchor="middle"><g class="tick" opacity="1" transform="translate(46.3302673751505,0)"><line stroke="currentColor" y2="6"></line><text fill="currentColor" dy="0.32em" transform="translate(0, 11.82842712474619) rotate(-45)" text-anchor="end">Apr 2021</text></g><g class="tick" opacity="1" transform="translate(93.8072726887792,0)"><line stroke="currentColor" y2="6"></line><text fill="currentColor" dy="0.32em" transform="translate(0, 11.82842712474619) rotate(-45)" text-anchor="end">May 2021</text></g><g class="tick" opacity="1" transform="translate(142.86684484619553,0)"><line stroke="currentColor" y2="6"></line><text fill="currentColor" dy="0.32em" transform="translate(0, 11.82842712474619) rotate(-45)" text-anchor="end">Jun 2021</text></g><g class="tick" opacity="1" transform="translate(190.34385015982426,0)"><line stroke="currentColor" y2="6"></line><text fill="currentColor" dy="0.32em" transform="translate(0, 11.82842712474619) rotate(-45)" text-anchor="end">Jul 2021</text></g><g class="tick" opacity="1" transform="translate(239.40342231724054,0)"><line stroke="currentColor" y2="6"></line><text fill="currentColor" dy="0.32em" transform="translate(0, 11.82842712474619) rotate(-45)" text-anchor="end">Aug 2021</text></g><g class="tick" opacity="1" transform="translate(288.4629944746569,0)"><line stroke="currentColor" y2="6"></line><text fill="currentColor" dy="0.32em" transform="translate(0, 11.82842712474619) rotate(-45)" text-anchor="end">Sep 2021</text></g><g class="tick" opacity="1" transform="translate(335.9399997882856,0)"><line stroke="currentColor" y2="6"></line><text fill="currentColor" dy="0.32em" transform="translate(0, 11.82842712474619) rotate(-45)" text-anchor="end">Oct 2021</text></g><g class="tick" opacity="1" transform="translate(384.99957194570186,0)"><line stroke="currentColor" y2="6"></line><text fill="currentColor" dy="0.32em" transform="translate(0, 11.82842712474619) rotate(-45)" text-anchor="end">Nov 2021</text></g><g class="tick" opacity="1" transform="translate(432.4765772593306,0)"><line stroke="currentColor" y2="6"></line><text fill="currentColor" dy="0.32em" transform="translate(0, 11.82842712474619) rotate(-45)" text-anchor="end">Dec 2021</text></g><g class="tick" opacity="1" transform="translate(481.5361494167469,0)"><line stroke="currentColor" y2="6"></line><text fill="currentColor" dy="0.32em" transform="translate(0, 11.82842712474619) rotate(-45)" text-anchor="end">Jan 2022</text></g><g class="tick" opacity="1" transform="translate(530.5957215741633,0)"><line stroke="currentColor" y2="6"></line><text fill="currentColor" dy="0.32em" transform="translate(0, 11.82842712474619) rotate(-45)" text-anchor="end">Feb 2022</text></g><g class="tick" opacity="1" transform="translate(574.9075932002168,0)"><line stroke="currentColor" y2="6"></line><text fill="currentColor" dy="0.32em" transform="translate(0, 11.82842712474619) rotate(-45)" text-anchor="end">Mar 2022</text></g><text fill="currentColor" transform="translate(640,-10)" dy="-0.32em" text-anchor="end">Month →</text></g><g fill="none" stroke="#ec025f" stroke-width="3" stroke-miterlimit="1"><path d="M40,320C45.46177336435179,319.99675395924186,50.92354672870359,319.9935079184838,51.077967906513365,319.99026187772563C58.46327984418894,319.8350174747158,59.03542877040015,319.679773071706,62.15593581302673,319.5245286686962C67.57241701509002,319.2550601563225,69.43411923862935,318.9855916439488,73.2339037195401,318.7161231315751C76.83057779499791,318.4610585568668,76.92655968837788,318.20599398215853,84.31187162605346,317.95092940745025C86.84409066972466,317.86347482477413,91.6841116494861,317.77602024209807,95.38983953256681,317.68856565942195C99.0696061020842,317.601723759575,102.04910173495294,317.514881859728,106.46780743908019,317.42803995988106C109.75793116260694,317.3633783566845,116.19603786573396,317.29871675348795,117.54577534559354,317.2340551502914C124.93108728326912,316.88024849001664,122.35426157981809,316.52644182974194,128.62374325210692,316.1726351694672C131.69715367743396,315.9991929081962,137.8639505680079,315.8257506469253,139.70171115862027,315.65230838565435C147.08702309629584,314.95530508217456,147.42636476463412,314.25830177869483,150.77967906513362,313.56129847521504C155.01320542108192,312.6813386530698,159.2841092299705,311.80137883092453,161.857646971647,310.9214190087793C169.2429589093226,308.396187816743,171.4273948691288,305.8709566247067,172.93561487816038,303.3457254326704C180.32092681583595,290.98040740462545,179.48944955102874,278.61508937658044,184.01358278467373,266.2497713485355C187.2743128093707,257.33757498368874,189.9918451264145,248.42537861884202,195.09155069118708,239.5131822539953C198.2458916668918,234.0006863225922,202.26120515066202,228.48819039118914,206.16951859770046,222.97569445978604C209.68744761742363,218.013817765151,213.0244498485282,213.05194107051597,217.2474865042138,208.09006437588093C220.60490731757827,204.14524706876924,224.48713914620575,200.20042976165752,228.32545441072716,196.25561245454583C231.89232460487753,192.58977202602134,235.63338506642293,188.92393159749682,239.40342231724054,185.25809116897233C243.02468384166275,181.73691458229317,246.53803290687216,178.21573799561403,250.48139022375392,174.69456140893487C253.97703985383538,171.57316036825776,257.03776727354943,168.45175932758062,261.55935813026724,165.3303582869035C264.8207495630003,163.07891384295,268.44762759421326,160.82746939899644,272.6373260367807,158.57602495504293C276.00823033095816,156.7645810412957,279.9698947688962,154.95313712754847,283.715293943294,153.14169321380126C287.35805774985647,151.379888391575,291.12540024774887,149.61808356934878,294.7932618498074,147.85627874712253C298.511396525005,146.0703259737754,302.8858067716433,144.2843732004283,305.87122975632076,142.49842042708116C313.2565416939963,138.08034687274017,313.3386512749214,133.66227331839917,316.9491976628341,129.24419976405818C320.7319840991421,124.61536331649927,323.36324555281254,119.98652686894037,328.02716556934746,115.35769042138146C331.2546913183845,112.15444320238711,333.8132851085501,108.95119598339276,339.10513347586084,105.74794876439842C342.2374822872734,103.85188392605978,346.119133272679,101.95581908772115,350.18310138237416,100.05975424938252C353.6115031041054,98.4602161179768,357.53512562148563,96.86067798657106,361.2610692888876,95.26113985516534C364.921596169448,93.68968498382137,368.20611002451324,92.11823011247739,372.3390371954009,90.54677524113342C375.73452101500226,89.2557170230095,380.1714102427057,87.96465880488556,383.41700510191424,86.67360058676164C388.00175161434004,84.84984410462148,390.1610767139772,83.02608762248134,394.4949730084276,81.20233114034119C397.8119980822855,79.80648648489428,401.09554093920775,78.41064182944736,405.572940914941,77.01479717400045C408.8461909389836,75.99435035737376,412.9777324432085,74.97390354074709,416.6509088214543,73.9534567241204C420.36346429016754,72.92206998428527,423.57790579091574,71.89068324445014,427.72887672796776,70.85929650461502C431.11631635473276,70.01762346810884,434.9172725628469,69.17595043160266,438.8068446344811,68.33427739509648C442.3372703859011,67.57032081899199,446.1041900769393,66.80636424288751,449.8848125409944,66.04240766678302C453.49715855983493,65.3124549876948,456.6868202691522,64.58250230860659,460.96278044750784,63.85254962951838C464.30011101235743,63.282831183788666,468.39001720333243,62.713112738058946,472.04074835402116,62.14339429232923C475.77732398997625,61.56027930089354,479.5500448442111,60.977164309457855,483.11871626053454,60.39404931802216C486.95462070681117,59.76726889264943,490.34313574398584,59.1404884672767,494.1966841670479,58.51370804190397C497.75235977675504,57.93537668948027,501.8805303201987,57.35704533705657,505.2746520735613,56.77871398463287C509.4105994168775,56.07398145161648,513.1013747411861,55.369248918600086,516.3526199800746,54.664516385583696C520.9141748048527,53.67576412300197,523.5595023543212,52.68701186042024,527.430587886588,51.698259597838515C530.9737627023682,50.793262256233966,534.4461091886448,49.888264914629424,538.5085557931014,48.983267573024875C541.9377252063454,48.21934634400668,545.0329088629367,47.45542511498849,549.5865236996148,46.6915038859703C552.8397428377841,46.14573898238684,556.6470646063791,45.59997407880337,560.6644916061281,45.05420917521991C564.117255908327,44.585153340078726,567.4882911133888,44.11609750493754,571.7424595126415,43.64704166979636C575.0878751345207,43.27818304194079,578.1858316406434,42.909324414085226,582.8204274191548,42.54046578622966C585.2080451510859,42.35043985030509,588.2430969739402,42.160413914380506,590.7332616380929,41.97038797845593C594.823783243214,41.65823785938045,598.284045913469,41.346087740304974,601.8112295446064,41.03393762122949C605.7056034695831,40.68929174748633,609.2974004603514,40.34464587374316,612.8891974511197,40"></path></g>

</svg>
