<svg class="plot" fill="currentColor" text-anchor="middle" width="640" height="460" viewBox="0 0 640 400" style="font-family: 'RO Sans', sans-serif; font-size: 14px;" xmlns="http://www.w3.org/2000/svg">

<g transform="translate(40,0)" fill="none" text-anchor="end"><g class="tick" opacity="1" transform="translate(0,370.0286804841727)"><line stroke="currentColor" x2="0"></line><line stroke="currentColor" x2="580" stroke-opacity="0.1"></line><text fill="currentColor" x="-9" dy="0.32em">0m</text></g><g class="tick" opacity="1" transform="translate(0,309.52132990885457)"><line stroke="currentColor" x2="0"></line><line stroke="currentColor" x2="580" stroke-opacity="0.1"></line><text fill="currentColor" x="-9" dy="0.32em">0.5m</text></g><g class="tick" opacity="1" transform="translate(0,249.01397933353647)"><line stroke="currentColor" x2="0"></line><line stroke="currentColor" x2="580" stroke-opacity="0.1"></line><text fill="currentColor" x="-9" dy="0.32em">1m</text></g><g class="tick" opacity="1" transform="translate(0,188.50662875821837)"><line stroke="currentColor" x2="0"></line><line stroke="currentColor" x2="580" stroke-opacity="0.1"></line><text fill="currentColor" x="-9" dy="0.32em">1.5m</text></g><g class="tick" opacity="1" transform="translate(0,127.99927818290024)"><line stroke="currentColor" x2="0"></line><line stroke="currentColor" x2="580" stroke-opacity="0.1"></line><text fill="currentColor" x="-9" dy="0.32em">2m</text></g><g class="tick" opacity="1" transform="translate(0,67.4919276075821)"><line stroke="currentColor" x2="0"></line><line stroke="currentColor" x2="580" stroke-opacity="0.1"></line><text fill="currentColor" x="-9" dy="0.32em">2.5m</text></g><g class="tick" opacity="1" transform="translate(0,6.984577032263946)"><line stroke="currentColor" x2="0"></line><line stroke="currentColor" x2="580" stroke-opacity="0.1"></line><text fill="currentColor" x="-9" dy="0.32em">3m</text></g><g class="tick" opacity="1" transform="translate(0,-53.52277354305417)"><line stroke="currentColor" x2="0"></line><line stroke="currentColor" x2="580" stroke-opacity="0.1"></line><text fill="currentColor" x="-9" dy="0.32em">3.5m</text></g><text fill="currentColor" transform="translate(10,20)" dy="-1em" text-anchor="start">↑ Aantal downloads CoronaCheck Scanner (miljoen)</text></g><g transform="translate(0,370)" fill="none" text-anchor="middle"><g class="tick" opacity="1" transform="translate(104.89329854653457,0)"><line stroke="currentColor" y2="6"></line><text fill="currentColor" y="9" dy="0.71em">May 2021</text></g><g class="tick" opacity="1" transform="translate(221.31951064472898,0)"><line stroke="currentColor" y2="6"></line><text fill="currentColor" y="9" dy="0.71em">Jul 2021</text></g><g class="tick" opacity="1" transform="translate(339.65434917076266,0)"><line stroke="currentColor" y2="6"></line><text fill="currentColor" y="9" dy="0.71em">Sep 2021</text></g><g class="tick" opacity="1" transform="translate(456.08056126895707,0)"><line stroke="currentColor" y2="6"></line><text fill="currentColor" y="9" dy="0.71em">Nov 2021</text></g><g class="tick" opacity="1" transform="translate(572.5067733671515,0)"><line stroke="currentColor" y2="6"></line><text fill="currentColor" y="9" dy="0.71em">Jan 2022</text></g><text fill="currentColor" transform="translate(640,-10)" dy="-0.32em" text-anchor="end">Weeknummer →</text></g><g fill="none" stroke="#ec025f" stroke-width="3" stroke-miterlimit="1"><path d="M40,370C46.41904128314882,369.99620820603064,52.83808256629764,369.99241641206123,53.36038499487477,369.9886246180919C62.26730832479129,369.9239624294437,62.493008061651686,369.8593002407955,66.72076998974954,369.7946380521473C71.45755128910037,369.7221905843918,75.53837648460748,369.64974311663633,80.0811549846243,369.5772956488808C84.45193518954035,369.50759118101803,86.5700911281287,369.4378867131553,93.44153997949907,369.36818224529253C97.17948090559345,369.33026430559863,102.43745680356972,369.2923463659048,106.80192497437383,369.2544284262109C111.35211519499704,369.2148969571684,115.00132995773961,369.1753654881258,120.1623099692486,369.1358340190833C124.18576785577247,369.1050156085236,132.27087571760825,369.0741971979639,133.5226949641234,369.0433787874042C142.4296182940399,368.8241001489193,140.84418726558218,368.6048215104343,146.88307995899814,368.3855428719494C150.70237964258297,368.24686002443076,157.14657959705082,368.1081771769121,160.24346495387292,367.96949432939346C169.15038828378943,367.570629874401,168.10266215272378,367.1717654194085,173.60384994874767,366.772900964416C177.52500403313084,366.4885970931794,183.8047404733794,366.20429322194286,186.96423494362244,365.91998935070626C195.87115827353895,365.1185089849856,199.47594490053038,364.317028619265,200.3246199384972,363.51554825354435C209.23154326841373,355.10393739126476,207.7600343722678,346.6923265289852,213.685004933372,338.2807156667056C217.52150200589756,332.83408599731774,221.46707898970368,327.3874563279299,227.04538992824675,321.94082665854205C230.94823280101915,318.13011405754224,234.57243948578952,314.31940145654244,240.40577492312153,310.50868885554263C244.2575954276821,307.99243017451744,248.47296562364366,305.4761714934923,253.76615991799628,302.9599128124671C257.745113951509,301.0684126952489,262.3130032936365,299.1769125780308,267.12654491287105,297.2854124608126C271.30825209337775,295.64219417212183,275.8410062792195,293.99897588343106,280.48692990774583,292.3557575947403C284.77633455397705,290.8386366246485,289.5629883862772,289.32151565455666,293.8473149026206,287.80439468446485C298.50026892778845,286.15673919006525,302.1157763175109,284.5090836956656,307.20769989749533,282.861428201266C311.2573286860131,281.55104067897315,315.80013305974137,280.24065315668037,320.5680848923701,278.9302656343875C324.77653441975076,277.7736474590235,329.5944858414713,276.6170292836594,333.9284698872449,275.4604111082954C338.5157848457489,274.23618605322184,342.96885208981854,273.01196099814825,347.28885488211967,271.7877359430747C351.89397301901136,270.48271340586626,358.50043574004195,269.1776908686578,360.6492398769944,267.87266833144935C369.5561632069109,262.46327085178217,370.2548101698713,257.05387337211505,374.00962487186916,251.64447589244787C380.6446213734533,242.0857263397277,382.1667036754527,232.5269767870075,387.370009866744,222.96822723428733C391.3784648926771,215.6044826692711,393.8698412379607,208.2407381042549,400.7303948616187,200.87699353923867C404.46903016417417,196.86414604908356,409.5922616151409,192.85129855892848,414.0907798564935,188.83845106877337C418.5009375767001,184.90442448730104,422.50914108265215,180.97039790582875,427.4511648513682,177.03637132435642C431.5659370356423,173.76086640831215,436.761492456892,170.48536149226788,440.81154984624305,167.20985657622361C445.90238933856807,163.09261373720923,451.18787462094184,158.97537089819488,454.1719348411178,154.8581280591805C463.0788581710343,142.56884312793107,461.89994900718176,130.27955819668168,467.53231983599255,117.99027326543225C471.42319183552604,109.50076927384538,474.5783974299742,101.01126528225852,480.8927048308673,92.52176129067165C484.67757493763474,87.43305276905367,488.54744743303763,82.34434424743569,494.2530898257421,77.25563572581771C498.1287800879932,73.79901214038466,501.35732412236484,70.34238855495161,507.6134748206169,66.88576496951856C511.4048667043728,64.79096015436733,516.1289847487317,62.6961553392161,520.9738598154917,60.60135052406486C525.1381517313011,58.80081312387825,529.7521656212388,57.000275723691644,534.3342448103664,55.19973832350503C538.672417283987,53.49504456662975,543.6037240611283,51.79035080975448,547.6946298052412,50.0856570528792C552.688322746931,48.00476892836027,553.7584411313704,45.92388080384134,561.0550148001158,43.842992679322414C564.7710537142646,42.78322660311259,570.0415321736634,41.72346052690277,574.4153997949907,40.663694450692944C578.9545860273098,39.56387250840223,583.4535293334128,38.46405056611152,587.7757847898655,37.3642286238208C592.3780000165765,36.1931693607861,596.8691076781495,35.0221100977514,601.1361697847402,33.8510508347167C605.8136082959193,32.567367223144466,610.155081537767,31.283683611572233,614.4965547796149,30"></path></g>

</svg>
