<svg class="plot" fill="currentColor" text-anchor="middle" width="640" height="460" viewBox="0 0 640 400" style="font-family: 'RO Sans', sans-serif; font-size: 14px;" xmlns="http://www.w3.org/2000/svg">

<g transform="translate(40,0)" fill="none" text-anchor="end"><g class="tick" opacity="1" transform="translate(0,370.02743640222894)"><line stroke="currentColor" x2="0"></line><line stroke="currentColor" x2="580" stroke-opacity="0.1"></line><text fill="currentColor" x="-9" dy="0.32em">0m</text></g><g class="tick" opacity="1" transform="translate(0,312.144731277839)"><line stroke="currentColor" x2="0"></line><line stroke="currentColor" x2="580" stroke-opacity="0.1"></line><text fill="currentColor" x="-9" dy="0.32em">0.5m</text></g><g class="tick" opacity="1" transform="translate(0,254.26202615344909)"><line stroke="currentColor" x2="0"></line><line stroke="currentColor" x2="580" stroke-opacity="0.1"></line><text fill="currentColor" x="-9" dy="0.32em">1m</text></g><g class="tick" opacity="1" transform="translate(0,196.37932102905918)"><line stroke="currentColor" x2="0"></line><line stroke="currentColor" x2="580" stroke-opacity="0.1"></line><text fill="currentColor" x="-9" dy="0.32em">1.5m</text></g><g class="tick" opacity="1" transform="translate(0,138.49661590466923)"><line stroke="currentColor" x2="0"></line><line stroke="currentColor" x2="580" stroke-opacity="0.1"></line><text fill="currentColor" x="-9" dy="0.32em">2m</text></g><g class="tick" opacity="1" transform="translate(0,80.6139107802793)"><line stroke="currentColor" x2="0"></line><line stroke="currentColor" x2="580" stroke-opacity="0.1"></line><text fill="currentColor" x="-9" dy="0.32em">2.5m</text></g><g class="tick" opacity="1" transform="translate(0,22.731205655889326)"><line stroke="currentColor" x2="0"></line><line stroke="currentColor" x2="580" stroke-opacity="0.1"></line><text fill="currentColor" x="-9" dy="0.32em">3m</text></g><text fill="currentColor" transform="translate(10,20)" dy="-1em" text-anchor="start">↑ Number of downloads CoronaCheck Scanner (million)</text></g><g transform="translate(0,370)" fill="none" text-anchor="middle"><g class="tick" opacity="1" transform="translate(102.08853545120525,0)"><line stroke="currentColor" y2="6"></line><text fill="currentColor" y="9" dy="0.71em">May 2021</text></g><g class="tick" opacity="1" transform="translate(213.48267258425,0)"><line stroke="currentColor" y2="6"></line><text fill="currentColor" y="9" dy="0.71em">Jul 2021</text></g><g class="tick" opacity="1" transform="translate(326.7029431129184,0)"><line stroke="currentColor" y2="6"></line><text fill="currentColor" y="9" dy="0.71em">Sep 2021</text></g><g class="tick" opacity="1" transform="translate(438.0970802459631,0)"><line stroke="currentColor" y2="6"></line><text fill="currentColor" y="9" dy="0.71em">Nov 2021</text></g><g class="tick" opacity="1" transform="translate(549.4912173790078,0)"><line stroke="currentColor" y2="6"></line><text fill="currentColor" y="9" dy="0.71em">Jan 2022</text></g><text fill="currentColor" transform="translate(640,-10)" dy="-0.32em" text-anchor="end">Week number →</text></g><g fill="none" stroke="#ec025f" stroke-width="3" stroke-miterlimit="1"><path d="M40,370C46.141602926620614,369.9963726838122,52.28320585324123,369.9927453676244,52.78293376936578,369.9891180514366C61.30488961560964,369.92726073389366,61.52083434992467,369.8654034163508,65.56586753873157,369.80354609880783C70.09791969537402,369.7342412065389,74.00236692638681,369.66493631426994,78.34880130809736,369.595631422001C82.53067135909741,369.52895054569774,84.55727815871707,369.4622696693944,91.13173507746315,369.3955887930911C94.70811789205983,369.3593156312132,99.73883801655731,369.3230424693352,103.91466884682893,369.28676930745723C108.26819460604563,369.24895260677596,111.7596861042499,369.21113590609474,116.69760261619473,369.17331920541346C120.54716201938557,369.1438376142701,128.2828222084946,369.11435602312673,129.48053638556053,369.0848744319834C138.00249223180438,368.8751075086126,136.48558535820342,368.66534058524184,142.2634701549263,368.45557366187103C145.91769530782062,368.3229065017259,152.08336951901433,368.1902393415808,155.04640392429212,368.0575721814357C163.56835977053598,367.67600938925574,162.56591756943232,367.29444659707576,167.8293376936579,366.9128838048958C171.58101498285086,366.64091226775133,177.58933398230886,366.3689407306069,180.61227146302366,366.0969691934624C189.13422730926752,365.33025488138475,192.58321090691112,364.56354056930707,193.39520523238946,363.7968262572294C201.9171610786333,355.7500883562469,200.5092524915917,347.7033504552645,206.17813900175526,339.65661255428205C209.8488182526356,334.446242969805,213.62386285541288,329.23587338532786,218.96107277112105,324.0255038008508C222.69523028035672,320.3800896205868,226.16279457851755,316.7346754403228,231.74400654048685,313.0892612600588C235.42934692702295,310.6821510847559,239.46252396862812,308.2750409094531,244.5269403098526,305.8679307341502C248.33391936781055,304.0584787834917,252.7043792721177,302.2490268328332,257.3098740792184,300.43957488217467C261.3108430596635,298.8676349648766,265.64768638960186,297.2956950475785,270.0928078485842,295.7237551302804C274.19681948625913,294.2724427704615,278.77658862754106,292.82113041064264,282.87574161795,291.36981805082377C287.3275896117347,289.7936334018165,290.78683060839785,288.21744875280933,295.6586753873158,286.6412641038021C299.5332745559773,285.38771765315823,303.8797336931078,284.1341712025143,308.4416091566816,282.88062475187047C312.4681646489719,281.7741775491827,317.0778786618165,280.667730346495,321.2245429260473,279.5612831438072C325.6135888492203,278.39016166526045,329.8741893987788,277.21904018671376,334.0074766954132,276.047918708167C338.41355632310155,274.79950452404415,344.7344801172224,273.55109033992136,346.7904104647789,272.3026761557985C355.3123663110228,267.12792372920796,355.98081694767114,261.9531713026174,359.5733442341447,256.7784188760269C365.9215685459635,247.63430206282615,367.3778646980164,238.49018524962543,372.3562780035105,229.3460684364247C376.1914829870226,222.30174322278646,378.5751791775548,215.2574180091482,385.1392117728763,208.21309279550997C388.7162589521838,204.37431179166043,393.61805843984547,200.53553078781087,397.9221455422421,196.69674978396134C402.14169116697406,192.93337065065384,405.9766555014884,189.16999151734632,410.7050793116079,185.40661238403882C414.642006303441,182.2731900248351,419.61300383610046,179.13976766563138,423.4880130809737,176.00634530642765C428.35882062774925,172.0676973420035,433.4158611493704,168.12904937757932,436.27094685033944,164.19040141315517C444.79290269658327,152.43419247157107,443.6649473444428,140.677983529987,449.0538806197052,128.92177458840288C452.77658465062916,120.8005223516903,455.7954186257008,112.67927011497774,461.83681438907104,104.55801787826516C465.45809805110775,99.69004378883389,469.16071020065294,94.82206969940262,474.6197481584368,89.95409560997135C478.3279266242472,86.64741102009529,481.41692926741104,83.34072643021925,487.4026819278026,80.03404184034319C491.03020548811577,78.03010400046672,495.55014171022844,76.02616616059024,500.18561569716843,74.02222832071377C504.1699221207122,72.29979337009225,508.5845130167555,70.57735841947073,512.9685494665342,68.85492346884921C517.1192211299369,67.22417472314474,521.8373911491993,65.59342597744026,525.7514832359,63.962677231735796C530.5293430178342,61.97205241403793,531.553209653333,59.981427596340076,538.5344170052657,57.99080277864221C542.0898444380957,56.97700649262357,547.1325267489132,55.963210206604934,551.3173507746316,54.949413920586295C555.6603481505913,53.89729928377529,559.9648419459504,52.84518464696429,564.1002845439974,51.793070010153286C568.5035867286261,50.67280813517585,572.8005835450355,49.552546260198405,576.8832183133632,48.43228438522097C581.3584925454769,47.204283501772,586.0771678209594,45.976282618323026,589.666152082729,44.748281734874055C596.0597386956814,42.56066277740287,598.5639647787336,40.37304381993168,602.4490858520946,38.18542486246049C607.2947448761751,35.456949908306996,611.2633822488177,32.7284749541535,615.2320196214605,30"></path></g>

</svg>

