<svg class="plot" fill="currentColor" text-anchor="middle" width="640" height="460" viewBox="0 0 640 400" style="font-family: 'RO Sans', sans-serif; font-size: 14px;" xmlns="http://www.w3.org/2000/svg">

<g transform="translate(40,0)" fill="none" text-anchor="end"><g class="tick" opacity="1" transform="translate(0,320.02009032495334)"><line stroke="currentColor" x2="0"></line><line stroke="currentColor" x2="580" stroke-opacity="0.1"></line><text fill="currentColor" x="-9" dy="0.32em">0m</text></g><g class="tick" opacity="1" transform="translate(0,277.635438524649)"><line stroke="currentColor" x2="0"></line><line stroke="currentColor" x2="580" stroke-opacity="0.1"></line><text fill="currentColor" x="-9" dy="0.32em">0.5m</text></g><g class="tick" opacity="1" transform="translate(0,235.25078672434458)"><line stroke="currentColor" x2="0"></line><line stroke="currentColor" x2="580" stroke-opacity="0.1"></line><text fill="currentColor" x="-9" dy="0.32em">1m</text></g><g class="tick" opacity="1" transform="translate(0,192.8661349240402)"><line stroke="currentColor" x2="0"></line><line stroke="currentColor" x2="580" stroke-opacity="0.1"></line><text fill="currentColor" x="-9" dy="0.32em">1.5m</text></g><g class="tick" opacity="1" transform="translate(0,150.4814831237358)"><line stroke="currentColor" x2="0"></line><line stroke="currentColor" x2="580" stroke-opacity="0.1"></line><text fill="currentColor" x="-9" dy="0.32em">2m</text></g><g class="tick" opacity="1" transform="translate(0,108.0968313234314)"><line stroke="currentColor" x2="0"></line><line stroke="currentColor" x2="580" stroke-opacity="0.1"></line><text fill="currentColor" x="-9" dy="0.32em">2.5m</text></g><g class="tick" opacity="1" transform="translate(0,65.712179523127)"><line stroke="currentColor" x2="0"></line><line stroke="currentColor" x2="580" stroke-opacity="0.1"></line><text fill="currentColor" x="-9" dy="0.32em">3m</text></g><text fill="currentColor" transform="translate(-40,40)" dy="-1em" text-anchor="start">↑ Number of downloads CoronaCheck Scanner (million)</text></g><g transform="translate(0,320)" fill="none" text-anchor="middle"><g class="tick" opacity="1" transform="translate(46.716870370275196,0)"><line stroke="currentColor" y2="6"></line><text fill="currentColor" dy="0.32em" transform="translate(0, 11.82842712474619) rotate(-45)" text-anchor="end">Apr 2021</text></g><g class="tick" opacity="1" transform="translate(97.09339814733914,0)"><line stroke="currentColor" y2="6"></line><text fill="currentColor" dy="0.32em" transform="translate(0, 11.82842712474619) rotate(-45)" text-anchor="end">May 2021</text></g><g class="tick" opacity="1" transform="translate(149.1491435169719,0)"><line stroke="currentColor" y2="6"></line><text fill="currentColor" dy="0.32em" transform="translate(0, 11.82842712474619) rotate(-45)" text-anchor="end">Jun 2021</text></g><g class="tick" opacity="1" transform="translate(199.5256712940359,0)"><line stroke="currentColor" y2="6"></line><text fill="currentColor" dy="0.32em" transform="translate(0, 11.82842712474619) rotate(-45)" text-anchor="end">Jul 2021</text></g><g class="tick" opacity="1" transform="translate(251.58141666366865,0)"><line stroke="currentColor" y2="6"></line><text fill="currentColor" dy="0.32em" transform="translate(0, 11.82842712474619) rotate(-45)" text-anchor="end">Aug 2021</text></g><g class="tick" opacity="1" transform="translate(303.6371620333014,0)"><line stroke="currentColor" y2="6"></line><text fill="currentColor" dy="0.32em" transform="translate(0, 11.82842712474619) rotate(-45)" text-anchor="end">Sep 2021</text></g><g class="tick" opacity="1" transform="translate(354.0136898103653,0)"><line stroke="currentColor" y2="6"></line><text fill="currentColor" dy="0.32em" transform="translate(0, 11.82842712474619) rotate(-45)" text-anchor="end">Oct 2021</text></g><g class="tick" opacity="1" transform="translate(406.0694351799981,0)"><line stroke="currentColor" y2="6"></line><text fill="currentColor" dy="0.32em" transform="translate(0, 11.82842712474619) rotate(-45)" text-anchor="end">Nov 2021</text></g><g class="tick" opacity="1" transform="translate(456.4459629570621,0)"><line stroke="currentColor" y2="6"></line><text fill="currentColor" dy="0.32em" transform="translate(0, 11.82842712474619) rotate(-45)" text-anchor="end">Dec 2021</text></g><g class="tick" opacity="1" transform="translate(508.5017083266948,0)"><line stroke="currentColor" y2="6"></line><text fill="currentColor" dy="0.32em" transform="translate(0, 11.82842712474619) rotate(-45)" text-anchor="end">Jan 2022</text></g><g class="tick" opacity="1" transform="translate(560.5574536963276,0)"><line stroke="currentColor" y2="6"></line><text fill="currentColor" dy="0.32em" transform="translate(0, 11.82842712474619) rotate(-45)" text-anchor="end">Feb 2022</text></g><g class="tick" opacity="1" transform="translate(607.5755462882539,0)"><line stroke="currentColor" y2="6"></line><text fill="currentColor" dy="0.32em" transform="translate(0, 11.82842712474619) rotate(-45)" text-anchor="end">Mar 2022</text></g><text fill="currentColor" transform="translate(640,-10)" dy="-0.32em" text-anchor="end">Month →</text></g><g fill="none" stroke="#ec025f" stroke-width="3" stroke-miterlimit="1"><path d="M40,320C45.647499632649506,319.99734389515385,51.29499926529901,319.9946877903077,51.754523147981594,319.99203168546154C59.59087191330266,319.9467366209043,59.7894434950672,319.901441556347,63.50904629596319,319.85614649178973C67.67648648960277,319.8053979353675,71.26681373255826,319.7546493789453,75.26356944394477,319.7039008225231C79.10900032884403,319.6550737036492,80.9725628699459,319.6062465847752,87.01809259192638,319.55741946590126C90.30674880643056,319.53085841743973,94.932738209282,319.5042973689782,98.77261573990796,319.47773632051667C102.77589231439059,319.4500450146738,105.98648687562692,319.42235370883094,110.52713888788955,319.39466240298805C114.06699413010045,319.37307448700443,121.18030617555033,319.3514865710208,122.28166203587114,319.3298986550372C130.1180108011922,319.1762966769129,128.7231418860608,319.0226946987886,134.03618518385275,318.8690927206643C137.39642117682735,318.771947098738,143.0660555147657,318.6748014768117,145.7907083318343,318.5776558548854C153.6270570971554,318.29825623021776,152.7052632218224,318.0188566055502,157.54523147981593,317.73945698088255C160.99507940480936,317.5403056302902,166.52001804830292,317.34115427969783,169.29975462779748,317.1420029291055C177.13610339311853,316.58057583135866,180.3076098928758,316.0191487336118,181.05427777577907,315.45772163586497C188.89062654110015,309.56549211189025,187.59598679914333,303.67326258791553,192.80880092376069,297.7810330639408C196.18416725216102,293.9657362474846,199.65550254722055,290.1504394310284,204.56332407174227,286.3351426145722C207.99706171542073,283.66578550062354,211.1856540640353,280.99642838667495,216.31784721972386,278.3270712727263C219.7066951683493,276.56446314295886,223.41539567097328,274.80185501319136,228.07237036770547,273.0392468834239C231.57307093206958,271.71427441171187,235.59191926840518,270.3893019399998,239.82689351568706,269.0643294682878C243.5059771551333,267.91327535112964,247.49391343257045,266.76222123397156,251.58141666366865,265.6111671168134C255.35525298833494,264.5484426140071,259.56657124710745,263.4857181112008,263.33593981165023,262.4229936083945C267.4296284154076,261.2688312834377,270.61056708749635,260.1146689584809,275.09046295963185,258.96050663352406C278.6533434719543,258.0425963577021,282.6501219471423,257.1246860818802,286.84498610761335,256.20677580605826C290.5475977767894,255.39657905867818,294.78645178692386,254.5863823112981,298.59950925559497,253.77618556391803C302.63544833126554,252.91863103225973,306.55327570076236,252.06107650060144,310.3540324035766,251.20352196894314C314.40563479078685,250.28936979891418,320.21802859608675,249.3752176288852,322.10855555155814,248.46106545885624C329.9449043168792,244.6718493314745,330.5595768657268,240.88263320409274,333.86307869953976,237.093417076711C339.7005766454871,230.3976310674716,341.0397110835178,223.70184505823215,345.61760184752137,217.00605904899274C349.14425750961857,211.8478469248957,351.3361809408823,206.68963480079867,357.37212499550293,201.53142267670162C360.6613921253504,198.72047256930543,365.1688327946094,195.90952246190926,369.12664814348454,193.09857235451307C373.0067235326522,190.3428353201954,376.5331579064078,187.58709828587777,380.8811712914661,184.8313612515601C384.5013652385174,182.53691051100242,389.07243684230184,180.24245977044473,392.6356944394477,177.94800902988703C397.11463652668164,175.06393126991804,401.7648288021148,172.17985350994908,404.39021758742933,169.2957757499801C412.2265663527504,160.68728343073107,411.189357091102,152.07879111148208,416.14474073541095,143.47029879223305C419.5679463542531,137.52350609317406,422.34390956270926,131.57671339411507,427.8992638833925,125.6299206950561C431.229208589265,122.06534322221597,434.6339387556786,118.50076574937584,439.65378703137407,114.93618827653572C443.06363569363293,112.51486614492246,445.9041223712892,110.09354401330923,451.4083101793557,107.67222188169598C454.74399277216827,106.2048369799349,458.90029178058126,104.7374520781738,463.1628333273373,103.27006717641272C466.826594943347,102.0088129645738,470.88602385165973,100.74755875273488,474.91735647531885,99.48630454089596C478.73409894050025,98.29218761750872,483.07268347110636,97.09807069412147,486.6718796233005,95.90395377073423C491.0653517649733,94.44631733888723,492.0068464394007,92.9886809070402,498.426402771282,91.5310444751932C501.69578950317015,90.78869142712814,506.3327787123665,90.0463383790631,510.18092591926364,89.30398533099805C514.1745211383583,88.53357364344117,518.132710460996,87.7631619558843,521.9354490672451,86.99275026832743C525.9844974618176,86.17243771738434,529.935792951303,85.35212516644124,533.6899722152267,84.53181261549815C537.8052023731904,83.63260809933743,542.144251511221,82.73340358317671,545.4444953632085,81.83419906701599C551.3237061294161,80.23231353687528,553.6264626008264,78.63042800673458,557.1990185111899,77.02854247659387C561.6548353208083,75.03061476003113,564.8505351278666,73.03268704346837,568.9535416591716,71.03475932690563C572.716270278819,69.20252734244754,574.2728792218037,67.37029535798946,580.7080648071532,65.53806337353137C583.9768171416328,64.60738118930027,587.0720797889691,63.67669900506918,592.4625879551347,62.746016820838086C595.812241251941,62.16769237524021,598.5263804782704,61.58936792964233,604.2171111031163,61.01104348404445C607.5333442668694,60.67402898936297,611.7524892589837,60.33701449468148,615.9716342510978,60"></path></g>

</svg>

