<svg class="plot" fill="currentColor" text-anchor="middle" width="640" height="460" viewBox="0 0 640 400" style="font-family: 'RO Sans', sans-serif; font-size: 14px;" xmlns="http://www.w3.org/2000/svg">

<style>
        line[stroke-opacity] {
            stroke-opacity: 1;
            stroke: #949494;
        }
</style>

<!-- replace the below code -->

<g transform="translate(40,0)" fill="none" text-anchor="end"><g class="tick" opacity="1" transform="translate(0,320)"><line stroke="currentColor" x2="-6"></line><line stroke="currentColor" x2="580" stroke-opacity="0.1"></line><text fill="currentColor" x="-9" dy="0.32em">0M</text></g><g class="tick" opacity="1" transform="translate(0,288.8888888888889)"><line stroke="currentColor" x2="-6"></line><line stroke="currentColor" x2="580" stroke-opacity="0.1"></line><text fill="currentColor" x="-9" dy="0.32em">2M</text></g><g class="tick" opacity="1" transform="translate(0,257.77777777777777)"><line stroke="currentColor" x2="-6"></line><line stroke="currentColor" x2="580" stroke-opacity="0.1"></line><text fill="currentColor" x="-9" dy="0.32em">4M</text></g><g class="tick" opacity="1" transform="translate(0,226.6666666666667)"><line stroke="currentColor" x2="-6"></line><line stroke="currentColor" x2="580" stroke-opacity="0.1"></line><text fill="currentColor" x="-9" dy="0.32em">6M</text></g><g class="tick" opacity="1" transform="translate(0,195.55555555555554)"><line stroke="currentColor" x2="-6"></line><line stroke="currentColor" x2="580" stroke-opacity="0.1"></line><text fill="currentColor" x="-9" dy="0.32em">8M</text></g><g class="tick" opacity="1" transform="translate(0,164.44444444444446)"><line stroke="currentColor" x2="-6"></line><line stroke="currentColor" x2="580" stroke-opacity="0.1"></line><text fill="currentColor" x="-9" dy="0.32em">10M</text></g><g class="tick" opacity="1" transform="translate(0,133.33333333333334)"><line stroke="currentColor" x2="-6"></line><line stroke="currentColor" x2="580" stroke-opacity="0.1"></line><text fill="currentColor" x="-9" dy="0.32em">12M</text></g><g class="tick" opacity="1" transform="translate(0,102.22222222222223)"><line stroke="currentColor" x2="-6"></line><line stroke="currentColor" x2="580" stroke-opacity="0.1"></line><text fill="currentColor" x="-9" dy="0.32em">14M</text></g><g class="tick" opacity="1" transform="translate(0,71.11111111111113)"><line stroke="currentColor" x2="-6"></line><line stroke="currentColor" x2="580" stroke-opacity="0.1"></line><text fill="currentColor" x="-9" dy="0.32em">16M</text></g><g class="tick" opacity="1" transform="translate(0,40)"><line stroke="currentColor" x2="-6"></line><line stroke="currentColor" x2="580" stroke-opacity="0.1"></line><text fill="currentColor" x="-9" dy="0.32em">18M</text></g><text fill="currentColor" transform="translate(20,40)" dy="-1em" text-anchor="start">↑ Aantal downloads CoronaCheck (miljoen)</text></g><g transform="translate(0,320)" fill="none" text-anchor="middle"><g class="tick" opacity="1" transform="translate(44.49612403100775,0)"><line stroke="currentColor" y2="6"></line><text fill="currentColor" dy="0.32em" transform="translate(0, 11.82842712474619) rotate(-45)" text-anchor="end">apr. 2021</text></g><g class="tick" opacity="1" transform="translate(78.2170542635659,0)"><line stroke="currentColor" y2="6"></line><text fill="currentColor" dy="0.32em" transform="translate(0, 11.82842712474619) rotate(-45)" text-anchor="end">mei 2021</text></g><g class="tick" opacity="1" transform="translate(113.06201550387598,0)"><line stroke="currentColor" y2="6"></line><text fill="currentColor" dy="0.32em" transform="translate(0, 11.82842712474619) rotate(-45)" text-anchor="end">jun. 2021</text></g><g class="tick" opacity="1" transform="translate(146.7829457364341,0)"><line stroke="currentColor" y2="6"></line><text fill="currentColor" dy="0.32em" transform="translate(0, 11.82842712474619) rotate(-45)" text-anchor="end">jul. 2021</text></g><g class="tick" opacity="1" transform="translate(181.62790697674419,0)"><line stroke="currentColor" y2="6"></line><text fill="currentColor" dy="0.32em" transform="translate(0, 11.82842712474619) rotate(-45)" text-anchor="end">aug. 2021</text></g><g class="tick" opacity="1" transform="translate(216.47286821705427,0)"><line stroke="currentColor" y2="6"></line><text fill="currentColor" dy="0.32em" transform="translate(0, 11.82842712474619) rotate(-45)" text-anchor="end">sep. 2021</text></g><g class="tick" opacity="1" transform="translate(250.1937984496124,0)"><line stroke="currentColor" y2="6"></line><text fill="currentColor" dy="0.32em" transform="translate(0, 11.82842712474619) rotate(-45)" text-anchor="end">okt. 2021</text></g><g class="tick" opacity="1" transform="translate(285.0387596899224,0)"><line stroke="currentColor" y2="6"></line><text fill="currentColor" dy="0.32em" transform="translate(0, 11.82842712474619) rotate(-45)" text-anchor="end">nov. 2021</text></g><g class="tick" opacity="1" transform="translate(318.7596899224806,0)"><line stroke="currentColor" y2="6"></line><text fill="currentColor" dy="0.32em" transform="translate(0, 11.82842712474619) rotate(-45)" text-anchor="end">dec. 2021</text></g><g class="tick" opacity="1" transform="translate(353.6046511627907,0)"><line stroke="currentColor" y2="6"></line><text fill="currentColor" dy="0.32em" transform="translate(0, 11.82842712474619) rotate(-45)" text-anchor="end">jan. 2022</text></g><g class="tick" opacity="1" transform="translate(388.44961240310073,0)"><line stroke="currentColor" y2="6"></line><text fill="currentColor" dy="0.32em" transform="translate(0, 11.82842712474619) rotate(-45)" text-anchor="end">feb. 2022</text></g><g class="tick" opacity="1" transform="translate(419.92248062015506,0)"><line stroke="currentColor" y2="6"></line><text fill="currentColor" dy="0.32em" transform="translate(0, 11.82842712474619) rotate(-45)" text-anchor="end">mrt. 2022</text></g><g class="tick" opacity="1" transform="translate(454.76744186046517,0)"><line stroke="currentColor" y2="6"></line><text fill="currentColor" dy="0.32em" transform="translate(0, 11.82842712474619) rotate(-45)" text-anchor="end">apr. 2022</text></g><g class="tick" opacity="1" transform="translate(488.48837209302326,0)"><line stroke="currentColor" y2="6"></line><text fill="currentColor" dy="0.32em" transform="translate(0, 11.82842712474619) rotate(-45)" text-anchor="end">mei 2022</text></g><g class="tick" opacity="1" transform="translate(523.3333333333334,0)"><line stroke="currentColor" y2="6"></line><text fill="currentColor" dy="0.32em" transform="translate(0, 11.82842712474619) rotate(-45)" text-anchor="end">jun. 2022</text></g><g class="tick" opacity="1" transform="translate(557.0542635658916,0)"><line stroke="currentColor" y2="6"></line><text fill="currentColor" dy="0.32em" transform="translate(0, 11.82842712474619) rotate(-45)" text-anchor="end">jul. 2022</text></g><g class="tick" opacity="1" transform="translate(591.8992248062016,0)"><line stroke="currentColor" y2="6"></line><text fill="currentColor" dy="0.32em" transform="translate(0, 11.82842712474619) rotate(-45)" text-anchor="end">aug. 2022 *</text></g><text fill="currentColor" transform="translate(640,80)" dy="-0.32em" text-anchor="end">Maand →</text></g><g fill="none" stroke="#ec025f" stroke-width="3" stroke-miterlimit="1"><path d="M40,319.92304666666666L47.86821705426356,319.91447555555555L55.736434108527135,319.50455555555556L63.6046511627907,318.7930288888889L71.47286821705427,318.11953555555556L79.34108527131782,317.88861333333335L87.2093023255814,317.65930888888886L95.07751937984497,317.4885711111111L102.94573643410854,316.55435111111115L110.81395348837209,316.09638L118.68217054263565,314.25595555555554L126.55038759689921,311.93243777777775L134.41860465116278,305.2646111111111L142.28682170542635,272.6142155555556L150.15503875968992,249.08172444444446L158.02325581395348,234.52607999999998L165.89147286821708,221.42433555555556L173.75968992248062,211.00811777777778L181.62790697674419,201.32853333333335L189.49612403100775,192.0309311111111L197.3643410852713,183.7889288888889L205.2325581395349,177.84403111111112L213.10077519379843,173.06094666666667L220.96899224806202,168.40893333333335L228.8372093023256,163.69315777777777L236.70542635658916,152.02731555555553L244.57364341085272,139.8049577777778L252.44186046511626,131.3468422222222L260.31007751937983,126.34031777777778L268.17829457364337,122.11676666666668L276.04651162790697,117.9673688888889L283.91472868217056,114.55835333333334L291.78294573643416,109.74275777777777L299.65116279069764,106.05705555555556L307.51937984496124,103.36258444444444L315.38759689922483,100.6392266666667L323.25581395348837,98.41680444444445L331.12403100775197,96.39959111111112L338.9922480620155,94.47216444444446L346.8604651162791,92.96783333333332L354.7286821705426,91.42812888888888L362.5968992248062,89.77312666666666L370.4651162790698,88.24605333333335L378.33333333333337,86.38522L386.20155038759685,83.77443777777779L394.06976744186045,81.38480888888887L394.06976744186045,81.38480888888887L401.93798449612405,79.3676888888889L409.8062015503876,77.92660666666664L417.6744186046512,76.6880733333333L425.5426356589147,75.7141088888889L431.1627906976744,75.2123488888889L439.031007751938,74.38812222222222L446.8992248062016,73.4780911111111L452.51937984496124,72.85817111111112L467.1317829457364,71.41669999999999L470.50387596899225,71.20988888888887L478.37209302325584,70.28640222222222L486.2403100775194,69.54180444444445L494.1085271317829,68.80994666666666L501.9767441860465,68.13317111111112L509.84496124031006,67.49030666666664L517.7131782945737,66.7732422222222L525.5813953488372,66.02421111111113L533.4496124031008,65.40009111111112L541.3178294573644,64.80521555555555L549.186046511628,64.18269777777775L557.0542635658916,63.50914222222223L564.9224806201552,62.836628888888896L572.7906976744187,62.15705333333334L580.6589147286821,61.495677777777814L588.5271317829457,60.68593333333332L596.3953488372093,60.10045333333336L604.2635658914728,59.57980888888889L612.1317829457364,59.056691111111085L620,58.49972444444441"></path></g><g stroke="currentColor"><line x1="40" x2="620" y1="320" y2="320"></line></g>

</svg>
