<svg class="plot" fill="currentColor" text-anchor="middle" width="640" height="460" viewBox="0 0 640 400" style="font-family: 'RO Sans', sans-serif; font-size: 14px;" xmlns="http://www.w3.org/2000/svg">

<g transform="translate(40,0)" fill="none" text-anchor="end"><g class="tick" opacity="1" transform="translate(0,370.1153289257295)"><line stroke="currentColor" x2="0"></line><line stroke="currentColor" x2="580" stroke-opacity="0.1"></line><text fill="currentColor" x="-9" dy="0.32em">0m</text></g><g class="tick" opacity="1" transform="translate(0,323.4895251135239)"><line stroke="currentColor" x2="0"></line><line stroke="currentColor" x2="580" stroke-opacity="0.1"></line><text fill="currentColor" x="-9" dy="0.32em">2m</text></g><g class="tick" opacity="1" transform="translate(0,276.8637213013182)"><line stroke="currentColor" x2="0"></line><line stroke="currentColor" x2="580" stroke-opacity="0.1"></line><text fill="currentColor" x="-9" dy="0.32em">4m</text></g><g class="tick" opacity="1" transform="translate(0,230.23791748911253)"><line stroke="currentColor" x2="0"></line><line stroke="currentColor" x2="580" stroke-opacity="0.1"></line><text fill="currentColor" x="-9" dy="0.32em">6m</text></g><g class="tick" opacity="1" transform="translate(0,183.61211367690692)"><line stroke="currentColor" x2="0"></line><line stroke="currentColor" x2="580" stroke-opacity="0.1"></line><text fill="currentColor" x="-9" dy="0.32em">8m</text></g><g class="tick" opacity="1" transform="translate(0,136.98630986470127)"><line stroke="currentColor" x2="0"></line><line stroke="currentColor" x2="580" stroke-opacity="0.1"></line><text fill="currentColor" x="-9" dy="0.32em">10m</text></g><g class="tick" opacity="1" transform="translate(0,90.36050605249558)"><line stroke="currentColor" x2="0"></line><line stroke="currentColor" x2="580" stroke-opacity="0.1"></line><text fill="currentColor" x="-9" dy="0.32em">12m</text></g><g class="tick" opacity="1" transform="translate(0,43.73470224028995)"><line stroke="currentColor" x2="0"></line><line stroke="currentColor" x2="580" stroke-opacity="0.1"></line><text fill="currentColor" x="-9" dy="0.32em">14m</text></g><g class="tick" opacity="1" transform="translate(0,-2.8911015719156836)"><line stroke="currentColor" x2="0"></line><line stroke="currentColor" x2="580" stroke-opacity="0.1"></line><text fill="currentColor" x="-9" dy="0.32em">16m</text></g><text fill="currentColor" transform="translate(10,20)" dy="-1em" text-anchor="start">↑ Aantal downloads CoronaCheck (miljoen)</text></g><g transform="translate(0,370)" fill="none" text-anchor="middle"><g class="tick" opacity="1" transform="translate(104.89442449826643,0)"><line stroke="currentColor" y2="6"></line><text fill="currentColor" y="9" dy="0.71em">mei 2021</text></g><g class="tick" opacity="1" transform="translate(221.32265668633264,0)"><line stroke="currentColor" y2="6"></line><text fill="currentColor" y="9" dy="0.71em">jul. 2021</text></g><g class="tick" opacity="1" transform="translate(339.6595484184655,0)"><line stroke="currentColor" y2="6"></line><text fill="currentColor" y="9" dy="0.71em">sep. 2021</text></g><g class="tick" opacity="1" transform="translate(456.0877806065317,0)"><line stroke="currentColor" y2="6"></line><text fill="currentColor" y="9" dy="0.71em">nov. 2021</text></g><g class="tick" opacity="1" transform="translate(572.5160127945979,0)"><line stroke="currentColor" y2="6"></line><text fill="currentColor" y="9" dy="0.71em">jan. 2022</text></g><text fill="currentColor" transform="translate(640,-10)" dy="-0.32em" text-anchor="end">Weeknummer →</text></g><g fill="none" stroke="#ec025f" stroke-width="3" stroke-miterlimit="1"><path d="M40,370C46.58718833919741,369.9957181970166,53.17437667839483,369.99143639403314,53.36061680846662,369.9871545910497C62.267694680777694,369.7823740607065,62.95773662935474,369.57759353036334,66.72123361693323,369.37281300002013C73.25379720637015,369.0173611846578,75.49910882218956,368.6619093692954,80.08185042539984,368.30645755393306C84.41963010779845,367.97000575362415,84.53538936155537,367.6335539533153,93.44246723386647,367.2971021530064C96.49645769521196,367.18174214340775,102.33377968434105,367.06638213380904,106.80308404233307,366.9510221242104C111.24107767932821,366.8364702952111,114.83450742828228,366.7219184662118,120.16370085079969,366.60736663721246C124.13176455105962,366.52207250010537,131.89646267605917,366.4367783629982,133.5243176592663,366.3514842258911C142.43139553157738,365.8847832426328,139.32360707284903,365.41808225937456,146.88493446773293,364.95138127611625C150.5916304371081,364.72259622777705,158.02911453941906,364.4938111794379,160.24555127619954,364.2650261310987C169.1526291485106,363.3456196766931,169.56189319730316,362.4262132222876,173.60616808466614,361.506806767882C178.71202539240517,360.34606515294445,183.86296189068034,359.18532353800686,186.96678489313277,358.0245819230693C195.87386276544385,354.6935878729215,198.50840838318712,351.3625938227737,200.32740170159937,348.0315997726259C209.23447957391045,331.72069687015187,208.23167389566785,315.40979396767784,213.688018510066,299.0988910652038C217.62063185066106,287.34294841778444,220.89811994767015,275.5870057703651,227.0486353185326,263.83106312294575C230.85293782376522,256.5596135990862,235.69561883487205,249.2881640752267,240.40925212699923,242.01671455136716C244.6520610959863,235.47157848639227,248.67666276255844,228.92644242141742,253.76986893546584,222.38130635644254C257.81909649513034,217.17775785745815,262.5012739722314,211.9742093584738,267.13048574393247,206.7706608594894C271.4323203648438,201.93510651709286,275.9442376863072,197.09955217469633,280.49110255239907,192.2639978322998C284.85853600222896,187.619267362972,289.0958213031774,182.9745368936442,293.8517193608657,178.32980642431642C298.0676582043711,174.21241379610467,301.75905779634166,170.09502116789295,307.2123361693323,165.9776285396812C311.14574720309616,163.00778242392815,315.5199544579837,160.0379363081751,320.57295297779893,157.06809019242203C324.63844233041203,154.67864208252334,329.41641974700116,152.28919397262462,333.93356978626554,149.89974586272592C338.3269361287169,147.57577592331415,342.8705509798664,145.2518059839024,347.29418659473214,142.92783604449062C351.77845420200515,140.57201291010782,357.05422495360665,138.21618977572498,360.65480340319874,135.86036664134218C369.56188127550985,130.0325530260835,369.66090978473665,124.2047394108248,374.0154202116654,118.37692579556611C378.577661271604,112.27109805410983,381.7511021320626,106.16527031265356,387.376037020132,100.05944257119728C391.26860424331284,95.83408789425836,394.35440404769975,91.60873321731945,400.73665382859855,87.38337854038053C404.514432617354,84.88230825615541,409.1959095667247,82.38123797193029,414.09727063706515,79.88016768770517C418.23210493664885,77.77024127166064,422.9642017795153,75.66031485561611,427.45788744553187,73.55038843957158C431.87267699727846,71.47750622465584,435.8339748986585,69.4046240097401,440.81850425399847,67.33174179482437C444.9136378178328,65.62872653961625,450.26476153413324,63.92571128440814,454.1791210624651,62.22269602920002C459.7085685056608,59.817006597640066,462.3128290943012,57.4113171660801,467.5397378709317,55.00562773452015C471.5402460263881,53.16439028391075,475.50037285251125,51.32315283330136,480.9003546793983,49.48191538269196C484.8480678031946,48.13585951050279,489.83092597105144,46.78980363831363,494.26097148786494,45.44374776612446C498.738510276228,44.08326120765541,502.6152972020573,42.72277464918636,507.62158829633154,41.362288090717314C511.7070201369864,40.25204999227567,516.2911749053458,39.14181189383403,520.9822051047981,38.03157379539239C525.2400857949681,37.023850297599196,529.7831907186284,36.016126799806,534.3428219132649,35.00840330201281C538.699502790535,34.04553382748694,542.5464039737172,33.08266435296108,547.7034387217313,32.119794878435215C551.7284363762129,31.368287943557387,556.6610801481871,30.616781008679563,561.064055530198,29.865274073801736C565.5705639141496,29.09609595927908,570.1206653482859,28.326917844756426,574.4246723386647,27.55773973023377C579.0509765357062,26.730963206068427,583.1377053783489,25.904186681903088,587.7852891471312,25.077410157737745C592.073622505506,24.314542068664355,597.0524151158838,23.551673979590966,601.1459059555979,22.788805890517576C606.1340777990597,21.859203927011716,610.320300281562,20.92960196350586,614.5065227640644,20"></path></g>

</svg>
