<svg class="plot" fill="currentColor" text-anchor="middle" width="640" height="460" viewBox="0 0 640 400" style="font-family: 'RO Sans', sans-serif; font-size: 14px;" xmlns="http://www.w3.org/2000/svg">
<style>
        line[stroke-opacity] {
            stroke-opacity: 1;
            stroke: #949494;
        }
</style>

<!-- replace the below code -->

<g transform="translate(40,0)" fill="none" text-anchor="end"><g class="tick" opacity="1" transform="translate(0,320)"><line stroke="currentColor" x2="-6"></line><line stroke="currentColor" x2="580" stroke-opacity="0.1"></line><text fill="currentColor" x="-9" dy="0.32em">0M</text></g><g class="tick" opacity="1" transform="translate(0,288.8888888888889)"><line stroke="currentColor" x2="-6"></line><line stroke="currentColor" x2="580" stroke-opacity="0.1"></line><text fill="currentColor" x="-9" dy="0.32em">2M</text></g><g class="tick" opacity="1" transform="translate(0,257.77777777777777)"><line stroke="currentColor" x2="-6"></line><line stroke="currentColor" x2="580" stroke-opacity="0.1"></line><text fill="currentColor" x="-9" dy="0.32em">4M</text></g><g class="tick" opacity="1" transform="translate(0,226.6666666666667)"><line stroke="currentColor" x2="-6"></line><line stroke="currentColor" x2="580" stroke-opacity="0.1"></line><text fill="currentColor" x="-9" dy="0.32em">6M</text></g><g class="tick" opacity="1" transform="translate(0,195.55555555555554)"><line stroke="currentColor" x2="-6"></line><line stroke="currentColor" x2="580" stroke-opacity="0.1"></line><text fill="currentColor" x="-9" dy="0.32em">8M</text></g><g class="tick" opacity="1" transform="translate(0,164.44444444444446)"><line stroke="currentColor" x2="-6"></line><line stroke="currentColor" x2="580" stroke-opacity="0.1"></line><text fill="currentColor" x="-9" dy="0.32em">10M</text></g><g class="tick" opacity="1" transform="translate(0,133.33333333333334)"><line stroke="currentColor" x2="-6"></line><line stroke="currentColor" x2="580" stroke-opacity="0.1"></line><text fill="currentColor" x="-9" dy="0.32em">12M</text></g><g class="tick" opacity="1" transform="translate(0,102.22222222222223)"><line stroke="currentColor" x2="-6"></line><line stroke="currentColor" x2="580" stroke-opacity="0.1"></line><text fill="currentColor" x="-9" dy="0.32em">14M</text></g><g class="tick" opacity="1" transform="translate(0,71.11111111111113)"><line stroke="currentColor" x2="-6"></line><line stroke="currentColor" x2="580" stroke-opacity="0.1"></line><text fill="currentColor" x="-9" dy="0.32em">16M</text></g><g class="tick" opacity="1" transform="translate(0,40)"><line stroke="currentColor" x2="-6"></line><line stroke="currentColor" x2="580" stroke-opacity="0.1"></line><text fill="currentColor" x="-9" dy="0.32em">18M</text></g><text fill="currentColor" transform="translate(20,40)" dy="-1em" text-anchor="start">↑ Number of downloads CoronaCheck (million)</text></g><g transform="translate(0,320)" fill="none" text-anchor="middle"><g class="tick" opacity="1" transform="translate(43.613707165109034,0)"><line stroke="currentColor" y2="6"></line><text fill="currentColor" dy="0.32em" transform="translate(0, 11.82842712474619) rotate(-45)" text-anchor="end">Apr 2021</text></g><g class="tick" opacity="1" transform="translate(70.71651090342678,0)"><line stroke="currentColor" y2="6"></line><text fill="currentColor" dy="0.32em" transform="translate(0, 11.82842712474619) rotate(-45)" text-anchor="end">May 2021</text></g><g class="tick" opacity="1" transform="translate(98.72274143302181,0)"><line stroke="currentColor" y2="6"></line><text fill="currentColor" dy="0.32em" transform="translate(0, 11.82842712474619) rotate(-45)" text-anchor="end">Jun 2021</text></g><g class="tick" opacity="1" transform="translate(125.82554517133957,0)"><line stroke="currentColor" y2="6"></line><text fill="currentColor" dy="0.32em" transform="translate(0, 11.82842712474619) rotate(-45)" text-anchor="end">Jul 2021</text></g><g class="tick" opacity="1" transform="translate(153.83177570093457,0)"><line stroke="currentColor" y2="6"></line><text fill="currentColor" dy="0.32em" transform="translate(0, 11.82842712474619) rotate(-45)" text-anchor="end">Aug 2021</text></g><g class="tick" opacity="1" transform="translate(181.8380062305296,0)"><line stroke="currentColor" y2="6"></line><text fill="currentColor" dy="0.32em" transform="translate(0, 11.82842712474619) rotate(-45)" text-anchor="end">Sep 2021</text></g><g class="tick" opacity="1" transform="translate(208.94080996884736,0)"><line stroke="currentColor" y2="6"></line><text fill="currentColor" dy="0.32em" transform="translate(0, 11.82842712474619) rotate(-45)" text-anchor="end">Oct 2021</text></g><g class="tick" opacity="1" transform="translate(236.94704049844236,0)"><line stroke="currentColor" y2="6"></line><text fill="currentColor" dy="0.32em" transform="translate(0, 11.82842712474619) rotate(-45)" text-anchor="end">Nov 2021</text></g><g class="tick" opacity="1" transform="translate(264.0498442367601,0)"><line stroke="currentColor" y2="6"></line><text fill="currentColor" dy="0.32em" transform="translate(0, 11.82842712474619) rotate(-45)" text-anchor="end">Dec 2021</text></g><g class="tick" opacity="1" transform="translate(292.05607476635515,0)"><line stroke="currentColor" y2="6"></line><text fill="currentColor" dy="0.32em" transform="translate(0, 11.82842712474619) rotate(-45)" text-anchor="end">Jan 2022</text></g><g class="tick" opacity="1" transform="translate(320.0623052959502,0)"><line stroke="currentColor" y2="6"></line><text fill="currentColor" dy="0.32em" transform="translate(0, 11.82842712474619) rotate(-45)" text-anchor="end">Feb 2022</text></g><g class="tick" opacity="1" transform="translate(345.3582554517134,0)"><line stroke="currentColor" y2="6"></line><text fill="currentColor" dy="0.32em" transform="translate(0, 11.82842712474619) rotate(-45)" text-anchor="end">Mar 2022</text></g><g class="tick" opacity="1" transform="translate(373.3644859813084,0)"><line stroke="currentColor" y2="6"></line><text fill="currentColor" dy="0.32em" transform="translate(0, 11.82842712474619) rotate(-45)" text-anchor="end">Apr 2022</text></g><g class="tick" opacity="1" transform="translate(400.4672897196262,0)"><line stroke="currentColor" y2="6"></line><text fill="currentColor" dy="0.32em" transform="translate(0, 11.82842712474619) rotate(-45)" text-anchor="end">May 2022</text></g><g class="tick" opacity="1" transform="translate(428.47352024922117,0)"><line stroke="currentColor" y2="6"></line><text fill="currentColor" dy="0.32em" transform="translate(0, 11.82842712474619) rotate(-45)" text-anchor="end">Jun 2022</text></g><g class="tick" opacity="1" transform="translate(455.5763239875389,0)"><line stroke="currentColor" y2="6"></line><text fill="currentColor" dy="0.32em" transform="translate(0, 11.82842712474619) rotate(-45)" text-anchor="end">Jul 2022</text></g><g class="tick" opacity="1" transform="translate(483.58255451713393,0)"><line stroke="currentColor" y2="6"></line><text fill="currentColor" dy="0.32em" transform="translate(0, 11.82842712474619) rotate(-45)" text-anchor="end">Aug 2022</text></g><g class="tick" opacity="1" transform="translate(511.58878504672896,0)"><line stroke="currentColor" y2="6"></line><text fill="currentColor" dy="0.32em" transform="translate(0, 11.82842712474619) rotate(-45)" text-anchor="end">Sep 2022</text></g><g class="tick" opacity="1" transform="translate(538.6915887850467,0)"><line stroke="currentColor" y2="6"></line><text fill="currentColor" dy="0.32em" transform="translate(0, 11.82842712474619) rotate(-45)" text-anchor="end">Oct 2022</text></g><g class="tick" opacity="1" transform="translate(566.6978193146417,0)"><line stroke="currentColor" y2="6"></line><text fill="currentColor" dy="0.32em" transform="translate(0, 11.82842712474619) rotate(-45)" text-anchor="end">Nov 2022</text></g><g class="tick" opacity="1" transform="translate(593.8006230529595,0)"><line stroke="currentColor" y2="6"></line><text fill="currentColor" dy="0.32em" transform="translate(0, 11.82842712474619) rotate(-45)" text-anchor="end">Dec 2022</text></g><text fill="currentColor" transform="translate(640,80)" dy="-0.32em" text-anchor="end">Month →</text></g><g fill="none" stroke="#ec025f" stroke-width="3" stroke-miterlimit="1"><path d="M40,319.923L46.324,319.914L52.648,319.505L58.972,318.793L65.296,318.12L71.62,317.889L77.944,317.659L84.268,317.489L90.592,316.554L96.916,316.096L103.24,314.256L109.564,311.932L115.888,305.265L122.212,272.614L128.536,249.082L134.86,234.526L141.184,221.424L147.508,211.008L153.832,201.329L160.156,192.031L166.48,183.789L172.804,177.844L179.128,173.061L185.452,168.409L191.776,163.693L198.1,152.027L204.424,139.805L210.748,131.347L217.072,126.34L223.396,122.117L229.72,117.967L236.044,114.558L242.368,109.743L248.692,106.057L255.016,103.363L261.34,100.639L267.664,98.417L273.988,96.4L280.312,94.472L286.636,92.968L292.96,91.428L299.283,89.773L305.607,88.246L311.931,86.385L318.255,83.774L324.579,81.385L324.579,81.385L330.903,79.368L337.227,77.927L343.551,76.688L349.875,75.714L354.393,75.212L360.717,74.388L367.04,73.478L371.558,72.858L383.302,71.417L386.012,71.21L392.336,70.286L398.66,69.542L404.984,68.81L411.308,68.133L417.632,67.49L423.956,66.773L430.28,66.024L436.604,65.4L442.928,64.805L449.252,64.183L455.576,63.509L461.9,62.837L468.224,62.157L474.548,61.496L480.872,60.686L487.196,60.1L493.52,59.58L499.844,59.057L506.168,58.5L512.492,57.952L518.816,57.466L525.14,56.974L531.464,56.501L537.788,55.996L544.112,55.471L550.436,54.959L556.76,54.455L563.084,53.924L569.408,53.427L575.732,52.996L582.056,52.562L588.38,52.016L594.704,51.421L601.028,50.994L607.352,50.629L613.676,50.267L620,49.756"></path></g><g stroke="currentColor"><line x1="40" x2="620" y1="320" y2="320"></line></g>

</svg>
