<svg width="380" height="208" viewBox="0 0 380 208" fill="none" xmlns="http://www.w3.org/2000/svg">
<rect width="380" height="207.767" rx="12" fill="url(#paint0_linear_4739_97035)"/>
<path d="M126.334 74.4812V105.226C126.334 111.783 121.011 117.106 114.453 117.106H83.7087C77.1507 117.106 71.8281 111.783 71.8281 105.226V74.5237C71.8281 67.9236 77.1507 62.6006 83.7087 62.6006H114.411C121.011 62.6006 126.334 67.9232 126.334 74.4812Z" fill="url(#paint1_linear_4739_97035)"/>
<path d="M105.549 91.9161C105.293 92.5107 104.951 93.0198 104.567 93.5289L105.763 94.7177C106.489 94.4204 107.386 94.6327 107.855 95.3966C108.197 95.9487 108.197 96.67 107.855 97.1796C107.258 98.1557 105.934 98.2408 105.165 97.4769C104.653 96.9673 104.525 96.2456 104.781 95.6088L103.585 94.4209C102.56 95.2698 101.279 95.864 99.8275 95.9912V98.0711C100.767 98.4109 101.364 99.3871 101.151 100.491C101.066 100.888 100.867 101.251 100.579 101.537C100.291 101.824 99.9259 102.02 99.5285 102.104C98.1618 102.401 96.9238 101.34 96.9238 100.024C96.9238 99.1323 97.4788 98.368 98.2902 98.0286V95.9487C96.9158 95.7851 95.6144 95.2411 94.5326 94.3779L93.3368 95.5663C93.6357 96.2881 93.4218 97.1796 92.6534 97.6462C92.0984 97.986 91.3725 97.986 90.8601 97.6462C89.8777 97.052 89.7922 95.7364 90.5611 94.9721C91.0731 94.463 91.7995 94.3358 92.4399 94.5902L93.6357 93.4018C92.7814 92.3831 92.1835 91.11 92.0555 89.6665H89.9632C89.6217 90.6005 88.6394 91.1943 87.529 90.9824C87.1316 90.8991 86.7669 90.7024 86.4789 90.4162C86.1909 90.1299 85.992 89.7664 85.9062 89.3696C85.6077 88.011 86.6751 86.7805 87.9989 86.7805C88.8958 86.7805 89.6642 87.3318 90.0057 88.1386H92.0984C92.2639 86.7699 92.8114 85.4754 93.6783 84.4033L92.4824 83.2149C91.7565 83.5123 90.8596 83.2996 90.3902 82.5357C90.0487 81.984 90.0487 81.2622 90.3902 80.7531C90.9881 79.7765 92.3119 79.6919 93.0803 80.4558C93.5928 80.9653 93.7208 81.6867 93.4644 82.3234L94.6606 83.5118C95.6851 82.6629 96.9664 82.0687 98.4182 81.9415V79.8612C97.4788 79.5218 96.8809 78.5452 97.0944 77.4415C97.1802 77.0446 97.3791 76.6812 97.6671 76.395C97.9551 76.1089 98.3198 75.9123 98.7172 75.829C100.084 75.5317 101.322 76.5929 101.322 77.9085C101.322 78.8004 100.767 79.5643 99.9551 79.9037V81.9836C101.33 82.1469 102.631 82.6908 103.713 83.554L104.909 82.3656C104.61 81.6438 104.823 80.7527 105.592 80.2857C106.147 79.9462 106.873 79.9462 107.386 80.2857C108.368 80.8799 108.453 82.1959 107.685 82.9598C107.172 83.4689 106.446 83.5965 105.806 83.3417L104.61 84.5301C105.031 85.0291 105.376 85.5869 105.635 86.1859C105.806 86.61 106.233 86.8648 106.66 86.8648H114.218C114.369 86.8659 114.519 86.837 114.659 86.7799C114.799 86.7227 114.926 86.6384 115.033 86.5319C115.14 86.4253 115.225 86.2986 115.283 86.159C115.341 86.0193 115.371 85.8696 115.371 85.7185V77.3147C115.371 75.2348 114.517 74.556 112.809 73.8342C110.503 72.858 103.03 70.0989 100.724 69.2924C100.169 69.1231 99.614 68.9951 99.0586 68.9951C98.5037 68.9951 97.9483 69.1231 97.4359 69.2924C95.1301 70.0563 87.6574 72.9005 85.3512 73.8346C83.6859 74.5134 82.7891 75.2352 82.7891 77.3147V94.2507C82.7891 101.551 86.6326 104.225 97.7348 110.635C98.2472 110.932 98.7172 111.017 99.0586 111.017C99.3576 111.017 99.87 110.889 100.382 110.635C111.699 104.565 115.328 101.551 115.328 94.2507V92.3831C115.328 92.232 115.299 92.0823 115.241 91.9428C115.183 91.8032 115.098 91.6765 114.99 91.57C114.883 91.4634 114.756 91.3792 114.616 91.3221C114.476 91.265 114.326 91.2361 114.175 91.2372H106.532C106.104 91.2793 105.72 91.5345 105.549 91.9161Z" fill="white"/>
<path d="M56.0055 143.054V144.859C55.5173 144.973 55.1198 145.047 54.8132 145.081C54.518 145.115 54.0865 145.132 53.5187 145.132C51.963 145.132 50.6515 144.689 49.5841 143.803C48.528 142.906 48 141.561 48 139.766C48 137.756 48.5678 136.246 49.7033 135.236C50.8388 134.225 52.2015 133.72 53.7912 133.72C54.2114 133.72 54.5861 133.737 54.9154 133.771C55.2447 133.805 55.6024 133.862 55.9885 133.941L55.8352 135.815C55.4037 135.735 55.046 135.69 54.7621 135.678C54.4782 135.656 54.1319 135.644 53.7231 135.644C52.792 135.644 51.9914 135.974 51.3214 136.632C50.6628 137.28 50.3335 138.256 50.3335 139.562C50.3335 140.822 50.6742 141.759 51.3555 142.372C52.0368 142.974 52.7976 143.275 53.6379 143.275C54.1149 143.275 54.5123 143.258 54.8303 143.224C55.1596 143.19 55.5513 143.133 56.0055 143.054Z" fill="#154273"/>
<path d="M65.2576 140.635C65.2576 142.02 64.8317 143.122 63.9801 143.939C63.1284 144.757 62.1348 145.166 60.9993 145.166C59.8297 145.166 58.8645 144.814 58.1037 144.11C57.3542 143.394 56.9795 142.344 56.9795 140.959C56.9795 139.573 57.4053 138.472 58.257 137.654C59.1086 136.825 60.1022 136.411 61.2378 136.411C62.4074 136.411 63.3669 136.769 64.1164 137.484C64.8772 138.199 65.2576 139.25 65.2576 140.635ZM63.1284 140.686C63.1284 139.869 62.9411 139.261 62.5663 138.864C62.1916 138.455 61.709 138.25 61.1185 138.25C60.5621 138.25 60.0852 138.478 59.6878 138.932C59.3017 139.375 59.1086 140.028 59.1086 140.891C59.1086 141.708 59.2903 142.321 59.6537 142.73C60.0284 143.128 60.5167 143.326 61.1185 143.326C61.6749 143.326 62.1462 143.099 62.5323 142.645C62.9297 142.191 63.1284 141.538 63.1284 140.686Z" fill="#154273"/>
<path d="M71.9244 136.581L71.7882 138.574C71.6065 138.529 71.4475 138.5 71.3112 138.489C71.175 138.466 71.016 138.455 70.8343 138.455C70.5731 138.455 70.3063 138.5 70.0337 138.591C69.7612 138.671 69.483 138.813 69.1991 139.017V145.013H67.1041V136.615L69.1821 136.53V137.501C69.466 137.126 69.7442 136.859 70.0167 136.7C70.3006 136.541 70.6072 136.462 70.9365 136.462C71.1295 136.462 71.3055 136.473 71.4645 136.496C71.6235 136.507 71.7768 136.536 71.9244 136.581Z" fill="#154273"/>
<path d="M80.8102 140.635C80.8102 142.02 80.3844 143.122 79.5327 143.939C78.6811 144.757 77.6875 145.166 76.552 145.166C75.3824 145.166 74.4171 144.814 73.6563 144.11C72.9069 143.394 72.5322 142.344 72.5322 140.959C72.5322 139.573 72.958 138.472 73.8096 137.654C74.6613 136.825 75.6549 136.411 76.7904 136.411C77.96 136.411 78.9196 136.769 79.669 137.484C80.4298 138.199 80.8102 139.25 80.8102 140.635ZM78.6811 140.686C78.6811 139.869 78.4937 139.261 78.119 138.864C77.7443 138.455 77.2617 138.25 76.6712 138.25C76.1148 138.25 75.6379 138.478 75.2404 138.932C74.8543 139.375 74.6613 140.028 74.6613 140.891C74.6613 141.708 74.843 142.321 75.2063 142.73C75.5811 143.128 76.0694 143.326 76.6712 143.326C77.2276 143.326 77.6989 143.099 78.0849 142.645C78.4824 142.191 78.6811 141.538 78.6811 140.686Z" fill="#154273"/>
<path d="M87.7496 145.013V139.92C87.7496 139.363 87.6247 138.972 87.3749 138.744C87.1251 138.506 86.7617 138.387 86.2848 138.387C86.0009 138.387 85.7454 138.409 85.5183 138.455C85.2912 138.489 85.0357 138.557 84.7518 138.659V145.013H82.6567V136.615L84.6837 136.53V137.16C85.047 136.91 85.4047 136.734 85.7567 136.632C86.1088 136.519 86.4948 136.462 86.915 136.462C87.8234 136.462 88.5388 136.723 89.0612 137.245C89.5835 137.756 89.8447 138.5 89.8447 139.477V145.013H87.7496Z" fill="#154273"/>
<path d="M93.5205 142.577C93.5205 142.861 93.6227 143.082 93.8271 143.241C94.0428 143.4 94.3381 143.48 94.7128 143.48C95.0308 143.48 95.3203 143.451 95.5815 143.394C95.8427 143.326 96.1095 143.23 96.382 143.105V141.555C96.2231 141.543 96.0414 141.538 95.837 141.538C95.644 141.526 95.4679 141.521 95.309 141.521C94.6731 141.521 94.2132 141.617 93.9293 141.81C93.6568 142.003 93.5205 142.259 93.5205 142.577ZM98.409 139.494V145.013H96.4502V144.485C96.1209 144.7 95.7689 144.859 95.3941 144.961C95.0194 145.064 94.5822 145.115 94.0826 145.115C93.2082 145.115 92.5382 144.899 92.0727 144.468C91.6185 144.025 91.3914 143.451 91.3914 142.747C91.3914 141.952 91.698 141.305 92.3111 140.805C92.9357 140.306 93.9123 140.056 95.2408 140.056C95.4566 140.056 95.661 140.062 95.854 140.073C96.0471 140.073 96.2231 140.073 96.382 140.073V139.698C96.382 139.267 96.2401 138.932 95.9562 138.693C95.6837 138.455 95.2011 138.336 94.5084 138.336C94.0996 138.336 93.7135 138.375 93.3502 138.455C92.9868 138.534 92.578 138.665 92.1238 138.847L91.8512 137.092C92.3736 136.876 92.8732 136.717 93.3502 136.615C93.8384 136.513 94.3551 136.462 94.9002 136.462C96.0925 136.462 96.9725 136.729 97.5403 137.263C98.1194 137.785 98.409 138.529 98.409 139.494Z" fill="#154273"/>
<path d="M103.126 135.934H103.024L102.734 145.013H100.69L101.15 133.839H104.625L106.72 140.482H106.805L108.917 133.839H112.171L112.699 145.013H110.518L110.144 135.934H110.041L107.81 142.9H105.459L103.126 135.934Z" fill="#154273"/>
<path d="M114.616 140.805C114.616 139.375 114.991 138.285 115.74 137.535C116.501 136.786 117.415 136.411 118.482 136.411C119.516 136.411 120.339 136.717 120.952 137.331C121.565 137.944 121.872 138.79 121.872 139.869C121.872 140.152 121.866 140.436 121.855 140.72C121.844 140.993 121.826 141.22 121.804 141.402H116.626C116.751 142.072 117.023 142.565 117.443 142.883C117.863 143.201 118.448 143.36 119.198 143.36C119.675 143.36 120.095 143.332 120.458 143.275C120.822 143.207 121.208 143.111 121.616 142.986V144.689C121.162 144.825 120.742 144.933 120.356 145.013C119.97 145.081 119.493 145.115 118.925 145.115C117.608 145.115 116.558 144.763 115.774 144.059C115.002 143.343 114.616 142.259 114.616 140.805ZM116.626 139.903H119.862C119.862 139.346 119.72 138.892 119.436 138.54C119.164 138.188 118.795 138.012 118.329 138.012C117.898 138.012 117.523 138.177 117.205 138.506C116.898 138.824 116.705 139.289 116.626 139.903Z" fill="#154273"/>
<path d="M125.771 133.106V145.013H123.676V133.209L125.771 133.106Z" fill="#154273"/>
<path d="M132.104 138.233C131.388 138.233 130.815 138.472 130.383 138.949C129.952 139.414 129.736 140.056 129.736 140.874C129.736 141.737 129.923 142.361 130.298 142.747C130.684 143.122 131.172 143.309 131.763 143.309C132.047 143.309 132.297 143.287 132.512 143.241C132.728 143.184 132.972 143.094 133.245 142.969V138.319C133.052 138.296 132.864 138.279 132.683 138.267C132.512 138.245 132.319 138.233 132.104 138.233ZM135.323 133.106V145.013H133.296V144.433C133.001 144.649 132.666 144.82 132.291 144.944C131.928 145.058 131.536 145.115 131.116 145.115C130.06 145.115 129.208 144.768 128.561 144.076C127.925 143.372 127.607 142.338 127.607 140.976C127.607 139.59 128.033 138.495 128.884 137.688C129.736 136.871 130.798 136.462 132.07 136.462C132.274 136.462 132.467 136.473 132.649 136.496C132.842 136.507 133.035 136.536 133.228 136.581V133.209L135.323 133.106Z" fill="#154273"/>
<path d="M137.155 140.805C137.155 139.375 137.529 138.285 138.279 137.535C139.04 136.786 139.954 136.411 141.021 136.411C142.055 136.411 142.878 136.717 143.491 137.331C144.104 137.944 144.411 138.79 144.411 139.869C144.411 140.152 144.405 140.436 144.394 140.72C144.382 140.993 144.365 141.22 144.343 141.402H139.165C139.29 142.072 139.562 142.565 139.982 142.883C140.402 143.201 140.987 143.36 141.737 143.36C142.214 143.36 142.634 143.332 142.997 143.275C143.36 143.207 143.746 143.111 144.155 142.986V144.689C143.701 144.825 143.281 144.933 142.895 145.013C142.509 145.081 142.032 145.115 141.464 145.115C140.147 145.115 139.096 144.763 138.313 144.059C137.541 143.343 137.155 142.259 137.155 140.805ZM139.165 139.903H142.401C142.401 139.346 142.259 138.892 141.975 138.54C141.703 138.188 141.333 138.012 140.868 138.012C140.436 138.012 140.062 138.177 139.744 138.506C139.437 138.824 139.244 139.289 139.165 139.903Z" fill="#154273"/>
<path d="M151.035 136.581L150.899 138.574C150.717 138.529 150.558 138.5 150.422 138.489C150.286 138.466 150.127 138.455 149.945 138.455C149.684 138.455 149.417 138.5 149.144 138.591C148.872 138.671 148.594 138.813 148.31 139.017V145.013H146.215V136.615L148.293 136.53V137.501C148.577 137.126 148.855 136.859 149.127 136.7C149.411 136.541 149.718 136.462 150.047 136.462C150.24 136.462 150.416 136.473 150.575 136.496C150.734 136.507 150.887 136.536 151.035 136.581Z" fill="#154273"/>
<path d="M266.418 167.767C302.638 167.767 332.001 167.158 332.001 166.408C332.001 165.657 302.638 165.048 266.418 165.048C230.198 165.048 200.836 165.657 200.836 166.408C200.836 167.158 230.198 167.767 266.418 167.767Z" fill="#E1F6F8"/>
<path d="M228.907 112.719H205.461C203.329 112.719 201.514 114.427 201.514 116.6V150.294C201.514 152.39 203.25 154.175 205.461 154.175H228.829C230.96 154.175 232.776 152.467 232.776 150.294V116.6C232.776 114.427 231.039 112.719 228.907 112.719Z" fill="#CBF0F3"/>
<path d="M238.378 112.719H216.303C214.189 112.719 212.389 114.427 212.389 116.6V150.294C212.389 152.39 214.111 154.175 216.303 154.175H238.378C240.491 154.175 242.292 152.467 242.292 150.294V116.6C242.213 114.427 240.491 112.719 238.378 112.719Z" fill="#97E0E7"/>
<path d="M286.465 153.495L287.229 157.565L288.759 165.468C288.836 166.017 289.294 166.408 289.829 166.408H291.435C292.047 166.408 292.581 165.86 292.581 165.234V153.495H286.465Z" fill="#008FCD"/>
<path d="M292.581 153.495H286.465L287.153 156.817L292.581 156.893V153.495Z" fill="#0069D1"/>
<path d="M314.328 153.495H320.445V165.234C320.445 165.86 319.909 166.408 319.297 166.408H317.692C317.157 166.408 316.698 166.017 316.622 165.468L314.328 153.495Z" fill="#004CBC"/>
<path d="M245.009 153.495H238.893V165.234C238.893 165.86 239.428 166.408 240.039 166.408H241.645C242.18 166.408 242.639 166.017 242.715 165.468L245.009 153.495Z" fill="#004CBC"/>
<path d="M211.029 153.495V165.234C211.029 165.86 211.564 166.408 212.176 166.408H213.782C214.317 166.408 214.776 166.017 214.852 165.468L216.381 157.565L217.146 153.495H211.029Z" fill="#008FCD"/>
<path d="M216.687 156.214L217.146 153.495H211.029V156.129L216.687 156.214Z" fill="#0069D1"/>
<path d="M319.448 133.786L326.398 103.728C327.491 98.602 322.961 93.0098 318.198 93.0098H255.572C250.808 93.0098 246.045 96.8156 244.952 101.553L237.533 133.709H319.448V133.786Z" fill="#CBF0F3"/>
<path d="M312.21 93.0098H247.445C242.674 93.0098 237.903 96.8228 236.808 101.57L229.377 133.786H311.428L318.859 101.57C319.954 96.8228 316.981 93.0098 312.21 93.0098Z" fill="#CBF0F3"/>
<path d="M242.938 131.068H225.894C224.577 131.068 223.492 130.131 223.182 128.882L220.626 117.801C220.238 116.084 221.245 114.757 222.95 114.757H238.755C240.459 114.757 242.086 116.084 242.473 117.801L244.953 128.492C245.262 129.819 244.255 131.068 242.938 131.068Z" fill="white"/>
<path d="M298.019 131.068H209.67V154.175H298.019V131.068Z" fill="#CBF0F3"/>
<path d="M274.332 100.817L290.544 92.1807L288.655 102.544C288.655 102.544 276.299 109.296 272.129 108.589C267.721 107.804 265.203 92.2591 264.731 88.5692C264.652 88.0981 264.967 87.7056 265.36 87.5486L269.846 86.2139L274.332 100.817Z" fill="#79D4E7"/>
<path d="M265.705 88.2524H265.333C264.738 88.2524 264.291 87.7791 264.142 87.2269L263.397 82.6516C263.248 81.8629 263.546 81.074 264.142 80.5218L265.333 79.4175L266.078 81.074L265.705 88.2524Z" fill="#FF7254"/>
<path d="M271.256 88.9322H266.916C266.296 88.9322 265.754 88.4557 265.676 87.8201L265.521 86.9463L264.049 77.9701V77.8112C263.971 77.1758 264.359 76.6992 264.979 76.6992H269.319C269.939 76.6992 270.481 77.1758 270.559 77.7318V77.9701L272.031 86.9463L272.186 87.7407C272.263 88.4557 271.798 88.9322 271.256 88.9322Z" fill="black"/>
<path d="M271.515 87.5728H266.158L264.719 79.4175H270.076L271.515 87.5728Z" fill="#38BFDB"/>
<path d="M264.283 80.7776L264.935 80.2462C265.26 79.9804 265.749 80.069 265.993 80.5119C266.156 80.8663 266.075 81.3092 265.83 81.5749L264.365 82.8151L264.039 81.4864L264.283 80.7776Z" fill="#FF7254"/>
<path d="M264.202 82.2261L264.935 81.606C265.26 81.3402 265.749 81.4289 265.993 81.8718C266.156 82.2261 266.075 82.669 265.83 82.9348L264.365 84.175L264.039 82.8462L264.202 82.2261Z" fill="#FF7254"/>
<path d="M264.202 84.2646L264.935 83.6445C265.26 83.3789 265.749 83.4674 265.993 83.9103C266.156 84.2646 266.075 84.7076 265.83 84.9734L264.365 86.2136L264.039 84.8847L264.202 84.2646Z" fill="#FF7254"/>
<path d="M272.171 85.7239L271.726 86.8931L271.371 85.1783L269.769 84.009C269.414 83.7752 269.414 83.3076 269.592 83.0737C269.858 82.7619 270.303 82.7619 270.659 82.9178L271.549 83.5414C272.082 83.9311 272.26 84.4767 272.171 85.0224V85.7239Z" fill="#FF7254"/>
<path d="M289.185 93.0098L280.35 106.602C282.917 105.508 285.409 104.258 286.919 103.399L289.185 93.0098Z" fill="#38BFDB"/>
<path d="M301.497 90.9707H294.3C290.622 90.9707 286.007 94.6475 285.772 97.3855C285.537 99.4976 287.337 101.532 287.337 101.532L279.67 123.592H305.017L305.643 114.439C306.738 109.902 307.677 102.783 308.146 99.3412C308.537 96.3685 307.208 93.3958 304.704 91.9095C303.609 91.3619 302.514 90.9707 301.497 90.9707Z" fill="#79D4E7"/>
<path fill-rule="evenodd" clip-rule="evenodd" d="M295.301 95.0195C297.394 95.3088 300.261 93.3567 301.733 92.1998C302.121 91.9106 302.198 91.4045 301.966 91.0431C301.655 90.9708 301.346 90.9707 301.035 90.9707H293.907C293.596 90.9707 293.364 90.9708 293.054 91.0431C292.744 91.26 292.589 91.6214 292.589 91.9106C292.511 92.5614 293.054 94.658 295.301 95.0195Z" fill="#FF7254"/>
<path d="M258.964 158.932L258.193 161.269C257.885 162.281 257.036 163.059 256.034 163.448L253.18 164.462C252.795 164.617 252.486 165.006 252.486 165.396C252.486 165.94 252.949 166.408 253.489 166.408H260.43C261.355 166.408 262.126 165.785 262.28 164.851L263.36 160.023L258.964 158.932Z" fill="#004CBC"/>
<path d="M261.89 163.689C260.838 163.689 259.961 164.539 259.961 165.559C259.961 165.898 260.049 166.153 260.136 166.408H260.399C261.452 166.408 262.329 165.728 262.504 164.709L262.679 163.859C262.504 163.775 262.241 163.689 261.89 163.689Z" fill="#326FC9"/>
<path d="M246.779 137.864L244.468 139.833C243.91 140.288 243.192 140.59 242.395 140.515L238.729 140.439C238.25 140.439 237.852 140.666 237.613 141.121C237.373 141.651 237.692 142.333 238.33 142.484L244.627 144.53C245.584 144.833 246.7 144.606 247.337 143.848L250.446 140.59L246.779 137.864Z" fill="#004CBC"/>
<path d="M247.403 143.903L247.726 143.529C247.403 142.931 246.757 142.557 246.03 142.631C245.061 142.706 244.253 143.454 244.334 144.426V144.501L244.657 144.576C245.626 144.801 246.676 144.576 247.403 143.903Z" fill="#326FC9"/>
<path d="M290.541 131.351H274.025C274.025 131.351 272.623 136.144 270.675 142.586C270.597 142.822 270.519 143.058 270.441 143.372C268.338 150.207 265.767 155.471 263.741 160.971L258.6 159.793C259.69 153.429 260.469 149.579 261.56 142.586C262.105 138.737 262.807 134.808 263.586 130.644C264.365 128.051 265.455 126.087 266.858 124.594C268.416 123.023 270.286 122.001 272.389 121.373C275.583 120.43 279.401 120.194 283.608 120.194H283.686C285.867 120.194 288.126 120.273 290.463 120.273L290.541 131.351Z" fill="#FFB612"/>
<path d="M304.815 120.194C304.422 126.364 299.945 131.068 292.954 131.068H289.184V120.194H304.815Z" fill="#FFB612"/>
<path d="M291.564 130.049L278.03 120.41C278.03 120.41 274.095 123.442 268.744 127.483C268.508 127.64 268.351 127.795 268.115 127.95C262.37 132.303 255.524 137.822 250.015 141.942L245.688 138.289C251.196 132.614 255.917 127.483 261.19 122.198C263.865 119.477 266.698 116.679 269.846 113.803C271.97 112.17 274.095 111.238 276.062 110.849C278.266 110.46 280.39 110.771 282.515 111.471C285.742 112.559 288.889 114.658 292.351 117.068L292.43 117.145C294.24 118.389 296.05 119.788 298.018 121.11L291.564 130.049Z" fill="#FFB612"/>
<path d="M278.312 120.194L287.126 128.6C288.779 130.142 290.982 131.068 293.264 131.068H283.664L278.312 120.194Z" fill="#FF9C12"/>
<path fill-rule="evenodd" clip-rule="evenodd" d="M298.122 72.6378C298.122 72.6378 308.873 71.9221 307.393 90.2915H289.241C289.163 90.2915 288.228 72.0016 298.122 72.6378Z" fill="black"/>
<path fill-rule="evenodd" clip-rule="evenodd" d="M300.282 91.4895L294.619 91.6508L295.827 83.5876L300.736 82.1362L300.282 91.4895Z" fill="#FF7254"/>
<path d="M295.035 86.8931L294.619 88.9319C294.619 88.9319 298.614 86.8931 298.697 86.8931H295.035Z" fill="#F25A37"/>
<path fill-rule="evenodd" clip-rule="evenodd" d="M290.62 83.3461C290.851 85.6397 291.854 87.2216 294.553 87.538H294.631C294.785 87.538 296.019 87.617 296.405 87.538C297.793 87.3007 299.182 86.9843 300.339 85.877C300.647 85.6397 300.879 84.8488 301.188 84.5324C301.264 84.4534 301.342 84.2951 301.418 84.2161C301.496 84.0578 301.65 83.8997 301.727 83.7415C301.805 83.6624 301.881 83.5042 301.881 83.4251C302.344 82.5551 302.652 81.6059 302.73 80.6569C302.884 78.6005 302.652 77.0186 302.035 75.8322C301.65 75.0413 301.11 74.4876 300.493 74.0922C300.108 73.8549 299.722 73.6967 299.259 73.5385C299.028 73.4594 298.874 73.4594 298.642 73.3803C298.411 73.3803 298.256 73.3013 298.025 73.3013C298.025 73.3013 298.025 73.3013 297.947 73.3013H297.87C297.639 73.3013 297.408 73.3013 297.253 73.3013C297.022 73.3013 296.713 73.3013 296.482 73.3013C296.328 73.3013 296.096 73.3013 295.942 73.3803H295.865C295.788 73.3803 295.788 73.3803 295.711 73.3803C295.557 73.4594 295.402 73.4594 295.248 73.5385H295.17C295.016 73.6176 294.862 73.6176 294.708 73.6967C294.631 73.7758 294.477 73.7758 294.323 73.8549C294.168 73.934 294.091 74.0131 293.936 74.0922C293.86 74.1713 293.706 74.2503 293.628 74.3294C293.319 74.5667 293.011 74.804 292.78 75.1204C292.702 75.1994 292.626 75.2786 292.548 75.3576C292.471 75.4367 292.471 75.4367 292.394 75.5159C291.237 77.0186 290.62 79.1541 290.543 81.2896C290.543 81.3687 290.543 81.4478 290.543 81.606C290.543 82.1597 290.62 82.7924 290.62 83.3461Z" fill="#FF7254"/>
<path fill-rule="evenodd" clip-rule="evenodd" d="M297.34 73.3013C297.57 73.6071 297.648 74.9833 297.801 76.436C298.032 78.6532 301.105 81.2527 300.874 85.5343C302.104 84.7697 303.41 81.635 303.41 80.794C303.564 78.8062 303.333 77.0476 302.719 75.9008C302.334 75.1362 301.72 74.4482 301.028 74.0658C300.644 73.8365 300.029 73.6071 299.568 73.5307C299.338 73.4542 298.953 73.3777 298.724 73.3777C298.569 73.3013 297.57 73.3778 297.34 73.3013Z" fill="black"/>
<path d="M300.736 82.8151C301.487 82.8151 302.095 82.2066 302.095 81.4559C302.095 80.7053 301.487 80.0967 300.736 80.0967C299.986 80.0967 299.377 80.7053 299.377 81.4559C299.377 82.2066 299.986 82.8151 300.736 82.8151Z" fill="#FF7254"/>
<path fill-rule="evenodd" clip-rule="evenodd" d="M297.264 73.3013C297.037 73.3013 296.736 73.3013 296.509 73.3013C296.282 73.3013 296.056 73.3807 295.905 73.3807C295.829 73.3807 295.829 73.3807 295.754 73.3807C295.602 73.3807 295.452 73.4602 295.301 73.5396H295.225C294.168 73.9367 293.337 74.5723 292.582 75.5255C293.639 77.273 300.436 79.3384 300.436 79.4178L300.737 74.175C299.756 73.4602 298.472 73.3807 298.019 73.3013H297.944C297.717 73.3807 297.49 73.3807 297.264 73.3013Z" fill="black"/>
<path d="M295.299 83.1278L293.26 83.1827" stroke="black" stroke-width="0.5" stroke-linecap="round"/>
<path d="M300.714 110.004L297.086 110.092C295.957 110.092 294.909 110.792 294.345 111.843L293.941 112.718H295.232L295.312 112.631V112.718H295.877H297.167H297.812H299.102H299.666H303.456C303.214 111.143 302.085 109.917 300.714 110.004Z" fill="#FF7254"/>
<path d="M315.877 112.719H295.111C293.011 112.719 291.223 114.427 291.223 116.6V150.294C291.223 152.39 292.934 154.175 295.111 154.175H315.877C317.977 154.175 319.766 152.468 319.766 150.294V116.6C319.766 114.427 318.055 112.719 315.877 112.719Z" fill="#CBF0F3"/>
<path d="M326.073 112.719H305.307C303.207 112.719 301.418 114.427 301.418 116.6V150.294C301.418 152.39 303.129 154.175 305.307 154.175H326.073C328.173 154.175 329.962 152.468 329.962 150.294V116.6C329.962 114.427 328.25 112.719 326.073 112.719Z" fill="#97E0E7"/>
<path d="M306.855 104.451L303.901 101.165L302.098 107.961L306.281 107.662C306.445 106.617 306.691 105.497 306.855 104.451Z" fill="#38BFDB"/>
<path d="M293.866 112.245L293.359 113.067C293.106 113.409 293.359 113.888 293.866 114.025C294.288 114.162 294.711 114.025 294.964 113.683L295.978 112.108L294.457 112.039L293.866 112.245Z" fill="#FF7254"/>
<path d="M295.908 112.245L295.4 113.067C295.147 113.409 295.4 113.888 295.908 114.025C296.33 114.162 296.752 114.025 297.006 113.683L298.019 112.108L296.499 112.039L295.908 112.245Z" fill="#FF7254"/>
<path d="M297.267 112.245L296.76 113.067C296.506 113.409 296.76 113.888 297.267 114.025C297.689 114.162 298.111 114.025 298.365 113.683L299.379 112.108L297.857 112.039L297.267 112.245Z" fill="#FF7254"/>
<path d="M316.43 107.587L306.545 94.3691L303.766 101.522L309.634 108.054L301.14 108.209L300.059 112.719H314.499C316.738 112.719 317.819 109.609 316.43 107.587Z" fill="#79D4E7"/>
<path d="M244.382 70.5825H263.986C267.044 70.5825 269.475 68.1391 269.475 65.065V45.5175C269.475 42.4435 267.044 40 263.986 40H244.382C241.324 40 238.893 42.4435 238.893 45.5175V65.065C238.893 68.1391 241.324 70.5825 244.382 70.5825Z" fill="#004CBC"/>
<path d="M244.382 70.5825H263.986C267.044 70.5825 269.475 68.1391 269.475 65.065V45.5175C269.475 42.4435 267.044 40 263.986 40H244.382C241.324 40 238.893 42.4435 238.893 45.5175V65.065C238.893 68.1391 241.324 70.5825 244.382 70.5825Z" fill="#004CBC"/>
<path d="M263.358 68.5439V74.5691C263.358 75.2733 262.543 75.5863 262.054 75.1168L255.203 68.5439H263.358Z" fill="#004CBC"/>
<path d="M252.858 46.1167H255.509C256.152 46.1167 256.634 46.5758 256.553 47.1879L255.991 56.6754C255.991 57.211 255.509 57.6701 254.946 57.6701H253.42C252.858 57.6701 252.376 57.211 252.376 56.6754L251.813 47.1879C251.733 46.6523 252.215 46.1167 252.858 46.1167Z" fill="white"/>
<path d="M253.843 63.107C254.97 63.107 255.882 62.1941 255.882 61.0682C255.882 59.9421 254.97 59.0293 253.843 59.0293C252.717 59.0293 251.805 59.9421 251.805 61.0682C251.805 62.1941 252.717 63.107 253.843 63.107Z" fill="white"/>
<defs>
<linearGradient id="paint0_linear_4739_97035" x1="190" y1="0" x2="190" y2="207.767" gradientUnits="userSpaceOnUse">
<stop stop-color="#F7FDFF" stop-opacity="0"/>
<stop offset="1" stop-color="#F7FDFF"/>
</linearGradient>
<linearGradient id="paint1_linear_4739_97035" x1="80.1229" y1="108.803" x2="134.952" y2="54.0068" gradientUnits="userSpaceOnUse">
<stop stop-color="#C9005D"/>
<stop offset="0.248" stop-color="#C9005D"/>
<stop offset="0.983" stop-color="#315BBC"/>
<stop offset="1" stop-color="#315BBC"/>
</linearGradient>
</defs>
</svg>
