<svg class="plot" fill="currentColor" text-anchor="middle" width="640" height="460" viewBox="0 0 640 400" style="font-family: 'RO Sans', sans-serif; font-size: 14px;" xmlns="http://www.w3.org/2000/svg">

<g transform="translate(40,0)" fill="none" text-anchor="end"><g class="tick" opacity="1" transform="translate(0,320.0200519619814)"><line stroke="currentColor" x2="0"></line><line stroke="currentColor" x2="580" stroke-opacity="0.1"></line><text fill="currentColor" x="-9" dy="0.32em">0m</text></g><g class="tick" opacity="1" transform="translate(0,277.7163347018043)"><line stroke="currentColor" x2="0"></line><line stroke="currentColor" x2="580" stroke-opacity="0.1"></line><text fill="currentColor" x="-9" dy="0.32em">0.5m</text></g><g class="tick" opacity="1" transform="translate(0,235.4126174416274)"><line stroke="currentColor" x2="0"></line><line stroke="currentColor" x2="580" stroke-opacity="0.1"></line><text fill="currentColor" x="-9" dy="0.32em">1m</text></g><g class="tick" opacity="1" transform="translate(0,193.1089001814504)"><line stroke="currentColor" x2="0"></line><line stroke="currentColor" x2="580" stroke-opacity="0.1"></line><text fill="currentColor" x="-9" dy="0.32em">1.5m</text></g><g class="tick" opacity="1" transform="translate(0,150.80518292127346)"><line stroke="currentColor" x2="0"></line><line stroke="currentColor" x2="580" stroke-opacity="0.1"></line><text fill="currentColor" x="-9" dy="0.32em">2m</text></g><g class="tick" opacity="1" transform="translate(0,108.50146566109643)"><line stroke="currentColor" x2="0"></line><line stroke="currentColor" x2="580" stroke-opacity="0.1"></line><text fill="currentColor" x="-9" dy="0.32em">2.5m</text></g><g class="tick" opacity="1" transform="translate(0,66.19774840091947)"><line stroke="currentColor" x2="0"></line><line stroke="currentColor" x2="580" stroke-opacity="0.1"></line><text fill="currentColor" x="-9" dy="0.32em">3m</text></g><text fill="currentColor" transform="translate(-40,40)" dy="-1em" text-anchor="start">↑ Number of downloads CoronaCheck Scanner (million)</text></g><g transform="translate(0,320)" fill="none" text-anchor="middle"><g class="tick" opacity="1" transform="translate(46.54620104964834,0)"><line stroke="currentColor" y2="6"></line><text fill="currentColor" dy="0.32em" transform="translate(0, 11.82842712474619) rotate(-45)" text-anchor="end">Apr 2021</text></g><g class="tick" opacity="1" transform="translate(95.64270892201091,0)"><line stroke="currentColor" y2="6"></line><text fill="currentColor" dy="0.32em" transform="translate(0, 11.82842712474619) rotate(-45)" text-anchor="end">May 2021</text></g><g class="tick" opacity="1" transform="translate(146.37576705678555,0)"><line stroke="currentColor" y2="6"></line><text fill="currentColor" dy="0.32em" transform="translate(0, 11.82842712474619) rotate(-45)" text-anchor="end">Jun 2021</text></g><g class="tick" opacity="1" transform="translate(195.47227492914814,0)"><line stroke="currentColor" y2="6"></line><text fill="currentColor" dy="0.32em" transform="translate(0, 11.82842712474619) rotate(-45)" text-anchor="end">Jul 2021</text></g><g class="tick" opacity="1" transform="translate(246.20533306392278,0)"><line stroke="currentColor" y2="6"></line><text fill="currentColor" dy="0.32em" transform="translate(0, 11.82842712474619) rotate(-45)" text-anchor="end">Aug 2021</text></g><g class="tick" opacity="1" transform="translate(296.93839119869745,0)"><line stroke="currentColor" y2="6"></line><text fill="currentColor" dy="0.32em" transform="translate(0, 11.82842712474619) rotate(-45)" text-anchor="end">Sep 2021</text></g><g class="tick" opacity="1" transform="translate(346.03489907106,0)"><line stroke="currentColor" y2="6"></line><text fill="currentColor" dy="0.32em" transform="translate(0, 11.82842712474619) rotate(-45)" text-anchor="end">Oct 2021</text></g><g class="tick" opacity="1" transform="translate(396.76795720583465,0)"><line stroke="currentColor" y2="6"></line><text fill="currentColor" dy="0.32em" transform="translate(0, 11.82842712474619) rotate(-45)" text-anchor="end">Nov 2021</text></g><g class="tick" opacity="1" transform="translate(445.8644650781972,0)"><line stroke="currentColor" y2="6"></line><text fill="currentColor" dy="0.32em" transform="translate(0, 11.82842712474619) rotate(-45)" text-anchor="end">Dec 2021</text></g><g class="tick" opacity="1" transform="translate(496.5975232129719,0)"><line stroke="currentColor" y2="6"></line><text fill="currentColor" dy="0.32em" transform="translate(0, 11.82842712474619) rotate(-45)" text-anchor="end">Jan 2022</text></g><g class="tick" opacity="1" transform="translate(547.3305813477465,0)"><line stroke="currentColor" y2="6"></line><text fill="currentColor" dy="0.32em" transform="translate(0, 11.82842712474619) rotate(-45)" text-anchor="end">Feb 2022</text></g><g class="tick" opacity="1" transform="translate(593.1539886952849,0)"><line stroke="currentColor" y2="6"></line><text fill="currentColor" dy="0.32em" transform="translate(0, 11.82842712474619) rotate(-45)" text-anchor="end">Mar 2022</text></g><text fill="currentColor" transform="translate(640,-10)" dy="-0.32em" text-anchor="end">Month →</text></g><g fill="none" stroke="#ec025f" stroke-width="3" stroke-miterlimit="1"><path d="M40,320C45.504002010629314,319.99734896705166,51.008004021258635,319.9946979341034,51.4558518368846,319.99204690115505C59.09308639480766,319.946838328643,59.28661246056924,319.901629756131,62.911703673769196,319.856421183619C66.97325315531026,319.80576953281945,70.47235358017483,319.75511788201993,74.3675555106538,319.7044662312204C78.11527763530167,319.6557323489367,79.93148881553229,319.60699846665295,85.82340734753839,319.5582645843692C89.02850191934832,319.53175425488615,93.53694930856882,319.50524392540314,97.27925918442298,319.47873359592006C101.18081628903438,319.4510951673101,104.30983268032918,319.4234567387001,108.73511102130759,319.39581831009014C112.18502189121517,319.3742716167656,119.11759140818195,319.3527249234411,120.1909628581922,319.33117823011656C127.82819741611526,319.1778695587657,126.46877080029698,319.02456088741485,131.64681469507678,318.87125221606397C134.92167027091477,318.77429209610364,140.44724456491647,318.6773319761433,143.1026665319614,318.580371856183C150.73990108988446,318.3015057520039,149.8415291247254,318.0226396478248,154.55851836884597,317.7437735436457C157.92070892230075,317.5450024774792,163.3052641025427,317.3462314113128,166.0143702057306,317.14746034514627C173.65160476365364,316.58710530631794,176.74252628412168,316.02675026748966,177.47022204261518,315.4663952286613C185.10745660053823,309.58541706258603,183.8457124294404,303.70443889651074,188.92607387949977,297.82346073043544C192.21567534325655,294.01544931754336,195.59880729303535,290.20743790465133,200.3819257163844,286.39942649175924C203.72841533552887,283.7351665811915,206.8359885696013,281.0709066706237,211.83777755326898,278.40664676005593C215.14051808203723,276.6474043740742,218.75498401405034,274.88816198809246,223.29362939015357,273.1289196021107C226.70538046552915,271.80647719807945,230.62211366826028,270.4840347940481,234.74948122703816,269.16159239001684C238.33508283234357,268.0127362391431,242.22168942234393,266.8638800882694,246.20533306392278,265.7150239373957C249.88327977837145,264.6543287332922,253.98759242492483,263.5936335291887,257.66118490080737,262.5329383250852C261.65085675057867,261.38097990161236,264.75097078080375,260.2290214781396,269.11703673769193,259.0770630546668C272.5893878273827,258.16090555120223,276.48461194325574,257.2447480477377,280.57288857457655,256.32859054427314C284.18142038463856,255.51994088760577,288.31256912516585,254.7112912309384,292.0287404114612,253.90264157427103C295.9621300940119,253.04672456418496,299.78040917708586,252.19080755409885,303.48459224834573,251.33489054401278C307.4332472525105,250.4224839701453,313.0979536308868,249.5100773962778,314.94044408523035,248.59767082241032C322.57767864315343,244.81569029687233,323.17673294413606,241.03370977133432,326.396295922115,237.25172924579633C332.08546856867815,230.56872900542444,333.39057686772327,223.88572876505253,337.85214775899954,217.20272852468065C341.28919443763345,212.0543661341171,343.4254231684999,206.90600374355355,349.30799959588416,201.75764135299C352.5136895602565,198.95205882429508,356.906600427036,196.14647629560014,360.7638514327688,193.34089376690522C364.54533777761293,190.5904188805612,367.98216879063267,187.8399439942172,372.2197032696534,185.08946910787319C375.74791151392634,182.79939967771077,380.20283651339236,180.50933024754835,383.67555510653796,178.21926081738593C388.04069151329634,175.3406902751781,392.57272680300815,172.46211973297025,395.1314069434226,169.58354919076243C402.7686415013456,160.99149500035145,401.7577867456315,152.39944080994044,406.58725878030714,143.80738661952947C409.923483983401,137.87194946810123,412.62891259333804,131.93651231667303,418.0431106171917,126.0010751652448C421.2884445788713,122.44330434118575,424.6066637733015,118.88553351712669,429.4989624540763,115.32776269306764C432.8221700882154,112.91106413590643,435.59048268705203,110.49436557874523,440.95481429096094,108.07766702158402C444.2057403453027,106.61308412755851,448.25643172858906,105.14850123353301,452.41066612784556,103.6839183395075C455.98133502783236,102.42507252375732,459.9376176886038,101.16622670800714,463.8665179647301,99.90738089225697C467.58628061526105,98.71554416464691,471.8146258180996,97.52370743703688,475.32236980161474,96.33187070942682C479.60420797325725,94.87701767037116,480.521780158847,93.42216463131548,486.77822163849936,91.96731159225982C489.9645363470138,91.22637608568691,494.48370404790916,90.48544057911401,498.2340734753839,89.7445050725411C502.1261952186887,88.97556450514195,505.98381069586475,88.20662393774278,509.68992531226854,87.43768337034362C513.6360912183319,86.61893722649016,517.486988028133,85.80019108263672,521.1457771491531,84.98144493878326C525.156443202621,84.08395747586951,529.3852412076488,83.18647001295577,532.6016289860378,82.28898255004202C538.3314545695669,80.6901558599109,540.5757001778999,79.09132916977978,544.0574808229223,77.49250247964866C548.4000795434883,75.49838985543843,551.5145796422104,73.5042772312282,555.5133326598069,71.51016460701797C559.1804539055112,69.68143131481688,560.697510888113,67.85269802261577,566.9691844966915,66.02396473041468C570.1548809272352,65.0950597068157,573.1714958794306,64.16615468321672,578.4250363335761,63.237249659617746C581.6895781095421,62.66002953884173,584.3347536262405,62.082809418065715,589.8808881704607,61.505589297289696C593.1128589873325,61.169218340114945,596.3617288422914,60.832847382940194,601.3367400073454,60.496476425765444C603.7844104623246,60.33098428384363,606.6519508908651,60.16549214192182,609.5194913194057,60"></path></g>

</svg>

