<svg class="plot" fill="currentColor" text-anchor="middle" width="640" height="460" viewBox="0 0 640 400" style="font-family: 'RO Sans', sans-serif; font-size: 14px;" xmlns="http://www.w3.org/2000/svg">

<g transform="translate(40,0)" fill="none" text-anchor="end"><g class="tick" opacity="1" transform="translate(0,320.02016877355396)"><line stroke="currentColor" x2="0"></line><line stroke="currentColor" x2="580" stroke-opacity="0.1"></line><text fill="currentColor" x="-9" dy="0.32em">0m</text></g><g class="tick" opacity="1" transform="translate(0,277.4700135964111)"><line stroke="currentColor" x2="0"></line><line stroke="currentColor" x2="580" stroke-opacity="0.1"></line><text fill="currentColor" x="-9" dy="0.32em">0.5m</text></g><g class="tick" opacity="1" transform="translate(0,234.91985841926828)"><line stroke="currentColor" x2="0"></line><line stroke="currentColor" x2="580" stroke-opacity="0.1"></line><text fill="currentColor" x="-9" dy="0.32em">1m</text></g><g class="tick" opacity="1" transform="translate(0,192.3697032421254)"><line stroke="currentColor" x2="0"></line><line stroke="currentColor" x2="580" stroke-opacity="0.1"></line><text fill="currentColor" x="-9" dy="0.32em">1.5m</text></g><g class="tick" opacity="1" transform="translate(0,149.8195480649826)"><line stroke="currentColor" x2="0"></line><line stroke="currentColor" x2="580" stroke-opacity="0.1"></line><text fill="currentColor" x="-9" dy="0.32em">2m</text></g><g class="tick" opacity="1" transform="translate(0,107.26939288783973)"><line stroke="currentColor" x2="0"></line><line stroke="currentColor" x2="580" stroke-opacity="0.1"></line><text fill="currentColor" x="-9" dy="0.32em">2.5m</text></g><g class="tick" opacity="1" transform="translate(0,64.71923771069692)"><line stroke="currentColor" x2="0"></line><line stroke="currentColor" x2="580" stroke-opacity="0.1"></line><text fill="currentColor" x="-9" dy="0.32em">3m</text></g><text fill="currentColor" transform="translate(-40,40)" dy="-1em" text-anchor="start">↑ Aantal downloads CoronaCheck Scanner (miljoen)</text></g><g transform="translate(0,320)" fill="none" text-anchor="middle"><g class="tick" opacity="1" transform="translate(46.855737482555206,0)"><line stroke="currentColor" y2="6"></line><text fill="currentColor" dy="0.32em" transform="translate(0, 11.82842712474619) rotate(-45)" text-anchor="end">apr. 2021</text></g><g class="tick" opacity="1" transform="translate(98.27376860171924,0)"><line stroke="currentColor" y2="6"></line><text fill="currentColor" dy="0.32em" transform="translate(0, 11.82842712474619) rotate(-45)" text-anchor="end">mei 2021</text></g><g class="tick" opacity="1" transform="translate(151.4057340915221,0)"><line stroke="currentColor" y2="6"></line><text fill="currentColor" dy="0.32em" transform="translate(0, 11.82842712474619) rotate(-45)" text-anchor="end">jun. 2021</text></g><g class="tick" opacity="1" transform="translate(202.82376521068616,0)"><line stroke="currentColor" y2="6"></line><text fill="currentColor" dy="0.32em" transform="translate(0, 11.82842712474619) rotate(-45)" text-anchor="end">jul. 2021</text></g><g class="tick" opacity="1" transform="translate(255.95573070048897,0)"><line stroke="currentColor" y2="6"></line><text fill="currentColor" dy="0.32em" transform="translate(0, 11.82842712474619) rotate(-45)" text-anchor="end">aug. 2021</text></g><g class="tick" opacity="1" transform="translate(309.0876961902918,0)"><line stroke="currentColor" y2="6"></line><text fill="currentColor" dy="0.32em" transform="translate(0, 11.82842712474619) rotate(-45)" text-anchor="end">sep. 2021</text></g><g class="tick" opacity="1" transform="translate(360.5057273094559,0)"><line stroke="currentColor" y2="6"></line><text fill="currentColor" dy="0.32em" transform="translate(0, 11.82842712474619) rotate(-45)" text-anchor="end">okt. 2021</text></g><g class="tick" opacity="1" transform="translate(413.63769279925873,0)"><line stroke="currentColor" y2="6"></line><text fill="currentColor" dy="0.32em" transform="translate(0, 11.82842712474619) rotate(-45)" text-anchor="end">nov. 2021</text></g><g class="tick" opacity="1" transform="translate(465.0557239184227,0)"><line stroke="currentColor" y2="6"></line><text fill="currentColor" dy="0.32em" transform="translate(0, 11.82842712474619) rotate(-45)" text-anchor="end">dec. 2021</text></g><g class="tick" opacity="1" transform="translate(518.1876894082257,0)"><line stroke="currentColor" y2="6"></line><text fill="currentColor" dy="0.32em" transform="translate(0, 11.82842712474619) rotate(-45)" text-anchor="end">jan. 2022</text></g><g class="tick" opacity="1" transform="translate(571.3196548980285,0)"><line stroke="currentColor" y2="6"></line><text fill="currentColor" dy="0.32em" transform="translate(0, 11.82842712474619) rotate(-45)" text-anchor="end">feb. 2022</text></g><g class="tick" opacity="1" transform="translate(619.309817275915,0)"><line stroke="currentColor" y2="6"></line><text fill="currentColor" dy="0.32em" transform="translate(0, 11.82842712474619) rotate(-45)" text-anchor="end">mrt. 2022</text></g><text fill="currentColor" transform="translate(640,-10)" dy="-0.32em" text-anchor="end">Maand →</text></g><g fill="none" stroke="#ec025f" stroke-width="3" stroke-miterlimit="1"><path d="M40,320C45.764258170830885,319.9973335236089,51.52851634166177,319.9946670472178,51.99754059447161,319.9920005708267C59.99590099078601,319.9465286383274,60.19857791635286,319.90105670582807,63.99508118894322,319.85558477332876C68.2486806135037,319.8046380541967,71.91323563649296,319.75369133506456,75.99262178341483,319.7027446159325C79.91755455729205,319.6537268371684,81.81964509348117,319.60470905840435,87.99016237788643,319.55569127964026C91.34680951176438,319.52902651572924,96.06843836489328,319.5023617518182,99.98770297235805,319.4756969879072C104.07374479715723,319.4478975531915,107.35071640170466,319.4200981184758,111.98524356682967,319.3922986837601C115.59828311189192,319.37062647138987,122.85865845438667,319.3489542590196,123.98278416130128,319.3272820466494C131.98114455761566,319.1730802842874,130.55743759625395,319.01887852192544,135.98032475577287,318.86467675956345C139.41003153546797,318.76715180389743,145.19688203283698,318.6696268482315,147.97786535024449,318.57210189256546C155.9762257465589,318.2916112696377,155.03537435685894,318.01112064671,159.9754059447161,317.7306300237823C163.49657732732302,317.53070102798995,169.13574063686636,317.3307720321976,171.97294653918772,317.1308430364053C179.97130693550213,316.56722368092886,183.2083823572305,316.0036043254524,183.97048713365933,315.43998496997597C191.96884752997371,309.52474749755993,190.64744191752993,303.60951002514383,195.96802772813092,297.6942725527278C199.4131776535151,293.8640777843021,202.95628064418392,290.0338830158764,207.96556832260256,286.2036882474507C211.47029635386016,283.5239078411644,214.72481086373156,280.8441274348781,219.96310891707415,278.16434702859175C223.42201918678654,276.39485627539506,227.20739476287773,274.6253655221984,231.96064951154577,272.85587476900173C235.53372488017607,271.52572855139414,239.63566040331054,270.19558233378655,243.95819010601735,268.86543611617896C247.71333650872722,267.7098873686482,251.7837208853944,266.5543386211175,255.95573070048897,265.39878987358674C259.80758874118277,264.3319156494452,264.1059733825487,263.26504142530365,267.9532712949606,262.1981672011621C272.13159436144235,261.0394981089184,275.37829695979156,259.8808290166746,279.9508118894322,258.7221599244309C283.58735273772515,257.8006653971446,287.6667621190758,256.8791708698583,291.9483524839038,255.95767634257194C295.72751334370713,255.14431594297582,300.0540030209476,254.33095554337967,303.94589307837543,253.51759514378355C308.06527268123807,252.65669203746947,312.06409869195045,251.79578893115539,315.94343367284705,250.9348858248413C320.0788004164618,250.0171640779807,326.0113618442826,249.0994423311201,327.94097426731867,248.1817205842595C335.9393346636331,244.37770834465277,336.56671518466874,240.57369610504608,339.9385148617903,236.76968386543936C345.8966994427338,230.04775218440494,347.26351965138565,223.32582050337052,351.93605545626184,216.6038888223361C355.53562252810855,211.4255349372778,357.7728626113931,206.2471810522195,363.9335960507335,201.0688271671612C367.29086673024915,198.2469008758131,371.8914959285415,195.424974584465,375.93113664520513,192.6030482931169C379.8914301769034,189.83655067057956,383.49077138540986,187.07005304804218,387.92867723967674,184.30355542550484C391.6237164422722,182.00014532514538,396.289292105038,179.69673522478593,399.9262178341483,177.39332512442647C404.49775925997835,174.49798563201273,409.24409136501043,171.602646139599,411.9237584286199,168.70730664718525C419.92211882493433,160.06519993008683,418.8634659076762,151.4230932129884,423.92129902309154,142.78098649588998C427.4152772864577,136.8109727903759,430.24863180564404,130.8409590848618,435.9188396175632,124.87094537934772C439.317628856658,121.29244896217989,442.7927496991214,117.71395254501205,447.9163802120347,114.13545612784422C451.3967253720577,111.70467922965453,454.2959373429906,109.27390233146483,459.9139208065064,106.84312543327513C463.31856655978083,105.37001069427232,467.5607944620466,103.89689595526953,471.911461400978,102.42378121626672C475.6509690069579,101.15760206527541,479.7943240801253,99.89142291428412,483.9090019954496,98.62524376329281C487.80465323439586,97.42646405810211,492.23293529851605,96.22768435291142,495.9065425899212,95.02890464772072C500.39084703228815,93.56557644440865,501.3518065228364,92.10224824109656,507.9040831843928,90.63892003778449C511.2410624511009,89.8936682532419,515.9739185247233,89.14841646869932,519.9016237788645,88.40316468415674C523.9777840922842,87.62974469688686,528.0178065143851,86.85632470961698,531.899164373336,86.08290472234711C536.0319243221055,85.2593890190487,540.0649103853467,84.43587331575027,543.8967049678076,83.61235761245186C548.0970149467148,82.70964188698372,552.5257712237285,81.80692616151558,555.8942455622791,80.90421043604744C561.895005350067,79.2960698712825,564.2453698775871,77.68792930651756,567.8917861567509,76.07978874175262C572.439724204251,74.07405952701247,575.7014931148434,72.06833031227231,579.8893267512225,70.06260109753215C583.729847442013,68.2232146227645,585.3186383055864,66.38382814799687,591.8868673456941,64.54444167322922C595.2231990992223,63.610125365849505,598.38178802656,62.67580905846979,603.8844079401657,61.74149275109008C607.3032261055124,61.16099516739339,611.5925873200749,60.58049758369669,615.8819485346373,60"></path></g>

</svg>
