<svg class="plot" fill="currentColor" text-anchor="middle" width="640" height="460" viewBox="0 0 640 400" style="font-family: 'RO Sans', sans-serif; font-size: 14px;" xmlns="http://www.w3.org/2000/svg">

<g transform="translate(40,0)" fill="none" text-anchor="end"><g class="tick" opacity="1" transform="translate(0,320.0895731964839)"><line stroke="currentColor" x2="0"></line><line stroke="currentColor" x2="580" stroke-opacity="0.1"></line><text fill="currentColor" x="-9" dy="0.32em">0m</text></g><g class="tick" opacity="1" transform="translate(0,283.8764353416687)"><line stroke="currentColor" x2="0"></line><line stroke="currentColor" x2="580" stroke-opacity="0.1"></line><text fill="currentColor" x="-9" dy="0.32em">2m</text></g><g class="tick" opacity="1" transform="translate(0,247.6632974868535)"><line stroke="currentColor" x2="0"></line><line stroke="currentColor" x2="580" stroke-opacity="0.1"></line><text fill="currentColor" x="-9" dy="0.32em">4m</text></g><g class="tick" opacity="1" transform="translate(0,211.4501596320383)"><line stroke="currentColor" x2="0"></line><line stroke="currentColor" x2="580" stroke-opacity="0.1"></line><text fill="currentColor" x="-9" dy="0.32em">6m</text></g><g class="tick" opacity="1" transform="translate(0,175.23702177722308)"><line stroke="currentColor" x2="0"></line><line stroke="currentColor" x2="580" stroke-opacity="0.1"></line><text fill="currentColor" x="-9" dy="0.32em">8m</text></g><g class="tick" opacity="1" transform="translate(0,139.0238839224079)"><line stroke="currentColor" x2="0"></line><line stroke="currentColor" x2="580" stroke-opacity="0.1"></line><text fill="currentColor" x="-9" dy="0.32em">10m</text></g><g class="tick" opacity="1" transform="translate(0,102.81074606759272)"><line stroke="currentColor" x2="0"></line><line stroke="currentColor" x2="580" stroke-opacity="0.1"></line><text fill="currentColor" x="-9" dy="0.32em">12m</text></g><g class="tick" opacity="1" transform="translate(0,66.59760821277752)"><line stroke="currentColor" x2="0"></line><line stroke="currentColor" x2="580" stroke-opacity="0.1"></line><text fill="currentColor" x="-9" dy="0.32em">14m</text></g><text fill="currentColor" transform="translate(-40,40)" dy="-1em" text-anchor="start">↑ Number of downloads CoronaCheck (million)</text></g><g transform="translate(0,320)" fill="none" text-anchor="middle"><g class="tick" opacity="1" transform="translate(47.149565799249984,0)"><line stroke="currentColor" y2="6"></line><text fill="currentColor" dy="0.32em" transform="translate(0, 11.82842712474619) rotate(-45)" text-anchor="end">Apr 2021</text></g><g class="tick" opacity="1" transform="translate(100.77130929362488,0)"><line stroke="currentColor" y2="6"></line><text fill="currentColor" dy="0.32em" transform="translate(0, 11.82842712474619) rotate(-45)" text-anchor="end">May 2021</text></g><g class="tick" opacity="1" transform="translate(156.18044423781225,0)"><line stroke="currentColor" y2="6"></line><text fill="currentColor" dy="0.32em" transform="translate(0, 11.82842712474619) rotate(-45)" text-anchor="end">Jun 2021</text></g><g class="tick" opacity="1" transform="translate(209.80218773218712,0)"><line stroke="currentColor" y2="6"></line><text fill="currentColor" dy="0.32em" transform="translate(0, 11.82842712474619) rotate(-45)" text-anchor="end">Jul 2021</text></g><g class="tick" opacity="1" transform="translate(265.2113226763745,0)"><line stroke="currentColor" y2="6"></line><text fill="currentColor" dy="0.32em" transform="translate(0, 11.82842712474619) rotate(-45)" text-anchor="end">Aug 2021</text></g><g class="tick" opacity="1" transform="translate(320.62045762056187,0)"><line stroke="currentColor" y2="6"></line><text fill="currentColor" dy="0.32em" transform="translate(0, 11.82842712474619) rotate(-45)" text-anchor="end">Sep 2021</text></g><g class="tick" opacity="1" transform="translate(374.2422011149368,0)"><line stroke="currentColor" y2="6"></line><text fill="currentColor" dy="0.32em" transform="translate(0, 11.82842712474619) rotate(-45)" text-anchor="end">Oct 2021</text></g><g class="tick" opacity="1" transform="translate(429.65133605912416,0)"><line stroke="currentColor" y2="6"></line><text fill="currentColor" dy="0.32em" transform="translate(0, 11.82842712474619) rotate(-45)" text-anchor="end">Nov 2021</text></g><g class="tick" opacity="1" transform="translate(483.2730795534991,0)"><line stroke="currentColor" y2="6"></line><text fill="currentColor" dy="0.32em" transform="translate(0, 11.82842712474619) rotate(-45)" text-anchor="end">Dec 2021</text></g><g class="tick" opacity="1" transform="translate(538.6822144976865,0)"><line stroke="currentColor" y2="6"></line><text fill="currentColor" dy="0.32em" transform="translate(0, 11.82842712474619) rotate(-45)" text-anchor="end">Jan 2022</text></g><g class="tick" opacity="1" transform="translate(594.0913494418738,0)"><line stroke="currentColor" y2="6"></line><text fill="currentColor" dy="0.32em" transform="translate(0, 11.82842712474619) rotate(-45)" text-anchor="end">Feb 2022</text></g><text fill="currentColor" transform="translate(640,-10)" dy="-0.32em" text-anchor="end">Month →</text></g><g fill="none" stroke="#ec025f" stroke-width="3" stroke-miterlimit="1"><path d="M40,320C46.16866646143713,319.99667442684034,52.337332922874246,319.99334885368063,52.511740148687466,319.990023280521C60.85290024781245,319.83097517906265,61.49909987138212,319.67192707760427,65.02348029737495,319.51287897614594C71.14099263288438,319.23680811970974,73.24364671635165,318.9607372632736,77.53522044606243,318.6846664068374C81.59739609157856,318.42335240407704,81.70580049562491,318.1620384013167,90.04696059474989,317.90072439855635C92.90691351583962,317.81112705998055,98.37335693976146,317.7215297214048,102.55870074343736,317.631932382829C106.7147231759057,317.5429627386427,110.07984171092781,317.4539930944564,115.07044089212482,317.3650234502701C118.78639073357478,317.29877755008766,126.05775302662605,317.2325316499053,127.58218104081232,317.1662857497229C135.9233411399373,316.8038103463651,133.0130083169754,316.4413349430073,140.09392118949978,316.0788595396495C143.56510949194555,315.9011677077189,150.5300475469864,315.72347587578827,152.60566133818725,315.5457840438577C160.94682143731222,314.83170321402156,161.33008259239952,314.11762238418544,165.1174014868747,313.4035415543493C169.89885437834778,312.5020215229767,174.72252232068195,311.60050149160406,177.6291416355622,310.69898146023144C185.97030173468718,308.1118786787456,188.43745955019904,305.5247758972597,190.14088178424967,302.93767311577386C198.48204188337465,290.2693880236212,197.54295020477423,277.6011029314686,202.65262193293714,264.93281783931593C206.33537377951407,255.80226057495295,209.40462424886428,246.67170331058995,215.16436208162463,237.54114604622697C218.7269554165602,231.89358648730902,223.2619531118429,226.24602692839107,227.6761022303121,220.59846736947313C231.64934119685793,215.51501796548857,235.4182368231598,210.43156856150404,240.18784237899953,205.34811915751948C243.9797992740825,201.30664847560044,248.36449114597286,197.26517779368137,252.69958252768703,193.22370711176234C256.72809690775387,189.46804862036242,260.9533462287836,185.7123901289625,265.2113226763745,181.9567316375626C269.30126801529997,178.3492814483565,273.26933426413694,174.74183125915042,277.723062825062,171.1343810699443C281.6711388794004,167.93650146987616,285.1280026710809,164.73862186980804,290.2348029737494,161.5407422697399C293.9183018314704,159.2341343830315,298.01459059674465,156.92752649632308,302.74654312243695,154.62091860961468C306.5537286054393,152.76509186292301,311.0281336968851,150.90926511623132,315.2582832711244,149.05343836953966C319.3725138371794,147.24846693944212,323.6274467619284,145.44349550934456,327.7700234198119,143.63852407924702C331.96937977167,141.80881304047165,336.90995053081747,139.9791020016963,340.28176356849934,138.14939096292093C348.6229236676243,133.62306861378673,348.7156603273549,129.09674626465255,352.7935037171868,124.57042391551835C357.0658794207884,119.82817469640186,360.0376933716327,115.08592547728539,365.3052438658743,110.3436762581689C368.95049395469306,107.06194513739791,371.8402351887126,103.78021401662694,377.8169840145618,100.49848289585596C381.3547388369423,98.55596189713988,385.73877468964935,96.61344089842379,390.32872416324926,94.67091989970771C394.20084871078416,93.03219091445567,398.63228828465543,91.39346192920362,402.8404643119367,89.75473294395158C406.9747569478568,88.14477529672517,410.6843708604571,86.53481764949878,415.35220446062425,84.92486000227237C419.1871506879866,83.60216910660226,424.1982868055498,82.27947821093215,427.8639446093116,80.95678731526205C433.0420745240359,79.08834632555096,435.4808714921436,77.21990533583988,440.37568475799907,75.3514643461288C444.1220176722143,73.92141960328809,447.8305349146893,72.49137486044738,452.8874249066866,71.06133011760667C456.58431716058334,70.01588096983006,461.2505857533987,68.97043182205347,465.39916505537406,67.92498267427686C469.5922201088029,66.86832556033418,473.222692513121,65.81166844639151,477.9109052040616,64.75501133244883C481.7367661143943,63.89271616489592,486.02966322276234,63.030420997343015,490.422645352749,62.16812582979011C494.40999844753736,61.385451281333985,498.66445384341677,60.60277673287786,502.93438550143645,59.820102184421735C507.01426144044376,59.072264674581945,510.61674691485365,58.32442716474215,515.446125650124,57.57658965490236C519.215392104951,56.992912334481424,523.8346367106247,56.4092350140605,527.9578657988114,55.82555769363957C532.1780498431704,55.22815559397165,536.4390572210635,54.63075349430373,540.4696059474988,54.033351394635815C544.8019744894576,53.391213998671255,548.6290499957989,52.7490766027067,552.9813460961865,52.10693920674214C556.9972170264069,51.514437951730585,561.6596783699412,50.92193669671904,565.4930862448739,50.32943544170748C570.164330904989,49.607436005727095,574.3327869065438,48.8854365697467,578.0048263935614,48.163437133766315C583.1567630233885,47.15045909959953,586.1444635824103,46.137481065432745,590.5165665422488,45.12450303126596C594.5183187562402,44.19733202724614,598.4340371096439,43.27016102322632,603.0283066909362,42.3429900192065C606.8982608230372,41.56199334613767,611.2191538313305,40.780996673068834,615.5400468396238,40"></path></g>

</svg>
