<svg class="plot" fill="currentColor" text-anchor="middle" width="640" height="460" viewBox="0 0 640 400" style="font-family: 'RO Sans', sans-serif; font-size: 14px;" xmlns="http://www.w3.org/2000/svg">

<g transform="translate(40,0)" fill="none" text-anchor="end"><g class="tick" opacity="1" transform="translate(0,320.0880506390975)"><line stroke="currentColor" x2="0"></line><line stroke="currentColor" x2="580" stroke-opacity="0.1"></line><text fill="currentColor" x="-9" dy="0.32em">0m</text></g><g class="tick" opacity="1" transform="translate(0,284.4904605450932)"><line stroke="currentColor" x2="0"></line><line stroke="currentColor" x2="580" stroke-opacity="0.1"></line><text fill="currentColor" x="-9" dy="0.32em">2m</text></g><g class="tick" opacity="1" transform="translate(0,248.89287045108884)"><line stroke="currentColor" x2="0"></line><line stroke="currentColor" x2="580" stroke-opacity="0.1"></line><text fill="currentColor" x="-9" dy="0.32em">4m</text></g><g class="tick" opacity="1" transform="translate(0,213.2952803570845)"><line stroke="currentColor" x2="0"></line><line stroke="currentColor" x2="580" stroke-opacity="0.1"></line><text fill="currentColor" x="-9" dy="0.32em">6m</text></g><g class="tick" opacity="1" transform="translate(0,177.69769026308018)"><line stroke="currentColor" x2="0"></line><line stroke="currentColor" x2="580" stroke-opacity="0.1"></line><text fill="currentColor" x="-9" dy="0.32em">8m</text></g><g class="tick" opacity="1" transform="translate(0,142.10010016907583)"><line stroke="currentColor" x2="0"></line><line stroke="currentColor" x2="580" stroke-opacity="0.1"></line><text fill="currentColor" x="-9" dy="0.32em">10m</text></g><g class="tick" opacity="1" transform="translate(0,106.50251007507151)"><line stroke="currentColor" x2="0"></line><line stroke="currentColor" x2="580" stroke-opacity="0.1"></line><text fill="currentColor" x="-9" dy="0.32em">12m</text></g><g class="tick" opacity="1" transform="translate(0,70.90491998106718)"><line stroke="currentColor" x2="0"></line><line stroke="currentColor" x2="580" stroke-opacity="0.1"></line><text fill="currentColor" x="-9" dy="0.32em">14m</text></g><text fill="currentColor" transform="translate(-40,40)" dy="-1em" text-anchor="start">↑ Number of downloads CoronaCheck (million)</text></g><g transform="translate(0,320)" fill="none" text-anchor="middle"><g class="tick" opacity="1" transform="translate(46.546201050289696,0)"><line stroke="currentColor" y2="6"></line><text fill="currentColor" dy="0.32em" transform="translate(0, 11.82842712474619) rotate(-45)" text-anchor="end">Apr 2021</text></g><g class="tick" opacity="1" transform="translate(95.64270892746242,0)"><line stroke="currentColor" y2="6"></line><text fill="currentColor" dy="0.32em" transform="translate(0, 11.82842712474619) rotate(-45)" text-anchor="end">May 2021</text></g><g class="tick" opacity="1" transform="translate(146.37576706720756,0)"><line stroke="currentColor" y2="6"></line><text fill="currentColor" dy="0.32em" transform="translate(0, 11.82842712474619) rotate(-45)" text-anchor="end">Jun 2021</text></g><g class="tick" opacity="1" transform="translate(195.4722749443803,0)"><line stroke="currentColor" y2="6"></line><text fill="currentColor" dy="0.32em" transform="translate(0, 11.82842712474619) rotate(-45)" text-anchor="end">Jul 2021</text></g><g class="tick" opacity="1" transform="translate(246.20533308412544,0)"><line stroke="currentColor" y2="6"></line><text fill="currentColor" dy="0.32em" transform="translate(0, 11.82842712474619) rotate(-45)" text-anchor="end">Aug 2021</text></g><g class="tick" opacity="1" transform="translate(296.9383912238706,0)"><line stroke="currentColor" y2="6"></line><text fill="currentColor" dy="0.32em" transform="translate(0, 11.82842712474619) rotate(-45)" text-anchor="end">Sep 2021</text></g><g class="tick" opacity="1" transform="translate(346.0348991010434,0)"><line stroke="currentColor" y2="6"></line><text fill="currentColor" dy="0.32em" transform="translate(0, 11.82842712474619) rotate(-45)" text-anchor="end">Oct 2021</text></g><g class="tick" opacity="1" transform="translate(396.7679572407885,0)"><line stroke="currentColor" y2="6"></line><text fill="currentColor" dy="0.32em" transform="translate(0, 11.82842712474619) rotate(-45)" text-anchor="end">Nov 2021</text></g><g class="tick" opacity="1" transform="translate(445.86446511796123,0)"><line stroke="currentColor" y2="6"></line><text fill="currentColor" dy="0.32em" transform="translate(0, 11.82842712474619) rotate(-45)" text-anchor="end">Dec 2021</text></g><g class="tick" opacity="1" transform="translate(496.59752325770637,0)"><line stroke="currentColor" y2="6"></line><text fill="currentColor" dy="0.32em" transform="translate(0, 11.82842712474619) rotate(-45)" text-anchor="end">Jan 2022</text></g><g class="tick" opacity="1" transform="translate(547.3305813974515,0)"><line stroke="currentColor" y2="6"></line><text fill="currentColor" dy="0.32em" transform="translate(0, 11.82842712474619) rotate(-45)" text-anchor="end">Feb 2022</text></g><g class="tick" opacity="1" transform="translate(593.1539887494794,0)"><line stroke="currentColor" y2="6"></line><text fill="currentColor" dy="0.32em" transform="translate(0, 11.82842712474619) rotate(-45)" text-anchor="end">Mar 2022</text></g><text fill="currentColor" transform="translate(640,-10)" dy="-0.32em" text-anchor="end">Month →</text></g><g fill="none" stroke="#ec025f" stroke-width="3" stroke-miterlimit="1"><path d="M40,320C45.648081576224484,319.99673095464306,51.296163152448976,319.99346190928605,51.45585183800697,319.9901928639291C59.09308639667828,319.8338482482362,59.68475206887225,319.6775036325434,62.911703676013936,319.5211590168505C68.51294811523145,319.2497807887689,70.43815542936491,318.97840256068724,74.3675555140209,318.7070243326056C78.08691683242853,318.4501521224873,78.18617279335656,318.1932799123689,85.82340735202787,317.93640770225056C88.44200368941385,317.8483333314263,93.44712409641556,317.7602589606021,97.27925919003485,317.6721845897778C101.08454739583141,317.58472724384853,104.16567751014124,317.49726989791924,108.73511102804181,317.40981255198994C112.13746516225719,317.34469269384465,118.79518408062867,317.27957283569935,120.19096286604878,317.21445297755406C127.82819742472009,316.85813889950816,125.16347283622046,316.5018248214622,131.64681470405574,316.1455107434163C134.8250631668656,315.9708393017567,141.20221754117637,315.79616786009706,143.10266654206274,315.62149641843746C150.73990110073404,314.9195534723055,151.09081815589718,314.2176105261735,154.5585183800697,313.5156675800415C158.9364558407412,312.62947150758293,163.35304574801467,311.7432754351244,166.01437021807664,310.85707936266584C173.65160477674797,308.3139519287601,175.9105546957526,305.7708244948543,177.47022205608363,303.22769706094857C185.10745661475494,290.77474637458675,184.24761657615886,278.321795688225,188.9260738940906,265.8688450018632C192.29803167207862,256.89348815403315,195.1082625602495,247.91813130620315,200.38192573209759,238.94277445837312C203.6438653918958,233.3912116245795,207.7961464547591,227.83964879078587,211.83777757010455,222.28808595699226C215.47570773623895,217.291044582888,218.92653946505772,212.29400320878375,223.29362940811149,207.29696183467948C226.76557622365786,203.32418771914504,230.78023604257672,199.35141360361058,234.74948124611848,195.37863948807615C238.43802203396143,191.68681935235864,242.30669494637274,187.99499921664116,246.20533308412544,184.30317908092366C249.95012056144472,180.75704801559755,253.5833145448444,177.2109169502714,257.6611849221324,173.6647858849453C261.276075719591,170.52126356358238,264.4412085429272,167.37774124221946,269.1170367601394,164.23421892085653C272.4896785076541,161.96681855395556,276.2402740781349,159.6994181870546,280.57288859814633,157.43201782015362C284.0587788336194,155.6077362547428,288.15558081173623,153.783454689332,292.02874043615327,151.95917312392118C295.7957636664966,150.18488244086572,299.6916151297878,148.4105917578103,303.4845922741603,146.63630107475484C307.32955737175524,144.83769130473348,311.85318445634744,143.03908153471215,314.94044411216726,141.2404717646908C322.57767867083857,136.79108744831942,322.6625891166438,132.341703131948,326.3962959501742,127.89231881557663C330.30811816475995,123.23067793533808,333.02913537790647,118.56903705509954,337.8521477881812,113.90739617486099C341.18976864936656,110.68144763363539,343.83563941024386,107.4554990924098,349.3079996261882,104.22955055118419C352.5471969402914,102.32004835508835,356.56125610266866,100.4105461589925,360.76385146419517,98.50104396289666C364.30920043945525,96.8901699500994,368.3666628374955,95.27929593730215,372.2197033022021,93.6684219245049C376.00509552816135,92.08583019703732,379.4016484339868,90.50323846956977,383.6755551402091,88.92064674210219C387.18686334077114,87.62043883098701,391.7751006459482,86.32023091987182,395.13140697821603,85.02002300875664C399.87254517291046,83.18334161612975,402.1055276675598,81.34666022350287,406.58725881622297,79.50997883087598C410.0174319409103,78.10424186392711,413.4129807265798,76.69850489697826,418.04311065423,75.2927679300294C421.42801550506806,74.26508923574222,425.7004892777307,73.23741054145505,429.49896249223696,72.20973184716787C433.3381580693387,71.1710356987466,436.6622483614636,70.13233955032534,440.95481433024395,69.09364340190407C444.4578039400619,68.246005452449,448.38841572106435,67.39836750299392,452.4106661682509,66.55072955353884C456.0615193458966,65.78135883883714,459.9569335798405,65.01198812413541,463.8665180062578,64.2426174094337C467.6020858584738,63.50749157640243,470.9005510881679,62.77236574337115,475.32236984426487,62.03723991033987C478.77354110672087,61.46348388613639,483.00295933130434,60.889727861932904,486.7782216822718,60.31597183772942C490.64225678584353,59.72872432688031,494.5436700682255,59.141476816031194,498.23407352027874,58.55422930518208C502.20082566942153,57.923006904703506,505.70492737330073,57.291784504224935,509.68992535828573,56.66056210374636C513.3668896998118,56.07813213342332,517.635877523825,55.495702163100276,521.1457771962927,54.913272192777235C525.4228070969634,54.203545240278025,529.2394795805327,53.493818287778815,532.6016290342997,52.784091335279605C537.3187844426377,51.788331813443385,540.0543475644527,50.79257229160716,544.0574808723065,49.79681276977094C547.7215180015232,48.88540173766246,551.3123107545533,47.97399070555399,555.5133327103136,47.06257967344551C559.059475564045,46.29324455633389,562.260239971431,45.52390943922227,566.9691845483206,44.75457432211065C570.333375233647,44.20494159812753,574.2705697126993,43.655308874144424,578.4250363863275,43.10567615016131C581.995578981445,42.633296129613875,585.4816045933433,42.160916109066434,589.8808882243345,41.688536088519C593.3404203356587,41.317063370024705,596.5440521780891,40.9455906515304,601.3367400623414,40.574117933036106C603.805802548677,40.382745288690735,606.6626469619403,40.19137264434537,609.5194913752036,40"></path></g>

</svg>
