<svg class="plot" fill="currentColor" text-anchor="middle" width="640" height="460" viewBox="0 0 640 400" style="font-family: 'RO Sans', sans-serif; font-size: 14px;" xmlns="http://www.w3.org/2000/svg">

<g transform="translate(40,0)" fill="none" text-anchor="end"><g class="tick" opacity="1" transform="translate(0,320.02016877355396)"><line stroke="currentColor" x2="0"></line><line stroke="currentColor" x2="580" stroke-opacity="0.1"></line><text fill="currentColor" x="-9" dy="0.32em">0m</text></g><g class="tick" opacity="1" transform="translate(0,277.4700135964111)"><line stroke="currentColor" x2="0"></line><line stroke="currentColor" x2="580" stroke-opacity="0.1"></line><text fill="currentColor" x="-9" dy="0.32em">0.5m</text></g><g class="tick" opacity="1" transform="translate(0,234.91985841926828)"><line stroke="currentColor" x2="0"></line><line stroke="currentColor" x2="580" stroke-opacity="0.1"></line><text fill="currentColor" x="-9" dy="0.32em">1m</text></g><g class="tick" opacity="1" transform="translate(0,192.3697032421254)"><line stroke="currentColor" x2="0"></line><line stroke="currentColor" x2="580" stroke-opacity="0.1"></line><text fill="currentColor" x="-9" dy="0.32em">1.5m</text></g><g class="tick" opacity="1" transform="translate(0,149.8195480649826)"><line stroke="currentColor" x2="0"></line><line stroke="currentColor" x2="580" stroke-opacity="0.1"></line><text fill="currentColor" x="-9" dy="0.32em">2m</text></g><g class="tick" opacity="1" transform="translate(0,107.26939288783973)"><line stroke="currentColor" x2="0"></line><line stroke="currentColor" x2="580" stroke-opacity="0.1"></line><text fill="currentColor" x="-9" dy="0.32em">2.5m</text></g><g class="tick" opacity="1" transform="translate(0,64.71923771069692)"><line stroke="currentColor" x2="0"></line><line stroke="currentColor" x2="580" stroke-opacity="0.1"></line><text fill="currentColor" x="-9" dy="0.32em">3m</text></g><text fill="currentColor" transform="translate(-40,40)" dy="-1em" text-anchor="start">↑ Number of downloads CoronaCheck Scanner (million)</text></g><g transform="translate(0,320)" fill="none" text-anchor="middle"><g class="tick" opacity="1" transform="translate(46.85573748232073,0)"><line stroke="currentColor" y2="6"></line><text fill="currentColor" dy="0.32em" transform="translate(0, 11.82842712474619) rotate(-45)" text-anchor="end">Apr 2021</text></g><g class="tick" opacity="1" transform="translate(98.27376859972617,0)"><line stroke="currentColor" y2="6"></line><text fill="currentColor" dy="0.32em" transform="translate(0, 11.82842712474619) rotate(-45)" text-anchor="end">May 2021</text></g><g class="tick" opacity="1" transform="translate(151.4057340877118,0)"><line stroke="currentColor" y2="6"></line><text fill="currentColor" dy="0.32em" transform="translate(0, 11.82842712474619) rotate(-45)" text-anchor="end">Jun 2021</text></g><g class="tick" opacity="1" transform="translate(202.82376520511727,0)"><line stroke="currentColor" y2="6"></line><text fill="currentColor" dy="0.32em" transform="translate(0, 11.82842712474619) rotate(-45)" text-anchor="end">Jul 2021</text></g><g class="tick" opacity="1" transform="translate(255.95573069310288,0)"><line stroke="currentColor" y2="6"></line><text fill="currentColor" dy="0.32em" transform="translate(0, 11.82842712474619) rotate(-45)" text-anchor="end">Aug 2021</text></g><g class="tick" opacity="1" transform="translate(309.08769618108846,0)"><line stroke="currentColor" y2="6"></line><text fill="currentColor" dy="0.32em" transform="translate(0, 11.82842712474619) rotate(-45)" text-anchor="end">Sep 2021</text></g><g class="tick" opacity="1" transform="translate(360.5057272984939,0)"><line stroke="currentColor" y2="6"></line><text fill="currentColor" dy="0.32em" transform="translate(0, 11.82842712474619) rotate(-45)" text-anchor="end">Oct 2021</text></g><g class="tick" opacity="1" transform="translate(413.6376927864796,0)"><line stroke="currentColor" y2="6"></line><text fill="currentColor" dy="0.32em" transform="translate(0, 11.82842712474619) rotate(-45)" text-anchor="end">Nov 2021</text></g><g class="tick" opacity="1" transform="translate(465.055723903885,0)"><line stroke="currentColor" y2="6"></line><text fill="currentColor" dy="0.32em" transform="translate(0, 11.82842712474619) rotate(-45)" text-anchor="end">Dec 2021</text></g><g class="tick" opacity="1" transform="translate(518.1876893918707,0)"><line stroke="currentColor" y2="6"></line><text fill="currentColor" dy="0.32em" transform="translate(0, 11.82842712474619) rotate(-45)" text-anchor="end">Jan 2022</text></g><g class="tick" opacity="1" transform="translate(571.3196548798562,0)"><line stroke="currentColor" y2="6"></line><text fill="currentColor" dy="0.32em" transform="translate(0, 11.82842712474619) rotate(-45)" text-anchor="end">Feb 2022</text></g><g class="tick" opacity="1" transform="translate(619.3098172561013,0)"><line stroke="currentColor" y2="6"></line><text fill="currentColor" dy="0.32em" transform="translate(0, 11.82842712474619) rotate(-45)" text-anchor="end">Mar 2022</text></g><text fill="currentColor" transform="translate(640,-10)" dy="-0.32em" text-anchor="end">Month →</text></g><g fill="none" stroke="#ec025f" stroke-width="3" stroke-miterlimit="1"><path d="M40,320C45.76425817063374,319.9973335236089,51.528516341267476,319.9946670472178,51.99754059406127,319.9920005708267C59.995900990102115,319.9465286383274,60.19857791566203,319.90105670582807,63.99508118812253,319.85558477332876C68.24868061253753,319.8046380541967,71.91323563540146,319.75369133506456,75.99262178218382,319.7027446159325C79.9175545559268,319.6537268371684,81.81964509205086,319.60470905840435,87.99016237624508,319.55569127964026C91.34680951000821,319.52902651572924,96.06843836297563,319.5023617518182,99.98770297030634,319.4756969879072C104.07374479496578,319.4478975531915,107.35071639940114,319.4200981184758,111.98524356436764,319.3922986837601C115.59828310930631,319.37062647138987,122.85865845155274,319.3489542590196,123.9827841584289,319.3272820466494C131.98114455446975,319.1730802842874,130.55743759315672,319.01887852192544,135.98032475249016,318.86467675956345C139.41003153206796,318.76715180389743,145.19688202923905,318.6696268482315,147.97786534655143,318.57210189256546C155.97622574259228,318.2916112696377,155.0353743529245,318.01112064671,159.9754059406127,317.7306300237823C163.49657732309916,317.53070102798995,169.13574063244963,317.3307720321976,171.97294653467395,317.1308430364053C179.9713069307148,316.56722368092886,183.2083823523325,316.0036043254524,183.97048712873524,315.43998496997597C191.96884752477607,309.52474749755993,190.64744191237747,303.60951002514383,195.96802772279648,297.6942725527278C199.41317764806283,293.8640777843021,202.95628063861045,290.0338830158764,207.96556831685777,286.2036882474507C211.47029634799551,283.5239078411644,214.72481085775564,280.8441274348781,219.96310891091906,278.16434702859175C223.42201918051316,276.39485627539506,227.2073947564748,274.6253655221984,231.9606495049803,272.85587476900173C235.5337248734884,271.52572855139414,239.6356603964826,270.19558233378655,243.9581900990416,268.86543611617896C247.71333650162305,267.7098873686482,251.78372087815097,266.5543386211175,255.95573069310288,265.39878987358674C259.80758873366494,264.3319156494452,264.10597337488383,263.26504142530365,267.9532712871641,262.1981672011621C272.131594353503,261.0394981089184,275.3782969517411,259.8808290166746,279.9508118812254,258.7221599244309C283.58735272939396,257.8006653971446,287.66676211060513,256.8791708698583,291.9483524752867,255.95767634257194C295.72751333496075,255.14431594297582,300.0540030120532,254.33095554337967,303.9458930693479,253.51759514378355C308.0652726720696,252.65669203746947,312.0640986826453,251.79578893115539,315.9434336634092,250.9348858248413C320.0788004068825,250.0171640779807,326.0113618345004,249.0994423311201,327.9409742574705,248.1817205842595C335.9393346535113,244.37770834465277,336.56671517452554,240.57369610504608,339.93851485153175,236.76968386543936C345.8966994322715,230.04775218440494,347.26351964087655,223.32582050337052,351.93605544559296,216.6038888223361C355.53562251731654,211.4255349372778,357.77286260052466,206.2471810522195,363.93359603965433,201.0688271671612C367.29086671905515,198.2469008758131,371.89149591719,195.424974584465,375.93113663371554,192.6030482931169C379.89143016527834,189.83655067057956,383.4907713736617,187.07005304804218,387.9286772277768,184.30355542550484C391.6237164302459,182.00014532514538,396.2892920928522,179.69673522478593,399.9262178218381,177.39332512442647C404.49775924751185,174.49798563201273,409.24409135238153,171.602646139599,411.9237584158994,168.70730664718525C419.9221188119402,160.06519993008683,418.8634658947182,151.4230932129884,423.9212990099606,142.78098649588998C427.41527727320727,136.8109727903759,430.2486317922967,130.8409590848618,435.91883960402197,124.87094537934772C439.31762884300053,121.29244896217989,442.7927496853451,117.71395254501205,447.9163801980832,114.13545612784422C451.39672535798707,111.70467922965453,454.2959373288208,109.27390233146483,459.91392079214444,106.84312543327513C463.3185665453024,105.37001069427232,467.5607944474232,103.89689595526953,471.91146138620576,102.42378121626672C475.65096899205776,101.15760206527541,479.79432406508346,99.89142291428412,483.909001980267,98.62524376329281C487.80465321908,97.42646405810211,492.2329352830488,96.22768435291142,495.9065425743282,95.02890464772072C500.3908470165418,93.56557644440865,501.35180650705723,92.10224824109656,507.9040831683895,90.63892003778449C511.24106243498346,89.8936682532419,515.973918508444,89.14841646869932,519.9016237624508,88.40316468415674C523.977784075731,87.62974469688686,528.0178064976939,86.85632470961698,531.8991643565121,86.08290472234711C536.0319243051403,85.2593890190487,540.0649103682434,84.43587331575027,543.8967049505734,83.61235761245186C548.097014929337,82.70964188698372,552.5257712061992,81.80692616151558,555.8942455446346,80.90421043604744C561.8950053322172,79.2960698712825,564.2453698596568,77.68792930651756,567.8917861386958,76.07978874175262C572.4397241860404,74.07405952701247,575.7014930965214,72.06833031227231,579.8893267327572,70.06260109753215C583.7298474234165,68.2232146227645,585.3186382869355,66.38382814799687,591.8868673268184,64.54444167322922C595.2231990802325,63.610125365849505,598.3817880074621,62.67580905846979,603.8844079208797,61.74149275109008C607.3032260861095,61.16099516739339,611.5925873005252,60.58049758369669,615.881948514941,60"></path></g>

</svg>

