<svg class="plot" fill="currentColor" text-anchor="middle" width="640" height="460" viewBox="0 0 640 400" style="font-family: 'RO Sans', sans-serif; font-size: 14px;" xmlns="http://www.w3.org/2000/svg">

<g transform="translate(40,0)" fill="none" text-anchor="end"><g class="tick" opacity="1" transform="translate(0,320.0877550653215)"><line stroke="currentColor" x2="0"></line><line stroke="currentColor" x2="580" stroke-opacity="0.1"></line><text fill="currentColor" x="-9" dy="0.32em">0m</text></g><g class="tick" opacity="1" transform="translate(0,284.6096611411225)"><line stroke="currentColor" x2="0"></line><line stroke="currentColor" x2="580" stroke-opacity="0.1"></line><text fill="currentColor" x="-9" dy="0.32em">2m</text></g><g class="tick" opacity="1" transform="translate(0,249.13156721692346)"><line stroke="currentColor" x2="0"></line><line stroke="currentColor" x2="580" stroke-opacity="0.1"></line><text fill="currentColor" x="-9" dy="0.32em">4m</text></g><g class="tick" opacity="1" transform="translate(0,213.65347329272444)"><line stroke="currentColor" x2="0"></line><line stroke="currentColor" x2="580" stroke-opacity="0.1"></line><text fill="currentColor" x="-9" dy="0.32em">6m</text></g><g class="tick" opacity="1" transform="translate(0,178.1753793685254)"><line stroke="currentColor" x2="0"></line><line stroke="currentColor" x2="580" stroke-opacity="0.1"></line><text fill="currentColor" x="-9" dy="0.32em">8m</text></g><g class="tick" opacity="1" transform="translate(0,142.69728544432635)"><line stroke="currentColor" x2="0"></line><line stroke="currentColor" x2="580" stroke-opacity="0.1"></line><text fill="currentColor" x="-9" dy="0.32em">10m</text></g><g class="tick" opacity="1" transform="translate(0,107.21919152012735)"><line stroke="currentColor" x2="0"></line><line stroke="currentColor" x2="580" stroke-opacity="0.1"></line><text fill="currentColor" x="-9" dy="0.32em">12m</text></g><g class="tick" opacity="1" transform="translate(0,71.74109759592832)"><line stroke="currentColor" x2="0"></line><line stroke="currentColor" x2="580" stroke-opacity="0.1"></line><text fill="currentColor" x="-9" dy="0.32em">14m</text></g><text fill="currentColor" transform="translate(-40,40)" dy="-1em" text-anchor="start">↑ Number of downloads CoronaCheck (million)</text></g><g transform="translate(0,320)" fill="none" text-anchor="middle"><g class="tick" opacity="1" transform="translate(46.52528396455472,0)"><line stroke="currentColor" y2="6"></line><text fill="currentColor" dy="0.32em" transform="translate(0, 11.82842712474619) rotate(-45)" text-anchor="end">Apr 2021</text></g><g class="tick" opacity="1" transform="translate(95.46491369871508,0)"><line stroke="currentColor" y2="6"></line><text fill="currentColor" dy="0.32em" transform="translate(0, 11.82842712474619) rotate(-45)" text-anchor="end">May 2021</text></g><g class="tick" opacity="1" transform="translate(146.03586442401414,0)"><line stroke="currentColor" y2="6"></line><text fill="currentColor" dy="0.32em" transform="translate(0, 11.82842712474619) rotate(-45)" text-anchor="end">Jun 2021</text></g><g class="tick" opacity="1" transform="translate(194.97549415817448,0)"><line stroke="currentColor" y2="6"></line><text fill="currentColor" dy="0.32em" transform="translate(0, 11.82842712474619) rotate(-45)" text-anchor="end">Jul 2021</text></g><g class="tick" opacity="1" transform="translate(245.54644488347355,0)"><line stroke="currentColor" y2="6"></line><text fill="currentColor" dy="0.32em" transform="translate(0, 11.82842712474619) rotate(-45)" text-anchor="end">Aug 2021</text></g><g class="tick" opacity="1" transform="translate(296.1173956087726,0)"><line stroke="currentColor" y2="6"></line><text fill="currentColor" dy="0.32em" transform="translate(0, 11.82842712474619) rotate(-45)" text-anchor="end">Sep 2021</text></g><g class="tick" opacity="1" transform="translate(345.05702534293295,0)"><line stroke="currentColor" y2="6"></line><text fill="currentColor" dy="0.32em" transform="translate(0, 11.82842712474619) rotate(-45)" text-anchor="end">Oct 2021</text></g><g class="tick" opacity="1" transform="translate(395.627976068232,0)"><line stroke="currentColor" y2="6"></line><text fill="currentColor" dy="0.32em" transform="translate(0, 11.82842712474619) rotate(-45)" text-anchor="end">Nov 2021</text></g><g class="tick" opacity="1" transform="translate(444.56760580239234,0)"><line stroke="currentColor" y2="6"></line><text fill="currentColor" dy="0.32em" transform="translate(0, 11.82842712474619) rotate(-45)" text-anchor="end">Dec 2021</text></g><g class="tick" opacity="1" transform="translate(495.1385565276914,0)"><line stroke="currentColor" y2="6"></line><text fill="currentColor" dy="0.32em" transform="translate(0, 11.82842712474619) rotate(-45)" text-anchor="end">Jan 2022</text></g><g class="tick" opacity="1" transform="translate(545.7095072529904,0)"><line stroke="currentColor" y2="6"></line><text fill="currentColor" dy="0.32em" transform="translate(0, 11.82842712474619) rotate(-45)" text-anchor="end">Feb 2022</text></g><g class="tick" opacity="1" transform="translate(591.3864950048734,0)"><line stroke="currentColor" y2="6"></line><text fill="currentColor" dy="0.32em" transform="translate(0, 11.82842712474619) rotate(-45)" text-anchor="end">Mar 2022</text></g><text fill="currentColor" transform="translate(640,-10)" dy="-0.32em" text-anchor="end">Month →</text></g><g fill="none" stroke="#ec025f" stroke-width="3" stroke-miterlimit="1"><path d="M40,320C45.63003425295077,319.9967419283746,51.260068505901536,319.99348385674926,51.41924693797075,319.99022578512387C59.03207822995125,319.8344059966088,59.62185335196259,319.67858620809375,62.83849387594151,319.52276641957866C68.42184065065841,319.25229917054753,70.34089634706028,318.98183192151635,74.25774081391225,318.7113646724852C77.9652176516905,318.4553547467282,78.0641564599025,318.1993448209712,85.67698775188302,317.94333489521415C88.2872168845846,317.85555617783,93.27634442307101,317.7677774604459,97.09623468985376,317.6799987430618C100.88936385271246,317.5928349793057,103.96064882748922,317.5056712155496,108.51548162782451,317.4185074517935C111.90696421492768,317.35360619197485,118.5434097143578,317.2887049321562,119.93472856579527,317.2238036723375C127.54755985777577,316.86868569120327,124.89134986762801,316.51356771006897,131.353975503766,316.1584497289347C134.52206850464106,315.9843646350643,140.8788459483066,315.81027954119395,142.77322244173678,315.63619444732353C150.38605373371726,314.9366078262479,150.73584950310374,314.23702120517225,154.19246937970752,313.5374345840966C158.55641801044476,312.65421334886935,162.95889558156546,311.7709921136421,165.61171631767826,310.8877708784148C173.22454760965877,308.3531803703761,175.47627950270243,305.8185898623374,177.03096325564903,303.28399935429866C184.64379454762954,290.8728514952031,183.7867019571591,278.4617036361076,188.4502101936198,266.05055577701205C191.81139355001656,257.1053279565437,194.612644903344,248.16010013607539,199.8694571315905,239.21487231560707C203.1209739108505,233.68194530781514,207.25998718399572,228.1490183000232,211.28870406956128,222.61609129223126C214.91500995214582,217.63582429254356,218.35481523332356,212.65555729285583,222.70795100753202,207.67529029316813C226.16880390637004,203.71585222900836,230.17063567693168,199.7564141648486,234.1271979455028,195.79697610068882C237.80395273360276,192.1175488928258,241.6602640698315,188.4381216849628,245.54644488347355,184.75869447709977C249.27926663592118,181.22446728163717,252.90085146930255,177.69024008617458,256.9656918214443,174.156012890712C260.56903195308126,171.0230429375321,263.72405122290456,167.89007298435223,268.38493875941504,164.75710303117233C271.7468038998497,162.49731401263915,275.4854151868503,160.237524994106,279.8041856973858,157.9777359755728C283.2789374627205,156.15957827020807,287.3626489235195,154.34142056484336,291.2234326353565,152.52326285947862C294.97841909089425,150.75492822401478,298.86182213433966,148.9865935885509,302.6426795733273,147.21825895308706C306.4753588483548,145.4256868664573,310.98453158074574,143.6331147798276,314.06192651129805,141.84054269319785C321.6747578032785,137.40609434250263,321.7593969346128,132.97164599180743,325.48117344926874,128.53719764111221C329.380496212644,123.89120524237832,332.0928189555327,119.24521284364441,336.9004203872396,114.59922044491051C340.22737654363385,111.38410096524912,342.8647929498215,108.16898148558774,348.3196673252103,104.95386200592634C351.5485144274255,103.05076974370708,355.54974746072423,101.1476774814878,359.738914263181,99.24458521926854C363.2729347797051,97.63911868697939,367.317432362245,96.03365215469024,371.15816120115187,94.42818562240109C374.9314579578271,92.85090643573469,378.3171578532134,91.2736272490683,382.57740813912255,89.6963480624019C386.07749665148543,88.40050476880488,390.65107315532947,87.10466147520785,393.9966550770933,85.80881818161083C398.72264390602,83.97830227352917,400.9484913484572,82.14778636544752,405.41590201506403,80.31727045736585C408.83511470257815,78.91625235433054,412.21981368627524,77.51523425129523,416.83514895303483,76.11421614825991C420.2092380124809,75.08998722873089,424.46805994348506,74.06575830920188,428.2543958910056,73.04152938967286C432.0813240808971,72.00632000007433,435.39479290247783,70.97111061047579,439.67364282897626,69.93590122087726C443.16543933100024,69.09110867438554,447.0834916224633,68.2463161278938,451.0928897669471,67.40152358140209C454.7320773681256,66.63473553741836,458.61504457930323,65.86794749343466,462.5121367049178,65.10115944945093C466.23576829174357,64.3685013318223,469.52369393069273,63.63584321419366,473.93138364288853,62.90318509656503C477.3715273727912,62.33135509171044,481.5874313311716,61.75952508685585,485.3506305808594,61.18769508200126C489.2023189274459,60.60241887954941,493.0912660182935,60.01714267709755,496.76987751883007,59.4318664746457C500.7239546990626,58.802763000166145,504.2168597416719,58.17365952568658,508.1891244568008,57.544556051207024C511.85433978881963,56.96408121746626,516.1096869098312,56.383606383725486,519.6083713947716,55.80313154998472C523.8717348955814,55.09578705237099,527.6762119600139,54.38844255475726,531.0276183327423,53.68109805714353C535.7297010075448,52.688681161833216,538.456523180539,51.69626426652291,542.4468652707131,50.703847371212596C546.0991946967629,49.795495819455674,549.6785137844876,48.88714426769876,553.8661122086838,47.978792715941836C557.4009240669981,47.21204015005205,560.5914610672189,46.44528758416226,565.2853591466546,45.67853501827247C568.6388002285922,45.130747335067184,572.5634141844004,44.5829596518619,576.7046060846252,44.03517196865661C580.2637397197965,43.56437766228249,583.7386264289879,43.09358335590837,588.1238530225961,42.62278904953425C591.5723308859343,42.252563313403925,594.7657261588805,41.8823375772736,599.5430999605669,41.51211184114328C602.0042730479495,41.321381608206785,605.1328257326286,41.13065137527029,607.6997049162602,40.939921142333795C611.9162432478545,40.6266140948892,615.5175975510427,40.313307047444596,619.118951854231,40"></path></g>

</svg>
