<svg class="plot" fill="currentColor" text-anchor="middle" width="640" height="400" viewBox="0 0 640 400" style="font-family: 'RO Sans', sans-serif; font-size: 14px;" xmlns="http://www.w3.org/2000/svg"><g transform="translate(40,0)" fill="none" text-anchor="end"><g class="tick" opacity="1" transform="translate(0,370.1228255995662)"><line stroke="currentColor" x2="0"></line><line stroke="currentColor" x2="580" stroke-opacity="0.1"></line><text fill="currentColor" x="-9" dy="0.32em">0m</text></g><g class="tick" opacity="1" transform="translate(0,320.4662258153738)"><line stroke="currentColor" x2="0"></line><line stroke="currentColor" x2="580" stroke-opacity="0.1"></line><text fill="currentColor" x="-9" dy="0.32em">2m</text></g><g class="tick" opacity="1" transform="translate(0,270.8096260311814)"><line stroke="currentColor" x2="0"></line><line stroke="currentColor" x2="580" stroke-opacity="0.1"></line><text fill="currentColor" x="-9" dy="0.32em">4m</text></g><g class="tick" opacity="1" transform="translate(0,221.15302624698893)"><line stroke="currentColor" x2="0"></line><line stroke="currentColor" x2="580" stroke-opacity="0.1"></line><text fill="currentColor" x="-9" dy="0.32em">6m</text></g><g class="tick" opacity="1" transform="translate(0,171.4964264627965)"><line stroke="currentColor" x2="0"></line><line stroke="currentColor" x2="580" stroke-opacity="0.1"></line><text fill="currentColor" x="-9" dy="0.32em">8m</text></g><g class="tick" opacity="1" transform="translate(0,121.83982667860411)"><line stroke="currentColor" x2="0"></line><line stroke="currentColor" x2="580" stroke-opacity="0.1"></line><text fill="currentColor" x="-9" dy="0.32em">10m</text></g><g class="tick" opacity="1" transform="translate(0,72.18322689441169)"><line stroke="currentColor" x2="0"></line><line stroke="currentColor" x2="580" stroke-opacity="0.1"></line><text fill="currentColor" x="-9" dy="0.32em">12m</text></g><g class="tick" opacity="1" transform="translate(0,22.526627110219277)"><line stroke="currentColor" x2="0"></line><line stroke="currentColor" x2="580" stroke-opacity="0.1"></line><text fill="currentColor" x="-9" dy="0.32em">14m</text></g><g class="tick" opacity="1" transform="translate(0,-27.129972673973175)"><line stroke="currentColor" x2="0"></line><line stroke="currentColor" x2="580" stroke-opacity="0.1"></line><text fill="currentColor" x="-9" dy="0.32em">16m</text></g><text fill="currentColor" transform="translate(10,20)" dy="-1em" text-anchor="start">↑ Aantal downloads CoronaCheck</text></g><g transform="translate(0,370)" fill="none" text-anchor="middle"><g class="tick" opacity="1" transform="translate(50,0)"><line stroke="currentColor" y2="0"></line><text fill="currentColor" y="9" dy="0.71em">12</text></g><g class="tick" opacity="1" transform="translate(82,0)"><line stroke="currentColor" y2="0"></line><text fill="currentColor" y="9" dy="0.71em">14</text></g><g class="tick" opacity="1" transform="translate(114,0)"><line stroke="currentColor" y2="0"></line><text fill="currentColor" y="9" dy="0.71em">16</text></g><g class="tick" opacity="1" transform="translate(146,0)"><line stroke="currentColor" y2="0"></line><text fill="currentColor" y="9" dy="0.71em">18</text></g><g class="tick" opacity="1" transform="translate(178,0)"><line stroke="currentColor" y2="0"></line><text fill="currentColor" y="9" dy="0.71em">20</text></g><g class="tick" opacity="1" transform="translate(210,0)"><line stroke="currentColor" y2="0"></line><text fill="currentColor" y="9" dy="0.71em">22</text></g><g class="tick" opacity="1" transform="translate(242,0)"><line stroke="currentColor" y2="0"></line><text fill="currentColor" y="9" dy="0.71em">24</text></g><g class="tick" opacity="1" transform="translate(274,0)"><line stroke="currentColor" y2="0"></line><text fill="currentColor" y="9" dy="0.71em">26</text></g><g class="tick" opacity="1" transform="translate(306,0)"><line stroke="currentColor" y2="0"></line><text fill="currentColor" y="9" dy="0.71em">28</text></g><g class="tick" opacity="1" transform="translate(338,0)"><line stroke="currentColor" y2="0"></line><text fill="currentColor" y="9" dy="0.71em">30</text></g><g class="tick" opacity="1" transform="translate(370,0)"><line stroke="currentColor" y2="0"></line><text fill="currentColor" y="9" dy="0.71em">32</text></g><g class="tick" opacity="1" transform="translate(402,0)"><line stroke="currentColor" y2="0"></line><text fill="currentColor" y="9" dy="0.71em">34</text></g><g class="tick" opacity="1" transform="translate(434,0)"><line stroke="currentColor" y2="0"></line><text fill="currentColor" y="9" dy="0.71em">36</text></g><g class="tick" opacity="1" transform="translate(466,0)"><line stroke="currentColor" y2="0"></line><text fill="currentColor" y="9" dy="0.71em">38</text></g><g class="tick" opacity="1" transform="translate(498,0)"><line stroke="currentColor" y2="0"></line><text fill="currentColor" y="9" dy="0.71em">40</text></g><g class="tick" opacity="1" transform="translate(530,0)"><line stroke="currentColor" y2="0"></line><text fill="currentColor" y="9" dy="0.71em">42</text></g><g class="tick" opacity="1" transform="translate(562,0)"><line stroke="currentColor" y2="0"></line><text fill="currentColor" y="9" dy="0.71em">44</text></g><g class="tick" opacity="1" transform="translate(594,0)"><line stroke="currentColor" y2="0"></line><text fill="currentColor" y="9" dy="0.71em">46</text></g><text fill="currentColor" transform="translate(640,-10)" dy="-0.32em" text-anchor="end">Weeknummer →</text></g><g fill="none" stroke="#ec025f" stroke-width="3" stroke-miterlimit="1"><path d="M50,370C57.888484112527564,369.9954398689198,65.77696822505513,369.99087973783963,66,369.9863196067594C76.66666666666667,369.76822782050726,77.49302605826571,369.5501360342551,82,369.33204424800294C89.82306827067687,368.95348715954816,92.51194007713045,368.5749300710934,98,368.1963729826386C103.19470589669164,367.83805095859583,103.33333333333333,367.4797289345531,114,367.12140691051036C117.65730475486556,366.9985482065443,124.6477867936023,366.87568950257827,130,366.7528307986122C135.31471706807005,366.63083280904243,139.61802707295675,366.5088348194726,146,366.38683682990285C150.75195270655016,366.2959983566976,160.05056307618815,366.20515988349234,162,366.1143214102871C172.66666666666666,365.6172836747472,168.94493614684927,365.1202459392074,178,364.6232082036675C182.43895191069473,364.37955154462645,191.34570729054875,364.1358948855854,194,363.89223822654435C204.66666666666666,362.91306801149983,205.1567806243195,361.93389779645526,210,360.95472758141074C216.11451687410528,359.7185348058832,222.28301831036953,358.4823420303557,226,357.2461492548282C236.66666666666666,353.6986321096457,239.8216654581282,350.15111496446326,242,346.60359781928076C252.66666666666666,329.2324446953758,251.46575722648916,311.8612915714708,258,294.49013844756587C262.70949914600106,281.97002959367825,266.6344533830625,269.4499207397906,274,256.929811885903C278.5558405690633,249.18569962755893,284.3551908003048,241.44158736921483,290,233.69747511087076C295.0809737661793,226.72688853566493,299.9006334861069,219.7563019604591,306,212.78571538525327C310.84915044592674,207.2439229839379,316.45628975001506,201.70213058262254,322,196.16033818130717C327.1516599062227,191.01046049378851,332.5549042457854,185.8605828062699,338,180.71070511875124C343.23021775109936,175.7640553419494,348.304576651372,170.81740556514754,354,165.8707557883457C359.048795460801,161.48572215510305,363.4694292023586,157.10068852186043,370,152.7156548886178C374.71045442305785,149.5527612131637,379.94878414102783,146.38986753770965,386,143.22697386225556C390.8686247479674,140.6822055409151,396.5904892218427,138.13743721957468,402,135.59266889823422C407.26127367373317,133.11763499519074,412.7024773741733,130.64260109214723,418,128.16756718910375C423.3701324381148,125.65860955230768,429.68812907223224,123.14965191551163,434,120.64069427871556C444.6666666666667,114.43405793898958,444.785258208535,108.22742159926362,450,102.02078525953765C455.4635095074922,95.51806316749848,459.26386202828013,89.01534107545933,466,82.51261898342017C470.6615419380508,78.01260549337722,474.35693995582074,73.51259200333426,482,69.01257851329132C486.52407710561556,66.34893229206753,492.1303774930698,63.685286070843745,498,61.02163984961996C502.9516687546502,58.774562843985755,508.6185889703309,56.527485838351545,514,54.28040883271734C519.2869290273472,52.07278399561168,524.0307793548199,49.865159158506025,530,47.65753432140036C534.9041251583407,45.84381873818276,541.312360697777,44.03010315496516,546,42.21638757174756C552.6217870297027,39.6543222014823,555.7405179996562,37.09225683121705,562,34.53019146095179C566.7908065476993,32.56926888767396,571.5332544545817,30.608346314396123,578,28.64742374111829C582.727581883848,27.21387080974851,588.6948011992905,25.780317878378728,594,24.34676494700895C599.3620743443828,22.897843298005967,604.6810371721914,21.448921649002983,610,20"></path></g></svg>
