<svg class="plot" fill="currentColor" text-anchor="middle" width="640" height="460" viewBox="0 0 640 400" style="font-family: 'RO Sans', sans-serif; font-size: 14px;" xmlns="http://www.w3.org/2000/svg">

<g transform="translate(40,0)" fill="none" text-anchor="end"><g class="tick" opacity="1" transform="translate(0,370.0290090587608)"><line stroke="currentColor" x2="0"></line><line stroke="currentColor" x2="580" stroke-opacity="0.1"></line><text fill="currentColor" x="-9" dy="0.32em">0m</text></g><g class="tick" opacity="1" transform="translate(0,308.82846314989126)"><line stroke="currentColor" x2="0"></line><line stroke="currentColor" x2="580" stroke-opacity="0.1"></line><text fill="currentColor" x="-9" dy="0.32em">0.5m</text></g><g class="tick" opacity="1" transform="translate(0,247.6279172410218)"><line stroke="currentColor" x2="0"></line><line stroke="currentColor" x2="580" stroke-opacity="0.1"></line><text fill="currentColor" x="-9" dy="0.32em">1m</text></g><g class="tick" opacity="1" transform="translate(0,186.4273713321523)"><line stroke="currentColor" x2="0"></line><line stroke="currentColor" x2="580" stroke-opacity="0.1"></line><text fill="currentColor" x="-9" dy="0.32em">1.5m</text></g><g class="tick" opacity="1" transform="translate(0,125.22682542328282)"><line stroke="currentColor" x2="0"></line><line stroke="currentColor" x2="580" stroke-opacity="0.1"></line><text fill="currentColor" x="-9" dy="0.32em">2m</text></g><g class="tick" opacity="1" transform="translate(0,64.02627951441326)"><line stroke="currentColor" x2="0"></line><line stroke="currentColor" x2="580" stroke-opacity="0.1"></line><text fill="currentColor" x="-9" dy="0.32em">2.5m</text></g><g class="tick" opacity="1" transform="translate(0,2.825733605543782)"><line stroke="currentColor" x2="0"></line><line stroke="currentColor" x2="580" stroke-opacity="0.1"></line><text fill="currentColor" x="-9" dy="0.32em">3m</text></g><text fill="currentColor" transform="translate(10,20)" dy="-1em" text-anchor="start">↑ Number of downloads CoronaCheck Scanner (million)</text></g><g transform="translate(0,370)" fill="none" text-anchor="middle"><g class="tick" opacity="1" transform="translate(106.48984753082077,0)"><line stroke="currentColor" y2="6"></line><text fill="currentColor" y="9" dy="0.71em">May 2021</text></g><g class="tick" opacity="1" transform="translate(225.78045633611688,0)"><line stroke="currentColor" y2="6"></line><text fill="currentColor" y="9" dy="0.71em">Jul 2021</text></g><g class="tick" opacity="1" transform="translate(347.02664889231943,0)"><line stroke="currentColor" y2="6"></line><text fill="currentColor" y="9" dy="0.71em">Sep 2021</text></g><g class="tick" opacity="1" transform="translate(466.3172576976155,0)"><line stroke="currentColor" y2="6"></line><text fill="currentColor" y="9" dy="0.71em">Nov 2021</text></g><g class="tick" opacity="1" transform="translate(585.6078665029116,0)"><line stroke="currentColor" y2="6"></line><text fill="currentColor" y="9" dy="0.71em">Jan 2022</text></g><text fill="currentColor" transform="translate(640,-10)" dy="-0.32em" text-anchor="end">Week number →</text></g><g fill="none" stroke="#ec025f" stroke-width="3" stroke-miterlimit="1"><path d="M40,370C46.5769668944242,369.99616476578973,53.153933788848406,369.9923295315794,53.689086256345455,369.98849429736913C62.81514376057575,369.9230913139745,63.046396315581674,369.8576883305799,67.3781725126909,369.79228534718527C72.23149132117953,369.7190078935504,76.41271574845237,369.6457304399155,81.06725876903636,369.5724529862806C85.54557187569975,369.5019499573936,87.71584012461733,369.4314469285066,94.7563450253818,369.3609438996196C98.58624931167718,369.3225915575167,103.97358550212672,369.28423921541383,108.44543128172725,369.24588687331095C113.10756837110272,369.20590251665044,116.84656359273353,369.16591815999,122.13451753807271,369.1259338033295C126.2569632668821,369.09476232527993,134.54098644099162,369.06359084723033,135.82360379441815,369.0324193691808C144.94966129864846,368.810628590807,143.32522441974155,368.58883781243327,149.5126900507636,368.3670470340595C153.4259547379323,368.2267753828364,160.02869927438874,368.0865037316133,163.20177630710907,367.9462320803902C172.32783381133936,367.5427980817589,171.25433081073783,367.13936408312765,176.8908625634545,366.7359300844964C180.90848754253503,366.44836911945254,187.34272232174683,366.16080815440876,190.57994881979997,365.8732471893649C199.70600632403028,365.06258475825604,203.39948035876327,364.25192232714716,204.26903507614543,363.4412598960383C213.39509258037575,354.93328240487904,211.88738062341875,346.42530491371986,217.9581213324909,337.9173274225606C221.88900651043792,332.40829908202784,225.93165525769285,326.899270741495,231.64720758883632,321.3902424009622C235.64607085144738,317.53587281998557,239.35944272940426,313.68150323900886,245.33629384518179,309.8271336580322C249.28287945264123,307.28204775586596,253.60195904780863,304.7369618536997,259.0253801015272,302.19187595153346C263.1022270633239,300.27870608605826,267.7824987200024,298.3655362205831,272.7144663578727,296.4523663551079C276.9990547372267,294.7903227296788,281.64332681865255,293.1282791042496,286.40355261421814,291.46623547882047C290.7984881054598,289.9317337910654,295.7029064448086,288.39723210331033,300.09263887056363,286.8627304155553C304.86006802936157,285.19619875009283,308.56452658630803,283.5296670846304,313.78172512690907,281.8631354191679C317.93098563201164,280.5377355966015,322.58555516286935,279.2123357740351,327.47081138325456,277.88693595146873C331.7828000428546,276.7170671162387,336.7192859761651,275.5471982810087,341.15989763959993,274.3773294457787C345.86007283485617,273.1390792005865,350.42269746227237,271.90082895539433,354.8489838959454,270.6625787102021C359.56740027547,269.34260533603964,366.3363996772246,268.0226319618771,368.53807015229086,266.7026585877146C377.66412765652115,261.2312889830977,378.3799632063475,255.75991937848087,382.2271564086363,250.288549773864C389.025391598384,240.62029153300048,390.5849212024575,230.95203329213697,395.9162426649818,221.28377505127347C400.02331642264136,213.83566861416404,402.5759873000667,206.38756217705463,409.6053289213272,198.9394557399452C413.43594466760493,194.880635535269,418.68522133668364,190.82181533059276,423.29441517767265,186.76299512591655C427.8130745919901,182.7838988323776,431.9198906416034,178.80480253883866,436.98350143401814,174.8257062452997C441.1995080369227,171.51267589306897,446.52288803969896,168.19964554083822,450.6725876903635,164.8866151886075C455.8886754718444,160.72220364205648,461.3041978512381,156.5577920955055,464.361673946709,152.3933805489545C473.48773145093935,139.96330487267946,472.2798179635238,127.53322919640442,478.0507602030545,115.10315352012938C482.0373580768766,106.51639052620348,485.27019018130136,97.92962753227756,491.7398464593999,89.34286453835166C495.6178345099298,84.1958578270518,499.58291623556505,79.04885111575194,505.4289327157454,73.90184440445208C509.39997534087826,70.40562041813413,512.7079502073119,66.90939643181619,519.1180189720908,63.41317244549825C523.002689252794,61.29436874576924,527.8430332562933,59.17556504604023,532.8071052284362,57.05676134631122C537.0738498809283,55.235596301519,541.8013808728543,53.41443125672679,546.4961914847818,51.593266211934576C550.9410946226088,49.86904283186204,555.9937247567467,48.144819451789495,560.1852777411273,46.42059607171696C565.3018289065853,44.31586849754698,566.398275069979,42.21114092337701,573.8743639974726,40.10641334920703C577.6818274236563,39.03450618779517,583.0819737720286,37.96259902638331,587.5634502538181,36.890691864971444C592.2143126272954,35.77826994216788,596.8239419907662,34.665848019364326,601.2525365101635,33.55342609656076C605.9679785601404,32.368950731040506,610.4548006633248,31.184475365520253,614.9416227665091,30"></path></g>

</svg>
