<svg class="plot" fill="currentColor" text-anchor="middle" width="640" height="460" viewBox="0 0 640 400" style="font-family: 'RO Sans', sans-serif; font-size: 14px;" xmlns="http://www.w3.org/2000/svg">

<g transform="translate(40,0)" fill="none" text-anchor="end"><g class="tick" opacity="1" transform="translate(0,320.0200519619814)"><line stroke="currentColor" x2="0"></line><line stroke="currentColor" x2="580" stroke-opacity="0.1"></line><text fill="currentColor" x="-9" dy="0.32em">0m</text></g><g class="tick" opacity="1" transform="translate(0,277.7163347018043)"><line stroke="currentColor" x2="0"></line><line stroke="currentColor" x2="580" stroke-opacity="0.1"></line><text fill="currentColor" x="-9" dy="0.32em">0.5m</text></g><g class="tick" opacity="1" transform="translate(0,235.4126174416274)"><line stroke="currentColor" x2="0"></line><line stroke="currentColor" x2="580" stroke-opacity="0.1"></line><text fill="currentColor" x="-9" dy="0.32em">1m</text></g><g class="tick" opacity="1" transform="translate(0,193.1089001814504)"><line stroke="currentColor" x2="0"></line><line stroke="currentColor" x2="580" stroke-opacity="0.1"></line><text fill="currentColor" x="-9" dy="0.32em">1.5m</text></g><g class="tick" opacity="1" transform="translate(0,150.80518292127346)"><line stroke="currentColor" x2="0"></line><line stroke="currentColor" x2="580" stroke-opacity="0.1"></line><text fill="currentColor" x="-9" dy="0.32em">2m</text></g><g class="tick" opacity="1" transform="translate(0,108.50146566109643)"><line stroke="currentColor" x2="0"></line><line stroke="currentColor" x2="580" stroke-opacity="0.1"></line><text fill="currentColor" x="-9" dy="0.32em">2.5m</text></g><g class="tick" opacity="1" transform="translate(0,66.19774840091947)"><line stroke="currentColor" x2="0"></line><line stroke="currentColor" x2="580" stroke-opacity="0.1"></line><text fill="currentColor" x="-9" dy="0.32em">3m</text></g><text fill="currentColor" transform="translate(-40,40)" dy="-1em" text-anchor="start">↑ Aantal downloads CoronaCheck Scanner (miljoen)</text></g><g transform="translate(0,320)" fill="none" text-anchor="middle"><g class="tick" opacity="1" transform="translate(46.54620104986213,0)"><line stroke="currentColor" y2="6"></line><text fill="currentColor" dy="0.32em" transform="translate(0, 11.82842712474619) rotate(-45)" text-anchor="end">apr. 2021</text></g><g class="tick" opacity="1" transform="translate(95.64270892382808,0)"><line stroke="currentColor" y2="6"></line><text fill="currentColor" dy="0.32em" transform="translate(0, 11.82842712474619) rotate(-45)" text-anchor="end">mei 2021</text></g><g class="tick" opacity="1" transform="translate(146.37576706025956,0)"><line stroke="currentColor" y2="6"></line><text fill="currentColor" dy="0.32em" transform="translate(0, 11.82842712474619) rotate(-45)" text-anchor="end">jun. 2021</text></g><g class="tick" opacity="1" transform="translate(195.4722749342255,0)"><line stroke="currentColor" y2="6"></line><text fill="currentColor" dy="0.32em" transform="translate(0, 11.82842712474619) rotate(-45)" text-anchor="end">jul. 2021</text></g><g class="tick" opacity="1" transform="translate(246.205333070657,0)"><line stroke="currentColor" y2="6"></line><text fill="currentColor" dy="0.32em" transform="translate(0, 11.82842712474619) rotate(-45)" text-anchor="end">aug. 2021</text></g><g class="tick" opacity="1" transform="translate(296.93839120708844,0)"><line stroke="currentColor" y2="6"></line><text fill="currentColor" dy="0.32em" transform="translate(0, 11.82842712474619) rotate(-45)" text-anchor="end">sep. 2021</text></g><g class="tick" opacity="1" transform="translate(346.0348990810544,0)"><line stroke="currentColor" y2="6"></line><text fill="currentColor" dy="0.32em" transform="translate(0, 11.82842712474619) rotate(-45)" text-anchor="end">okt. 2021</text></g><g class="tick" opacity="1" transform="translate(396.7679572174859,0)"><line stroke="currentColor" y2="6"></line><text fill="currentColor" dy="0.32em" transform="translate(0, 11.82842712474619) rotate(-45)" text-anchor="end">nov. 2021</text></g><g class="tick" opacity="1" transform="translate(445.8644650914519,0)"><line stroke="currentColor" y2="6"></line><text fill="currentColor" dy="0.32em" transform="translate(0, 11.82842712474619) rotate(-45)" text-anchor="end">dec. 2021</text></g><g class="tick" opacity="1" transform="translate(496.5975232278834,0)"><line stroke="currentColor" y2="6"></line><text fill="currentColor" dy="0.32em" transform="translate(0, 11.82842712474619) rotate(-45)" text-anchor="end">jan. 2022</text></g><g class="tick" opacity="1" transform="translate(547.3305813643149,0)"><line stroke="currentColor" y2="6"></line><text fill="currentColor" dy="0.32em" transform="translate(0, 11.82842712474619) rotate(-45)" text-anchor="end">feb. 2022</text></g><g class="tick" opacity="1" transform="translate(593.1539887133497,0)"><line stroke="currentColor" y2="6"></line><text fill="currentColor" dy="0.32em" transform="translate(0, 11.82842712474619) rotate(-45)" text-anchor="end">mrt. 2022</text></g><text fill="currentColor" transform="translate(640,-10)" dy="-0.32em" text-anchor="end">Maand →</text></g><g fill="none" stroke="#ec025f" stroke-width="3" stroke-miterlimit="1"><path d="M40,320C45.50400201080907,319.99734896705166,51.00800402161813,319.9946979341034,51.45585183725872,319.99204690115505C59.0930863954312,319.946838328643,59.28661246119909,319.901629756131,62.91170367451744,319.856421183619C66.97325315619115,319.80576953281945,70.47235358117,319.75511788201993,74.36755551177617,319.7044662312204C78.11527763654642,319.6557323489367,79.93148881683635,319.60699846665295,85.82340734903488,319.5582645843692C89.02850192094948,319.53175425488615,93.53694931031724,319.50524392540314,97.27925918629361,319.47873359592006C101.18081629103244,319.4510951673101,104.30983268242942,319.4234567387001,108.73511102355235,319.39581831009014C112.1850218935726,319.3742716167656,119.11759141076575,319.3527249234411,120.19096286081106,319.33117823011656C127.82819741898352,319.1778695587657,126.46877080312086,319.02456088741485,131.64681469806976,318.87125221606397C134.9216702740147,318.77429209610364,140.44724456819682,318.6773319761433,143.1026665353285,318.580371856183C150.73990109350098,318.3015057520039,149.84152912831263,318.0226396478248,154.55851837258723,317.7437735436457C157.9207089261518,317.5450024774792,163.30526410656958,317.3462314113128,166.01437020984594,317.14746034514627C173.65160476801842,316.58710530631794,176.74252628858738,316.02675026748966,177.47022204710467,315.4663952286613C185.10745660527715,309.58541706258603,183.8457124341381,303.70443889651074,188.92607388436338,297.82346073043544C192.2156753482276,294.01544931754336,195.59880729811687,290.20743790465133,200.3819257216221,286.39942649175924C203.72841534087587,283.7351665811915,206.8359885750498,281.0709066706237,211.83777755888082,278.40664676005593C215.14051808775693,276.6474043740742,218.75498401988807,274.88816198809246,223.29362939613952,273.1289196021107C226.70538047162654,271.80647719807945,230.62211367448563,270.4840347940481,234.74948123339828,269.16159239001684C238.3350828388208,268.0127362391431,242.22168942894803,266.8638800882694,246.205333070657,265.7150239373957C249.88327978522577,264.6543287332922,253.98759243191319,263.5936335291887,257.6611849079157,262.5329383250852C261.6508567578173,261.38097990161236,264.75097078814366,260.2290214781396,269.11703674517446,259.0770630546668C272.58938783497865,258.16090555120223,276.4846119509789,257.2447480477377,280.57288858243317,256.32859054427314C284.181420392613,255.51994088760577,288.3125691332752,254.7112912309384,292.02874041969187,253.90264157427103C295.9621301023711,253.04672456418496,299.7804091855698,252.19080755409885,303.48459225695063,251.33489054401278C307.4332472612444,250.4224839701453,313.0979536398056,249.5100773962778,314.94044409420934,248.59767082241032C322.5776786523818,244.81569029687233,323.176732953384,241.03370977133432,326.39629593146805,237.25172924579633C332.08546857821705,230.56872900542444,333.3905768773048,223.88572876505253,337.85214776872675,217.20272852468065C341.2891944474729,212.0543661341171,343.4254231784091,206.90600374355355,349.30799960598546,201.75764135299C352.51368957046253,198.95205882429508,356.9066004373854,196.14647629560014,360.76385144324416,193.34089376690522C364.5453377882118,190.5904188805612,367.98216880134373,187.8399439942172,372.21970328050287,185.08946910787319C375.74791152489104,182.79939967771077,380.2028365245026,180.50933024754835,383.67555511776163,178.21926081738593C388.0406915246626,175.3406902751781,392.57272681452235,172.46211973297025,395.13140695502034,169.58354919076243C402.7686415131928,160.99149500035145,401.7577867574457,152.39944080994044,406.58725879227904,143.80738661952947C409.9234839954819,137.87194946810123,412.62891260550737,131.93651231667303,418.04311062953786,126.0010751652448C421.2884445913234,122.44330434118575,424.60666378586194,118.88553351712669,429.49896246679657,115.32776269306764C432.82217010104415,112.91106413590643,435.5904826999712,110.49436557874523,440.9548143040553,108.07766702158402C444.20574035850314,106.61308412755851,448.2564317419218,105.14850123353301,452.410666141314,103.6839183395075C455.98133504141737,102.42507252375732,459.93761770231805,101.16622670800714,463.86651797857274,99.90738089225697C467.58628062922514,98.71554416464691,471.8146258322018,97.52370743703688,475.32236981583145,96.33187070942682C479.6042079876138,94.87701767037116,480.5217801732334,93.42216463131548,486.77822165309016,91.96731159225982C489.96453636170867,91.22637608568691,494.4837040627517,90.48544057911401,498.234073490349,89.7445050725411C502.12619523378083,88.97556450514195,505.98381071108287,88.20662393774278,509.6899253276077,87.43768337034362C513.6360912337999,86.61893722649016,517.4869880437268,85.80019108263672,521.1457771648663,84.98144493878326C525.1564432184651,84.08395747586951,529.3852412236312,83.18647001295577,532.6016290021252,82.28898255004202C538.3314545858414,80.6901558599109,540.5757001942475,79.09132916977978,544.0574808393837,77.49250247964866C548.4000795600916,75.49838985543843,551.5145796589154,73.5042772312282,555.5133326766426,71.51016460701797C559.1804539224665,69.68143131481688,560.6975109051181,67.85269802261577,566.9691845139013,66.02396473041468C570.1548809445491,65.0950597068157,573.1714958968429,64.16615468321672,578.42503635116,63.237249659617746C581.6895781272326,62.66002953884173,584.3347536440174,62.082809418065715,589.8808881884187,61.505589297289696C593.112859005396,61.169218340114945,596.361728860461,60.832847382940194,601.3367400256774,60.496476425765444C603.7844104807366,60.33098428384363,606.6519509093707,60.16549214192182,609.519491338005,60"></path></g>

</svg>
