<svg class="plot" fill="currentColor" text-anchor="middle" width="640" height="460" viewBox="0 0 640 400" style="font-family: 'RO Sans', sans-serif; font-size: 14px;" xmlns="http://www.w3.org/2000/svg">

<g transform="translate(40,0)" fill="none" text-anchor="end"><g class="tick" opacity="1" transform="translate(0,370.1162572868532)"><line stroke="currentColor" x2="0"></line><line stroke="currentColor" x2="580" stroke-opacity="0.1"></line><text fill="currentColor" x="-9" dy="0.32em">0m</text></g><g class="tick" opacity="1" transform="translate(0,323.1151306027022)"><line stroke="currentColor" x2="0"></line><line stroke="currentColor" x2="580" stroke-opacity="0.1"></line><text fill="currentColor" x="-9" dy="0.32em">2m</text></g><g class="tick" opacity="1" transform="translate(0,276.1140039185511)"><line stroke="currentColor" x2="0"></line><line stroke="currentColor" x2="580" stroke-opacity="0.1"></line><text fill="currentColor" x="-9" dy="0.32em">4m</text></g><g class="tick" opacity="1" transform="translate(0,229.11287723439997)"><line stroke="currentColor" x2="0"></line><line stroke="currentColor" x2="580" stroke-opacity="0.1"></line><text fill="currentColor" x="-9" dy="0.32em">6m</text></g><g class="tick" opacity="1" transform="translate(0,182.1117505502489)"><line stroke="currentColor" x2="0"></line><line stroke="currentColor" x2="580" stroke-opacity="0.1"></line><text fill="currentColor" x="-9" dy="0.32em">8m</text></g><g class="tick" opacity="1" transform="translate(0,135.1106238660978)"><line stroke="currentColor" x2="0"></line><line stroke="currentColor" x2="580" stroke-opacity="0.1"></line><text fill="currentColor" x="-9" dy="0.32em">10m</text></g><g class="tick" opacity="1" transform="translate(0,88.10949718194674)"><line stroke="currentColor" x2="0"></line><line stroke="currentColor" x2="580" stroke-opacity="0.1"></line><text fill="currentColor" x="-9" dy="0.32em">12m</text></g><g class="tick" opacity="1" transform="translate(0,41.10837049779563)"><line stroke="currentColor" x2="0"></line><line stroke="currentColor" x2="580" stroke-opacity="0.1"></line><text fill="currentColor" x="-9" dy="0.32em">14m</text></g><g class="tick" opacity="1" transform="translate(0,-5.892756186355459)"><line stroke="currentColor" x2="0"></line><line stroke="currentColor" x2="580" stroke-opacity="0.1"></line><text fill="currentColor" x="-9" dy="0.32em">16m</text></g><text fill="currentColor" transform="translate(10,20)" dy="-1em" text-anchor="start">↑ Aantal downloads CoronaCheck (miljoen)</text></g><g transform="translate(0,370)" fill="none" text-anchor="middle"><g class="tick" opacity="1" transform="translate(106.48984754898379,0)"><line stroke="currentColor" y2="6"></line><text fill="currentColor" y="9" dy="0.71em">mei 2021</text></g><g class="tick" opacity="1" transform="translate(225.78045638686646,0)"><line stroke="currentColor" y2="6"></line><text fill="currentColor" y="9" dy="0.71em">jul. 2021</text></g><g class="tick" opacity="1" transform="translate(347.02664897618985,0)"><line stroke="currentColor" y2="6"></line><text fill="currentColor" y="9" dy="0.71em">sep. 2021</text></g><g class="tick" opacity="1" transform="translate(466.3172578140725,0)"><line stroke="currentColor" y2="6"></line><text fill="currentColor" y="9" dy="0.71em">nov. 2021</text></g><g class="tick" opacity="1" transform="translate(585.6078666519552,0)"><line stroke="currentColor" y2="6"></line><text fill="currentColor" y="9" dy="0.71em">jan. 2022</text></g><text fill="currentColor" transform="translate(640,-10)" dy="-0.32em" text-anchor="end">Weeknummer →</text></g><g fill="none" stroke="#ec025f" stroke-width="3" stroke-miterlimit="1"><path d="M40,370C46.749133717356315,369.9956837298662,53.49826743471263,369.9913674597323,53.68908626008489,369.9870511895985C62.81514376680816,369.78062224120174,63.52215032889757,369.5741932928049,67.3781725201698,369.36776434440816C74.07133854365898,369.0094512551315,76.3718509249625,368.65113816585495,81.06725878025469,368.2928250765783C85.51168234997873,367.9536649464255,85.63028753361633,367.6145048162726,94.7563450403396,367.27534468611975C97.88541755713793,367.159056065182,103.8662495338783,367.04276744424436,108.4454313004245,366.92647882330664C112.99253257497206,366.8110048885648,116.67430644126794,366.6955309538229,122.13451756050938,366.5800570190811C126.20013571699667,366.49407629133356,134.1557281825543,366.4080955635861,135.8236038205943,366.32211483583853C144.94966132731756,365.8516570582935,141.76546819465656,365.3811992807485,149.5126900806792,364.91074150320344C153.31051480629597,364.6801148080854,160.93084872456447,364.44948811296746,163.20177634076407,364.21886141784944C172.32783384748737,363.2920540342858,172.7471596127112,362.3652466507221,176.890862600849,361.43843926715846C182.12224690887223,360.2683540518776,187.3998186749022,359.09826883659684,190.57994886093388,357.928183621316C199.70600636765712,354.5703761298736,202.4053220305809,351.2125686384311,204.26903512101876,347.85476114698866C213.39509262774203,331.412560670621,212.36763307042077,314.97036019425343,217.95812138110367,298.5281597178858C221.98741763431647,286.6775854760252,225.34548245419273,274.8270112341645,231.64720764118857,262.9764369923039C235.54503854975746,255.64645461548824,240.50677639775165,248.31647223867262,245.33629390127345,240.98648986185697C249.683411911927,234.3886675359637,253.80695801507363,227.79084521007042,259.0253801613584,221.19302288417714C263.1741575827596,215.94758747693027,267.9714459331332,210.70215206968342,272.71446642144326,205.45671666243655C277.12206122387465,200.58223764754436,281.74490358941154,195.70775863265217,286.40355268152814,190.83327961775998C290.87835905364227,186.15116054734378,295.21981759742107,181.4690414769276,300.092638941613,176.7869224065114C304.41222622738985,172.63638607889294,308.1943785156664,168.48584975127451,313.781725201698,164.33531342365606C317.81183875928787,161.3415609924668,322.2935854697914,158.3478085612776,327.4708114617829,155.35405613008834C331.63625047071474,152.9453737238634,336.5316939926769,150.5366913176385,341.15989772186776,148.1280089114136C345.6612745442207,145.78533175409547,350.3165937200969,143.44265459677734,354.84898398195264,141.09997743945922C359.44349686779225,138.72519067909468,364.84897192500216,136.35040391873014,368.5380702420375,133.9756171583656C377.66412774876085,128.10089149946575,377.7655908641579,122.22616584056588,382.2271565021225,116.35144018166604C386.9015598103009,110.19646247139083,390.1530194025382,104.04148476111564,395.91624276220733,97.88650705084044C399.90450836814364,93.62713961438483,403.06617225755616,89.36777217792924,409.60532902229227,85.10840474147363C413.4759841314202,82.58720163796686,418.27255473165815,80.06599853446009,423.29441528237714,77.54479543095331C427.530904076988,75.4178847791999,432.37933905583,73.29097412744646,436.983501542462,71.16406347569304C441.50682826160596,69.07449521909015,445.5655142827124,66.98492696248728,450.6725878025469,64.89535870588439C454.86839982272045,63.178634720224665,460.35108038986345,61.46191073456494,464.3616740626319,59.74518674890521C470.02706242797643,57.32013228355198,472.695348507332,54.89507781819875,478.0507603227167,52.470023352845516C482.1496205781439,50.613964527130605,486.20710673322344,48.7579057014157,491.73984658280165,46.90184687570079C495.78461384590224,45.544955682413814,500.88997509227335,44.18806448912684,505.4289328428865,42.83117329583986C510.0165514824643,41.45973525384414,513.988648833989,40.088297211848406,519.1180191029714,38.71685916985268C523.3038908840542,37.5976840082919,528.0007466470221,36.47850884673112,532.8071053630563,35.359333685170334C537.1696656316773,34.34349833414578,541.8244623435469,33.327662983121215,546.4961916231412,32.31182763209666C550.9599810717555,31.34120736494225,554.9014579425865,30.37058709778784,560.185277883226,29.39996683063343C564.3092297096059,28.6424105042594,569.3631420441052,27.88485417788537,573.874364143311,27.127297851511337C578.4916645931388,26.351928098124006,583.1536298240072,25.57655834473667,587.563450403396,24.80118859134934C592.3034918346092,23.967756779464864,596.4835732555845,23.13432496758039,601.2525366634808,22.300893155695913C605.641168146194,21.53392877046394,610.2913955348799,20.766964385231972,614.9416229235658,20"></path></g>

</svg>
