<svg class="plot" fill="currentColor" text-anchor="middle" width="640" height="460" viewBox="0 0 640 400" style="font-family: 'RO Sans', sans-serif; font-size: 14px;" xmlns="http://www.w3.org/2000/svg">

<style>
        line[stroke-opacity] {
            stroke-opacity: 1;
            stroke: #949494;
        }
</style>

<!-- replace the below code -->

<g transform="translate(40,0)" fill="none" text-anchor="end"><g class="tick" opacity="1" transform="translate(0,320.5)"><line stroke="currentColor" x2="-6"></line><line stroke="currentColor" x2="580" stroke-opacity="0.1"></line><text fill="currentColor" x="-9" dy="0.32em">0M</text></g><g class="tick" opacity="1" transform="translate(0,289.3888888888889)"><line stroke="currentColor" x2="-6"></line><line stroke="currentColor" x2="580" stroke-opacity="0.1"></line><text fill="currentColor" x="-9" dy="0.32em">2M</text></g><g class="tick" opacity="1" transform="translate(0,258.27777777777777)"><line stroke="currentColor" x2="-6"></line><line stroke="currentColor" x2="580" stroke-opacity="0.1"></line><text fill="currentColor" x="-9" dy="0.32em">4M</text></g><g class="tick" opacity="1" transform="translate(0,227.1666666666667)"><line stroke="currentColor" x2="-6"></line><line stroke="currentColor" x2="580" stroke-opacity="0.1"></line><text fill="currentColor" x="-9" dy="0.32em">6M</text></g><g class="tick" opacity="1" transform="translate(0,196.05555555555554)"><line stroke="currentColor" x2="-6"></line><line stroke="currentColor" x2="580" stroke-opacity="0.1"></line><text fill="currentColor" x="-9" dy="0.32em">8M</text></g><g class="tick" opacity="1" transform="translate(0,164.94444444444446)"><line stroke="currentColor" x2="-6"></line><line stroke="currentColor" x2="580" stroke-opacity="0.1"></line><text fill="currentColor" x="-9" dy="0.32em">10M</text></g><g class="tick" opacity="1" transform="translate(0,133.83333333333334)"><line stroke="currentColor" x2="-6"></line><line stroke="currentColor" x2="580" stroke-opacity="0.1"></line><text fill="currentColor" x="-9" dy="0.32em">12M</text></g><g class="tick" opacity="1" transform="translate(0,102.72222222222223)"><line stroke="currentColor" x2="-6"></line><line stroke="currentColor" x2="580" stroke-opacity="0.1"></line><text fill="currentColor" x="-9" dy="0.32em">14M</text></g><g class="tick" opacity="1" transform="translate(0,71.61111111111113)"><line stroke="currentColor" x2="-6"></line><line stroke="currentColor" x2="580" stroke-opacity="0.1"></line><text fill="currentColor" x="-9" dy="0.32em">16M</text></g><g class="tick" opacity="1" transform="translate(0,40.5)"><line stroke="currentColor" x2="-6"></line><line stroke="currentColor" x2="580" stroke-opacity="0.1"></line><text fill="currentColor" x="-9" dy="0.32em">18M</text></g><text fill="currentColor" transform="translate(20,40)" dy="-1em" text-anchor="start">↑ Aantal downloads CoronaCheck (miljoen)</text></g><g transform="translate(0,320)" fill="none" text-anchor="middle"><g class="tick" opacity="1" transform="translate(44.50690846286702,0)"><line stroke="currentColor" y2="6"></line><text fill="currentColor" dy="0.32em" transform="translate(0, 11.82842712474619) rotate(-45)" text-anchor="end">apr. 2021</text></g><g class="tick" opacity="1" transform="translate(74.5587219343696,0)"><line stroke="currentColor" y2="6"></line><text fill="currentColor" dy="0.32em" transform="translate(0, 11.82842712474619) rotate(-45)" text-anchor="end">mei 2021</text></g><g class="tick" opacity="1" transform="translate(105.61226252158896,0)"><line stroke="currentColor" y2="6"></line><text fill="currentColor" dy="0.32em" transform="translate(0, 11.82842712474619) rotate(-45)" text-anchor="end">jun. 2021</text></g><g class="tick" opacity="1" transform="translate(135.66407599309156,0)"><line stroke="currentColor" y2="6"></line><text fill="currentColor" dy="0.32em" transform="translate(0, 11.82842712474619) rotate(-45)" text-anchor="end">jul. 2021</text></g><g class="tick" opacity="1" transform="translate(166.71761658031087,0)"><line stroke="currentColor" y2="6"></line><text fill="currentColor" dy="0.32em" transform="translate(0, 11.82842712474619) rotate(-45)" text-anchor="end">aug. 2021</text></g><g class="tick" opacity="1" transform="translate(197.77115716753022,0)"><line stroke="currentColor" y2="6"></line><text fill="currentColor" dy="0.32em" transform="translate(0, 11.82842712474619) rotate(-45)" text-anchor="end">sep. 2021</text></g><g class="tick" opacity="1" transform="translate(227.8229706390328,0)"><line stroke="currentColor" y2="6"></line><text fill="currentColor" dy="0.32em" transform="translate(0, 11.82842712474619) rotate(-45)" text-anchor="end">okt. 2021</text></g><g class="tick" opacity="1" transform="translate(258.87651122625215,0)"><line stroke="currentColor" y2="6"></line><text fill="currentColor" dy="0.32em" transform="translate(0, 11.82842712474619) rotate(-45)" text-anchor="end">nov. 2021</text></g><g class="tick" opacity="1" transform="translate(288.92832469775476,0)"><line stroke="currentColor" y2="6"></line><text fill="currentColor" dy="0.32em" transform="translate(0, 11.82842712474619) rotate(-45)" text-anchor="end">dec. 2021</text></g><g class="tick" opacity="1" transform="translate(319.9818652849741,0)"><line stroke="currentColor" y2="6"></line><text fill="currentColor" dy="0.32em" transform="translate(0, 11.82842712474619) rotate(-45)" text-anchor="end">jan. 2022</text></g><g class="tick" opacity="1" transform="translate(351.03540587219345,0)"><line stroke="currentColor" y2="6"></line><text fill="currentColor" dy="0.32em" transform="translate(0, 11.82842712474619) rotate(-45)" text-anchor="end">feb. 2022</text></g><g class="tick" opacity="1" transform="translate(379.08376511226254,0)"><line stroke="currentColor" y2="6"></line><text fill="currentColor" dy="0.32em" transform="translate(0, 11.82842712474619) rotate(-45)" text-anchor="end">mrt. 2022</text></g><g class="tick" opacity="1" transform="translate(410.1373056994819,0)"><line stroke="currentColor" y2="6"></line><text fill="currentColor" dy="0.32em" transform="translate(0, 11.82842712474619) rotate(-45)" text-anchor="end">apr. 2022</text></g><g class="tick" opacity="1" transform="translate(440.18911917098444,0)"><line stroke="currentColor" y2="6"></line><text fill="currentColor" dy="0.32em" transform="translate(0, 11.82842712474619) rotate(-45)" text-anchor="end">mei 2022</text></g><g class="tick" opacity="1" transform="translate(471.24265975820384,0)"><line stroke="currentColor" y2="6"></line><text fill="currentColor" dy="0.32em" transform="translate(0, 11.82842712474619) rotate(-45)" text-anchor="end">jun. 2022</text></g><g class="tick" opacity="1" transform="translate(501.2944732297064,0)"><line stroke="currentColor" y2="6"></line><text fill="currentColor" dy="0.32em" transform="translate(0, 11.82842712474619) rotate(-45)" text-anchor="end">jul. 2022</text></g><g class="tick" opacity="1" transform="translate(532.3480138169258,0)"><line stroke="currentColor" y2="6"></line><text fill="currentColor" dy="0.32em" transform="translate(0, 11.82842712474619) rotate(-45)" text-anchor="end">aug. 2022</text></g><g class="tick" opacity="1" transform="translate(563.4015544041451,0)"><line stroke="currentColor" y2="6"></line><text fill="currentColor" dy="0.32em" transform="translate(0, 11.82842712474619) rotate(-45)" text-anchor="end">sep. 2022</text></g><g class="tick" opacity="1" transform="translate(593.4533678756476,0)"><line stroke="currentColor" y2="6"></line><text fill="currentColor" dy="0.32em" transform="translate(0, 11.82842712474619) rotate(-45)" text-anchor="end">okt. 2022</text></g><text fill="currentColor" transform="translate(640,80)" dy="-0.32em" text-anchor="end">Maand →</text></g><g fill="none" stroke="#ec025f" stroke-width="3" stroke-miterlimit="1" transform="translate(0.5,0.5)"><path d="M40,319.92304666666666L47.01208981001727,319.91447555555555L54.024179620034545,319.50455555555556L61.03626943005182,318.7930288888889L68.04835924006909,318.11953555555556L75.06044905008636,317.88861333333335L82.07253886010362,317.65930888888886L89.08462867012089,317.4885711111111L96.09671848013818,316.55435111111115L103.10880829015544,316.09638L110.12089810017272,314.25595555555554L117.13298791018998,311.93243777777775L124.14507772020724,305.2646111111111L131.1571675302245,272.6142155555556L138.16925734024178,249.08172444444446L145.18134715025906,234.52607999999998L152.19343696027636,221.42433555555556L159.2055267702936,211.00811777777778L166.21761658031087,201.32853333333335L173.22970639032815,192.0309311111111L180.24179620034545,183.7889288888889L187.2538860103627,177.84403111111112L194.26597582037996,173.06094666666667L201.27806563039726,168.40893333333335L208.29015544041448,163.69315777777777L215.30224525043175,152.02731555555553L222.31433506044905,139.8049577777778L229.32642487046633,131.3468422222222L236.33851468048357,126.34031777777778L243.35060449050087,122.11676666666668L250.36269430051814,117.9673688888889L257.3747841105354,114.55835333333334L264.3868739205527,109.74275777777777L271.3989637305699,106.05705555555556L278.4110535405872,103.36258444444444L285.42314335060445,100.6392266666667L292.43523316062175,98.41680444444445L299.44732297063905,96.39959111111112L306.4594127806563,94.47216444444446L313.4715025906736,92.96783333333332L320.4835924006909,91.42812888888888L327.4956822107081,89.77312666666666L334.5077720207254,88.24605333333335L341.5198618307427,86.38522L348.5319516407599,83.77443777777779L355.54404145077723,81.38480888888887L355.54404145077723,81.38480888888887L362.55613126079453,79.3676888888889L369.5682210708117,77.92660666666664L376.58031088082896,76.6880733333333L383.59240069084626,75.7141088888889L388.6010362694301,75.2123488888889L395.61312607944734,74.38812222222222L402.6252158894646,73.4780911111111L407.6338514680483,72.85817111111112L420.6563039723662,71.41669999999999L423.6614853195164,71.20988888888887L430.6735751295337,70.28640222222222L437.685664939551,69.54180444444445L444.69775474956816,68.80994666666666L451.70984455958546,68.13317111111112L458.72193436960276,67.49030666666664L465.73402417962,66.7732422222222L472.7461139896373,66.02421111111113L479.7582037996546,65.40009111111112L486.77029360967185,64.80521555555555L493.7823834196891,64.18269777777775L500.7944732297064,63.50914222222223L507.80656303972364,62.836628888888896L514.8186528497409,62.15705333333334L521.8307426597582,61.495677777777814L528.8428324697754,60.68593333333332L535.8549222797928,60.10045333333336L542.86701208981,59.57980888888889L549.8791018998273,59.056691111111085L556.8911917098445,58.49972444444441L563.9032815198618,57.95173333333331L570.9153713298791,57.465637777777786L577.9274611398963,56.9740511111111L584.9395509499136,56.50137999999999L591.9516407599309,55.99621333333331L598.9637305699482,55.47051333333335L605.9758203799654,54.95904666666662L612.9879101899828,54.4545022222222L620,53.92380888888893"></path></g><g stroke="currentColor" transform="translate(0,0.5)"><line x1="40" x2="620" y1="320" y2="320"></line></g>

</svg>
