<svg class="plot" fill="currentColor" text-anchor="middle" width="640" height="400" viewBox="0 0 640 400" style="font-family: 'RO Sans', sans-serif; font-size: 14px;" xmlns="http://www.w3.org/2000/svg"><g transform="translate(40,0)" fill="none" text-anchor="end"><g class="tick" opacity="1" transform="translate(0,370.0321704900231)"><line stroke="currentColor" x2="0"></line><line stroke="currentColor" x2="580" stroke-opacity="0.1"></line><text fill="currentColor" x="-9" dy="0.32em">0m</text></g><g class="tick" opacity="1" transform="translate(0,302.16193837382923)"><line stroke="currentColor" x2="0"></line><line stroke="currentColor" x2="580" stroke-opacity="0.1"></line><text fill="currentColor" x="-9" dy="0.32em">0.5m</text></g><g class="tick" opacity="1" transform="translate(0,234.2917062576354)"><line stroke="currentColor" x2="0"></line><line stroke="currentColor" x2="580" stroke-opacity="0.1"></line><text fill="currentColor" x="-9" dy="0.32em">1m</text></g><g class="tick" opacity="1" transform="translate(0,166.4214741414416)"><line stroke="currentColor" x2="0"></line><line stroke="currentColor" x2="580" stroke-opacity="0.1"></line><text fill="currentColor" x="-9" dy="0.32em">1.5m</text></g><g class="tick" opacity="1" transform="translate(0,98.55124202524777)"><line stroke="currentColor" x2="0"></line><line stroke="currentColor" x2="580" stroke-opacity="0.1"></line><text fill="currentColor" x="-9" dy="0.32em">2m</text></g><g class="tick" opacity="1" transform="translate(0,30.68100990905388)"><line stroke="currentColor" x2="0"></line><line stroke="currentColor" x2="580" stroke-opacity="0.1"></line><text fill="currentColor" x="-9" dy="0.32em">2.5m</text></g><g class="tick" opacity="1" transform="translate(0,-37.189222207139935)"><line stroke="currentColor" x2="0"></line><line stroke="currentColor" x2="580" stroke-opacity="0.1"></line><text fill="currentColor" x="-9" dy="0.32em">3m</text></g><text fill="currentColor" transform="translate(10,20)" dy="-1em" text-anchor="start">↑ Aantal downloads CoronaCheck Scanner (miljoen)</text></g><g transform="translate(0,370)" fill="none" text-anchor="middle"><g class="tick" opacity="1" transform="translate(50,0)"><line stroke="currentColor" y2="0"></line><text fill="currentColor" y="9" dy="0.71em">12</text></g><g class="tick" opacity="1" transform="translate(82,0)"><line stroke="currentColor" y2="0"></line><text fill="currentColor" y="9" dy="0.71em">14</text></g><g class="tick" opacity="1" transform="translate(114,0)"><line stroke="currentColor" y2="0"></line><text fill="currentColor" y="9" dy="0.71em">16</text></g><g class="tick" opacity="1" transform="translate(146,0)"><line stroke="currentColor" y2="0"></line><text fill="currentColor" y="9" dy="0.71em">18</text></g><g class="tick" opacity="1" transform="translate(178,0)"><line stroke="currentColor" y2="0"></line><text fill="currentColor" y="9" dy="0.71em">20</text></g><g class="tick" opacity="1" transform="translate(210,0)"><line stroke="currentColor" y2="0"></line><text fill="currentColor" y="9" dy="0.71em">22</text></g><g class="tick" opacity="1" transform="translate(242,0)"><line stroke="currentColor" y2="0"></line><text fill="currentColor" y="9" dy="0.71em">24</text></g><g class="tick" opacity="1" transform="translate(274,0)"><line stroke="currentColor" y2="0"></line><text fill="currentColor" y="9" dy="0.71em">26</text></g><g class="tick" opacity="1" transform="translate(306,0)"><line stroke="currentColor" y2="0"></line><text fill="currentColor" y="9" dy="0.71em">28</text></g><g class="tick" opacity="1" transform="translate(338,0)"><line stroke="currentColor" y2="0"></line><text fill="currentColor" y="9" dy="0.71em">30</text></g><g class="tick" opacity="1" transform="translate(370,0)"><line stroke="currentColor" y2="0"></line><text fill="currentColor" y="9" dy="0.71em">32</text></g><g class="tick" opacity="1" transform="translate(402,0)"><line stroke="currentColor" y2="0"></line><text fill="currentColor" y="9" dy="0.71em">34</text></g><g class="tick" opacity="1" transform="translate(434,0)"><line stroke="currentColor" y2="0"></line><text fill="currentColor" y="9" dy="0.71em">36</text></g><g class="tick" opacity="1" transform="translate(466,0)"><line stroke="currentColor" y2="0"></line><text fill="currentColor" y="9" dy="0.71em">38</text></g><g class="tick" opacity="1" transform="translate(498,0)"><line stroke="currentColor" y2="0"></line><text fill="currentColor" y="9" dy="0.71em">40</text></g><g class="tick" opacity="1" transform="translate(530,0)"><line stroke="currentColor" y2="0"></line><text fill="currentColor" y="9" dy="0.71em">42</text></g><g class="tick" opacity="1" transform="translate(562,0)"><line stroke="currentColor" y2="0"></line><text fill="currentColor" y="9" dy="0.71em">44</text></g><g class="tick" opacity="1" transform="translate(594,0)"><line stroke="currentColor" y2="0"></line><text fill="currentColor" y="9" dy="0.71em">46</text></g><text fill="currentColor" transform="translate(640,-10)" dy="-0.32em" text-anchor="end">Weeknummer →</text></g><g fill="none" stroke="#ec025f" stroke-width="3" stroke-miterlimit="1"><path d="M50,370C57.68725306716568,369.99574679878737,65.37450613433136,369.9914935975748,66,369.98724039636215C76.66666666666667,369.91470974164065,76.93695796374861,369.84217908691915,82,369.76964843219764C87.67262850724035,369.68838514094386,92.55970347949308,369.6071218496901,98,369.5258585584363C103.23431647407617,369.4476720510384,105.77095707465264,369.36948554364056,114,369.29129903624266C118.47644696170424,369.2487670241165,124.77324263038311,369.2062350119904,130,369.1637029998642C135.44917257682934,369.11936111488166,139.81936372224644,369.0750192298991,146,369.03067734491657C150.81837358796932,368.9961087733587,160.50085847436762,368.96154020180086,162,368.926971630243C172.66666666666666,368.6810099090539,170.76800158590308,368.4350481878648,178,368.18908646667575C182.57387979169755,368.03352789466544,190.2912621359221,367.8779693226551,194,367.72241075064477C204.66666666666666,367.2750101805348,203.41194099046123,366.8276096104249,210,366.3802090403149C214.69585759498668,366.0613094430116,222.2162833224287,365.7424098457084,226,365.4235102484051C236.66666666666666,364.52450115379395,240.9836519971035,363.6254920591829,242,362.72648296457174C252.66666666666666,353.2912990362427,250.90443134580073,343.85611510791364,258,334.4209311795846C262.5944748735876,328.31152436541333,267.31958060707626,322.202117551242,274,316.0927107370707C278.6739286321699,311.8182887652142,283.0141708466398,307.5438667933578,290,303.2694448215013C294.6128257603812,300.4469933487173,299.66102782650876,297.62454187593323,306,294.80209040314924C310.76507709625326,292.6804217003756,316.2354456149805,290.5587529976019,322,288.43708429482825C327.0078882392815,286.59390977783806,332.4361799390559,284.75073526084793,338,282.90756074385774C343.1368635234708,281.2058277905977,348.8692178939611,279.50409483733773,354,277.8023618840777C359.5722394550191,275.95421021673235,363.90206365228215,274.10605854938694,370,272.2579068820416C374.8497150823977,270.7880638885119,380.2900425884939,269.3182208949821,386,267.8483779014524C391.0399140791168,266.5510157911407,396.8097495125343,265.2536536808289,402,263.9562915705172C407.4936320595716,262.58309578752096,412.826493046171,261.2099000045247,418,259.83670422152846C423.51495261689934,258.37287905524636,431.42665602791925,256.9090538889643,434,255.44522872268223C444.6666666666667,249.3775847246731,445.50334550576105,243.30994072666397,450,237.24229672865485C457.9458746185885,226.5203836930456,459.76867514726575,215.79847065743633,466,205.07655762182708C470.8004066080081,196.81675037328628,473.7840048755603,188.5569431247455,482,180.2971358762047C486.4772785263175,175.79598208225875,492.61270824985564,171.29482828831277,498,166.79367449436683C503.2814738160895,162.38093298945753,508.0815792112435,157.96819148454824,514,153.55544997963895C518.9277288770976,149.8813628342609,525.1497716379823,146.20727568888287,530,142.53318854350482C536.0966380765559,137.9149359757477,542.4263781664129,133.2966834079906,546,128.6784308402335C556.6666666666666,114.89371521650607,555.2548400891484,101.10899959277863,562,87.32428396905121C566.6595926701526,77.80172842857792,570.4381731175378,68.27917288810461,578,58.75661734763132C582.532647953746,53.048685579838,587.1675853157965,47.34075381204469,594,41.63282204425137C598.6415098256974,37.75521469616758,604.3207549128487,33.87760734808379,610,30"></path></g></svg>
