<svg class="plot" fill="currentColor" text-anchor="middle" width="640" height="460" viewBox="0 0 640 400" style="font-family: 'RO Sans', sans-serif; font-size: 14px;" xmlns="http://www.w3.org/2000/svg">

<g transform="translate(40,0)" fill="none" text-anchor="end"><g class="tick" opacity="1" transform="translate(0,370.0299024108216)"><line stroke="currentColor" x2="0"></line><line stroke="currentColor" x2="580" stroke-opacity="0.1"></line><text fill="currentColor" x="-9" dy="0.32em">0m</text></g><g class="tick" opacity="1" transform="translate(0,306.9446475129937)"><line stroke="currentColor" x2="0"></line><line stroke="currentColor" x2="580" stroke-opacity="0.1"></line><text fill="currentColor" x="-9" dy="0.32em">0.5m</text></g><g class="tick" opacity="1" transform="translate(0,243.85939261516586)"><line stroke="currentColor" x2="0"></line><line stroke="currentColor" x2="580" stroke-opacity="0.1"></line><text fill="currentColor" x="-9" dy="0.32em">1m</text></g><g class="tick" opacity="1" transform="translate(0,180.774137717338)"><line stroke="currentColor" x2="0"></line><line stroke="currentColor" x2="580" stroke-opacity="0.1"></line><text fill="currentColor" x="-9" dy="0.32em">1.5m</text></g><g class="tick" opacity="1" transform="translate(0,117.68888281951014)"><line stroke="currentColor" x2="0"></line><line stroke="currentColor" x2="580" stroke-opacity="0.1"></line><text fill="currentColor" x="-9" dy="0.32em">2m</text></g><g class="tick" opacity="1" transform="translate(0,54.603627921682246)"><line stroke="currentColor" x2="0"></line><line stroke="currentColor" x2="580" stroke-opacity="0.1"></line><text fill="currentColor" x="-9" dy="0.32em">2.5m</text></g><g class="tick" opacity="1" transform="translate(0,-8.481626976145606)"><line stroke="currentColor" x2="0"></line><line stroke="currentColor" x2="580" stroke-opacity="0.1"></line><text fill="currentColor" x="-9" dy="0.32em">3m</text></g><text fill="currentColor" transform="translate(10,20)" dy="-1em" text-anchor="start">↑ Number of downloads CoronaCheck Scanner (million) </text></g><g transform="translate(0,370)" fill="none" text-anchor="middle"><g class="tick" opacity="1" transform="translate(57,0)"><line stroke="currentColor" y2="0"></line><text fill="currentColor" y="9" dy="0.71em">12</text></g><g class="tick" opacity="1" transform="translate(85,0)"><line stroke="currentColor" y2="0"></line><text fill="currentColor" y="9" dy="0.71em">14</text></g><g class="tick" opacity="1" transform="translate(113,0)"><line stroke="currentColor" y2="0"></line><text fill="currentColor" y="9" dy="0.71em">16</text></g><g class="tick" opacity="1" transform="translate(141,0)"><line stroke="currentColor" y2="0"></line><text fill="currentColor" y="9" dy="0.71em">18</text></g><g class="tick" opacity="1" transform="translate(169,0)"><line stroke="currentColor" y2="0"></line><text fill="currentColor" y="9" dy="0.71em">20</text></g><g class="tick" opacity="1" transform="translate(197,0)"><line stroke="currentColor" y2="0"></line><text fill="currentColor" y="9" dy="0.71em">22</text></g><g class="tick" opacity="1" transform="translate(225,0)"><line stroke="currentColor" y2="0"></line><text fill="currentColor" y="9" dy="0.71em">24</text></g><g class="tick" opacity="1" transform="translate(253,0)"><line stroke="currentColor" y2="0"></line><text fill="currentColor" y="9" dy="0.71em">26</text></g><g class="tick" opacity="1" transform="translate(281,0)"><line stroke="currentColor" y2="0"></line><text fill="currentColor" y="9" dy="0.71em">28</text></g><g class="tick" opacity="1" transform="translate(309,0)"><line stroke="currentColor" y2="0"></line><text fill="currentColor" y="9" dy="0.71em">30</text></g><g class="tick" opacity="1" transform="translate(337,0)"><line stroke="currentColor" y2="0"></line><text fill="currentColor" y="9" dy="0.71em">32</text></g><g class="tick" opacity="1" transform="translate(365,0)"><line stroke="currentColor" y2="0"></line><text fill="currentColor" y="9" dy="0.71em">34</text></g><g class="tick" opacity="1" transform="translate(393,0)"><line stroke="currentColor" y2="0"></line><text fill="currentColor" y="9" dy="0.71em">36</text></g><g class="tick" opacity="1" transform="translate(421,0)"><line stroke="currentColor" y2="0"></line><text fill="currentColor" y="9" dy="0.71em">38</text></g><g class="tick" opacity="1" transform="translate(449,0)"><line stroke="currentColor" y2="0"></line><text fill="currentColor" y="9" dy="0.71em">40</text></g><g class="tick" opacity="1" transform="translate(477,0)"><line stroke="currentColor" y2="0"></line><text fill="currentColor" y="9" dy="0.71em">42</text></g><g class="tick" opacity="1" transform="translate(505,0)"><line stroke="currentColor" y2="0"></line><text fill="currentColor" y="9" dy="0.71em">44</text></g><g class="tick" opacity="1" transform="translate(533,0)"><line stroke="currentColor" y2="0"></line><text fill="currentColor" y="9" dy="0.71em">46</text></g><g class="tick" opacity="1" transform="translate(561,0)"><line stroke="currentColor" y2="0"></line><text fill="currentColor" y="9" dy="0.71em">48</text></g><g class="tick" opacity="1" transform="translate(589,0)"><line stroke="currentColor" y2="0"></line><text fill="currentColor" y="9" dy="0.71em">50</text></g><g class="tick" opacity="1" transform="translate(NaN,0)"><line stroke="currentColor" y2="0"></line><text fill="currentColor" y="9" dy="0.71em">52</text></g><text fill="currentColor" transform="translate(640,-10)" dy="-0.32em" text-anchor="end">Week number →</text></g><g fill="none" stroke="#ec025f" stroke-width="3" stroke-miterlimit="1"><path d="M57,370C63.72634643376938,369.9960466573597,70.45269286753876,369.99209331471945,71,369.9881399720792C80.33333333333333,369.9207228630117,80.56983821828062,369.85330575394426,85,369.78588864487676C89.96354994383624,369.71035456634576,94.23974054455437,369.63482048781475,99,369.55928640928374C103.58002691481487,369.48661219564144,105.79958744032577,369.4139379819992,113,369.3412637683569C116.91689109149151,369.3017303419542,122.42658730158652,369.2621969155516,127,369.22266348914894C131.7680260047272,369.18144778928234,135.59194325695879,369.1402320894158,141,369.0990163895492C145.21607688947066,369.06688496638793,153.68825116507315,369.03475354322666,155,369.0026221200654C164.33333333333334,368.77400115631565,162.67200138766452,368.5453801925659,169,368.3167592288162C173.00214481773526,368.17216782459036,179.7548543689321,368.02757642036454,183,367.8829850161387C192.33333333333334,367.4671270158522,191.23544836665369,367.05126901556577,197,366.63541101527926C201.10887539561335,366.33899443093264,207.68924790712492,366.0425778465861,211,365.74616126223947C220.33333333333334,364.91053397586285,224.11069549746557,364.0749066894862,225,363.2392794031096C234.33333333333334,354.46929343772337,232.79137742757564,345.6993074723371,239,336.9293215069509C243.02016551438913,331.25063920206804,247.15463303119174,325.57195689718515,253,319.8932745923023C257.0896875531487,315.9202072956737,260.88739949080986,311.9471399990451,267,307.9740727024165C271.0362225403336,305.3506092922354,275.4533993481951,302.72714588205434,281,300.10368247187324C285.1694424592216,298.13159534693057,289.956014913108,296.15950822198783,295,294.18742109704516C299.3819022093714,292.47419380136654,304.13165744667396,290.760966505688,309,289.04773921000935C313.494755583037,287.4659815855378,318.5105656572159,285.88422396106625,323,284.3024663365947C327.8757095231416,282.58461278889024,331.6643056957468,280.86675924118583,337,279.14890569348137C341.243500697098,277.7826893565774,346.00378726493227,276.41647301967345,351,275.0502566827695C355.40992481922723,273.8443610069792,360.4585308234675,272.6384653311889,365,271.43256965539865C369.80692805212516,270.1561867214692,374.4731814153996,268.87980378753974,379,267.6034208536103C383.8255835397869,266.24279807597395,390.74832402442934,264.8821752983376,393,263.5215525207012C402.3333333333333,257.8816886759988,403.0654273175409,252.2418248312964,407,246.601960986594C413.9526402912649,236.63596270201816,415.54759075385755,226.66996441744232,421,216.70396613286647C425.2003557820071,209.02649061180082,427.8110042661153,201.34901509073515,435,193.6715395696695C438.9176187105278,189.48772546484557,444.2861197186237,185.30391136002166,449,181.12009725519772C453.6212895890783,177.01846220908732,457.82138180983804,172.91682716297694,463,168.81519211686654C467.3117627674603,165.40013492822754,472.75605018323455,161.98507773958852,477,158.57002055094952C482.3345583169865,154.27736335300852,487.8730808956112,149.98470615506753,491,145.69204895712653C500.3333333333333,132.87918134635808,499.0979850780048,120.06631373558965,505,107.2534461248212C509.07714358638356,98.40224840796316,512.3834014778455,89.55105069110512,519,80.69985297424708C522.9660669595278,75.39434098050316,527.0216371513219,70.08882898675924,533,64.78331699301532C537.0613210974852,61.17908815335601,540.4429794704054,57.57485931369671,547,53.97063047403741C550.9727438705019,51.7869133473308,555.8958077966811,49.6031962206242,561,47.419479093917595C565.3490277385172,45.55884258596107,570.2210873647044,43.69820607800453,575,41.837569570048004C579.5642769035913,40.06049999641278,584.7129330397012,38.28343042277755,589,36.506360849142325C594.2320601365241,34.337573899428214,598.616030068262,32.16878694971411,603,30"></path></g>

</svg>
