<svg class="plot" fill="currentColor" text-anchor="middle" width="640" height="460" viewBox="0 0 640 400" style="font-family: 'RO Sans', sans-serif; font-size: 14px;" xmlns="http://www.w3.org/2000/svg">

<style>
        line[stroke-opacity] {
            stroke-opacity: 1;
            stroke: #949494;
        }

    @media (prefers-color-scheme: dark) {

        svg { 
            background-color: black;
            color: white;
        }

        line[stroke-opacity] {
            color: white;
        }
    }
</style>

<!-- replace the below code -->

<g transform="translate(40,0)" fill="none" text-anchor="end"><g class="tick" opacity="1" transform="translate(0,320.5)"><line stroke="currentColor" x2="-6"></line><line stroke="currentColor" x2="580" stroke-opacity="0.1"></line><text fill="currentColor" x="-9" dy="0.32em">0M</text></g><g class="tick" opacity="1" transform="translate(0,285.5)"><line stroke="currentColor" x2="-6"></line><line stroke="currentColor" x2="580" stroke-opacity="0.1"></line><text fill="currentColor" x="-9" dy="0.32em">0.5M</text></g><g class="tick" opacity="1" transform="translate(0,250.5)"><line stroke="currentColor" x2="-6"></line><line stroke="currentColor" x2="580" stroke-opacity="0.1"></line><text fill="currentColor" x="-9" dy="0.32em">1M</text></g><g class="tick" opacity="1" transform="translate(0,215.5)"><line stroke="currentColor" x2="-6"></line><line stroke="currentColor" x2="580" stroke-opacity="0.1"></line><text fill="currentColor" x="-9" dy="0.32em">1.5M</text></g><g class="tick" opacity="1" transform="translate(0,180.5)"><line stroke="currentColor" x2="-6"></line><line stroke="currentColor" x2="580" stroke-opacity="0.1"></line><text fill="currentColor" x="-9" dy="0.32em">2M</text></g><g class="tick" opacity="1" transform="translate(0,145.5)"><line stroke="currentColor" x2="-6"></line><line stroke="currentColor" x2="580" stroke-opacity="0.1"></line><text fill="currentColor" x="-9" dy="0.32em">2.5M</text></g><g class="tick" opacity="1" transform="translate(0,110.5)"><line stroke="currentColor" x2="-6"></line><line stroke="currentColor" x2="580" stroke-opacity="0.1"></line><text fill="currentColor" x="-9" dy="0.32em">3M</text></g><g class="tick" opacity="1" transform="translate(0,75.5)"><line stroke="currentColor" x2="-6"></line><line stroke="currentColor" x2="580" stroke-opacity="0.1"></line><text fill="currentColor" x="-9" dy="0.32em">3.5M</text></g><g class="tick" opacity="1" transform="translate(0,40.5)"><line stroke="currentColor" x2="-6"></line><line stroke="currentColor" x2="580" stroke-opacity="0.1"></line><text fill="currentColor" x="-9" dy="0.32em">4M</text></g><text fill="currentColor" transform="translate(20,40)" dy="-1em" text-anchor="start">↑ Aantal downloads CoronaCheck Scanner (miljoen)</text></g><g transform="translate(0,320)" fill="none" text-anchor="middle"><g class="tick" opacity="1" transform="translate(43.635135135135144,0)"><line stroke="currentColor" y2="6"></line><text fill="currentColor" dy="0.32em" transform="translate(0, 11.82842712474619) rotate(-45)" text-anchor="end">apr 2021</text></g><g class="tick" opacity="1" transform="translate(67.14864864864865,0)"><line stroke="currentColor" y2="6"></line><text fill="currentColor" dy="0.32em" transform="translate(0, 11.82842712474619) rotate(-45)" text-anchor="end">mei 2021</text></g><g class="tick" opacity="1" transform="translate(91.44594594594594,0)"><line stroke="currentColor" y2="6"></line><text fill="currentColor" dy="0.32em" transform="translate(0, 11.82842712474619) rotate(-45)" text-anchor="end">jun 2021</text></g><g class="tick" opacity="1" transform="translate(114.95945945945945,0)"><line stroke="currentColor" y2="6"></line><text fill="currentColor" dy="0.32em" transform="translate(0, 11.82842712474619) rotate(-45)" text-anchor="end">jul 2021</text></g><g class="tick" opacity="1" transform="translate(139.25675675675677,0)"><line stroke="currentColor" y2="6"></line><text fill="currentColor" dy="0.32em" transform="translate(0, 11.82842712474619) rotate(-45)" text-anchor="end">aug 2021</text></g><g class="tick" opacity="1" transform="translate(163.55405405405406,0)"><line stroke="currentColor" y2="6"></line><text fill="currentColor" dy="0.32em" transform="translate(0, 11.82842712474619) rotate(-45)" text-anchor="end">sep 2021</text></g><g class="tick" opacity="1" transform="translate(187.06756756756755,0)"><line stroke="currentColor" y2="6"></line><text fill="currentColor" dy="0.32em" transform="translate(0, 11.82842712474619) rotate(-45)" text-anchor="end">okt 2021</text></g><g class="tick" opacity="1" transform="translate(211.36486486486487,0)"><line stroke="currentColor" y2="6"></line><text fill="currentColor" dy="0.32em" transform="translate(0, 11.82842712474619) rotate(-45)" text-anchor="end">nov 2021</text></g><g class="tick" opacity="1" transform="translate(234.8783783783784,0)"><line stroke="currentColor" y2="6"></line><text fill="currentColor" dy="0.32em" transform="translate(0, 11.82842712474619) rotate(-45)" text-anchor="end">dec 2021</text></g><g class="tick" opacity="1" transform="translate(259.1756756756757,0)"><line stroke="currentColor" y2="6"></line><text fill="currentColor" dy="0.32em" transform="translate(0, 11.82842712474619) rotate(-45)" text-anchor="end">jan 2022</text></g><g class="tick" opacity="1" transform="translate(283.47297297297297,0)"><line stroke="currentColor" y2="6"></line><text fill="currentColor" dy="0.32em" transform="translate(0, 11.82842712474619) rotate(-45)" text-anchor="end">feb 2022</text></g><g class="tick" opacity="1" transform="translate(305.4189189189189,0)"><line stroke="currentColor" y2="6"></line><text fill="currentColor" dy="0.32em" transform="translate(0, 11.82842712474619) rotate(-45)" text-anchor="end">mrt 2022</text></g><g class="tick" opacity="1" transform="translate(329.71621621621625,0)"><line stroke="currentColor" y2="6"></line><text fill="currentColor" dy="0.32em" transform="translate(0, 11.82842712474619) rotate(-45)" text-anchor="end">apr 2022</text></g><g class="tick" opacity="1" transform="translate(353.2297297297298,0)"><line stroke="currentColor" y2="6"></line><text fill="currentColor" dy="0.32em" transform="translate(0, 11.82842712474619) rotate(-45)" text-anchor="end">mei 2022</text></g><g class="tick" opacity="1" transform="translate(377.52702702702703,0)"><line stroke="currentColor" y2="6"></line><text fill="currentColor" dy="0.32em" transform="translate(0, 11.82842712474619) rotate(-45)" text-anchor="end">jun 2022</text></g><g class="tick" opacity="1" transform="translate(401.0405405405406,0)"><line stroke="currentColor" y2="6"></line><text fill="currentColor" dy="0.32em" transform="translate(0, 11.82842712474619) rotate(-45)" text-anchor="end">jul 2022</text></g><g class="tick" opacity="1" transform="translate(425.33783783783787,0)"><line stroke="currentColor" y2="6"></line><text fill="currentColor" dy="0.32em" transform="translate(0, 11.82842712474619) rotate(-45)" text-anchor="end">aug 2022</text></g><g class="tick" opacity="1" transform="translate(449.63513513513516,0)"><line stroke="currentColor" y2="6"></line><text fill="currentColor" dy="0.32em" transform="translate(0, 11.82842712474619) rotate(-45)" text-anchor="end">sep 2022</text></g><g class="tick" opacity="1" transform="translate(473.14864864864865,0)"><line stroke="currentColor" y2="6"></line><text fill="currentColor" dy="0.32em" transform="translate(0, 11.82842712474619) rotate(-45)" text-anchor="end">okt 2022</text></g><g class="tick" opacity="1" transform="translate(497.44594594594594,0)"><line stroke="currentColor" y2="6"></line><text fill="currentColor" dy="0.32em" transform="translate(0, 11.82842712474619) rotate(-45)" text-anchor="end">nov 2022</text></g><g class="tick" opacity="1" transform="translate(520.9594594594595,0)"><line stroke="currentColor" y2="6"></line><text fill="currentColor" dy="0.32em" transform="translate(0, 11.82842712474619) rotate(-45)" text-anchor="end">dec 2022</text></g><g class="tick" opacity="1" transform="translate(545.2567567567568,0)"><line stroke="currentColor" y2="6"></line><text fill="currentColor" dy="0.32em" transform="translate(0, 11.82842712474619) rotate(-45)" text-anchor="end">jan 2023</text></g><g class="tick" opacity="1" transform="translate(569.5540540540541,0)"><line stroke="currentColor" y2="6"></line><text fill="currentColor" dy="0.32em" transform="translate(0, 11.82842712474619) rotate(-45)" text-anchor="end">feb 2023</text></g><g class="tick" opacity="1" transform="translate(591.5,0)"><line stroke="currentColor" y2="6"></line><text fill="currentColor" dy="0.32em" transform="translate(0, 11.82842712474619) rotate(-45)" text-anchor="end">mrt 2023</text></g><g class="tick" opacity="1" transform="translate(615.7972972972973,0)"><line stroke="currentColor" y2="6"></line><text fill="currentColor" dy="0.32em" transform="translate(0, 11.82842712474619) rotate(-45)" text-anchor="end">apr 2023 *</text></g><text fill="currentColor" transform="translate(640,80)" dy="-0.32em" text-anchor="end">Maand →</text></g><g fill="none" stroke="#ec025f" stroke-width="3" stroke-miterlimit="1" transform="translate(0.5,0.5)"><path d="M40,319.983L45.486,319.977L50.973,319.865L56.459,319.739L61.946,319.618L67.432,319.552L72.919,319.484L78.405,319.43L83.892,319.05L89.378,318.809L94.865,318.117L100.351,317.623L105.838,316.233L111.324,301.636L116.811,292.184L122.297,285.571L127.784,281.205L133.27,277.922L138.757,275.071L144.243,272.438L149.73,269.579L155.216,267.305L160.703,265.298L166.189,263.173L171.676,260.909L177.162,251.522L182.649,234.934L188.135,222.156L193.622,215.192L199.108,208.365L204.595,202.681L210.081,195.536L215.568,174.21L221.054,159.478L226.541,150.648L232.027,144.649L237.514,141.014L243,137.89L248.486,134.931L253.973,131.32L259.459,129.481L264.946,127.573L270.432,125.541L275.919,123.313L281.405,119.345L286.892,114.395L286.892,114.395L292.378,109.856L297.865,107.551L303.351,106.118L308.838,105.283L318.243,103.207L327.649,103.097L337.838,102.323L340.189,102.192L345.676,101.673L351.162,101.209L356.649,100.767L362.135,100.396L367.622,100.045L373.108,99.664L378.595,99.269L384.081,98.946L389.568,98.618L395.054,98.289L400.541,97.925L406.027,97.566L411.514,97.217L417,96.868L422.486,96.504L427.973,96.166L433.459,95.905L438.946,95.627L444.432,95.334L449.919,95.044L455.405,94.784L460.892,94.523L466.378,94.273L471.865,94.01L477.351,93.755L482.838,93.494L488.324,93.237L493.811,92.965L499.297,92.716L504.784,91.798L510.27,91.571L515.757,91.276L521.243,90.959L526.73,90.727L532.216,90.427L537.703,90.234L543.189,89.977L548.676,89.731L554.162,89.511L559.649,89.277L565.135,89.043L570.622,88.793L576.108,88.528L581.595,88.264L587.081,88.044L592.535,87.803L598.054,87.594L603.541,87.388L609.027,87.183L614.514,86.968L620,86.777"></path></g><g stroke="currentColor" transform="translate(0,0.5)"><line x1="40" x2="620" y1="320" y2="320"></line></g>

</svg>
