<svg class="plot" fill="currentColor" text-anchor="middle" width="640" height="460" viewBox="0 0 640 400" style="font-family: 'RO Sans', sans-serif; font-size: 14px;" xmlns="http://www.w3.org/2000/svg">

<g transform="translate(40,0)" fill="none" text-anchor="end"><g class="tick" opacity="1" transform="translate(0,370.02811322183175)"><line stroke="currentColor" x2="0"></line><line stroke="currentColor" x2="580" stroke-opacity="0.1"></line><text fill="currentColor" x="-9" dy="0.32em">0m</text></g><g class="tick" opacity="1" transform="translate(0,310.7175186400988)"><line stroke="currentColor" x2="0"></line><line stroke="currentColor" x2="580" stroke-opacity="0.1"></line><text fill="currentColor" x="-9" dy="0.32em">0.5m</text></g><g class="tick" opacity="1" transform="translate(0,251.4069240583658)"><line stroke="currentColor" x2="0"></line><line stroke="currentColor" x2="580" stroke-opacity="0.1"></line><text fill="currentColor" x="-9" dy="0.32em">1m</text></g><g class="tick" opacity="1" transform="translate(0,192.09632947663283)"><line stroke="currentColor" x2="0"></line><line stroke="currentColor" x2="580" stroke-opacity="0.1"></line><text fill="currentColor" x="-9" dy="0.32em">1.5m</text></g><g class="tick" opacity="1" transform="translate(0,132.78573489489986)"><line stroke="currentColor" x2="0"></line><line stroke="currentColor" x2="580" stroke-opacity="0.1"></line><text fill="currentColor" x="-9" dy="0.32em">2m</text></g><g class="tick" opacity="1" transform="translate(0,73.47514031316692)"><line stroke="currentColor" x2="0"></line><line stroke="currentColor" x2="580" stroke-opacity="0.1"></line><text fill="currentColor" x="-9" dy="0.32em">2.5m</text></g><g class="tick" opacity="1" transform="translate(0,14.16454573143395)"><line stroke="currentColor" x2="0"></line><line stroke="currentColor" x2="580" stroke-opacity="0.1"></line><text fill="currentColor" x="-9" dy="0.32em">3m</text></g><text fill="currentColor" transform="translate(10,20)" dy="-1em" text-anchor="start">↑ Number of downloads CoronaCheck Scanner (million)</text></g><g transform="translate(0,370)" fill="none" text-anchor="middle"><g class="tick" opacity="1" transform="translate(103.52419668472578,0)"><line stroke="currentColor" y2="6"></line><text fill="currentColor" y="9" dy="0.71em">May 2021</text></g><g class="tick" opacity="1" transform="translate(217.49407897202795,0)"><line stroke="currentColor" y2="6"></line><text fill="currentColor" y="9" dy="0.71em">Jul 2021</text></g><g class="tick" opacity="1" transform="translate(333.3323199853514,0)"><line stroke="currentColor" y2="6"></line><text fill="currentColor" y="9" dy="0.71em">Sep 2021</text></g><g class="tick" opacity="1" transform="translate(447.3022022726536,0)"><line stroke="currentColor" y2="6"></line><text fill="currentColor" y="9" dy="0.71em">Nov 2021</text></g><g class="tick" opacity="1" transform="translate(561.2720845599557,0)"><line stroke="currentColor" y2="6"></line><text fill="currentColor" y="9" dy="0.71em">Jan 2022</text></g><text fill="currentColor" transform="translate(640,-10)" dy="-0.32em" text-anchor="end">Week number →</text></g><g fill="none" stroke="#ec025f" stroke-width="3" stroke-miterlimit="1"><path d="M40,370C46.28361402688962,369.99628320273956,52.567228053779246,369.9925664054791,53.078511082149426,369.9888496082187C61.797518470249045,369.925466352809,62.0184564530178,369.8620830973993,66.15702216429885,369.7986998419896C70.79386808910311,369.7276852900771,74.788597100594,369.6566707381645,79.23553324644828,369.585656186252C83.5140998723013,369.51733038129385,85.5875675101885,369.4490045763357,92.3140443285977,369.3806787713776C95.9731231534295,369.343510798773,101.12016764935808,369.3063428261684,105.39255541074714,369.26917485356387C109.84674690666125,369.2304252651038,113.41897148955834,369.19167567664374,118.47106649289657,369.1529260881837C122.40963851590686,369.12271722534337,130.32416888400334,369.0925083625031,131.549577575046,369.0622994996628C140.2685849631456,368.8473579048986,138.71660294439266,368.63241631013443,144.6280886571954,368.41747471537025C148.36680975370396,368.2815348325889,154.67505166083637,368.14559494980756,157.70659973934482,368.0096550670262C166.42560712744447,367.61867962754343,165.39998564861287,367.2277041880606,170.78511082149427,366.83672874857785C174.62353742125865,366.5580480348365,180.77078562243528,366.2793673210951,183.8636219036437,366.0006866073537C192.5826292917433,365.2150584715241,196.11136307209298,364.42943033569446,196.9421329857931,363.64380219986487C205.66114037389272,355.39856196230147,204.22067698806146,347.15332172473813,210.02064406794253,338.90808148717474C213.77619972737205,333.5691790053055,217.638533958607,328.2302765234362,223.09915515009195,322.89137404156696C226.91965686340507,319.1560323352058,230.46740098222745,315.4206906288447,236.17766623224142,311.6853489224835C239.94822203393957,309.21885853620756,244.0746574506131,306.7523681499316,249.25617731439084,304.28587776365566C253.15118441505612,302.4317890366343,257.6227016210322,300.57770030961296,262.3346883965403,298.7236115825916C266.42817101126593,297.1128939953373,270.8652943333057,295.50217640808296,275.41319947868965,293.89145882082863C279.61210738613977,292.40434451268266,284.29777364621884,290.9172302045366,288.4917105608391,289.43011589639065C293.04649777739263,287.8150488655337,296.5857261366216,286.1999818346767,301.57022164298854,284.58491480381974C305.5344124211389,283.30044502716135,309.9813738948267,282.015975250503,314.64873272513796,280.7315054738446C318.76839348368867,279.59776368821656,323.48469702482157,278.4640219025885,327.7272438072874,277.33028011696047C332.2177767930597,276.1302686269865,336.57689438761,274.93025713701246,340.80575488943686,273.7302456470385C345.3137154467898,272.4510347430997,351.7807967430212,271.1718238391608,353.8842659715862,269.892612935222C362.60327335968583,264.5902062392187,363.2871804515168,259.2877995432154,366.96277705373564,253.98539284721204C373.4577901322718,244.6157028171718,374.9477599394502,235.2460127871316,380.04128813588505,225.87632275709137C383.96517382473866,218.6582233964945,386.4039877626677,211.44012403589758,393.11979921803453,204.2220246753007C396.77955776955406,200.28854604264018,401.7947006216192,196.35506740997963,406.1983103001839,192.4215887773191C410.51542366479686,188.5653720792004,414.4390631401724,184.70915538108164,419.27682138233337,180.85293868296293C423.30478117789266,177.6422189558754,428.3907221280076,174.43149922878786,432.35533246448284,171.22077950170032C437.33876675498857,167.18497032318808,442.5127402495084,163.14916114467587,445.4338435466322,159.11335196616363C454.1528509347319,147.06713296423536,452.9988140884727,135.02091396230705,458.5123546287817,122.97469496037877C462.3211380272125,114.65310221739053,465.4097759182074,106.3315094744023,471.59086571093104,98.00991673141405C475.2958836168404,93.02185618669392,479.0841105531935,88.03379564197378,484.6693767930805,83.04573509725365C488.4632987545565,79.65747899038482,491.62372781022634,76.26922288351598,497.74788787522994,72.88096677664714C501.45928996338046,70.82759445183115,506.083739799237,68.77422212701515,510.82639895737935,66.72084980219915C514.9028337301132,64.95592466903233,519.4195023602381,63.1909995358655,523.9049100395288,61.426074402698674C528.1515568834849,59.75509725134933,532.9788242383598,58.084120099999986,536.9834211216782,56.413142948650645C541.8717584340982,54.37341206058845,542.9192997403909,52.333681172526255,550.0619322038276,50.29395028446406C553.6995710996406,49.25514499056322,558.8588543812167,48.216339696662374,563.1404432859771,47.17753440276153C567.583862952858,46.09946549524754,571.987888728268,45.02139658773356,576.2189543681266,43.943327680219575C580.7240732601394,42.795430432684725,585.1204287054011,41.647533185149875,589.2974654502759,40.499635937615025C593.8762205855504,39.24134190336537,598.7040048795876,37.9830478691157,602.3759765324254,36.72475383486604C608.9174008158376,34.483169223244026,612.1859442152062,32.24158461162202,615.4544876145748,30"></path></g>

</svg>

