<svg class="plot" fill="currentColor" text-anchor="middle" width="640" height="460" viewBox="0 0 640 400" style="font-family: 'RO Sans', sans-serif; font-size: 14px;" xmlns="http://www.w3.org/2000/svg">

<g transform="translate(40,0)" fill="none" text-anchor="end"><g class="tick" opacity="1" transform="translate(0,370.02960907423693)"><line stroke="currentColor" x2="0"></line><line stroke="currentColor" x2="580" stroke-opacity="0.1"></line><text fill="currentColor" x="-9" dy="0.32em">0m</text></g><g class="tick" opacity="1" transform="translate(0,307.5632077305479)"><line stroke="currentColor" x2="0"></line><line stroke="currentColor" x2="580" stroke-opacity="0.1"></line><text fill="currentColor" x="-9" dy="0.32em">0.5m</text></g><g class="tick" opacity="1" transform="translate(0,245.09680638685884)"><line stroke="currentColor" x2="0"></line><line stroke="currentColor" x2="580" stroke-opacity="0.1"></line><text fill="currentColor" x="-9" dy="0.32em">1m</text></g><g class="tick" opacity="1" transform="translate(0,182.6304050431698)"><line stroke="currentColor" x2="0"></line><line stroke="currentColor" x2="580" stroke-opacity="0.1"></line><text fill="currentColor" x="-9" dy="0.32em">1.5m</text></g><g class="tick" opacity="1" transform="translate(0,120.16400369948076)"><line stroke="currentColor" x2="0"></line><line stroke="currentColor" x2="580" stroke-opacity="0.1"></line><text fill="currentColor" x="-9" dy="0.32em">2m</text></g><g class="tick" opacity="1" transform="translate(0,57.697602355791695)"><line stroke="currentColor" x2="0"></line><line stroke="currentColor" x2="580" stroke-opacity="0.1"></line><text fill="currentColor" x="-9" dy="0.32em">2.5m</text></g><g class="tick" opacity="1" transform="translate(0,-4.768798987897334)"><line stroke="currentColor" x2="0"></line><line stroke="currentColor" x2="580" stroke-opacity="0.1"></line><text fill="currentColor" x="-9" dy="0.32em">3m</text></g><text fill="currentColor" transform="translate(10,20)" dy="-1em" text-anchor="start">↑ Aantal downloads CoronaCheck Scanner (miljoen)</text></g><g transform="translate(0,370)" fill="none" text-anchor="middle"><g class="tick" opacity="1" transform="translate(50,0)"><line stroke="currentColor" y2="0"></line><text fill="currentColor" y="9" dy="0.71em">12</text></g><g class="tick" opacity="1" transform="translate(78,0)"><line stroke="currentColor" y2="0"></line><text fill="currentColor" y="9" dy="0.71em">14</text></g><g class="tick" opacity="1" transform="translate(106,0)"><line stroke="currentColor" y2="0"></line><text fill="currentColor" y="9" dy="0.71em">16</text></g><g class="tick" opacity="1" transform="translate(134,0)"><line stroke="currentColor" y2="0"></line><text fill="currentColor" y="9" dy="0.71em">18</text></g><g class="tick" opacity="1" transform="translate(162,0)"><line stroke="currentColor" y2="0"></line><text fill="currentColor" y="9" dy="0.71em">20</text></g><g class="tick" opacity="1" transform="translate(190,0)"><line stroke="currentColor" y2="0"></line><text fill="currentColor" y="9" dy="0.71em">22</text></g><g class="tick" opacity="1" transform="translate(218,0)"><line stroke="currentColor" y2="0"></line><text fill="currentColor" y="9" dy="0.71em">24</text></g><g class="tick" opacity="1" transform="translate(246,0)"><line stroke="currentColor" y2="0"></line><text fill="currentColor" y="9" dy="0.71em">26</text></g><g class="tick" opacity="1" transform="translate(274,0)"><line stroke="currentColor" y2="0"></line><text fill="currentColor" y="9" dy="0.71em">28</text></g><g class="tick" opacity="1" transform="translate(302,0)"><line stroke="currentColor" y2="0"></line><text fill="currentColor" y="9" dy="0.71em">30</text></g><g class="tick" opacity="1" transform="translate(330,0)"><line stroke="currentColor" y2="0"></line><text fill="currentColor" y="9" dy="0.71em">32</text></g><g class="tick" opacity="1" transform="translate(358,0)"><line stroke="currentColor" y2="0"></line><text fill="currentColor" y="9" dy="0.71em">34</text></g><g class="tick" opacity="1" transform="translate(386,0)"><line stroke="currentColor" y2="0"></line><text fill="currentColor" y="9" dy="0.71em">36</text></g><g class="tick" opacity="1" transform="translate(414,0)"><line stroke="currentColor" y2="0"></line><text fill="currentColor" y="9" dy="0.71em">38</text></g><g class="tick" opacity="1" transform="translate(442,0)"><line stroke="currentColor" y2="0"></line><text fill="currentColor" y="9" dy="0.71em">40</text></g><g class="tick" opacity="1" transform="translate(470,0)"><line stroke="currentColor" y2="0"></line><text fill="currentColor" y="9" dy="0.71em">42</text></g><g class="tick" opacity="1" transform="translate(498,0)"><line stroke="currentColor" y2="0"></line><text fill="currentColor" y="9" dy="0.71em">44</text></g><g class="tick" opacity="1" transform="translate(526,0)"><line stroke="currentColor" y2="0"></line><text fill="currentColor" y="9" dy="0.71em">46</text></g><g class="tick" opacity="1" transform="translate(554,0)"><line stroke="currentColor" y2="0"></line><text fill="currentColor" y="9" dy="0.71em">48</text></g><g class="tick" opacity="1" transform="translate(582,0)"><line stroke="currentColor" y2="0"></line><text fill="currentColor" y="9" dy="0.71em">50</text></g><g class="tick" opacity="1" transform="translate(610,0)"><line stroke="currentColor" y2="0"></line><text fill="currentColor" y="9" dy="0.71em">52</text></g><text fill="currentColor" transform="translate(640,-10)" dy="-0.32em" text-anchor="end">Weeknummer →</text></g><g fill="none" stroke="#ec025f" stroke-width="3" stroke-miterlimit="1"><path d="M50,370C56.726346433770196,369.99608543884915,63.4526928675404,369.99217087769824,64,369.9882563165474C73.33333333333333,369.92150055564474,73.56983821827986,369.85474479474215,78,369.7879890338395C82.96354994383502,369.71319592929734,87.23974054455515,369.63840282475513,92,369.563609720213C96.58002691481553,369.49164842586504,98.79958744032265,369.41968713151715,106,369.3477258371692C109.91689109149131,369.3085802256605,115.42658730158823,369.2694346141518,120,369.2302890026431C124.76802600472924,369.18947762043183,128.59194325695717,369.14866623822064,134,369.1078548560094C138.21607688947006,369.0760386355917,146.68825116507318,369.044222415174,148,369.0124061947563C157.33333333333334,368.7860279562868,155.67200138766447,368.5596497178172,162,368.3332714793477C166.00214481773523,368.19009848746794,172.754854368932,368.0469254955882,176,367.90375250370846C185.33333333333334,367.4919739860509,184.2354483666536,367.08019546839324,190,366.66841695073566C194.10887539561335,366.37490815295547,200.68924790712504,366.0813993551752,204,365.78789055739503C213.33333333333334,364.96046060519654,217.11069549746554,364.133030652998,218,363.3056007007995C227.33333333333334,354.62164651880255,225.7913774275757,345.93769233680564,232,337.2537381548087C236.02016551438913,331.63076257145514,240.1546330311917,326.0077869881016,246,320.38481140474806C250.08968755314868,316.4507190923901,253.88739949080986,312.51662678003214,260,308.5825344676742C264.0362225403336,305.98480670139554,268.4533993481951,303.38707893511685,274,300.7893511688382C278.1694424592216,298.8366098185669,282.95601491310794,296.88386846829565,288,294.93112711802434C292.38190220937133,293.2347062346,297.13165744667396,291.53828535117566,302,289.84186446775135C306.494755583037,288.27562356472725,311.5105656572159,286.70938266170316,316,285.14314175867906C320.87570952314167,283.44214000582286,324.6643056957468,281.7411382529666,330,280.0401365001104C334.243500697098,278.6873224683439,339.00378726493227,277.33450843657744,344,275.9816944048109C348.40992481922723,274.78762832099255,353.4585308234675,273.5935622371741,358,272.39949615335576C362.8069280521252,271.13563427710267,367.47318141539955,269.8717724008496,372,268.6079105245965C376.82558353978686,267.2606351804158,383.7483240244294,265.91335983623514,386,264.5660844920545C395.3333333333333,258.9815465676611,396.0654273175409,253.39700864326775,400,247.81247071887438C406.9526402912649,237.9442368559362,408.5475907538575,228.076002992998,414,218.20776913005983C418.2003557820071,210.60560808653287,420.8110042661153,203.00344704300593,428,195.40128599947897C431.9176187105278,191.2585142623655,437.2861197186237,187.11574252525207,442,182.9729707881386C446.6212895890783,178.9115719498422,450.82138180983804,174.85017311154576,456,170.78877427324935C460.3117627674604,167.4072181029101,465.75605018323455,164.0256619325708,470,160.64410576223156C475.3345583169865,156.39355866066646,480.8730808956112,152.14301155910132,484,147.89246445753622C493.3333333333333,135.20528847902762,492.0979850780048,122.518112500519,498,109.83093652201038C502.07714358638356,101.06656725935031,505.38340147784555,92.30219799669023,512,83.53782873403016C515.9660669595278,78.28436273675834,520.0216371513219,73.03089673948654,526,67.77743074221472C530.0613210974852,64.20855865637952,533.4429794704054,60.63968657054432,540,57.070814484709125C543.9727438705019,54.90851918006355,548.8958077966811,52.746223875417975,554,50.5839285707724C558.3490277385172,48.741544529541635,563.2210873647044,46.89916048831087,568,45.056776447080104C572.5642769035912,43.29713956549593,577.7250632048098,41.53750268391177,582,39.7778658023276C587.2596473510569,37.612905264558016,588.3006516810597,35.44794472678844,596,33.28298418901886C599.8918090123514,32.188656126012575,604.9459045061757,31.094328063006287,610,30"></path></g>

</svg>
