<svg class="plot" fill="currentColor" text-anchor="middle" width="640" height="460" viewBox="0 0 640 400" style="font-family: 'RO Sans', sans-serif; font-size: 14px;" xmlns="http://www.w3.org/2000/svg">

<g transform="translate(40,0)" fill="none" text-anchor="end"><g class="tick" opacity="1" transform="translate(0,370.0286804841727)"><line stroke="currentColor" x2="0"></line><line stroke="currentColor" x2="580" stroke-opacity="0.1"></line><text fill="currentColor" x="-9" dy="0.32em">0m</text></g><g class="tick" opacity="1" transform="translate(0,309.52132990885457)"><line stroke="currentColor" x2="0"></line><line stroke="currentColor" x2="580" stroke-opacity="0.1"></line><text fill="currentColor" x="-9" dy="0.32em">0.5m</text></g><g class="tick" opacity="1" transform="translate(0,249.01397933353647)"><line stroke="currentColor" x2="0"></line><line stroke="currentColor" x2="580" stroke-opacity="0.1"></line><text fill="currentColor" x="-9" dy="0.32em">1m</text></g><g class="tick" opacity="1" transform="translate(0,188.50662875821837)"><line stroke="currentColor" x2="0"></line><line stroke="currentColor" x2="580" stroke-opacity="0.1"></line><text fill="currentColor" x="-9" dy="0.32em">1.5m</text></g><g class="tick" opacity="1" transform="translate(0,127.99927818290024)"><line stroke="currentColor" x2="0"></line><line stroke="currentColor" x2="580" stroke-opacity="0.1"></line><text fill="currentColor" x="-9" dy="0.32em">2m</text></g><g class="tick" opacity="1" transform="translate(0,67.4919276075821)"><line stroke="currentColor" x2="0"></line><line stroke="currentColor" x2="580" stroke-opacity="0.1"></line><text fill="currentColor" x="-9" dy="0.32em">2.5m</text></g><g class="tick" opacity="1" transform="translate(0,6.984577032263946)"><line stroke="currentColor" x2="0"></line><line stroke="currentColor" x2="580" stroke-opacity="0.1"></line><text fill="currentColor" x="-9" dy="0.32em">3m</text></g><text fill="currentColor" transform="translate(10,20)" dy="-1em" text-anchor="start">↑ Number of downloads CoronaCheck Scanner (million)</text></g><g transform="translate(0,370)" fill="none" text-anchor="middle"><g class="tick" opacity="1" transform="translate(104.89442446119105,0)"><line stroke="currentColor" y2="6"></line><text fill="currentColor" y="9" dy="0.71em">May 2021</text></g><g class="tick" opacity="1" transform="translate(221.32265658273968,0)"><line stroke="currentColor" y2="6"></line><text fill="currentColor" y="9" dy="0.71em">Jul 2021</text></g><g class="tick" opacity="1" transform="translate(339.6595482472646,0)"><line stroke="currentColor" y2="6"></line><text fill="currentColor" y="9" dy="0.71em">Sep 2021</text></g><g class="tick" opacity="1" transform="translate(456.0877803688132,0)"><line stroke="currentColor" y2="6"></line><text fill="currentColor" y="9" dy="0.71em">Nov 2021</text></g><g class="tick" opacity="1" transform="translate(572.516012490362,0)"><line stroke="currentColor" y2="6"></line><text fill="currentColor" y="9" dy="0.71em">Jan 2022</text></g><text fill="currentColor" transform="translate(640,-10)" dy="-0.32em" text-anchor="end">Week number →</text></g><g fill="none" stroke="#ec025f" stroke-width="3" stroke-miterlimit="1"><path d="M40,370C46.4191526550905,369.99620820603064,52.83830531018099,369.99241641206123,53.36061680083345,369.9886246180919C62.26769466805575,369.9239624294437,62.493398320861985,369.8593002407955,66.72123360166691,369.7946380521473C71.45809708533582,369.7221905843918,75.53899308416163,369.64974311663633,80.08185040250035,369.5772956488808C84.45270644152566,369.50759118101803,86.5708991306394,369.4378867131553,93.4424672033338,369.36818224529253C97.18047298362066,369.33026430559863,102.43854010876922,369.2923463659048,106.80308400416726,369.2544284262109C111.35335317170754,369.2148969571684,115.00263124922189,369.1753654881258,120.16370080500073,369.1358340190833C124.1872284995064,369.1050156085236,132.27247663994788,369.0741971979639,133.52431760583417,369.0433787874042C142.43139547305645,368.8241001489193,140.8459369369813,368.6048215104343,146.8849344066676,368.3855428719494C150.7043003560393,368.24686002443076,157.14861211895797,368.1081771769121,160.24555120750108,367.96949432939346C169.15262907472336,367.570629874401,168.1048847653522,367.1717654194085,173.60616800833452,366.772900964416C177.52739012570342,366.4885970931794,183.80723552092047,366.20429322194286,186.966784809168,365.91998935070626C195.8738626763903,365.1185089849856,199.47871184731446,364.317028619265,200.32740161000146,363.51554825354435C209.23447947722374,355.10393739126476,207.76294505003727,346.6923265289852,213.68801841083487,338.2807156667056C217.52458204752622,332.83408599731774,221.4702274880614,327.3874563279299,227.0486352116683,321.94082665854205C230.95154579972242,318.13011405754224,234.57581536536827,314.31940145654244,240.40925201250178,310.50868885554263C244.26113934709346,307.99243017451744,248.4765826807625,305.4761714934923,253.76986881333522,302.9599128124671C257.74889188267696,301.0684126952489,262.3168604788056,299.1769125780308,267.13048561416866,297.2854124608126C271.31226534832126,295.64219417212183,275.8450981785606,293.99897588343106,280.4911024150021,292.3557575947403C284.7805814834567,290.8386366246485,289.5673183653756,289.32151565455666,293.8517192158356,287.80439468446485C298.50475397089775,286.15673919006525,302.12032409056076,284.5090836956656,307.21233601666904,282.861428201266C311.2620350672402,281.55104067897315,315.80491825973934,280.24065315668037,320.57295281750254,278.9302656343875C324.7814753625154,277.7736474590235,329.5995103768755,276.6170292836594,333.933569618336,275.4604111082954C338.5209641678803,274.23618605322184,342.97410867375953,273.01196099814825,347.29418641916936,271.7877359430747C351.89938445599097,270.48271340586626,358.50596180077133,269.1776908686578,360.6548032200029,267.87266833144935C369.5618810872252,262.46327085178217,370.2605401718818,257.05387337211505,374.0154200208363,251.64447589244787C380.6505316412381,242.0857263397277,382.17264035173895,232.5269767870075,387.37603682166974,222.96822723428733C391.3845613952813,215.6044826692711,393.875980966556,208.2407381042549,400.7366536225032,200.87699353923867C404.4753537912987,196.86414604908356,409.5986741315885,192.85129855892848,414.0972704233366,188.83845106877337C418.5075046608621,184.90442448730104,422.5157777101288,180.97039790582875,427.4578872241702,177.03637132435642C431.5727308007515,173.76086640831215,436.7683763661628,170.48536149226788,440.81850402500356,167.20985657622361C445.9094318446432,163.09261373720923,451.19500883148396,158.97537089819488,454.17912082583706,154.8581280591805C463.0861986930593,142.56884312793107,461.9072690748434,130.27955819668168,467.53973762667044,117.99027326543225C471.43067713378804,109.50076927384538,474.5859374718278,101.01126528225852,480.90035442750394,92.52176129067165C484.68529020269665,87.43305276905367,488.55522984133705,82.34434424743569,494.2609712283374,77.25563572581771C498.1367287347657,73.79901214038466,501.3653287851688,70.34238855495161,507.6215880291709,66.88576496951856C511.4130456945065,64.79096015436733,516.1372457034727,62.6961553392161,520.9822048300042,60.60135052406486C525.1465689973004,58.80081312387825,529.7606629415117,57.000275723691644,534.3428216308378,55.19973832350503C538.6810693728155,53.49504456662975,543.6124617093396,51.79035080975448,547.7034384316712,50.0856570528792C552.6972180151591,48.00476892836027,553.7673549664154,45.92388080384134,561.0640552325046,43.842992679322414C564.7801586208406,42.78322660311259,570.0507285243342,41.72346052690277,574.4246720333381,40.663694450692944C578.9639370216524,39.56387250840223,583.4629583855259,38.46405056611152,587.7852888341715,37.3642286238208C592.3875839104462,36.1931693607861,596.8787694938395,35.0221100977514,601.1459056350051,33.8510508347167C605.8234253008902,32.567367223144466,610.1649738683643,31.283683611572233,614.5065224358384,30"></path></g>

</svg>

