<svg class="plot" fill="currentColor" text-anchor="middle" width="640" height="460" viewBox="0 0 640 400" style="font-family: 'RO Sans', sans-serif; font-size: 14px;" xmlns="http://www.w3.org/2000/svg">
<style>
        line[stroke-opacity] {
            stroke-opacity: 1;
            stroke: #949494;
        }
</style>

<!-- replace the below code -->
<g transform="translate(40,0)" fill="none" text-anchor="end"><g class="tick" opacity="1" transform="translate(0,320)"><line stroke="currentColor" x2="-6"></line><line stroke="currentColor" x2="580" stroke-opacity="0.1"></line><text fill="currentColor" x="-9" dy="0.32em">0M</text></g><g class="tick" opacity="1" transform="translate(0,285)"><line stroke="currentColor" x2="-6"></line><line stroke="currentColor" x2="580" stroke-opacity="0.1"></line><text fill="currentColor" x="-9" dy="0.32em">2M</text></g><g class="tick" opacity="1" transform="translate(0,250)"><line stroke="currentColor" x2="-6"></line><line stroke="currentColor" x2="580" stroke-opacity="0.1"></line><text fill="currentColor" x="-9" dy="0.32em">4M</text></g><g class="tick" opacity="1" transform="translate(0,215)"><line stroke="currentColor" x2="-6"></line><line stroke="currentColor" x2="580" stroke-opacity="0.1"></line><text fill="currentColor" x="-9" dy="0.32em">6M</text></g><g class="tick" opacity="1" transform="translate(0,180)"><line stroke="currentColor" x2="-6"></line><line stroke="currentColor" x2="580" stroke-opacity="0.1"></line><text fill="currentColor" x="-9" dy="0.32em">8M</text></g><g class="tick" opacity="1" transform="translate(0,145)"><line stroke="currentColor" x2="-6"></line><line stroke="currentColor" x2="580" stroke-opacity="0.1"></line><text fill="currentColor" x="-9" dy="0.32em">10M</text></g><g class="tick" opacity="1" transform="translate(0,110)"><line stroke="currentColor" x2="-6"></line><line stroke="currentColor" x2="580" stroke-opacity="0.1"></line><text fill="currentColor" x="-9" dy="0.32em">12M</text></g><g class="tick" opacity="1" transform="translate(0,75)"><line stroke="currentColor" x2="-6"></line><line stroke="currentColor" x2="580" stroke-opacity="0.1"></line><text fill="currentColor" x="-9" dy="0.32em">14M</text></g><g class="tick" opacity="1" transform="translate(0,40)"><line stroke="currentColor" x2="-6"></line><line stroke="currentColor" x2="580" stroke-opacity="0.1"></line><text fill="currentColor" x="-9" dy="0.32em">16M</text></g><text fill="currentColor" transform="translate(20,40)" dy="-1em" text-anchor="start">↑ Number of downloads CoronaCheck (million)</text></g><g transform="translate(0,320)" fill="none" text-anchor="middle"><g class="tick" opacity="1" transform="translate(45.94871794871795,0)"><line stroke="currentColor" y2="6"></line><text fill="currentColor" dy="0.32em" transform="translate(0, 11.82842712474619) rotate(-45)" text-anchor="end">Apr 2021</text></g><g class="tick" opacity="1" transform="translate(90.56410256410257,0)"><line stroke="currentColor" y2="6"></line><text fill="currentColor" dy="0.32em" transform="translate(0, 11.82842712474619) rotate(-45)" text-anchor="end">May 2021</text></g><g class="tick" opacity="1" transform="translate(136.66666666666666,0)"><line stroke="currentColor" y2="6"></line><text fill="currentColor" dy="0.32em" transform="translate(0, 11.82842712474619) rotate(-45)" text-anchor="end">Jun 2021</text></g><g class="tick" opacity="1" transform="translate(181.28205128205127,0)"><line stroke="currentColor" y2="6"></line><text fill="currentColor" dy="0.32em" transform="translate(0, 11.82842712474619) rotate(-45)" text-anchor="end">Jul 2021</text></g><g class="tick" opacity="1" transform="translate(227.38461538461542,0)"><line stroke="currentColor" y2="6"></line><text fill="currentColor" dy="0.32em" transform="translate(0, 11.82842712474619) rotate(-45)" text-anchor="end">Aug 2021</text></g><g class="tick" opacity="1" transform="translate(273.4871794871795,0)"><line stroke="currentColor" y2="6"></line><text fill="currentColor" dy="0.32em" transform="translate(0, 11.82842712474619) rotate(-45)" text-anchor="end">Sep 2021</text></g><g class="tick" opacity="1" transform="translate(318.1025641025641,0)"><line stroke="currentColor" y2="6"></line><text fill="currentColor" dy="0.32em" transform="translate(0, 11.82842712474619) rotate(-45)" text-anchor="end">Oct 2021</text></g><g class="tick" opacity="1" transform="translate(364.20512820512823,0)"><line stroke="currentColor" y2="6"></line><text fill="currentColor" dy="0.32em" transform="translate(0, 11.82842712474619) rotate(-45)" text-anchor="end">Nov 2021</text></g><g class="tick" opacity="1" transform="translate(408.82051282051276,0)"><line stroke="currentColor" y2="6"></line><text fill="currentColor" dy="0.32em" transform="translate(0, 11.82842712474619) rotate(-45)" text-anchor="end">Dec 2021</text></g><g class="tick" opacity="1" transform="translate(454.9230769230769,0)"><line stroke="currentColor" y2="6"></line><text fill="currentColor" dy="0.32em" transform="translate(0, 11.82842712474619) rotate(-45)" text-anchor="end">Jan 2022</text></g><g class="tick" opacity="1" transform="translate(501.02564102564105,0)"><line stroke="currentColor" y2="6"></line><text fill="currentColor" dy="0.32em" transform="translate(0, 11.82842712474619) rotate(-45)" text-anchor="end">Feb 2022</text></g><g class="tick" opacity="1" transform="translate(542.6666666666667,0)"><line stroke="currentColor" y2="6"></line><text fill="currentColor" dy="0.32em" transform="translate(0, 11.82842712474619) rotate(-45)" text-anchor="end">Mar 2022</text></g><g class="tick" opacity="1" transform="translate(588.7692307692308,0)"><line stroke="currentColor" y2="6"></line><text fill="currentColor" dy="0.32em" transform="translate(0, 11.82842712474619) rotate(-45)" text-anchor="end">Apr 2022 *</text></g><text fill="currentColor" transform="translate(640,80)" dy="-0.32em" text-anchor="end">Month →</text></g><g fill="none" stroke="#ec025f" stroke-width="3" stroke-miterlimit="1"><path d="M40,319.9134275L50.41025641025641,319.90378499999997L60.82051282051282,319.442625L71.23076923076923,318.6421575L81.64102564102564,317.8844775L92.05128205128204,317.62469L102.46153846153847,317.36672250000004L112.87179487179488,317.1746425L123.28205128205128,316.123645L133.6923076923077,315.6084275L144.1025641025641,313.53795L154.5128205128205,310.9239925L164.92307692307693,303.4226875L175.33333333333331,266.6909925L185.74358974358975,240.21694L196.15384615384613,223.84184L206.56410256410257,209.1023775L216.97435897435898,197.38413250000002L227.38461538461542,186.49460000000005L237.7948717948718,176.03479750000002L248.2051282051282,166.76254500000002L258.6153846153846,160.074535L269.02564102564105,154.69356499999998L279.4358974358974,149.46005000000002L289.84615384615387,144.15480250000002L300.2564102564103,131.03073L310.66666666666663,117.2805775L321.0769230769231,107.7651975L331.4871794871795,102.1328575L341.8974358974359,97.38136250000001L352.30769230769226,92.71329L362.71794871794873,88.8781475L373.12820512820514,83.46060250000001L383.53846153846155,79.3141875L393.94871794871796,76.2829075L404.35897435897436,73.21913L414.7692307692308,70.718905L425.1794871794872,68.44954000000001L435.5897435897436,66.28118500000001L446,64.5888125L456.4102564102564,62.856645L466.8205128205128,60.99476749999999L477.2307692307692,59.27681000000001L487.6410256410257,57.18337249999999L498.05128205128204,54.2462425L508.46153846153845,51.55790999999999L508.46153846153845,51.55790999999999L518.8717948717948,49.288650000000004L529.2820512820513,47.66743249999999L539.6923076923077,46.27408249999999L550.1025641025641,45.178372499999995L557.5384615384615,44.61389249999999L567.9487179487179,43.68663750000001L578.3589743589745,42.6628525L585.7948717948718,41.9654425L605.1282051282051,40.34378750000001L609.5897435897435,40.11112499999999L620,39.207635"></path></g><g stroke="currentColor"><line x1="40" x2="620" y1="320" y2="320"></line></g>

</svg>
