<svg class="plot" fill="currentColor" text-anchor="middle" width="640" height="460" viewBox="0 0 640 400" style="font-family: 'RO Sans', sans-serif; font-size: 14px;" xmlns="http://www.w3.org/2000/svg">

<g transform="translate(40,0)" fill="none" text-anchor="end"><g class="tick" opacity="1" transform="translate(0,370.11291131735345)"><line stroke="currentColor" x2="0"></line><line stroke="currentColor" x2="580" stroke-opacity="0.1"></line><text fill="currentColor" x="-9" dy="0.32em">0m</text></g><g class="tick" opacity="1" transform="translate(0,324.46451133616057)"><line stroke="currentColor" x2="0"></line><line stroke="currentColor" x2="580" stroke-opacity="0.1"></line><text fill="currentColor" x="-9" dy="0.32em">2m</text></g><g class="tick" opacity="1" transform="translate(0,278.8161113549678)"><line stroke="currentColor" x2="0"></line><line stroke="currentColor" x2="580" stroke-opacity="0.1"></line><text fill="currentColor" x="-9" dy="0.32em">4m</text></g><g class="tick" opacity="1" transform="translate(0,233.1677113737749)"><line stroke="currentColor" x2="0"></line><line stroke="currentColor" x2="580" stroke-opacity="0.1"></line><text fill="currentColor" x="-9" dy="0.32em">6m</text></g><g class="tick" opacity="1" transform="translate(0,187.51931139258204)"><line stroke="currentColor" x2="0"></line><line stroke="currentColor" x2="580" stroke-opacity="0.1"></line><text fill="currentColor" x="-9" dy="0.32em">8m</text></g><g class="tick" opacity="1" transform="translate(0,141.8709114113892)"><line stroke="currentColor" x2="0"></line><line stroke="currentColor" x2="580" stroke-opacity="0.1"></line><text fill="currentColor" x="-9" dy="0.32em">10m</text></g><g class="tick" opacity="1" transform="translate(0,96.22251143019633)"><line stroke="currentColor" x2="0"></line><line stroke="currentColor" x2="580" stroke-opacity="0.1"></line><text fill="currentColor" x="-9" dy="0.32em">12m</text></g><g class="tick" opacity="1" transform="translate(0,50.57411144900348)"><line stroke="currentColor" x2="0"></line><line stroke="currentColor" x2="580" stroke-opacity="0.1"></line><text fill="currentColor" x="-9" dy="0.32em">14m</text></g><g class="tick" opacity="1" transform="translate(0,4.925711467810627)"><line stroke="currentColor" x2="0"></line><line stroke="currentColor" x2="580" stroke-opacity="0.1"></line><text fill="currentColor" x="-9" dy="0.32em">16m</text></g><text fill="currentColor" transform="translate(10,20)" dy="-1em" text-anchor="start">↑ Number of downloads CoronaCheck (million)</text></g><g transform="translate(0,370)" fill="none" text-anchor="middle"><g class="tick" opacity="1" transform="translate(102.08853546251811,0)"><line stroke="currentColor" y2="6"></line><text fill="currentColor" y="9" dy="0.71em">May 2021</text></g><g class="tick" opacity="1" transform="translate(213.48267261585943,0)"><line stroke="currentColor" y2="6"></line><text fill="currentColor" y="9" dy="0.71em">Jul 2021</text></g><g class="tick" opacity="1" transform="translate(326.7029431651572,0)"><line stroke="currentColor" y2="6"></line><text fill="currentColor" y="9" dy="0.71em">Sep 2021</text></g><g class="tick" opacity="1" transform="translate(438.09708031849846,0)"><line stroke="currentColor" y2="6"></line><text fill="currentColor" y="9" dy="0.71em">Nov 2021</text></g><g class="tick" opacity="1" transform="translate(549.4912174718397,0)"><line stroke="currentColor" y2="6"></line><text fill="currentColor" y="9" dy="0.71em">Jan 2022</text></g><text fill="currentColor" transform="translate(640,-10)" dy="-0.32em" text-anchor="end">Week number →</text></g><g fill="none" stroke="#ec025f" stroke-width="3" stroke-miterlimit="1"><path d="M40,370C46.30237312309433,369.9958079552684,52.604746246188654,369.9916159105368,52.782933771694914,369.98742386580517C61.30488961949151,369.7869360930878,61.96509570539337,369.58644832037044,65.56586754338981,369.38596054765304C71.81597776810987,369.0379599703964,73.96420715701365,368.68995939313976,78.34880131508473,368.3419588158831C82.49902515513723,368.0125599616188,82.60977923898302,367.6831611073545,91.13173508677963,367.3537622530902C94.05367786580125,367.2408205034701,99.6386071741394,367.12787875385,103.91466885847453,367.01493700422986C108.16077362700241,366.90278649354275,111.59883155147148,366.7906359828556,116.69760263016943,366.67848547216846C120.49409617604756,366.5949793324695,127.92306620879071,366.5114731927706,129.48053640186436,366.42796705307165C138.00249224966095,365.9710493934599,135.02907757772846,365.51413173384816,142.26347017355926,365.0572140742364C145.80989694169358,364.83322498359536,152.9258009505286,364.60923589295436,155.04640394525416,364.3852468023133C163.56835979305075,363.48511361115084,163.95992818437946,362.5849804199883,167.82933771694906,361.68484722882584C172.71442923242392,360.5484379193607,177.6426508155722,359.41202860989563,180.61227148864396,358.2756193004305C189.13422733644057,355.0144519573741,191.65486112400495,351.75328461431764,193.39520526033888,348.49211727126124C201.91716110813547,332.5231353155738,200.95771449316098,316.55415335988636,206.17813903203378,300.58517140419895C209.94071501210786,289.0756653314075,213.07649189143845,277.5661592586161,218.96107280372868,266.05665318582464C222.60088582052478,258.93763304742436,227.2341801908262,251.81861290902404,231.7440065754236,244.69959277062375C235.80336602222295,238.2916605829305,239.6539529598442,231.88372839523723,244.5269403471185,225.47579620754397C248.40108840957262,220.38132825670957,252.8808190578744,215.28686030587517,257.30987411881335,210.19239235504077C261.4257070810346,205.4582044010579,265.7425392400919,200.72401644707506,270.0928078905083,195.9898284930922C274.2714033357487,191.44246422409904,278.3254779454984,186.8950999551059,282.8757416622032,182.34773568611274C286.909392787344,178.31665482090688,290.44118455904714,174.285573955701,295.6586754338981,170.25449309049515C299.42201461668157,167.34690303755974,303.6070909828761,164.43931298462437,308.441609205593,161.53172293168896C312.3313159376244,159.19236416171944,316.90270435138444,156.8530053917499,321.2245429772879,154.51364662178037C325.4279500351687,152.2383934215178,329.77510919398304,149.9631402212552,334.00747674898287,147.68788702099263C338.29785470533614,145.3814483554762,343.34551298931825,143.07500968995978,346.79041052067777,140.76857102444336C355.3123663684744,135.0629242543274,355.40711310757354,129.35727748421147,359.57334429237267,123.65163071409553C363.93832430457877,117.67379775102506,366.9745527159742,111.69596478795461,372.35627806406757,105.71813182488414C376.0805394308227,101.58135208952183,379.0329161883981,97.44457235415952,385.13921183576247,93.30779261879721C388.75364796195777,90.8591515792727,393.23270837177364,88.41051053974822,397.92214560745737,85.96186950022371C401.8781989668364,83.89617288814145,406.40569057974426,81.83047627605919,410.7050793791523,79.76477966397692C414.92898335491674,77.73535070567972,418.719003639849,75.7059217473825,423.4880131508472,73.6764927890853C427.4060823450454,72.00917737170556,432.5258355009226,70.34186195432582,436.270946922542,68.67454653694608C441.56131348822686,66.3192869076498,444.0529717032676,63.964027278353505,449.053880694237,61.608767649057214C452.8814158700022,59.80612754993324,456.6703157143391,58.00348745080925,461.8368144659319,56.200847351685276C465.61383734852524,54.883008476494894,470.3812479304302,53.565169601304504,474.61974823762677,52.24733072611412C478.90368831407363,50.91536367112956,482.6128516880615,49.58339661614501,487.4026820093218,48.25142956116045C491.3114689610417,47.16446507694161,495.6974151821775,46.07750059272277,500.1856157810166,44.99053610850393C504.25939528165543,44.0039372397104,508.60606656109854,43.01733837091687,512.9685495527115,42.03073950212334C517.1368573424583,41.08805439411174,520.8174271661295,40.14536928610013,525.7514833244064,39.202684178088525C529.6024491283101,38.46693087525832,534.3218164719311,37.731177572428116,538.5344170961014,36.99542426959791C542.8460741879459,36.242370223174824,547.1994394644798,35.48931617675174,551.3173508677962,34.736262130328655C555.7436240710679,33.926817093795485,559.6536519453255,33.117372057262315,564.1002846394912,32.307927020729146C568.2032001034179,31.56105072443686,572.96672091341,30.81417442814457,576.883218411186,30.067298131852287C581.6557129173077,29.157183157227255,585.9145207541769,28.247068182602224,589.666152182881,27.336953207977192C594.9297577207533,26.060045731436613,597.98221708466,24.78313825489603,602.4490859545758,23.50623077835545C606.5375766772313,22.3374871855703,610.8847982017511,21.16874359278515,615.2320197262708,20"></path></g>

</svg>
