<svg class="plot" fill="currentColor" text-anchor="middle" width="640" height="460" viewBox="0 0 640 400" style="font-family: 'RO Sans', sans-serif; font-size: 14px;" xmlns="http://www.w3.org/2000/svg">

<g transform="translate(40,0)" fill="none" text-anchor="end"><g class="tick" opacity="1" transform="translate(0,320.0890382244191)"><line stroke="currentColor" x2="0"></line><line stroke="currentColor" x2="580" stroke-opacity="0.1"></line><text fill="currentColor" x="-9" dy="0.32em">0m</text></g><g class="tick" opacity="1" transform="translate(0,284.09218177846844)"><line stroke="currentColor" x2="0"></line><line stroke="currentColor" x2="580" stroke-opacity="0.1"></line><text fill="currentColor" x="-9" dy="0.32em">2m</text></g><g class="tick" opacity="1" transform="translate(0,248.09532533251777)"><line stroke="currentColor" x2="0"></line><line stroke="currentColor" x2="580" stroke-opacity="0.1"></line><text fill="currentColor" x="-9" dy="0.32em">4m</text></g><g class="tick" opacity="1" transform="translate(0,212.09846888656708)"><line stroke="currentColor" x2="0"></line><line stroke="currentColor" x2="580" stroke-opacity="0.1"></line><text fill="currentColor" x="-9" dy="0.32em">6m</text></g><g class="tick" opacity="1" transform="translate(0,176.10161244061644)"><line stroke="currentColor" x2="0"></line><line stroke="currentColor" x2="580" stroke-opacity="0.1"></line><text fill="currentColor" x="-9" dy="0.32em">8m</text></g><g class="tick" opacity="1" transform="translate(0,140.10475599466577)"><line stroke="currentColor" x2="0"></line><line stroke="currentColor" x2="580" stroke-opacity="0.1"></line><text fill="currentColor" x="-9" dy="0.32em">10m</text></g><g class="tick" opacity="1" transform="translate(0,104.10789954871514)"><line stroke="currentColor" x2="0"></line><line stroke="currentColor" x2="580" stroke-opacity="0.1"></line><text fill="currentColor" x="-9" dy="0.32em">12m</text></g><g class="tick" opacity="1" transform="translate(0,68.11104310276448)"><line stroke="currentColor" x2="0"></line><line stroke="currentColor" x2="580" stroke-opacity="0.1"></line><text fill="currentColor" x="-9" dy="0.32em">14m</text></g><text fill="currentColor" transform="translate(-40,40)" dy="-1em" text-anchor="start">↑ Number of downloads CoronaCheck (million)</text></g><g transform="translate(0,320)" fill="none" text-anchor="middle"><g class="tick" opacity="1" transform="translate(46.996330387260464,0)"><line stroke="currentColor" y2="6"></line><text fill="currentColor" dy="0.32em" transform="translate(0, 11.82842712474619) rotate(-45)" text-anchor="end">Apr 2021</text></g><g class="tick" opacity="1" transform="translate(99.46880829171391,0)"><line stroke="currentColor" y2="6"></line><text fill="currentColor" dy="0.32em" transform="translate(0, 11.82842712474619) rotate(-45)" text-anchor="end">May 2021</text></g><g class="tick" opacity="1" transform="translate(153.6903687929825,0)"><line stroke="currentColor" y2="6"></line><text fill="currentColor" dy="0.32em" transform="translate(0, 11.82842712474619) rotate(-45)" text-anchor="end">Jun 2021</text></g><g class="tick" opacity="1" transform="translate(206.16284669743595,0)"><line stroke="currentColor" y2="6"></line><text fill="currentColor" dy="0.32em" transform="translate(0, 11.82842712474619) rotate(-45)" text-anchor="end">Jul 2021</text></g><g class="tick" opacity="1" transform="translate(260.3844071987045,0)"><line stroke="currentColor" y2="6"></line><text fill="currentColor" dy="0.32em" transform="translate(0, 11.82842712474619) rotate(-45)" text-anchor="end">Aug 2021</text></g><g class="tick" opacity="1" transform="translate(314.6059676999731,0)"><line stroke="currentColor" y2="6"></line><text fill="currentColor" dy="0.32em" transform="translate(0, 11.82842712474619) rotate(-45)" text-anchor="end">Sep 2021</text></g><g class="tick" opacity="1" transform="translate(367.0784456044265,0)"><line stroke="currentColor" y2="6"></line><text fill="currentColor" dy="0.32em" transform="translate(0, 11.82842712474619) rotate(-45)" text-anchor="end">Oct 2021</text></g><g class="tick" opacity="1" transform="translate(421.3000061056951,0)"><line stroke="currentColor" y2="6"></line><text fill="currentColor" dy="0.32em" transform="translate(0, 11.82842712474619) rotate(-45)" text-anchor="end">Nov 2021</text></g><g class="tick" opacity="1" transform="translate(473.77248401014856,0)"><line stroke="currentColor" y2="6"></line><text fill="currentColor" dy="0.32em" transform="translate(0, 11.82842712474619) rotate(-45)" text-anchor="end">Dec 2021</text></g><g class="tick" opacity="1" transform="translate(527.9940445114171,0)"><line stroke="currentColor" y2="6"></line><text fill="currentColor" dy="0.32em" transform="translate(0, 11.82842712474619) rotate(-45)" text-anchor="end">Jan 2022</text></g><g class="tick" opacity="1" transform="translate(582.2156050126857,0)"><line stroke="currentColor" y2="6"></line><text fill="currentColor" dy="0.32em" transform="translate(0, 11.82842712474619) rotate(-45)" text-anchor="end">Feb 2022</text></g><text fill="currentColor" transform="translate(640,-10)" dy="-0.32em" text-anchor="end">Month →</text></g><g fill="none" stroke="#ec025f" stroke-width="3" stroke-miterlimit="1"><path d="M40,320C46.03645449595775,319.99669428868305,52.072908991915504,319.9933885773661,52.2435781777058,319.99008286604914C60.40596362950968,319.8319846725385,61.03831336787986,319.6738864790279,64.48715635541161,319.51578828551726C70.47355310300827,319.2413662504016,72.53114136376837,318.9669442152859,76.73073453311741,318.6925221801702C80.70584626788839,318.43276886405624,80.81192725901936,318.1730155479422,88.97431271082323,317.91326223182824C91.77296875369154,317.82420000950486,97.12225083751169,317.73513778718154,101.21789088852904,317.64607556485817C105.28483800823561,317.5576372880465,108.57783253746764,317.46919901123493,113.46146906623484,317.3807607344233C117.09777559494745,317.3149104850315,124.21329203274122,317.2490602356397,125.70504724394064,317.1832099862479C133.86743269574453,316.8228994516522,131.01947653476122,316.4625889170564,137.94862542164645,316.10227838246067C141.34541634325066,315.9256478073565,148.1610760809345,315.74901723225224,150.19220359935224,315.57238665714806C158.35458905115613,314.86257064436643,158.72963583593787,314.15275463158486,162.43578177705808,313.4429386188032C167.11475461249626,312.54680287705736,171.83503771088317,311.6506671353115,174.67935995476387,310.7545313935656C182.84174540656775,308.18287997221046,185.2560250536819,305.6112285508553,186.92293813246968,303.0395771295001C195.08532358427354,290.4469528253911,194.16635929582614,277.8543285212821,199.16651631017547,265.26170421717313C202.77033637091938,256.1856788135059,205.7738041237556,247.10965340983861,211.41009448788128,238.03362800617137C214.89633137366195,232.4197982539039,219.33413124466827,226.8059685016364,223.6536726655871,221.19213874936895C227.54175388590514,216.13905002838825,231.22987142158473,211.08596130740756,235.8972508432929,206.03287258642686C239.60793537955294,202.01553941439371,243.89865090598374,197.9982062423606,248.1408290209987,193.98087307032745C252.08300094642303,190.24764508779398,256.21769122671566,186.5144171052605,260.3844071987045,182.78118912272703C264.3866934438301,179.1952842746747,268.2697128124067,175.60937942662238,272.6279853764103,172.02347457857005C276.491442996883,168.8446941769214,279.87421642249325,165.66591377527277,284.8715635541161,162.48713337362412C288.4761146154429,160.19430160334713,292.48460832935325,157.90146983307017,297.11514173182195,155.60863806279318C300.8407284643002,153.76389516155538,305.2192344023083,151.91915226031762,309.35871990952774,150.07440935907982C313.3847708806938,148.2802180432443,317.5485085611414,146.4860267274088,321.6022980872335,144.6918354115733C325.7116503579018,142.8730522433091,330.5463307151705,141.05426907504494,333.84587626493936,139.23548590678075C342.0082617167432,134.73619682326884,342.0990107676232,130.23690773975696,346.08945444264515,125.73761865624505C350.2702610538713,121.02369231669812,353.17838062831567,116.30976597715117,358.33303262035093,111.59583963760424C361.9001546920496,108.33370851485499,364.72796060006874,105.07157739210575,370.5766107980568,101.8094462693565C374.0385415308426,99.87852689378711,378.32861509843616,97.94760751821774,382.82018897576256,96.01668814264835C386.6093229449915,94.38774639580404,390.9457842379607,92.75880464895975,395.06376715346835,91.12986290211545C399.10945020761255,89.52952065771744,402.7395566043467,87.92917841331945,407.3073453311742,86.32883616892144C411.0600978167615,85.01404498775702,415.96383111727664,83.6992538065926,419.55092350888,82.38446262542817C424.6180714572727,80.52718081919505,427.00459811013883,78.66989901296192,431.7945016865858,76.8126172067288C435.46054009289963,75.39111334463036,439.08957332425035,73.96960948253192,444.03807986429155,72.54810562043347C447.65573726344144,71.50890037274317,452.22199452544993,70.46969512505287,456.28165804199733,69.43048987736256C460.3848440688799,68.38014360260225,463.93750518364385,67.32979732784194,468.5252362197032,66.27945105308163C472.26909811229547,65.4223059063428,476.46998629655525,64.56516075960396,480.76881439740896,63.708015612865125C484.6707072402906,62.9300155544988,488.83397762666266,62.15201549613247,493.0123925751148,61.37401543776615C497.00482523603586,60.63064435530082,500.53009925993837,59.88727327283549,505.2559707528206,59.14390219037016C508.94445116912135,58.5637108576504,513.4646923010031,57.98351952493064,517.4995489305264,57.40332819221088C521.6292824973505,56.8094940508981,525.7989644382347,56.215659909585334,529.7431271082322,55.62182576827256C533.9826407416472,54.983523510296884,537.7276911980208,54.3452212523212,541.986705285938,53.70691899434553C545.9165047463981,53.11795642760512,550.4790363592437,52.52899386086471,554.2302834636439,51.9400312941243C558.8014101417591,51.222343968733156,562.8805243440083,50.50465664334201,566.4738616413497,49.78696931795086C571.5153777010077,48.78004125154043,574.4390433886933,47.77311318512999,578.7174398190555,46.76618511871956C582.633423167299,45.84455160365781,586.4711257155986,44.922918088596056,590.9610179967613,44.001284573534306C594.7510004330675,43.22332051202443,598.1718555387727,42.44535645051455,603.204596174467,41.667392389004675C606.8001150623641,41.111594926003114,611.1241447072684,40.55579746300156,615.4481743521728,40"></path></g>

</svg>
