<svg class="plot" fill="currentColor" text-anchor="middle" width="640" height="460" viewBox="0 0 640 400" style="font-family: 'RO Sans', sans-serif; font-size: 14px;" xmlns="http://www.w3.org/2000/svg"><g transform="translate(40,0)" fill="none" text-anchor="end"><g class="tick" opacity="1" transform="translate(0,370.030485867088)"><line stroke="currentColor" x2="0"></line><line stroke="currentColor" x2="580" stroke-opacity="0.1"></line><text fill="currentColor" x="-9" dy="0.32em">0m</text></g><g class="tick" opacity="1" transform="translate(0,305.7143105760005)"><line stroke="currentColor" x2="0"></line><line stroke="currentColor" x2="580" stroke-opacity="0.1"></line><text fill="currentColor" x="-9" dy="0.32em">0.5m</text></g><g class="tick" opacity="1" transform="translate(0,241.39813528491308)"><line stroke="currentColor" x2="0"></line><line stroke="currentColor" x2="580" stroke-opacity="0.1"></line><text fill="currentColor" x="-9" dy="0.32em">1m</text></g><g class="tick" opacity="1" transform="translate(0,177.08195999382565)"><line stroke="currentColor" x2="0"></line><line stroke="currentColor" x2="580" stroke-opacity="0.1"></line><text fill="currentColor" x="-9" dy="0.32em">1.5m</text></g><g class="tick" opacity="1" transform="translate(0,112.76578470273822)"><line stroke="currentColor" x2="0"></line><line stroke="currentColor" x2="580" stroke-opacity="0.1"></line><text fill="currentColor" x="-9" dy="0.32em">2m</text></g><g class="tick" opacity="1" transform="translate(0,48.44960941165073)"><line stroke="currentColor" x2="0"></line><line stroke="currentColor" x2="580" stroke-opacity="0.1"></line><text fill="currentColor" x="-9" dy="0.32em">2.5m</text></g><g class="tick" opacity="1" transform="translate(0,-15.866565879436678)"><line stroke="currentColor" x2="0"></line><line stroke="currentColor" x2="580" stroke-opacity="0.1"></line><text fill="currentColor" x="-9" dy="0.32em">3m</text></g><text fill="currentColor" transform="translate(10,20)" dy="-1em" text-anchor="start">↑ Aantal downloads CoronaCheck Scanner (miljoen)</text></g><g transform="translate(0,370)" fill="none" text-anchor="middle"><g class="tick" opacity="1" transform="translate(47.4358974358974,0)"><line stroke="currentColor" y2="0"></line><text fill="currentColor" y="9" dy="0.71em">12</text></g><g class="tick" opacity="1" transform="translate(77.17948717948715,0)"><line stroke="currentColor" y2="0"></line><text fill="currentColor" y="9" dy="0.71em">14</text></g><g class="tick" opacity="1" transform="translate(106.92307692307689,0)"><line stroke="currentColor" y2="0"></line><text fill="currentColor" y="9" dy="0.71em">16</text></g><g class="tick" opacity="1" transform="translate(136.66666666666663,0)"><line stroke="currentColor" y2="0"></line><text fill="currentColor" y="9" dy="0.71em">18</text></g><g class="tick" opacity="1" transform="translate(166.41025641025638,0)"><line stroke="currentColor" y2="0"></line><text fill="currentColor" y="9" dy="0.71em">20</text></g><g class="tick" opacity="1" transform="translate(196.15384615384613,0)"><line stroke="currentColor" y2="0"></line><text fill="currentColor" y="9" dy="0.71em">22</text></g><g class="tick" opacity="1" transform="translate(225.89743589743586,0)"><line stroke="currentColor" y2="0"></line><text fill="currentColor" y="9" dy="0.71em">24</text></g><g class="tick" opacity="1" transform="translate(255.6410256410256,0)"><line stroke="currentColor" y2="0"></line><text fill="currentColor" y="9" dy="0.71em">26</text></g><g class="tick" opacity="1" transform="translate(285.38461538461536,0)"><line stroke="currentColor" y2="0"></line><text fill="currentColor" y="9" dy="0.71em">28</text></g><g class="tick" opacity="1" transform="translate(315.1282051282051,0)"><line stroke="currentColor" y2="0"></line><text fill="currentColor" y="9" dy="0.71em">30</text></g><g class="tick" opacity="1" transform="translate(344.87179487179486,0)"><line stroke="currentColor" y2="0"></line><text fill="currentColor" y="9" dy="0.71em">32</text></g><g class="tick" opacity="1" transform="translate(374.6153846153846,0)"><line stroke="currentColor" y2="0"></line><text fill="currentColor" y="9" dy="0.71em">34</text></g><g class="tick" opacity="1" transform="translate(404.3589743589743,0)"><line stroke="currentColor" y2="0"></line><text fill="currentColor" y="9" dy="0.71em">36</text></g><g class="tick" opacity="1" transform="translate(434.1025641025641,0)"><line stroke="currentColor" y2="0"></line><text fill="currentColor" y="9" dy="0.71em">38</text></g><g class="tick" opacity="1" transform="translate(463.8461538461538,0)"><line stroke="currentColor" y2="0"></line><text fill="currentColor" y="9" dy="0.71em">40</text></g><g class="tick" opacity="1" transform="translate(493.5897435897436,0)"><line stroke="currentColor" y2="0"></line><text fill="currentColor" y="9" dy="0.71em">42</text></g><g class="tick" opacity="1" transform="translate(523.3333333333333,0)"><line stroke="currentColor" y2="0"></line><text fill="currentColor" y="9" dy="0.71em">44</text></g><g class="tick" opacity="1" transform="translate(553.0769230769231,0)"><line stroke="currentColor" y2="0"></line><text fill="currentColor" y="9" dy="0.71em">46</text></g><g class="tick" opacity="1" transform="translate(582.8205128205127,0)"><line stroke="currentColor" y2="0"></line><text fill="currentColor" y="9" dy="0.71em">48</text></g><g class="tick" opacity="1" transform="translate(612.5641025641025,0)"><line stroke="currentColor" y2="0"></line><text fill="currentColor" y="9" dy="0.71em">50</text></g><text fill="currentColor" transform="translate(640,-10)" dy="-0.32em" text-anchor="end">Weeknummer →</text></g><g fill="none" stroke="#ec025f" stroke-width="3" stroke-miterlimit="1"><path d="M47.4358974358974,370C54.5811006073009,369.99596951968175,61.72630377870439,369.9919390393635,62.30769230769228,369.98790855904525C72.2222222222222,369.9191760063842,72.47345451758657,369.8504434537231,77.17948717948715,369.781710901062C82.45212265096016,369.7047030005135,86.99459618286107,369.62769509996497,92.05128205128202,369.5506871994165C96.91651210731345,369.4765949654811,99.27428702452254,369.40250273154584,106.92307692307689,369.3284104976105C111.08387698363568,369.28810569442805,116.93666782952296,369.2478008912456,121.79487179487177,369.2074960880632C126.85980784384802,369.16547618687304,130.9218444854176,369.12345628568283,136.66666666666663,369.0814363844927C141.14528314266238,369.0486780125444,150.14502871014997,369.01591964059617,151.5384615384615,368.9831612686479C161.45299145299143,368.750079449393,159.68820660228153,368.5169976301381,166.41025641025638,368.28391581088323C170.6616190371547,368.13650313711605,177.83482698531208,367.9890904633489,181.28205128205124,367.8416777895817C191.19658119658118,367.41770556206285,190.03032976677568,366.99373333454406,196.15384615384613,366.5697611070252C200.51858558508394,366.2675608380575,207.50872488302605,365.9653605690897,211.025641025641,365.66316030012194C220.9401709401709,364.8112282422162,224.9527534588462,363.9592961843105,225.89743589743586,363.1073641264048C235.8119658119658,354.16625806978834,234.1739906739814,345.22515201317196,240.76923076923075,336.28404595655553C245.03973626070638,330.49456112155303,249.43166146170552,324.70507628655054,255.6410256410256,318.91559145154804C259.9853823824656,314.8650016091655,264.01958187668447,310.81441176678305,270.5128205128205,306.76382192440053C274.80038291830306,304.08916945874535,279.49262201822916,301.41451699309016,285.38461538461536,298.739864527435C289.81369345485075,296.7292980103854,294.8983308600781,294.71873149333584,300.2564102564102,292.70816497628624C304.91117817112706,290.9615091651811,309.9567057125839,289.2148533540759,315.1282051282051,287.46819754297076C319.9028539160465,285.85557664117226,325.2310038116946,284.2429557393737,330,282.6303348375752C335.1793251344729,280.8789625069487,339.20384121526206,279.12759017632214,344.87179487179486,277.37621784569563C349.37954286504913,275.98334387614165,354.4362575341771,274.5904699065877,359.7435897435897,273.1975959370337C364.4281252658458,271.9681708076195,369.79111332895815,270.73874567820525,374.6153846153846,269.50932054879104C379.7216451835762,268.20803281285157,384.67847110060757,266.90674507691205,389.48717948717945,265.6054573409726C394.61325724006656,264.2182860722944,401.9670841285146,262.83111480361623,404.3589743589743,261.44394353493806C414.2735042735043,255.69403458646465,415.0511865277907,249.94412563799125,419.2307692307692,244.19421668951784C426.61635781855983,234.03376170428282,428.31062754072775,223.87330671904778,434.1025641025641,213.71285173381276C438.56448050103313,205.88557320088742,441.33769683946315,198.0582946679621,448.97435897435895,190.23101613503675C453.1359319635643,185.96556738973183,458.8387352322376,181.70011864442688,463.8461538461538,177.43466989912196C468.7552160470062,173.25300369149622,473.2168524719891,169.0713374838705,478.7179487179487,164.88967127624477C483.2982095331996,161.40797944303705,489.08151850966306,157.92628760982933,493.5897435897436,154.4445957766216C499.2564905198758,150.06818019021446,505.1399027828837,145.6917646038073,508.46153846153845,141.31534901740014C518.3760683760684,128.25247655107913,517.0637936726058,115.1896040847581,523.3333333333333,102.12673161843709C527.6643649818726,93.10282920549596,531.176507064378,84.07892679255484,538.2051282051282,75.05502437961371C542.418166367264,69.64599116018306,546.7262812230159,64.23695794075242,553.0769230769231,58.827924721321764C557.3911469533726,55.15337011714116,560.9833847854125,51.47881551296056,567.948717948718,47.80426090877995C572.1688488001669,45.57793506235387,577.3984771466576,43.35160921592779,582.8205128205127,41.12528336950171C587.4403591361537,39.228342095466374,592.6154217607756,37.33140082143104,597.6923076923076,35.434459547395704C602.5404864594097,33.622973031597134,607.5522945117561,31.811486515798567,612.5641025641025,30"></path></g></svg>
