<svg class="plot" fill="currentColor" text-anchor="middle" width="640" height="460" viewBox="0 0 640 400" style="font-family: 'RO Sans', sans-serif; font-size: 14px;" xmlns="http://www.w3.org/2000/svg">

<g transform="translate(40,0)" fill="none" text-anchor="end"><g class="tick" opacity="1" transform="translate(0,370.11405546437294)"><line stroke="currentColor" x2="0"></line><line stroke="currentColor" x2="580" stroke-opacity="0.1"></line><text fill="currentColor" x="-9" dy="0.32em">0m</text></g><g class="tick" opacity="1" transform="translate(0,324.0030935185641)"><line stroke="currentColor" x2="0"></line><line stroke="currentColor" x2="580" stroke-opacity="0.1"></line><text fill="currentColor" x="-9" dy="0.32em">2m</text></g><g class="tick" opacity="1" transform="translate(0,277.8921315727553)"><line stroke="currentColor" x2="0"></line><line stroke="currentColor" x2="580" stroke-opacity="0.1"></line><text fill="currentColor" x="-9" dy="0.32em">4m</text></g><g class="tick" opacity="1" transform="translate(0,231.7811696269465)"><line stroke="currentColor" x2="0"></line><line stroke="currentColor" x2="580" stroke-opacity="0.1"></line><text fill="currentColor" x="-9" dy="0.32em">6m</text></g><g class="tick" opacity="1" transform="translate(0,185.67020768113767)"><line stroke="currentColor" x2="0"></line><line stroke="currentColor" x2="580" stroke-opacity="0.1"></line><text fill="currentColor" x="-9" dy="0.32em">8m</text></g><g class="tick" opacity="1" transform="translate(0,139.5592457353289)"><line stroke="currentColor" x2="0"></line><line stroke="currentColor" x2="580" stroke-opacity="0.1"></line><text fill="currentColor" x="-9" dy="0.32em">10m</text></g><g class="tick" opacity="1" transform="translate(0,93.44828378952006)"><line stroke="currentColor" x2="0"></line><line stroke="currentColor" x2="580" stroke-opacity="0.1"></line><text fill="currentColor" x="-9" dy="0.32em">12m</text></g><g class="tick" opacity="1" transform="translate(0,47.337321843711266)"><line stroke="currentColor" x2="0"></line><line stroke="currentColor" x2="580" stroke-opacity="0.1"></line><text fill="currentColor" x="-9" dy="0.32em">14m</text></g><g class="tick" opacity="1" transform="translate(0,1.2263598979024337)"><line stroke="currentColor" x2="0"></line><line stroke="currentColor" x2="580" stroke-opacity="0.1"></line><text fill="currentColor" x="-9" dy="0.32em">16m</text></g><text fill="currentColor" transform="translate(10,20)" dy="-1em" text-anchor="start">↑ Number of downloads CoronaCheck (million)</text></g><g transform="translate(0,370)" fill="none" text-anchor="middle"><g class="tick" opacity="1" transform="translate(103.52419669183104,0)"><line stroke="currentColor" y2="6"></line><text fill="currentColor" y="9" dy="0.71em">May 2021</text></g><g class="tick" opacity="1" transform="translate(217.49407899188083,0)"><line stroke="currentColor" y2="6"></line><text fill="currentColor" y="9" dy="0.71em">Jul 2021</text></g><g class="tick" opacity="1" transform="translate(333.3323200181609,0)"><line stroke="currentColor" y2="6"></line><text fill="currentColor" y="9" dy="0.71em">Sep 2021</text></g><g class="tick" opacity="1" transform="translate(447.3022023182108,0)"><line stroke="currentColor" y2="6"></line><text fill="currentColor" y="9" dy="0.71em">Nov 2021</text></g><g class="tick" opacity="1" transform="translate(561.2720846182605,0)"><line stroke="currentColor" y2="6"></line><text fill="currentColor" y="9" dy="0.71em">Jan 2022</text></g><text fill="currentColor" transform="translate(640,-10)" dy="-0.32em" text-anchor="end">Week number →</text></g><g fill="none" stroke="#ec025f" stroke-width="3" stroke-miterlimit="1"><path d="M40,370C46.44810168116215,369.9957654766613,52.8962033623243,369.99153095332264,53.07851108361227,369.9872964299839C61.797518472687116,369.7847770851179,62.47299037656674,369.5822577402519,66.15702216722454,369.3797383953859C72.55165248509266,369.02821147699206,74.74955496778807,368.6766845585982,79.23553325083681,368.32515764020434C83.48172191621093,367.9924209388034,83.59503694537423,367.6596842374025,92.31404433444908,367.3269475360015C95.30355063274067,367.21286133098727,101.01761918420372,367.09877512597296,105.39255541806136,366.9846889209587C109.73684204812533,366.8714019726182,113.25439752281828,366.75811502427763,118.47106650167362,366.6448280759371C122.35534563551153,366.56047575621756,129.95609430935662,366.476123436498,131.54957758528587,366.3917711167785C140.26858497436072,365.93022344318194,137.2264166085084,365.4686757695854,144.62808866889816,365.00712809598883C148.25651877912586,364.78086929088107,155.53696246377837,364.5546104857733,157.70659975251044,364.32835168066555C166.4256071415853,363.4190973072165,166.82622969329756,362.5098429337674,170.78511083612273,361.60058856031833C175.78315938043028,360.45266384783775,180.8253352806465,359.3047391353571,183.86362191973498,358.15681442287655C192.58262930880983,354.862601190506,195.16154722524186,351.5683879581355,196.94213300334724,348.2741747257649C205.66114039242208,332.14337672243107,204.67950867843606,316.0125787190972,210.0206440869595,299.88178071576334C213.87022138566184,288.2556471216791,217.07850622891678,276.6295135275949,223.09915517057178,265.00337993351064C226.82313088167587,257.81222171485524,231.5635600239909,250.6210634961999,236.17766625418406,243.42990527754452C240.3308894864665,236.95704056859998,244.27051280311105,230.48417585965547,249.25617733779632,224.01131115071092C253.21990657861858,218.8652202053141,257.80322117461094,213.7191292599173,262.3346884214086,208.5730383145205C266.54569099531693,203.79087813628098,270.96234043171927,199.0087179580415,275.4131995050209,194.226557779802C279.68841580673705,189.63311439848601,283.8362320017022,185.03967101717006,288.49171058863317,180.4462276358541C292.6186310506942,176.37429923414524,296.2320877622912,172.30237083243637,301.57022167224545,168.23044243072752C305.4205798210462,165.29338933926857,309.70242690080164,162.35633624780962,314.64873275585774,159.41928315635067C318.62838042637276,157.05621931919316,323.30547217265433,154.69315548203565,327.72724383946996,152.33009164487814C332.0278454679597,150.0317829686132,336.4755231494847,147.73347429234826,340.8057549230822,145.4351656160833C345.1953384613541,143.10535546764905,350.3597127741997,140.77554531921476,353.8842660066945,138.4457351707805C362.60327339576935,132.68227224105158,362.7002109454411,126.91880931132268,366.96277709030676,121.15534638159376C371.42868769337906,115.11693915610265,374.5351222286765,109.07853193061155,380.041288173919,103.04012470512043C383.851664917889,98.86142637102604,386.87230891374935,94.68272803693166,393.1197992575313,90.50402970283727C396.8178112930882,88.03057622278149,401.4004401527993,85.5571227427257,406.19831034114355,83.08366926266991C410.2458387592729,80.99704064237753,414.8780186874432,78.91041202208515,419.2768214247558,76.82378340179277C423.5983939174078,74.77378994076632,427.47605011033585,72.72379647973986,432.3553325083681,70.67380301871341C436.36399846079183,68.98959244848243,441.6021346813491,67.30538187825144,445.43384359198035,65.62117130802045C450.8465382833108,63.24204548578514,453.39581063064463,60.86291966354984,458.51235467559263,58.48379384131453C462.4283932089381,56.66288732439519,466.3049030535391,54.84198080747585,471.5908657592049,53.02107429055651C475.45522401336683,51.68988155982231,480.33287051057687,50.35868882908811,484.66937684281726,49.02749609835391C489.05237363932747,47.68203202489748,492.8473032825556,46.33656795144106,497.7478879264295,44.991103877984635C501.74705700487254,43.893125022451684,506.2344186144796,42.795146166918734,510.82639901004177,41.69716731138578C514.9943757282872,40.70057109085101,519.4415542493005,39.70397487031624,523.904910093654,38.70737864978146C528.169600860403,37.75514117463856,531.9352757901659,36.802903699495666,536.9834211772662,35.850666224352764C540.9234321206452,35.10745742487054,545.7519244850394,34.36424862538832,550.0619322608786,33.621039825906095C554.4732869679872,32.86035497184642,558.9273142700949,32.09967011778674,563.1404433444909,31.338985263727057C567.669064409263,30.521338001343647,571.6695031038561,29.703690738960233,576.2189544281031,28.886043476576823C580.4167408148954,28.131598972700484,585.2904075977469,27.37715446882414,589.2974655117154,26.622709964947802C594.1803134877412,25.70337266115323,598.5363567848945,24.784035357358658,602.3759765953276,23.864698053564087C607.7562909973645,22.576465369042726,611.6053893381522,21.28823268452136,615.4544876789399,20"></path></g>

</svg>
