<svg class="plot" fill="currentColor" text-anchor="middle" width="640" height="460" viewBox="0 0 640 400" style="font-family: 'RO Sans', sans-serif; font-size: 14px;" xmlns="http://www.w3.org/2000/svg">

<g transform="translate(40,0)" fill="none" text-anchor="end"><g class="tick" opacity="1" transform="translate(0,370.11786788503986)"><line stroke="currentColor" x2="0"></line><line stroke="currentColor" x2="580" stroke-opacity="0.1"></line><text fill="currentColor" x="-9" dy="0.32em">0m</text></g><g class="tick" opacity="1" transform="translate(0,322.46559982768946)"><line stroke="currentColor" x2="0"></line><line stroke="currentColor" x2="580" stroke-opacity="0.1"></line><text fill="currentColor" x="-9" dy="0.32em">2m</text></g><g class="tick" opacity="1" transform="translate(0,274.81333177033895)"><line stroke="currentColor" x2="0"></line><line stroke="currentColor" x2="580" stroke-opacity="0.1"></line><text fill="currentColor" x="-9" dy="0.32em">4m</text></g><g class="tick" opacity="1" transform="translate(0,227.16106371298847)"><line stroke="currentColor" x2="0"></line><line stroke="currentColor" x2="580" stroke-opacity="0.1"></line><text fill="currentColor" x="-9" dy="0.32em">6m</text></g><g class="tick" opacity="1" transform="translate(0,179.508795655638)"><line stroke="currentColor" x2="0"></line><line stroke="currentColor" x2="580" stroke-opacity="0.1"></line><text fill="currentColor" x="-9" dy="0.32em">8m</text></g><g class="tick" opacity="1" transform="translate(0,131.85652759828758)"><line stroke="currentColor" x2="0"></line><line stroke="currentColor" x2="580" stroke-opacity="0.1"></line><text fill="currentColor" x="-9" dy="0.32em">10m</text></g><g class="tick" opacity="1" transform="translate(0,84.2042595409371)"><line stroke="currentColor" x2="0"></line><line stroke="currentColor" x2="580" stroke-opacity="0.1"></line><text fill="currentColor" x="-9" dy="0.32em">12m</text></g><g class="tick" opacity="1" transform="translate(0,36.551991483586676)"><line stroke="currentColor" x2="0"></line><line stroke="currentColor" x2="580" stroke-opacity="0.1"></line><text fill="currentColor" x="-9" dy="0.32em">14m</text></g><g class="tick" opacity="1" transform="translate(0,-11.10027657376384)"><line stroke="currentColor" x2="0"></line><line stroke="currentColor" x2="580" stroke-opacity="0.1"></line><text fill="currentColor" x="-9" dy="0.32em">16m</text></g><text fill="currentColor" transform="translate(10,20)" dy="-1em" text-anchor="start">↑ Number of downloads CoronaCheck (million)</text></g><g transform="translate(0,370)" fill="none" text-anchor="middle"><g class="tick" opacity="1" transform="translate(50,0)"><line stroke="currentColor" y2="0"></line><text fill="currentColor" y="9" dy="0.71em">12</text></g><g class="tick" opacity="1" transform="translate(78,0)"><line stroke="currentColor" y2="0"></line><text fill="currentColor" y="9" dy="0.71em">14</text></g><g class="tick" opacity="1" transform="translate(106,0)"><line stroke="currentColor" y2="0"></line><text fill="currentColor" y="9" dy="0.71em">16</text></g><g class="tick" opacity="1" transform="translate(134,0)"><line stroke="currentColor" y2="0"></line><text fill="currentColor" y="9" dy="0.71em">18</text></g><g class="tick" opacity="1" transform="translate(162,0)"><line stroke="currentColor" y2="0"></line><text fill="currentColor" y="9" dy="0.71em">20</text></g><g class="tick" opacity="1" transform="translate(190,0)"><line stroke="currentColor" y2="0"></line><text fill="currentColor" y="9" dy="0.71em">22</text></g><g class="tick" opacity="1" transform="translate(218,0)"><line stroke="currentColor" y2="0"></line><text fill="currentColor" y="9" dy="0.71em">24</text></g><g class="tick" opacity="1" transform="translate(246,0)"><line stroke="currentColor" y2="0"></line><text fill="currentColor" y="9" dy="0.71em">26</text></g><g class="tick" opacity="1" transform="translate(274,0)"><line stroke="currentColor" y2="0"></line><text fill="currentColor" y="9" dy="0.71em">28</text></g><g class="tick" opacity="1" transform="translate(302,0)"><line stroke="currentColor" y2="0"></line><text fill="currentColor" y="9" dy="0.71em">30</text></g><g class="tick" opacity="1" transform="translate(330,0)"><line stroke="currentColor" y2="0"></line><text fill="currentColor" y="9" dy="0.71em">32</text></g><g class="tick" opacity="1" transform="translate(358,0)"><line stroke="currentColor" y2="0"></line><text fill="currentColor" y="9" dy="0.71em">34</text></g><g class="tick" opacity="1" transform="translate(386,0)"><line stroke="currentColor" y2="0"></line><text fill="currentColor" y="9" dy="0.71em">36</text></g><g class="tick" opacity="1" transform="translate(414,0)"><line stroke="currentColor" y2="0"></line><text fill="currentColor" y="9" dy="0.71em">38</text></g><g class="tick" opacity="1" transform="translate(442,0)"><line stroke="currentColor" y2="0"></line><text fill="currentColor" y="9" dy="0.71em">40</text></g><g class="tick" opacity="1" transform="translate(470,0)"><line stroke="currentColor" y2="0"></line><text fill="currentColor" y="9" dy="0.71em">42</text></g><g class="tick" opacity="1" transform="translate(498,0)"><line stroke="currentColor" y2="0"></line><text fill="currentColor" y="9" dy="0.71em">44</text></g><g class="tick" opacity="1" transform="translate(526,0)"><line stroke="currentColor" y2="0"></line><text fill="currentColor" y="9" dy="0.71em">46</text></g><g class="tick" opacity="1" transform="translate(554,0)"><line stroke="currentColor" y2="0"></line><text fill="currentColor" y="9" dy="0.71em">48</text></g><g class="tick" opacity="1" transform="translate(582,0)"><line stroke="currentColor" y2="0"></line><text fill="currentColor" y="9" dy="0.71em">50</text></g><g class="tick" opacity="1" transform="translate(610,0)"><line stroke="currentColor" y2="0"></line><text fill="currentColor" y="9" dy="0.71em">52</text></g><text fill="currentColor" transform="translate(640,-10)" dy="-0.32em" text-anchor="end">Week number →</text></g><g fill="none" stroke="#ec025f" stroke-width="3" stroke-miterlimit="1"><path d="M50,370C56.90242359846183,369.9956239333834,63.80484719692366,369.9912478667668,64,369.9868718001502C73.33333333333333,369.7775830388423,74.05639780098245,369.56829427753445,78,369.35900551622655C84.84518473684174,368.99572845069133,87.19794756748925,368.6324513851562,92,368.26917431962096C96.54536765960528,367.9253155533191,96.66666666666667,367.58145678701726,106,367.2375980207154C109.20014166050726,367.1196983674968,115.31681344440241,367.00179871427827,120,366.8838990610597C124.65037743456169,366.7668253804875,128.41577368883463,366.6497516999152,134,366.532678019343C138.15795861823062,366.44550613697675,146.29424269166552,366.35833425461055,148,366.2711623722443C157.33333333333334,365.7941869951242,154.07681912849338,365.3172116180042,162,364.8402362408841C165.8840829218579,364.6064145035714,173.6774938792299,364.3725927662586,176,364.1387710289459C185.33333333333334,363.1991238971677,185.7621830462796,362.2594767653895,190,361.3198296336113C195.3502022648422,360.1335343623682,200.74764102157337,358.94723909112514,204,357.7609438198821C213.33333333333334,354.35661813759685,216.09395727586215,350.9522924553117,218,347.5479667730265C227.33333333333334,330.8779803316852,226.28253757317802,314.20799389034386,232,297.5380074490026C236.12081175275094,285.52325843667523,239.5551467101797,273.50850942434795,246,261.4937604120206C249.98636049793043,254.06223036758325,255.06079195026666,246.6307003231459,260,239.19917027870855C264.44585204540687,232.5099434399346,268.6630543003435,225.82071660116065,274,219.1314897623867C278.24300664018585,213.81338545856096,283.1492535312632,208.49528115473518,288,203.17717685090943C292.5077024179448,198.23516807272628,297.2355412150622,193.29315929454313,302,188.35115051635998C306.57644053221196,183.60416658724623,311.0165045699505,178.85718265813244,316,174.1101987290187C320.41769602820085,169.9021619516336,324.28575055206375,165.69412517424846,330,161.48608839686335C334.1216476201756,158.45086129886104,338.70518612339936,155.41563420085876,344,152.38040710285645C348.26004665447147,149.93835543763205,353.26667806911234,147.49630377240766,358,145.05425210718326C362.6036144645165,142.67912011040076,367.3646677024017,140.30398811361826,372,137.92885611683576C376.6988658833505,135.5211696789254,382.22711293820316,133.11348324101502,386,130.70579680310465C395.3333333333333,124.74968422430368,395.4371009324681,118.7935716455027,400,112.83745906670173C404.78057081905564,106.59721189756415,408.1058792747451,100.35696472842656,414,94.11671755928899C418.0788491957944,89.79834195521705,421.3123224613431,85.47996635114511,428,81.16159074707318C431.9585674674136,78.6054595521195,436.86408030643605,76.0493283571658,442,73.49319716221213C446.3327101603189,71.33682084399155,451.2912653490395,69.18044452577098,456,67.0240682075504C460.6260628989288,64.9055516163014,464.77693193546736,62.78703502505238,470,60.66851843380337C474.29110951354807,58.92801140096397,479.89831561055485,57.18750436812456,484,55.446997335285154C489.79406365098987,52.98834679668746,492.5229532496992,50.52969625808977,498,48.071045719492076C502.1919557292369,46.18927353799665,506.341597647759,44.30750135650123,512,42.4257291750058C516.136634148367,41.0500399643688,521.3579510493792,39.6743507537318,526,38.2986615430948C530.691815051335,36.90822395549406,534.7541287708046,35.51778636789332,540,34.12734878029258C544.2809435065095,32.9926688574003,549.0791685195915,31.85798893450802,554,30.72330901161574C558.4580590875286,29.69533840099322,563.2267561602367,28.667367790370694,568,27.639397179748173C572.5690144689286,26.6554096125426,576.6061016498832,25.67142204533702,582,24.687434478131447C586.2212644308589,23.917365884279974,591.3981780483145,23.1472972904285,596,22.377228696577028C600.7353284661611,21.58481913105135,605.3676642330806,20.792409565525677,610,20"></path></g>

</svg>
