<svg class="plot" fill="currentColor" text-anchor="middle" width="640" height="460" viewBox="0 0 640 400" style="font-family: 'RO Sans', sans-serif; font-size: 14px;" xmlns="http://www.w3.org/2000/svg">

<style>
        line[stroke-opacity] {
            stroke-opacity: 1;
            stroke: #949494;
        }
</style>

<!-- replace the below code -->
<g transform="translate(40,0)" fill="none" text-anchor="end"><g class="tick" opacity="1" transform="translate(0,320)"><line stroke="currentColor" x2="-6"></line><line stroke="currentColor" x2="580" stroke-opacity="0.1"></line><text fill="currentColor" x="-9" dy="0.32em">0M</text></g><g class="tick" opacity="1" transform="translate(0,285)"><line stroke="currentColor" x2="-6"></line><line stroke="currentColor" x2="580" stroke-opacity="0.1"></line><text fill="currentColor" x="-9" dy="0.32em">0.5M</text></g><g class="tick" opacity="1" transform="translate(0,250)"><line stroke="currentColor" x2="-6"></line><line stroke="currentColor" x2="580" stroke-opacity="0.1"></line><text fill="currentColor" x="-9" dy="0.32em">1M</text></g><g class="tick" opacity="1" transform="translate(0,215)"><line stroke="currentColor" x2="-6"></line><line stroke="currentColor" x2="580" stroke-opacity="0.1"></line><text fill="currentColor" x="-9" dy="0.32em">1.5M</text></g><g class="tick" opacity="1" transform="translate(0,180)"><line stroke="currentColor" x2="-6"></line><line stroke="currentColor" x2="580" stroke-opacity="0.1"></line><text fill="currentColor" x="-9" dy="0.32em">2M</text></g><g class="tick" opacity="1" transform="translate(0,145)"><line stroke="currentColor" x2="-6"></line><line stroke="currentColor" x2="580" stroke-opacity="0.1"></line><text fill="currentColor" x="-9" dy="0.32em">2.5M</text></g><g class="tick" opacity="1" transform="translate(0,110)"><line stroke="currentColor" x2="-6"></line><line stroke="currentColor" x2="580" stroke-opacity="0.1"></line><text fill="currentColor" x="-9" dy="0.32em">3M</text></g><g class="tick" opacity="1" transform="translate(0,75)"><line stroke="currentColor" x2="-6"></line><line stroke="currentColor" x2="580" stroke-opacity="0.1"></line><text fill="currentColor" x="-9" dy="0.32em">3.5M</text></g><g class="tick" opacity="1" transform="translate(0,40)"><line stroke="currentColor" x2="-6"></line><line stroke="currentColor" x2="580" stroke-opacity="0.1"></line><text fill="currentColor" x="-9" dy="0.32em">4M</text></g><text fill="currentColor" transform="translate(20,40)" dy="-1em" text-anchor="start">↑ Number of downloads CoronaCheck Scanner (million)</text></g><g transform="translate(0,320)" fill="none" text-anchor="middle"><g class="tick" opacity="1" transform="translate(44.96788008565311,0)"><line stroke="currentColor" y2="6"></line><text fill="currentColor" dy="0.32em" transform="translate(0, 11.82842712474619) rotate(-45)" text-anchor="end">Apr 2021</text></g><g class="tick" opacity="1" transform="translate(82.22698072805139,0)"><line stroke="currentColor" y2="6"></line><text fill="currentColor" dy="0.32em" transform="translate(0, 11.82842712474619) rotate(-45)" text-anchor="end">May 2021</text></g><g class="tick" opacity="1" transform="translate(120.72805139186295,0)"><line stroke="currentColor" y2="6"></line><text fill="currentColor" dy="0.32em" transform="translate(0, 11.82842712474619) rotate(-45)" text-anchor="end">Jun 2021</text></g><g class="tick" opacity="1" transform="translate(157.98715203426124,0)"><line stroke="currentColor" y2="6"></line><text fill="currentColor" dy="0.32em" transform="translate(0, 11.82842712474619) rotate(-45)" text-anchor="end">Jul 2021</text></g><g class="tick" opacity="1" transform="translate(196.48822269807278,0)"><line stroke="currentColor" y2="6"></line><text fill="currentColor" dy="0.32em" transform="translate(0, 11.82842712474619) rotate(-45)" text-anchor="end">Aug 2021</text></g><g class="tick" opacity="1" transform="translate(234.98929336188436,0)"><line stroke="currentColor" y2="6"></line><text fill="currentColor" dy="0.32em" transform="translate(0, 11.82842712474619) rotate(-45)" text-anchor="end">Sep 2021</text></g><g class="tick" opacity="1" transform="translate(272.24839400428266,0)"><line stroke="currentColor" y2="6"></line><text fill="currentColor" dy="0.32em" transform="translate(0, 11.82842712474619) rotate(-45)" text-anchor="end">Oct 2021</text></g><g class="tick" opacity="1" transform="translate(310.7494646680942,0)"><line stroke="currentColor" y2="6"></line><text fill="currentColor" dy="0.32em" transform="translate(0, 11.82842712474619) rotate(-45)" text-anchor="end">Nov 2021</text></g><g class="tick" opacity="1" transform="translate(348.0085653104925,0)"><line stroke="currentColor" y2="6"></line><text fill="currentColor" dy="0.32em" transform="translate(0, 11.82842712474619) rotate(-45)" text-anchor="end">Dec 2021</text></g><g class="tick" opacity="1" transform="translate(386.50963597430405,0)"><line stroke="currentColor" y2="6"></line><text fill="currentColor" dy="0.32em" transform="translate(0, 11.82842712474619) rotate(-45)" text-anchor="end">Jan 2022</text></g><g class="tick" opacity="1" transform="translate(425.01070663811566,0)"><line stroke="currentColor" y2="6"></line><text fill="currentColor" dy="0.32em" transform="translate(0, 11.82842712474619) rotate(-45)" text-anchor="end">Feb 2022</text></g><g class="tick" opacity="1" transform="translate(459.7858672376874,0)"><line stroke="currentColor" y2="6"></line><text fill="currentColor" dy="0.32em" transform="translate(0, 11.82842712474619) rotate(-45)" text-anchor="end">Mar 2022</text></g><g class="tick" opacity="1" transform="translate(498.2869379014989,0)"><line stroke="currentColor" y2="6"></line><text fill="currentColor" dy="0.32em" transform="translate(0, 11.82842712474619) rotate(-45)" text-anchor="end">Apr 2022</text></g><g class="tick" opacity="1" transform="translate(535.5460385438971,0)"><line stroke="currentColor" y2="6"></line><text fill="currentColor" dy="0.32em" transform="translate(0, 11.82842712474619) rotate(-45)" text-anchor="end">May 2022</text></g><g class="tick" opacity="1" transform="translate(574.0471092077087,0)"><line stroke="currentColor" y2="6"></line><text fill="currentColor" dy="0.32em" transform="translate(0, 11.82842712474619) rotate(-45)" text-anchor="end">Jun 2022</text></g><g class="tick" opacity="1" transform="translate(611.306209850107,0)"><line stroke="currentColor" y2="6"></line><text fill="currentColor" dy="0.32em" transform="translate(0, 11.82842712474619) rotate(-45)" text-anchor="end">Jul 2022 *</text></g><text fill="currentColor" transform="translate(640,80)" dy="-0.32em" text-anchor="end">Maand →</text></g><g fill="none" stroke="#ec025f" stroke-width="3" stroke-miterlimit="1"><path d="M40,319.98341L48.69379014989293,319.97683L57.38758029978587,319.86462L66.0813704496788,319.7389L74.77516059957173,319.61794L83.46895074946467,319.55214L92.1627408993576,319.48354L100.85653104925055,319.43005999999997L109.55032119914347,319.04954000000004L118.24411134903639,318.80888000000004L126.93790149892934,318.11672L135.63169164882225,317.62336L144.3254817987152,316.23253L153.01927194860815,301.63563999999997L161.7130620985011,292.18396L170.406852248394,285.57113L179.10064239828694,281.20459999999997L187.79443254817988,277.92222999999996L196.48822269807278,275.07071L205.18201284796575,272.43801L213.87580299785867,269.57879L222.56959314775162,267.30484L231.26338329764454,265.29773L239.95717344753749,263.17330000000004L248.6509635974304,260.90866L257.34475374732335,251.52159L266.03854389721624,234.93404L274.73233404710925,222.15554000000003L283.42612419700214,215.19194L292.11991434689503,208.36512L300.813704496788,202.68105L309.507494646681,195.53629L318.2012847965739,174.21037L326.8950749464668,159.47831L335.58886509635977,150.64774L344.28265524625266,144.64937000000003L352.9764453961456,141.01420000000002L361.67023554603855,137.88968L370.3640256959315,134.93148L379.0578158458244,131.32045999999997L387.75160599571734,129.48142L396.4453961456103,127.57287L405.13918629550324,125.5407L413.8329764453961,123.31308999999999L422.5267665952891,119.34472L431.220556745182,114.39523L431.220556745182,114.39523L439.91434689507497,109.85622000000002L448.60813704496786,107.55062999999998L457.3019271948608,106.11794000000002L465.99571734475376,105.28305000000002L480.89935760171306,103.20706L495.8029978586724,103.09709000000001L511.94860813704497,102.32268L515.6745182012847,102.19206L524.3683083511777,101.67335999999999L533.0620985010706,101.20940000000002L541.7558886509636,100.76693L550.4496788008565,100.39558L559.1434689507495,100.04480999999998L567.8372591006424,99.6638L576.5310492505354,99.26948999999999L585.2248394004282,98.94574L593.9186295503212,98.61806999999999L602.6124197002141,98.28851L611.306209850107,97.92500000000001L620,97.56604"></path></g><g stroke="currentColor"><line x1="40" x2="620" y1="320" y2="320"></line></g>

</svg>

