<svg class="plot" fill="currentColor" text-anchor="middle" width="640" height="460" viewBox="0 0 640 400" style="font-family: 'RO Sans', sans-serif; font-size: 14px;" xmlns="http://www.w3.org/2000/svg">

<style>
        line[stroke-opacity] {
            stroke-opacity: 1;
            stroke: #949494;
        }
</style>

<!-- replace the below code -->

<g transform="translate(40,0)" fill="none" text-anchor="end"><g class="tick" opacity="1" transform="translate(0,320.5)"><line stroke="currentColor" x2="-6"></line><line stroke="currentColor" x2="580" stroke-opacity="0.1"></line><text fill="currentColor" x="-9" dy="0.32em">0M</text></g><g class="tick" opacity="1" transform="translate(0,285.5)"><line stroke="currentColor" x2="-6"></line><line stroke="currentColor" x2="580" stroke-opacity="0.1"></line><text fill="currentColor" x="-9" dy="0.32em">0.5M</text></g><g class="tick" opacity="1" transform="translate(0,250.5)"><line stroke="currentColor" x2="-6"></line><line stroke="currentColor" x2="580" stroke-opacity="0.1"></line><text fill="currentColor" x="-9" dy="0.32em">1M</text></g><g class="tick" opacity="1" transform="translate(0,215.5)"><line stroke="currentColor" x2="-6"></line><line stroke="currentColor" x2="580" stroke-opacity="0.1"></line><text fill="currentColor" x="-9" dy="0.32em">1.5M</text></g><g class="tick" opacity="1" transform="translate(0,180.5)"><line stroke="currentColor" x2="-6"></line><line stroke="currentColor" x2="580" stroke-opacity="0.1"></line><text fill="currentColor" x="-9" dy="0.32em">2M</text></g><g class="tick" opacity="1" transform="translate(0,145.5)"><line stroke="currentColor" x2="-6"></line><line stroke="currentColor" x2="580" stroke-opacity="0.1"></line><text fill="currentColor" x="-9" dy="0.32em">2.5M</text></g><g class="tick" opacity="1" transform="translate(0,110.5)"><line stroke="currentColor" x2="-6"></line><line stroke="currentColor" x2="580" stroke-opacity="0.1"></line><text fill="currentColor" x="-9" dy="0.32em">3M</text></g><g class="tick" opacity="1" transform="translate(0,75.5)"><line stroke="currentColor" x2="-6"></line><line stroke="currentColor" x2="580" stroke-opacity="0.1"></line><text fill="currentColor" x="-9" dy="0.32em">3.5M</text></g><g class="tick" opacity="1" transform="translate(0,40.5)"><line stroke="currentColor" x2="-6"></line><line stroke="currentColor" x2="580" stroke-opacity="0.1"></line><text fill="currentColor" x="-9" dy="0.32em">4M</text></g><text fill="currentColor" transform="translate(20,40)" dy="-1em" text-anchor="start">↑ Number of downloads CoronaCheck Scanner (million)</text></g><g transform="translate(0,320)" fill="none" text-anchor="middle"><g class="tick" opacity="1" transform="translate(44.50690846286702,0)"><line stroke="currentColor" y2="6"></line><text fill="currentColor" dy="0.32em" transform="translate(0, 11.82842712474619) rotate(-45)" text-anchor="end">Apr 2021</text></g><g class="tick" opacity="1" transform="translate(74.5587219343696,0)"><line stroke="currentColor" y2="6"></line><text fill="currentColor" dy="0.32em" transform="translate(0, 11.82842712474619) rotate(-45)" text-anchor="end">May 2021</text></g><g class="tick" opacity="1" transform="translate(105.61226252158896,0)"><line stroke="currentColor" y2="6"></line><text fill="currentColor" dy="0.32em" transform="translate(0, 11.82842712474619) rotate(-45)" text-anchor="end">Jun 2021</text></g><g class="tick" opacity="1" transform="translate(135.66407599309156,0)"><line stroke="currentColor" y2="6"></line><text fill="currentColor" dy="0.32em" transform="translate(0, 11.82842712474619) rotate(-45)" text-anchor="end">Jul 2021</text></g><g class="tick" opacity="1" transform="translate(166.71761658031087,0)"><line stroke="currentColor" y2="6"></line><text fill="currentColor" dy="0.32em" transform="translate(0, 11.82842712474619) rotate(-45)" text-anchor="end">Aug 2021</text></g><g class="tick" opacity="1" transform="translate(197.77115716753022,0)"><line stroke="currentColor" y2="6"></line><text fill="currentColor" dy="0.32em" transform="translate(0, 11.82842712474619) rotate(-45)" text-anchor="end">Sep 2021</text></g><g class="tick" opacity="1" transform="translate(227.8229706390328,0)"><line stroke="currentColor" y2="6"></line><text fill="currentColor" dy="0.32em" transform="translate(0, 11.82842712474619) rotate(-45)" text-anchor="end">Oct 2021</text></g><g class="tick" opacity="1" transform="translate(258.87651122625215,0)"><line stroke="currentColor" y2="6"></line><text fill="currentColor" dy="0.32em" transform="translate(0, 11.82842712474619) rotate(-45)" text-anchor="end">Nov 2021</text></g><g class="tick" opacity="1" transform="translate(288.92832469775476,0)"><line stroke="currentColor" y2="6"></line><text fill="currentColor" dy="0.32em" transform="translate(0, 11.82842712474619) rotate(-45)" text-anchor="end">Dec 2021</text></g><g class="tick" opacity="1" transform="translate(319.9818652849741,0)"><line stroke="currentColor" y2="6"></line><text fill="currentColor" dy="0.32em" transform="translate(0, 11.82842712474619) rotate(-45)" text-anchor="end">Jan 2022</text></g><g class="tick" opacity="1" transform="translate(351.03540587219345,0)"><line stroke="currentColor" y2="6"></line><text fill="currentColor" dy="0.32em" transform="translate(0, 11.82842712474619) rotate(-45)" text-anchor="end">Feb 2022</text></g><g class="tick" opacity="1" transform="translate(379.08376511226254,0)"><line stroke="currentColor" y2="6"></line><text fill="currentColor" dy="0.32em" transform="translate(0, 11.82842712474619) rotate(-45)" text-anchor="end">Mar 2022</text></g><g class="tick" opacity="1" transform="translate(410.1373056994819,0)"><line stroke="currentColor" y2="6"></line><text fill="currentColor" dy="0.32em" transform="translate(0, 11.82842712474619) rotate(-45)" text-anchor="end">Apr 2022</text></g><g class="tick" opacity="1" transform="translate(440.18911917098444,0)"><line stroke="currentColor" y2="6"></line><text fill="currentColor" dy="0.32em" transform="translate(0, 11.82842712474619) rotate(-45)" text-anchor="end">May 2022</text></g><g class="tick" opacity="1" transform="translate(471.24265975820384,0)"><line stroke="currentColor" y2="6"></line><text fill="currentColor" dy="0.32em" transform="translate(0, 11.82842712474619) rotate(-45)" text-anchor="end">Jun 2022</text></g><g class="tick" opacity="1" transform="translate(501.2944732297064,0)"><line stroke="currentColor" y2="6"></line><text fill="currentColor" dy="0.32em" transform="translate(0, 11.82842712474619) rotate(-45)" text-anchor="end">Jul 2022</text></g><g class="tick" opacity="1" transform="translate(532.3480138169258,0)"><line stroke="currentColor" y2="6"></line><text fill="currentColor" dy="0.32em" transform="translate(0, 11.82842712474619) rotate(-45)" text-anchor="end">Aug 2022</text></g><g class="tick" opacity="1" transform="translate(563.4015544041451,0)"><line stroke="currentColor" y2="6"></line><text fill="currentColor" dy="0.32em" transform="translate(0, 11.82842712474619) rotate(-45)" text-anchor="end">Sep 2022</text></g><g class="tick" opacity="1" transform="translate(593.4533678756476,0)"><line stroke="currentColor" y2="6"></line><text fill="currentColor" dy="0.32em" transform="translate(0, 11.82842712474619) rotate(-45)" text-anchor="end">Oct 2022</text></g><text fill="currentColor" transform="translate(640,80)" dy="-0.32em" text-anchor="end">Maand →</text></g><g fill="none" stroke="#ec025f" stroke-width="3" stroke-miterlimit="1" transform="translate(0.5,0.5)"><path d="M40,319.98341L47.01208981001727,319.97683L54.024179620034545,319.86462L61.03626943005182,319.7389L68.04835924006909,319.61794L75.06044905008636,319.55214L82.07253886010362,319.48354L89.08462867012089,319.43005999999997L96.09671848013818,319.04954000000004L103.10880829015544,318.80888000000004L110.12089810017272,318.11672L117.13298791018998,317.62336L124.14507772020724,316.23253L131.1571675302245,301.63563999999997L138.16925734024178,292.18396L145.18134715025906,285.57113L152.19343696027636,281.20459999999997L159.2055267702936,277.92222999999996L166.21761658031087,275.07071L173.22970639032815,272.43801L180.24179620034545,269.57879L187.2538860103627,267.30484L194.26597582037996,265.29773L201.27806563039726,263.17330000000004L208.29015544041448,260.90866L215.30224525043175,251.52159L222.31433506044905,234.93404L229.32642487046633,222.15554000000003L236.33851468048357,215.19194L243.35060449050087,208.36512L250.36269430051814,202.68105L257.3747841105354,195.53629L264.3868739205527,174.21037L271.3989637305699,159.47831L278.4110535405872,150.64774L285.42314335060445,144.64937000000003L292.43523316062175,141.01420000000002L299.44732297063905,137.88968L306.4594127806563,134.93148L313.4715025906736,131.32045999999997L320.4835924006909,129.48142L327.4956822107081,127.57287L334.5077720207254,125.5407L341.5198618307427,123.31308999999999L348.5319516407599,119.34472L355.54404145077723,114.39523L355.54404145077723,114.39523L362.55613126079453,109.85622000000002L369.5682210708117,107.55062999999998L376.58031088082896,106.11794000000002L383.59240069084626,105.28305000000002L395.61312607944734,103.20706L407.6338514680483,103.09709000000001L420.6563039723662,102.32268L423.6614853195164,102.19206L430.6735751295337,101.67335999999999L437.685664939551,101.20940000000002L444.69775474956816,100.76693L451.70984455958546,100.39558L458.72193436960276,100.04480999999998L465.73402417962,99.6638L472.7461139896373,99.26948999999999L479.7582037996546,98.94574L486.77029360967185,98.61806999999999L493.7823834196891,98.28851L500.7944732297064,97.92500000000001L507.80656303972364,97.56604L514.8186528497409,97.21681L521.8307426597582,96.86793L528.8428324697754,96.50441999999998L535.8549222797928,96.16596999999999L542.86701208981,95.90458999999998L549.8791018998273,95.62710999999999L556.8911917098445,95.33422999999999L563.9032815198618,95.04422L570.9153713298791,94.78375L577.9274611398963,94.52342000000002L584.9395509499136,94.27282000000001L591.9516407599309,94.00996999999998L598.9637305699482,93.75482000000001L605.9758203799654,93.49351000000001L612.9879101899828,93.23675L620,92.96459"></path></g><g stroke="currentColor" transform="translate(0,0.5)"><line x1="40" x2="620" y1="320" y2="320"></line></g>

</svg>

