<svg class="plot" fill="currentColor" text-anchor="middle" width="640" height="460" viewBox="0 0 640 400" style="font-family: 'RO Sans', sans-serif; font-size: 14px;" xmlns="http://www.w3.org/2000/svg">
<style>
        line[stroke-opacity] {
            stroke-opacity: 1;
            stroke: #949494;
        }
</style>

<!-- replace the below code -->

<g transform="translate(40,0)" fill="none" text-anchor="end"><g class="tick" opacity="1" transform="translate(0,320)"><line stroke="currentColor" x2="-6"></line><line stroke="currentColor" x2="580" stroke-opacity="0.1"></line><text fill="currentColor" x="-9" dy="0.32em">0M</text></g><g class="tick" opacity="1" transform="translate(0,288.8888888888889)"><line stroke="currentColor" x2="-6"></line><line stroke="currentColor" x2="580" stroke-opacity="0.1"></line><text fill="currentColor" x="-9" dy="0.32em">2M</text></g><g class="tick" opacity="1" transform="translate(0,257.77777777777777)"><line stroke="currentColor" x2="-6"></line><line stroke="currentColor" x2="580" stroke-opacity="0.1"></line><text fill="currentColor" x="-9" dy="0.32em">4M</text></g><g class="tick" opacity="1" transform="translate(0,226.6666666666667)"><line stroke="currentColor" x2="-6"></line><line stroke="currentColor" x2="580" stroke-opacity="0.1"></line><text fill="currentColor" x="-9" dy="0.32em">6M</text></g><g class="tick" opacity="1" transform="translate(0,195.55555555555554)"><line stroke="currentColor" x2="-6"></line><line stroke="currentColor" x2="580" stroke-opacity="0.1"></line><text fill="currentColor" x="-9" dy="0.32em">8M</text></g><g class="tick" opacity="1" transform="translate(0,164.44444444444446)"><line stroke="currentColor" x2="-6"></line><line stroke="currentColor" x2="580" stroke-opacity="0.1"></line><text fill="currentColor" x="-9" dy="0.32em">10M</text></g><g class="tick" opacity="1" transform="translate(0,133.33333333333334)"><line stroke="currentColor" x2="-6"></line><line stroke="currentColor" x2="580" stroke-opacity="0.1"></line><text fill="currentColor" x="-9" dy="0.32em">12M</text></g><g class="tick" opacity="1" transform="translate(0,102.22222222222223)"><line stroke="currentColor" x2="-6"></line><line stroke="currentColor" x2="580" stroke-opacity="0.1"></line><text fill="currentColor" x="-9" dy="0.32em">14M</text></g><g class="tick" opacity="1" transform="translate(0,71.11111111111113)"><line stroke="currentColor" x2="-6"></line><line stroke="currentColor" x2="580" stroke-opacity="0.1"></line><text fill="currentColor" x="-9" dy="0.32em">16M</text></g><g class="tick" opacity="1" transform="translate(0,40)"><line stroke="currentColor" x2="-6"></line><line stroke="currentColor" x2="580" stroke-opacity="0.1"></line><text fill="currentColor" x="-9" dy="0.32em">18M</text></g><text fill="currentColor" transform="translate(20,40)" dy="-1em" text-anchor="start">↑ Number of downloads CoronaCheck (million)</text></g><g transform="translate(0,320)" fill="none" text-anchor="middle"><g class="tick" opacity="1" transform="translate(44.26470588235294,0)"><line stroke="currentColor" y2="6"></line><text fill="currentColor" dy="0.32em" transform="translate(0, 11.82842712474619) rotate(-45)" text-anchor="end">Apr 2021</text></g><g class="tick" opacity="1" transform="translate(76.25,0)"><line stroke="currentColor" y2="6"></line><text fill="currentColor" dy="0.32em" transform="translate(0, 11.82842712474619) rotate(-45)" text-anchor="end">May 2021</text></g><g class="tick" opacity="1" transform="translate(109.30147058823529,0)"><line stroke="currentColor" y2="6"></line><text fill="currentColor" dy="0.32em" transform="translate(0, 11.82842712474619) rotate(-45)" text-anchor="end">Jun 2021</text></g><g class="tick" opacity="1" transform="translate(141.28676470588235,0)"><line stroke="currentColor" y2="6"></line><text fill="currentColor" dy="0.32em" transform="translate(0, 11.82842712474619) rotate(-45)" text-anchor="end">Jul 2021</text></g><g class="tick" opacity="1" transform="translate(174.33823529411768,0)"><line stroke="currentColor" y2="6"></line><text fill="currentColor" dy="0.32em" transform="translate(0, 11.82842712474619) rotate(-45)" text-anchor="end">Aug 2021</text></g><g class="tick" opacity="1" transform="translate(207.38970588235293,0)"><line stroke="currentColor" y2="6"></line><text fill="currentColor" dy="0.32em" transform="translate(0, 11.82842712474619) rotate(-45)" text-anchor="end">Sep 2021</text></g><g class="tick" opacity="1" transform="translate(239.375,0)"><line stroke="currentColor" y2="6"></line><text fill="currentColor" dy="0.32em" transform="translate(0, 11.82842712474619) rotate(-45)" text-anchor="end">Oct 2021</text></g><g class="tick" opacity="1" transform="translate(272.4264705882353,0)"><line stroke="currentColor" y2="6"></line><text fill="currentColor" dy="0.32em" transform="translate(0, 11.82842712474619) rotate(-45)" text-anchor="end">Nov 2021</text></g><g class="tick" opacity="1" transform="translate(304.4117647058823,0)"><line stroke="currentColor" y2="6"></line><text fill="currentColor" dy="0.32em" transform="translate(0, 11.82842712474619) rotate(-45)" text-anchor="end">Dec 2021</text></g><g class="tick" opacity="1" transform="translate(337.4632352941176,0)"><line stroke="currentColor" y2="6"></line><text fill="currentColor" dy="0.32em" transform="translate(0, 11.82842712474619) rotate(-45)" text-anchor="end">Jan 2022</text></g><g class="tick" opacity="1" transform="translate(370.5147058823529,0)"><line stroke="currentColor" y2="6"></line><text fill="currentColor" dy="0.32em" transform="translate(0, 11.82842712474619) rotate(-45)" text-anchor="end">Feb 2022</text></g><g class="tick" opacity="1" transform="translate(400.36764705882354,0)"><line stroke="currentColor" y2="6"></line><text fill="currentColor" dy="0.32em" transform="translate(0, 11.82842712474619) rotate(-45)" text-anchor="end">Mar 2022</text></g><g class="tick" opacity="1" transform="translate(433.41911764705884,0)"><line stroke="currentColor" y2="6"></line><text fill="currentColor" dy="0.32em" transform="translate(0, 11.82842712474619) rotate(-45)" text-anchor="end">Apr 2022</text></g><g class="tick" opacity="1" transform="translate(465.40441176470586,0)"><line stroke="currentColor" y2="6"></line><text fill="currentColor" dy="0.32em" transform="translate(0, 11.82842712474619) rotate(-45)" text-anchor="end">May 2022</text></g><g class="tick" opacity="1" transform="translate(498.45588235294116,0)"><line stroke="currentColor" y2="6"></line><text fill="currentColor" dy="0.32em" transform="translate(0, 11.82842712474619) rotate(-45)" text-anchor="end">Jun 2022</text></g><g class="tick" opacity="1" transform="translate(530.4411764705882,0)"><line stroke="currentColor" y2="6"></line><text fill="currentColor" dy="0.32em" transform="translate(0, 11.82842712474619) rotate(-45)" text-anchor="end">Jul 2022</text></g><g class="tick" opacity="1" transform="translate(563.4926470588235,0)"><line stroke="currentColor" y2="6"></line><text fill="currentColor" dy="0.32em" transform="translate(0, 11.82842712474619) rotate(-45)" text-anchor="end">Aug 2022</text></g><g class="tick" opacity="1" transform="translate(596.5441176470589,0)"><line stroke="currentColor" y2="6"></line><text fill="currentColor" dy="0.32em" transform="translate(0, 11.82842712474619) rotate(-45)" text-anchor="end">Sep 2022 *</text></g><text fill="currentColor" transform="translate(640,80)" dy="-0.32em" text-anchor="end">Month →</text></g><g fill="none" stroke="#ec025f" stroke-width="3" stroke-miterlimit="1"><path d="M40,319.92304666666666L47.463235294117645,319.91447555555555L54.92647058823529,319.50455555555556L62.38970588235294,318.7930288888889L69.85294117647058,318.11953555555556L77.31617647058823,317.88861333333335L84.77941176470588,317.65930888888886L92.24264705882354,317.4885711111111L99.70588235294117,316.55435111111115L107.16911764705884,316.09638L114.63235294117646,314.25595555555554L122.09558823529412,311.93243777777775L129.55882352941177,305.2646111111111L137.0220588235294,272.6142155555556L144.48529411764707,249.08172444444446L151.9485294117647,234.52607999999998L159.41176470588235,221.42433555555556L166.875,211.00811777777778L174.33823529411768,201.32853333333335L181.80147058823528,192.0309311111111L189.26470588235293,183.7889288888889L196.72794117647058,177.84403111111112L204.19117647058823,173.06094666666667L211.65441176470588,168.40893333333335L219.11764705882354,163.69315777777777L226.5808823529412,152.02731555555553L234.0441176470588,139.8049577777778L241.50735294117646,131.3468422222222L248.97058823529412,126.34031777777778L256.43382352941177,122.11676666666668L263.8970588235294,117.9673688888889L271.3602941176471,114.55835333333334L278.8235294117647,109.74275777777777L286.2867647058823,106.05705555555556L293.75,103.36258444444444L301.2132352941177,100.6392266666667L308.67647058823536,98.41680444444445L316.1397058823529,96.39959111111112L323.60294117647055,94.47216444444446L331.06617647058823,92.96783333333332L338.52941176470586,91.42812888888888L345.99264705882354,89.77312666666666L353.45588235294116,88.24605333333335L360.91911764705884,86.38522L368.38235294117646,83.77443777777779L375.84558823529414,81.38480888888887L375.84558823529414,81.38480888888887L383.30882352941177,79.3676888888889L390.7720588235294,77.92660666666664L398.2352941176471,76.6880733333333L405.69852941176464,75.7141088888889L411.02941176470586,75.2123488888889L418.49264705882354,74.38812222222222L425.95588235294116,73.4780911111111L431.2867647058824,72.85817111111112L445.1470588235294,71.41669999999999L448.34558823529414,71.20988888888887L455.80882352941177,70.28640222222222L463.2720588235294,69.54180444444445L470.7352941176471,68.80994666666666L478.19852941176464,68.13317111111112L485.6617647058824,67.49030666666664L493.125,66.7732422222222L500.5882352941176,66.02421111111113L508.05147058823536,65.40009111111112L515.5147058823529,64.80521555555555L522.9779411764707,64.18269777777775L530.4411764705882,63.50914222222223L537.9044117647059,62.836628888888896L545.3676470588235,62.15705333333334L552.8308823529411,61.495677777777814L560.2941176470589,60.68593333333332L567.7573529411765,60.10045333333336L575.2205882352941,59.57980888888889L582.6838235294118,59.056691111111085L590.1470588235293,58.49972444444441L597.6102941176471,57.95173333333331L605.0735294117646,57.465637777777786L612.5367647058823,56.9740511111111L620,56.50137999999999"></path></g><g stroke="currentColor"><line x1="40" x2="620" y1="320" y2="320"></line></g>

</svg>
