<svg xmlns="http://www.w3.org/2000/svg" fill="none" viewBox="0 0 380 208">
  <rect width="380" height="207.8" fill="url(#a)" rx="12"/>
  <path fill="url(#b)" d="M126.3 74.5v30.7c0 6.6-5.3 12-11.8 12H83.7c-6.5 0-11.9-5.4-11.9-12V74.5c0-6.6 5.4-11.9 12-11.9h30.6c6.6 0 12 5.3 12 11.9Z"/>
  <path fill="#fff" d="M105.5 92c-.2.5-.5 1-1 1.5l1.3 1.2c.7-.3 1.6 0 2 .7.4.5.4 1.3 0 1.8-.5 1-1.9 1-2.6.3-.5-.5-.7-1.3-.4-1.9l-1.2-1.2c-1 .9-2.3 1.5-3.8 1.6v2a2.1 2.1 0 0 1 .8 3.5c-.3.3-.7.5-1 .6-1.4.3-2.7-.8-2.7-2 0-1 .6-1.7 1.4-2v-2.2a7.4 7.4 0 0 1-3.8-1.5l-1.2 1.2c.3.7.1 1.6-.6 2-.6.4-1.3.4-1.8 0-1-.5-1.1-1.9-.3-2.6.5-.5 1.2-.7 1.8-.4l1.2-1.2c-.8-1-1.4-2.3-1.5-3.7H90c-.4.9-1.4 1.5-2.5 1.3a2.1 2.1 0 0 1-1.6-1.6A2.1 2.1 0 0 1 90 88h2.1c.2-1.3.7-2.6 1.6-3.7l-1.2-1.2c-.7.3-1.6.1-2.1-.7-.4-.5-.4-1.2 0-1.7.6-1 2-1.1 2.7-.3.5.5.6 1.2.4 1.8l1.2 1.2c1-.8 2.3-1.4 3.7-1.6v-2a2.1 2.1 0 0 1-.7-3.5c.3-.3.6-.5 1-.6 1.4-.3 2.6.8 2.6 2.1 0 .9-.5 1.7-1.3 2v2c1.3.2 2.6.8 3.7 1.7l1.2-1.2c-.3-.8 0-1.6.7-2.1.5-.4 1.3-.4 1.8 0 1 .6 1 1.9.3 2.7-.5.5-1.3.6-1.9.3l-1.2 1.2c.4.5.8 1 1 1.7.2.4.6.7 1 .7h7.6a1.1 1.1 0 0 0 1.2-1.2v-8.4c0-2-.9-2.7-2.6-3.5-2.3-1-9.8-3.7-12-4.5L99 69c-.6 0-1.2.1-1.7.3a349 349 0 0 0-12 4.5c-1.7.7-2.6 1.4-2.6 3.5v17c0 7.3 3.8 10 15 16.3.4.3 1 .4 1.3.4.3 0 .8-.1 1.3-.4 11.3-6 15-9 15-16.3v-2a1.1 1.1 0 0 0-1.2-1h-7.7c-.4 0-.8.2-1 .6Z"/>
  <path fill="#154273" d="M56 143v1.9a10.7 10.7 0 0 1-2.5.2 6 6 0 0 1-4-1.3c-1-.9-1.5-2.2-1.5-4 0-2 .6-3.6 1.7-4.6a6 6 0 0 1 4-1.5 11 11 0 0 1 2.3.2l-.2 2a13.7 13.7 0 0 0-2.1-.2c-1 0-1.7.3-2.4 1-.6.6-1 1.6-1 2.9 0 1.2.4 2.2 1 2.8.7.6 1.5.9 2.3.9a11.5 11.5 0 0 0 2.4-.2ZM65.3 140.6c0 1.4-.5 2.5-1.3 3.3-.9.9-1.9 1.3-3 1.3-1.2 0-2.1-.4-2.9-1-.7-.8-1.1-1.9-1.1-3.2 0-1.4.4-2.5 1.3-3.3.8-.9 1.8-1.3 3-1.3a4 4 0 0 1 2.8 1c.8.8 1.2 1.8 1.2 3.2Zm-2.2 0c0-.7-.2-1.3-.5-1.7-.4-.4-.9-.7-1.5-.7-.5 0-1 .3-1.4.7-.4.5-.6 1.1-.6 2 0 .8.2 1.4.6 1.8.3.4.8.6 1.4.6.6 0 1-.2 1.4-.7.4-.4.6-1 .6-2ZM72 136.6l-.2 2a3 3 0 0 0-.5-.1 2.9 2.9 0 0 0-1.3 0l-.8.5v6h-2.1v-8.4h2v.9l1-.8c.2-.2.5-.2.8-.2a3.7 3.7 0 0 1 1 0ZM80.8 140.6c0 1.4-.4 2.5-1.3 3.3-.8.9-1.8 1.3-3 1.3-1.1 0-2-.4-2.8-1-.8-.8-1.2-1.9-1.2-3.2 0-1.4.5-2.5 1.3-3.3.9-.9 1.9-1.3 3-1.3a4 4 0 0 1 2.9 1c.7.8 1.1 1.8 1.1 3.2Zm-2.1 0c0-.7-.2-1.3-.6-1.7-.4-.4-.8-.7-1.4-.7-.6 0-1 .3-1.5.7-.3.5-.5 1.1-.5 2 0 .8.1 1.4.5 1.8.4.4.9.6 1.5.6.5 0 1-.2 1.4-.7.4-.4.6-1 .6-2ZM87.7 145v-5c0-.6 0-1-.3-1.3-.3-.2-.6-.3-1.1-.3h-.8a4 4 0 0 0-.7.3v6.3h-2.1v-8.4h2v.6a3.7 3.7 0 0 1 2.2-.7c1 0 1.6.2 2.2.7.5.6.7 1.3.7 2.3v5.5h-2ZM93.5 142.6c0 .3.1.5.3.6.2.2.5.3 1 .3l.8-.1.8-.3v-1.5h-1.1c-.6 0-1 0-1.4.2-.2.2-.4.5-.4.8Zm5-3.1v5.5h-2v-.5l-1.1.5a5 5 0 0 1-1.3.1c-.9 0-1.6-.2-2-.6-.5-.5-.7-1-.7-1.8 0-.7.3-1.4 1-1.9.5-.5 1.5-.7 2.8-.7h1.2v-.4c0-.4-.2-.8-.4-1-.3-.2-.8-.4-1.5-.4-.4 0-.8 0-1.1.2l-1.3.3-.2-1.7 1.5-.5 1.5-.1c1.2 0 2 .2 2.6.8.6.5 1 1.2 1 2.2ZM103.1 136l-.4 9h-2l.5-11.2h3.4l2.1 6.7h.1l2.1-6.7h3.3l.5 11.2h-2.2l-.4-9-2.3 6.9h-2.3l-2.4-7ZM114.6 140.8c0-1.4.4-2.5 1.1-3.3.8-.7 1.7-1 2.8-1 1 0 1.8.2 2.5.8.6.6.9 1.5.9 2.6a22 22 0 0 1-.1 1.5h-5.2c.2.7.4 1.2.8 1.5.5.3 1 .5 1.8.5a8.2 8.2 0 0 0 2.4-.4v1.7l-1.2.3-1.5.1c-1.3 0-2.3-.3-3.1-1-.8-.8-1.2-1.8-1.2-3.3Zm2-.9h3.3c0-.6-.2-1-.5-1.4-.2-.3-.6-.5-1-.5-.5 0-.9.2-1.2.5-.3.3-.5.8-.6 1.4ZM125.8 133.1v12h-2.1v-11.9h2ZM132.1 138.2c-.7 0-1.3.3-1.7.7-.4.5-.7 1.2-.7 2s.2 1.5.6 1.8c.4.4.9.6 1.5.6h.7l.7-.3v-4.7a10.8 10.8 0 0 0-1.1 0Zm3.2-5V145h-2v-.6a3.6 3.6 0 0 1-2.2.7c-1 0-1.9-.3-2.5-1-.7-.7-1-1.8-1-3.1 0-1.4.4-2.5 1.3-3.3a4.4 4.4 0 0 1 3.7-1.2h.6v-3.3h2.1ZM137.2 140.8c0-1.4.3-2.5 1-3.3.8-.7 1.8-1 2.8-1 1 0 1.9.2 2.5.8.6.6 1 1.5 1 2.6a22 22 0 0 1-.2 1.5h-5.1c0 .7.4 1.2.8 1.5.4.3 1 .5 1.7.5a8.2 8.2 0 0 0 2.5-.4v1.7l-1.3.3-1.4.1c-1.4 0-2.4-.3-3.2-1-.8-.8-1.1-1.8-1.1-3.3Zm2-.9h3.2c0-.6-.1-1-.4-1.4-.3-.3-.7-.5-1.1-.5-.5 0-.8.2-1.2.5-.3.3-.5.8-.5 1.4ZM151 136.6l-.1 2a3 3 0 0 0-.5-.1 2.9 2.9 0 0 0-1.3 0l-.8.5v6h-2v-8.4h2v.9l.8-.8c.3-.2.6-.2 1-.2a3.7 3.7 0 0 1 1 0Z"/>
  <path fill="#E1F6F8" d="M266.4 167.8c36.2 0 65.6-.6 65.6-1.4 0-.7-29.4-1.4-65.6-1.4-36.2 0-65.6.7-65.6 1.4 0 .8 29.4 1.4 65.6 1.4Z"/>
  <path fill="#CBF0F3" d="M229 112.7h-23.5a4 4 0 0 0-4 3.9v33.7a4 4 0 0 0 4 3.9h23.3a4 4 0 0 0 4-4v-33.6c0-2.2-1.8-3.9-3.9-3.9Z"/>
  <path fill="#97E0E7" d="M238.4 112.7h-22.1a4 4 0 0 0-4 3.9v33.7a4 4 0 0 0 4 3.9h22a4 4 0 0 0 4-4v-33.6a4 4 0 0 0-4-3.9Z"/>
  <path fill="#008FCD" d="m286.5 153.5.7 4 1.6 8c0 .5.5 1 1 1h1.6c.6 0 1.2-.6 1.2-1.3v-11.7h-6.1Z"/>
  <path fill="#0069D1" d="M292.6 153.5h-6.1l.7 3.3h5.4v-3.3Z"/>
  <path fill="#004CBC" d="M314.3 153.5h6.1v11.7c0 .7-.5 1.2-1.1 1.2h-1.6a1 1 0 0 1-1-1l-2.4-12ZM245 153.5H239v11.7c0 .7.5 1.2 1.1 1.2h1.6c.6 0 1-.4 1.1-1l2.3-12Z"/>
  <path fill="#008FCD" d="M211 153.5v11.7c0 .7.6 1.2 1.2 1.2h1.6c.5 0 1-.4 1-1l1.6-7.8.7-4.1h-6Z"/>
  <path fill="#0069D1" d="m216.7 156.2.4-2.7h-6v2.6l5.6.1Z"/>
  <path fill="#CBF0F3" d="m319.4 133.8 7-30c1-5.2-3.4-10.8-8.2-10.8h-62.6c-4.8 0-9.6 3.8-10.6 8.6l-7.5 32.1h82Z"/>
  <path fill="#CBF0F3" d="M312.2 93h-64.8c-4.7 0-9.5 3.8-10.6 8.6l-7.4 32.2h82l7.5-32.2c1-4.8-2-8.6-6.7-8.6Z"/>
  <path fill="#fff" d="M243 131h-17.1c-1.3 0-2.4-.9-2.7-2.1l-2.6-11.1c-.4-1.7.6-3 2.3-3h15.9a4 4 0 0 1 3.7 3l2.5 10.7a2 2 0 0 1-2 2.6Z"/>
  <path fill="#CBF0F3" d="M298 131h-88.3v23.2H298V131Z"/>
  <path fill="#79D4E7" d="m274.3 100.8 16.2-8.6-1.8 10.3s-12.4 6.8-16.6 6c-4.4-.7-6.9-16.2-7.4-20 0-.4.3-.8.7-1l4.4-1.3 4.5 14.6Z"/>
  <path fill="#FF7254" d="M265.7 88.3h-.4c-.6 0-1-.5-1.2-1l-.7-4.6c-.2-.8.1-1.6.7-2.2l1.2-1 .8 1.6-.4 7.2Z"/>
  <path fill="#000" d="M271.3 89h-4.4c-.6 0-1.1-.5-1.2-1.2l-.2-.9-1.5-9c0-.7.4-1.2 1-1.2h4.3c.6 0 1.2.5 1.3 1v.3l1.4 9 .2.7c0 .8-.4 1.2-1 1.2Z"/>
  <path fill="#38BFDB" d="M271.5 87.6h-5.3l-1.5-8.2h5.4l1.4 8.2Z"/>
  <path fill="#FF7254" d="m264.3 80.8.6-.6c.4-.2.8-.1 1 .3.3.4.2.8 0 1l-1.5 1.3-.4-1.3.3-.7Z"/>
  <path fill="#FF7254" d="m264.2 82.2.7-.6c.4-.3.8-.2 1 .3.3.3.2.8 0 1l-1.5 1.3-.4-1.4.2-.6Z"/>
  <path fill="#FF7254" d="m264.2 84.3.7-.7c.4-.2.8-.1 1 .3.3.4.2.8 0 1l-1.5 1.3-.4-1.3.2-.6ZM272.2 85.7l-.5 1.2-.3-1.7-1.6-1.2a.7.7 0 0 1-.2-1c.3-.2.7-.2 1 0l1 .5c.5.4.7 1 .6 1.5v.7Z"/>
  <path fill="#38BFDB" d="m289.2 93-8.8 13.6c2.5-1 5-2.3 6.5-3.2l2.3-10.4Z"/>
  <path fill="#79D4E7" d="M301.5 91h-7.2c-3.7 0-8.3 3.6-8.5 6.4-.3 2.1 1.5 4.1 1.5 4.1l-7.6 22H305l.6-9c1.1-4.6 2-11.7 2.5-15.2.4-3-.9-5.9-3.4-7.4-1-.5-2.2-1-3.2-1Z"/>
  <path fill="#FF7254" fill-rule="evenodd" d="M295.3 95c2 .3 5-1.6 6.4-2.8.4-.3.5-.8.3-1.2a4 4 0 0 0-1 0h-8c-.3.3-.4.6-.4 1 0 .6.5 2.7 2.7 3Z" clip-rule="evenodd"/>
  <path fill="#004CBC" d="m259 159-.8 2.3c-.3 1-1.2 1.8-2.2 2.1l-2.8 1c-.4.2-.7.6-.7 1 0 .5.4 1 1 1h7c.9 0 1.6-.6 1.8-1.5l1-4.9-4.3-1Z"/>
  <path fill="#326FC9" d="M261.9 163.7c-1 0-2 .8-2 1.9l.2.8h.3c1 0 2-.7 2.1-1.7l.2-.8-.8-.2Z"/>
  <path fill="#004CBC" d="m246.8 137.9-2.3 2c-.6.4-1.3.7-2.1.6h-3.7c-.4 0-.8.2-1 .6-.3.6 0 1.2.6 1.4l6.3 2c1 .3 2.1.1 2.7-.7l3.1-3.2-3.6-2.7Z"/>
  <path fill="#326FC9" d="m247.4 143.9.3-.4c-.3-.6-1-1-1.7-.9-1 .1-1.7.9-1.7 1.8v.1h.4c1 .3 2 0 2.7-.6Z"/>
  <path fill="#FFB612" d="M290.5 131.4H274l-3.3 11.2-.3.8c-2 6.8-4.6 12-6.7 17.6l-5.1-1.2c1-6.4 1.9-10.2 3-17.2.5-3.9 1.2-7.8 2-12 .8-2.5 1.9-4.5 3.3-6 1.5-1.6 3.4-2.6 5.5-3.2 3.2-1 7-1.2 11.2-1.2h6.9v11.2Z"/>
  <path fill="#FFB612" d="M304.8 120.2A11.3 11.3 0 0 1 293 131h-3.8v-11h15.6Z"/>
  <path fill="#FFB612" d="m291.6 130-13.6-9.6-9.3 7c-.2.2-.3.4-.6.5-5.7 4.4-12.6 10-18 14l-4.4-3.6c5.5-5.7 10.2-10.8 15.5-16.1l8.6-8.4a15 15 0 0 1 6.3-3 13 13 0 0 1 6.4.7c3.2 1 6.4 3.2 9.9 5.6l5.6 4-6.4 9Z"/>
  <path fill="#FF9C12" d="m278.3 120.2 8.8 8.4a9 9 0 0 0 6.2 2.5h-9.6l-5.4-11Z"/>
  <path fill="#000" fill-rule="evenodd" d="M298.1 72.6s10.8-.7 9.3 17.7h-18.2s-1-18.3 9-17.7Z" clip-rule="evenodd"/>
  <path fill="#FF7254" fill-rule="evenodd" d="m300.3 91.5-5.7.2 1.2-8.1 5-1.5-.5 9.4Z" clip-rule="evenodd"/>
  <path fill="#F25A37" d="m295 86.9-.4 2 4.1-2H295Z"/>
  <path fill="#FF7254" fill-rule="evenodd" d="M290.6 83.3c.3 2.3 1.3 4 4 4.2h1.8a7 7 0 0 0 4-1.6l.8-1.4.2-.3c.1-.1.3-.3.3-.5l.2-.3c.4-.8.8-1.8.8-2.7a9 9 0 0 0-.7-4.9c-.4-.8-.9-1.3-1.5-1.7l-1.2-.6-.7-.1-.6-.1H295.6c-.1.2-.3.2-.5.2l-.5.2-.4.2-.4.2-.3.2a4 4 0 0 0-.8.8l-.3.3-.1.1a10.2 10.2 0 0 0-1.9 5.8v.3l.1 1.7Z" clip-rule="evenodd"/>
  <path fill="#000" fill-rule="evenodd" d="M297.3 73.3c.3.3.3 1.7.5 3.1.2 2.3 3.3 4.9 3 9.1 1.3-.7 2.6-3.9 2.6-4.7.2-2 0-3.8-.7-4.9a4.4 4.4 0 0 0-3.1-2.4l-.9-.1-1.4-.1Z" clip-rule="evenodd"/>
  <path fill="#FF7254" d="M300.7 82.8a1.4 1.4 0 1 0 0-2.7 1.4 1.4 0 0 0 0 2.7Z"/>
  <path fill="#000" fill-rule="evenodd" d="M297.3 73.3h-1.5l-.5.2a6 6 0 0 0-2.7 2c1 1.8 7.8 3.8 7.8 4l.3-5.3c-1-.7-2.2-.8-2.7-.9a1 1 0 0 1-.7 0Z" clip-rule="evenodd"/>
  <path stroke="#000" stroke-linecap="round" stroke-width=".5" d="M295.3 83.1h-2"/>
  <path fill="#FF7254" d="M300.7 110h-3.6c-1.1 0-2.2.8-2.8 1.8l-.4 1h1.3l.1-.2v.1h8.2c-.3-1.6-1.4-2.8-2.8-2.7Z"/>
  <path fill="#CBF0F3" d="M315.9 112.7H295a3.9 3.9 0 0 0-3.9 3.9v33.7c0 2 1.7 3.9 4 3.9h20.7c2 0 3.9-1.7 3.9-4v-33.6c0-2.2-1.7-3.9-4-3.9Z"/>
  <path fill="#97E0E7" d="M326 112.7h-20.7a3.9 3.9 0 0 0-3.9 3.9v33.7c0 2 1.7 3.9 4 3.9H326c2 0 3.9-1.7 3.9-4v-33.6c0-2.2-1.8-3.9-4-3.9Z"/>
  <path fill="#38BFDB" d="m306.9 104.5-3-3.3-1.8 6.8 4.2-.3.6-3.2Z"/>
  <path fill="#FF7254" d="m293.9 112.2-.5.9c-.3.3 0 .8.5 1 .4 0 .8 0 1-.4l1-1.6h-1.4l-.6.1ZM296 112.2l-.6.9c-.3.3 0 .8.5 1 .4 0 .9 0 1.1-.4l1-1.6h-1.5l-.6.1Z"/>
  <path fill="#FF7254" d="m297.3 112.2-.5.9c-.3.3 0 .8.5 1 .4 0 .8 0 1-.4l1-1.6H298l-.6.1Z"/>
  <path fill="#79D4E7" d="m316.4 107.6-9.9-13.2-2.7 7.1 5.8 6.6-8.5.1-1 4.5h14.4c2.2 0 3.3-3 2-5.1Z"/>
  <path fill="#004CBC" d="M244.4 70.6H264c3 0 5.5-2.5 5.5-5.5V45.5c0-3-2.5-5.5-5.5-5.5h-19.6c-3 0-5.5 2.4-5.5 5.5v19.6c0 3 2.4 5.5 5.5 5.5Z"/>
  <path fill="#004CBC" d="M244.4 70.6H264c3 0 5.5-2.5 5.5-5.5V45.5c0-3-2.5-5.5-5.5-5.5h-19.6c-3 0-5.5 2.4-5.5 5.5v19.6c0 3 2.4 5.5 5.5 5.5Z"/>
  <path fill="#004CBC" d="M263.4 68.5v6c0 .8-.9 1-1.3.6l-6.9-6.6h8.2Z"/>
  <path fill="#fff" d="M252.9 46.1h2.6c.7 0 1.1.5 1 1l-.5 9.6c0 .5-.5 1-1 1h-1.6c-.5 0-1-.5-1-1l-.6-9.5c0-.5.4-1 1-1ZM253.8 63.1a2 2 0 1 0 0-4 2 2 0 0 0 0 4Z"/>
  <defs>
    <linearGradient id="a" x1="190" x2="190" y1="0" y2="207.8" gradientUnits="userSpaceOnUse">
      <stop stop-color="#F7FDFF" stop-opacity="0"/>
      <stop offset="1" stop-color="#F7FDFF"/>
    </linearGradient>
    <linearGradient id="b" x1="80.1" x2="135" y1="108.8" y2="54" gradientUnits="userSpaceOnUse">
      <stop stop-color="#C9005D"/>
      <stop offset=".2" stop-color="#C9005D"/>
      <stop offset="1" stop-color="#315BBC"/>
      <stop offset="1" stop-color="#315BBC"/>
    </linearGradient>
  </defs>
</svg>
