<svg class="plot" fill="currentColor" text-anchor="middle" width="640" height="460" viewBox="0 0 640 400" style="font-family: 'RO Sans', sans-serif; font-size: 14px;" xmlns="http://www.w3.org/2000/svg">

<style>
        line[stroke-opacity] {
            stroke-opacity: 1;
            stroke: #949494;
        }
</style>

<!-- replace the below code -->
<g transform="translate(40,0)" fill="none" text-anchor="end"><g class="tick" opacity="1" transform="translate(0,320.0198979270571)"><line stroke="currentColor" x2="0"></line><line stroke="currentColor" x2="580" stroke-opacity="0.1"></line><text fill="currentColor" x="-9" dy="0.32em">0m</text></g><g class="tick" opacity="1" transform="translate(0,278.0411488614879)"><line stroke="currentColor" x2="0"></line><line stroke="currentColor" x2="580" stroke-opacity="0.1"></line><text fill="currentColor" x="-9" dy="0.32em">0.5m</text></g><g class="tick" opacity="1" transform="translate(0,236.0623997959187)"><line stroke="currentColor" x2="0"></line><line stroke="currentColor" x2="580" stroke-opacity="0.1"></line><text fill="currentColor" x="-9" dy="0.32em">1m</text></g><g class="tick" opacity="1" transform="translate(0,194.08365073034952)"><line stroke="currentColor" x2="0"></line><line stroke="currentColor" x2="580" stroke-opacity="0.1"></line><text fill="currentColor" x="-9" dy="0.32em">1.5m</text></g><g class="tick" opacity="1" transform="translate(0,152.10490166478033)"><line stroke="currentColor" x2="0"></line><line stroke="currentColor" x2="580" stroke-opacity="0.1"></line><text fill="currentColor" x="-9" dy="0.32em">2m</text></g><g class="tick" opacity="1" transform="translate(0,110.12615259921114)"><line stroke="currentColor" x2="0"></line><line stroke="currentColor" x2="580" stroke-opacity="0.1"></line><text fill="currentColor" x="-9" dy="0.32em">2.5m</text></g><g class="tick" opacity="1" transform="translate(0,68.14740353364192)"><line stroke="currentColor" x2="0"></line><line stroke="currentColor" x2="580" stroke-opacity="0.1"></line><text fill="currentColor" x="-9" dy="0.32em">3m</text></g><text fill="currentColor" transform="translate(-40,40)" dy="-1em" text-anchor="start">↑ Number of downloads CoronaCheck Scanner (million)</text></g><g transform="translate(0,320)" fill="none" text-anchor="middle"><g class="tick" opacity="1" transform="translate(46.197658449207815,0)"><line stroke="currentColor" y2="6"></line><text fill="currentColor" dy="0.32em" transform="translate(0, 11.82842712474619) rotate(-45)" text-anchor="end">Apr 2021</text></g><g class="tick" opacity="1" transform="translate(92.68009681826642,0)"><line stroke="currentColor" y2="6"></line><text fill="currentColor" dy="0.32em" transform="translate(0, 11.82842712474619) rotate(-45)" text-anchor="end">May 2021</text></g><g class="tick" opacity="1" transform="translate(140.71194979962698,0)"><line stroke="currentColor" y2="6"></line><text fill="currentColor" dy="0.32em" transform="translate(0, 11.82842712474619) rotate(-45)" text-anchor="end">Jun 2021</text></g><g class="tick" opacity="1" transform="translate(187.19438816868563,0)"><line stroke="currentColor" y2="6"></line><text fill="currentColor" dy="0.32em" transform="translate(0, 11.82842712474619) rotate(-45)" text-anchor="end">Jul 2021</text></g><g class="tick" opacity="1" transform="translate(235.22624115004618,0)"><line stroke="currentColor" y2="6"></line><text fill="currentColor" dy="0.32em" transform="translate(0, 11.82842712474619) rotate(-45)" text-anchor="end">Aug 2021</text></g><g class="tick" opacity="1" transform="translate(283.2580941314067,0)"><line stroke="currentColor" y2="6"></line><text fill="currentColor" dy="0.32em" transform="translate(0, 11.82842712474619) rotate(-45)" text-anchor="end">Sep 2021</text></g><g class="tick" opacity="1" transform="translate(329.74053250046535,0)"><line stroke="currentColor" y2="6"></line><text fill="currentColor" dy="0.32em" transform="translate(0, 11.82842712474619) rotate(-45)" text-anchor="end">Oct 2021</text></g><g class="tick" opacity="1" transform="translate(377.7723854818259,0)"><line stroke="currentColor" y2="6"></line><text fill="currentColor" dy="0.32em" transform="translate(0, 11.82842712474619) rotate(-45)" text-anchor="end">Nov 2021</text></g><g class="tick" opacity="1" transform="translate(424.2548238508845,0)"><line stroke="currentColor" y2="6"></line><text fill="currentColor" dy="0.32em" transform="translate(0, 11.82842712474619) rotate(-45)" text-anchor="end">Dec 2021</text></g><g class="tick" opacity="1" transform="translate(472.28667683224506,0)"><line stroke="currentColor" y2="6"></line><text fill="currentColor" dy="0.32em" transform="translate(0, 11.82842712474619) rotate(-45)" text-anchor="end">Jan 2022</text></g><g class="tick" opacity="1" transform="translate(520.3185298136057,0)"><line stroke="currentColor" y2="6"></line><text fill="currentColor" dy="0.32em" transform="translate(0, 11.82842712474619) rotate(-45)" text-anchor="end">Feb 2022</text></g><g class="tick" opacity="1" transform="translate(563.7021389580603,0)"><line stroke="currentColor" y2="6"></line><text fill="currentColor" dy="0.32em" transform="translate(0, 11.82842712474619) rotate(-45)" text-anchor="end">Mar 2022</text></g><g class="tick" opacity="1" transform="translate(611.7339919394209,0)"><line stroke="currentColor" y2="6"></line><text fill="currentColor" dy="0.32em" transform="translate(0, 11.82842712474619) rotate(-45)" text-anchor="end">Apr 2022</text></g><text fill="currentColor" transform="translate(640,-10)" dy="-0.32em" text-anchor="end">Month →</text></g><g fill="none" stroke="#ec025f" stroke-width="3" stroke-miterlimit="1"><path d="M40,320C45.21094972594413,319.9973693317252,50.42189945188826,319.99473866345045,50.84590228611367,319.9921079951757C58.07650381018946,319.94724670534094,58.259725872498976,319.9023854155062,61.69180457222735,319.8575241256715C65.53710297816328,319.8072615701236,68.84989907903318,319.7569990145758,72.53770685834104,319.7067364590279C76.08588717161636,319.6583769401044,77.80539692717137,319.6100174211808,83.38360914445471,319.5616579022573C86.41805329043069,319.53535121950955,90.6864551990634,319.5090445367618,94.22951143056838,319.48273785401403C97.92333601234793,319.45531173795786,100.88575264577133,319.42788562190174,105.07541371668206,319.40045950584556C108.34163928625013,319.3790783296548,114.90509459654248,319.35769715346413,115.92131600279573,319.3363159772734C123.15191752687151,319.1841849906598,121.86487153062107,319.03205400404613,126.7672182889094,318.87992301743253C129.86770911948335,318.78370772457424,135.09908254511004,318.6874924317159,137.6131205750231,318.5912771388576C144.84372209909887,318.3145532250174,143.99318259409893,318.0378293111772,148.45902286113676,317.76110539733696C151.64219865018245,317.56386124839423,156.7400613120457,317.36661709945145,159.30492514725043,317.1693729505087C166.53552667132624,316.6133224403862,169.46187673785772,316.0572719302636,170.15082743336413,315.50122142014106C177.3814289574399,309.66541968254376,176.1868644514868,303.8296179449465,180.9967297194778,297.9938162073492C184.11118131541127,294.2150571314629,187.3141835077221,290.43629805557663,191.84263200559147,286.65753897969034C195.01094283289046,284.0137453493735,197.95305801765335,281.3699517190567,202.68853429170514,278.72615808873985C205.8154253829528,276.98042983009907,209.2374445285638,275.23470157145834,213.5344365778188,273.48897331281756C216.76453411355388,272.17668963119513,220.47272676500063,270.86440594957276,224.3803388639325,269.5521222679503C227.77503052037156,268.41209138666034,231.45470060513884,267.27206050537035,235.22624115004618,266.13202962408036C238.70836113958788,265.079482455843,242.5941458503199,264.02693528760557,246.07214343615985,262.9743881193682C249.84939122640756,261.83127879648003,252.78444436138037,260.68816947359187,256.9180457222735,259.5450601507037C260.2055167159721,258.63594037510705,263.8933454994457,257.72682059951035,267.7639480083872,256.8177008239137C271.1803489854191,256.015263042609,275.0915409427817,255.2128252613043,278.60985029450086,254.4103874799996C282.3338125766244,253.5610454430723,285.9487931495046,252.71170340614495,289.45575258061456,251.86236136921764C293.1941674053293,250.95696370937145,298.55726503736906,250.05156604952523,300.30165486672826,249.14616838967905C307.53225639080404,245.39324023738445,308.0994149491588,241.64031208508985,311.1475571528419,237.88738393279525C316.5338183835244,231.2557210845802,317.7694381598439,224.62405823636513,321.9934594389556,217.99239538815007C325.24750575171,212.8835816268703,327.26999420614055,207.77476786559055,332.83936172506924,202.66595410431077C335.8743695628289,199.88192346628222,340.0333865168797,197.0978928282537,343.68526401118294,194.31386219022514C347.26541081968134,191.58451586931264,350.51925294961177,188.85516954840017,354.5311662972966,186.12582322748767C357.87152041563786,183.85334562557216,362.08924965342396,181.58086802365665,365.3770685834103,179.30839042174114C369.50978988666816,176.45193244865814,373.80052379361086,173.59547447557512,376.2229708695239,170.73901650249212C383.4535723935997,162.21296465227874,382.4965390745558,153.68691280206536,387.0688731556376,145.160860951852C390.22746608023556,139.27101857129094,392.7888482247705,133.38117619072992,397.9147754417513,127.49133381016887C400.9873164919815,123.96089302792178,404.1288621106863,120.43045224567472,408.760677727865,116.90001146342763C411.9069461843311,114.5018774726425,414.52786415463237,112.10374348185739,419.6065800139787,109.70560949107227C422.6844154143325,108.25227721258955,426.5194338450766,106.79894493410683,430.45248230009236,105.34561265562411C433.83303632058266,104.09643702676361,437.5786726788338,102.8472613979031,441.29838458620605,101.5980857690426C444.8200940853894,100.41540447870197,448.82330742604097,99.23272318836133,452.1442868723197,98.05004189802071C456.1981450293414,96.60636473182306,457.0668624679974,95.16268756562542,462.9901891584334,93.71901039942777C466.0068533466071,92.9837666024607,470.28540478009023,92.24852280549362,473.83609144454704,91.51327900852655C477.5209830366001,90.75024527967804,481.1732055966143,89.98721155082953,484.6819937306607,89.22417782198102C488.4180519855477,88.411721112566,492.063913603497,87.599264403151,495.5278960167744,86.78680769373598C499.325020206011,85.89621453939357,503.32866224008234,85.00562138505117,506.3737983028881,84.11502823070876C511.7985479662297,82.52848338852463,513.9233021024213,80.94193854634052,517.2197005890017,79.3553937041564C521.3310841911722,77.37659943070359,524.2797574301251,75.3978051572508,528.0656028751155,73.419010883798C531.5374737816666,71.60432553335886,532.9737573535953,69.78964018291973,538.9115051612291,67.97495483248059C541.9275839907101,67.05318546049882,544.7835838301108,66.13141608851704,549.7574074473428,65.20964671653527C552.8481336207612,64.63686067845194,555.3524707571198,64.06407464036862,560.6033097334565,63.49128860228528C563.6631991393668,63.15750157554859,566.7390878195723,62.82371454881189,571.4492120195702,62.4899275220752C573.7665599532993,62.32570665573069,576.6755699924269,62.16148578938618,579.1962850810798,61.99726492304167C582.9481469734272,61.75283666014922,586.5346427193466,61.50840839725677,590.0421873671936,61.263980134364324C593.7798468631306,61.00351598932881,596.9228999665672,60.7430518442933,600.8880896533072,60.482587699257785C603.3369894404976,60.32172513283852,605.9860760776573,60.16086256641926,608.635162714817,60"></path></g>

</svg>

