<svg class="plot" fill="currentColor" text-anchor="middle" width="640" height="460" viewBox="0 0 640 400" style="font-family: 'RO Sans', sans-serif; font-size: 14px;" xmlns="http://www.w3.org/2000/svg">

<g transform="translate(40,0)" fill="none" text-anchor="end"><g class="tick" opacity="1" transform="translate(0,370.1153289257295)"><line stroke="currentColor" x2="0"></line><line stroke="currentColor" x2="580" stroke-opacity="0.1"></line><text fill="currentColor" x="-9" dy="0.32em">0m</text></g><g class="tick" opacity="1" transform="translate(0,323.4895251135239)"><line stroke="currentColor" x2="0"></line><line stroke="currentColor" x2="580" stroke-opacity="0.1"></line><text fill="currentColor" x="-9" dy="0.32em">2m</text></g><g class="tick" opacity="1" transform="translate(0,276.8637213013182)"><line stroke="currentColor" x2="0"></line><line stroke="currentColor" x2="580" stroke-opacity="0.1"></line><text fill="currentColor" x="-9" dy="0.32em">4m</text></g><g class="tick" opacity="1" transform="translate(0,230.23791748911253)"><line stroke="currentColor" x2="0"></line><line stroke="currentColor" x2="580" stroke-opacity="0.1"></line><text fill="currentColor" x="-9" dy="0.32em">6m</text></g><g class="tick" opacity="1" transform="translate(0,183.61211367690692)"><line stroke="currentColor" x2="0"></line><line stroke="currentColor" x2="580" stroke-opacity="0.1"></line><text fill="currentColor" x="-9" dy="0.32em">8m</text></g><g class="tick" opacity="1" transform="translate(0,136.98630986470127)"><line stroke="currentColor" x2="0"></line><line stroke="currentColor" x2="580" stroke-opacity="0.1"></line><text fill="currentColor" x="-9" dy="0.32em">10m</text></g><g class="tick" opacity="1" transform="translate(0,90.36050605249558)"><line stroke="currentColor" x2="0"></line><line stroke="currentColor" x2="580" stroke-opacity="0.1"></line><text fill="currentColor" x="-9" dy="0.32em">12m</text></g><g class="tick" opacity="1" transform="translate(0,43.73470224028995)"><line stroke="currentColor" x2="0"></line><line stroke="currentColor" x2="580" stroke-opacity="0.1"></line><text fill="currentColor" x="-9" dy="0.32em">14m</text></g><g class="tick" opacity="1" transform="translate(0,-2.8911015719156836)"><line stroke="currentColor" x2="0"></line><line stroke="currentColor" x2="580" stroke-opacity="0.1"></line><text fill="currentColor" x="-9" dy="0.32em">16m</text></g><text fill="currentColor" transform="translate(10,20)" dy="-1em" text-anchor="start">↑ Number of downloads CoronaCheck (million)</text></g><g transform="translate(0,370)" fill="none" text-anchor="middle"><g class="tick" opacity="1" transform="translate(104.89329855147778,0)"><line stroke="currentColor" y2="6"></line><text fill="currentColor" y="9" dy="0.71em">May 2021</text></g><g class="tick" opacity="1" transform="translate(221.31951065854088,0)"><line stroke="currentColor" y2="6"></line><text fill="currentColor" y="9" dy="0.71em">Jul 2021</text></g><g class="tick" opacity="1" transform="translate(339.6543491935886,0)"><line stroke="currentColor" y2="6"></line><text fill="currentColor" y="9" dy="0.71em">Sep 2021</text></g><g class="tick" opacity="1" transform="translate(456.0805613006517,0)"><line stroke="currentColor" y2="6"></line><text fill="currentColor" y="9" dy="0.71em">Nov 2021</text></g><g class="tick" opacity="1" transform="translate(572.506773407715,0)"><line stroke="currentColor" y2="6"></line><text fill="currentColor" y="9" dy="0.71em">Jan 2022</text></g><text fill="currentColor" transform="translate(640,-10)" dy="-0.32em" text-anchor="end">Week number →</text></g><g fill="none" stroke="#ec025f" stroke-width="3" stroke-miterlimit="1"><path d="M40,370C46.587074048584405,369.9957181970166,53.17414809716882,369.99143639403314,53.36038499589249,369.9871545910497C62.26730832648748,369.7823740607065,62.957338302533415,369.57759353036334,66.72076999178498,369.37281300002013C73.25322023837231,369.0173611846578,75.49849289704828,368.6619093692954,80.08115498767745,368.30645755393306C84.41885940769195,367.97000575362415,84.53461665297495,367.6335539533153,93.44153998356995,367.2971021530064C96.4954774568386,367.18174214340775,102.33269816586545,367.06638213380904,106.80192497946243,366.9510221242104C111.2398416153173,366.8364702952111,114.83320901668577,366.7219184662118,120.16230997535492,366.60736663721246C124.13030482796553,366.52207250010537,131.89486823203973,366.4367783629982,133.5226949712474,366.3514842258911C142.4296183018424,365.8847832426328,139.32188376460977,365.41808225937456,146.8830799671399,364.95138127611625C150.5897116237108,364.72259622777705,158.02706668240353,364.4938111794379,160.2434649630324,364.2650261310987C169.15038829362737,363.3456196766931,169.55964524150878,362.4262132222876,173.60384995892485,361.506806767882C178.70961867779536,360.34606515294445,183.8604658050583,359.18532353800686,186.96423495481739,358.0245819230693C195.87115828541235,354.6935878729215,198.50565819263116,351.3625938227737,200.32461995070983,348.0315997726259C209.23154328130482,331.72069687015187,208.2287550021815,315.40979396767784,213.6850049466023,299.0988910652038C217.61755005462737,287.34294841778444,220.89498128577742,275.5870057703651,227.0453899424948,263.83106312294575C230.84962644140683,256.5596135990862,235.69222342986956,249.2881640752267,240.4057749383873,242.01671455136716C244.6485102927739,235.47157848639227,248.67304213073817,228.92644242141742,253.7661599342798,222.38130635644254C257.81531723806637,217.17775785745815,262.4974134773301,211.9742093584738,267.12654493017226,206.7706608594894C271.42830491236214,201.93510651709286,275.9401439500769,197.09955217469633,280.4869299260648,192.2639978322998C284.85428759900475,187.619267362972,289.0914993811906,182.9745368936442,293.8473149219572,178.32980642431642C298.06318061707066,174.21241379610467,301.7545161616358,170.09502116789295,307.2076999178497,165.9776285396812C311.1410427052033,163.00778242392815,315.5151740656723,160.0379363081751,320.5680849137422,157.06809019242203C324.63350372832815,154.67864208252334,329.41139824490904,152.28919397262462,333.92846990963477,149.89974586272592C338.3217600252491,147.57577592331415,342.8652960426837,145.2518059839024,347.28885490552716,142.92783604449062C351.7730447087862,140.57201291010782,357.0487239234463,138.21618977572498,360.64923990141966,135.86036664134218C369.5561632320147,130.0325530260835,369.6551900230533,124.2047394108248,374.00962489731216,118.37692579556611C378.57178680036304,112.27109805410983,381.7451726002279,106.16527031265356,387.3700098932046,100.05944257119728C391.26250957863317,95.83408789425836,394.34825584303724,91.60873321731945,400.7303948890971,87.38337854038053C404.50810813173007,84.88230825615541,409.1895038554181,82.38123797193029,414.0907798849896,79.88016768770517C418.2255424433808,77.77024127166064,422.9575571822871,75.66031485561611,427.4511648808822,73.55038843957158C431.86587783408953,71.47750622465584,435.8271070052098,69.4046240097401,440.8115498767746,67.33174179482437C444.9066123882417,65.62872653961625,450.2576432601936,63.92571128440814,454.1719348726671,62.22269602920002C459.70128637751935,59.817006597640066,462.3055017810938,57.4113171660801,467.5323198685596,55.00562773452015C471.53275861344116,53.16439028391075,475.49281672962326,51.32315283330136,480.89270486445207,49.48191538269196C484.84034949369055,48.13585951050279,489.82312120676795,46.78980363831363,494.2530898603446,45.44374776612446C498.7305509614416,44.08326120765541,502.60727062331375,42.72277464918636,507.6134748562371,41.362288090717314C511.69883581285376,40.25204999227567,516.2829110441131,39.14181189383403,520.9738598521296,38.03157379539239C525.2316666661981,37.023850297599196,529.774692764991,36.016126799806,534.3342448480221,35.00840330201281C538.6908501349641,34.04553382748694,542.53768457272,33.08266435296108,547.6946298439144,32.119794878435215C551.7195576629175,31.368287943557387,556.6521158513543,30.616781008679563,561.055014839807,29.865274073801736C565.5614450338574,29.09609595927908,570.1114675217336,28.326917844756426,574.4153998356994,27.55773973023377C579.0416237643298,26.730963206068427,583.1282817004309,25.904186681903088,587.775784831592,25.077410157737745C592.0640437854983,24.314542068664355,597.0427500116357,23.551673979590966,601.1361698274844,22.788805890517576C606.1242551239723,21.859203927011716,610.3104049736746,20.92960196350586,614.4965548233769,20"></path></g>

</svg>
