<svg class="plot" fill="currentColor" text-anchor="middle" width="640" height="460" viewBox="0 0 640 400" style="font-family: 'RO Sans', sans-serif; font-size: 14px;" xmlns="http://www.w3.org/2000/svg">

<style>
        line[stroke-opacity] {
            stroke-opacity: 1;
            stroke: #949494;
        }
</style>

<!-- replace the below code -->
<g transform="translate(40,0)" fill="none" text-anchor="end"><g class="tick" opacity="1" transform="translate(0,320.01993492840796)"><line stroke="currentColor" x2="0"></line><line stroke="currentColor" x2="580" stroke-opacity="0.1"></line><text fill="currentColor" x="-9" dy="0.32em">0m</text></g><g class="tick" opacity="1" transform="translate(0,277.9631239410985)"><line stroke="currentColor" x2="0"></line><line stroke="currentColor" x2="580" stroke-opacity="0.1"></line><text fill="currentColor" x="-9" dy="0.32em">0.5m</text></g><g class="tick" opacity="1" transform="translate(0,235.90631295378898)"><line stroke="currentColor" x2="0"></line><line stroke="currentColor" x2="580" stroke-opacity="0.1"></line><text fill="currentColor" x="-9" dy="0.32em">1m</text></g><g class="tick" opacity="1" transform="translate(0,193.8495019664794)"><line stroke="currentColor" x2="0"></line><line stroke="currentColor" x2="580" stroke-opacity="0.1"></line><text fill="currentColor" x="-9" dy="0.32em">1.5m</text></g><g class="tick" opacity="1" transform="translate(0,151.79269097916992)"><line stroke="currentColor" x2="0"></line><line stroke="currentColor" x2="580" stroke-opacity="0.1"></line><text fill="currentColor" x="-9" dy="0.32em">2m</text></g><g class="tick" opacity="1" transform="translate(0,109.73587999186037)"><line stroke="currentColor" x2="0"></line><line stroke="currentColor" x2="580" stroke-opacity="0.1"></line><text fill="currentColor" x="-9" dy="0.32em">2.5m</text></g><g class="tick" opacity="1" transform="translate(0,67.67906900455088)"><line stroke="currentColor" x2="0"></line><line stroke="currentColor" x2="580" stroke-opacity="0.1"></line><text fill="currentColor" x="-9" dy="0.32em">3m</text></g><text fill="currentColor" transform="translate(-40,40)" dy="-1em" text-anchor="start">↑ Number of downloads CoronaCheck Scanner (million)</text></g><g transform="translate(0,320)" fill="none" text-anchor="middle"><g class="tick" opacity="1" transform="translate(46.33026737455076,0)"><line stroke="currentColor" y2="6"></line><text fill="currentColor" dy="0.32em" transform="translate(0, 11.82842712474619) rotate(-45)" text-anchor="end">Apr 2021</text></g><g class="tick" opacity="1" transform="translate(93.80727268368139,0)"><line stroke="currentColor" y2="6"></line><text fill="currentColor" dy="0.32em" transform="translate(0, 11.82842712474619) rotate(-45)" text-anchor="end">May 2021</text></g><g class="tick" opacity="1" transform="translate(142.86684483644973,0)"><line stroke="currentColor" y2="6"></line><text fill="currentColor" dy="0.32em" transform="translate(0, 11.82842712474619) rotate(-45)" text-anchor="end">Jun 2021</text></g><g class="tick" opacity="1" transform="translate(190.34385014558038,0)"><line stroke="currentColor" y2="6"></line><text fill="currentColor" dy="0.32em" transform="translate(0, 11.82842712474619) rotate(-45)" text-anchor="end">Jul 2021</text></g><g class="tick" opacity="1" transform="translate(239.40342229834874,0)"><line stroke="currentColor" y2="6"></line><text fill="currentColor" dy="0.32em" transform="translate(0, 11.82842712474619) rotate(-45)" text-anchor="end">Aug 2021</text></g><g class="tick" opacity="1" transform="translate(288.4629944511171,0)"><line stroke="currentColor" y2="6"></line><text fill="currentColor" dy="0.32em" transform="translate(0, 11.82842712474619) rotate(-45)" text-anchor="end">Sep 2021</text></g><g class="tick" opacity="1" transform="translate(335.9399997602477,0)"><line stroke="currentColor" y2="6"></line><text fill="currentColor" dy="0.32em" transform="translate(0, 11.82842712474619) rotate(-45)" text-anchor="end">Oct 2021</text></g><g class="tick" opacity="1" transform="translate(384.99957191301604,0)"><line stroke="currentColor" y2="6"></line><text fill="currentColor" dy="0.32em" transform="translate(0, 11.82842712474619) rotate(-45)" text-anchor="end">Nov 2021</text></g><g class="tick" opacity="1" transform="translate(432.47657722214666,0)"><line stroke="currentColor" y2="6"></line><text fill="currentColor" dy="0.32em" transform="translate(0, 11.82842712474619) rotate(-45)" text-anchor="end">Dec 2021</text></g><g class="tick" opacity="1" transform="translate(481.536149374915,0)"><line stroke="currentColor" y2="6"></line><text fill="currentColor" dy="0.32em" transform="translate(0, 11.82842712474619) rotate(-45)" text-anchor="end">Jan 2022</text></g><g class="tick" opacity="1" transform="translate(530.5957215276834,0)"><line stroke="currentColor" y2="6"></line><text fill="currentColor" dy="0.32em" transform="translate(0, 11.82842712474619) rotate(-45)" text-anchor="end">Feb 2022</text></g><g class="tick" opacity="1" transform="translate(574.9075931495386,0)"><line stroke="currentColor" y2="6"></line><text fill="currentColor" dy="0.32em" transform="translate(0, 11.82842712474619) rotate(-45)" text-anchor="end">Mar 2022</text></g><text fill="currentColor" transform="translate(640,-10)" dy="-0.32em" text-anchor="end">Month →</text></g><g fill="none" stroke="#ec025f" stroke-width="3" stroke-miterlimit="1"><path d="M40,320C45.322446422452316,319.9973644398448,50.644892844904625,319.9947288796896,51.07796790546382,319.9920933195344C58.4632798424397,319.94714860752595,58.6504222370763,319.90220389551746,62.15593581092763,319.85725918350903C66.08351059485297,319.80690316182023,69.4671893257423,319.7565471401315,73.23390371639145,319.7061911184427C76.85800308556973,319.6577416721853,78.61430453312923,319.60929222592796,84.31187162185526,319.56084277967057C87.41124260762243,319.5344871781185,91.77097387792942,319.5081315765664,95.38983952731908,319.4817759750144C99.16269945966171,319.4542988585027,102.18850178775767,319.4268217419909,106.4678074327829,319.3993446254792C109.8039191805342,319.3779236897497,116.5078102315787,319.35650275402014,117.54577533824673,319.33508181829063C124.9310872752226,319.1826679352726,123.61650284847694,319.03025405225463,128.62374324371052,318.8778401692366C131.79057408970266,318.7814459584537,137.1338812099224,318.6850517476708,139.70171114917437,318.58865753688787C147.08702308615023,318.3114190388595,146.21828491295244,318.0341805408312,150.77967905463817,317.75694204280285C154.03096403750635,317.55933110691046,159.23790371525814,317.36172017101813,161.857646960102,317.16410923512575C169.24295889707787,316.6070247167878,172.23192295576143,316.0499401984499,172.9356148655658,315.492855680112C180.32092680254166,309.6462019302782,179.10080265713995,303.7995481804444,184.0135827710296,297.9528944306106C187.19467309553357,294.167108532777,190.46620869962803,290.38132263494333,195.09155067649345,286.5955367371097C198.3276526377189,283.9468268190029,201.33271913483358,281.2981169008961,206.16951858195725,278.64940698278934C209.36331456489475,276.90043244107113,212.8585533441983,275.15145789935286,217.24748648742107,273.40248335763465C220.54669718363073,272.08775940829736,224.33423261372573,270.77303545896007,228.3254543928849,269.4583115096228C231.79278096719182,268.31616067470344,235.55118354416663,267.17400983978405,239.40342229834874,266.0318590048647C242.96004787633362,264.9773545640429,246.92897523502327,263.92285012322105,250.4813902038125,262.86834568239925C254.33945831907872,261.7231106813408,257.3373116624276,260.57787568028243,261.55935810927633,259.432640679224C264.9171698613667,258.52183034260884,268.6839057056008,257.6110200059936,272.63732601474015,256.70020966937847C276.1268264156621,255.89627970841906,280.1217046501126,255.09234974745965,283.715293920204,254.28841978650024C287.5189363977266,253.437498348731,291.2112653260921,252.58657691096178,294.7932618256678,251.73565547319254C298.6116660813031,250.82857417381823,304.08951586035477,249.9214928744439,305.8712297311316,249.0144115750696C313.2565416681075,245.25450463493016,313.8358355010243,241.4945976947907,316.94919763659544,237.73469075465127C322.4507066369431,231.09069594424608,323.71276449661485,224.44670113384086,328.0271655420592,217.80270632343567C331.35083743810236,212.6843924262801,333.41660030377375,207.56607852912452,339.1051334475231,202.44776463196897C342.2050801861711,199.6585569272906,346.4530860338951,196.86934922261221,350.1831013529869,194.08014151793384C353.83985119224855,191.34571981903494,357.16331453664606,188.61129812013604,361.2610692584507,185.87687642123714C364.6728956551578,183.60017301525014,368.9808700308769,181.3234696092631,372.3390371639145,179.0467662032761C376.5601847228717,176.1849964807076,380.9427258207069,173.32322675813916,383.4170050693784,170.46145703557067C390.8023170063542,161.91955049680416,389.8248064117399,153.37764395803765,394.49497297484214,144.83573741927114C397.72114910312246,138.93494253475967,400.3373361608941,133.03414765024823,405.57294088030596,127.13335276573676C408.7112239152038,123.59634692383004,411.91998798291263,120.05934108192331,416.6509087857698,116.52233524001659C419.86449674399154,114.11974177980757,422.5414934928027,111.71714831959854,427.7288766912336,109.31455485938952C430.8725673574379,107.85852002513487,434.7896422094804,106.40248519088023,438.80684459669743,104.94645035662558C442.2597310374711,103.69495181313921,446.0855113430314,102.44345326965284,449.88481250216125,101.19195472616647C453.4818746713706,100.007074171284,457.57074323542184,98.82219361640155,460.962780407625,97.63731306151908C465.1033774157952,96.19095129379151,465.9906824689369,94.74458952606393,472.0407483130889,93.29822775833637C475.1219589101028,92.56161673283064,479.4920568707572,91.82500570732493,483.1187162185527,91.08839468181921C486.882452025406,90.32394204743987,490.61281979344767,89.55948941306052,494.1966841240165,88.79503677868118C498.0126813872015,87.9810692588328,501.73655211053585,87.16710173898443,505.2746520294803,86.35313421913605C509.15302183143586,85.46088495510328,513.2423282614959,84.5686356910705,516.3526199349442,83.67638642703773C521.8934408902109,82.08689131258336,524.063657577288,80.497396198129,527.430587840408,78.90790108367463C531.6299411436557,76.92542712735482,534.6417060151356,74.94295317103501,538.5085557458718,72.9604792147152C542.0547129451608,71.14241935148182,543.5217281268616,69.32435948824842,549.5865236513356,67.50629962501503C552.6671363649609,66.58281616935568,555.5842449396342,65.65933271369632,560.6644915567995,64.73584925803696C563.8213488150051,64.16199809105214,566.3792702943977,63.5881469240673,571.7424594622632,63.01429575708247C574.8678201504508,62.67988803398537,578.0095224432806,62.34548031088827,582.820427367727,62.01107258779117C585.1873587081018,61.84654634320882,588.158611721453,61.68202009862648,590.7332615859154,61.51749385404413C594.5654006309422,61.27261106260202,598.2286352534079,61.0277282711599,601.8112294913793,60.782845479717786C605.6288622567558,60.521896986478524,609.2590298267995,60.26094849323926,612.8891973968431,60"></path></g>

</svg>

