<svg class="plot" fill="currentColor" text-anchor="middle" width="640" height="460" viewBox="0 0 640 400" style="font-family: 'RO Sans', sans-serif; font-size: 14px;" xmlns="http://www.w3.org/2000/svg"><g transform="translate(40,0)" fill="none" text-anchor="end"><g class="tick" opacity="1" transform="translate(0,370.1194678789102)"><line stroke="currentColor" x2="0"></line><line stroke="currentColor" x2="580" stroke-opacity="0.1"></line><text fill="currentColor" x="-9" dy="0.32em">0m</text></g><g class="tick" opacity="1" transform="translate(0,321.82034561885905)"><line stroke="currentColor" x2="0"></line><line stroke="currentColor" x2="580" stroke-opacity="0.1"></line><text fill="currentColor" x="-9" dy="0.32em">2m</text></g><g class="tick" opacity="1" transform="translate(0,273.5212233588079)"><line stroke="currentColor" x2="0"></line><line stroke="currentColor" x2="580" stroke-opacity="0.1"></line><text fill="currentColor" x="-9" dy="0.32em">4m</text></g><g class="tick" opacity="1" transform="translate(0,225.22210109875672)"><line stroke="currentColor" x2="0"></line><line stroke="currentColor" x2="580" stroke-opacity="0.1"></line><text fill="currentColor" x="-9" dy="0.32em">6m</text></g><g class="tick" opacity="1" transform="translate(0,176.92297883870555)"><line stroke="currentColor" x2="0"></line><line stroke="currentColor" x2="580" stroke-opacity="0.1"></line><text fill="currentColor" x="-9" dy="0.32em">8m</text></g><g class="tick" opacity="1" transform="translate(0,128.6238565786544)"><line stroke="currentColor" x2="0"></line><line stroke="currentColor" x2="580" stroke-opacity="0.1"></line><text fill="currentColor" x="-9" dy="0.32em">10m</text></g><g class="tick" opacity="1" transform="translate(0,80.32473431860322)"><line stroke="currentColor" x2="0"></line><line stroke="currentColor" x2="580" stroke-opacity="0.1"></line><text fill="currentColor" x="-9" dy="0.32em">12m</text></g><g class="tick" opacity="1" transform="translate(0,32.025612058552056)"><line stroke="currentColor" x2="0"></line><line stroke="currentColor" x2="580" stroke-opacity="0.1"></line><text fill="currentColor" x="-9" dy="0.32em">14m</text></g><g class="tick" opacity="1" transform="translate(0,-16.273510201499104)"><line stroke="currentColor" x2="0"></line><line stroke="currentColor" x2="580" stroke-opacity="0.1"></line><text fill="currentColor" x="-9" dy="0.32em">16m</text></g><text fill="currentColor" transform="translate(10,20)" dy="-1em" text-anchor="start">↑ Number of downloads CoronaCheck (million)</text></g><g transform="translate(0,370)" fill="none" text-anchor="middle"><g class="tick" opacity="1" transform="translate(47.4358974358974,0)"><line stroke="currentColor" y2="0"></line><text fill="currentColor" y="9" dy="0.71em">12</text></g><g class="tick" opacity="1" transform="translate(77.17948717948715,0)"><line stroke="currentColor" y2="0"></line><text fill="currentColor" y="9" dy="0.71em">14</text></g><g class="tick" opacity="1" transform="translate(106.92307692307689,0)"><line stroke="currentColor" y2="0"></line><text fill="currentColor" y="9" dy="0.71em">16</text></g><g class="tick" opacity="1" transform="translate(136.66666666666663,0)"><line stroke="currentColor" y2="0"></line><text fill="currentColor" y="9" dy="0.71em">18</text></g><g class="tick" opacity="1" transform="translate(166.41025641025638,0)"><line stroke="currentColor" y2="0"></line><text fill="currentColor" y="9" dy="0.71em">20</text></g><g class="tick" opacity="1" transform="translate(196.15384615384613,0)"><line stroke="currentColor" y2="0"></line><text fill="currentColor" y="9" dy="0.71em">22</text></g><g class="tick" opacity="1" transform="translate(225.89743589743586,0)"><line stroke="currentColor" y2="0"></line><text fill="currentColor" y="9" dy="0.71em">24</text></g><g class="tick" opacity="1" transform="translate(255.6410256410256,0)"><line stroke="currentColor" y2="0"></line><text fill="currentColor" y="9" dy="0.71em">26</text></g><g class="tick" opacity="1" transform="translate(285.38461538461536,0)"><line stroke="currentColor" y2="0"></line><text fill="currentColor" y="9" dy="0.71em">28</text></g><g class="tick" opacity="1" transform="translate(315.1282051282051,0)"><line stroke="currentColor" y2="0"></line><text fill="currentColor" y="9" dy="0.71em">30</text></g><g class="tick" opacity="1" transform="translate(344.87179487179486,0)"><line stroke="currentColor" y2="0"></line><text fill="currentColor" y="9" dy="0.71em">32</text></g><g class="tick" opacity="1" transform="translate(374.6153846153846,0)"><line stroke="currentColor" y2="0"></line><text fill="currentColor" y="9" dy="0.71em">34</text></g><g class="tick" opacity="1" transform="translate(404.3589743589743,0)"><line stroke="currentColor" y2="0"></line><text fill="currentColor" y="9" dy="0.71em">36</text></g><g class="tick" opacity="1" transform="translate(434.1025641025641,0)"><line stroke="currentColor" y2="0"></line><text fill="currentColor" y="9" dy="0.71em">38</text></g><g class="tick" opacity="1" transform="translate(463.8461538461538,0)"><line stroke="currentColor" y2="0"></line><text fill="currentColor" y="9" dy="0.71em">40</text></g><g class="tick" opacity="1" transform="translate(493.5897435897436,0)"><line stroke="currentColor" y2="0"></line><text fill="currentColor" y="9" dy="0.71em">42</text></g><g class="tick" opacity="1" transform="translate(523.3333333333333,0)"><line stroke="currentColor" y2="0"></line><text fill="currentColor" y="9" dy="0.71em">44</text></g><g class="tick" opacity="1" transform="translate(553.0769230769231,0)"><line stroke="currentColor" y2="0"></line><text fill="currentColor" y="9" dy="0.71em">46</text></g><g class="tick" opacity="1" transform="translate(582.8205128205127,0)"><line stroke="currentColor" y2="0"></line><text fill="currentColor" y="9" dy="0.71em">48</text></g><g class="tick" opacity="1" transform="translate(612.5641025641025,0)"><line stroke="currentColor" y2="0"></line><text fill="currentColor" y="9" dy="0.71em">50</text></g><text fill="currentColor" transform="translate(640,-10)" dy="-0.32em" text-anchor="end">Week number →</text></g><g fill="none" stroke="#ec025f" stroke-width="3" stroke-miterlimit="1"><path d="M47.4358974358974,370C54.76814228408033,369.9955645306058,62.10038713226326,369.99112906121155,62.30769230769228,369.98669359181736C72.2222222222222,369.7745638468512,72.99031268236229,369.56243410188506,77.17948717948715,369.3503043569189C84.4509288413337,368.9820959983694,86.95020071271738,368.61388763981995,92.05128205128202,368.24567928127044C96.87969458346336,367.8971528150419,97.00854700854697,367.54862634881334,106.92307692307689,367.2000998825848C110.3224948042014,367.08059980425975,116.82005823764429,366.96109972593473,121.79487179487177,366.84159964760966C126.7348331722457,366.7229367540704,130.7347046511427,366.6042738605311,136.66666666666663,366.4856109669919C141.0835457849335,366.39725577267086,149.72648491056026,366.3089005783498,151.5384615384615,366.22054538402875C161.45299145299143,365.73709531976675,157.99369064931466,365.25364525550475,166.41025641025638,364.77019519124275C170.53620530160723,364.5331994481664,178.81492023800996,364.2962037050901,181.28205128205124,364.0592079620137C191.19658119658118,363.1068056200215,191.65213583670723,362.15440327802924,196.15384615384613,361.202000936037C201.83721119708508,359.9996023372267,207.57075419874081,358.79720373841644,211.025641025641,357.59480513960614C220.9401709401709,354.1442675462258,223.87270186813194,350.69372995284556,225.89743589743586,347.24319235946524C235.8119658119658,330.34691971542804,234.6957358835957,313.4506470713908,240.76923076923075,296.5543744273536C245.14664984724456,284.37653158529156,248.79484449066703,272.19868874322947,255.6410256410256,260.02084590116743C259.87562104175754,252.48843678763825,265.2660427310525,244.9560276741091,270.5128205128205,237.4236185605799C275.2355204877949,230.64358902405667,279.7153324069583,223.86355948753342,285.38461538461536,217.08352995101018C289.8918385555088,211.69323520883654,295.10360265225756,206.3029404666629,300.2564102564102,200.91264572448927C305.0448120923223,195.90355180475308,310.06705843358253,190.89445788501686,315.1282051282051,185.88536396528067C319.98962547377823,181.07394225324745,324.7061770156983,176.2625205412142,330,171.45109882918098C334.69279065266755,167.18594018990893,338.80171304065374,162.92078155063686,344.87179487179486,158.65562291136482C349.2501018675858,155.57919421930345,354.1190621823656,152.50276552724205,359.7435897435897,149.42633683518068C364.26891402855944,146.95113561701243,369.58731369978966,144.47593439884415,374.6153846153846,142.0007331806759C379.50567104289297,139.59336002986817,384.5632001234303,137.18598687906047,389.48717948717945,134.77861372825274C394.4786487405554,132.33824422708767,400.3511456120106,129.8978747259226,404.3589743589743,127.45750522475754C414.2735042735043,121.42054158449777,414.3837335912665,115.38357794423798,419.2307692307692,109.34661430397821C424.3090312729895,103.02165909738919,427.8414102185937,96.69670389080018,434.1025641025641,90.37174868421116C438.4354075706241,85.99475342734597,441.87023265124367,81.61775817048077,448.97435897435895,77.24076291361558C453.1794306430401,74.64993359675677,458.39041497753277,72.05910427989794,463.8461538461538,69.46827496303912C468.44866647066846,67.28262698281986,473.7159961583203,65.09697900260059,478.7179487179487,62.91133102238133C483.6320814677265,60.76405669479768,488.0414295285184,58.616782367214036,493.5897435897436,56.469508039630384C498.1480650510217,54.70537454922831,504.104437828062,52.94124105882624,508.46153846153845,51.17710756842417C514.6164046109417,48.68508215600198,517.5152250637829,46.193056743579795,523.3333333333333,43.70103133115761C527.7863265988229,41.79371509281561,532.194371127656,39.88639885447362,538.2051282051282,37.97908261613162C542.5993549561407,36.58471915589878,548.1458088070328,35.19035569566594,553.0769230769231,33.795992235433104C558.0609024354841,32.38668019686079,562.3761807455435,30.977368158288474,567.948717948718,29.56805611971616C572.4962403549004,28.417973520167234,577.5932559365622,27.26789092061831,582.8205128205127,26.117808321069383C587.5561799830888,25.075883555968147,592.6218288881636,24.033958790866908,597.6923076923076,22.992034025765673C602.5458395457483,21.99468935051045,607.5549710549254,20.997344675255224,612.5641025641025,20"></path></g></svg>
