<svg class="plot" fill="currentColor" text-anchor="middle" width="640" height="460" viewBox="0 0 640 400" style="font-family: 'RO Sans', sans-serif; font-size: 14px;" xmlns="http://www.w3.org/2000/svg">

<g transform="translate(40,0)" fill="none" text-anchor="end"><g class="tick" opacity="1" transform="translate(0,370.11291131735345)"><line stroke="currentColor" x2="0"></line><line stroke="currentColor" x2="580" stroke-opacity="0.1"></line><text fill="currentColor" x="-9" dy="0.32em">0m</text></g><g class="tick" opacity="1" transform="translate(0,324.46451133616057)"><line stroke="currentColor" x2="0"></line><line stroke="currentColor" x2="580" stroke-opacity="0.1"></line><text fill="currentColor" x="-9" dy="0.32em">2m</text></g><g class="tick" opacity="1" transform="translate(0,278.8161113549678)"><line stroke="currentColor" x2="0"></line><line stroke="currentColor" x2="580" stroke-opacity="0.1"></line><text fill="currentColor" x="-9" dy="0.32em">4m</text></g><g class="tick" opacity="1" transform="translate(0,233.1677113737749)"><line stroke="currentColor" x2="0"></line><line stroke="currentColor" x2="580" stroke-opacity="0.1"></line><text fill="currentColor" x="-9" dy="0.32em">6m</text></g><g class="tick" opacity="1" transform="translate(0,187.51931139258204)"><line stroke="currentColor" x2="0"></line><line stroke="currentColor" x2="580" stroke-opacity="0.1"></line><text fill="currentColor" x="-9" dy="0.32em">8m</text></g><g class="tick" opacity="1" transform="translate(0,141.8709114113892)"><line stroke="currentColor" x2="0"></line><line stroke="currentColor" x2="580" stroke-opacity="0.1"></line><text fill="currentColor" x="-9" dy="0.32em">10m</text></g><g class="tick" opacity="1" transform="translate(0,96.22251143019633)"><line stroke="currentColor" x2="0"></line><line stroke="currentColor" x2="580" stroke-opacity="0.1"></line><text fill="currentColor" x="-9" dy="0.32em">12m</text></g><g class="tick" opacity="1" transform="translate(0,50.57411144900348)"><line stroke="currentColor" x2="0"></line><line stroke="currentColor" x2="580" stroke-opacity="0.1"></line><text fill="currentColor" x="-9" dy="0.32em">14m</text></g><g class="tick" opacity="1" transform="translate(0,4.925711467810627)"><line stroke="currentColor" x2="0"></line><line stroke="currentColor" x2="580" stroke-opacity="0.1"></line><text fill="currentColor" x="-9" dy="0.32em">16m</text></g><text fill="currentColor" transform="translate(10,20)" dy="-1em" text-anchor="start">↑ Aantal downloads CoronaCheck (miljoen)</text></g><g transform="translate(0,370)" fill="none" text-anchor="middle"><g class="tick" opacity="1" transform="translate(102.0885355100321,0)"><line stroke="currentColor" y2="6"></line><text fill="currentColor" y="9" dy="0.71em">mei 2021</text></g><g class="tick" opacity="1" transform="translate(213.4826727486191,0)"><line stroke="currentColor" y2="6"></line><text fill="currentColor" y="9" dy="0.71em">jul. 2021</text></g><g class="tick" opacity="1" transform="translate(326.70294338456,0)"><line stroke="currentColor" y2="6"></line><text fill="currentColor" y="9" dy="0.71em">sep. 2021</text></g><g class="tick" opacity="1" transform="translate(438.097080623147,0)"><line stroke="currentColor" y2="6"></line><text fill="currentColor" y="9" dy="0.71em">nov. 2021</text></g><g class="tick" opacity="1" transform="translate(549.491217861734,0)"><line stroke="currentColor" y2="6"></line><text fill="currentColor" y="9" dy="0.71em">jan. 2022</text></g><text fill="currentColor" transform="translate(640,-10)" dy="-0.32em" text-anchor="end">Weeknummer →</text></g><g fill="none" stroke="#ec025f" stroke-width="3" stroke-miterlimit="1"><path d="M40,370C46.30237312791729,369.9958079552684,52.60474625583458,369.9916159105368,52.7829337814772,369.98742386580517C61.30488963579533,369.7869360930878,61.965095722202406,369.58644832037044,65.5658675629544,369.38596054765304C71.81597779245743,369.0379599703964,73.96420718300516,368.68995939313976,78.34880134443159,368.3419588158831C82.49902518766011,368.0125599616188,82.60977927159065,367.6831611073545,91.13173512590879,367.3537622530902C94.05367790716646,367.2408205034701,99.63860721977855,367.12787875385,103.91466890738599,367.01493700422986C108.16077367916326,366.90278649354275,111.59883160626335,366.7906359828556,116.69760268886318,366.67848547216846C120.49409623764663,366.5949793324695,127.92306627607486,366.5114731927706,129.48053647034038,366.42796705307165C138.0024923246585,365.9710493934599,135.02907765045057,365.51413173384816,142.26347025181758,365.0572140742364C145.80989702266584,364.83322498359536,152.92580103694644,364.60923589295436,155.04640403329478,364.3852468023133C163.5683598876129,363.48511361115084,163.95992827924127,362.5849804199883,167.82933781477197,361.68484722882584C172.7144293339852,360.5484379193607,177.6426509209049,359.41202860989563,180.61227159624917,358.2756193004305C189.1342274505673,355.0144519573741,191.65486124006063,351.75328461431764,193.39520537772637,348.49211727126124C201.9171612320445,332.5231353155738,200.95771461633578,316.55415335988636,206.17813915920357,300.58517140419895C209.94071514215702,289.0756653314075,213.0764920238873,277.5661592586161,218.96107294068076,266.05665318582464C222.60088596026227,258.93763304742436,227.23418033410937,251.81861290902404,231.74400672215796,244.69959277062375C235.80336617206376,238.2916605829305,239.6539531126317,231.88372839523723,244.52694050363516,225.47579620754397C248.40108856905402,220.38132825670957,252.88081922078402,215.28686030587517,257.30987428511236,210.19239235504077C261.4257072504833,205.4582044010579,265.74253941284405,200.72401644707506,270.09280806658955,195.9898284930922C274.27140351502766,191.44246422409904,278.3254781278798,186.8950999551059,282.87574184806675,182.34773568611274C286.9093929762943,178.31665482090688,290.4411847507002,174.285573955701,295.65867562954395,170.25449309049515C299.4220148152074,167.34690303755974,303.60709118460454,164.43931298462437,308.44160941102115,161.53172293168896C312.33131614602917,159.19236416171944,316.90270456328756,156.8530053917499,321.22454319249834,154.51364662178037C325.42795025359584,152.2383934215178,329.7751094157369,149.9631402212552,334.0074769739756,147.68788702099263C338.29785493361214,145.3814483554762,343.34551322145694,143.07500968995978,346.79041075545274,140.76857102444336C355.3123666097709,135.0629242543274,355.4071133489425,129.35727748421147,359.57334453692994,123.65163071409553C363.9383245524764,117.67379775102506,366.97455296619535,111.69596478795461,372.35627831840713,105.71813182488414C376.08053968801227,101.58135208952183,379.03291644784696,97.44457235415952,385.1392120998843,93.30779261879721C388.7536482288456,90.8591515792727,393.23270864208916,88.41051053974822,397.92214588136153,85.96186950022371C401.878199243768,83.89617288814145,406.4056908601405,81.83047627605919,410.7050796628387,79.76477966397692C414.92898364183554,77.73535070567972,418.7190039296681,75.7059217473825,423.48801344431587,73.6764927890853C427.4060826415124,72.00917737170556,432.52583580130766,70.34186195432582,436.2709472257931,68.67454653694608C441.56131379552653,66.3192869076498,444.05297201247384,63.964027278353505,449.0538810072703,61.608767649057214C452.88141618596455,59.80612754993324,456.67031603320106,58.00348745080925,461.8368147887476,56.200847351685276C465.6138376742313,54.883008476494894,470.3812482597846,53.565169601304504,474.6197485702247,52.24733072611412C478.9036886499499,50.91536367112956,482.6128520267761,49.58339661614501,487.4026823517019,48.25142956116045C491.3114693064131,47.16446507694161,495.6974155309053,46.07750059272277,500.18561613317905,44.99053610850393C504.2593956369354,44.0039372397104,508.60606691970486,43.01733837091687,512.9685499146563,42.03073950212334C517.1368577075929,41.08805439411174,520.8174275340808,40.14536928610013,525.7514836961335,39.202684178088525C529.6024495029842,38.46693087525832,534.3218168502166,37.731177572428116,538.5344174776106,36.99542426959791C542.8460745727547,36.242370223174824,547.1994398526202,35.48931617675174,551.3173512590879,34.736262130328655C555.7436244657467,33.926817093795485,559.6536523429965,33.117372057262315,564.100285040565,32.307927020729146C568.2032005076315,31.56105072443686,572.966721321269,30.81417442814457,576.8832188220423,30.067298131852287C581.6557133318163,29.157183157227255,585.9145211719446,28.247068182602224,589.6661526035195,27.336953207977192C594.9297581454199,26.060045731436613,597.9822175116625,24.78313825489603,602.4490863849967,23.50623077835545C606.537577110781,22.3374871855703,610.8847986386274,21.16874359278515,615.2320201664738,20"></path></g>

</svg>
