<svg class="plot" fill="currentColor" text-anchor="middle" width="640" height="460" viewBox="0 0 640 400" style="font-family: 'RO Sans', sans-serif; font-size: 14px;" xmlns="http://www.w3.org/2000/svg">

<g transform="translate(40,0)" fill="none" text-anchor="end"><g class="tick" opacity="1" transform="translate(0,370.02743640222894)"><line stroke="currentColor" x2="0"></line><line stroke="currentColor" x2="580" stroke-opacity="0.1"></line><text fill="currentColor" x="-9" dy="0.32em">0m</text></g><g class="tick" opacity="1" transform="translate(0,312.144731277839)"><line stroke="currentColor" x2="0"></line><line stroke="currentColor" x2="580" stroke-opacity="0.1"></line><text fill="currentColor" x="-9" dy="0.32em">0.5m</text></g><g class="tick" opacity="1" transform="translate(0,254.26202615344909)"><line stroke="currentColor" x2="0"></line><line stroke="currentColor" x2="580" stroke-opacity="0.1"></line><text fill="currentColor" x="-9" dy="0.32em">1m</text></g><g class="tick" opacity="1" transform="translate(0,196.37932102905918)"><line stroke="currentColor" x2="0"></line><line stroke="currentColor" x2="580" stroke-opacity="0.1"></line><text fill="currentColor" x="-9" dy="0.32em">1.5m</text></g><g class="tick" opacity="1" transform="translate(0,138.49661590466923)"><line stroke="currentColor" x2="0"></line><line stroke="currentColor" x2="580" stroke-opacity="0.1"></line><text fill="currentColor" x="-9" dy="0.32em">2m</text></g><g class="tick" opacity="1" transform="translate(0,80.6139107802793)"><line stroke="currentColor" x2="0"></line><line stroke="currentColor" x2="580" stroke-opacity="0.1"></line><text fill="currentColor" x="-9" dy="0.32em">2.5m</text></g><g class="tick" opacity="1" transform="translate(0,22.731205655889326)"><line stroke="currentColor" x2="0"></line><line stroke="currentColor" x2="580" stroke-opacity="0.1"></line><text fill="currentColor" x="-9" dy="0.32em">3m</text></g><g class="tick" opacity="1" transform="translate(0,-35.151499468500575)"><line stroke="currentColor" x2="0"></line><line stroke="currentColor" x2="580" stroke-opacity="0.1"></line><text fill="currentColor" x="-9" dy="0.32em">3.5m</text></g><text fill="currentColor" transform="translate(10,20)" dy="-1em" text-anchor="start">↑ Aantal downloads CoronaCheck Scanner (miljoen)</text></g><g transform="translate(0,370)" fill="none" text-anchor="middle"><g class="tick" opacity="1" transform="translate(102.0885354557304,0)"><line stroke="currentColor" y2="6"></line><text fill="currentColor" y="9" dy="0.71em">May 2021</text></g><g class="tick" opacity="1" transform="translate(213.48267259689374,0)"><line stroke="currentColor" y2="6"></line><text fill="currentColor" y="9" dy="0.71em">Jul 2021</text></g><g class="tick" opacity="1" transform="translate(326.7029431338139,0)"><line stroke="currentColor" y2="6"></line><text fill="currentColor" y="9" dy="0.71em">Sep 2021</text></g><g class="tick" opacity="1" transform="translate(438.0970802749773,0)"><line stroke="currentColor" y2="6"></line><text fill="currentColor" y="9" dy="0.71em">Nov 2021</text></g><g class="tick" opacity="1" transform="translate(549.4912174161406,0)"><line stroke="currentColor" y2="6"></line><text fill="currentColor" y="9" dy="0.71em">Jan 2022</text></g><text fill="currentColor" transform="translate(640,-10)" dy="-0.32em" text-anchor="end">Weeknummer →</text></g><g fill="none" stroke="#ec025f" stroke-width="3" stroke-miterlimit="1"><path d="M40,370C46.14160292706823,369.9963726838122,52.283205854136455,369.9927453676244,52.78293377029743,369.9891180514366C61.30488961716239,369.92726073389366,61.52083435149316,369.8654034163508,65.56586754059487,369.80354609880783C70.09791969756762,369.7342412065389,74.00236692886499,369.66493631426994,78.34880131089231,369.595631422001C82.53067136219714,369.52895054569774,84.55727816196448,369.4622696693944,91.13173508118973,369.3955887930911C94.70811789604707,369.3593156312132,99.73883802091122,369.3230424693352,103.91466885148718,369.28676930745723C108.26819461102117,369.24895260677596,111.7596861094799,369.21113590609474,116.69760262178463,369.17331920541346C120.54716202525603,369.1438376142701,128.28282221492884,369.11435602312673,129.48053639208206,369.0848744319834C138.00249223894699,368.8751075086126,136.4855853652355,368.66534058524184,142.26347016237946,368.45557366187103C145.91769531554013,368.3229065017259,152.08336952718315,368.1902393415808,155.04640393267692,368.0575721814357C163.56835977954188,367.67600938925574,162.56591757836514,367.29444659707576,167.82933770297436,366.9128838048958C171.58101499244074,366.64091226775133,177.58933399233666,366.3689407306069,180.6122714732718,366.0969691934624C189.13422732013674,365.33025488138475,192.5832109180317,364.56354056930707,193.39520524356922,363.7968262572294C201.91716109043418,355.7500883562469,200.50925250328993,347.7033504552645,206.17813901386666,339.65661255428205C209.84881826501453,334.446242969805,213.62386286806696,329.23587338532786,218.96107278416412,324.0255038008508C222.69523029367193,320.3800896205868,226.16279459208545,316.7346754403228,231.74400655446152,313.0892612600588C235.4293469412662,310.6821510847559,239.46252398316537,308.2750409094531,244.52694032475895,305.8679307341502C248.33391938299437,304.0584787834917,252.70437928762004,302.2490268328332,257.3098740950564,300.43957488217467C261.3108430757931,298.8676349648766,265.64768640604757,297.2956950475785,270.09280786535385,295.7237551302804C274.1968195033279,294.2724427704615,278.7765886449436,292.82113041064264,282.8757416356513,291.36981805082377C287.3275896297605,289.7936334018165,290.78683062667574,288.21744875280933,295.6586754059487,286.6412641038021C299.53327457489263,285.38771765315823,303.8797337123399,284.1341712025143,308.4416091762461,282.88062475187047C312.4681646688299,281.7741775491827,317.0778786820106,280.667730346495,321.2245429465436,279.5612831438072C325.6135888700365,278.39016166526045,329.8741894199054,277.21904018671376,334.00747671684104,276.047918708167C338.4135563448506,274.79950452404415,344.73448013943204,273.55109033992136,346.79041048713844,272.3026761557985C355.3123663340034,267.12792372920796,355.98081697070046,261.9531713026174,359.5733442574359,256.7784188760269C365.9215685697174,247.63430206282615,367.3778647218764,238.49018524962543,372.3562780277333,229.3460684364247C376.1914830115249,222.30174322278646,378.57517920223086,215.2574180091482,385.1392117980308,208.21309279550997C388.716258977599,204.37431179166043,393.61805846561793,200.53553078781087,397.92214556832823,196.69674978396134C402.1416911933677,192.93337065065384,405.97665552816153,189.16999151734632,410.70507933862564,185.40661238403882C414.64200633074563,182.2731900248351,419.6130038637674,179.13976766563138,423.48801310892304,176.00634530642765C428.3588206560536,172.0676973420035,433.41586117804343,168.12904937757932,436.2709468792205,164.19040141315517C444.79290272608546,152.43419247157107,443.6649473738628,140.677983529987,449.0538806495179,128.92177458840288C452.7765846807132,120.8005223516903,455.79541865600476,112.67927011497774,461.83681441981537,104.55801787826516C465.458098082116,99.69004378883389,469.16071023193103,94.82206969940262,474.6197481901128,89.95409560997135C478.3279266561935,86.64741102009529,481.4169292995825,83.34072643021925,487.4026819604103,80.03404184034319C491.03020552098786,78.03010400046672,495.5501417434299,76.02616616059024,500.1856157307077,74.02222832071377C504.16992215454184,72.29979337009225,508.5845130509069,70.57735841947073,512.9685495010051,68.85492346884921C517.1192211647103,67.22417472314474,521.8373911843167,65.59342597744026,525.7514832713026,63.962677231735796C530.5293430535851,61.97205241403793,531.5532096891586,59.981427596340076,538.5344170416,57.99080277864221C542.0898444746891,56.97700649262357,547.132526785874,55.963210206604934,551.3173508118974,54.949413920586295C555.6603481881737,53.89729928377529,559.9648419838464,52.84518464696429,564.1002845821948,51.793070010153286C568.5035867671445,50.67280813517585,572.8005835838669,49.552546260198405,576.8832183524922,48.43228438522097C581.3584925849322,47.204283501772,586.0771678607585,45.976282618323026,589.6661521227898,44.748281734874055C596.0597387362081,42.56066277740287,598.563964819443,40.37304381993168,602.4490858930872,38.18542486246049C607.2947449175207,35.456949908306996,611.2633822904527,32.7284749541535,615.2320196633846,30"></path></g>

</svg>
