<svg class="plot" fill="currentColor" text-anchor="middle" width="640" height="460" viewBox="0 0 640 400" style="font-family: 'RO Sans', sans-serif; font-size: 14px;" xmlns="http://www.w3.org/2000/svg">

<g transform="translate(40,0)" fill="none" text-anchor="end"><g class="tick" opacity="1" transform="translate(0,320.0890382244191)"><line stroke="currentColor" x2="0"></line><line stroke="currentColor" x2="580" stroke-opacity="0.1"></line><text fill="currentColor" x="-9" dy="0.32em">0m</text></g><g class="tick" opacity="1" transform="translate(0,284.09218177846844)"><line stroke="currentColor" x2="0"></line><line stroke="currentColor" x2="580" stroke-opacity="0.1"></line><text fill="currentColor" x="-9" dy="0.32em">2m</text></g><g class="tick" opacity="1" transform="translate(0,248.09532533251777)"><line stroke="currentColor" x2="0"></line><line stroke="currentColor" x2="580" stroke-opacity="0.1"></line><text fill="currentColor" x="-9" dy="0.32em">4m</text></g><g class="tick" opacity="1" transform="translate(0,212.09846888656708)"><line stroke="currentColor" x2="0"></line><line stroke="currentColor" x2="580" stroke-opacity="0.1"></line><text fill="currentColor" x="-9" dy="0.32em">6m</text></g><g class="tick" opacity="1" transform="translate(0,176.10161244061644)"><line stroke="currentColor" x2="0"></line><line stroke="currentColor" x2="580" stroke-opacity="0.1"></line><text fill="currentColor" x="-9" dy="0.32em">8m</text></g><g class="tick" opacity="1" transform="translate(0,140.10475599466577)"><line stroke="currentColor" x2="0"></line><line stroke="currentColor" x2="580" stroke-opacity="0.1"></line><text fill="currentColor" x="-9" dy="0.32em">10m</text></g><g class="tick" opacity="1" transform="translate(0,104.10789954871514)"><line stroke="currentColor" x2="0"></line><line stroke="currentColor" x2="580" stroke-opacity="0.1"></line><text fill="currentColor" x="-9" dy="0.32em">12m</text></g><g class="tick" opacity="1" transform="translate(0,68.11104310276448)"><line stroke="currentColor" x2="0"></line><line stroke="currentColor" x2="580" stroke-opacity="0.1"></line><text fill="currentColor" x="-9" dy="0.32em">14m</text></g><text fill="currentColor" transform="translate(-40,40)" dy="-1em" text-anchor="start">↑ Aantal downloads CoronaCheck (miljoen)</text></g><g transform="translate(0,320)" fill="none" text-anchor="middle"><g class="tick" opacity="1" transform="translate(46.996330390435006,0)"><line stroke="currentColor" y2="6"></line><text fill="currentColor" dy="0.32em" transform="translate(0, 11.82842712474619) rotate(-45)" text-anchor="end">apr. 2021</text></g><g class="tick" opacity="1" transform="translate(99.4688083186976,0)"><line stroke="currentColor" y2="6"></line><text fill="currentColor" dy="0.32em" transform="translate(0, 11.82842712474619) rotate(-45)" text-anchor="end">mei 2021</text></g><g class="tick" opacity="1" transform="translate(153.69036884456892,0)"><line stroke="currentColor" y2="6"></line><text fill="currentColor" dy="0.32em" transform="translate(0, 11.82842712474619) rotate(-45)" text-anchor="end">jun. 2021</text></g><g class="tick" opacity="1" transform="translate(206.1628467728315,0)"><line stroke="currentColor" y2="6"></line><text fill="currentColor" dy="0.32em" transform="translate(0, 11.82842712474619) rotate(-45)" text-anchor="end">jul. 2021</text></g><g class="tick" opacity="1" transform="translate(260.38440729870285,0)"><line stroke="currentColor" y2="6"></line><text fill="currentColor" dy="0.32em" transform="translate(0, 11.82842712474619) rotate(-45)" text-anchor="end">aug. 2021</text></g><g class="tick" opacity="1" transform="translate(314.6059678245742,0)"><line stroke="currentColor" y2="6"></line><text fill="currentColor" dy="0.32em" transform="translate(0, 11.82842712474619) rotate(-45)" text-anchor="end">sep. 2021</text></g><g class="tick" opacity="1" transform="translate(367.07844575283684,0)"><line stroke="currentColor" y2="6"></line><text fill="currentColor" dy="0.32em" transform="translate(0, 11.82842712474619) rotate(-45)" text-anchor="end">okt. 2021</text></g><g class="tick" opacity="1" transform="translate(421.3000062787081,0)"><line stroke="currentColor" y2="6"></line><text fill="currentColor" dy="0.32em" transform="translate(0, 11.82842712474619) rotate(-45)" text-anchor="end">nov. 2021</text></g><g class="tick" opacity="1" transform="translate(473.7724842069707,0)"><line stroke="currentColor" y2="6"></line><text fill="currentColor" dy="0.32em" transform="translate(0, 11.82842712474619) rotate(-45)" text-anchor="end">dec. 2021</text></g><g class="tick" opacity="1" transform="translate(527.9940447328421,0)"><line stroke="currentColor" y2="6"></line><text fill="currentColor" dy="0.32em" transform="translate(0, 11.82842712474619) rotate(-45)" text-anchor="end">jan. 2022</text></g><g class="tick" opacity="1" transform="translate(582.2156052587134,0)"><line stroke="currentColor" y2="6"></line><text fill="currentColor" dy="0.32em" transform="translate(0, 11.82842712474619) rotate(-45)" text-anchor="end">feb. 2022</text></g><text fill="currentColor" transform="translate(640,-10)" dy="-0.32em" text-anchor="end">Maand →</text></g><g fill="none" stroke="#ec025f" stroke-width="3" stroke-miterlimit="1"><path d="M40,320C46.03645449869677,319.99669428868305,52.07290899739353,319.9933885773661,52.24357818326127,319.99008286604914C60.40596363876878,319.8319846725385,61.038313377425894,319.6738864790279,64.48715636652254,319.51578828551726C70.47355311683549,319.2413662504016,72.53114137852923,318.9669442152859,76.73073454978382,318.6925221801702C80.70584628635848,318.43276886405624,80.81192727753758,318.1730155479422,88.97431273304508,317.91326223182824C91.77296877718327,317.82420000950486,97.12225086343062,317.73513778718154,101.21789091630635,317.64607556485817C105.28483803785828,317.5576372880465,108.5778325685845,317.46919901123493,113.46146909956762,317.3807607344233C117.0977756299302,317.3149104850315,124.21329207095258,317.2490602356397,125.70504728282887,317.1832099862479C133.8674327383364,316.8228994516522,131.01947657606087,316.4625889170564,137.94862546609016,316.10227838246067C141.34541638923565,315.9256478073565,148.16107613001205,315.74901723225224,150.19220364935143,315.57238665714806C158.35458910485895,314.86257064436643,158.72963588981085,314.15275463158486,162.4357818326127,313.4429386188032C167.1147546701739,312.54680287705736,171.83503777070266,311.6506671353115,174.67936001587395,310.7545313935656C182.84174547138147,308.18287997221046,185.2560251195911,305.6112285508553,186.92293819913525,303.0395771295001C195.08532365464276,290.4469528253911,194.1663593657784,277.8543285212821,199.1665163823965,265.26170421717313C202.77033644477564,256.1856788135059,205.77380419897463,247.10965340983861,211.41009456565774,238.03362800617137C214.89633145302028,232.4197982539039,219.33413132604022,226.8059685016364,223.65367274891904,221.19213874936895C227.5417539710013,216.13905002838825,231.22987150835434,211.08596130740756,235.89725093218033,206.03287258642686C239.6079354701241,202.01553941439371,243.89865099850175,197.9982062423606,248.1408291154416,193.98087307032745C252.08300104265467,190.24764508779398,256.2176913248234,186.5144171052605,260.38440729870285,182.78118912272703C264.38669354564445,179.1952842746747,268.26971291598295,175.60937942662238,272.6279854819641,172.02347457857005C276.49144310418984,168.8446941769214,279.874216531335,165.66591377527277,284.8715636652254,162.48713337362412C288.4761147281877,160.19430160334713,292.4846084439169,157.90146983307017,297.11514184848664,155.60863806279318C300.84072858265534,153.76389516155538,305.2192345226502,151.91915226031762,309.3587200317479,150.07440935907982C313.3847710047408,148.2802180432443,317.54850868707763,146.4860267274088,321.60229821500917,144.6918354115733C325.71165048754204,142.8730522433091,330.54633084700447,141.05426907504494,333.8458763982705,139.23548590678075C342.008261853778,134.73619682326884,342.0990109046992,130.23690773975696,346.08945458153175,125.73761865624505C350.27026119465495,121.02369231669812,353.17838077041887,116.30976597715117,358.333032764793,111.59583963760424C361.90015483811027,108.33370851485499,364.72796074741245,105.07157739210575,370.5766109480543,101.8094462693565C374.03854168241094,99.87852689378711,378.32861525195113,97.94760751821774,382.82018913131554,96.01668814264835C386.6093231022638,94.38774639580404,390.9457843972007,92.75880464895975,395.06376731457686,91.12986290211545C399.10945037055683,89.52952065771744,402.73955676893803,87.92917841331945,407.30734549783807,86.32883616892144C411.0600979851282,85.01404498775702,415.9638312878684,83.6992538065926,419.5509236810994,82.38446262542817C424.61807163179134,80.52718081919505,427.0045982857403,78.66989901296192,431.79450186436065,76.8126172067288C435.46054027233794,75.39111334463036,439.0895735053353,73.96960948253192,444.03808004762186,72.54810562043347C447.6557374484133,71.50890037274317,452.2219947124937,70.46969512505287,456.2816582308832,69.43048987736256C460.3848442596275,68.38014360260225,463.9375053760034,67.32979732784194,468.5252364141444,66.27945105308163C472.26909830843545,65.4223059063428,476.4699864946014,64.56516075960396,480.7688145974057,63.708015612865125C484.6707074420578,62.9300155544988,488.8339778303189,62.15201549613247,493.01239278066697,61.37401543776615C497.00482544339957,60.63064435530082,500.53009946890165,59.88727327283549,505.25597096392823,59.14390219037016C508.94445138190264,58.5637108576504,513.4646925158354,57.98351952493064,517.4995491471896,57.40332819221088C521.6292827158875,56.8094940508981,525.7989646586636,56.215659909585334,529.7431273304508,55.62182576827256C533.9826409657894,54.983523510296884,537.7276914238623,54.3452212523212,541.9867055137121,53.70691899434553C545.9165049759554,53.11795642760512,550.4790365908709,52.52899386086471,554.2302836969733,51.9400312941243C558.8014103771626,51.222343968733156,562.8805245812628,50.50465664334201,566.4738618802346,49.78696931795086C571.5153779421802,48.78004125154043,574.4390436311924,47.77311318512999,578.7174400634958,46.76618511871956C582.6334234135162,45.84455160365781,586.4711259635573,44.922918088596056,590.9610182467571,44.001284573534306C594.751000684783,43.22332051202443,598.1718557920403,42.44535645051455,603.2045964300183,41.667392389004675C606.8001153195468,41.111594926003114,611.1241449664132,40.55579746300156,615.4481746132797,40"></path></g>

</svg>
