<svg class="plot" fill="currentColor" text-anchor="middle" width="640" height="460" viewBox="0 0 640 400" style="font-family: 'RO Sans', sans-serif; font-size: 14px;" xmlns="http://www.w3.org/2000/svg">

<style>
        line[stroke-opacity] {
            stroke-opacity: 1;
            stroke: #949494;
        }
</style>

<!-- replace the below code -->
<g transform="translate(40,0)" fill="none" text-anchor="end"><g class="tick" opacity="1" transform="translate(0,320)"><line stroke="currentColor" x2="-6"></line><line stroke="currentColor" x2="580" stroke-opacity="0.1"></line><text fill="currentColor" x="-9" dy="0.32em">0M</text></g><g class="tick" opacity="1" transform="translate(0,285)"><line stroke="currentColor" x2="-6"></line><line stroke="currentColor" x2="580" stroke-opacity="0.1"></line><text fill="currentColor" x="-9" dy="0.32em">0.5M</text></g><g class="tick" opacity="1" transform="translate(0,250)"><line stroke="currentColor" x2="-6"></line><line stroke="currentColor" x2="580" stroke-opacity="0.1"></line><text fill="currentColor" x="-9" dy="0.32em">1M</text></g><g class="tick" opacity="1" transform="translate(0,215)"><line stroke="currentColor" x2="-6"></line><line stroke="currentColor" x2="580" stroke-opacity="0.1"></line><text fill="currentColor" x="-9" dy="0.32em">1.5M</text></g><g class="tick" opacity="1" transform="translate(0,180)"><line stroke="currentColor" x2="-6"></line><line stroke="currentColor" x2="580" stroke-opacity="0.1"></line><text fill="currentColor" x="-9" dy="0.32em">2M</text></g><g class="tick" opacity="1" transform="translate(0,145)"><line stroke="currentColor" x2="-6"></line><line stroke="currentColor" x2="580" stroke-opacity="0.1"></line><text fill="currentColor" x="-9" dy="0.32em">2.5M</text></g><g class="tick" opacity="1" transform="translate(0,110)"><line stroke="currentColor" x2="-6"></line><line stroke="currentColor" x2="580" stroke-opacity="0.1"></line><text fill="currentColor" x="-9" dy="0.32em">3M</text></g><g class="tick" opacity="1" transform="translate(0,75)"><line stroke="currentColor" x2="-6"></line><line stroke="currentColor" x2="580" stroke-opacity="0.1"></line><text fill="currentColor" x="-9" dy="0.32em">3.5M</text></g><g class="tick" opacity="1" transform="translate(0,40)"><line stroke="currentColor" x2="-6"></line><line stroke="currentColor" x2="580" stroke-opacity="0.1"></line><text fill="currentColor" x="-9" dy="0.32em">4M</text></g><text fill="currentColor" transform="translate(20,40)" dy="-1em" text-anchor="start">↑ Aantal downloads CoronaCheck Scanner (miljoen)</text></g><g transform="translate(0,320)" fill="none" text-anchor="middle"><g class="tick" opacity="1" transform="translate(45.12141280353201,0)"><line stroke="currentColor" y2="6"></line><text fill="currentColor" dy="0.32em" transform="translate(0, 11.82842712474619) rotate(-45)" text-anchor="end">apr. 2021</text></g><g class="tick" opacity="1" transform="translate(83.53200883002208,0)"><line stroke="currentColor" y2="6"></line><text fill="currentColor" dy="0.32em" transform="translate(0, 11.82842712474619) rotate(-45)" text-anchor="end">mei 2021</text></g><g class="tick" opacity="1" transform="translate(123.22295805739515,0)"><line stroke="currentColor" y2="6"></line><text fill="currentColor" dy="0.32em" transform="translate(0, 11.82842712474619) rotate(-45)" text-anchor="end">jun. 2021</text></g><g class="tick" opacity="1" transform="translate(161.6335540838852,0)"><line stroke="currentColor" y2="6"></line><text fill="currentColor" dy="0.32em" transform="translate(0, 11.82842712474619) rotate(-45)" text-anchor="end">jul. 2021</text></g><g class="tick" opacity="1" transform="translate(201.32450331125827,0)"><line stroke="currentColor" y2="6"></line><text fill="currentColor" dy="0.32em" transform="translate(0, 11.82842712474619) rotate(-45)" text-anchor="end">aug. 2021</text></g><g class="tick" opacity="1" transform="translate(241.01545253863134,0)"><line stroke="currentColor" y2="6"></line><text fill="currentColor" dy="0.32em" transform="translate(0, 11.82842712474619) rotate(-45)" text-anchor="end">sep. 2021</text></g><g class="tick" opacity="1" transform="translate(279.42604856512145,0)"><line stroke="currentColor" y2="6"></line><text fill="currentColor" dy="0.32em" transform="translate(0, 11.82842712474619) rotate(-45)" text-anchor="end">okt. 2021</text></g><g class="tick" opacity="1" transform="translate(319.1169977924945,0)"><line stroke="currentColor" y2="6"></line><text fill="currentColor" dy="0.32em" transform="translate(0, 11.82842712474619) rotate(-45)" text-anchor="end">nov. 2021</text></g><g class="tick" opacity="1" transform="translate(357.5275938189846,0)"><line stroke="currentColor" y2="6"></line><text fill="currentColor" dy="0.32em" transform="translate(0, 11.82842712474619) rotate(-45)" text-anchor="end">dec. 2021</text></g><g class="tick" opacity="1" transform="translate(397.21854304635764,0)"><line stroke="currentColor" y2="6"></line><text fill="currentColor" dy="0.32em" transform="translate(0, 11.82842712474619) rotate(-45)" text-anchor="end">jan. 2022</text></g><g class="tick" opacity="1" transform="translate(436.90949227373073,0)"><line stroke="currentColor" y2="6"></line><text fill="currentColor" dy="0.32em" transform="translate(0, 11.82842712474619) rotate(-45)" text-anchor="end">feb. 2022</text></g><g class="tick" opacity="1" transform="translate(472.75938189845476,0)"><line stroke="currentColor" y2="6"></line><text fill="currentColor" dy="0.32em" transform="translate(0, 11.82842712474619) rotate(-45)" text-anchor="end">mrt. 2022</text></g><g class="tick" opacity="1" transform="translate(512.4503311258278,0)"><line stroke="currentColor" y2="6"></line><text fill="currentColor" dy="0.32em" transform="translate(0, 11.82842712474619) rotate(-45)" text-anchor="end">apr. 2022</text></g><g class="tick" opacity="1" transform="translate(550.8609271523178,0)"><line stroke="currentColor" y2="6"></line><text fill="currentColor" dy="0.32em" transform="translate(0, 11.82842712474619) rotate(-45)" text-anchor="end">mei 2022</text></g><g class="tick" opacity="1" transform="translate(590.551876379691,0)"><line stroke="currentColor" y2="6"></line><text fill="currentColor" dy="0.32em" transform="translate(0, 11.82842712474619) rotate(-45)" text-anchor="end">jun. 2022 *</text></g><text fill="currentColor" transform="translate(640,80)" dy="-0.32em" text-anchor="end">Maand →</text></g><g fill="none" stroke="#ec025f" stroke-width="3" stroke-miterlimit="1"><path d="M40,319.98341L48.962472406181014,319.97683L57.92494481236203,319.86462L66.88741721854305,319.7389L75.84988962472406,319.61794L84.81236203090508,319.55214L93.7748344370861,319.48354L102.7373068432671,319.43005999999997L111.69977924944813,319.04954000000004L120.66225165562913,318.80888000000004L129.62472406181016,318.11672L138.5871964679912,317.62336L147.5496688741722,316.23253L156.5121412803532,301.63563999999997L165.4746136865342,292.18396L174.43708609271522,285.57113L183.39955849889625,281.20459999999997L192.36203090507726,277.92222999999996L201.32450331125827,275.07071L210.2869757174393,272.43801L219.2494481236203,269.57879L228.21192052980132,267.30484L237.17439293598235,265.29773L246.13686534216333,263.17330000000004L255.09933774834437,260.90866L264.0618101545254,251.52159L273.0242825607064,234.93404L281.9867549668875,222.15554000000003L290.9492273730684,215.19194L299.9116997792495,208.36512L308.87417218543044,202.68105L317.8366445916115,195.53629L326.7991169977925,174.21037L335.7615894039736,159.47831L344.7240618101545,150.64774L353.68653421633553,144.64937000000003L362.64900662251654,141.01420000000002L371.6114790286976,137.88968L380.5739514348786,134.93148L389.53642384105956,131.32045999999997L398.4988962472406,129.48142L407.46136865342163,127.57287L416.42384105960264,125.5407L425.38631346578364,123.31308999999999L434.3487858719647,119.34472L443.3112582781457,114.39523L443.3112582781457,114.39523L452.27373068432667,109.85622000000002L461.23620309050773,107.55062999999998L470.19867549668874,106.11794000000002L479.16114790286974,105.28305000000002L494.5253863134658,103.20706L509.88962472406183,103.09709000000001L526.5342163355408,102.32268L530.3752759381898,102.19206L539.3377483443708,101.67335999999999L548.300220750552,101.20940000000002L557.2626931567329,100.76693L566.2251655629138,100.39558L575.1876379690949,100.04480999999998L584.150110375276,99.6638L593.1125827814569,99.26948999999999L602.075055187638,98.94574L611.0375275938189,98.61806999999999L620,98.28851"></path></g><g stroke="currentColor"><line x1="40" x2="620" y1="320" y2="320"></line></g>

</svg>
