<svg class="plot" fill="currentColor" text-anchor="middle" width="640" height="460" viewBox="0 0 640 400" style="font-family: 'RO Sans', sans-serif; font-size: 14px;" xmlns="http://www.w3.org/2000/svg">

<style>
        line[stroke-opacity] {
            stroke-opacity: 1;
            stroke: #949494;
        }
</style>

<!-- replace the below code -->

<g transform="translate(40,0)" fill="none" text-anchor="end"><g class="tick" opacity="1" transform="translate(0,320)"><line stroke="currentColor" x2="-6"></line><line stroke="currentColor" x2="580" stroke-opacity="0.1"></line><text fill="currentColor" x="-9" dy="0.32em">0M</text></g><g class="tick" opacity="1" transform="translate(0,285)"><line stroke="currentColor" x2="-6"></line><line stroke="currentColor" x2="580" stroke-opacity="0.1"></line><text fill="currentColor" x="-9" dy="0.32em">0.5M</text></g><g class="tick" opacity="1" transform="translate(0,250)"><line stroke="currentColor" x2="-6"></line><line stroke="currentColor" x2="580" stroke-opacity="0.1"></line><text fill="currentColor" x="-9" dy="0.32em">1M</text></g><g class="tick" opacity="1" transform="translate(0,215)"><line stroke="currentColor" x2="-6"></line><line stroke="currentColor" x2="580" stroke-opacity="0.1"></line><text fill="currentColor" x="-9" dy="0.32em">1.5M</text></g><g class="tick" opacity="1" transform="translate(0,180)"><line stroke="currentColor" x2="-6"></line><line stroke="currentColor" x2="580" stroke-opacity="0.1"></line><text fill="currentColor" x="-9" dy="0.32em">2M</text></g><g class="tick" opacity="1" transform="translate(0,145)"><line stroke="currentColor" x2="-6"></line><line stroke="currentColor" x2="580" stroke-opacity="0.1"></line><text fill="currentColor" x="-9" dy="0.32em">2.5M</text></g><g class="tick" opacity="1" transform="translate(0,110)"><line stroke="currentColor" x2="-6"></line><line stroke="currentColor" x2="580" stroke-opacity="0.1"></line><text fill="currentColor" x="-9" dy="0.32em">3M</text></g><g class="tick" opacity="1" transform="translate(0,75)"><line stroke="currentColor" x2="-6"></line><line stroke="currentColor" x2="580" stroke-opacity="0.1"></line><text fill="currentColor" x="-9" dy="0.32em">3.5M</text></g><g class="tick" opacity="1" transform="translate(0,40)"><line stroke="currentColor" x2="-6"></line><line stroke="currentColor" x2="580" stroke-opacity="0.1"></line><text fill="currentColor" x="-9" dy="0.32em">4M</text></g><text fill="currentColor" transform="translate(20,40)" dy="-1em" text-anchor="start">↑ Aantal downloads CoronaCheck Scanner (miljoen)</text></g><g transform="translate(0,320)" fill="none" text-anchor="middle"><g class="tick" opacity="1" transform="translate(43.29097464389149,0)"><line stroke="currentColor" y2="6"></line><text fill="currentColor" dy="0.32em" transform="translate(0, 11.82842712474619) rotate(-45)" text-anchor="end">apr 2021</text></g><g class="tick" opacity="1" transform="translate(67.9732844730776,0)"><line stroke="currentColor" y2="6"></line><text fill="currentColor" dy="0.32em" transform="translate(0, 11.82842712474619) rotate(-45)" text-anchor="end">mei 2021</text></g><g class="tick" opacity="1" transform="translate(93.4783379632366,0)"><line stroke="currentColor" y2="6"></line><text fill="currentColor" dy="0.32em" transform="translate(0, 11.82842712474619) rotate(-45)" text-anchor="end">jun 2021</text></g><g class="tick" opacity="1" transform="translate(118.16064779242271,0)"><line stroke="currentColor" y2="6"></line><text fill="currentColor" dy="0.32em" transform="translate(0, 11.82842712474619) rotate(-45)" text-anchor="end">jul 2021</text></g><g class="tick" opacity="1" transform="translate(143.66570128258172,0)"><line stroke="currentColor" y2="6"></line><text fill="currentColor" dy="0.32em" transform="translate(0, 11.82842712474619) rotate(-45)" text-anchor="end">aug 2021</text></g><g class="tick" opacity="1" transform="translate(169.1707547727407,0)"><line stroke="currentColor" y2="6"></line><text fill="currentColor" dy="0.32em" transform="translate(0, 11.82842712474619) rotate(-45)" text-anchor="end">sep 2021</text></g><g class="tick" opacity="1" transform="translate(193.85306460192683,0)"><line stroke="currentColor" y2="6"></line><text fill="currentColor" dy="0.32em" transform="translate(0, 11.82842712474619) rotate(-45)" text-anchor="end">okt 2021</text></g><g class="tick" opacity="1" transform="translate(219.35811809208582,0)"><line stroke="currentColor" y2="6"></line><text fill="currentColor" dy="0.32em" transform="translate(0, 11.82842712474619) rotate(-45)" text-anchor="end">nov 2021</text></g><g class="tick" opacity="1" transform="translate(244.04042792127194,0)"><line stroke="currentColor" y2="6"></line><text fill="currentColor" dy="0.32em" transform="translate(0, 11.82842712474619) rotate(-45)" text-anchor="end">dec 2021</text></g><g class="tick" opacity="1" transform="translate(269.54548141143096,0)"><line stroke="currentColor" y2="6"></line><text fill="currentColor" dy="0.32em" transform="translate(0, 11.82842712474619) rotate(-45)" text-anchor="end">jan 2022</text></g><g class="tick" opacity="1" transform="translate(295.0505349015899,0)"><line stroke="currentColor" y2="6"></line><text fill="currentColor" dy="0.32em" transform="translate(0, 11.82842712474619) rotate(-45)" text-anchor="end">feb 2022</text></g><g class="tick" opacity="1" transform="translate(318.0873574088303,0)"><line stroke="currentColor" y2="6"></line><text fill="currentColor" dy="0.32em" transform="translate(0, 11.82842712474619) rotate(-45)" text-anchor="end">mrt 2022</text></g><g class="tick" opacity="1" transform="translate(343.59241089898927,0)"><line stroke="currentColor" y2="6"></line><text fill="currentColor" dy="0.32em" transform="translate(0, 11.82842712474619) rotate(-45)" text-anchor="end">apr 2022</text></g><g class="tick" opacity="1" transform="translate(368.2747207281754,0)"><line stroke="currentColor" y2="6"></line><text fill="currentColor" dy="0.32em" transform="translate(0, 11.82842712474619) rotate(-45)" text-anchor="end">mei 2022</text></g><g class="tick" opacity="1" transform="translate(393.7797742183344,0)"><line stroke="currentColor" y2="6"></line><text fill="currentColor" dy="0.32em" transform="translate(0, 11.82842712474619) rotate(-45)" text-anchor="end">jun 2022</text></g><g class="tick" opacity="1" transform="translate(418.46208404752053,0)"><line stroke="currentColor" y2="6"></line><text fill="currentColor" dy="0.32em" transform="translate(0, 11.82842712474619) rotate(-45)" text-anchor="end">jul 2022</text></g><g class="tick" opacity="1" transform="translate(443.9671375376795,0)"><line stroke="currentColor" y2="6"></line><text fill="currentColor" dy="0.32em" transform="translate(0, 11.82842712474619) rotate(-45)" text-anchor="end">aug 2022</text></g><g class="tick" opacity="1" transform="translate(469.4721910278385,0)"><line stroke="currentColor" y2="6"></line><text fill="currentColor" dy="0.32em" transform="translate(0, 11.82842712474619) rotate(-45)" text-anchor="end">sep 2022</text></g><g class="tick" opacity="1" transform="translate(494.15450085702463,0)"><line stroke="currentColor" y2="6"></line><text fill="currentColor" dy="0.32em" transform="translate(0, 11.82842712474619) rotate(-45)" text-anchor="end">okt 2022</text></g><g class="tick" opacity="1" transform="translate(519.6595543471836,0)"><line stroke="currentColor" y2="6"></line><text fill="currentColor" dy="0.32em" transform="translate(0, 11.82842712474619) rotate(-45)" text-anchor="end">nov 2022</text></g><g class="tick" opacity="1" transform="translate(544.3418641763698,0)"><line stroke="currentColor" y2="6"></line><text fill="currentColor" dy="0.32em" transform="translate(0, 11.82842712474619) rotate(-45)" text-anchor="end">dec 2022</text></g><g class="tick" opacity="1" transform="translate(569.8469176665287,0)"><line stroke="currentColor" y2="6"></line><text fill="currentColor" dy="0.32em" transform="translate(0, 11.82842712474619) rotate(-45)" text-anchor="end">jan 2023</text></g><g class="tick" opacity="1" transform="translate(595.3519711566878,0)"><line stroke="currentColor" y2="6"></line><text fill="currentColor" dy="0.32em" transform="translate(0, 11.82842712474619) rotate(-45)" text-anchor="end">feb 2023</text></g><g class="tick" opacity="1" transform="translate(618.388793663928,0)"><line stroke="currentColor" y2="6"></line><text fill="currentColor" dy="0.32em" transform="translate(0, 11.82842712474619) rotate(-45)" text-anchor="end">mrt 2023 *</text></g><text fill="currentColor" transform="translate(640,80)" dy="-0.32em" text-anchor="end">Maand →</text></g><g fill="none" stroke="#ec025f" stroke-width="3" stroke-miterlimit="1"><path d="M40,319.983L45.759,319.977L51.518,319.865L57.278,319.739L63.037,319.618L68.796,319.552L74.555,319.484L80.314,319.43L86.074,319.05L91.833,318.809L97.592,318.117L103.351,317.623L109.11,316.233L114.87,301.636L120.629,292.184L126.388,285.571L132.147,281.205L137.906,277.922L143.666,275.071L149.425,272.438L155.184,269.579L160.943,267.305L166.703,265.298L172.462,263.173L178.221,260.909L183.98,251.522L189.739,234.934L195.499,222.156L201.258,215.192L207.017,208.365L212.776,202.681L218.535,195.536L224.295,174.21L230.054,159.478L235.813,150.648L241.572,144.649L247.331,141.014L253.091,137.89L258.85,134.931L264.609,131.32L270.368,129.481L276.127,127.573L281.887,125.541L287.646,123.313L293.405,119.345L299.164,114.395L299.164,114.395L304.923,109.856L310.683,107.551L316.442,106.118L322.201,105.283L332.074,103.207L341.947,103.097L352.643,102.323L355.111,102.192L360.87,101.673L366.629,101.209L372.388,100.767L378.148,100.396L383.907,100.045L389.666,99.664L395.425,99.269L401.184,98.946L406.944,98.618L412.703,98.289L418.462,97.925L424.221,97.566L429.98,97.217L435.74,96.868L441.499,96.504L447.258,96.166L453.017,95.905L458.777,95.627L464.536,95.334L470.295,95.044L476.054,94.784L481.813,94.523L487.573,94.273L493.332,94.01L499.091,93.755L504.85,93.494L510.609,93.237L516.369,92.965L522.128,92.716L527.887,91.798L533.646,91.571L539.405,91.276L545.165,90.959L550.924,90.727L556.683,90.427L562.442,90.234L568.201,89.977L573.961,89.731L579.72,89.511L585.479,89.277L591.238,89.043L596.997,88.793L602.757,88.528L608.516,88.264L614.275,88.044L620,87.803"></path></g><g stroke="currentColor"><line x1="40" x2="620" y1="320" y2="320"></line></g>


</svg>
