<svg class="plot" fill="currentColor" text-anchor="middle" width="640" height="460" viewBox="0 0 640 400" style="font-family: 'RO Sans', sans-serif; font-size: 14px;" xmlns="http://www.w3.org/2000/svg">
<style>
        line[stroke-opacity] {
            stroke-opacity: 1;
            stroke: #949494;
        }
</style>

<!-- replace the below code -->

<g transform="translate(40,0)" fill="none" text-anchor="end"><g class="tick" opacity="1" transform="translate(0,320)"><line stroke="currentColor" x2="-6"></line><line stroke="currentColor" x2="580" stroke-opacity="0.1"></line><text fill="currentColor" x="-9" dy="0.32em">0M</text></g><g class="tick" opacity="1" transform="translate(0,288.8888888888889)"><line stroke="currentColor" x2="-6"></line><line stroke="currentColor" x2="580" stroke-opacity="0.1"></line><text fill="currentColor" x="-9" dy="0.32em">2M</text></g><g class="tick" opacity="1" transform="translate(0,257.77777777777777)"><line stroke="currentColor" x2="-6"></line><line stroke="currentColor" x2="580" stroke-opacity="0.1"></line><text fill="currentColor" x="-9" dy="0.32em">4M</text></g><g class="tick" opacity="1" transform="translate(0,226.6666666666667)"><line stroke="currentColor" x2="-6"></line><line stroke="currentColor" x2="580" stroke-opacity="0.1"></line><text fill="currentColor" x="-9" dy="0.32em">6M</text></g><g class="tick" opacity="1" transform="translate(0,195.55555555555554)"><line stroke="currentColor" x2="-6"></line><line stroke="currentColor" x2="580" stroke-opacity="0.1"></line><text fill="currentColor" x="-9" dy="0.32em">8M</text></g><g class="tick" opacity="1" transform="translate(0,164.44444444444446)"><line stroke="currentColor" x2="-6"></line><line stroke="currentColor" x2="580" stroke-opacity="0.1"></line><text fill="currentColor" x="-9" dy="0.32em">10M</text></g><g class="tick" opacity="1" transform="translate(0,133.33333333333334)"><line stroke="currentColor" x2="-6"></line><line stroke="currentColor" x2="580" stroke-opacity="0.1"></line><text fill="currentColor" x="-9" dy="0.32em">12M</text></g><g class="tick" opacity="1" transform="translate(0,102.22222222222223)"><line stroke="currentColor" x2="-6"></line><line stroke="currentColor" x2="580" stroke-opacity="0.1"></line><text fill="currentColor" x="-9" dy="0.32em">14M</text></g><g class="tick" opacity="1" transform="translate(0,71.11111111111113)"><line stroke="currentColor" x2="-6"></line><line stroke="currentColor" x2="580" stroke-opacity="0.1"></line><text fill="currentColor" x="-9" dy="0.32em">16M</text></g><g class="tick" opacity="1" transform="translate(0,40)"><line stroke="currentColor" x2="-6"></line><line stroke="currentColor" x2="580" stroke-opacity="0.1"></line><text fill="currentColor" x="-9" dy="0.32em">18M</text></g><text fill="currentColor" transform="translate(20,40)" dy="-1em" text-anchor="start">↑ Number of downloads CoronaCheck (million)</text></g><g transform="translate(0,320)" fill="none" text-anchor="middle"><g class="tick" opacity="1" transform="translate(43.73590982286635,0)"><line stroke="currentColor" y2="6"></line><text fill="currentColor" dy="0.32em" transform="translate(0, 11.82842712474619) rotate(-45)" text-anchor="end">Apr 2021</text></g><g class="tick" opacity="1" transform="translate(71.75523349436392,0)"><line stroke="currentColor" y2="6"></line><text fill="currentColor" dy="0.32em" transform="translate(0, 11.82842712474619) rotate(-45)" text-anchor="end">May 2021</text></g><g class="tick" opacity="1" transform="translate(100.70853462157811,0)"><line stroke="currentColor" y2="6"></line><text fill="currentColor" dy="0.32em" transform="translate(0, 11.82842712474619) rotate(-45)" text-anchor="end">Jun 2021</text></g><g class="tick" opacity="1" transform="translate(128.72785829307568,0)"><line stroke="currentColor" y2="6"></line><text fill="currentColor" dy="0.32em" transform="translate(0, 11.82842712474619) rotate(-45)" text-anchor="end">Jul 2021</text></g><g class="tick" opacity="1" transform="translate(157.68115942028987,0)"><line stroke="currentColor" y2="6"></line><text fill="currentColor" dy="0.32em" transform="translate(0, 11.82842712474619) rotate(-45)" text-anchor="end">Aug 2021</text></g><g class="tick" opacity="1" transform="translate(186.63446054750403,0)"><line stroke="currentColor" y2="6"></line><text fill="currentColor" dy="0.32em" transform="translate(0, 11.82842712474619) rotate(-45)" text-anchor="end">Sep 2021</text></g><g class="tick" opacity="1" transform="translate(214.6537842190016,0)"><line stroke="currentColor" y2="6"></line><text fill="currentColor" dy="0.32em" transform="translate(0, 11.82842712474619) rotate(-45)" text-anchor="end">Oct 2021</text></g><g class="tick" opacity="1" transform="translate(243.6070853462158,0)"><line stroke="currentColor" y2="6"></line><text fill="currentColor" dy="0.32em" transform="translate(0, 11.82842712474619) rotate(-45)" text-anchor="end">Nov 2021</text></g><g class="tick" opacity="1" transform="translate(271.62640901771334,0)"><line stroke="currentColor" y2="6"></line><text fill="currentColor" dy="0.32em" transform="translate(0, 11.82842712474619) rotate(-45)" text-anchor="end">Dec 2021</text></g><g class="tick" opacity="1" transform="translate(300.57971014492756,0)"><line stroke="currentColor" y2="6"></line><text fill="currentColor" dy="0.32em" transform="translate(0, 11.82842712474619) rotate(-45)" text-anchor="end">Jan 2022</text></g><g class="tick" opacity="1" transform="translate(329.5330112721417,0)"><line stroke="currentColor" y2="6"></line><text fill="currentColor" dy="0.32em" transform="translate(0, 11.82842712474619) rotate(-45)" text-anchor="end">Feb 2022</text></g><g class="tick" opacity="1" transform="translate(355.68438003220615,0)"><line stroke="currentColor" y2="6"></line><text fill="currentColor" dy="0.32em" transform="translate(0, 11.82842712474619) rotate(-45)" text-anchor="end">Mar 2022</text></g><g class="tick" opacity="1" transform="translate(384.63768115942025,0)"><line stroke="currentColor" y2="6"></line><text fill="currentColor" dy="0.32em" transform="translate(0, 11.82842712474619) rotate(-45)" text-anchor="end">Apr 2022</text></g><g class="tick" opacity="1" transform="translate(412.65700483091786,0)"><line stroke="currentColor" y2="6"></line><text fill="currentColor" dy="0.32em" transform="translate(0, 11.82842712474619) rotate(-45)" text-anchor="end">May 2022</text></g><g class="tick" opacity="1" transform="translate(441.610305958132,0)"><line stroke="currentColor" y2="6"></line><text fill="currentColor" dy="0.32em" transform="translate(0, 11.82842712474619) rotate(-45)" text-anchor="end">Jun 2022</text></g><g class="tick" opacity="1" transform="translate(469.6296296296296,0)"><line stroke="currentColor" y2="6"></line><text fill="currentColor" dy="0.32em" transform="translate(0, 11.82842712474619) rotate(-45)" text-anchor="end">Jul 2022</text></g><g class="tick" opacity="1" transform="translate(498.5829307568438,0)"><line stroke="currentColor" y2="6"></line><text fill="currentColor" dy="0.32em" transform="translate(0, 11.82842712474619) rotate(-45)" text-anchor="end">Aug 2022</text></g><g class="tick" opacity="1" transform="translate(527.5362318840579,0)"><line stroke="currentColor" y2="6"></line><text fill="currentColor" dy="0.32em" transform="translate(0, 11.82842712474619) rotate(-45)" text-anchor="end">Sep 2022</text></g><g class="tick" opacity="1" transform="translate(555.5555555555555,0)"><line stroke="currentColor" y2="6"></line><text fill="currentColor" dy="0.32em" transform="translate(0, 11.82842712474619) rotate(-45)" text-anchor="end">Oct 2022</text></g><g class="tick" opacity="1" transform="translate(584.5088566827698,0)"><line stroke="currentColor" y2="6"></line><text fill="currentColor" dy="0.32em" transform="translate(0, 11.82842712474619) rotate(-45)" text-anchor="end">Nov 2022</text></g><g class="tick" opacity="1" transform="translate(612.5281803542673,0)"><line stroke="currentColor" y2="6"></line><text fill="currentColor" dy="0.32em" transform="translate(0, 11.82842712474619) rotate(-45)" text-anchor="end">Dec 2022 *</text></g><text fill="currentColor" transform="translate(640,80)" dy="-0.32em" text-anchor="end">Month →</text></g><g fill="none" stroke="#ec025f" stroke-width="3" stroke-miterlimit="1"><path d="M40,319.92304666666666L46.5378421900161,319.91447555555555L53.07568438003221,319.50455555555556L59.61352657004831,318.7930288888889L66.15136876006441,318.11953555555556L72.68921095008051,317.88861333333335L79.22705314009661,317.65930888888886L85.76489533011272,317.4885711111111L92.30273752012883,316.55435111111115L98.84057971014494,316.09638L105.37842190016103,314.25595555555554L111.91626409017714,311.93243777777775L118.45410628019323,305.2646111111111L124.99194847020934,272.6142155555556L131.52979066022544,249.08172444444446L138.06763285024155,234.52607999999998L144.60547504025766,221.42433555555556L151.14331723027374,211.00811777777778L157.68115942028987,201.32853333333335L164.21900161030595,192.0309311111111L170.75684380032206,183.7889288888889L177.29468599033817,177.84403111111112L183.83252818035427,173.06094666666667L190.37037037037035,168.40893333333335L196.90821256038646,163.69315777777777L203.44605475040257,152.02731555555553L209.98389694041867,139.8049577777778L216.5217391304348,131.3468422222222L223.0595813204509,126.34031777777778L229.597423510467,122.11676666666668L236.1352657004831,117.9673688888889L242.67310789049918,114.55835333333334L249.2109500805153,109.74275777777777L255.7487922705314,106.05705555555556L262.2866344605475,103.36258444444444L268.8244766505636,100.6392266666667L275.36231884057975,98.41680444444445L281.9001610305958,96.39959111111112L288.4380032206119,94.47216444444446L294.97584541062804,92.96783333333332L301.5136876006441,91.42812888888888L308.0515297906602,89.77312666666666L314.58937198067633,88.24605333333335L321.1272141706924,86.38522L327.66505636070855,83.77443777777779L334.2028985507247,81.38480888888887L334.2028985507247,81.38480888888887L340.7407407407407,79.3676888888889L347.27858293075684,77.92660666666664L353.8164251207729,76.6880733333333L360.35426731078906,75.7141088888889L365.024154589372,75.2123488888889L371.5619967793881,74.38812222222222L378.09983896940423,73.4780911111111L382.76972624798714,72.85817111111112L394.91143317230274,71.41669999999999L397.7133655394525,71.20988888888887L404.2512077294686,70.28640222222222L410.7890499194847,69.54180444444445L417.3268921095008,68.80994666666666L423.86473429951695,68.13317111111112L430.40257648953303,67.49030666666664L436.9404186795491,66.7732422222222L443.4782608695652,66.02421111111113L450.0161030595813,65.40009111111112L456.5539452495974,64.80521555555555L463.09178743961354,64.18269777777775L469.6296296296296,63.50914222222223L476.1674718196457,62.836628888888896L482.7053140096618,62.15705333333334L489.24315619967797,61.495677777777814L495.78099838969405,60.68593333333332L502.3188405797101,60.10045333333336L508.85668276972626,59.57980888888889L515.3945249597423,59.056691111111085L521.9323671497584,58.49972444444441L528.4702093397744,57.95173333333331L535.0080515297907,57.465637777777786L541.5458937198067,56.9740511111111L548.0837359098228,56.50137999999999L554.621578099839,55.99621333333331L561.1594202898551,55.47051333333335L567.6972624798711,54.95904666666662L574.2351046698873,54.4545022222222L580.7729468599034,53.92380888888893L587.3107890499194,53.42684000000004L593.8486312399357,52.99638666666666L600.3864734299517,52.56229333333336L606.9243156199677,52.015779999999985L613.4621578099839,51.421044444444476L620,50.993671111111084"></path></g><g stroke="currentColor"><line x1="40" x2="620" y1="320" y2="320"></line></g>

</svg>
