<svg class="plot" fill="currentColor" text-anchor="middle" width="640" height="460" viewBox="0 0 640 400" style="font-family: 'RO Sans', sans-serif; font-size: 14px;" xmlns="http://www.w3.org/2000/svg">
<style>
        line[stroke-opacity] {
            stroke-opacity: 1;
            stroke: #949494;
        }
</style>

<!-- replace the below code -->

<g transform="translate(40,0)" fill="none" text-anchor="end"><g class="tick" opacity="1" transform="translate(0,320.5)"><line stroke="currentColor" x2="-6"></line><line stroke="currentColor" x2="580" stroke-opacity="0.1"></line><text fill="currentColor" x="-9" dy="0.32em">0M</text></g><g class="tick" opacity="1" transform="translate(0,289.3888888888889)"><line stroke="currentColor" x2="-6"></line><line stroke="currentColor" x2="580" stroke-opacity="0.1"></line><text fill="currentColor" x="-9" dy="0.32em">2M</text></g><g class="tick" opacity="1" transform="translate(0,258.27777777777777)"><line stroke="currentColor" x2="-6"></line><line stroke="currentColor" x2="580" stroke-opacity="0.1"></line><text fill="currentColor" x="-9" dy="0.32em">4M</text></g><g class="tick" opacity="1" transform="translate(0,227.1666666666667)"><line stroke="currentColor" x2="-6"></line><line stroke="currentColor" x2="580" stroke-opacity="0.1"></line><text fill="currentColor" x="-9" dy="0.32em">6M</text></g><g class="tick" opacity="1" transform="translate(0,196.05555555555554)"><line stroke="currentColor" x2="-6"></line><line stroke="currentColor" x2="580" stroke-opacity="0.1"></line><text fill="currentColor" x="-9" dy="0.32em">8M</text></g><g class="tick" opacity="1" transform="translate(0,164.94444444444446)"><line stroke="currentColor" x2="-6"></line><line stroke="currentColor" x2="580" stroke-opacity="0.1"></line><text fill="currentColor" x="-9" dy="0.32em">10M</text></g><g class="tick" opacity="1" transform="translate(0,133.83333333333334)"><line stroke="currentColor" x2="-6"></line><line stroke="currentColor" x2="580" stroke-opacity="0.1"></line><text fill="currentColor" x="-9" dy="0.32em">12M</text></g><g class="tick" opacity="1" transform="translate(0,102.72222222222223)"><line stroke="currentColor" x2="-6"></line><line stroke="currentColor" x2="580" stroke-opacity="0.1"></line><text fill="currentColor" x="-9" dy="0.32em">14M</text></g><g class="tick" opacity="1" transform="translate(0,71.61111111111113)"><line stroke="currentColor" x2="-6"></line><line stroke="currentColor" x2="580" stroke-opacity="0.1"></line><text fill="currentColor" x="-9" dy="0.32em">16M</text></g><g class="tick" opacity="1" transform="translate(0,40.5)"><line stroke="currentColor" x2="-6"></line><line stroke="currentColor" x2="580" stroke-opacity="0.1"></line><text fill="currentColor" x="-9" dy="0.32em">18M</text></g><text fill="currentColor" transform="translate(20,40)" dy="-1em" text-anchor="start">↑ Number of downloads CoronaCheck (million)</text></g><g transform="translate(0,320)" fill="none" text-anchor="middle"><g class="tick" opacity="1" transform="translate(44.32207578253706,0)"><line stroke="currentColor" y2="6"></line><text fill="currentColor" dy="0.32em" transform="translate(0, 11.82842712474619) rotate(-45)" text-anchor="end">Apr 2021</text></g><g class="tick" opacity="1" transform="translate(72.98764415156506,0)"><line stroke="currentColor" y2="6"></line><text fill="currentColor" dy="0.32em" transform="translate(0, 11.82842712474619) rotate(-45)" text-anchor="end">May 2021</text></g><g class="tick" opacity="1" transform="translate(102.60873146622735,0)"><line stroke="currentColor" y2="6"></line><text fill="currentColor" dy="0.32em" transform="translate(0, 11.82842712474619) rotate(-45)" text-anchor="end">Jun 2021</text></g><g class="tick" opacity="1" transform="translate(131.27429983525533,0)"><line stroke="currentColor" y2="6"></line><text fill="currentColor" dy="0.32em" transform="translate(0, 11.82842712474619) rotate(-45)" text-anchor="end">Jul 2021</text></g><g class="tick" opacity="1" transform="translate(160.89538714991764,0)"><line stroke="currentColor" y2="6"></line><text fill="currentColor" dy="0.32em" transform="translate(0, 11.82842712474619) rotate(-45)" text-anchor="end">Aug 2021</text></g><g class="tick" opacity="1" transform="translate(190.51647446457991,0)"><line stroke="currentColor" y2="6"></line><text fill="currentColor" dy="0.32em" transform="translate(0, 11.82842712474619) rotate(-45)" text-anchor="end">Sep 2021</text></g><g class="tick" opacity="1" transform="translate(219.1820428336079,0)"><line stroke="currentColor" y2="6"></line><text fill="currentColor" dy="0.32em" transform="translate(0, 11.82842712474619) rotate(-45)" text-anchor="end">Oct 2021</text></g><g class="tick" opacity="1" transform="translate(248.8031301482702,0)"><line stroke="currentColor" y2="6"></line><text fill="currentColor" dy="0.32em" transform="translate(0, 11.82842712474619) rotate(-45)" text-anchor="end">Nov 2021</text></g><g class="tick" opacity="1" transform="translate(277.4686985172982,0)"><line stroke="currentColor" y2="6"></line><text fill="currentColor" dy="0.32em" transform="translate(0, 11.82842712474619) rotate(-45)" text-anchor="end">Dec 2021</text></g><g class="tick" opacity="1" transform="translate(307.0897858319605,0)"><line stroke="currentColor" y2="6"></line><text fill="currentColor" dy="0.32em" transform="translate(0, 11.82842712474619) rotate(-45)" text-anchor="end">Jan 2022</text></g><g class="tick" opacity="1" transform="translate(336.71087314662276,0)"><line stroke="currentColor" y2="6"></line><text fill="currentColor" dy="0.32em" transform="translate(0, 11.82842712474619) rotate(-45)" text-anchor="end">Feb 2022</text></g><g class="tick" opacity="1" transform="translate(363.46540362438225,0)"><line stroke="currentColor" y2="6"></line><text fill="currentColor" dy="0.32em" transform="translate(0, 11.82842712474619) rotate(-45)" text-anchor="end">Mar 2022</text></g><g class="tick" opacity="1" transform="translate(393.0864909390445,0)"><line stroke="currentColor" y2="6"></line><text fill="currentColor" dy="0.32em" transform="translate(0, 11.82842712474619) rotate(-45)" text-anchor="end">Apr 2022</text></g><g class="tick" opacity="1" transform="translate(421.7520593080725,0)"><line stroke="currentColor" y2="6"></line><text fill="currentColor" dy="0.32em" transform="translate(0, 11.82842712474619) rotate(-45)" text-anchor="end">May 2022</text></g><g class="tick" opacity="1" transform="translate(451.37314662273474,0)"><line stroke="currentColor" y2="6"></line><text fill="currentColor" dy="0.32em" transform="translate(0, 11.82842712474619) rotate(-45)" text-anchor="end">Jun 2022</text></g><g class="tick" opacity="1" transform="translate(480.03871499176273,0)"><line stroke="currentColor" y2="6"></line><text fill="currentColor" dy="0.32em" transform="translate(0, 11.82842712474619) rotate(-45)" text-anchor="end">Jul 2022</text></g><g class="tick" opacity="1" transform="translate(509.6598023064251,0)"><line stroke="currentColor" y2="6"></line><text fill="currentColor" dy="0.32em" transform="translate(0, 11.82842712474619) rotate(-45)" text-anchor="end">Aug 2022</text></g><g class="tick" opacity="1" transform="translate(539.2808896210873,0)"><line stroke="currentColor" y2="6"></line><text fill="currentColor" dy="0.32em" transform="translate(0, 11.82842712474619) rotate(-45)" text-anchor="end">Sep 2022</text></g><g class="tick" opacity="1" transform="translate(567.9464579901153,0)"><line stroke="currentColor" y2="6"></line><text fill="currentColor" dy="0.32em" transform="translate(0, 11.82842712474619) rotate(-45)" text-anchor="end">Oct 2022</text></g><g class="tick" opacity="1" transform="translate(597.5675453047777,0)"><line stroke="currentColor" y2="6"></line><text fill="currentColor" dy="0.32em" transform="translate(0, 11.82842712474619) rotate(-45)" text-anchor="end">Nov 2022 *</text></g><text fill="currentColor" transform="translate(640,80)" dy="-0.32em" text-anchor="end">Month →</text></g><g fill="none" stroke="#ec025f" stroke-width="3" stroke-miterlimit="1" transform="translate(0.5,0.5)"><path d="M40,319.92304666666666L46.688632619439865,319.91447555555555L53.37726523887974,319.50455555555556L60.06589785831961,318.7930288888889L66.75453047775947,318.11953555555556L73.44316309719935,317.88861333333335L80.1317957166392,317.65930888888886L86.82042833607908,317.4885711111111L93.50906095551895,316.55435111111115L100.19769357495882,316.09638L106.88632619439869,314.25595555555554L113.57495881383855,311.93243777777775L120.26359143327842,305.2646111111111L126.9522240527183,272.6142155555556L133.64085667215815,249.08172444444446L140.32948929159804,234.52607999999998L147.0181219110379,221.42433555555556L153.70675453047778,211.00811777777778L160.39538714991764,201.32853333333335L167.0840197693575,192.0309311111111L173.77265238879738,183.7889288888889L180.46128500823724,177.84403111111112L187.1499176276771,173.06094666666667L193.83855024711698,168.40893333333335L200.52718286655684,163.69315777777777L207.2158154859967,152.02731555555553L213.9044481054366,139.8049577777778L220.59308072487644,131.3468422222222L227.2817133443163,126.34031777777778L233.97034596375616,122.11676666666668L240.65897858319607,117.9673688888889L247.3476112026359,114.55835333333334L254.0362438220758,109.74275777777777L260.7248764415156,106.05705555555556L267.4135090609555,103.36258444444444L274.10214168039533,100.6392266666667L280.7907742998353,98.41680444444445L287.4794069192751,96.39959111111112L294.168039538715,94.47216444444446L300.8566721581549,92.96783333333332L307.54530477759477,91.42812888888888L314.2339373970346,89.77312666666666L320.9225700164745,88.24605333333335L327.61120263591437,86.38522L334.2998352553542,83.77443777777779L340.9884678747941,81.38480888888887L340.9884678747941,81.38480888888887L347.67710049423397,79.3676888888889L354.36573311367374,77.92660666666664L361.0543657331137,76.6880733333333L367.7429983525535,75.7141088888889L372.52059308072484,75.2123488888889L379.2092257001647,74.38812222222222L385.89785831960467,73.4780911111111L390.67545304777593,72.85817111111112L403.0971993410214,71.41669999999999L405.96375617792415,71.20988888888887L412.6523887973641,70.28640222222222L419.341021416804,69.54180444444445L426.02965403624376,68.80994666666666L432.7182866556837,68.13317111111112L439.4069192751236,67.49030666666664L446.0955518945634,66.7732422222222L452.7841845140033,66.02421111111113L459.4728171334432,65.40009111111112L466.161449752883,64.80521555555555L472.8500823723229,64.18269777777775L479.53871499176273,63.50914222222223L486.2273476112026,62.836628888888896L492.9159802306425,62.15705333333334L499.60461285008233,61.495677777777814L506.2932454695223,60.68593333333332L512.9818780889622,60.10045333333336L519.6705107084019,59.57980888888889L526.3591433278419,59.056691111111085L533.0477759472817,58.49972444444441L539.7364085667216,57.95173333333331L546.4250411861614,57.465637777777786L553.1136738056014,56.9740511111111L559.8023064250411,56.50137999999999L566.490939044481,55.99621333333331L573.179571663921,55.47051333333335L579.8682042833608,54.95904666666662L586.5568369028006,54.4545022222222L593.2454695222406,53.92380888888893L599.9341021416805,53.42684000000004L606.6227347611202,52.99638666666666L613.3113673805601,52.56229333333336L620,52.015779999999985"></path></g><g stroke="currentColor" transform="translate(0,0.5)"><line x1="40" x2="620" y1="320" y2="320"></line></g>

</svg>
