<svg class="plot" fill="currentColor" text-anchor="middle" width="640" height="400" viewBox="0 0 640 400" style="font-family: 'RO Sans', sans-serif; font-size: 14px;" xmlns="http://www.w3.org/2000/svg"> 
<g transform="translate(40,0)" fill="none" text-anchor="end"><g class="tick" opacity="1" transform="translate(0,370.120497976181)"><line stroke="currentColor" x2="0"></line><line stroke="currentColor" x2="580" stroke-opacity="0.1"></line><text fill="currentColor" x="-9" dy="0.32em">0m</text></g><g class="tick" opacity="1" transform="translate(0,321.4049224026995)"><line stroke="currentColor" x2="0"></line><line stroke="currentColor" x2="580" stroke-opacity="0.1"></line><text fill="currentColor" x="-9" dy="0.32em">2m</text></g><g class="tick" opacity="1" transform="translate(0,272.68934682921804)"><line stroke="currentColor" x2="0"></line><line stroke="currentColor" x2="580" stroke-opacity="0.1"></line><text fill="currentColor" x="-9" dy="0.32em">4m</text></g><g class="tick" opacity="1" transform="translate(0,223.97377125573647)"><line stroke="currentColor" x2="0"></line><line stroke="currentColor" x2="580" stroke-opacity="0.1"></line><text fill="currentColor" x="-9" dy="0.32em">6m</text></g><g class="tick" opacity="1" transform="translate(0,175.258195682255)"><line stroke="currentColor" x2="0"></line><line stroke="currentColor" x2="580" stroke-opacity="0.1"></line><text fill="currentColor" x="-9" dy="0.32em">8m</text></g><g class="tick" opacity="1" transform="translate(0,126.5426201087735)"><line stroke="currentColor" x2="0"></line><line stroke="currentColor" x2="580" stroke-opacity="0.1"></line><text fill="currentColor" x="-9" dy="0.32em">10m</text></g><g class="tick" opacity="1" transform="translate(0,77.82704453529203)"><line stroke="currentColor" x2="0"></line><line stroke="currentColor" x2="580" stroke-opacity="0.1"></line><text fill="currentColor" x="-9" dy="0.32em">12m</text></g><g class="tick" opacity="1" transform="translate(0,29.111468961810544)"><line stroke="currentColor" x2="0"></line><line stroke="currentColor" x2="580" stroke-opacity="0.1"></line><text fill="currentColor" x="-9" dy="0.32em">14m</text></g><g class="tick" opacity="1" transform="translate(0,-19.604106611670943)"><line stroke="currentColor" x2="0"></line><line stroke="currentColor" x2="580" stroke-opacity="0.1"></line><text fill="currentColor" x="-9" dy="0.32em">16m</text></g><text fill="currentColor" transform="translate(10,20)" dy="-1em" text-anchor="start">↑ Number of downloads CoronaCheck</text></g><g transform="translate(0,370)" fill="none" text-anchor="middle"><g class="tick" opacity="1" transform="translate(53,0)"><line stroke="currentColor" y2="0"></line><text fill="currentColor" y="9" dy="0.71em">12</text></g><g class="tick" opacity="1" transform="translate(83,0)"><line stroke="currentColor" y2="0"></line><text fill="currentColor" y="9" dy="0.71em">14</text></g><g class="tick" opacity="1" transform="translate(113,0)"><line stroke="currentColor" y2="0"></line><text fill="currentColor" y="9" dy="0.71em">16</text></g><g class="tick" opacity="1" transform="translate(143,0)"><line stroke="currentColor" y2="0"></line><text fill="currentColor" y="9" dy="0.71em">18</text></g><g class="tick" opacity="1" transform="translate(173,0)"><line stroke="currentColor" y2="0"></line><text fill="currentColor" y="9" dy="0.71em">20</text></g><g class="tick" opacity="1" transform="translate(203,0)"><line stroke="currentColor" y2="0"></line><text fill="currentColor" y="9" dy="0.71em">22</text></g><g class="tick" opacity="1" transform="translate(233,0)"><line stroke="currentColor" y2="0"></line><text fill="currentColor" y="9" dy="0.71em">24</text></g><g class="tick" opacity="1" transform="translate(263,0)"><line stroke="currentColor" y2="0"></line><text fill="currentColor" y="9" dy="0.71em">26</text></g><g class="tick" opacity="1" transform="translate(293,0)"><line stroke="currentColor" y2="0"></line><text fill="currentColor" y="9" dy="0.71em">28</text></g><g class="tick" opacity="1" transform="translate(323,0)"><line stroke="currentColor" y2="0"></line><text fill="currentColor" y="9" dy="0.71em">30</text></g><g class="tick" opacity="1" transform="translate(353,0)"><line stroke="currentColor" y2="0"></line><text fill="currentColor" y="9" dy="0.71em">32</text></g><g class="tick" opacity="1" transform="translate(383,0)"><line stroke="currentColor" y2="0"></line><text fill="currentColor" y="9" dy="0.71em">34</text></g><g class="tick" opacity="1" transform="translate(413,0)"><line stroke="currentColor" y2="0"></line><text fill="currentColor" y="9" dy="0.71em">36</text></g><g class="tick" opacity="1" transform="translate(443,0)"><line stroke="currentColor" y2="0"></line><text fill="currentColor" y="9" dy="0.71em">38</text></g><g class="tick" opacity="1" transform="translate(473,0)"><line stroke="currentColor" y2="0"></line><text fill="currentColor" y="9" dy="0.71em">40</text></g><g class="tick" opacity="1" transform="translate(503,0)"><line stroke="currentColor" y2="0"></line><text fill="currentColor" y="9" dy="0.71em">42</text></g><g class="tick" opacity="1" transform="translate(533,0)"><line stroke="currentColor" y2="0"></line><text fill="currentColor" y="9" dy="0.71em">44</text></g><g class="tick" opacity="1" transform="translate(563,0)"><line stroke="currentColor" y2="0"></line><text fill="currentColor" y="9" dy="0.71em">46</text></g><g class="tick" opacity="1" transform="translate(593,0)"><line stroke="currentColor" y2="0"></line><text fill="currentColor" y="9" dy="0.71em">48</text></g><g class="tick" opacity="1" transform="translate(NaN,0)"><line stroke="currentColor" y2="0"></line><text fill="currentColor" y="9" dy="0.71em">50</text></g><text fill="currentColor" transform="translate(640,-10)" dy="-0.32em" text-anchor="end">Week number →</text></g><g fill="none" stroke="#ec025f" stroke-width="3" stroke-miterlimit="1"><path d="M53,370C60.39545385549461,369.9955262863098,67.79090771098922,369.99105257261965,68,369.9865788589295C78,369.77262005101073,78.77471192962409,369.55866124309205,83,369.3447024351733C90.33412650375939,368.97331924478885,92.85494382230983,368.60193605440446,98,368.23055286402C102.87003677814845,367.87902127068173,103,367.5274896773435,113,367.17595808400523C116.42872320768585,367.05542763077386,122.98230011900321,366.9348971775425,128,366.8143667243111C132.9825472513167,366.69468067438964,137.01690038089438,366.5749946244682,143,366.45530857454673C147.45495566239,366.36619154829765,156.17240288392702,366.27707452204857,158,366.1879574957995C168,365.7003389420967,164.5108776376712,365.21272038839396,173,364.7251018346912C177.1615174162763,364.48606262461476,185.5116005848895,364.24702341453826,188,364.0079842044618C198,363.0473698889909,198.45948183529947,362.08675557352,203,361.1261412580491C208.73235956947354,359.9133751234099,214.51532966597148,358.7006089887706,218,357.48784285413143C228,354.0075534195863,230.95781136699517,350.52726398504126,233,347.04697455049615C243,330.0050158484526,241.8741473998336,312.963057146409,248,295.9210984443655C252.415155449376,283.6382536319839,256.0948000466211,271.35540881960236,263,259.07256400722076C267.2711005334969,251.47520761128442,272.7079913752857,243.87785121534804,278,236.2804948194117C282.7634129057931,229.44200530197125,287.28184389322524,222.6035157845308,293,215.76502626709035C297.5460785430563,210.32825436341346,302.80277164063915,204.8914824597366,308,199.45471055605972C312.8296811620837,194.40242633259658,317.8952227304238,189.3501421091334,323,184.29785788567025C327.90332914165566,179.44495027450415,332.6605406106612,174.59204266333805,338,169.73913505217195C342.7332457445009,165.43720060074193,346.87758987721116,161.1352661493119,353,156.83333169788187C357.41605102161674,153.73037687320377,362.3269851322136,150.6274220485257,368,147.52446722384758C372.5643357012194,145.0279238839082,377.9285836454775,142.53138054396877,383,140.03483720402937C387.9324440691248,137.60670677072034,393.0335725382875,135.17857633741133,398,132.7504459041023C403.03449916073265,130.28903461341397,408.95762100521773,127.82762332272564,413,125.36621203203732C423,119.27719540626968,423.1111795705016,113.18817878050206,428,107.09916215473442C433.1220401632739,100.71967079034734,436.68487065151265,94.34017942596024,443,87.96068806157317C447.37019556692263,83.54595269490274,450.8346312085819,79.1312173282323,458,74.71648196156187C462.2413222865146,72.10331353369956,467.4972288997529,69.49014510583726,473,66.87697667797495C477.64218945748456,64.67248321359858,482.9549271596852,62.467989749222205,488,60.26349628484583C492.956495963138,58.09770734526257,497.40385564514355,55.93191840567931,503,53.766129466096054C507.59761733594434,51.98678494901205,513.6053381541659,50.20744043192805,518,48.42809591484404C524.2079253403463,45.914583316079884,527.1317356246777,43.40107071731573,533,40.887558118551574C537.4913811384681,38.963796277679975,541.9374260511703,37.04003443680838,548,35.11627259593678C552.4321080161075,33.70988640618075,558.0263761243349,32.30350021642472,563,30.897114026668696C568.0269446978589,29.475650366272685,572.3794236830049,28.05418670587667,578,26.63272304548066C582.5867251855459,25.47272399845011,587.7276805567051,24.312724951419565,593,23.152725904389015C597.7764918794949,22.101817269592676,602.8882459397474,21.05090863479634,608,20"></path></g></svg>
