<svg class="plot" fill="currentColor" text-anchor="middle" width="640" height="460" viewBox="0 0 640 400" style="font-family: 'RO Sans', sans-serif; font-size: 14px;" xmlns="http://www.w3.org/2000/svg">

<g transform="translate(40,0)" fill="none" text-anchor="end"><g class="tick" opacity="1" transform="translate(0,320.0199951326357)"><line stroke="currentColor" x2="0"></line><line stroke="currentColor" x2="580" stroke-opacity="0.1"></line><text fill="currentColor" x="-9" dy="0.32em">0m</text></g><g class="tick" opacity="1" transform="translate(0,277.8361710067332)"><line stroke="currentColor" x2="0"></line><line stroke="currentColor" x2="580" stroke-opacity="0.1"></line><text fill="currentColor" x="-9" dy="0.32em">0.5m</text></g><g class="tick" opacity="1" transform="translate(0,235.65234688083072)"><line stroke="currentColor" x2="0"></line><line stroke="currentColor" x2="580" stroke-opacity="0.1"></line><text fill="currentColor" x="-9" dy="0.32em">1m</text></g><g class="tick" opacity="1" transform="translate(0,193.46852275492822)"><line stroke="currentColor" x2="0"></line><line stroke="currentColor" x2="580" stroke-opacity="0.1"></line><text fill="currentColor" x="-9" dy="0.32em">1.5m</text></g><g class="tick" opacity="1" transform="translate(0,151.2846986290257)"><line stroke="currentColor" x2="0"></line><line stroke="currentColor" x2="580" stroke-opacity="0.1"></line><text fill="currentColor" x="-9" dy="0.32em">2m</text></g><g class="tick" opacity="1" transform="translate(0,109.10087450312321)"><line stroke="currentColor" x2="0"></line><line stroke="currentColor" x2="580" stroke-opacity="0.1"></line><text fill="currentColor" x="-9" dy="0.32em">2.5m</text></g><g class="tick" opacity="1" transform="translate(0,66.9170503772207)"><line stroke="currentColor" x2="0"></line><line stroke="currentColor" x2="580" stroke-opacity="0.1"></line><text fill="currentColor" x="-9" dy="0.32em">3m</text></g><text fill="currentColor" transform="translate(-40,40)" dy="-1em" text-anchor="start">↑ Number of downloads CoronaCheck Scanner (million)</text></g><g transform="translate(0,320)" fill="none" text-anchor="middle"><g class="tick" opacity="1" transform="translate(46.52528396349261,0)"><line stroke="currentColor" y2="6"></line><text fill="currentColor" dy="0.32em" transform="translate(0, 11.82842712474619) rotate(-45)" text-anchor="end">Apr 2021</text></g><g class="tick" opacity="1" transform="translate(95.4649136896872,0)"><line stroke="currentColor" y2="6"></line><text fill="currentColor" dy="0.32em" transform="translate(0, 11.82842712474619) rotate(-45)" text-anchor="end">May 2021</text></g><g class="tick" opacity="1" transform="translate(146.03586440675494,0)"><line stroke="currentColor" y2="6"></line><text fill="currentColor" dy="0.32em" transform="translate(0, 11.82842712474619) rotate(-45)" text-anchor="end">Jun 2021</text></g><g class="tick" opacity="1" transform="translate(194.9754941329495,0)"><line stroke="currentColor" y2="6"></line><text fill="currentColor" dy="0.32em" transform="translate(0, 11.82842712474619) rotate(-45)" text-anchor="end">Jul 2021</text></g><g class="tick" opacity="1" transform="translate(245.54644485001728,0)"><line stroke="currentColor" y2="6"></line><text fill="currentColor" dy="0.32em" transform="translate(0, 11.82842712474619) rotate(-45)" text-anchor="end">Aug 2021</text></g><g class="tick" opacity="1" transform="translate(296.117395567085,0)"><line stroke="currentColor" y2="6"></line><text fill="currentColor" dy="0.32em" transform="translate(0, 11.82842712474619) rotate(-45)" text-anchor="end">Sep 2021</text></g><g class="tick" opacity="1" transform="translate(345.0570252932796,0)"><line stroke="currentColor" y2="6"></line><text fill="currentColor" dy="0.32em" transform="translate(0, 11.82842712474619) rotate(-45)" text-anchor="end">Oct 2021</text></g><g class="tick" opacity="1" transform="translate(395.6279760103473,0)"><line stroke="currentColor" y2="6"></line><text fill="currentColor" dy="0.32em" transform="translate(0, 11.82842712474619) rotate(-45)" text-anchor="end">Nov 2021</text></g><g class="tick" opacity="1" transform="translate(444.5676057365419,0)"><line stroke="currentColor" y2="6"></line><text fill="currentColor" dy="0.32em" transform="translate(0, 11.82842712474619) rotate(-45)" text-anchor="end">Dec 2021</text></g><g class="tick" opacity="1" transform="translate(495.1385564536096,0)"><line stroke="currentColor" y2="6"></line><text fill="currentColor" dy="0.32em" transform="translate(0, 11.82842712474619) rotate(-45)" text-anchor="end">Jan 2022</text></g><g class="tick" opacity="1" transform="translate(545.7095071706774,0)"><line stroke="currentColor" y2="6"></line><text fill="currentColor" dy="0.32em" transform="translate(0, 11.82842712474619) rotate(-45)" text-anchor="end">Feb 2022</text></g><g class="tick" opacity="1" transform="translate(591.3864949151256,0)"><line stroke="currentColor" y2="6"></line><text fill="currentColor" dy="0.32em" transform="translate(0, 11.82842712474619) rotate(-45)" text-anchor="end">Mar 2022</text></g><text fill="currentColor" transform="translate(640,-10)" dy="-0.32em" text-anchor="end">Month →</text></g><g fill="none" stroke="#ec025f" stroke-width="3" stroke-miterlimit="1"><path d="M40,320C45.48641506464776,319.99735648035477,50.97283012929552,319.9947129607096,51.419246936112074,319.99206944106436C59.03207822685345,319.9469889943485,59.224985918482474,319.90190854763256,62.83849387222414,319.8568281009167C66.8870654785374,319.80632000216326,70.37498522249979,319.75581190340984,74.25774080833621,319.7053038046564C77.99348783078611,319.6567080392634,79.80389566868035,319.6081122738704,85.67698774444827,319.5595165084774C88.87184107270558,319.5330813120251,93.36588261313582,319.5066461155729,97.09623468056034,319.4802109191206C100.98532513382986,319.4526508206917,104.1043433742957,319.4250907222628,108.51548161667242,319.39753062383386C111.95436898113726,319.3760449960791,118.86478684819926,319.35455936832426,119.93472855278449,319.3330737405695C127.54755984352587,319.18019956193723,126.19247700563633,319.0273253833049,131.35397548889657,318.87445120467265C134.61836691373932,318.7777658797761,140.12628533180822,318.68108055487954,142.77322242500864,318.584395229983C150.38605371575,318.306319461345,149.4905523198959,318.0282436927071,154.1924693611207,317.75016792406916C157.54391670199388,317.55196019577625,162.91126660489056,317.35375246748333,165.61171629723276,317.1555447391904C173.22454758797414,316.5967778048187,176.30559268221361,316.038010870447,177.03096323334483,315.4792439360753C184.64379452408622,309.6149330737406,183.38608200605452,303.7506222114058,188.4502101694569,297.8863113490711C191.7293003646606,294.0890922365539,195.10162218778228,290.29187312403667,199.86945710556898,286.49465401151946C203.20525368135105,283.8379448906195,206.30289728194907,281.1812357697196,211.28870404168106,278.52452664881963C214.5808913186218,276.77027013871987,218.1838079421531,275.0160136286201,222.7079509777931,273.26175711852034C226.1088004797761,271.9430626537952,230.01301853895617,270.6243681890701,234.12719791390518,269.30567372434496C237.70134244095567,268.1600735512831,241.57553015101632,267.0144733782212,245.54644485001728,265.8688732051594C249.21263941574352,264.81118412157593,253.30383754586416,263.7534950379925,256.96569178612936,262.695805954409C260.9426154313799,261.5471123009113,264.0328236625361,260.3984186474135,268.3849387222414,259.2497249939158C271.84619460322176,258.3361639760958,275.7289723035615,257.42260295827583,279.80418565835345,256.50904194045586C283.40118712124234,255.70268408101455,287.5191355959252,254.89632622157325,291.2234325944655,254.08996836213194C295.14425391099,253.23647710986725,298.95033244111085,252.38298585760253,302.6426795305776,251.52949460533785C306.57871739141063,250.6196738865904,312.2253233248931,249.70985316784297,314.06192646668967,248.8000324490955C321.67475775743105,245.0287704496904,322.27189789929594,241.25750845028531,325.48117340280174,237.4862464508802C331.15216742736715,230.8221865282172,332.45310551188226,224.15812660555423,336.9004203389138,217.49406668289123C340.3264846170756,212.3602952867689,342.45588745303405,207.22652389064658,348.3196672750259,202.09275249452423C351.5151140933866,199.29512127849438,355.89398828540186,196.49749006246452,359.73891421113797,193.69985884643467C363.50831756692145,190.95717909196614,366.93416686858563,188.21449933749764,371.15816114725,185.47181958302912C374.67509570236166,183.1882404477975,379.1157858732112,180.9046613125659,382.5774080833621,178.6210821773343C386.9285965631306,175.75066980341256,391.4461506335983,172.8802574294908,393.99665501947413,170.00984505556906C401.6094863102155,161.44214164030177,400.6018615402375,152.87443822503445,405.4159019555862,144.30673480976716C408.74146691322187,138.3881193045077,411.4382508630129,132.46950379924826,416.83514889169834,126.55088829398879C420.07011303284145,123.00320056245097,423.3777295164402,119.45551283091316,428.25439582781036,115.90782509937534C431.56698481154905,113.4979757172602,434.3264518169343,111.08812633514506,439.67364276392243,108.67827695302992C442.9141811293055,107.21784483924176,446.9519293322631,105.75741272545359,451.09288970003456,104.29698061166543C454.6521492362624,103.04170249587624,458.5957903810394,101.78642438008706,462.5121366361466,100.53114626429786C466.220013523431,99.3426873259241,470.4348478884213,98.15422838755036,473.93138357225865,96.9657694491766C478.19953997988847,95.51503961493738,479.11418024568,94.06430978069817,485.3506305083708,92.61357994645894C488.52676398065796,91.87474432816849,493.03149157813533,91.13590870987802,496.76987744448274,90.39707309158757C500.64956268527015,89.63031178172574,504.4948519178533,88.8635504718639,508.1891243805948,88.09678916200207C512.1226810967454,87.28036342986935,515.9612731301219,86.46393769773665,519.6083713167069,85.64751196560394C523.606222082843,84.7525680754982,527.8215078031831,83.85762418539247,531.027618252819,82.96268029528673C536.7391353159592,81.36838484627238,538.9762098828913,79.77408939725804,542.446865188931,78.17979394824368C546.7755879972101,76.1913328465969,549.8801363290368,74.2028717449501,553.8661121250432,72.21441064330331C557.5215158126617,70.39086017143939,559.0337253407831,68.56730969957545,565.2853590611552,66.74375922771152C568.4608762310563,65.81748681755495,571.4678521889134,64.89121440739837,576.7046059972672,63.964941997241795C579.9587165779386,63.389357778318576,582.5954399612913,62.81377355939535,588.1238529333793,62.23818934047213C591.3454966289916,61.902771693572376,594.5839853651688,61.56735404667262,599.5430998694915,61.23193639977286C601.9829492793485,61.06691327979233,605.0457377039646,60.9018901598118,607.6997048238571,60.73686703983127C611.6499006018292,60.49124469322084,615.3844261808993,60.245622346610425,619.1189517599691,60"></path></g>

</svg>

