<svg class="plot" fill="currentColor" text-anchor="middle" width="640" height="460" viewBox="0 0 640 400" style="font-family: 'RO Sans', sans-serif; font-size: 14px;" xmlns="http://www.w3.org/2000/svg">

<g transform="translate(40,0)" fill="none" text-anchor="end"><g class="tick" opacity="1" transform="translate(0,370.02811322183175)"><line stroke="currentColor" x2="0"></line><line stroke="currentColor" x2="580" stroke-opacity="0.1"></line><text fill="currentColor" x="-9" dy="0.32em">0m</text></g><g class="tick" opacity="1" transform="translate(0,310.7175186400988)"><line stroke="currentColor" x2="0"></line><line stroke="currentColor" x2="580" stroke-opacity="0.1"></line><text fill="currentColor" x="-9" dy="0.32em">0.5m</text></g><g class="tick" opacity="1" transform="translate(0,251.4069240583658)"><line stroke="currentColor" x2="0"></line><line stroke="currentColor" x2="580" stroke-opacity="0.1"></line><text fill="currentColor" x="-9" dy="0.32em">1m</text></g><g class="tick" opacity="1" transform="translate(0,192.09632947663283)"><line stroke="currentColor" x2="0"></line><line stroke="currentColor" x2="580" stroke-opacity="0.1"></line><text fill="currentColor" x="-9" dy="0.32em">1.5m</text></g><g class="tick" opacity="1" transform="translate(0,132.78573489489986)"><line stroke="currentColor" x2="0"></line><line stroke="currentColor" x2="580" stroke-opacity="0.1"></line><text fill="currentColor" x="-9" dy="0.32em">2m</text></g><g class="tick" opacity="1" transform="translate(0,73.47514031316692)"><line stroke="currentColor" x2="0"></line><line stroke="currentColor" x2="580" stroke-opacity="0.1"></line><text fill="currentColor" x="-9" dy="0.32em">2.5m</text></g><g class="tick" opacity="1" transform="translate(0,14.16454573143395)"><line stroke="currentColor" x2="0"></line><line stroke="currentColor" x2="580" stroke-opacity="0.1"></line><text fill="currentColor" x="-9" dy="0.32em">3m</text></g><g class="tick" opacity="1" transform="translate(0,-45.146048850299046)"><line stroke="currentColor" x2="0"></line><line stroke="currentColor" x2="580" stroke-opacity="0.1"></line><text fill="currentColor" x="-9" dy="0.32em">3.5m</text></g><text fill="currentColor" transform="translate(10,20)" dy="-1em" text-anchor="start">↑ Aantal downloads CoronaCheck Scanner (miljoen)</text></g><g transform="translate(0,370)" fill="none" text-anchor="middle"><g class="tick" opacity="1" transform="translate(103.5241966870942,0)"><line stroke="currentColor" y2="6"></line><text fill="currentColor" y="9" dy="0.71em">May 2021</text></g><g class="tick" opacity="1" transform="translate(217.49407897864558,0)"><line stroke="currentColor" y2="6"></line><text fill="currentColor" y="9" dy="0.71em">Jul 2021</text></g><g class="tick" opacity="1" transform="translate(333.33231999628794,0)"><line stroke="currentColor" y2="6"></line><text fill="currentColor" y="9" dy="0.71em">Sep 2021</text></g><g class="tick" opacity="1" transform="translate(447.3022022878393,0)"><line stroke="currentColor" y2="6"></line><text fill="currentColor" y="9" dy="0.71em">Nov 2021</text></g><g class="tick" opacity="1" transform="translate(561.2720845793906,0)"><line stroke="currentColor" y2="6"></line><text fill="currentColor" y="9" dy="0.71em">Jan 2022</text></g><text fill="currentColor" transform="translate(640,-10)" dy="-0.32em" text-anchor="end">Weeknummer →</text></g><g fill="none" stroke="#ec025f" stroke-width="3" stroke-miterlimit="1"><path d="M40,370C46.2836140271239,369.99628320273956,52.5672280542478,369.9925664054791,53.07851108263704,369.9888496082187C61.79751847106173,369.925466352809,62.01845645383872,369.8620830973993,66.15702216527407,369.7986998419896C70.79386809025121,369.7276852900771,74.78859710189104,369.6566707381645,79.23553324791112,369.585656186252C83.51409987392366,369.51733038129385,85.58756751188817,369.4490045763357,92.31404433054816,369.3806787713776C95.97312315551638,369.343510798773,101.12016765163686,369.3063428261684,105.3925554131852,369.26917485356387C109.84674690926539,369.2304252651038,113.41897149229567,369.19167567664374,118.47106649582226,369.1529260881837C122.40963851897939,369.12271722534337,130.32416888737097,369.0925083625031,131.5495775784593,369.0622994996628C140.26858496688396,368.8473579048986,138.71660294807316,368.63241631013443,144.6280886610963,368.41747471537025C148.36680975774428,368.2815348325889,154.67505166511188,368.14559494980756,157.70659974373336,368.0096550670262C166.42560713215806,367.61867962754343,165.39998565328824,367.2277041880606,170.7851108263704,366.83672874857785C174.6235374262779,366.5580480348365,180.7707856276837,366.2793673210951,183.86362190900743,366.0006866073537C192.58262929743216,365.2150584715241,196.1113630779134,364.42943033569446,196.9421329916445,363.64380219986487C205.66114038006918,355.39856196230147,204.2206769941842,347.15332172473813,210.02064407428153,338.90808148717474C213.7761997338511,333.5691790053055,217.63853396523007,328.2302765234362,223.09915515691858,322.89137404156696C226.91965687037415,319.1560323352058,230.46740098932875,315.4206906288447,236.1776662395556,311.6853489224835C239.94822204139433,309.21885853620756,244.0746574582217,306.7523681499316,249.25617732219263,304.28587776365566C253.15118442300312,302.4317890366343,257.6227016291459,300.57770030961296,262.3346884048297,298.7236115825916C266.428171019708,297.1128939953373,270.8652943419132,295.50217640808296,275.4131994874667,293.89145882082863C279.6121073950734,292.40434451268266,284.2977736553271,290.9172302045366,288.49171057010375,289.43011589639065C293.0464977868271,287.8150488655337,296.585726146188,286.1999818346767,301.5702216527408,284.58491480381974C305.53441243103896,283.30044502716135,309.9813739048926,282.015975250503,314.6487327353779,280.7315054738446C318.7683934940822,279.59776368821656,323.4846970353909,278.4640219025885,327.72724381801487,277.33028011696047C332.2177768039546,276.1302686269865,336.57689439866743,274.93025713701246,340.80575490065195,273.7302456470385C345.31371545817296,272.4510347430997,351.78079675464556,271.1718238391608,353.884265983289,269.892612935222C362.6032733717137,264.5902062392187,363.2871804635702,259.2877995432154,366.96277706592605,253.98539284721204C373.45779014470435,244.6157028171718,374.9477599519383,235.2460127871316,380.04128814856307,225.87632275709137C383.96517383756293,218.6582233964945,386.40398777558283,211.44012403589758,393.1197992312001,204.2220246753007C396.7795577828561,200.28854604264018,401.79470063510826,196.35506740997963,406.19831031383717,192.4215887773191C410.5154236786111,188.5653720792004,414.4390631541329,184.70915538108164,419.2768213964742,180.85293868296293C423.3047811921836,177.6422189558754,428.3907221424882,174.43149922878786,432.3553324791112,171.22077950170032C437.33876676980276,167.18497032318808,442.51274026451557,163.14916114467587,445.4338435617483,159.11335196616363C454.15285095017293,147.06713296423536,452.99881410387076,135.02091396230705,458.51235464438525,122.97469496037877C462.32113804295807,114.65310221739053,465.40977593406825,106.3315094744023,471.59086572702233,98.00991673141405C475.2958836330699,93.02185618669392,479.0841105695642,88.03379564197378,484.6693768096594,83.04573509725365C488.4632987712768,79.65747899038482,491.6237278270645,76.26922288351598,497.74788789229643,72.88096677664714C501.4592899805853,70.82759445183115,506.0837398166143,68.77422212701515,510.82639897493345,66.72084980219915C514.9028337478193,64.95592466903233,519.4195023781125,63.1909995358655,523.9049100575704,61.426074402698674C528.1515569016848,59.75509725134933,532.9788242567398,58.084120099999986,536.9834211402075,56.413142948650645C541.8717584528097,54.37341206058845,542.9192997591415,52.333681172526255,550.0619322228446,50.29395028446406C553.6995711187932,49.25514499056322,558.8588544005617,48.216339696662374,563.1404433054817,47.17753440276153C567.5838629725282,46.09946549524754,571.9878887481024,45.02139658773356,576.2189543881187,43.943327680219575C580.7240732802996,42.795430432684725,585.1204287257252,41.647533185149875,589.2974654707558,40.499635937615025C593.8762206062011,39.24134190336537,598.7040049004182,37.9830478691157,602.3759765533929,36.72475383486604C608.917400837049,34.483169223244026,612.1859442365394,32.24158461162202,615.4544876360297,30"></path></g>

</svg>
