<svg class="plot" fill="currentColor" text-anchor="middle" width="640" height="400" viewBox="0 0 640 400" style="font-family: 'RO Sans', sans-serif; font-size: 14px;" xmlns="http://www.w3.org/2000/svg"><g transform="translate(40,0)" fill="none" text-anchor="end"><g class="tick" opacity="1" transform="translate(0,370.0309810591846)"><line stroke="currentColor" x2="0"></line><line stroke="currentColor" x2="580" stroke-opacity="0.1"></line><text fill="currentColor" x="-9" dy="0.32em">0m</text></g><g class="tick" opacity="1" transform="translate(0,304.6700967033508)"><line stroke="currentColor" x2="0"></line><line stroke="currentColor" x2="580" stroke-opacity="0.1"></line><text fill="currentColor" x="-9" dy="0.32em">0.5m</text></g><g class="tick" opacity="1" transform="translate(0,239.3092123475169)"><line stroke="currentColor" x2="0"></line><line stroke="currentColor" x2="580" stroke-opacity="0.1"></line><text fill="currentColor" x="-9" dy="0.32em">1m</text></g><g class="tick" opacity="1" transform="translate(0,173.94832799168304)"><line stroke="currentColor" x2="0"></line><line stroke="currentColor" x2="580" stroke-opacity="0.1"></line><text fill="currentColor" x="-9" dy="0.32em">1.5m</text></g><g class="tick" opacity="1" transform="translate(0,108.58744363584916)"><line stroke="currentColor" x2="0"></line><line stroke="currentColor" x2="580" stroke-opacity="0.1"></line><text fill="currentColor" x="-9" dy="0.32em">2m</text></g><g class="tick" opacity="1" transform="translate(0,43.22655928001524)"><line stroke="currentColor" x2="0"></line><line stroke="currentColor" x2="580" stroke-opacity="0.1"></line><text fill="currentColor" x="-9" dy="0.32em">2.5m</text></g><g class="tick" opacity="1" transform="translate(0,-22.134325075818644)"><line stroke="currentColor" x2="0"></line><line stroke="currentColor" x2="580" stroke-opacity="0.1"></line><text fill="currentColor" x="-9" dy="0.32em">3m</text></g><text fill="currentColor" transform="translate(10,20)" dy="-1em" text-anchor="start">↑ Number of downloads CoronaCheck Scanner (million)</text></g><g transform="translate(0,370)" fill="none" text-anchor="middle"><g class="tick" opacity="1" transform="translate(53,0)"><line stroke="currentColor" y2="0"></line><text fill="currentColor" y="9" dy="0.71em">12</text></g><g class="tick" opacity="1" transform="translate(83,0)"><line stroke="currentColor" y2="0"></line><text fill="currentColor" y="9" dy="0.71em">14</text></g><g class="tick" opacity="1" transform="translate(113,0)"><line stroke="currentColor" y2="0"></line><text fill="currentColor" y="9" dy="0.71em">16</text></g><g class="tick" opacity="1" transform="translate(143,0)"><line stroke="currentColor" y2="0"></line><text fill="currentColor" y="9" dy="0.71em">18</text></g><g class="tick" opacity="1" transform="translate(173,0)"><line stroke="currentColor" y2="0"></line><text fill="currentColor" y="9" dy="0.71em">20</text></g><g class="tick" opacity="1" transform="translate(203,0)"><line stroke="currentColor" y2="0"></line><text fill="currentColor" y="9" dy="0.71em">22</text></g><g class="tick" opacity="1" transform="translate(233,0)"><line stroke="currentColor" y2="0"></line><text fill="currentColor" y="9" dy="0.71em">24</text></g><g class="tick" opacity="1" transform="translate(263,0)"><line stroke="currentColor" y2="0"></line><text fill="currentColor" y="9" dy="0.71em">26</text></g><g class="tick" opacity="1" transform="translate(293,0)"><line stroke="currentColor" y2="0"></line><text fill="currentColor" y="9" dy="0.71em">28</text></g><g class="tick" opacity="1" transform="translate(323,0)"><line stroke="currentColor" y2="0"></line><text fill="currentColor" y="9" dy="0.71em">30</text></g><g class="tick" opacity="1" transform="translate(353,0)"><line stroke="currentColor" y2="0"></line><text fill="currentColor" y="9" dy="0.71em">32</text></g><g class="tick" opacity="1" transform="translate(383,0)"><line stroke="currentColor" y2="0"></line><text fill="currentColor" y="9" dy="0.71em">34</text></g><g class="tick" opacity="1" transform="translate(413,0)"><line stroke="currentColor" y2="0"></line><text fill="currentColor" y="9" dy="0.71em">36</text></g><g class="tick" opacity="1" transform="translate(443,0)"><line stroke="currentColor" y2="0"></line><text fill="currentColor" y="9" dy="0.71em">38</text></g><g class="tick" opacity="1" transform="translate(473,0)"><line stroke="currentColor" y2="0"></line><text fill="currentColor" y="9" dy="0.71em">40</text></g><g class="tick" opacity="1" transform="translate(503,0)"><line stroke="currentColor" y2="0"></line><text fill="currentColor" y="9" dy="0.71em">42</text></g><g class="tick" opacity="1" transform="translate(533,0)"><line stroke="currentColor" y2="0"></line><text fill="currentColor" y="9" dy="0.71em">44</text></g><g class="tick" opacity="1" transform="translate(563,0)"><line stroke="currentColor" y2="0"></line><text fill="currentColor" y="9" dy="0.71em">46</text></g><g class="tick" opacity="1" transform="translate(593,0)"><line stroke="currentColor" y2="0"></line><text fill="currentColor" y="9" dy="0.71em">48</text></g><g class="tick" opacity="1" transform="translate(NaN,0)"><line stroke="currentColor" y2="0"></line><text fill="currentColor" y="9" dy="0.71em">50</text></g><text fill="currentColor" transform="translate(640,-10)" dy="-0.32em" text-anchor="end">Week number →</text></g><g fill="none" stroke="#ec025f" stroke-width="3" stroke-miterlimit="1"><path d="M53,370C60.20679975046738,369.995904051247,67.41359950093477,369.9918081024941,68,369.9877121537411C78,369.9178631553262,78.25339809101534,369.84801415691123,83,369.77816515849634C88.31808922553942,369.69990639296094,92.89972201202318,369.62164762742555,98,369.54338886189015C102.90717169444505,369.4680931231122,105.28527225748812,369.3927973843343,113,369.3175016455564C117.1966690265978,369.2765421580267,123.09991496598616,369.2355826704971,128,369.1946231829674C133.10859929077986,369.1519207385216,137.20565348960267,369.1092182940758,143,369.06651584963C147.51722523872002,369.0332253725314,156.59455481971978,368.99993489543283,158,368.9666444183342C168,368.7297765734287,166.2200014867835,368.49290872852316,173,368.25604088361763C177.28801230471635,368.1062337366741,184.52305825242738,367.9564265897305,188,367.80661944278694C198,367.37576049311326,196.82369467855762,366.94490154343964,203,366.51404259376596C207.40236649530007,366.2069335851393,214.45276561477667,365.89982457651274,218,365.5927155678861C228,364.72694529370875,232.04717374728455,363.86117501953134,233,362.995404745354C243,353.9090653239747,241.34790438668819,344.8227259025953,248,335.736386481216C252.30732019398837,329.85286111504126,256.737106819134,323.96933574886657,263,318.0858103826918C267.3818080926593,313.9694254598843,271.45078516872485,309.8530405370768,278,305.7366556142693C282.32452415035743,303.01855787744756,287.05721358735184,300.3004601406259,293,297.58236240380415C297.4672597777374,295.5391375849179,302.5957302640443,293.4959127660316,308,291.45268794714536C312.6948952243265,289.67766062373255,317.78391869286486,287.9026333003197,323,286.12760597690686C327.81580955325387,284.4887907364916,333.18989177558853,282.84997549607635,338,281.21116025566107C343.2239744890804,279.4313398007288,347.2831846740144,277.65151934579654,353,275.87169889086425C357.54660788974786,274.4562000053314,362.64691492671307,273.04070111979854,368,271.6252022342657C372.72491944917203,270.3758071428425,378.13414016800095,269.1264120514193,383,267.8770169599961C388.15028005584844,266.554591973786,393.1498372307853,265.23216698757585,398,263.9097420013657C403.1702680783431,262.5000384475791,410.5874900261743,261.09033489379243,413,259.6806313400058C423,253.83732470467135,423.784386411651,247.99401806933687,428,242.15071143400243C435.4492574549267,231.82521679308232,437.15813295056165,221.4997221521622,443,211.1742275112421C447.5003811950076,203.2198078851371,450.29750457083776,195.2653882590321,458,187.3109686329271C462.19744861842264,182.97623478244822,467.9494139842397,178.64150093196935,473,174.30676708149045C477.9513817025839,170.05717667636574,482.45148051054076,165.807586271241,488,161.5579958661163C492.61974582227896,158.0197497523976,498.4529109106084,154.48150363867887,503,150.94325752496016C508.7155981967712,146.495754362006,514.649729531012,142.04825119905183,518,137.60074803609768C528,124.3256909798904,526.6764125835766,111.0506339236831,533,97.7755768674758C537.3683681282681,88.60509620096907,540.9107872976916,79.43461553446235,548,70.26413486795562C552.249357456637,64.76724091970708,556.5946112335592,59.270346971458544,563,53.77345302321001C567.3514154615914,50.03921140426961,570.9746208611487,46.304969785329206,578,42.570728166388804C582.2565112898235,40.30823936745016,587.5312226393012,38.04575056851153,593,35.78326176957289C597.6596725769828,33.855507846381926,602.8298362884914,31.927753923190963,608,30"></path></g></svg>
