<svg class="plot" fill="currentColor" text-anchor="middle" width="640" height="460" viewBox="0 0 640 400" style="font-family: 'RO Sans', sans-serif; font-size: 14px;" xmlns="http://www.w3.org/2000/svg">

<style>
        line[stroke-opacity] {
            stroke-opacity: 1;
            stroke: #949494;
        }
</style>

<!-- replace the below code -->
<g transform="translate(40,0)" fill="none" text-anchor="end"><g class="tick" opacity="1" transform="translate(0,320.0874310179519)"><line stroke="currentColor" x2="0"></line><line stroke="currentColor" x2="580" stroke-opacity="0.1"></line><text fill="currentColor" x="-9" dy="0.32em">0m</text></g><g class="tick" opacity="1" transform="translate(0,284.74034472245916)"><line stroke="currentColor" x2="0"></line><line stroke="currentColor" x2="580" stroke-opacity="0.1"></line><text fill="currentColor" x="-9" dy="0.32em">2m</text></g><g class="tick" opacity="1" transform="translate(0,249.39325842696627)"><line stroke="currentColor" x2="0"></line><line stroke="currentColor" x2="580" stroke-opacity="0.1"></line><text fill="currentColor" x="-9" dy="0.32em">4m</text></g><g class="tick" opacity="1" transform="translate(0,214.04617213147347)"><line stroke="currentColor" x2="0"></line><line stroke="currentColor" x2="580" stroke-opacity="0.1"></line><text fill="currentColor" x="-9" dy="0.32em">6m</text></g><g class="tick" opacity="1" transform="translate(0,178.6990858359807)"><line stroke="currentColor" x2="0"></line><line stroke="currentColor" x2="580" stroke-opacity="0.1"></line><text fill="currentColor" x="-9" dy="0.32em">8m</text></g><g class="tick" opacity="1" transform="translate(0,143.3519995404879)"><line stroke="currentColor" x2="0"></line><line stroke="currentColor" x2="580" stroke-opacity="0.1"></line><text fill="currentColor" x="-9" dy="0.32em">10m</text></g><g class="tick" opacity="1" transform="translate(0,108.00491324499508)"><line stroke="currentColor" x2="0"></line><line stroke="currentColor" x2="580" stroke-opacity="0.1"></line><text fill="currentColor" x="-9" dy="0.32em">12m</text></g><g class="tick" opacity="1" transform="translate(0,72.65782694950228)"><line stroke="currentColor" x2="0"></line><line stroke="currentColor" x2="580" stroke-opacity="0.1"></line><text fill="currentColor" x="-9" dy="0.32em">14m</text></g><text fill="currentColor" transform="translate(-40,40)" dy="-1em" text-anchor="start">↑ Aantal downloads CoronaCheck (miljoen)</text></g><g transform="translate(0,320)" fill="none" text-anchor="middle"><g class="tick" opacity="1" transform="translate(46.33026737714963,0)"><line stroke="currentColor" y2="6"></line><text fill="currentColor" dy="0.32em" transform="translate(0, 11.82842712474619) rotate(-45)" text-anchor="end">apr. 2021</text></g><g class="tick" opacity="1" transform="translate(93.80727270577185,0)"><line stroke="currentColor" y2="6"></line><text fill="currentColor" dy="0.32em" transform="translate(0, 11.82842712474619) rotate(-45)" text-anchor="end">mei 2021</text></g><g class="tick" opacity="1" transform="translate(142.8668448786815,0)"><line stroke="currentColor" y2="6"></line><text fill="currentColor" dy="0.32em" transform="translate(0, 11.82842712474619) rotate(-45)" text-anchor="end">jun. 2021</text></g><g class="tick" opacity="1" transform="translate(190.3438502073037,0)"><line stroke="currentColor" y2="6"></line><text fill="currentColor" dy="0.32em" transform="translate(0, 11.82842712474619) rotate(-45)" text-anchor="end">jul. 2021</text></g><g class="tick" opacity="1" transform="translate(239.40342238021333,0)"><line stroke="currentColor" y2="6"></line><text fill="currentColor" dy="0.32em" transform="translate(0, 11.82842712474619) rotate(-45)" text-anchor="end">aug. 2021</text></g><g class="tick" opacity="1" transform="translate(288.462994553123,0)"><line stroke="currentColor" y2="6"></line><text fill="currentColor" dy="0.32em" transform="translate(0, 11.82842712474619) rotate(-45)" text-anchor="end">sep. 2021</text></g><g class="tick" opacity="1" transform="translate(335.9399998817452,0)"><line stroke="currentColor" y2="6"></line><text fill="currentColor" dy="0.32em" transform="translate(0, 11.82842712474619) rotate(-45)" text-anchor="end">okt. 2021</text></g><g class="tick" opacity="1" transform="translate(384.9995720546548,0)"><line stroke="currentColor" y2="6"></line><text fill="currentColor" dy="0.32em" transform="translate(0, 11.82842712474619) rotate(-45)" text-anchor="end">nov. 2021</text></g><g class="tick" opacity="1" transform="translate(432.47657738327706,0)"><line stroke="currentColor" y2="6"></line><text fill="currentColor" dy="0.32em" transform="translate(0, 11.82842712474619) rotate(-45)" text-anchor="end">dec. 2021</text></g><g class="tick" opacity="1" transform="translate(481.5361495561867,0)"><line stroke="currentColor" y2="6"></line><text fill="currentColor" dy="0.32em" transform="translate(0, 11.82842712474619) rotate(-45)" text-anchor="end">jan. 2022</text></g><g class="tick" opacity="1" transform="translate(530.5957217290962,0)"><line stroke="currentColor" y2="6"></line><text fill="currentColor" dy="0.32em" transform="translate(0, 11.82842712474619) rotate(-45)" text-anchor="end">feb. 2022</text></g><g class="tick" opacity="1" transform="translate(574.9075933691437,0)"><line stroke="currentColor" y2="6"></line><text fill="currentColor" dy="0.32em" transform="translate(0, 11.82842712474619) rotate(-45)" text-anchor="end">mrt. 2022</text></g><text fill="currentColor" transform="translate(640,-10)" dy="-0.32em" text-anchor="end">Maand →</text></g><g fill="none" stroke="#ec025f" stroke-width="3" stroke-miterlimit="1"><path d="M40,320C45.461773366076656,319.99675395924186,50.923546732153305,319.9935079184838,51.07796791001185,319.99026187772563C58.46327985001975,319.8350174747158,59.03542877641164,319.679773071706,62.1559358200237,319.5245286686962C67.57241702379756,319.2550601563225,69.43411924792483,318.9855916439488,73.23390373003556,318.7161231315751C76.83057780662924,318.4610585568668,76.9265597000395,318.20599398215853,84.3118716400474,317.95092940745025C86.84409068451829,317.86347482477413,91.68411166580826,317.77602024209807,95.38983955005926,317.68856565942195C99.06960612073874,317.601723759575,102.0491017545484,317.514881859728,106.4678074600711,317.42803995988106C109.75793118463689,317.3633783566845,116.19603788979713,317.29871675348795,117.54577537008296,317.2340551502914C124.93108731009086,316.88024849001664,122.35426160582603,316.52644182974194,128.6237432800948,316.1726351694672C131.69715370639244,315.9991929081962,137.86395059891393,315.8257506469253,139.70171119010666,315.65230838565435C147.08702313011455,314.95530508217456,147.42636479856,314.25830177869483,150.7796791001185,313.56129847521504C155.01320545740379,312.6813386530698,159.28410926764113,311.80137883092453,161.85764701013036,310.9214190087793C169.24295895013825,308.396187816743,171.42739491063432,305.8709566247067,172.9356149201422,303.3457254326704C180.3209268601501,290.98040740462545,179.48944959508032,278.61508937658044,184.01358283015406,266.2497713485355C187.27431285588082,257.33757498368874,189.99184517378282,248.42537861884202,195.09155074016593,239.5131822539953C198.2458917168668,234.0006863225922,202.26120520190509,228.48819039118914,206.1695186501778,222.97569445978604C209.68744767101194,218.013817765151,213.02444990317036,213.05194107051597,217.24748656018963,208.09006437588093C220.60490737461438,204.14524706876924,224.48713920446792,200.20042976165752,228.3254544702015,196.25561245454583C231.8923246654783,192.58977202602134,235.63338512820513,188.92393159749682,239.40342238021333,185.25809116897233C243.02468390577914,181.73691458229317,246.5380329720981,178.21573799561403,250.4813902902252,174.69456140893487C253.9770399214106,171.57316036825776,257.03776734209123,168.45175932758062,261.559358200237,165.3303582869035C264.82074963400004,163.07891384295,268.44762766635836,160.82746939899644,272.6373261102489,158.57602495504293C276.00823040549096,156.7645810412957,279.9698948446801,154.95313712754847,283.7152940202607,153.14169321380126C287.3580578279736,151.379888391575,291.1254003270558,149.61808356934878,294.7932619302726,147.85627874712253C298.51139660664444,146.0703259737754,302.8858068546641,144.2843732004283,305.8712298402844,142.49842042708116C313.25654178029237,138.08034687274017,313.3386513612434,133.66227331839917,316.9491977502963,129.24419976405818C320.731984187799,124.61536331649927,323.36324564230034,119.98652686894037,328.0271656603081,115.35769042138146C331.25469141036444,112.15444320238711,333.81328520133803,108.95119598339276,339.10513357032,105.74794876439842C342.2374823827218,103.85188392605978,346.1191333693533,101.95581908772115,350.18310148033186,100.05975424938252C353.6115032031458,98.4602161179768,357.53512572176504,96.86067798657106,361.26106939034366,95.26113985516534C364.92159627206007,93.68968498382137,368.20611012816266,92.11823011247739,372.3390373003556,90.54677524113342C375.7345211210293,89.2557170230095,380.17141035013384,87.96465880488556,383.4170052103674,86.67360058676164C388.0017517242411,84.84984410462148,390.16107682456015,83.02608762248134,394.49497312037926,81.20233114034119C397.81199819528473,79.80648648489428,401.0955410532439,78.41064182944736,405.5729410303911,77.01479717400045C408.84619105546744,75.99435035737376,412.97773256099714,74.97390354074709,416.650908940403,73.9534567241204C420.36346441028866,72.92206998428527,423.57790591205196,71.89068324445014,427.72887685041485,70.85929650461502C431.1163164782496,70.01762346810884,434.9172726875641,69.17595043160266,438.80684476042666,68.33427739509648C442.33727051296165,67.57032081899199,446.1041902051895,66.80636424288751,449.8848126704386,66.04240766678302C453.49715869041995,65.3124549876948,456.68682040074435,64.58250230860659,460.9627805804504,63.85254962951838C464.3001111463539,63.282831183788666,468.3900173386206,62.713112738058946,472.04074849046225,62.14339429232923C475.77732412759735,61.56027930089354,479.5500449830236,60.977164309457855,483.11871640047406,60.39404931802216C486.9546208479621,59.76726889264943,490.3431358862069,59.1404884672767,494.1966843104859,58.51370804190397C497.752359921316,57.93537668948027,501.88053046606336,57.35704533705657,505.27465222049784,56.77871398463287C509.4105995651202,56.07398145161648,513.1013748905945,55.369248918600086,516.3526201305096,54.664516385583696C520.9141749567284,53.67576412300197,523.5595025070322,52.68701186042024,527.4305880405215,51.698259597838515C530.9737628574205,50.793262256233966,534.4461093447936,49.888264914629424,538.5085559505333,48.983267573024875C541.9377253648602,48.21934634400668,545.0329090224291,47.45542511498849,549.5865238605452,46.6915038859703C552.8397429997419,46.14573898238684,556.6470647695394,45.59997407880337,560.6644917705571,45.05420917521991C564.1172560738464,44.585153340078726,567.4882912799726,44.11609750493754,571.7424596805688,43.64704166979636C575.0878753035045,43.27818304194079,578.1858318106056,42.909324414085226,582.8204275905807,42.54046578622966C585.2080453232659,42.35043985030509,588.2430971470785,42.160413914380506,590.7332618120178,41.97038797845593C594.8237834184307,41.65823785938045,598.2840460897784,41.346087740304974,601.8112297220297,41.03393762122949C605.7056036482363,40.68929174748633,609.2974006401389,40.34464587374316,612.8891976320415,40"></path></g>

</svg>
