<svg class="plot" fill="currentColor" text-anchor="middle" width="640" height="460" viewBox="0 0 640 400" style="font-family: 'RO Sans', sans-serif; font-size: 14px;" xmlns="http://www.w3.org/2000/svg">

<style>
        line[stroke-opacity] {
            stroke-opacity: 1;
            stroke: #949494;
        }
</style>

<!-- replace the below code -->

<g transform="translate(40,0)" fill="none" text-anchor="end"><g class="tick" opacity="1" transform="translate(0,320)"><line stroke="currentColor" x2="-6"></line><line stroke="currentColor" x2="580" stroke-opacity="0.1"></line><text fill="currentColor" x="-9" dy="0.32em">0M</text></g><g class="tick" opacity="1" transform="translate(0,288.8888888888889)"><line stroke="currentColor" x2="-6"></line><line stroke="currentColor" x2="580" stroke-opacity="0.1"></line><text fill="currentColor" x="-9" dy="0.32em">2M</text></g><g class="tick" opacity="1" transform="translate(0,257.77777777777777)"><line stroke="currentColor" x2="-6"></line><line stroke="currentColor" x2="580" stroke-opacity="0.1"></line><text fill="currentColor" x="-9" dy="0.32em">4M</text></g><g class="tick" opacity="1" transform="translate(0,226.6666666666667)"><line stroke="currentColor" x2="-6"></line><line stroke="currentColor" x2="580" stroke-opacity="0.1"></line><text fill="currentColor" x="-9" dy="0.32em">6M</text></g><g class="tick" opacity="1" transform="translate(0,195.55555555555554)"><line stroke="currentColor" x2="-6"></line><line stroke="currentColor" x2="580" stroke-opacity="0.1"></line><text fill="currentColor" x="-9" dy="0.32em">8M</text></g><g class="tick" opacity="1" transform="translate(0,164.44444444444446)"><line stroke="currentColor" x2="-6"></line><line stroke="currentColor" x2="580" stroke-opacity="0.1"></line><text fill="currentColor" x="-9" dy="0.32em">10M</text></g><g class="tick" opacity="1" transform="translate(0,133.33333333333334)"><line stroke="currentColor" x2="-6"></line><line stroke="currentColor" x2="580" stroke-opacity="0.1"></line><text fill="currentColor" x="-9" dy="0.32em">12M</text></g><g class="tick" opacity="1" transform="translate(0,102.22222222222223)"><line stroke="currentColor" x2="-6"></line><line stroke="currentColor" x2="580" stroke-opacity="0.1"></line><text fill="currentColor" x="-9" dy="0.32em">14M</text></g><g class="tick" opacity="1" transform="translate(0,71.11111111111113)"><line stroke="currentColor" x2="-6"></line><line stroke="currentColor" x2="580" stroke-opacity="0.1"></line><text fill="currentColor" x="-9" dy="0.32em">16M</text></g><g class="tick" opacity="1" transform="translate(0,40)"><line stroke="currentColor" x2="-6"></line><line stroke="currentColor" x2="580" stroke-opacity="0.1"></line><text fill="currentColor" x="-9" dy="0.32em">18M</text></g><text fill="currentColor" transform="translate(20,40)" dy="-1em" text-anchor="start">↑ Aantal downloads CoronaCheck (miljoen)</text></g><g transform="translate(0,320)" fill="none" text-anchor="middle"><g class="tick" opacity="1" transform="translate(43.29097464389149,0)"><line stroke="currentColor" y2="6"></line><text fill="currentColor" dy="0.32em" transform="translate(0, 11.82842712474619) rotate(-45)" text-anchor="end">apr 2021</text></g><g class="tick" opacity="1" transform="translate(67.9732844730776,0)"><line stroke="currentColor" y2="6"></line><text fill="currentColor" dy="0.32em" transform="translate(0, 11.82842712474619) rotate(-45)" text-anchor="end">mei 2021</text></g><g class="tick" opacity="1" transform="translate(93.4783379632366,0)"><line stroke="currentColor" y2="6"></line><text fill="currentColor" dy="0.32em" transform="translate(0, 11.82842712474619) rotate(-45)" text-anchor="end">jun 2021</text></g><g class="tick" opacity="1" transform="translate(118.16064779242271,0)"><line stroke="currentColor" y2="6"></line><text fill="currentColor" dy="0.32em" transform="translate(0, 11.82842712474619) rotate(-45)" text-anchor="end">jul 2021</text></g><g class="tick" opacity="1" transform="translate(143.66570128258172,0)"><line stroke="currentColor" y2="6"></line><text fill="currentColor" dy="0.32em" transform="translate(0, 11.82842712474619) rotate(-45)" text-anchor="end">aug 2021</text></g><g class="tick" opacity="1" transform="translate(169.1707547727407,0)"><line stroke="currentColor" y2="6"></line><text fill="currentColor" dy="0.32em" transform="translate(0, 11.82842712474619) rotate(-45)" text-anchor="end">sep 2021</text></g><g class="tick" opacity="1" transform="translate(193.85306460192683,0)"><line stroke="currentColor" y2="6"></line><text fill="currentColor" dy="0.32em" transform="translate(0, 11.82842712474619) rotate(-45)" text-anchor="end">okt 2021</text></g><g class="tick" opacity="1" transform="translate(219.35811809208582,0)"><line stroke="currentColor" y2="6"></line><text fill="currentColor" dy="0.32em" transform="translate(0, 11.82842712474619) rotate(-45)" text-anchor="end">nov 2021</text></g><g class="tick" opacity="1" transform="translate(244.04042792127194,0)"><line stroke="currentColor" y2="6"></line><text fill="currentColor" dy="0.32em" transform="translate(0, 11.82842712474619) rotate(-45)" text-anchor="end">dec 2021</text></g><g class="tick" opacity="1" transform="translate(269.54548141143096,0)"><line stroke="currentColor" y2="6"></line><text fill="currentColor" dy="0.32em" transform="translate(0, 11.82842712474619) rotate(-45)" text-anchor="end">jan 2022</text></g><g class="tick" opacity="1" transform="translate(295.0505349015899,0)"><line stroke="currentColor" y2="6"></line><text fill="currentColor" dy="0.32em" transform="translate(0, 11.82842712474619) rotate(-45)" text-anchor="end">feb 2022</text></g><g class="tick" opacity="1" transform="translate(318.0873574088303,0)"><line stroke="currentColor" y2="6"></line><text fill="currentColor" dy="0.32em" transform="translate(0, 11.82842712474619) rotate(-45)" text-anchor="end">mrt 2022</text></g><g class="tick" opacity="1" transform="translate(343.59241089898927,0)"><line stroke="currentColor" y2="6"></line><text fill="currentColor" dy="0.32em" transform="translate(0, 11.82842712474619) rotate(-45)" text-anchor="end">apr 2022</text></g><g class="tick" opacity="1" transform="translate(368.2747207281754,0)"><line stroke="currentColor" y2="6"></line><text fill="currentColor" dy="0.32em" transform="translate(0, 11.82842712474619) rotate(-45)" text-anchor="end">mei 2022</text></g><g class="tick" opacity="1" transform="translate(393.7797742183344,0)"><line stroke="currentColor" y2="6"></line><text fill="currentColor" dy="0.32em" transform="translate(0, 11.82842712474619) rotate(-45)" text-anchor="end">jun 2022</text></g><g class="tick" opacity="1" transform="translate(418.46208404752053,0)"><line stroke="currentColor" y2="6"></line><text fill="currentColor" dy="0.32em" transform="translate(0, 11.82842712474619) rotate(-45)" text-anchor="end">jul 2022</text></g><g class="tick" opacity="1" transform="translate(443.9671375376795,0)"><line stroke="currentColor" y2="6"></line><text fill="currentColor" dy="0.32em" transform="translate(0, 11.82842712474619) rotate(-45)" text-anchor="end">aug 2022</text></g><g class="tick" opacity="1" transform="translate(469.4721910278385,0)"><line stroke="currentColor" y2="6"></line><text fill="currentColor" dy="0.32em" transform="translate(0, 11.82842712474619) rotate(-45)" text-anchor="end">sep 2022</text></g><g class="tick" opacity="1" transform="translate(494.15450085702463,0)"><line stroke="currentColor" y2="6"></line><text fill="currentColor" dy="0.32em" transform="translate(0, 11.82842712474619) rotate(-45)" text-anchor="end">okt 2022</text></g><g class="tick" opacity="1" transform="translate(519.6595543471836,0)"><line stroke="currentColor" y2="6"></line><text fill="currentColor" dy="0.32em" transform="translate(0, 11.82842712474619) rotate(-45)" text-anchor="end">nov 2022</text></g><g class="tick" opacity="1" transform="translate(544.3418641763698,0)"><line stroke="currentColor" y2="6"></line><text fill="currentColor" dy="0.32em" transform="translate(0, 11.82842712474619) rotate(-45)" text-anchor="end">dec 2022</text></g><g class="tick" opacity="1" transform="translate(569.8469176665287,0)"><line stroke="currentColor" y2="6"></line><text fill="currentColor" dy="0.32em" transform="translate(0, 11.82842712474619) rotate(-45)" text-anchor="end">jan 2023</text></g><g class="tick" opacity="1" transform="translate(595.3519711566878,0)"><line stroke="currentColor" y2="6"></line><text fill="currentColor" dy="0.32em" transform="translate(0, 11.82842712474619) rotate(-45)" text-anchor="end">feb 2023</text></g><g class="tick" opacity="1" transform="translate(618.388793663928,0)"><line stroke="currentColor" y2="6"></line><text fill="currentColor" dy="0.32em" transform="translate(0, 11.82842712474619) rotate(-45)" text-anchor="end">mrt 2023 *</text></g><text fill="currentColor" transform="translate(640,80)" dy="-0.32em" text-anchor="end">Maand →</text></g><g fill="none" stroke="#ec025f" stroke-width="3" stroke-miterlimit="1"><path d="M40,319.923L45.759,319.914L51.518,319.505L57.278,318.793L63.037,318.12L68.796,317.889L74.555,317.659L80.314,317.489L86.074,316.554L91.833,316.096L97.592,314.256L103.351,311.932L109.11,305.265L114.87,272.614L120.629,249.082L126.388,234.526L132.147,221.424L137.906,211.008L143.666,201.329L149.425,192.031L155.184,183.789L160.943,177.844L166.703,173.061L172.462,168.409L178.221,163.693L183.98,152.027L189.739,139.805L195.499,131.347L201.258,126.34L207.017,122.117L212.776,117.967L218.535,114.558L224.295,109.743L230.054,106.057L235.813,103.363L241.572,100.639L247.331,98.417L253.091,96.4L258.85,94.472L264.609,92.968L270.368,91.428L276.127,89.773L281.887,88.246L287.646,86.385L293.405,83.774L299.164,81.385L299.164,81.385L304.923,79.368L310.683,77.927L316.442,76.688L322.201,75.714L326.315,75.212L332.074,74.388L337.833,73.478L341.947,72.858L352.643,71.417L355.111,71.21L360.87,70.286L366.629,69.542L372.388,68.81L378.148,68.133L383.907,67.49L389.666,66.773L395.425,66.024L401.184,65.4L406.944,64.805L412.703,64.183L418.462,63.509L424.221,62.837L429.98,62.157L435.74,61.496L441.499,60.686L447.258,60.1L453.017,59.58L458.777,59.057L464.536,58.5L470.295,57.952L476.054,57.466L481.813,56.974L487.573,56.501L493.332,55.996L499.091,55.471L504.85,54.959L510.609,54.455L516.369,53.924L522.128,53.427L527.887,52.996L533.646,52.562L539.405,52.016L545.165,51.421L550.924,50.994L556.683,50.629L562.442,50.267L568.201,49.756L573.961,49.293L579.72,48.858L585.479,48.457L591.238,48.03L596.997,47.585L602.757,47.133L608.516,46.73L614.275,46.334L620,45.916"></path></g><g stroke="currentColor"><line x1="40" x2="620" y1="320" y2="320"></line></g>

</svg>
