<svg class="plot" fill="currentColor" text-anchor="middle" width="640" height="460" viewBox="0 0 640 400" style="font-family: 'RO Sans', sans-serif; font-size: 14px;" xmlns="http://www.w3.org/2000/svg">

<g transform="translate(40,0)" fill="none" text-anchor="end"><g class="tick" opacity="1" transform="translate(0,320.08858038479997)"><line stroke="currentColor" x2="0"></line><line stroke="currentColor" x2="580" stroke-opacity="0.1"></line><text fill="currentColor" x="-9" dy="0.32em">0m</text></g><g class="tick" opacity="1" transform="translate(0,284.27682182409495)"><line stroke="currentColor" x2="0"></line><line stroke="currentColor" x2="580" stroke-opacity="0.1"></line><text fill="currentColor" x="-9" dy="0.32em">2m</text></g><g class="tick" opacity="1" transform="translate(0,248.46506326339)"><line stroke="currentColor" x2="0"></line><line stroke="currentColor" x2="580" stroke-opacity="0.1"></line><text fill="currentColor" x="-9" dy="0.32em">4m</text></g><g class="tick" opacity="1" transform="translate(0,212.65330470268503)"><line stroke="currentColor" x2="0"></line><line stroke="currentColor" x2="580" stroke-opacity="0.1"></line><text fill="currentColor" x="-9" dy="0.32em">6m</text></g><g class="tick" opacity="1" transform="translate(0,176.84154614198007)"><line stroke="currentColor" x2="0"></line><line stroke="currentColor" x2="580" stroke-opacity="0.1"></line><text fill="currentColor" x="-9" dy="0.32em">8m</text></g><g class="tick" opacity="1" transform="translate(0,141.02978758127512)"><line stroke="currentColor" x2="0"></line><line stroke="currentColor" x2="580" stroke-opacity="0.1"></line><text fill="currentColor" x="-9" dy="0.32em">10m</text></g><g class="tick" opacity="1" transform="translate(0,105.21802902057014)"><line stroke="currentColor" x2="0"></line><line stroke="currentColor" x2="580" stroke-opacity="0.1"></line><text fill="currentColor" x="-9" dy="0.32em">12m</text></g><g class="tick" opacity="1" transform="translate(0,69.4062704598652)"><line stroke="currentColor" x2="0"></line><line stroke="currentColor" x2="580" stroke-opacity="0.1"></line><text fill="currentColor" x="-9" dy="0.32em">14m</text></g><text fill="currentColor" transform="translate(-40,40)" dy="-1em" text-anchor="start">↑ Number of downloads CoronaCheck (million)</text></g><g transform="translate(0,320)" fill="none" text-anchor="middle"><g class="tick" opacity="1" transform="translate(46.85573748302417,0)"><line stroke="currentColor" y2="6"></line><text fill="currentColor" dy="0.32em" transform="translate(0, 11.82842712474619) rotate(-45)" text-anchor="end">Apr 2021</text></g><g class="tick" opacity="1" transform="translate(98.27376860570541,0)"><line stroke="currentColor" y2="6"></line><text fill="currentColor" dy="0.32em" transform="translate(0, 11.82842712474619) rotate(-45)" text-anchor="end">May 2021</text></g><g class="tick" opacity="1" transform="translate(151.4057340991427,0)"><line stroke="currentColor" y2="6"></line><text fill="currentColor" dy="0.32em" transform="translate(0, 11.82842712474619) rotate(-45)" text-anchor="end">Jun 2021</text></g><g class="tick" opacity="1" transform="translate(202.82376522182398,0)"><line stroke="currentColor" y2="6"></line><text fill="currentColor" dy="0.32em" transform="translate(0, 11.82842712474619) rotate(-45)" text-anchor="end">Jul 2021</text></g><g class="tick" opacity="1" transform="translate(255.95573071526127,0)"><line stroke="currentColor" y2="6"></line><text fill="currentColor" dy="0.32em" transform="translate(0, 11.82842712474619) rotate(-45)" text-anchor="end">Aug 2021</text></g><g class="tick" opacity="1" transform="translate(309.08769620869856,0)"><line stroke="currentColor" y2="6"></line><text fill="currentColor" dy="0.32em" transform="translate(0, 11.82842712474619) rotate(-45)" text-anchor="end">Sep 2021</text></g><g class="tick" opacity="1" transform="translate(360.50572733137983,0)"><line stroke="currentColor" y2="6"></line><text fill="currentColor" dy="0.32em" transform="translate(0, 11.82842712474619) rotate(-45)" text-anchor="end">Oct 2021</text></g><g class="tick" opacity="1" transform="translate(413.63769282481707,0)"><line stroke="currentColor" y2="6"></line><text fill="currentColor" dy="0.32em" transform="translate(0, 11.82842712474619) rotate(-45)" text-anchor="end">Nov 2021</text></g><g class="tick" opacity="1" transform="translate(465.05572394749834,0)"><line stroke="currentColor" y2="6"></line><text fill="currentColor" dy="0.32em" transform="translate(0, 11.82842712474619) rotate(-45)" text-anchor="end">Dec 2021</text></g><g class="tick" opacity="1" transform="translate(518.1876894409356,0)"><line stroke="currentColor" y2="6"></line><text fill="currentColor" dy="0.32em" transform="translate(0, 11.82842712474619) rotate(-45)" text-anchor="end">Jan 2022</text></g><g class="tick" opacity="1" transform="translate(571.3196549343729,0)"><line stroke="currentColor" y2="6"></line><text fill="currentColor" dy="0.32em" transform="translate(0, 11.82842712474619) rotate(-45)" text-anchor="end">Feb 2022</text></g><g class="tick" opacity="1" transform="translate(619.3098173155421,0)"><line stroke="currentColor" y2="6"></line><text fill="currentColor" dy="0.32em" transform="translate(0, 11.82842712474619) rotate(-45)" text-anchor="end">Mar 2022</text></g><text fill="currentColor" transform="translate(640,-10)" dy="-0.32em" text-anchor="end">Month →</text></g><g fill="none" stroke="#ec025f" stroke-width="3" stroke-miterlimit="1"><path d="M40,320C45.915150523460404,319.99671128683883,51.830301046920816,319.99342257367766,51.99754059529229,319.9901338605165C59.99590099215382,319.8328486169179,60.615543513841985,319.6755633733193,63.995081190584585,319.51827812972067C69.86117988790896,319.2452671883331,71.8774204287502,318.9722562469456,75.99262178587688,318.69924530555807C79.88785271563688,318.440827655784,79.99180198430764,318.18241000601,87.99016238116917,317.92399235623594C90.73257877278533,317.83538809693033,95.97436577531079,317.7467838376247,99.98770297646146,317.6581795783191C103.97292383750323,317.5701960561619,107.1997448673602,317.48221253400465,111.98524357175376,317.3942290118474C115.54847766573707,317.32871736818703,122.52100612758473,317.2632057245267,123.98278416704605,317.1976940808663C131.98114456390758,316.8392362835529,129.19041875164214,316.48077848623956,135.98032476233834,316.12232068892615C139.30885637165773,315.9465983582952,145.98755382429113,315.77087602766426,147.97786535763063,315.5951536970333C155.97622575449216,314.8889875986012,156.34373588594593,314.1828215001691,159.97540595292293,313.476655401737C164.56035372902792,312.58512764099464,169.18578162863386,311.6935998802523,171.9729465482152,310.80207211950994C179.97130694507672,308.2436442761746,182.33707107499285,305.68521643283935,183.97048714350748,303.12678858950403C191.96884754036904,290.5989162764997,191.0683500553816,278.07104396349536,195.9680277387998,265.54317165049105C199.49942818802745,256.5138156861727,202.44254055014054,247.48445972185434,207.9655683340921,238.455103757536C211.38174846990566,232.8701406374655,215.73036970900793,227.28517751739506,219.96310892938436,221.70021439732457C223.77305824334383,216.67310894623347,227.38706218992675,211.64600349514237,231.96064952467668,206.61889804405126C235.59676698265702,202.62222222790663,239.80125957167323,198.62554641176197,243.95819011996898,194.62887059561734C247.82114317359685,190.91483908391305,251.87274588048354,187.2008075722088,255.95573071526127,183.4867760605045C259.8775900772008,179.91931013933632,263.6825792585198,176.35184421816817,267.9532713105536,172.784378297C271.7390918416965,169.62194336515338,275.0538876399,166.45950843330678,279.95081190584585,163.29707350146018C283.48292866602776,161.01603160268323,287.41087075620726,158.73498970390625,291.9483525011382,156.4539478051293C295.5990726921996,154.618690676916,299.8895915238295,152.78343354870267,303.9458930964304,150.94817642048938C307.8910396266526,149.16321093854816,311.97110601935805,147.37824545660698,315.9434336917227,145.59327997466576C319.97020756224634,143.78384909300115,324.7077338809178,141.97441821133654,327.94097428701497,140.16498732967193C335.9393346838765,135.68883384678443,336.0282601112405,131.2126803638969,339.9385148823073,126.73652688100941C344.0353072016137,122.04683981907728,346.8849874293997,117.35715275714516,351.9360554775996,112.66746569521302C355.43149539250095,109.42210863641911,358.2024758758733,106.17675157762521,363.9335960728919,102.9313945188313C367.32595849357034,101.01040404062367,371.52982202406315,99.08941356241606,375.9311366681842,97.16842308420843C379.6441270993315,95.54785744856655,383.893446182951,93.92729181292468,387.9286772634765,92.3067261772828C391.8930613653532,90.7146129838174,395.4502199204683,89.122499790352,399.9262178587687,87.5303865968866C403.6035579007428,86.22235614683044,408.40874952752927,84.91432569677426,411.92375845406104,83.60629524671809C416.88908087295096,81.75856368927282,419.22764971156425,79.91083213182753,423.92129904935337,78.06310057438226C427.5136675518668,76.64890616607288,431.0697745071093,75.23471175776349,435.91883964464563,73.82051734945411C439.4637993677103,72.78665575431226,443.9382966163374,71.7527941591704,447.91638023993795,70.71893256402856C451.9371117787947,69.67398722961218,455.41838133309113,68.6290418951958,459.9139208352303,67.58409656077941C463.5825489427661,66.73135890318477,467.6990192911741,65.87862124559011,471.91146143052254,65.02588358799547C475.73494481924257,64.25188405022294,479.8145533082566,63.47788451245042,483.9090020258148,62.703884974677905C487.8212058136413,61.964336348640785,491.2756386271071,61.22478772260366,495.9065426211071,60.48523909656654C499.52090215613975,59.90803114071152,503.95030797959504,59.33082318485651,507.90408321639933,58.7536152290015C511.9508288161401,58.16283461665197,516.036720017971,57.572054004302444,519.9016238116917,56.98127339195292C524.0559434217718,56.34625332052807,527.7257362086202,55.71123324910322,531.899164406984,55.076213177678376C535.7499936232404,54.49027908998742,540.2208400905005,53.90434500229645,543.8967050022763,53.318410914605494C548.3759738149485,52.60441397830142,552.373117258148,51.89041704199735,555.8942455975686,51.17642010569328C560.8344512065547,50.17466972072754,563.699365144781,49.17291933576181,567.8917861928608,48.17116895079607C571.7290769349243,47.25427452773991,575.4896599481254,46.33738010468375,579.8893267881531,45.42048568162759C583.6031486362322,44.64652195561363,586.9552608542145,43.872558229599676,591.8868673834454,43.098594503585716C595.4101334738464,42.545654982782004,603.8844079787377,41.99271546197829,603.8844079787377,41.43977594117458C603.8844079787377,40.95985062744972,603.8844079787377,40.47992531372486,603.8844079787377,40"></path></g>

</svg>
