<svg class="plot" fill="currentColor" text-anchor="middle" width="640" height="460" viewBox="0 0 640 400" style="font-family: 'RO Sans', sans-serif; font-size: 14px;" xmlns="http://www.w3.org/2000/svg">

<style>
        line[stroke-opacity] {
            stroke-opacity: 1;
            stroke: #949494;
        }
</style>

<!-- replace the below code -->

<g transform="translate(40,0)" fill="none" text-anchor="end"><g class="tick" opacity="1" transform="translate(0,320.5)"><line stroke="currentColor" x2="-6"></line><line stroke="currentColor" x2="580" stroke-opacity="0.1"></line><text fill="currentColor" x="-9" dy="0.32em">0M</text></g><g class="tick" opacity="1" transform="translate(0,285.5)"><line stroke="currentColor" x2="-6"></line><line stroke="currentColor" x2="580" stroke-opacity="0.1"></line><text fill="currentColor" x="-9" dy="0.32em">0.5M</text></g><g class="tick" opacity="1" transform="translate(0,250.5)"><line stroke="currentColor" x2="-6"></line><line stroke="currentColor" x2="580" stroke-opacity="0.1"></line><text fill="currentColor" x="-9" dy="0.32em">1M</text></g><g class="tick" opacity="1" transform="translate(0,215.5)"><line stroke="currentColor" x2="-6"></line><line stroke="currentColor" x2="580" stroke-opacity="0.1"></line><text fill="currentColor" x="-9" dy="0.32em">1.5M</text></g><g class="tick" opacity="1" transform="translate(0,180.5)"><line stroke="currentColor" x2="-6"></line><line stroke="currentColor" x2="580" stroke-opacity="0.1"></line><text fill="currentColor" x="-9" dy="0.32em">2M</text></g><g class="tick" opacity="1" transform="translate(0,145.5)"><line stroke="currentColor" x2="-6"></line><line stroke="currentColor" x2="580" stroke-opacity="0.1"></line><text fill="currentColor" x="-9" dy="0.32em">2.5M</text></g><g class="tick" opacity="1" transform="translate(0,110.5)"><line stroke="currentColor" x2="-6"></line><line stroke="currentColor" x2="580" stroke-opacity="0.1"></line><text fill="currentColor" x="-9" dy="0.32em">3M</text></g><g class="tick" opacity="1" transform="translate(0,75.5)"><line stroke="currentColor" x2="-6"></line><line stroke="currentColor" x2="580" stroke-opacity="0.1"></line><text fill="currentColor" x="-9" dy="0.32em">3.5M</text></g><g class="tick" opacity="1" transform="translate(0,40.5)"><line stroke="currentColor" x2="-6"></line><line stroke="currentColor" x2="580" stroke-opacity="0.1"></line><text fill="currentColor" x="-9" dy="0.32em">4M</text></g><text fill="currentColor" transform="translate(20,40)" dy="-1em" text-anchor="start">↑ Aantal downloads CoronaCheck Scanner (miljoen)</text></g><g transform="translate(0,320)" fill="none" text-anchor="middle"><g class="tick" opacity="1" transform="translate(44.60619469026548,0)"><line stroke="currentColor" y2="6"></line><text fill="currentColor" dy="0.32em" transform="translate(0, 11.82842712474619) rotate(-45)" text-anchor="end">apr. 2021</text></g><g class="tick" opacity="1" transform="translate(75.40265486725664,0)"><line stroke="currentColor" y2="6"></line><text fill="currentColor" dy="0.32em" transform="translate(0, 11.82842712474619) rotate(-45)" text-anchor="end">mei 2021</text></g><g class="tick" opacity="1" transform="translate(107.22566371681417,0)"><line stroke="currentColor" y2="6"></line><text fill="currentColor" dy="0.32em" transform="translate(0, 11.82842712474619) rotate(-45)" text-anchor="end">jun. 2021</text></g><g class="tick" opacity="1" transform="translate(138.02212389380531,0)"><line stroke="currentColor" y2="6"></line><text fill="currentColor" dy="0.32em" transform="translate(0, 11.82842712474619) rotate(-45)" text-anchor="end">jul. 2021</text></g><g class="tick" opacity="1" transform="translate(169.84513274336283,0)"><line stroke="currentColor" y2="6"></line><text fill="currentColor" dy="0.32em" transform="translate(0, 11.82842712474619) rotate(-45)" text-anchor="end">aug. 2021</text></g><g class="tick" opacity="1" transform="translate(201.66814159292036,0)"><line stroke="currentColor" y2="6"></line><text fill="currentColor" dy="0.32em" transform="translate(0, 11.82842712474619) rotate(-45)" text-anchor="end">sep. 2021</text></g><g class="tick" opacity="1" transform="translate(232.4646017699115,0)"><line stroke="currentColor" y2="6"></line><text fill="currentColor" dy="0.32em" transform="translate(0, 11.82842712474619) rotate(-45)" text-anchor="end">okt. 2021</text></g><g class="tick" opacity="1" transform="translate(264.28761061946904,0)"><line stroke="currentColor" y2="6"></line><text fill="currentColor" dy="0.32em" transform="translate(0, 11.82842712474619) rotate(-45)" text-anchor="end">nov. 2021</text></g><g class="tick" opacity="1" transform="translate(295.08407079646014,0)"><line stroke="currentColor" y2="6"></line><text fill="currentColor" dy="0.32em" transform="translate(0, 11.82842712474619) rotate(-45)" text-anchor="end">dec. 2021</text></g><g class="tick" opacity="1" transform="translate(326.9070796460177,0)"><line stroke="currentColor" y2="6"></line><text fill="currentColor" dy="0.32em" transform="translate(0, 11.82842712474619) rotate(-45)" text-anchor="end">jan. 2022</text></g><g class="tick" opacity="1" transform="translate(358.7300884955752,0)"><line stroke="currentColor" y2="6"></line><text fill="currentColor" dy="0.32em" transform="translate(0, 11.82842712474619) rotate(-45)" text-anchor="end">feb. 2022</text></g><g class="tick" opacity="1" transform="translate(387.4734513274337,0)"><line stroke="currentColor" y2="6"></line><text fill="currentColor" dy="0.32em" transform="translate(0, 11.82842712474619) rotate(-45)" text-anchor="end">mrt. 2022</text></g><g class="tick" opacity="1" transform="translate(419.29646017699116,0)"><line stroke="currentColor" y2="6"></line><text fill="currentColor" dy="0.32em" transform="translate(0, 11.82842712474619) rotate(-45)" text-anchor="end">apr. 2022</text></g><g class="tick" opacity="1" transform="translate(450.0929203539823,0)"><line stroke="currentColor" y2="6"></line><text fill="currentColor" dy="0.32em" transform="translate(0, 11.82842712474619) rotate(-45)" text-anchor="end">mei 2022</text></g><g class="tick" opacity="1" transform="translate(481.9159292035398,0)"><line stroke="currentColor" y2="6"></line><text fill="currentColor" dy="0.32em" transform="translate(0, 11.82842712474619) rotate(-45)" text-anchor="end">jun. 2022</text></g><g class="tick" opacity="1" transform="translate(512.712389380531,0)"><line stroke="currentColor" y2="6"></line><text fill="currentColor" dy="0.32em" transform="translate(0, 11.82842712474619) rotate(-45)" text-anchor="end">jul. 2022</text></g><g class="tick" opacity="1" transform="translate(544.5353982300885,0)"><line stroke="currentColor" y2="6"></line><text fill="currentColor" dy="0.32em" transform="translate(0, 11.82842712474619) rotate(-45)" text-anchor="end">aug. 2022</text></g><g class="tick" opacity="1" transform="translate(576.358407079646,0)"><line stroke="currentColor" y2="6"></line><text fill="currentColor" dy="0.32em" transform="translate(0, 11.82842712474619) rotate(-45)" text-anchor="end">sep. 2022</text></g><g class="tick" opacity="1" transform="translate(607.1548672566371,0)"><line stroke="currentColor" y2="6"></line><text fill="currentColor" dy="0.32em" transform="translate(0, 11.82842712474619) rotate(-45)" text-anchor="end">okt. 2022 *</text></g><text fill="currentColor" transform="translate(640,80)" dy="-0.32em" text-anchor="end">Maand →</text></g><g fill="none" stroke="#ec025f" stroke-width="3" stroke-miterlimit="1" transform="translate(0.5,0.5)"><path d="M40,319.98341L47.1858407079646,319.97683L54.3716814159292,319.86462L61.557522123893804,319.7389L68.7433628318584,319.61794L75.929203539823,319.55214L83.11504424778761,319.48354L90.30088495575221,319.43005999999997L97.48672566371681,319.04954000000004L104.67256637168141,318.80888000000004L111.85840707964601,318.11672L119.04424778761063,317.62336L126.23008849557522,316.23253L133.41592920353983,301.63563999999997L140.60176991150442,292.18396L147.78761061946904,285.57113L154.97345132743362,281.20459999999997L162.15929203539824,277.92222999999996L169.34513274336283,275.07071L176.53097345132744,272.43801L183.71681415929203,269.57879L190.90265486725662,267.30484L198.08849557522126,265.29773L205.27433628318585,263.17330000000004L212.46017699115043,260.90866L219.64601769911502,251.52159L226.83185840707966,234.93404L234.01769911504425,222.15554000000003L241.20353982300884,215.19194L248.38938053097345,208.36512L255.57522123893807,202.68105L262.76106194690266,195.53629L269.94690265486724,174.21037L277.1327433628319,159.47831L284.3185840707965,150.64774L291.50442477876106,144.64937000000003L298.69026548672565,141.01420000000002L305.87610619469024,137.88968L313.0619469026549,134.93148L320.24778761061947,131.32045999999997L327.43362831858406,129.48142L334.6194690265487,127.57287L341.80530973451323,125.5407L348.9911504424779,123.31308999999999L356.1769911504425,119.34472L363.36283185840705,114.39523L363.36283185840705,114.39523L370.5486725663717,109.85622000000002L377.7345132743362,107.55062999999998L384.92035398230087,106.11794000000002L392.1061946902655,105.28305000000002L404.424778761062,103.20706L416.7433628318584,103.09709000000001L430.0884955752213,102.32268L433.16814159292034,102.19206L440.3539823008849,101.67335999999999L447.5398230088495,101.20940000000002L454.72566371681415,100.76693L461.91150442477874,100.39558L469.0973451327433,100.04480999999998L476.2831858407079,99.6638L483.46902654867256,99.26948999999999L490.65486725663715,98.94574L497.84070796460173,98.61806999999999L505.0265486725664,98.28851L512.212389380531,97.92500000000001L519.3982300884956,97.56604L526.5840707964602,97.21681L533.7699115044247,96.86793L540.9557522123894,96.50441999999998L548.141592920354,96.16596999999999L555.3274336283185,95.90458999999998L562.5132743362832,95.62710999999999L569.6991150442478,95.33422999999999L576.8849557522124,95.04422L584.070796460177,94.78375L591.2566371681415,94.52342000000002L598.4424778761062,94.27282000000001L605.6283185840708,94.00996999999998L612.8141592920354,93.75482000000001L620,93.49351000000001"></path></g><g stroke="currentColor" transform="translate(0,0.5)"><line x1="40" x2="620" y1="320" y2="320"></line></g>

</svg>
