<svg class="plot" fill="currentColor" text-anchor="middle" width="640" height="460" viewBox="0 0 640 400" style="font-family: 'RO Sans', sans-serif; font-size: 14px;" xmlns="http://www.w3.org/2000/svg">

<g transform="translate(40,0)" fill="none" text-anchor="end"><g class="tick" opacity="1" transform="translate(0,320.0877550653215)"><line stroke="currentColor" x2="0"></line><line stroke="currentColor" x2="580" stroke-opacity="0.1"></line><text fill="currentColor" x="-9" dy="0.32em">0m</text></g><g class="tick" opacity="1" transform="translate(0,284.6096611411225)"><line stroke="currentColor" x2="0"></line><line stroke="currentColor" x2="580" stroke-opacity="0.1"></line><text fill="currentColor" x="-9" dy="0.32em">2m</text></g><g class="tick" opacity="1" transform="translate(0,249.13156721692346)"><line stroke="currentColor" x2="0"></line><line stroke="currentColor" x2="580" stroke-opacity="0.1"></line><text fill="currentColor" x="-9" dy="0.32em">4m</text></g><g class="tick" opacity="1" transform="translate(0,213.65347329272444)"><line stroke="currentColor" x2="0"></line><line stroke="currentColor" x2="580" stroke-opacity="0.1"></line><text fill="currentColor" x="-9" dy="0.32em">6m</text></g><g class="tick" opacity="1" transform="translate(0,178.1753793685254)"><line stroke="currentColor" x2="0"></line><line stroke="currentColor" x2="580" stroke-opacity="0.1"></line><text fill="currentColor" x="-9" dy="0.32em">8m</text></g><g class="tick" opacity="1" transform="translate(0,142.69728544432635)"><line stroke="currentColor" x2="0"></line><line stroke="currentColor" x2="580" stroke-opacity="0.1"></line><text fill="currentColor" x="-9" dy="0.32em">10m</text></g><g class="tick" opacity="1" transform="translate(0,107.21919152012735)"><line stroke="currentColor" x2="0"></line><line stroke="currentColor" x2="580" stroke-opacity="0.1"></line><text fill="currentColor" x="-9" dy="0.32em">12m</text></g><g class="tick" opacity="1" transform="translate(0,71.74109759592832)"><line stroke="currentColor" x2="0"></line><line stroke="currentColor" x2="580" stroke-opacity="0.1"></line><text fill="currentColor" x="-9" dy="0.32em">14m</text></g><text fill="currentColor" transform="translate(-40,40)" dy="-1em" text-anchor="start">↑ Aantal downloads CoronaCheck (miljoen)</text></g><g transform="translate(0,320)" fill="none" text-anchor="middle"><g class="tick" opacity="1" transform="translate(46.525283969865235,0)"><line stroke="currentColor" y2="6"></line><text fill="currentColor" dy="0.32em" transform="translate(0, 11.82842712474619) rotate(-45)" text-anchor="end">apr. 2021</text></g><g class="tick" opacity="1" transform="translate(95.46491374385451,0)"><line stroke="currentColor" y2="6"></line><text fill="currentColor" dy="0.32em" transform="translate(0, 11.82842712474619) rotate(-45)" text-anchor="end">mei 2021</text></g><g class="tick" opacity="1" transform="translate(146.0358645103101,0)"><line stroke="currentColor" y2="6"></line><text fill="currentColor" dy="0.32em" transform="translate(0, 11.82842712474619) rotate(-45)" text-anchor="end">jun. 2021</text></g><g class="tick" opacity="1" transform="translate(194.97549428429934,0)"><line stroke="currentColor" y2="6"></line><text fill="currentColor" dy="0.32em" transform="translate(0, 11.82842712474619) rotate(-45)" text-anchor="end">jul. 2021</text></g><g class="tick" opacity="1" transform="translate(245.54644505075493,0)"><line stroke="currentColor" y2="6"></line><text fill="currentColor" dy="0.32em" transform="translate(0, 11.82842712474619) rotate(-45)" text-anchor="end">aug. 2021</text></g><g class="tick" opacity="1" transform="translate(296.11739581721054,0)"><line stroke="currentColor" y2="6"></line><text fill="currentColor" dy="0.32em" transform="translate(0, 11.82842712474619) rotate(-45)" text-anchor="end">sep. 2021</text></g><g class="tick" opacity="1" transform="translate(345.0570255911998,0)"><line stroke="currentColor" y2="6"></line><text fill="currentColor" dy="0.32em" transform="translate(0, 11.82842712474619) rotate(-45)" text-anchor="end">okt. 2021</text></g><g class="tick" opacity="1" transform="translate(395.62797635765537,0)"><line stroke="currentColor" y2="6"></line><text fill="currentColor" dy="0.32em" transform="translate(0, 11.82842712474619) rotate(-45)" text-anchor="end">nov. 2021</text></g><g class="tick" opacity="1" transform="translate(444.5676061316447,0)"><line stroke="currentColor" y2="6"></line><text fill="currentColor" dy="0.32em" transform="translate(0, 11.82842712474619) rotate(-45)" text-anchor="end">dec. 2021</text></g><g class="tick" opacity="1" transform="translate(495.1385568981002,0)"><line stroke="currentColor" y2="6"></line><text fill="currentColor" dy="0.32em" transform="translate(0, 11.82842712474619) rotate(-45)" text-anchor="end">jan. 2022</text></g><g class="tick" opacity="1" transform="translate(545.7095076645558,0)"><line stroke="currentColor" y2="6"></line><text fill="currentColor" dy="0.32em" transform="translate(0, 11.82842712474619) rotate(-45)" text-anchor="end">feb. 2022</text></g><g class="tick" opacity="1" transform="translate(591.3864954536124,0)"><line stroke="currentColor" y2="6"></line><text fill="currentColor" dy="0.32em" transform="translate(0, 11.82842712474619) rotate(-45)" text-anchor="end">mrt. 2022</text></g><text fill="currentColor" transform="translate(640,-10)" dy="-0.32em" text-anchor="end">Maand →</text></g><g fill="none" stroke="#ec025f" stroke-width="3" stroke-miterlimit="1"><path d="M40,320C45.63003425753271,319.9967419283746,51.260068515065406,319.99348385674926,51.41924694726416,319.99022578512387C59.032078245440275,319.8344059966088,59.62185336793159,319.67858620809375,62.83849389452833,319.52276641957866C68.42184067378916,319.25229917054753,70.34089637175285,318.98183192151635,74.2577408417925,318.7113646724852C77.96521768258802,318.4553547467282,78.06415649088055,318.1993448209712,85.67698778905665,317.94333489521415C88.28721692388253,317.85555617783,93.27634446642928,317.7677774604459,97.09623473632081,317.6799987430618C100.88936390226651,317.5928349793057,103.96064887954279,317.5056712155496,108.51548168358498,317.4185074517935C111.90696427344827,317.35360619197485,118.54340977827937,317.2887049321562,119.93472863084915,317.2238036723375C127.54755992902525,316.86868569120327,124.8913499367158,316.51356771006897,131.3539755781133,316.1584497289347C134.52206858156666,315.9843646350643,140.87884603040558,315.81027954119395,142.77322252537746,315.63619444732353C150.38605382355357,314.9366078262479,150.7358495932247,314.23702120517225,154.19246947264162,313.5374345840966C158.5564181069304,312.65421334886935,162.95889568163403,311.7709921136421,165.6117164199058,310.8877708784148C173.2245477180819,308.3531803703761,175.47627961295808,305.8185898623374,177.03096336716996,303.28399935429866C184.6437946653461,290.8728514952031,183.7867020741781,278.4617036361076,188.45021031443414,266.05055577701205C191.81139367356639,257.1053279565437,194.61264502917362,248.16010013607539,199.8694572616983,239.21487231560707C203.1209740436045,233.68194530781514,207.25998732011817,228.1490183000232,211.28870420896246,222.61609129223126C214.91501009449823,217.63582429254356,218.35481537847542,212.65555729285583,222.7079511562266,207.67529029316813C226.1688040578812,203.71585222900836,230.17063583169968,199.7564141648486,234.12719810349077,195.79697610068882C237.803952894583,192.1175488928258,241.66026423395016,188.4381216849628,245.54644505075493,184.75869447709977C249.27926680624046,181.22446728163717,252.90085164256925,177.69024008617458,256.9656919980191,174.156012890712C260.56903213258863,171.0230429375321,263.7240514049795,167.89007298435223,268.38493894528324,164.75710303117233C271.74680408845387,162.49731401263915,275.4854153784972,160.237524994106,279.8041858925475,157.9777359755728C283.2789376607101,156.15957827020807,287.3626491248325,154.34142056484336,291.2234328398116,152.52326285947862C294.9784192984053,150.75492822401478,298.86182234501115,148.9865935885509,302.6426797870758,147.21825895308706C306.47535906522245,145.4256868664573,310.9845318012831,143.6331147798276,314.0619267343399,141.84054269319785C321.674758032516,137.40609434250263,321.7593971639193,132.97164599180743,325.4811736816041,128.53719764111221C329.38049644815277,123.89120524237832,332.0928191932488,119.24521284364441,336.9004206288683,114.59922044491051C340.2273767879702,111.38410096524912,342.8647931963042,108.16898148558774,348.3196675761324,104.95386200592634C351.5485146809755,103.05076974370708,355.5497477175306,101.1476774814878,359.7389145233966,99.24458521926854C363.27293504279675,97.63911868697939,367.31743262862807,96.03365215469024,371.15816147066073,94.42818562240109C374.9314582304068,92.85090643573469,378.3171581285486,91.2736272490683,382.5774084179249,89.6963480624019C386.0774969331363,88.40050476880488,390.6510734407025,87.10466147520785,393.99665536518904,85.80881818161083C398.7226441979619,83.97830227352917,400.9484916422107,82.14778636544752,405.4159023124532,80.31727045736585C408.83511500275,78.91625235433054,412.2198139892016,77.51523425129523,416.83514925971735,76.11421614825991C420.20923832190937,75.08998722873089,424.46806025637954,74.06575830920188,428.25439620698154,73.04152938967286C432.0813243999876,72.00632000007433,435.39479322426496,70.97111061047579,439.67364315424567,69.93590122087726C443.16543965911137,69.09110867438554,447.0834919537631,68.2463161278938,451.09289010150985,67.40152358140209C454.73207770565006,66.63473553741836,458.61504491998784,65.86794749343466,462.51213704877404,65.10115944945093C466.2357686386303,64.3685013318223,469.5236942802553,63.63584321419366,473.9313839960382,62.90318509656503C477.3715277287406,62.33135509171044,481.587431690552,61.75952508685585,485.3506309433024,61.18769508200126C489.20231929302355,60.60241887954941,493.09126638703617,60.01714267709755,496.76987789056653,59.4318664746457C500.72395507401706,58.802763000166145,504.216860119469,58.17365952568658,508.1891248378307,57.544556051207024C511.85434017283245,56.96408121746626,516.1096872973072,56.383606383725486,519.608371785095,55.80313154998472C523.8717352893746,55.09578705237099,527.6762123569032,54.38844255475726,531.0276187323591,53.68109805714353C535.7297014109881,52.688681161833216,538.4565235862015,51.69626426652291,542.4468656796232,50.703847371212596C546.0991951086453,49.795495819455674,549.678514199283,48.88714426769876,553.8661126268873,47.978792715941836C557.4009244880784,47.21204015005205,560.5914614908958,46.44528758416226,565.2853595741516,45.67853501827247C568.6388006588184,45.130747335067184,572.5634146178206,44.5829596518619,576.7046065214157,44.03517196865661C580.2637401594836,43.56437766228249,583.7386268715029,43.09358335590837,588.1238534686798,42.62278904953425C591.5723313348245,42.252563313403925,594.7657266103695,41.8823375772736,599.543100415944,41.51211184114328C602.0042735053296,41.321381608206785,605.1328261925548,41.13065137527029,607.6997053782756,40.939921142333795C611.9162437133015,40.6266140948892,615.5175980194206,40.313307047444596,619.1189523255397,40"></path></g>

</svg>
