<svg class="plot" fill="currentColor" text-anchor="middle" width="640" height="460" viewBox="0 0 640 400" style="font-family: 'RO Sans', sans-serif; font-size: 14px;" xmlns="http://www.w3.org/2000/svg">

<style>
        line[stroke-opacity] {
            stroke-opacity: 1;
            stroke: #949494;
        }
</style>

<!-- replace the below code -->

<g transform="translate(40,0)" fill="none" text-anchor="end"><g class="tick" opacity="1" transform="translate(0,320.5)"><line stroke="currentColor" x2="-6"></line><line stroke="currentColor" x2="580" stroke-opacity="0.1"></line><text fill="currentColor" x="-9" dy="0.32em">0M</text></g><g class="tick" opacity="1" transform="translate(0,285.5)"><line stroke="currentColor" x2="-6"></line><line stroke="currentColor" x2="580" stroke-opacity="0.1"></line><text fill="currentColor" x="-9" dy="0.32em">0.5M</text></g><g class="tick" opacity="1" transform="translate(0,250.5)"><line stroke="currentColor" x2="-6"></line><line stroke="currentColor" x2="580" stroke-opacity="0.1"></line><text fill="currentColor" x="-9" dy="0.32em">1M</text></g><g class="tick" opacity="1" transform="translate(0,215.5)"><line stroke="currentColor" x2="-6"></line><line stroke="currentColor" x2="580" stroke-opacity="0.1"></line><text fill="currentColor" x="-9" dy="0.32em">1.5M</text></g><g class="tick" opacity="1" transform="translate(0,180.5)"><line stroke="currentColor" x2="-6"></line><line stroke="currentColor" x2="580" stroke-opacity="0.1"></line><text fill="currentColor" x="-9" dy="0.32em">2M</text></g><g class="tick" opacity="1" transform="translate(0,145.5)"><line stroke="currentColor" x2="-6"></line><line stroke="currentColor" x2="580" stroke-opacity="0.1"></line><text fill="currentColor" x="-9" dy="0.32em">2.5M</text></g><g class="tick" opacity="1" transform="translate(0,110.5)"><line stroke="currentColor" x2="-6"></line><line stroke="currentColor" x2="580" stroke-opacity="0.1"></line><text fill="currentColor" x="-9" dy="0.32em">3M</text></g><g class="tick" opacity="1" transform="translate(0,75.5)"><line stroke="currentColor" x2="-6"></line><line stroke="currentColor" x2="580" stroke-opacity="0.1"></line><text fill="currentColor" x="-9" dy="0.32em">3.5M</text></g><g class="tick" opacity="1" transform="translate(0,40.5)"><line stroke="currentColor" x2="-6"></line><line stroke="currentColor" x2="580" stroke-opacity="0.1"></line><text fill="currentColor" x="-9" dy="0.32em">4M</text></g><text fill="currentColor" transform="translate(20,40)" dy="-1em" text-anchor="start">↑ Aantal downloads CoronaCheck Scanner (miljoen)</text></g><g transform="translate(0,320)" fill="none" text-anchor="middle"><g class="tick" opacity="1" transform="translate(44.32207578253706,0)"><line stroke="currentColor" y2="6"></line><text fill="currentColor" dy="0.32em" transform="translate(0, 11.82842712474619) rotate(-45)" text-anchor="end">apr. 2021</text></g><g class="tick" opacity="1" transform="translate(72.98764415156506,0)"><line stroke="currentColor" y2="6"></line><text fill="currentColor" dy="0.32em" transform="translate(0, 11.82842712474619) rotate(-45)" text-anchor="end">mei 2021</text></g><g class="tick" opacity="1" transform="translate(102.60873146622735,0)"><line stroke="currentColor" y2="6"></line><text fill="currentColor" dy="0.32em" transform="translate(0, 11.82842712474619) rotate(-45)" text-anchor="end">jun. 2021</text></g><g class="tick" opacity="1" transform="translate(131.27429983525533,0)"><line stroke="currentColor" y2="6"></line><text fill="currentColor" dy="0.32em" transform="translate(0, 11.82842712474619) rotate(-45)" text-anchor="end">jul. 2021</text></g><g class="tick" opacity="1" transform="translate(160.89538714991764,0)"><line stroke="currentColor" y2="6"></line><text fill="currentColor" dy="0.32em" transform="translate(0, 11.82842712474619) rotate(-45)" text-anchor="end">aug. 2021</text></g><g class="tick" opacity="1" transform="translate(190.51647446457991,0)"><line stroke="currentColor" y2="6"></line><text fill="currentColor" dy="0.32em" transform="translate(0, 11.82842712474619) rotate(-45)" text-anchor="end">sep. 2021</text></g><g class="tick" opacity="1" transform="translate(219.1820428336079,0)"><line stroke="currentColor" y2="6"></line><text fill="currentColor" dy="0.32em" transform="translate(0, 11.82842712474619) rotate(-45)" text-anchor="end">okt. 2021</text></g><g class="tick" opacity="1" transform="translate(248.8031301482702,0)"><line stroke="currentColor" y2="6"></line><text fill="currentColor" dy="0.32em" transform="translate(0, 11.82842712474619) rotate(-45)" text-anchor="end">nov. 2021</text></g><g class="tick" opacity="1" transform="translate(277.4686985172982,0)"><line stroke="currentColor" y2="6"></line><text fill="currentColor" dy="0.32em" transform="translate(0, 11.82842712474619) rotate(-45)" text-anchor="end">dec. 2021</text></g><g class="tick" opacity="1" transform="translate(307.0897858319605,0)"><line stroke="currentColor" y2="6"></line><text fill="currentColor" dy="0.32em" transform="translate(0, 11.82842712474619) rotate(-45)" text-anchor="end">jan. 2022</text></g><g class="tick" opacity="1" transform="translate(336.71087314662276,0)"><line stroke="currentColor" y2="6"></line><text fill="currentColor" dy="0.32em" transform="translate(0, 11.82842712474619) rotate(-45)" text-anchor="end">feb. 2022</text></g><g class="tick" opacity="1" transform="translate(363.46540362438225,0)"><line stroke="currentColor" y2="6"></line><text fill="currentColor" dy="0.32em" transform="translate(0, 11.82842712474619) rotate(-45)" text-anchor="end">mrt. 2022</text></g><g class="tick" opacity="1" transform="translate(393.0864909390445,0)"><line stroke="currentColor" y2="6"></line><text fill="currentColor" dy="0.32em" transform="translate(0, 11.82842712474619) rotate(-45)" text-anchor="end">apr. 2022</text></g><g class="tick" opacity="1" transform="translate(421.7520593080725,0)"><line stroke="currentColor" y2="6"></line><text fill="currentColor" dy="0.32em" transform="translate(0, 11.82842712474619) rotate(-45)" text-anchor="end">mei 2022</text></g><g class="tick" opacity="1" transform="translate(451.37314662273474,0)"><line stroke="currentColor" y2="6"></line><text fill="currentColor" dy="0.32em" transform="translate(0, 11.82842712474619) rotate(-45)" text-anchor="end">jun. 2022</text></g><g class="tick" opacity="1" transform="translate(480.03871499176273,0)"><line stroke="currentColor" y2="6"></line><text fill="currentColor" dy="0.32em" transform="translate(0, 11.82842712474619) rotate(-45)" text-anchor="end">jul. 2022</text></g><g class="tick" opacity="1" transform="translate(509.6598023064251,0)"><line stroke="currentColor" y2="6"></line><text fill="currentColor" dy="0.32em" transform="translate(0, 11.82842712474619) rotate(-45)" text-anchor="end">aug. 2022</text></g><g class="tick" opacity="1" transform="translate(539.2808896210873,0)"><line stroke="currentColor" y2="6"></line><text fill="currentColor" dy="0.32em" transform="translate(0, 11.82842712474619) rotate(-45)" text-anchor="end">sep. 2022</text></g><g class="tick" opacity="1" transform="translate(567.9464579901153,0)"><line stroke="currentColor" y2="6"></line><text fill="currentColor" dy="0.32em" transform="translate(0, 11.82842712474619) rotate(-45)" text-anchor="end">okt. 2022</text></g><g class="tick" opacity="1" transform="translate(597.5675453047777,0)"><line stroke="currentColor" y2="6"></line><text fill="currentColor" dy="0.32em" transform="translate(0, 11.82842712474619) rotate(-45)" text-anchor="end">nov. 2022 *</text></g><text fill="currentColor" transform="translate(640,80)" dy="-0.32em" text-anchor="end">Maand →</text></g><g fill="none" stroke="#ec025f" stroke-width="3" stroke-miterlimit="1" transform="translate(0.5,0.5)"><path d="M40,319.98341L46.688632619439865,319.97683L53.37726523887974,319.86462L60.06589785831961,319.7389L66.75453047775947,319.61794L73.44316309719935,319.55214L80.1317957166392,319.48354L86.82042833607908,319.43005999999997L93.50906095551895,319.04954000000004L100.19769357495882,318.80888000000004L106.88632619439869,318.11672L113.57495881383855,317.62336L120.26359143327842,316.23253L126.9522240527183,301.63563999999997L133.64085667215815,292.18396L140.32948929159804,285.57113L147.0181219110379,281.20459999999997L153.70675453047778,277.92222999999996L160.39538714991764,275.07071L167.0840197693575,272.43801L173.77265238879738,269.57879L180.46128500823724,267.30484L187.1499176276771,265.29773L193.83855024711698,263.17330000000004L200.52718286655684,260.90866L207.2158154859967,251.52159L213.9044481054366,234.93404L220.59308072487644,222.15554000000003L227.2817133443163,215.19194L233.97034596375616,208.36512L240.65897858319607,202.68105L247.3476112026359,195.53629L254.0362438220758,174.21037L260.7248764415156,159.47831L267.4135090609555,150.64774L274.10214168039533,144.64937000000003L280.7907742998353,141.01420000000002L287.4794069192751,137.88968L294.168039538715,134.93148L300.8566721581549,131.32045999999997L307.54530477759477,129.48142L314.2339373970346,127.57287L320.9225700164745,125.5407L327.61120263591437,123.31308999999999L334.2998352553542,119.34472L340.9884678747941,114.39523L340.9884678747941,114.39523L347.67710049423397,109.85622000000002L354.36573311367374,107.55062999999998L361.0543657331137,106.11794000000002L367.7429983525535,105.28305000000002L379.2092257001647,103.20706L390.67545304777593,103.09709000000001L403.0971993410214,102.32268L405.96375617792415,102.19206L412.6523887973641,101.67335999999999L419.341021416804,101.20940000000002L426.02965403624376,100.76693L432.7182866556837,100.39558L439.4069192751236,100.04480999999998L446.0955518945634,99.6638L452.7841845140033,99.26948999999999L459.4728171334432,98.94574L466.161449752883,98.61806999999999L472.8500823723229,98.28851L479.53871499176273,97.92500000000001L486.2273476112026,97.56604L492.9159802306425,97.21681L499.60461285008233,96.86793L506.2932454695223,96.50441999999998L512.9818780889622,96.16596999999999L519.6705107084019,95.90458999999998L526.3591433278419,95.62710999999999L533.0477759472817,95.33422999999999L539.7364085667216,95.04422L546.4250411861614,94.78375L553.1136738056014,94.52342000000002L559.8023064250411,94.27282000000001L566.490939044481,94.00996999999998L573.179571663921,93.75482000000001L579.8682042833608,93.49351000000001L586.5568369028006,93.23675L593.2454695222406,92.96459L599.9341021416805,92.71616L606.6227347611202,91.79818L613.3113673805601,91.57131000000001L620,91.27577000000001"></path></g><g stroke="currentColor" transform="translate(0,0.5)"><line x1="40" x2="620" y1="320" y2="320"></line></g>

</svg>
