<svg class="plot" fill="currentColor" text-anchor="middle" width="640" height="460" viewBox="0 0 640 400" style="font-family: 'RO Sans', sans-serif; font-size: 14px;" xmlns="http://www.w3.org/2000/svg">

<g transform="translate(40,0)" fill="none" text-anchor="end"><g class="tick" opacity="1" transform="translate(0,320.02052764919773)"><line stroke="currentColor" x2="0"></line><line stroke="currentColor" x2="580" stroke-opacity="0.1"></line><text fill="currentColor" x="-9" dy="0.32em">0m</text></g><g class="tick" opacity="1" transform="translate(0,276.71325086073216)"><line stroke="currentColor" x2="0"></line><line stroke="currentColor" x2="580" stroke-opacity="0.1"></line><text fill="currentColor" x="-9" dy="0.32em">0.5m</text></g><g class="tick" opacity="1" transform="translate(0,233.40597407226653)"><line stroke="currentColor" x2="0"></line><line stroke="currentColor" x2="580" stroke-opacity="0.1"></line><text fill="currentColor" x="-9" dy="0.32em">1m</text></g><g class="tick" opacity="1" transform="translate(0,190.09869728380093)"><line stroke="currentColor" x2="0"></line><line stroke="currentColor" x2="580" stroke-opacity="0.1"></line><text fill="currentColor" x="-9" dy="0.32em">1.5m</text></g><g class="tick" opacity="1" transform="translate(0,146.79142049533533)"><line stroke="currentColor" x2="0"></line><line stroke="currentColor" x2="580" stroke-opacity="0.1"></line><text fill="currentColor" x="-9" dy="0.32em">2m</text></g><g class="tick" opacity="1" transform="translate(0,103.48414370686967)"><line stroke="currentColor" x2="0"></line><line stroke="currentColor" x2="580" stroke-opacity="0.1"></line><text fill="currentColor" x="-9" dy="0.32em">2.5m</text></g><g class="tick" opacity="1" transform="translate(0,60.17686691840407)"><line stroke="currentColor" x2="0"></line><line stroke="currentColor" x2="580" stroke-opacity="0.1"></line><text fill="currentColor" x="-9" dy="0.32em">3m</text></g><text fill="currentColor" transform="translate(-40,40)" dy="-1em" text-anchor="start">↑ Aantal downloads CoronaCheck Scanner (miljoen)</text></g><g transform="translate(0,320)" fill="none" text-anchor="middle"><g class="tick" opacity="1" transform="translate(47.14956579873997,0)"><line stroke="currentColor" y2="6"></line><text fill="currentColor" dy="0.32em" transform="translate(0, 11.82842712474619) rotate(-45)" text-anchor="end">apr. 2021</text></g><g class="tick" opacity="1" transform="translate(100.77130928928969,0)"><line stroke="currentColor" y2="6"></line><text fill="currentColor" dy="0.32em" transform="translate(0, 11.82842712474619) rotate(-45)" text-anchor="end">mei 2021</text></g><g class="tick" opacity="1" transform="translate(156.1804442295244,0)"><line stroke="currentColor" y2="6"></line><text fill="currentColor" dy="0.32em" transform="translate(0, 11.82842712474619) rotate(-45)" text-anchor="end">jun. 2021</text></g><g class="tick" opacity="1" transform="translate(209.80218772007413,0)"><line stroke="currentColor" y2="6"></line><text fill="currentColor" dy="0.32em" transform="translate(0, 11.82842712474619) rotate(-45)" text-anchor="end">jul. 2021</text></g><g class="tick" opacity="1" transform="translate(265.21132266030884,0)"><line stroke="currentColor" y2="6"></line><text fill="currentColor" dy="0.32em" transform="translate(0, 11.82842712474619) rotate(-45)" text-anchor="end">aug. 2021</text></g><g class="tick" opacity="1" transform="translate(320.6204576005436,0)"><line stroke="currentColor" y2="6"></line><text fill="currentColor" dy="0.32em" transform="translate(0, 11.82842712474619) rotate(-45)" text-anchor="end">sep. 2021</text></g><g class="tick" opacity="1" transform="translate(374.2422010910933,0)"><line stroke="currentColor" y2="6"></line><text fill="currentColor" dy="0.32em" transform="translate(0, 11.82842712474619) rotate(-45)" text-anchor="end">okt. 2021</text></g><g class="tick" opacity="1" transform="translate(429.65133603132807,0)"><line stroke="currentColor" y2="6"></line><text fill="currentColor" dy="0.32em" transform="translate(0, 11.82842712474619) rotate(-45)" text-anchor="end">nov. 2021</text></g><g class="tick" opacity="1" transform="translate(483.2730795218777,0)"><line stroke="currentColor" y2="6"></line><text fill="currentColor" dy="0.32em" transform="translate(0, 11.82842712474619) rotate(-45)" text-anchor="end">dec. 2021</text></g><g class="tick" opacity="1" transform="translate(538.6822144621125,0)"><line stroke="currentColor" y2="6"></line><text fill="currentColor" dy="0.32em" transform="translate(0, 11.82842712474619) rotate(-45)" text-anchor="end">jan. 2022</text></g><g class="tick" opacity="1" transform="translate(594.0913494023472,0)"><line stroke="currentColor" y2="6"></line><text fill="currentColor" dy="0.32em" transform="translate(0, 11.82842712474619) rotate(-45)" text-anchor="end">feb. 2022</text></g><text fill="currentColor" transform="translate(640,-10)" dy="-0.32em" text-anchor="end">Maand →</text></g><g fill="none" stroke="#ec025f" stroke-width="3" stroke-miterlimit="1"><path d="M40,320C46.01130705166959,319.99728607732123,52.02261410333917,319.9945721546425,52.51174014779494,319.99185823196376C60.8529002463249,319.94557718883584,61.064263650906284,319.89929614570786,65.02348029558988,319.85301510257995C69.45938366043794,319.80116185650525,73.28099691891285,319.7493086104305,77.53522044338482,319.6974553643558C81.62837091681916,319.6475653814955,83.61198266949111,319.59767539863515,90.04696059117975,319.54778541577485C93.54746941431901,319.5206461889874,98.47146136246526,319.4935069622,102.5587007389747,319.4663677354126C106.81986519534088,319.43807364791076,110.23728369580706,319.40977956040894,115.07044088676963,319.3814854729071C118.83833077849644,319.35942763326284,126.40987670872265,319.3373697936186,127.58218103456457,319.31531195397434C135.92334113309454,319.15836638289295,134.4386158757065,319.00142081181156,140.0939211823595,318.84447524073016C143.6706208961701,318.745214962331,149.70548855317756,318.64595468393185,152.60566133015442,318.54669440553266C160.9468214286844,318.2612128369431,159.96564632759413,317.9757312683535,165.1174014779494,317.69024969976397C168.7894858529196,317.48676324189387,174.6703366343283,317.2832767840238,177.6291416257443,317.0797903261537C185.97030172427426,316.50614213781375,189.34611414154108,315.9324939494737,190.14088177353926,315.35884576113375C198.4820418720692,309.33835475655485,197.10400247119793,303.3178637519759,202.65262192133417,297.297372747397C206.24542665470298,293.39902492000647,209.94038259896962,289.50067709261594,215.1643620691291,285.6023292652254C218.81929835131965,282.8748658446057,222.21329727419075,280.147402423986,227.67610221692405,277.4199390033663C231.28325704573308,275.6189625908412,235.23086907479234,273.81798617831606,240.187842364719,272.01700976579093C243.9140552655021,270.6631954218656,248.19179460418928,269.3093810779404,252.69958251251393,267.95556673401506C256.615669783707,266.7794565825118,260.8605057333325,265.60334643100845,265.21132266030884,264.42723627950517C269.2282665090809,263.34137849282905,273.71087452899656,262.2555207061529,277.7230628081038,261.16966291947676C282.08046356450933,259.99037690100903,285.4663157671214,258.81109088254124,290.2348029558988,257.6318048640735C294.02720138726147,256.6939136064246,298.28144914195985,255.7560223487757,302.7465431036936,254.81813109112682C306.68767406151375,253.99029805955638,311.19959166391754,253.16246502798592,315.2582832514886,252.33463199641548C319.5542143012983,251.45841030091339,323.7244249830886,250.5821886054113,327.77002339928356,249.7059669099092C332.0826267786614,248.77191556413558,338.2694503539805,247.83786421836194,340.2817635470785,246.90381287258833C348.62292364560847,243.03211345618163,349.2771929094777,239.16041403977496,352.79350369487344,235.28871462336826C359.00704859954453,228.44717539391578,360.43244900929915,221.60563616446328,365.30524384266835,214.7640969350108C369.05908384786557,209.49360134985452,371.3922092371796,204.22310576469826,377.8169839904633,198.95261017954198C381.318143083625,196.08047158293093,386.1159494833729,193.2083329863199,390.3287241382582,190.33619438970885C394.4587508872766,187.52047073899425,398.21235534891383,184.70474708827967,402.84046428605313,181.88902343756507C406.6938682378675,179.54462731589828,411.5594046261587,177.20023119423146,415.3522044338481,174.85583507256467C420.1196763956619,171.9089769877346,425.0694303461225,168.96211890290454,427.86394458164307,166.01526081807447C436.205104680173,157.21937967322995,435.10107922569426,148.4234985283854,440.375684729438,139.6276173835409C444.01941052215795,133.5513754779763,446.97419906498436,127.4751335724117,452.88742487723295,121.39889166684712C456.431881963402,117.75672081741929,460.05594212979344,114.11454996799146,465.39916502502786,110.47237911856364C469.0286734166817,107.99834988171004,472.05214197909726,105.52432064485646,477.91090517282277,103.05029140800286C481.4614697760292,101.55096461406832,485.8855142493884,100.05163782013376,490.42264532061773,98.55231102619922C494.32242353585315,97.26360195504591,498.64335761457636,95.97489288389261,502.93438546841264,94.6861838127393C506.996999437028,93.46607346801895,511.61507212043654,92.2459631232986,515.4461256162076,91.02585277857824C520.1226217267815,89.53648665830502,521.1247667367211,88.04712053803182,527.9578657640026,86.5577544177586C531.4378637798351,85.79924190056757,536.3735641330694,85.04072938337654,540.4696059117975,84.28221686618551C544.7204653475857,83.49503493176049,548.933638067325,82.70785299733548,552.9813460595924,81.92067106291046C557.291230920165,81.0825020279465,561.4970657115225,80.24433299298255,565.4930862073874,79.4061639580186C569.8734162077287,78.48738564519236,574.4919834282009,77.56860733236614,578.0048263551822,76.64982901953991C584.2627711867034,75.01307380059663,586.7138693921536,73.37631858165336,590.5165665029772,71.73956336271009C595.2594234752479,69.6981449494554,598.6605311623207,67.6567265362007,603.0283066507722,65.615308122946C607.0331046579256,63.74353874863067,611.2865757282464,61.871769374315335,615.5400467985671,60"></path></g>

</svg>
