<svg class="plot" fill="currentColor" text-anchor="middle" width="640" height="460" viewBox="0 0 640 400" style="font-family: 'RO Sans', sans-serif; font-size: 14px;" xmlns="http://www.w3.org/2000/svg">

<g transform="translate(40,0)" fill="none" text-anchor="end"><g class="tick" opacity="1" transform="translate(0,370.11405546437294)"><line stroke="currentColor" x2="0"></line><line stroke="currentColor" x2="580" stroke-opacity="0.1"></line><text fill="currentColor" x="-9" dy="0.32em">0m</text></g><g class="tick" opacity="1" transform="translate(0,324.0030935185641)"><line stroke="currentColor" x2="0"></line><line stroke="currentColor" x2="580" stroke-opacity="0.1"></line><text fill="currentColor" x="-9" dy="0.32em">2m</text></g><g class="tick" opacity="1" transform="translate(0,277.8921315727553)"><line stroke="currentColor" x2="0"></line><line stroke="currentColor" x2="580" stroke-opacity="0.1"></line><text fill="currentColor" x="-9" dy="0.32em">4m</text></g><g class="tick" opacity="1" transform="translate(0,231.7811696269465)"><line stroke="currentColor" x2="0"></line><line stroke="currentColor" x2="580" stroke-opacity="0.1"></line><text fill="currentColor" x="-9" dy="0.32em">6m</text></g><g class="tick" opacity="1" transform="translate(0,185.67020768113767)"><line stroke="currentColor" x2="0"></line><line stroke="currentColor" x2="580" stroke-opacity="0.1"></line><text fill="currentColor" x="-9" dy="0.32em">8m</text></g><g class="tick" opacity="1" transform="translate(0,139.5592457353289)"><line stroke="currentColor" x2="0"></line><line stroke="currentColor" x2="580" stroke-opacity="0.1"></line><text fill="currentColor" x="-9" dy="0.32em">10m</text></g><g class="tick" opacity="1" transform="translate(0,93.44828378952006)"><line stroke="currentColor" x2="0"></line><line stroke="currentColor" x2="580" stroke-opacity="0.1"></line><text fill="currentColor" x="-9" dy="0.32em">12m</text></g><g class="tick" opacity="1" transform="translate(0,47.337321843711266)"><line stroke="currentColor" x2="0"></line><line stroke="currentColor" x2="580" stroke-opacity="0.1"></line><text fill="currentColor" x="-9" dy="0.32em">14m</text></g><g class="tick" opacity="1" transform="translate(0,1.2263598979024337)"><line stroke="currentColor" x2="0"></line><line stroke="currentColor" x2="580" stroke-opacity="0.1"></line><text fill="currentColor" x="-9" dy="0.32em">16m</text></g><text fill="currentColor" transform="translate(10,20)" dy="-1em" text-anchor="start">↑ Aantal downloads CoronaCheck (miljoen)</text></g><g transform="translate(0,370)" fill="none" text-anchor="middle"><g class="tick" opacity="1" transform="translate(103.52419672735724,0)"><line stroke="currentColor" y2="6"></line><text fill="currentColor" y="9" dy="0.71em">mei 2021</text></g><g class="tick" opacity="1" transform="translate(217.49407909114524,0)"><line stroke="currentColor" y2="6"></line><text fill="currentColor" y="9" dy="0.71em">jul. 2021</text></g><g class="tick" opacity="1" transform="translate(333.3323201822085,0)"><line stroke="currentColor" y2="6"></line><text fill="currentColor" y="9" dy="0.71em">sep. 2021</text></g><g class="tick" opacity="1" transform="translate(447.30220254599647,0)"><line stroke="currentColor" y2="6"></line><text fill="currentColor" y="9" dy="0.71em">nov. 2021</text></g><g class="tick" opacity="1" transform="translate(561.2720849097846,0)"><line stroke="currentColor" y2="6"></line><text fill="currentColor" y="9" dy="0.71em">jan. 2022</text></g><text fill="currentColor" transform="translate(640,-10)" dy="-0.32em" text-anchor="end">Weeknummer →</text></g><g fill="none" stroke="#ec025f" stroke-width="3" stroke-miterlimit="1"><path d="M40,370C46.44810168476829,369.9957654766613,52.89620336953657,369.99153095332264,53.0785110909265,369.9872964299839C61.79751848487749,369.7847770851179,62.472990389134885,369.5822577402519,66.157022181853,369.3797383953859C72.55165250329735,369.02821147699206,74.74955498722194,368.6766845585982,79.23553327277948,368.32515764020434C83.4817219405283,367.9924209388034,83.59503696975497,367.6596842374025,92.31404436370597,367.3269475360015C95.30355066366945,367.21286133098727,101.01761921832811,367.09877512597296,105.39255545463246,366.9846889209587C109.73684208712598,366.8714019726182,113.25439756378617,366.75811502427763,118.47106654555895,366.6448280759371C122.35534568156918,366.56047575621756,129.95609435966503,366.476123436498,131.54957763648545,366.3917711167785C140.26858503043644,365.93022344318194,137.2264166628828,365.4686757695854,144.62808872741195,365.00712809598883C148.25651883966884,364.78086929088107,155.53696252839296,364.5546104857733,157.70659981833842,364.32835168066555C166.42560721228944,363.4190973072165,166.82622976422576,362.5098429337674,170.78511090926494,361.60058856031833C175.78315945636768,360.45266384783775,180.82533535940377,359.3047391353571,183.8636220001914,358.15681442287655C192.5826293941424,354.862601190506,195.16154731201672,351.5683879581355,196.9421330911179,348.2741747257649C205.6611404850689,332.14337672243107,204.67950877053391,316.0125787190972,210.0206441820444,299.88178071576334C213.87022148289964,288.2556471216791,217.07850632794884,276.6295135275949,223.0991552729709,265.00337993351064C226.82313098615765,257.81222171485524,231.56356013112375,250.6210634961999,236.17766636389737,243.42990527754452C240.33088959850255,236.95704056859998,244.27051291735037,230.48417585965547,249.2561774548239,224.01131115071092C253.21990669786288,218.8652202053141,257.8032212964185,213.7191292599173,262.3346885457504,208.5730383145205C266.54569112201375,203.79087813628098,270.96234056088605,199.0087179580415,275.41319963667684,194.226557779802C279.68841594078395,189.63311439848601,283.83623213806874,185.03967101717006,288.49171072760333,180.4462276358541C292.6186311919724,176.37429923414524,296.2320879055903,172.30237083243637,301.5702218185299,168.23044243072752C305.420579969484,165.29338933926857,309.70242705163395,162.35633624780962,314.6487329094563,159.41928315635067C318.628380582197,157.05621931919316,323.3054723310943,154.69315548203565,327.7272440003828,152.33009164487814C332.0278456312777,150.0317829686132,336.47552331529005,147.73347429234826,340.8057550913093,145.4351656160833C345.1953386320361,143.10535546764905,350.35971294776994,140.77554531921476,353.8842661822358,138.4457351707805C362.6032735761868,132.68227224105158,362.70021112591274,126.91880931132268,366.96277727316226,121.15534638159376C371.42868787873215,115.11693915610265,374.535122415767,109.07853193061155,380.0412883640888,103.04012470512043C383.8516651101898,98.86142637102604,386.8723091077393,94.68272803693166,393.11979945501525,90.50402970283727C396.81781149264026,88.03057622278149,401.40044035491434,85.5571227427257,406.1983105459418,83.08366926266991C410.24583896633476,80.99704064237753,414.87801889709567,78.91041202208515,419.27682163686825,76.82378340179277C423.5983941319371,74.77378994076632,427.4760503270337,72.72379647973986,432.35533272779475,70.67380301871341C436.3639986824603,68.98959244848243,441.60213490594714,67.30538187825144,445.4338438187213,65.62117130802045C450.8465385130789,63.24204548578514,453.39581086183836,60.86291966354984,458.5123549096478,58.48379384131453C462.4283934451833,56.66288732439519,466.3049032919522,54.84198080747585,471.59086600057424,53.02107429055651C475.45522425689734,51.68988155982231,480.33287075683523,50.35868882908811,484.6693770915008,49.02749609835391C489.0523738904622,47.68203202489748,492.84730353581267,46.33656795144106,497.74788818242723,44.991103877984635C501.74705726310685,43.893125022451684,506.23441887522347,42.795146166918734,510.82639927335373,41.69716731138578C514.9943759939301,40.70057109085101,519.4415545174305,39.70397487031624,523.9049103642802,38.70737864978146C528.1696011334142,37.75514117463856,531.9352760652831,36.802903699495666,536.9834214552067,35.850666224352764C540.923432400789,35.10745742487054,545.7519247678836,34.36424862538832,550.0619325461332,33.621039825906095C554.4732872557088,32.86035497184642,558.9273145603077,32.09967011778674,563.1404436370598,31.338985263727057C567.6690647043646,30.521338001343647,571.6695034011949,29.703690738960233,576.2189547279862,28.886043476576823C580.4167411171262,28.131598972700484,585.2904079027032,27.37715446882414,589.2974658189127,26.622709964947802C594.1803137976692,25.70337266115323,598.5363570972587,24.784035357358658,602.3759769098392,23.864698053564087C607.7562913148852,22.576465369042726,611.6053896578254,21.28823268452136,615.4544880007657,20"></path></g>

</svg>
