<svg class="plot" fill="currentColor" text-anchor="middle" width="640" height="460" viewBox="0 0 640 400" style="font-family: 'RO Sans', sans-serif; font-size: 14px;" xmlns="http://www.w3.org/2000/svg">

<g transform="translate(40,0)" fill="none" text-anchor="end"><g class="tick" opacity="1" transform="translate(0,370.11702683111054)"><line stroke="currentColor" x2="0"></line><line stroke="currentColor" x2="580" stroke-opacity="0.1"></line><text fill="currentColor" x="-9" dy="0.32em">0m</text></g><g class="tick" opacity="1" transform="translate(0,322.8047846194659)"><line stroke="currentColor" x2="0"></line><line stroke="currentColor" x2="580" stroke-opacity="0.1"></line><text fill="currentColor" x="-9" dy="0.32em">2m</text></g><g class="tick" opacity="1" transform="translate(0,275.4925424078214)"><line stroke="currentColor" x2="0"></line><line stroke="currentColor" x2="580" stroke-opacity="0.1"></line><text fill="currentColor" x="-9" dy="0.32em">4m</text></g><g class="tick" opacity="1" transform="translate(0,228.18030019617683)"><line stroke="currentColor" x2="0"></line><line stroke="currentColor" x2="580" stroke-opacity="0.1"></line><text fill="currentColor" x="-9" dy="0.32em">6m</text></g><g class="tick" opacity="1" transform="translate(0,180.86805798453224)"><line stroke="currentColor" x2="0"></line><line stroke="currentColor" x2="580" stroke-opacity="0.1"></line><text fill="currentColor" x="-9" dy="0.32em">8m</text></g><g class="tick" opacity="1" transform="translate(0,133.5558157728877)"><line stroke="currentColor" x2="0"></line><line stroke="currentColor" x2="580" stroke-opacity="0.1"></line><text fill="currentColor" x="-9" dy="0.32em">10m</text></g><g class="tick" opacity="1" transform="translate(0,86.24357356124315)"><line stroke="currentColor" x2="0"></line><line stroke="currentColor" x2="580" stroke-opacity="0.1"></line><text fill="currentColor" x="-9" dy="0.32em">12m</text></g><g class="tick" opacity="1" transform="translate(0,38.931331349598594)"><line stroke="currentColor" x2="0"></line><line stroke="currentColor" x2="580" stroke-opacity="0.1"></line><text fill="currentColor" x="-9" dy="0.32em">14m</text></g><g class="tick" opacity="1" transform="translate(0,-8.380910862045926)"><line stroke="currentColor" x2="0"></line><line stroke="currentColor" x2="580" stroke-opacity="0.1"></line><text fill="currentColor" x="-9" dy="0.32em">16m</text></g><text fill="currentColor" transform="translate(10,20)" dy="-1em" text-anchor="start">↑ Number of downloads CoronaCheck (million)</text></g><g transform="translate(0,370)" fill="none" text-anchor="middle"><g class="tick" opacity="1" transform="translate(46.90476190476187,0)"><line stroke="currentColor" y2="0"></line><text fill="currentColor" y="9" dy="0.71em">12</text></g><g class="tick" opacity="1" transform="translate(74.52380952380949,0)"><line stroke="currentColor" y2="0"></line><text fill="currentColor" y="9" dy="0.71em">14</text></g><g class="tick" opacity="1" transform="translate(102.14285714285711,0)"><line stroke="currentColor" y2="0"></line><text fill="currentColor" y="9" dy="0.71em">16</text></g><g class="tick" opacity="1" transform="translate(129.76190476190473,0)"><line stroke="currentColor" y2="0"></line><text fill="currentColor" y="9" dy="0.71em">18</text></g><g class="tick" opacity="1" transform="translate(157.38095238095235,0)"><line stroke="currentColor" y2="0"></line><text fill="currentColor" y="9" dy="0.71em">20</text></g><g class="tick" opacity="1" transform="translate(184.99999999999997,0)"><line stroke="currentColor" y2="0"></line><text fill="currentColor" y="9" dy="0.71em">22</text></g><g class="tick" opacity="1" transform="translate(212.6190476190476,0)"><line stroke="currentColor" y2="0"></line><text fill="currentColor" y="9" dy="0.71em">24</text></g><g class="tick" opacity="1" transform="translate(240.2380952380952,0)"><line stroke="currentColor" y2="0"></line><text fill="currentColor" y="9" dy="0.71em">26</text></g><g class="tick" opacity="1" transform="translate(267.85714285714283,0)"><line stroke="currentColor" y2="0"></line><text fill="currentColor" y="9" dy="0.71em">28</text></g><g class="tick" opacity="1" transform="translate(295.4761904761905,0)"><line stroke="currentColor" y2="0"></line><text fill="currentColor" y="9" dy="0.71em">30</text></g><g class="tick" opacity="1" transform="translate(323.0952380952381,0)"><line stroke="currentColor" y2="0"></line><text fill="currentColor" y="9" dy="0.71em">32</text></g><g class="tick" opacity="1" transform="translate(350.7142857142857,0)"><line stroke="currentColor" y2="0"></line><text fill="currentColor" y="9" dy="0.71em">34</text></g><g class="tick" opacity="1" transform="translate(378.3333333333333,0)"><line stroke="currentColor" y2="0"></line><text fill="currentColor" y="9" dy="0.71em">36</text></g><g class="tick" opacity="1" transform="translate(405.9523809523809,0)"><line stroke="currentColor" y2="0"></line><text fill="currentColor" y="9" dy="0.71em">38</text></g><g class="tick" opacity="1" transform="translate(433.57142857142856,0)"><line stroke="currentColor" y2="0"></line><text fill="currentColor" y="9" dy="0.71em">40</text></g><g class="tick" opacity="1" transform="translate(461.1904761904762,0)"><line stroke="currentColor" y2="0"></line><text fill="currentColor" y="9" dy="0.71em">42</text></g><g class="tick" opacity="1" transform="translate(488.8095238095238,0)"><line stroke="currentColor" y2="0"></line><text fill="currentColor" y="9" dy="0.71em">44</text></g><g class="tick" opacity="1" transform="translate(516.4285714285713,0)"><line stroke="currentColor" y2="0"></line><text fill="currentColor" y="9" dy="0.71em">46</text></g><g class="tick" opacity="1" transform="translate(544.047619047619,0)"><line stroke="currentColor" y2="0"></line><text fill="currentColor" y="9" dy="0.71em">48</text></g><g class="tick" opacity="1" transform="translate(571.6666666666667,0)"><line stroke="currentColor" y2="0"></line><text fill="currentColor" y="9" dy="0.71em">50</text></g><g class="tick" opacity="1" transform="translate(599.2857142857142,0)"><line stroke="currentColor" y2="0"></line><text fill="currentColor" y="9" dy="0.71em">52</text></g><g class="tick" opacity="1" transform="translate(NaN,0)"><line stroke="currentColor" y2="0"></line><text fill="currentColor" y="9" dy="0.71em">02</text></g><text fill="currentColor" transform="translate(640,-10)" dy="-0.32em" text-anchor="end">Week number →</text></g><g fill="none" stroke="#ec025f" stroke-width="3" stroke-miterlimit="1"><path d="M46.90476190476187,370C53.71327497807465,369.99565515909023,60.521788051387425,369.99131031818047,60.71428571428568,369.9869654772707C69.92063492063488,369.77917010947715,70.63386177647924,369.5713747416836,74.52380952380949,369.36357937389005C81.27586249552397,369.00289449538957,83.59661494752329,368.64220961688915,88.3333333333333,368.28152473838867C92.81685925607313,367.94011959858943,92.93650793650791,367.5987144587902,102.14285714285711,367.25730931899096C105.29945946104493,367.14025094638566,111.33291122066873,367.0231925737803,115.95238095238092,366.906134201175C120.53948794565578,366.7898959074347,124.25365431891974,366.6736576136944,129.76190476190473,366.5574193199541C133.8632925145816,366.47086945820155,141.88887884551977,366.3843195964491,143.57142857142856,366.29776973469654C152.77777777777774,365.8241978462791,149.5655698886504,365.35062595786167,157.38095238095235,364.8770540694442C161.21219063720673,364.6449007822854,168.8995687924376,364.41274749512655,171.19047619047615,364.1805942079677C180.39682539682536,363.24765198917004,180.8198404197996,362.3147097703723,184.99999999999997,361.3817675515746C190.27741039729335,360.2039371670894,195.60141461311656,359.02610678260424,198.8095238095238,357.848276398119C208.01587301587298,354.4682425022769,210.73893744897964,351.0882086064348,212.6190476190476,347.7081747105927C221.82539682539678,331.15713803740937,220.78889760619597,314.606101364226,226.4285714285714,298.0550646910427C230.4933177152985,286.12604769862554,233.88092702704796,274.19703070620847,240.2380952380952,262.26801371379133C244.1702195387749,254.88951183341132,249.1756111074059,247.51100995303133,254.04761904761904,240.13250807265132C258.4329833100952,233.4910126453232,262.59280866360416,226.8495172179951,267.85714285714283,220.20802179066698C272.0424215158296,214.9278651646156,276.8819167485249,209.64770853856427,281.66666666666663,204.3675519125129C286.11303980001355,199.46080715811695,290.77655425975524,194.554062403721,295.4761904761905,189.64731764932503C299.99036651136555,184.93420613155394,304.370021514577,180.2210946137828,309.2857142857143,175.5079830960117C313.64330560604844,171.32997303765433,317.45873353774994,167.15196297929694,323.0952380952381,162.97395292093955C327.16080887704396,159.96038388252146,331.6819863121966,156.94681484410333,336.90476190476187,153.93324580568523C341.10684874080516,151.5086195583177,346.0453627212333,149.08399331095012,350.7142857142857,146.65936706358258C355.25526596840064,144.3011829750276,359.95154297175674,141.9429988864726,364.5238095238095,139.5848147979176C369.1587452590872,137.19430856255835,374.6117780682956,134.80380232719907,378.3333333333333,132.4132960918398C387.53968253968253,126.49968374019045,387.6420383347475,120.58607138854109,392.1428571428571,114.67245903689172C396.8583861820617,108.47673955568173,400.138452345837,102.28102007447174,405.9523809523809,96.08530059326175C409.9757356012938,91.79773903806327,413.1652160332976,87.51017748286479,419.76190476190476,83.22261592766631C423.66661416853725,80.68472417244409,428.5053853362804,78.14683241722189,433.57142857142856,75.60894066199967C437.84519029419215,73.46795130669092,442.73628214701176,71.32696195138216,447.38095238095235,69.18597259607341C451.9440756486032,67.08257281720182,456.0384702764814,64.97917303833022,461.1904761904762,62.87577325945862C465.42320326166305,61.1476857273046,470.95412084034325,59.419598195150584,475,57.69151066299656C480.7152328530172,55.25040398459197,483.40699470208426,52.809297306187375,488.8095238095238,50.36819062778278C492.94444612747856,48.499845953592335,497.0376303328235,46.631501279401895,502.6190476190476,44.76315660521145C506.6994010307021,43.39728371405608,511.8496796065304,42.0314108229007,516.4285714285713,40.665537931745334C521.0565522615208,39.285021901625456,525.0635964065759,37.904505871505584,530.2380952380952,36.523989841385706C534.4607946152645,35.39740650058943,539.1937376553793,34.27082315979317,544.047619047619,33.144239818996894C548.4450242700112,32.123604359259886,553.1488411104377,31.10296889952288,557.8571428571429,30.082333439785877C562.3639938639092,29.105367179610226,566.3461546886602,28.128400919434576,571.6666666666667,27.151434659258925C575.8304989283982,26.38686093974505,580.936978346977,25.622287220231172,585.4761904761904,24.857713500717296C590.1470927047168,24.07095822497985,594.8053929511275,23.284202949242403,599.2857142857142,22.497447673504958C604.0264379637898,21.664965115669972,608.560838029514,20.832482557834986,613.0952380952381,20"></path></g></svg>
