<svg class="plot" fill="currentColor" text-anchor="middle" width="640" height="460" viewBox="0 0 640 400" style="font-family: 'RO Sans', sans-serif; font-size: 14px;" xmlns="http://www.w3.org/2000/svg">

<style>
        line[stroke-opacity] {
            stroke-opacity: 1;
            stroke: #949494;
        }
</style>

<!-- replace the below code -->

<g transform="translate(40,0)" fill="none" text-anchor="end"><g class="tick" opacity="1" transform="translate(0,320)"><line stroke="currentColor" x2="-6"></line><line stroke="currentColor" x2="580" stroke-opacity="0.1"></line><text fill="currentColor" x="-9" dy="0.32em">0M</text></g><g class="tick" opacity="1" transform="translate(0,285)"><line stroke="currentColor" x2="-6"></line><line stroke="currentColor" x2="580" stroke-opacity="0.1"></line><text fill="currentColor" x="-9" dy="0.32em">0.5M</text></g><g class="tick" opacity="1" transform="translate(0,250)"><line stroke="currentColor" x2="-6"></line><line stroke="currentColor" x2="580" stroke-opacity="0.1"></line><text fill="currentColor" x="-9" dy="0.32em">1M</text></g><g class="tick" opacity="1" transform="translate(0,215)"><line stroke="currentColor" x2="-6"></line><line stroke="currentColor" x2="580" stroke-opacity="0.1"></line><text fill="currentColor" x="-9" dy="0.32em">1.5M</text></g><g class="tick" opacity="1" transform="translate(0,180)"><line stroke="currentColor" x2="-6"></line><line stroke="currentColor" x2="580" stroke-opacity="0.1"></line><text fill="currentColor" x="-9" dy="0.32em">2M</text></g><g class="tick" opacity="1" transform="translate(0,145)"><line stroke="currentColor" x2="-6"></line><line stroke="currentColor" x2="580" stroke-opacity="0.1"></line><text fill="currentColor" x="-9" dy="0.32em">2.5M</text></g><g class="tick" opacity="1" transform="translate(0,110)"><line stroke="currentColor" x2="-6"></line><line stroke="currentColor" x2="580" stroke-opacity="0.1"></line><text fill="currentColor" x="-9" dy="0.32em">3M</text></g><g class="tick" opacity="1" transform="translate(0,75)"><line stroke="currentColor" x2="-6"></line><line stroke="currentColor" x2="580" stroke-opacity="0.1"></line><text fill="currentColor" x="-9" dy="0.32em">3.5M</text></g><g class="tick" opacity="1" transform="translate(0,40)"><line stroke="currentColor" x2="-6"></line><line stroke="currentColor" x2="580" stroke-opacity="0.1"></line><text fill="currentColor" x="-9" dy="0.32em">4M</text></g><text fill="currentColor" transform="translate(20,40)" dy="-1em" text-anchor="start">↑ Aantal downloads CoronaCheck Scanner (miljoen)</text></g><g transform="translate(0,320)" fill="none" text-anchor="middle"><g class="tick" opacity="1" transform="translate(43.19559228650138,0)"><line stroke="currentColor" y2="6"></line><text fill="currentColor" dy="0.32em" transform="translate(0, 11.82842712474619) rotate(-45)" text-anchor="end">apr 2021</text></g><g class="tick" opacity="1" transform="translate(67.1625344352617,0)"><line stroke="currentColor" y2="6"></line><text fill="currentColor" dy="0.32em" transform="translate(0, 11.82842712474619) rotate(-45)" text-anchor="end">mei 2021</text></g><g class="tick" opacity="1" transform="translate(91.92837465564739,0)"><line stroke="currentColor" y2="6"></line><text fill="currentColor" dy="0.32em" transform="translate(0, 11.82842712474619) rotate(-45)" text-anchor="end">jun 2021</text></g><g class="tick" opacity="1" transform="translate(115.8953168044077,0)"><line stroke="currentColor" y2="6"></line><text fill="currentColor" dy="0.32em" transform="translate(0, 11.82842712474619) rotate(-45)" text-anchor="end">jul 2021</text></g><g class="tick" opacity="1" transform="translate(140.6611570247934,0)"><line stroke="currentColor" y2="6"></line><text fill="currentColor" dy="0.32em" transform="translate(0, 11.82842712474619) rotate(-45)" text-anchor="end">aug 2021</text></g><g class="tick" opacity="1" transform="translate(165.42699724517905,0)"><line stroke="currentColor" y2="6"></line><text fill="currentColor" dy="0.32em" transform="translate(0, 11.82842712474619) rotate(-45)" text-anchor="end">sep 2021</text></g><g class="tick" opacity="1" transform="translate(189.39393939393938,0)"><line stroke="currentColor" y2="6"></line><text fill="currentColor" dy="0.32em" transform="translate(0, 11.82842712474619) rotate(-45)" text-anchor="end">okt 2021</text></g><g class="tick" opacity="1" transform="translate(214.15977961432506,0)"><line stroke="currentColor" y2="6"></line><text fill="currentColor" dy="0.32em" transform="translate(0, 11.82842712474619) rotate(-45)" text-anchor="end">nov 2021</text></g><g class="tick" opacity="1" transform="translate(238.1267217630854,0)"><line stroke="currentColor" y2="6"></line><text fill="currentColor" dy="0.32em" transform="translate(0, 11.82842712474619) rotate(-45)" text-anchor="end">dec 2021</text></g><g class="tick" opacity="1" transform="translate(262.89256198347107,0)"><line stroke="currentColor" y2="6"></line><text fill="currentColor" dy="0.32em" transform="translate(0, 11.82842712474619) rotate(-45)" text-anchor="end">jan 2022</text></g><g class="tick" opacity="1" transform="translate(287.6584022038567,0)"><line stroke="currentColor" y2="6"></line><text fill="currentColor" dy="0.32em" transform="translate(0, 11.82842712474619) rotate(-45)" text-anchor="end">feb 2022</text></g><g class="tick" opacity="1" transform="translate(310.0275482093664,0)"><line stroke="currentColor" y2="6"></line><text fill="currentColor" dy="0.32em" transform="translate(0, 11.82842712474619) rotate(-45)" text-anchor="end">mrt 2022</text></g><g class="tick" opacity="1" transform="translate(334.79338842975204,0)"><line stroke="currentColor" y2="6"></line><text fill="currentColor" dy="0.32em" transform="translate(0, 11.82842712474619) rotate(-45)" text-anchor="end">apr 2022</text></g><g class="tick" opacity="1" transform="translate(358.76033057851237,0)"><line stroke="currentColor" y2="6"></line><text fill="currentColor" dy="0.32em" transform="translate(0, 11.82842712474619) rotate(-45)" text-anchor="end">mei 2022</text></g><g class="tick" opacity="1" transform="translate(383.5261707988981,0)"><line stroke="currentColor" y2="6"></line><text fill="currentColor" dy="0.32em" transform="translate(0, 11.82842712474619) rotate(-45)" text-anchor="end">jun 2022</text></g><g class="tick" opacity="1" transform="translate(407.4931129476584,0)"><line stroke="currentColor" y2="6"></line><text fill="currentColor" dy="0.32em" transform="translate(0, 11.82842712474619) rotate(-45)" text-anchor="end">jul 2022</text></g><g class="tick" opacity="1" transform="translate(432.25895316804406,0)"><line stroke="currentColor" y2="6"></line><text fill="currentColor" dy="0.32em" transform="translate(0, 11.82842712474619) rotate(-45)" text-anchor="end">aug 2022</text></g><g class="tick" opacity="1" transform="translate(457.02479338842977,0)"><line stroke="currentColor" y2="6"></line><text fill="currentColor" dy="0.32em" transform="translate(0, 11.82842712474619) rotate(-45)" text-anchor="end">sep 2022</text></g><g class="tick" opacity="1" transform="translate(480.9917355371901,0)"><line stroke="currentColor" y2="6"></line><text fill="currentColor" dy="0.32em" transform="translate(0, 11.82842712474619) rotate(-45)" text-anchor="end">okt 2022</text></g><g class="tick" opacity="1" transform="translate(505.75757575757575,0)"><line stroke="currentColor" y2="6"></line><text fill="currentColor" dy="0.32em" transform="translate(0, 11.82842712474619) rotate(-45)" text-anchor="end">nov 2022</text></g><g class="tick" opacity="1" transform="translate(529.7245179063361,0)"><line stroke="currentColor" y2="6"></line><text fill="currentColor" dy="0.32em" transform="translate(0, 11.82842712474619) rotate(-45)" text-anchor="end">dec 2022</text></g><g class="tick" opacity="1" transform="translate(554.4903581267217,0)"><line stroke="currentColor" y2="6"></line><text fill="currentColor" dy="0.32em" transform="translate(0, 11.82842712474619) rotate(-45)" text-anchor="end">jan 2023</text></g><g class="tick" opacity="1" transform="translate(579.2561983471074,0)"><line stroke="currentColor" y2="6"></line><text fill="currentColor" dy="0.32em" transform="translate(0, 11.82842712474619) rotate(-45)" text-anchor="end">feb 2023</text></g><g class="tick" opacity="1" transform="translate(601.625344352617,0)"><line stroke="currentColor" y2="6"></line><text fill="currentColor" dy="0.32em" transform="translate(0, 11.82842712474619) rotate(-45)" text-anchor="end">mrt 2023 *</text></g><text fill="currentColor" transform="translate(640,80)" dy="-0.32em" text-anchor="end">Maand →</text></g><g fill="none" stroke="#ec025f" stroke-width="3" stroke-miterlimit="1"><path d="M40,319.983L45.592,319.977L51.185,319.865L56.777,319.739L62.369,319.618L67.961,319.552L73.554,319.484L79.146,319.43L84.738,319.05L90.331,318.809L95.923,318.117L101.515,317.623L107.107,316.233L112.7,301.636L118.292,292.184L123.884,285.571L129.477,281.205L135.069,277.922L140.661,275.071L146.253,272.438L151.846,269.579L157.438,267.305L163.03,265.298L168.623,263.173L174.215,260.909L179.807,251.522L185.399,234.934L190.992,222.156L196.584,215.192L202.176,208.365L207.769,202.681L213.361,195.536L218.953,174.21L224.545,159.478L230.138,150.648L235.73,144.649L241.322,141.014L246.915,137.89L252.507,134.931L258.099,131.32L263.691,129.481L269.284,127.573L274.876,125.541L280.468,123.313L286.061,119.345L291.653,114.395L291.653,114.395L297.245,109.856L302.837,107.551L308.43,106.118L314.022,105.283L323.609,103.207L333.196,103.097L343.581,102.323L345.978,102.192L351.57,101.673L357.163,101.209L362.755,100.767L368.347,100.396L373.939,100.045L379.532,99.664L385.124,99.269L390.716,98.946L396.309,98.618L401.901,98.289L407.493,97.925L413.085,97.566L418.678,97.217L424.27,96.868L429.862,96.504L435.455,96.166L441.047,95.905L446.639,95.627L452.231,95.334L457.824,95.044L463.416,94.784L469.008,94.523L474.601,94.273L480.193,94.01L485.785,93.755L491.377,93.494L496.97,93.237L502.562,92.965L508.154,92.716L513.747,91.798L519.339,91.571L524.931,91.276L530.523,90.959L536.116,90.727L541.708,90.427L547.3,90.234L552.893,89.977L558.485,89.731L564.077,89.511L569.669,89.277L575.262,89.043L580.854,88.793L586.446,88.528L592.039,88.264L597.631,88.044L603.19,87.803L608.815,87.594L614.408,87.388L620,87.183"></path></g><g stroke="currentColor"><line x1="40" x2="620" y1="320" y2="320"></line></g>

</svg>
