<svg class="plot" fill="currentColor" text-anchor="middle" width="640" height="460" viewBox="0 0 640 400" style="font-family: 'RO Sans', sans-serif; font-size: 14px;" xmlns="http://www.w3.org/2000/svg">
<style>
        line[stroke-opacity] {
            stroke-opacity: 1;
            stroke: #949494;
        }

    @media (prefers-color-scheme: dark) {

        svg { 
            background-color: black;
            color: white;
        }

        line[stroke-opacity] {
            color: white;
        }
    }
</style>

<!-- replace the below code -->

<g transform="translate(40,0)" fill="none" text-anchor="end"><g class="tick" opacity="1" transform="translate(0,320.5)"><line stroke="currentColor" x2="-6"></line><line stroke="currentColor" x2="580" stroke-opacity="0.1"></line><text fill="currentColor" x="-9" dy="0.32em">0M</text></g><g class="tick" opacity="1" transform="translate(0,289.3888888888889)"><line stroke="currentColor" x2="-6"></line><line stroke="currentColor" x2="580" stroke-opacity="0.1"></line><text fill="currentColor" x="-9" dy="0.32em">2M</text></g><g class="tick" opacity="1" transform="translate(0,258.27777777777777)"><line stroke="currentColor" x2="-6"></line><line stroke="currentColor" x2="580" stroke-opacity="0.1"></line><text fill="currentColor" x="-9" dy="0.32em">4M</text></g><g class="tick" opacity="1" transform="translate(0,227.1666666666667)"><line stroke="currentColor" x2="-6"></line><line stroke="currentColor" x2="580" stroke-opacity="0.1"></line><text fill="currentColor" x="-9" dy="0.32em">6M</text></g><g class="tick" opacity="1" transform="translate(0,196.05555555555554)"><line stroke="currentColor" x2="-6"></line><line stroke="currentColor" x2="580" stroke-opacity="0.1"></line><text fill="currentColor" x="-9" dy="0.32em">8M</text></g><g class="tick" opacity="1" transform="translate(0,164.94444444444446)"><line stroke="currentColor" x2="-6"></line><line stroke="currentColor" x2="580" stroke-opacity="0.1"></line><text fill="currentColor" x="-9" dy="0.32em">10M</text></g><g class="tick" opacity="1" transform="translate(0,133.83333333333334)"><line stroke="currentColor" x2="-6"></line><line stroke="currentColor" x2="580" stroke-opacity="0.1"></line><text fill="currentColor" x="-9" dy="0.32em">12M</text></g><g class="tick" opacity="1" transform="translate(0,102.72222222222223)"><line stroke="currentColor" x2="-6"></line><line stroke="currentColor" x2="580" stroke-opacity="0.1"></line><text fill="currentColor" x="-9" dy="0.32em">14M</text></g><g class="tick" opacity="1" transform="translate(0,71.61111111111113)"><line stroke="currentColor" x2="-6"></line><line stroke="currentColor" x2="580" stroke-opacity="0.1"></line><text fill="currentColor" x="-9" dy="0.32em">16M</text></g><g class="tick" opacity="1" transform="translate(0,40.5)"><line stroke="currentColor" x2="-6"></line><line stroke="currentColor" x2="580" stroke-opacity="0.1"></line><text fill="currentColor" x="-9" dy="0.32em">18M</text></g><text fill="currentColor" transform="translate(20,40)" dy="-1em" text-anchor="start">↑ Number of downloads CoronaCheck (million)</text></g><g transform="translate(0,320)" fill="none" text-anchor="middle"><g class="tick" opacity="1" transform="translate(43.635135135135144,0)"><line stroke="currentColor" y2="6"></line><text fill="currentColor" dy="0.32em" transform="translate(0, 11.82842712474619) rotate(-45)" text-anchor="end">Apr 2021</text></g><g class="tick" opacity="1" transform="translate(67.14864864864865,0)"><line stroke="currentColor" y2="6"></line><text fill="currentColor" dy="0.32em" transform="translate(0, 11.82842712474619) rotate(-45)" text-anchor="end">May 2021</text></g><g class="tick" opacity="1" transform="translate(91.44594594594594,0)"><line stroke="currentColor" y2="6"></line><text fill="currentColor" dy="0.32em" transform="translate(0, 11.82842712474619) rotate(-45)" text-anchor="end">Jun 2021</text></g><g class="tick" opacity="1" transform="translate(114.95945945945945,0)"><line stroke="currentColor" y2="6"></line><text fill="currentColor" dy="0.32em" transform="translate(0, 11.82842712474619) rotate(-45)" text-anchor="end">Jul 2021</text></g><g class="tick" opacity="1" transform="translate(139.25675675675677,0)"><line stroke="currentColor" y2="6"></line><text fill="currentColor" dy="0.32em" transform="translate(0, 11.82842712474619) rotate(-45)" text-anchor="end">Aug 2021</text></g><g class="tick" opacity="1" transform="translate(163.55405405405406,0)"><line stroke="currentColor" y2="6"></line><text fill="currentColor" dy="0.32em" transform="translate(0, 11.82842712474619) rotate(-45)" text-anchor="end">Sep 2021</text></g><g class="tick" opacity="1" transform="translate(187.06756756756755,0)"><line stroke="currentColor" y2="6"></line><text fill="currentColor" dy="0.32em" transform="translate(0, 11.82842712474619) rotate(-45)" text-anchor="end">Oct 2021</text></g><g class="tick" opacity="1" transform="translate(211.36486486486487,0)"><line stroke="currentColor" y2="6"></line><text fill="currentColor" dy="0.32em" transform="translate(0, 11.82842712474619) rotate(-45)" text-anchor="end">Nov 2021</text></g><g class="tick" opacity="1" transform="translate(234.8783783783784,0)"><line stroke="currentColor" y2="6"></line><text fill="currentColor" dy="0.32em" transform="translate(0, 11.82842712474619) rotate(-45)" text-anchor="end">Dec 2021</text></g><g class="tick" opacity="1" transform="translate(259.1756756756757,0)"><line stroke="currentColor" y2="6"></line><text fill="currentColor" dy="0.32em" transform="translate(0, 11.82842712474619) rotate(-45)" text-anchor="end">Jan 2022</text></g><g class="tick" opacity="1" transform="translate(283.47297297297297,0)"><line stroke="currentColor" y2="6"></line><text fill="currentColor" dy="0.32em" transform="translate(0, 11.82842712474619) rotate(-45)" text-anchor="end">Feb 2022</text></g><g class="tick" opacity="1" transform="translate(305.4189189189189,0)"><line stroke="currentColor" y2="6"></line><text fill="currentColor" dy="0.32em" transform="translate(0, 11.82842712474619) rotate(-45)" text-anchor="end">Mar 2022</text></g><g class="tick" opacity="1" transform="translate(329.71621621621625,0)"><line stroke="currentColor" y2="6"></line><text fill="currentColor" dy="0.32em" transform="translate(0, 11.82842712474619) rotate(-45)" text-anchor="end">Apr 2022</text></g><g class="tick" opacity="1" transform="translate(353.2297297297298,0)"><line stroke="currentColor" y2="6"></line><text fill="currentColor" dy="0.32em" transform="translate(0, 11.82842712474619) rotate(-45)" text-anchor="end">May 2022</text></g><g class="tick" opacity="1" transform="translate(377.52702702702703,0)"><line stroke="currentColor" y2="6"></line><text fill="currentColor" dy="0.32em" transform="translate(0, 11.82842712474619) rotate(-45)" text-anchor="end">Jun 2022</text></g><g class="tick" opacity="1" transform="translate(401.0405405405406,0)"><line stroke="currentColor" y2="6"></line><text fill="currentColor" dy="0.32em" transform="translate(0, 11.82842712474619) rotate(-45)" text-anchor="end">Jul 2022</text></g><g class="tick" opacity="1" transform="translate(425.33783783783787,0)"><line stroke="currentColor" y2="6"></line><text fill="currentColor" dy="0.32em" transform="translate(0, 11.82842712474619) rotate(-45)" text-anchor="end">Aug 2022</text></g><g class="tick" opacity="1" transform="translate(449.63513513513516,0)"><line stroke="currentColor" y2="6"></line><text fill="currentColor" dy="0.32em" transform="translate(0, 11.82842712474619) rotate(-45)" text-anchor="end">Sep 2022</text></g><g class="tick" opacity="1" transform="translate(473.14864864864865,0)"><line stroke="currentColor" y2="6"></line><text fill="currentColor" dy="0.32em" transform="translate(0, 11.82842712474619) rotate(-45)" text-anchor="end">Oct 2022</text></g><g class="tick" opacity="1" transform="translate(497.44594594594594,0)"><line stroke="currentColor" y2="6"></line><text fill="currentColor" dy="0.32em" transform="translate(0, 11.82842712474619) rotate(-45)" text-anchor="end">Nov 2022</text></g><g class="tick" opacity="1" transform="translate(520.9594594594595,0)"><line stroke="currentColor" y2="6"></line><text fill="currentColor" dy="0.32em" transform="translate(0, 11.82842712474619) rotate(-45)" text-anchor="end">Dec 2022</text></g><g class="tick" opacity="1" transform="translate(545.2567567567568,0)"><line stroke="currentColor" y2="6"></line><text fill="currentColor" dy="0.32em" transform="translate(0, 11.82842712474619) rotate(-45)" text-anchor="end">Jan 2023</text></g><g class="tick" opacity="1" transform="translate(569.5540540540541,0)"><line stroke="currentColor" y2="6"></line><text fill="currentColor" dy="0.32em" transform="translate(0, 11.82842712474619) rotate(-45)" text-anchor="end">Feb 2023</text></g><g class="tick" opacity="1" transform="translate(591.5,0)"><line stroke="currentColor" y2="6"></line><text fill="currentColor" dy="0.32em" transform="translate(0, 11.82842712474619) rotate(-45)" text-anchor="end">Mar 2023</text></g><g class="tick" opacity="1" transform="translate(615.7972972972973,0)"><line stroke="currentColor" y2="6"></line><text fill="currentColor" dy="0.32em" transform="translate(0, 11.82842712474619) rotate(-45)" text-anchor="end">Apr 2023 *</text></g><text fill="currentColor" transform="translate(640,80)" dy="-0.32em" text-anchor="end">Month →</text></g><g fill="none" stroke="#ec025f" stroke-width="3" stroke-miterlimit="1" transform="translate(0.5,0.5)"><path d="M40,319.923L45.486,319.914L50.973,319.505L56.459,318.793L61.946,318.12L67.432,317.889L72.919,317.659L78.405,317.489L83.892,316.554L89.378,316.096L94.865,314.256L100.351,311.932L105.838,305.265L111.324,272.614L116.811,249.082L122.297,234.526L127.784,221.424L133.27,211.008L138.757,201.329L144.243,192.031L149.73,183.789L155.216,177.844L160.703,173.061L166.189,168.409L171.676,163.693L177.162,152.027L182.649,139.805L188.135,131.347L193.622,126.34L199.108,122.117L204.595,117.967L210.081,114.558L215.568,109.743L221.054,106.057L226.541,103.363L232.027,100.639L237.514,98.417L243,96.4L248.486,94.472L253.973,92.968L259.459,91.428L264.946,89.773L270.432,88.246L275.919,86.385L281.405,83.774L286.892,81.385L286.892,81.385L292.378,79.368L297.865,77.927L303.351,76.688L308.838,75.714L312.757,75.212L318.243,74.388L323.73,73.478L327.649,72.858L337.838,71.417L340.189,71.21L345.676,70.286L351.162,69.542L356.649,68.81L362.135,68.133L367.622,67.49L373.108,66.773L378.595,66.024L384.081,65.4L389.568,64.805L395.054,64.183L400.541,63.509L406.027,62.837L411.514,62.157L417,61.496L422.486,60.686L427.973,60.1L433.459,59.58L438.946,59.057L444.432,58.5L449.919,57.952L455.405,57.466L460.892,56.974L466.378,56.501L471.865,55.996L477.351,55.471L482.838,54.959L488.324,54.455L493.811,53.924L499.297,53.427L504.784,52.996L510.27,52.562L515.757,52.016L521.243,51.421L526.73,50.994L532.216,50.629L537.703,50.267L543.189,49.756L548.676,49.293L554.162,48.858L559.649,48.457L565.135,48.03L570.622,47.585L576.108,47.133L581.595,46.73L587.081,46.334L592.535,45.916L598.054,45.196L603.541,45.196L609.027,44.852L614.514,44.472L620,44.126"></path></g><g stroke="currentColor" transform="translate(0,0.5)"><line x1="40" x2="620" y1="320" y2="320"></line></g>

</svg>
