<svg xmlns="http://www.w3.org/2000/svg" fill="none" viewBox="0 0 220 284">
  <g clip-path="url(#a)">
    <path fill="#002031" d="M194.4 83.4c-.6 4.5-1.4 9.2-1.2 13.8.2 8.2 14.6 18.1 14.6 18.1-9.7 3-38 4.3-46.5-5.9-5-6-7.9-13.6-9.1-21.3-1.8-12.6 4-35.3 19.5-37.6 21.5-3.2 24.8 17.3 22.7 33ZM57.8 64.5l11-4-.3-.4 2 .2h.5c1.6.2 2.8 1.2 3.4 2.8l11 31.3a4 4 0 0 1-2.7 5.3l-11.3 4a4 4 0 0 1-5.3-2.6L55 69.8c-.6-2 .6-4.5 2.7-5.3Z"/>
    <path fill="#1540EB" d="m80.5 99.5-11.4 4A4 4 0 0 1 64 101l-11-31.3a4 4 0 0 1 2.6-5.3l11.4-4a4 4 0 0 1 5.3 2.6l11 31.3c.6 2.2-.7 4.5-2.7 5.3Z"/>
    <path fill="#DD933C" d="m68.1 79.8-11.8 6.5a8.9 8.9 0 0 0-3.8 10.1l5 17.7 14.9-5.9-3.5-10.6 6.1-5.2-6.9-12.6Z"/>
    <path fill="#59ACF5" d="m111.6 103.3-26.4 38L72 105.8l-16.5 1.4s7.7 35 15.9 51.6c4.8 10 13.4 10.3 19.7 6.3 17.4-11.6 29.4-31.7 29.4-31.7l-9-30Z"/>
    <path fill="#FE9C7E" d="m131.7 179 6.7 32-40.6.4-6.1-33.7 40 1.4Z"/>
    <path fill="#FE6F43" d="m80.7 211.4 7.3-33.7h3.7l6 33.7h-17Z"/>
    <path fill="#002031" d="M63.2 88.3c-.2 0-.4 0-.4-.2-.2-.2 0-.6.2-.6l7.1-4.3c.3-.2.7 0 .7.2.2.2 0 .6-.2.6l-7.2 4.3h-.2ZM66 92.8c-.1 0-.3 0-.3-.2-.2-.2 0-.6.2-.6l6.5-4.5c.2-.2.6 0 .6.2.2.2 0 .6-.2.6l-6.5 4.5c0-.2 0 0-.2 0Z"/>
    <path fill="#FC0" d="M162.3 169.5s15 9 19.3 36.2c3.7 23.1 15.3 190 15.3 190H174l-45-227 33.2.8Z"/>
    <path fill="#FC0" d="M115.4 168.5s-12.8 10-16.8 37.2c-3.7 23.1-16.7 190-16.7 190h22.8l45-226.6-34.3-.6Z"/>
    <path fill="#59ACF5" d="M215.1 135.4c-6-7.5-35-39-35-39a17 17 0 0 0-9-4.9l-10.6-2.4c-2.4-.8-3.6-4-3.4-6.5L138 83l-1 2.5c-.7 1.6-2.3 2.4-4.1 3.2l-8 2.6c-7.2 4.1-19.6 16.7-20.8 27.5-1.3 9.3 12.3 43.4 11.3 49.7l47 1c.1-2 .3-3.8.6-5.7l10.3 14.5s35-16.5 41.6-22.4c7.4-6.7 6.1-13.4.2-20.5Zm-52 26.6c3.1-22.1 10.2-35.3 10.2-35.3l21 18.5-31.1 16.8Z"/>
    <path fill="#82C6F8" d="M137.6 97a12.6 12.6 0 0 1-24.4 4.5l2.4-2.6c3.3-3.3 6.5-6 9.4-7.3l7.9-2.7 1-.4c2.2 1.8 3.7 5 3.7 8.5ZM137.6 163.2c0 2-.4 4.1-1.5 5.7l-20.7-.4c.2-1.8-.4-5.7-1.8-10.5 2-4.3 6.3-7.4 11.4-7.4 6.9 0 12.6 5.7 12.6 12.6ZM117 130.1a12.5 12.5 0 0 1-25 1.6l9.6-13.7a12 12 0 0 1 2.9-.5c6.9 0 12.6 5.7 12.6 12.6ZM67.5 130.1c0 3.5-1.4 6.7-3.6 9-2.7-8.4-4.7-16.3-5.7-21.2 5.4 1.5 9.3 6.3 9.3 12.2ZM182.9 99.5a12.8 12.8 0 0 1-12.4 10.1 12.7 12.7 0 0 1-10-20.3l10.6 2.4c3.6.7 6.7 2.5 9 5 0-.3 1 1 2.8 2.8ZM183 163.2c0 6.7-5 12-11.5 12.6l-8.5-12-.7 5.7h-2.8a12.4 12.4 0 0 1 5.3-17.2c-.6 3-1.2 6.5-1.6 10l15.4-8.4c2.6 2 4.5 5.5 4.5 9.3ZM150 142.7a12.6 12.6 0 1 0 0-25.2 12.6 12.6 0 0 0 0 25.2ZM91.3 165.3c-6.3 4-14.9 3.6-19.7-6.3l-1.2-2.9c2.2-2 5-3.2 8.3-3.2 6.9.2 12.4 5.7 12.6 12.4ZM218.8 151c-.8 1.7-2.2 3.3-4 5-2 1.6-6.4 4.2-11.4 7 0-6.9 5.7-12.4 12.6-12.4 1 0 1.8.3 2.8.5ZM200.3 118.6a12.7 12.7 0 0 0-10.4 23c1.7.7 3.7 1.1 5.5 1.1 7 0 12.6-5.7 12.6-12.6 0-1.2-.2-2.4-.6-3.6l-7-8Z"/>
    <path fill="#DD933C" d="M160.7 57.8 157 84.4l-19.5.2 7.5-19 15.8-7.8Z"/>
    <path fill="#D2793C" d="m139.8 78.1 2.6-6.2 9.2-2-11.8 8.2Z"/>
    <path fill="#DD933C" d="M165.8 50.7c-.4 10.4-13.8 19.5-13.8 19.5s-11.4 5.3-20.7-1c-9.4-6.3-.2-27.8 2.6-32.5 2-3.6 8.7-4.9 13.4-4.9a18 18 0 0 1 18.5 19Z"/>
    <path fill="#002031" d="M147.5 52c.2 0 .2 0 0 0 .4-.2.6-.4.4-.6-.6-2.2-2.7-3-4.5-3.3-.2 0-.4.2-.4.4 0 .3.2.5.4.5 1.6.2 3.3 1.2 4 2.6l.1.5ZM131.3 48h.2c1.4-1 2.6-1.3 3.8-.7.2.2.4 0 .6-.2.2-.2 0-.4-.2-.6-1.4-.8-3-.4-4.6.8-.2.2-.2.4 0 .6 0 .2.2.2.2.2ZM133.8 52c.5 0 1-.6 1-1.3-.1-.7-.6-1.2-1.2-1.2-.5 0-1 .6-1 1.3.1.6.6 1.2 1.2 1.1ZM143.7 53.6c.6 0 1-.6 1-1.3 0-.7-.5-1.2-1.1-1.2-.6 0-1 .6-1 1.3 0 .7.5 1.2 1.1 1.2ZM196.7 148.8l-3.3-3.6c-.2-.2-.2-.4 0-.9.2-.2.4-.4.6-.2l6 1.3-.3 1.2-4-.8 2 2.2-1 .8ZM137.8 58.6c-.2 0-1.9-.4-2.5-1.6-.4-.8.2-2 1.3-4l1-2c0-.3.2-.5.4-.3.2 0 .4.2.2.4l-1 2.3c-.6 1-1.5 2.8-1.3 3.4.2.6 1.5 1 1.7 1 .2 0 .4.2.4.4.2.2 0 .4-.2.4ZM171.3 124l-.8.9 8.4 7.7.8-1-8.4-7.6Z"/>
    <path fill="#fff" d="m145 257.9-7.2-38.6h-6.5v-1.4h7.7l7.3 39.8-1.2.2Z"/>
    <path fill="#002031" d="M132.5 27.4c2.8-3 8.1-4.5 18-2.9 6.8 1.3 16.1 9 18.7 13-.8.6-10.3-2.2-10.3-2.2-2.9 3-7 4.9-11.2 5.5-4 .6-8.3.2-12.4-.8-1-.2-7.3-2.5-8.3-2.9.8-1 3.3-7.3 5.5-9.7Z"/>
    <path fill="#002031" d="M152.2 42.8c-.4 2.4 5.7 5.9 7.3 8.3 2.2 3.5-.4 18.1-.4 18.1s9.1-8.1 13-18.5c1.8-5 .2-9.5-3-13.6-2.5-3-6.8-4.6-10.8-3.8-4.7 1-5.7 5.6-6.1 9.5Z"/>
    <path fill="#DD933C" d="M160.1 60.5a4.7 4.7 0 1 0 0-9.4 4.7 4.7 0 0 0 0 9.4Z"/>
    <path fill="#FE6F43" d="m102.8 119.8-11.7 58 1.2.2 11.7-58-1.2-.2Z"/>
    <path fill="#fff" d="m114.8 165.7-1.2-.2c.4-2.9-2-11-4.9-19.5-3.2-10.4-6.7-21.1-6-26.2.5-4.9 2.8-12 7.5-17.7l1 .8c-3.7 4.5-6.5 11-7.1 16.9-.6 4.9 2.8 15.8 5.9 25.6 3 9.3 5.4 17.2 4.8 20.3Z"/>
    <path fill="#002031" d="M137.8 64c-.9 0-1.5-.2-1.5-.2-.3-.1-.4-.2-.3-.5.2-.2.3-.4.6-.2 0 0 3.1.8 4.7-1.8.1-.3.4-.3.5-.1.2 0 .2.3.1.5-1 2-2.8 2.4-4 2.4Z"/>
    <path fill="#DD933C" d="m171.3 175.4-1 1.4a8 8 0 0 1-7.8.2l-3.2-1.4-12.2 5.3c-1.2.6-2.6.4-3.6-.4l-3.3-2.8a3 3 0 0 1 0-4.7l4.5-4.3c-.2.2-3.5 1-5.5 1.6-1 .2-1.8-.4-2.2-1.2a2 2 0 0 1 1-2.2l11-4.5c2.6-1.2 5.4-1 8.5-.2l5.3 1.4 8.5 11.8Z"/>
    <path fill="#002031" d="M143 180.3c-.2 0-.4 0-.4-.2-.2-.2 0-.6.2-.6l11.4-7.1c.2-.2.6 0 .6.2.2.2 0 .6-.2.6l-11.3 7h-.2ZM140.6 177.6c-.2 0-.4 0-.4-.2-.2-.2-.2-.6.2-.6l10.2-7.5c.2-.2.6-.2.6.2.2.2.2.6-.2.6l-10.2 7.5h-.2Z"/>
    <path fill="#1540EB" fill-rule="evenodd" d="M32.2 49a25 25 0 1 1 9.3-5.1l2.2 11.3c.1 1-1 1.6-1.6 1L32.2 49Z" clip-rule="evenodd"/>
    <path fill="#1540EB" fill-rule="evenodd" d="M32.2 49a25 25 0 1 1 9.3-5.1l2.2 11.3c.1 1-1 1.6-1.6 1L32.2 49Z" clip-rule="evenodd"/>
    <path fill="#fff" fill-rule="evenodd" d="M13.2 17.5c.6-1.5 2.4-3.6 3.2-4.3l.9-1s.5-.5 1 0l4.4 5s.5.6-.1 1.3l-2.7 2.7s-.4.6 0 1.3a36 36 0 0 0 8 8.2c.6.5 1.2.2 1.2.2l2.6-2.8c.7-.7 1.2-.2 1.2-.2l5 4.5c.4.6-.2 1.2-.2 1.2l-.7.9c-.9.8-2.8 2.7-4.4 3.3C27 40 11 23.5 13.2 17.5Z" clip-rule="evenodd"/>
  </g>
  <defs>
    <clipPath id="a">
      <path fill="#fff" d="M0 0h220v284H0z"/>
    </clipPath>
  </defs>
</svg>
