<svg width="376" height="261" fill="none" xmlns="http://www.w3.org/2000/svg"><path fill-rule="evenodd" clip-rule="evenodd" d="M99.636 66.196h119.39v-.916c-5.39-.813-13.017-2.237-17.187-6.61a17.394 17.394 0 0 1-2.135-2.644l-.211-.28c-1.449-1.939-2.87-3.84-5.586-4.906-4.475-1.73-9.661-.204-14.339 1.728.508-1.932.915-4.067.407-6.203-.61-2.644-3.051-4.881-6-5.593-2.441-.61-5.288-.305-8.644.915-4.983 1.83-9.356 4.678-12.204 8.237-3.254-3.864-7.83-8.135-14.644-8.644-5.186-.305-10.881 1.83-15.152 5.797-1.933 1.83-3.458 3.763-4.983 5.695-1.831 2.339-3.763 4.78-6.305 6.813-2.034 1.526-4.373 2.645-6.814 3.763-.4.2-.81.4-1.228.603-.858.418-1.747.85-2.636 1.33l-1.73.915Zm113.796-1.017h-109.83c.712-.305 1.424-.61 2.034-.814 2.44-1.118 4.881-2.339 7.017-3.966 2.644-2.136 4.576-4.576 6.508-7.017 1.526-1.932 3.051-3.864 4.882-5.593 4.067-3.763 9.457-5.898 14.339-5.492 6.61.509 11.186 4.983 14.338 8.746l.407.508.407-.508c2.746-3.56 7.119-6.61 12.203-8.44 3.153-1.12 5.797-1.424 8.034-.916 2.644.61 4.678 2.543 5.288 4.882.509 2.237 0 4.474-.61 6.711l-.203.916.915-.407c4.678-2.034 10.068-3.865 14.543-2.136 2.542 1.017 3.864 2.848 5.288 4.882.712.915 1.423 1.83 2.237 2.745 3.051 3.153 7.729 4.882 12.203 5.899ZM196.347 41.177h56.339l-1.932-1.118c-1.799-.9-3.915-1.242-6.069-1.59l-.846-.139c-.203-.05-.432-.076-.661-.102a5.133 5.133 0 0 1-.661-.101c-4.068-.61-6.61-1.83-7.526-3.458a3.033 3.033 0 0 1-.406-.814c-.204-.508-.407-1.016-.916-1.525-1.22-1.22-3.559-1.424-5.288-1.017-1.22.305-2.339.915-3.457 1.83-.102-1.322-.814-3.05-1.933-4.576-.915-1.322-2.745-3.457-5.389-3.66-10.347.1-14.244 6.848-16.886 11.424l-.097.168-.326.557c-.87 1.492-1.605 2.753-2.42 3.206l-1.526.915Zm51.356-1.016h-48.305c.365-.426.729-.996 1.159-1.669.289-.453.608-.952.977-1.484l.003-.006c2.644-4.678 6.205-10.977 16.065-11.079 2.135.204 3.762 2.136 4.576 3.255 1.424 1.932 2.034 4.067 1.83 4.983l-.406 1.627 1.22-1.119c1.22-1.322 2.542-2.034 3.864-2.339 1.628-.407 3.56 0 4.373.814.246.245.425.622.592.971.04.085.08.17.12.249.102.305.204.61.407.915 1.119 1.932 3.763 3.254 8.237 3.966.204.051.432.077.661.102.229.026.458.05.661.102 1.322.203 2.644.407 3.966.712Z" fill="#DCEEFD"/><path d="M188.1 248.493c30.707 0 55.6-1.298 55.6-2.9 0-1.601-24.893-2.9-55.6-2.9s-55.6 1.299-55.6 2.9c0 1.602 24.893 2.9 55.6 2.9Z" fill="#DCEEFD"/><path d="m183.4 138.594.4-17 15.6 2.7-.4 15-15.6-.7Z" fill="#002031"/><path d="M211.1 124.994s.7 9.3.9 23.3c.2 14-1.2 85.4-1.2 85.4l-9.7 1.7-8.4-110.8 18.4.4Z" fill="#002031"/><path d="m195.8 138.295-6.8 96.6-6.7 4.1-3.5-5-1.4-109.8 11.6-.8c.1 0 6.7 2.5 6.8 14.9Z" fill="#002031"/><path d="M194.7 153.893c-.2 0-.3-.1-.3-.3l-.6-14.3-5.6.1c-.2 0-.3-.1-.3-.3 0-.2.1-.3.3-.3l6.2-.1.6 14.9c0 .1-.1.3-.3.3Z" fill="#EFF7F9"/><path d="m180 79-20.464-8.162L168.5 46l-6.143-2.925-7.135 28.29c-.51 1.266-.253 3.134-.253 3.134L174 91l6-12Z" fill="#C8915C"/><path d="m168.388 46.514 5.789-3.372c.383-.263.574-.741.311-1.124-.144-.335-.622-.526-.909-.502l-2.798.406 2.273-4.64a1.155 1.155 0 0 0-.646-1.507c-.478-.191-1.1-.024-1.291.454l-2.967 4.64 1.914-5.477a1.153 1.153 0 0 0-.645-1.507 1.154 1.154 0 0 0-1.507.646l-2.225 5.213.527-4.783c.048-.813-.765-1.555-1.555-1.316-.454.096-.765.526-.909.885l-.981 4.879-.407-2.105c-.119-.741-1.124-1.005-1.482-.455-.216.192-.192.479-.24.598l1.482 7.391 6.266 1.676Z" fill="#C8915C"/><path d="M166.356 44.664c.119.048.119.048 0 0 .119.048.287-.024.334-.143.431-1.77 1.508-2.033 1.627-1.985.168-.072.215-.191.263-.311-.071-.167-.191-.215-.311-.263 0 0-1.483.239-1.937 2.415-.168.072-.096.24.024.287Z" fill="#002031"/><path d="M182.08 77.281C178.5 76.498 165 69.5 165 69.5l3.5-21.5-7.5-2-7 26.499c-.5 3 2 5 3.5 6.293L176 93.999s9.66-15.934 6.08-16.718Z" fill="#237978"/><path d="M188.044 78.302h-7c0-.6.5-1.1 1.1-1.1h4.7c.6-.1 1.2.4 1.2 1.1Z" fill="#104A4A"/><path d="M191.444 73.703h-6.2c-.7 0-1.2.7-1 1.3l1 3.9 4.9-.7 1.3-4.5Z" fill="#237978"/><path d="M182.744 78.203h28.5c5.4 0 10.256 4.197 9.456 9.797l-.856 7.203-3.6.6-4.7 29.6-33.5-.3c-1.3 0-2.3-1-2.4-2.3-.3-6-1-22.1-1.2-29.8-.1-3-2.2-5.3-2.1-6.2.4-6.5 5.3-8.6 10.4-8.6Z" fill="#237978"/><path d="m209.2 125-3.5 2.586c-2.491 1.694-4.095 2.292-3.995 5.282l.299 7.873h6.577l2.093-5.88 1.526-3.361 1.364-1.821 1.694-2.093L209.2 125Z" fill="#C8915C"/><path d="M219.7 83s2.5 4 9 24c1.5 6.5-.5 7-6 13.5s-9.5 10.5-9.5 10.5l-4.5-5.5 9-16-6.5-14.5 8.5-12Z" fill="#237978"/><path d="M210.7 135.5c-1.5-2.5-7.333-7.833-7.5-9.5l-4 1v16h10.5s1.772-6.214 1-7.5ZM219.535 112.447 217.7 109.5l3.712 1.439-.215.673-1.889-.826.803 1.251-.576.41ZM213.272 98.625l-.528.283 2.363 4.406.528-.283-2.363-4.406Z" fill="#002031"/><path d="m188.044 78.304-3.5 8.3 2.9 38.5 8.1.1 3.3-47.2-10.8.3Z" fill="#FE6F43"/><path d="m198.244 86.804.1-.9h-.1c-4.5 1.9-9 4.2-13.2 6.8l.1.9c4.1-2.6 8.5-4.9 13.1-6.8ZM197.044 103.605l.1-.8c-2 .4-3.9 1-5.8 1.5-1.7.5-3.5 1-5.3 1.4l.1.8c1.8-.4 3.7-.9 5.4-1.5 1.8-.5 3.6-1 5.5-1.4ZM196.744 106.504c-3.6 1.5-7 3.3-10.4 5.3l.1.9c.1 0 .1-.1.2-.1 3.2-1.9 6.6-3.7 10.1-5.2v-.9ZM184.544 87.404c4.4-1.8 9.1-3 13.9-3.6l.1-.8c-4.8.6-9.5 1.8-14 3.6v.8ZM195.744 121.404c-2.6 1.5-5.4 2.3-8.4 2.5l.1.8c2.9-.2 5.7-1 8.2-2.4l.1-.9ZM187.144 121.103l.1.9c2.9-1.8 5.8-3.4 8.8-4.9l.1-.9c-3.1 1.5-6.1 3.1-9 4.9ZM185.244 96.204l.1.8c3.2-.5 6.3-1.4 9.4-2.4 1-.3 2-.6 3.1-.9l.1-.8c-1.1.3-2.2.7-3.4 1-3.1.9-6.2 1.8-9.3 2.3ZM191.544 115.104c1.6-.6 3.1-1.2 4.8-1.7l.1-.8c-1.7.5-3.4 1.2-5.1 1.8-1.5.6-3 1.1-4.5 1.6l.1.8c1.5-.5 3-1.1 4.6-1.7ZM185.744 102.704l.1.9c1.9-1.3 4.1-2.3 6.1-3.2l5.6-2.6.1-.9-5.9 2.8c-2 .8-4.1 1.8-6 3Z" fill="#FE9C7E"/><path d="m202.544 60.803-1.1 17.3-8.4 3.5-2.9-3.3 3.5-12.8 8.9-4.7Z" fill="#C8915C"/><path d="M203.944 50.103c.3-.6-.4-2.3-2.2-3.5-1.6-1.2-3.9-1.6-6-1.5-4.6.4-6.5 2.5-6.5 2.5s-1.5-.1-1.8.6c-.6 1.4.1 2.3.5 2.6.1 0 .1.1.2.1.2 0 .3.1.3.2 2.7 1.7 6.8 3.6 9.5 4.3l5.5 1.5c.5.1 1.7.2 1.7-.3.6-6.1-.5-6.5-1.2-6.5Z" fill="#002031"/><path d="M205.044 57.804c-.5 5.6-4.9 10.6-10.4 11.5-6.3 1.1-10.4-3.2-9.9-10.1.5-6.1 4.5-12.4 10.1-12.8 5.7-.3 10.9 3.9 10.2 11.4Z" fill="#C8915C"/><path d="m185 57 .144 3.103c0 .9.7 1.6 1.6 1.6h.3c.5-.4 1.1-.6 1.8-.6l3.7.2c1 0 1.9.5 2.5 1.3l.1.2c.6.7 1.4 1 2.3 1 1-.1 1.8-.7 2.2-1.5l2.1-4.4 2 2.5-2.1 5.3c-1.1 2.9-3.3 4.5-7.3 4.5h-5.3c-4.4 0-5.7-4.2-5-6.9L185 57ZM174.721 92.392l-.6.028.63 13.685.599-.028-.629-13.685Z" fill="#002031"/><path d="M189.451 57.68c.327-.051.545-.402.487-.784-.059-.382-.372-.65-.7-.6-.327.05-.545.4-.486.783.058.382.371.65.699.6ZM194.856 57.982c.327-.05.545-.4.486-.783-.058-.382-.371-.651-.699-.6-.327.05-.545.4-.487.782.059.382.372.651.7.601ZM190.844 61.003c-.1 0-1-.1-1.3-.7-.2-.4 0-1.1.5-2.2.2-.5.3-.9.4-1.2 0-.1.1-.2.2-.2s.2.1.2.2c-.1.3-.2.8-.4 1.3-.2.7-.6 1.7-.5 1.9.2.3.8.5 1 .5.1 0 .2.1.2.2-.1.1-.2.2-.3.2ZM194.816 45.536c-2.846-.015-5.4 2.337-7.141 5.015.81.649 2.129 1.193 3.856 1.416 1.625.224 7.626-.176 8.847-.385.61-.104 2.543-.31 2.543-.31s-1.734 1.066-2.044 2.032c-.83 3.328.278 5.375.982 6.99.804 1.832 1.206 2.693 2.021 2.483.617-1.395 1.032-3.004 1.141-4.508 1.064-9.453-4.003-12.702-10.205-12.733Z" fill="#002031"/><path d="M201.344 63.803c1.6.4 3.2-.5 3.6-2 .4-1.6-.5-3.2-2-3.6l-1.6 5.6Z" fill="#C8915C"/><path d="M204.444 73.703h-5.2c-.7 0-1.2.6-1.1 1.3l.6 4.2 7.1-.3v-3.9c0-.7-.6-1.3-1.4-1.3Z" fill="#237978"/><path d="M226.008 116.3c-1.9-2.4-2.6-4.8-2.2-6.9.6-3.2 3.4-4.9 3.6-4.9l.3.6s-2.7 1.6-3.2 4.5c-.4 2 .3 4.2 2 6.4l-.5.3ZM158.887 79.764c.95-2.312 1.024-4.336.258-6.207-1.21-3.005-4.396-4.249-4.396-4.249l.225-.6c.137.035 3.374 1.365 4.737 4.627.818 1.958.76 4.204-.311 6.705l-.513-.276Z" fill="#002031"/><path d="M211.344 78.302h-7c0-.6.5-1.1 1.1-1.1h4.7c.7-.1 1.2.4 1.2 1.1ZM189.444 73.703l-1.4 4.6h2.1l1.3-4.6h-2Z" fill="#104A4A"/><path d="m192.889 62.602-2.946-.102c-.203 0-.305.203-.203.305.406.71 1.727 2.133 3.352.101.101-.203 0-.304-.203-.304Z" fill="#fff"/><path d="M188.515 54.094c-.102 0-.102 0-.203-.101-.102-.102-.102-.204 0-.305.609-.508 1.625-.61 2.336-.203.101.101.203.203.101.304-.101.102-.203.204-.304.102a1.707 1.707 0 0 0-1.829.203h-.101ZM193.99 53.978c-.098-.027-.098-.027-.169-.152-.07-.125-.043-.223.082-.293.723-.326 1.729-.152 2.305.43.071.125.142.25.017.32-.126.071-.251.142-.321.017a1.706 1.706 0 0 0-1.816-.294l-.098-.028ZM208.744 125.502l-1.4-1.9 4.5-4.7.5.5-4.2 4.2 1.1 1.5-.5.4Z" fill="#002031"/><path d="m177.044 231.304-7.5 5.4-4.5 2.2c-2.2 1.2-2.2 3.3-2.2 3.3h28.7l-1.2-9.3c-.2-.7-1.5-.8-1.7-.2-.5 1.3-2.6 2.1-4.4 2.2-2.6.1-3.5-1.7-4.9-3.2-.6-.6-1.5-.8-2.3-.4Z" fill="#FC0"/><path d="M189.944 245.304h-25.4c-1 0-1.8-.8-1.8-1.8v-1.4h28.9l.1 1.2c.1 1.1-.7 2-1.8 2Z" fill="#fff"/><path d="m173.344 237.504-3.2-1 .2-.6 3.2 1-.2.6ZM172.595 234.307l-.17.576 3.261.963.17-.576-3.261-.963Z" fill="#002031"/><path d="m212.344 231.304 4.5 5.4 2.7 2.2c2.3 1.2 2.3 3.3 2.3 3.3h-21.7l.4-8.3s2.8.1 5.3.1c0 0 .5-1.3 2-2.7.7-.7 3.5-1.4 4.5 0Z" fill="#FC0"/><path d="M201.844 245.303h18.1c1.1 0 1.9-.9 2-1.9v-1.2h-22l-.1 1.1c0 1.1.9 2 2 2Z" fill="#fff"/><path d="m213.637 235.802-.017.7 3.599.089.017-.7-3.599-.089ZM211.273 233.937l-.026.7 4.197.154.026-.699-4.197-.155Z" fill="#002031"/></svg>
