<svg xmlns="http://www.w3.org/2000/svg" fill="none" viewBox="0 0 380 293">
  <path fill="#DCEEFD" d="M121.9 63H22l1.5-.8 3.2-1.6c2-1 4-2 5.7-3.2a33 33 0 0 0 5.3-5.7c1.2-1.6 2.5-3.2 4.1-4.7 3.6-3.4 8.3-5.1 12.7-4.9 5.7.4 9.5 4 12.2 7.2 2.4-3 6-5.3 10.2-6.8 2.8-1 5.2-1.3 7.2-.8 2.5.6 4.5 2.5 5 4.7.5 1.7.1 3.5-.3 5.1 4-1.6 8.2-2.8 12-1.4 2.4 1 3.5 2.6 4.8 4.3.5.8 1.1 1.6 1.8 2.2 3.5 3.7 9.9 4.9 14.4 5.6v.7Zm-96.5-1h91.8c-3.7-.8-7.7-2.2-10.2-4.8l-1.9-2.3c-1.2-1.7-2.3-3.3-4.4-4.1-3.7-1.5-8.2 0-12.1 1.8l-.8.3.2-.8c.5-1.8.9-3.7.5-5.6-.5-2-2.2-3.5-4.4-4-2-.5-4.1-.2-6.8.7-4.2 1.5-7.9 4.1-10.1 7l-.4.5-.3-.4c-2.7-3.2-6.5-7-12-7.3-4-.4-8.6 1.4-12 4.6-1.5 1.4-2.8 3-4 4.6-1.7 2-3.3 4.1-5.5 5.9a30.6 30.6 0 0 1-7.6 4ZM150 42h-47l1.2-.7c.8-.5 1.4-1.7 2.3-3.2 2.2-3.8 5.4-9.6 14.2-9.7 2.2.2 3.7 2 4.5 3a8 8 0 0 1 1.6 4c1-.8 1.9-1.4 2.9-1.6 1.4-.4 3.4-.2 4.4.8l.8 1.3c0 .3.1.4.3.7.8 1.3 2.9 2.4 6.3 2.9l1 .1c2.1.4 4.2.6 5.9 1.5l1.6 1Zm-44.5-.8h40.3c-1-.3-2.2-.4-3.3-.6l-1-.2c-3.8-.6-6-1.7-7-3.3a3 3 0 0 1-.3-.8l-.6-1c-.7-.7-2.3-1-3.7-.7-1 .3-2.2.9-3.2 2l-1 1 .3-1.4c.2-.8-.3-2.6-1.5-4.2-.7-1-2-2.5-3.8-2.7-8.3 0-11.2 5.3-13.4 9.2l-1.8 2.7ZM186.8 285.7c101.5 0 193.2 2 193.2 3.6 0 1.7-91.7 3.7-193.2 3.7-105.6 0-143.2-.3-143.2-3.7 0-3 36.6-3.6 143.2-3.6Z"/>
  <path fill="#fff" d="M145 13h195.5c.5 0 .8.3.7.8l-22.4 274.8c0 .5-.4.8-.9.8H122.4c-.5 0-.9-.3-.8-.8L144 13.8c0-.5.5-.8 1-.8Z"/>
  <path fill="#F2F2F7" d="M242.2 18.7h2l-21.7 265h-2l21.7-265Z"/>
  <path fill="#F2F2F7" d="m138.5 152.2.2-2h185.6l-.2 2H138.5Z"/>
  <path fill="#002031" d="M204.9 238.3h-16.8l-1.2 16.6h16.8l1.2-16.6Zm-5.1 4.8-.6 7.2H192l.6-7.2h7.2ZM164 238.3h-16.8L146 255h16.8l1.2-16.6Zm-5.2 4.8-.6 7.2H151l.5-7.2h7.3ZM208 198h-16.7l-1.3 16.5H207l1.2-16.6Zm-5 4.6-.6 7.2h-7.2l.5-7.2h7.3ZM186.5 198h-19.3l-1.4 16.6h4.8l1-12H186l.4-4.7ZM162.4 198h-12.1l-.3 4.7h7.2l-.6 7.2h-7.3l-.3 4.8h12.1l1.3-16.8ZM206.4 219.4h-16.9l-.2 4.6h12l-.8 9.5h4.8l1.1-14.1Z"/>
  <path fill="#002031" d="M185.5 209.8h-9.7l-.3 4.8h4.8l-.4 4.8h-9.7l-.7 9.4h-4.8l.7-9.4h-16.7l-.4 4.6h12l-.7 9.5H174l.7-9.5h9.6l1.2-14.2Z"/>
  <path fill="#002031" d="m147.6 233.5.3-4.8h7.3l-.4 4.8h-7.2ZM168.3 246l.4-7.7h4.8l-.4 7.6h-4.8Z"/>
  <path fill="#002031" d="m172.6 246 .3-4.1h6l-.2 4h-6.1ZM188.5 233.5h7.2l.3-4.8H189l-.4 4.8Z"/>
  <path fill="#002031" d="M184.1 228.8h-5l-1.6 21.5H168l-.5 4.6H182l1.6-21.4.6-4.7Z"/>
  <path fill="#F2F2F7" d="M164 36.4h58l-1.1 13.4h-58l1-13.4ZM288.1 167.4h29l-.2 2h-29l.2-2ZM287 180.7h29l-.2 2h-29l.2-2ZM286 194.1h29l-.2 1.9h-29l.1-1.9ZM284.9 207.4h29l-.2 2h-29l.2-2ZM283.7 220.8h29l-.1 2h-29l.1-2ZM282.7 234h29l-.2 2h-29l.2-2ZM281.6 247.5h29l-.2 1.9h-29l.2-1.9ZM280.5 260.8h29l-.2 1.9h-29l.2-1.9ZM287.8 171.2h29l-.2 2h-29l.2-2ZM286.7 184.5h29l-.1 2h-29l.1-2ZM285.6 198h29l-.2 1.8h-29l.2-1.9ZM284.5 211.3h29l-.1 1.8h-29l.1-1.8ZM283.5 224.6h28.9v1.9h-29v-2ZM282.3 238h29l-.1 1.9h-29l.1-2ZM281.3 251.2h29l-.2 2h-29l.2-2ZM280.1 264.6h29l-.1 2h-29l.1-2ZM161.8 56.9h58l-.2 1.8h-58l.2-1.8ZM161.4 62.6h57.9l-.1 1.8h-58l.2-1.8Z"/>
  <path fill="#82C6F8" d="M264.6 279.7 278 104.1a9.5 9.5 0 0 1 9.3-8.6h83.4c5.3 0 8 3.1 7.6 8L365 279.8c-.5 5.6-3.2 8.7-9.3 8.7h-82.9a8 8 0 0 1-8-8.8Z"/>
  <path fill="#59ACF5" d="m261.4 279.7 1-13 9.3-73.5 2.5-82.5.6-6.6a9.5 9.5 0 0 1 9.3-8.6h79.1c4.4 0 7.9 3.7 7.6 8.1l-13.3 175.5c-.4 5.3-4.8 9.4-10.2 9.4h-77.7c-4.9 0-8.4-4-8.2-8.8Z"/>
  <path fill="#DCEEFD" d="M274.3 110.8h96l-11.9 156h-96l12-156Z"/>
  <path fill="#fff" d="M306.1 282.5a5.9 5.9 0 0 1-1.5-4.5 6.8 6.8 0 0 1 6.6-6.2 5.8 5.8 0 0 1 5.8 6.3 6.8 6.8 0 0 1-6.6 6.2c-1.7 0-3.3-.6-4.3-1.8Zm-1-4.5a5.1 5.1 0 0 0 5.3 5.7c3 0 5.7-2.5 6-5.7a5.1 5.1 0 0 0-5.2-5.6 6.1 6.1 0 0 0-6 5.6ZM275.3 212l5-68.4a5.5 5.5 0 0 1 5.6-5.1h66.8c3.1 0 5.7 2.7 5.4 5.8l-5 67.6c-.1 2.3-2 4-4.2 4h-69.8a3.7 3.7 0 0 1-3.8-3.9Z"/>
  <path fill="#002031" d="M289.6 202h14.8l1.1-14.7h-14.8l-1 14.8Zm11.4-10.5-.4 6.4h-6.4l.4-6.4h6.4ZM325.6 202h14.7l1.1-14.7h-14.7l-1.1 14.8Zm11.4-10.5-.4 6.4h-6.4l.5-6.4h6.3ZM292.3 166H307l1.1-14.7h-14.7l-1.1 14.8Zm11.3-10.5-.4 6.4h-6.4l.5-6.4h6.3ZM312 155.5h12.8l-.8 10.6h4.3l1-14.8h-17l-.2 4.2ZM332.4 166.1h10.7l.3-4.2H337l.5-6.4h6.3l.4-4.2h-10.7l-1 14.8ZM291 183h4.2l.6-8.4h10.6l.4-4.2h-14.9l-1 12.7Z"/>
  <path fill="#002031" d="M310.7 174.6h8.5l-.7 8.5h12.8l.5-8.5h10.7l.2-4.2H328l-.6 8.4h-4.2l.6-8.4h-8.5l.3-4.3h4.3l.3-4.2h-8.5l-1 12.7Z"/>
  <path fill="#002031" d="m335.5 183 .3-4.2h6.3l-.3 4.3h-6.3ZM317.7 194.1l.6-6.8h4.2l-.5 6.8h-4.3Z"/>
  <path fill="#002031" d="m312.8 194.1.3-3.7h5.3l-.2 3.7h-5.4ZM306.1 178.8h-6.3l-.3 4.3h6.4l.2-4.3Z"/>
  <path fill="#002031" d="m310.1 183-1.4 19h12.7l.3-4h-8.5l1.4-19.2h-4.3l-.2 4.3Z"/>
  <path fill="#76C0F7" d="M286.1 230.5c.1-1.4 1.3-2.5 2.7-2.5H337c1.4 0 2.4 1.1 2.3 2.5 0 1.3-1.3 2.4-2.6 2.4h-48.4a2.3 2.3 0 0 1-2.3-2.4ZM306.4 240.2c0-1.4 1.2-2.5 2.6-2.5h27.4c1.3 0 2.3 1.1 2.2 2.5 0 1.3-1.2 2.4-2.6 2.4h-27.3a2.3 2.3 0 0 1-2.3-2.4ZM285.5 240.2c0-1.4 1.2-2.5 2.6-2.5H299c1.3 0 2.3 1.1 2.3 2.5-.1 1.3-1.3 2.4-2.7 2.4h-10.8c-1.4 0-2.5-1-2.3-2.4Z"/>
  <path fill="#002031" d="M372.6 132.2c-.5-.5-.7-1.3-.7-2l.6-6.5c0-1.6 1.5-2.8 3-2.8h.9c.7 0 1.4.3 2 .8.4.5.7 1.3.6 2l-.5 6.5c0 1.5-1.5 2.8-3 2.8h-1c-.7 0-1.4-.3-1.9-.8Zm2.8-10.8c-1.2 0-2.3 1-2.4 2.3l-.5 6.4c-.1.6 0 1.2.5 1.6.4.5.9.7 1.5.7h.8c1.3 0 2.4-1 2.5-2.3l.5-6.4c.1-.6 0-1.2-.5-1.6-.4-.5-1-.7-1.5-.7h-.9ZM371.6 146.3c-.5-.5-.8-1.3-.7-2l.5-6.5c.1-1.6 1.6-2.8 3.1-2.8h.8c.8 0 1.5.3 2 .8s.8 1.3.7 2l-.5 6.5c-.1 1.6-1.6 2.8-3 2.8h-1c-.7 0-1.4-.3-1.9-.8Zm2.8-10.8c-1.3 0-2.4 1-2.4 2.3l-.6 6.4c0 .6.1 1.2.6 1.7.4.4.9.6 1.5.6h.8c1.3 0 2.4-1 2.5-2.3l.5-6.4c0-.6 0-1.2-.5-1.6-.4-.5-1-.7-1.5-.7h-.9Z"/>
  <path fill="#fff" d="M317.2 104.7c-.4-.5-.6-1.2-.6-1.8.1-1.2 1.1-2.2 2.4-2.2h12c.8 0 1.4.3 1.9.8.4.5.6 1.2.6 1.9-.1 1.2-1.1 2-2.4 2h-12.2c-.6 0-1.3-.2-1.7-.7Zm1.8-3.4c-1 0-1.7.7-1.8 1.6 0 .6.1 1 .5 1.4.3.3.8.6 1.3.6h12.2c.9 0 1.7-.7 1.8-1.6 0-.5-.1-1-.5-1.4a2 2 0 0 0-1.3-.6H319Z"/>
  <path fill="#002031" d="m80.8 159 4 11.6c.2.7 1 1.2 1.9 1l4.2-1.6c.9-.4 1.3-1.2 1-2l-4-11.7c-.1-.6-.6-1-1.2-1h-.2l-.7-.1v.2l-4 1.4c-.9.3-1.3 1.2-1 2.1Z"/>
  <path fill="#025BB7" d="m91.1 167.8-4-11.7c-.2-.7-1-1.2-2-1l-4.2 1.6c-.8.4-1.3 1.2-1 2l4 11.7c.3.8 1.1 1.2 2 1l4.2-1.6c.8-.2 1.2-1.2 1-2Z"/>
  <path fill="#C26E5E" d="m88.1 167.2-2.2 2 1.1 4-5.5 2-1.9-6.5c-.3-1.4.3-3 1.6-3.8l4.4-2.4 2.5 4.7Z"/>
  <path fill="#237978" d="M104.9 182.6s-4.5 7.5-11 11.8c-2.4 1.4-5.6 1.3-7.4-2.4-3-6.3-5.2-17.2-5.2-17.2l5.7-2.6 4.7 13.2 10-14.1 3.2 11.3Z"/>
  <path fill="#0E6866" d="M86.2 182.6c0 2 1.6 3.6 3.6 3.6 1.7 0 3.2-1.3 3.4-3l-1.6 2.3-2.3-6.4a3.6 3.6 0 0 0-3.1 3.5Zm-5-7.7.2.8a3.5 3.5 0 0 0 5.6-3v-.4l-5.7 2.6Zm4.3 14.8a65.9 65.9 0 0 0 1.5 3.2v-.3c0-1.3-.6-2.3-1.5-3Zm7.1 2.9c0 .7.3 1.5.7 2.1.2 0 .4-.3.5-.3 2-1.2 3.6-2.7 5-4.2a3.8 3.8 0 0 0-2.7-1.2c-2 0-3.5 1.6-3.5 3.6Zm6.3-10c0 2 1.5 3.4 3.4 3.5l2.6-3.5-1-3.3c-.4-.2-.9-.3-1.4-.3-2 0-3.6 1.6-3.6 3.6Z"/>
  <path fill="#002031" d="M83.5 165.6v-.3l2.7-1.6h.2v.3l-2.7 1.6h-.2ZM84.6 167.3v-.3l2.5-1.6h.3l-.1.3-2.5 1.6h-.2Z"/>
  <path fill="#C26E5E" d="m116.7 242.5 10.8 2.5 1.3-6.5-7.4-3.5-4.7 7.5ZM95 276.2l-2.4 6.5-9.3-2L86 273l9 3.3Z"/>
  <path fill="#002031" d="M112 168.6c.8 2.5 3.3 4 5.8 4.6 1 .3 2 .4 3 .4 1-.1 2-.6 2.7-1.3l1.6 2c1.1-1 4-2.9 3.7-7-.1-3.9-3.4-4.9-3.8-6.5-.6-3 2-4 1.4-7.7-.4-2.3-2.1-3-2.1-5.3 0-6.3-4.9-8.4-10.3-6.6v.4c.3.3.7.6.6.7-.3.2-.5.4-.5.7-.6 1.6-.4 3.3-.3 4.9a23 23 0 0 0 1.5 7.5c.2 1-.3 2.2-.8 3.2-1 2.1-2 4.3-2.4 6.6-.2 1.2-.2 2.3 0 3.4Z"/>
  <path fill="#002031" d="M118 153.3v-5.2c0-1.2 0-2.5-.5-3.5-.6-1.5-3.4-3-4.4-1.1-.5 1-.6 1.6-1.5 2.3-1 .8-2.2 1.2-3.3 2-1 .5-1.9 1.4-2 2.6-.1 1 .4 2 .5 3 0 1.2-.4 2.4-1.2 3.3-.5.6-1.2 1-2 1.6-.6.5-1.2 1.3-1.2 2.2 0 .7.4 1.4.4 2.2 0 1.2-1.8 1.7-2.5 3.1-1.5 3.3 1.9 6.4 3.2 7.4 2 1.5 4.5 2.2 7 2.5l.5-.5a9 9 0 0 0 1.7-3.2c1.5-4.2 2.3-8.8 3.7-13.2.5-1.8 1.3-3.7 1.6-5.5Z"/>
  <path fill="#F17277" d="m89 237.6 8.7 2 1.3-2.2a72.3 72.3 0 0 1 8.8-11.2l-1.5-.8s6.6-30.9 6.3-30.9l-9.8 1.1-18.1 32.2a7.4 7.4 0 0 0 4.2 9.8Z"/>
  <path fill="#F09899" d="M123.8 240.8a4.7 4.7 0 0 1-5.4 2.8l-11.6-2.5c1.7-2.8 3.5-5.5 5.1-8.3l1.5-2.8 8.4 4.8c2.1 1.2 3 3.8 2 6Z"/>
  <path fill="#F17277" d="M122.1 239.8a5.4 5.4 0 0 1-6.2 3.2l-13.2-2.8c2-3.2 4-6.3 5.8-9.6l1.7-3 9.6 5.4a5.4 5.4 0 0 1 2.3 6.8Z"/>
  <path fill="#002031" d="m109.4 241.7 3.4.8 2.3-12.2-5.7 11.4Z"/>
  <path fill="#F09899" d="m96.6 272.4-1.5 4-9.4-2.8 1-3.3 9.9 2.1Z"/>
  <path fill="#fff" d="m89.4 272-.7 2.5.5.1.8-2.4-.6-.2ZM92.5 272.9l-.7 2.4.5.2.8-2.5-.6-.1Z"/>
  <path fill="#F17277" d="m105.5 194.7-19.9 71.6c-.7 2.3.7 4.8 3 5.5l5 1.4c2.3.7 4.6-.4 5.4-2.5 2.7-6.5 10.8-29.4 13.1-33.4a184 184 0 0 0 12.6-27.1c.8-9.2-4.6-12-4.6-15.5h-14.6Z"/>
  <path fill="#237978" d="M99 176.9c-.6 3.4 4.4 16.2 4 18.6l17.4.3c1-9.8 4.3-16 4.3-16l2.7-.4 1.6-5c.7-4-2.2-7.7-6.3-7.7h-16c-2.8 1.6-7.3 6.3-7.8 10.2Z"/>
  <path fill="#0E6866" d="M99.3 181c.3 1.4.7 3 1.2 4.4.6.5 1.2.7 2 .7 2 0 3.6-1.6 3.6-3.5 0-2-1.6-3.6-3.6-3.6-1.4 0-2.6.8-3.2 2Zm28.2-2-1.6.7 1.4-.2.2-.4Zm-22.2 13.6c0 1.3.7 2.4 1.8 3l3.4.1c1.2-.6 2-1.8 2-3.1 0-2-1.7-3.6-3.6-3.6-2 0-3.6 1.6-3.6 3.6Zm12.8 0c0 1.5.9 2.8 2.2 3.3a65 65 0 0 1 1.2-6.9c-2 0-3.4 1.6-3.4 3.6Zm-5.7-20c0-1.9-1.6-3.5-3.5-3.5a3.6 3.6 0 0 0 0 7.1c2 0 3.5-1.6 3.5-3.5Zm-.7 10c0 1.9 1.6 3.5 3.5 3.5 2 0 3.6-1.6 3.6-3.5a3.6 3.6 0 0 0-7.1 0Zm10-6.3c1.9 0 3.5-1.7 3.5-3.6a3.6 3.6 0 0 0-7.1 0c0 2 1.6 3.6 3.5 3.6Z"/>
  <path fill="#C26E5E" d="M106.7 166.8H123a17 17 0 0 1-11.2 4.7c-4.2-.3-5.2-4.8-5.2-4.7Z"/>
  <path fill="#C26E5E" d="M107.9 167.5h4.8l.3-3.6-1.3-.3-.4 1a2 2 0 0 1-1.6 1.1l-3 1 1.2.8Z"/>
  <path fill="#FC0" d="M84.7 278.7c1.2 1.2 3.6 3.2 5.8 3a4 4 0 0 0 3.3-2.2c.1-.5 1.8-.3 2 .2l1 7.6H69.2s0-1.7 2-2.7l5-1.8 6.5-4.4c.7-.3 1.5-.2 2 .3Z"/>
  <path fill="#FE6F43" d="M91.6 287.3c-.4-4.5 4.5-4.7 4.5-4.7l.6 4.7h-5Z"/>
  <path fill="#fff" d="M96.8 287.3H69v2.6h28l-.2-2.6Z"/>
  <path fill="#002031" d="m76.9 282.2-.2.5 2.7.8.2-.6-2.7-.7ZM78.6 281.4l.2-.6 2.8.8-.2.6-2.8-.8Z"/>
  <path fill="#C8E7FC" d="M127.1 256.9v-11h7.3v11c0 2-1.6 3.6-3.6 3.6s-3.7-1.6-3.7-3.6Z"/>
  <path fill="#fff" d="m124.4 245.9 2.8 6.5.5 3.9c0 .7.3 1.1.5 1.4l-.3.7h2c2 0 4-5.5 4.5-11.6.1-2.1-.1-6-.3-8.6a3 3 0 0 0-3.2-2.9l-4 .2c-.5.2-.7 1.6-.3 1.9.9.4 1.9 1.7 1.8 3-.2 2.9-2.7 2-3.9 3-.4.5-.2 1.9 0 2.5Z"/>
  <path fill="#FC0" d="M123.2 243.5c1.2-1 3.7-.2 4-3 0-1.4-1-3-1.8-3.4-.6-.3-.3-1.5.2-1.6l4-.2a3 3 0 0 1 3.2 2.9c.2 2.6.5 6.4.3 8.6-.5 6.2-2.6 11.6-4.4 11.6-1.1 0-2.2-.5-2.3-2.1l-.5-4-2.8-6.4c-.3-.6-.5-2 .1-2.4Z"/>
  <path fill="#FE6F43" d="M132.7 238.2a3 3 0 0 0-3.3-2.9l-1 .1c0 1.8 1.2 4.5 4.4 5l-.1-2.2Z"/>
  <path fill="#002031" d="M124.5 249h.3-.5s0-1.5 2-1.5v.6c-1.4 0-1.5.8-1.5.9h-.3ZM125.4 250.9h.4-.6s0-1.6 2-1.6v.6c-1.3 0-1.4.9-1.4 1h-.4Z"/>
  <path fill="#C26E5E" d="m114.4 157-4.4 10.2 8.2-.3 2-12.6-5.8 2.8Z"/>
  <path fill="#A95643" d="m116.6 159.4-3.3.3-1 2.3 4.3-2.6Z"/>
  <path fill="#C26E5E" d="M115 146c-3.7 0-6.3 3-6.9 6.7-.8 4.6 1.8 7.7 6.1 7.3 3.8-.4 7.4-3.5 7.5-7.3 0-3.7-2.8-6.8-6.6-6.8Z"/>
  <path fill="#002031" d="M106.8 143.3v2.8c.2.5.3 1 .6 1.4.5.5 1 .8 1.5 1 .5.2 1 .2 1.7.2 1.4 0 3 0 4.3-.6a6.6 6.6 0 0 0 3.5-2.7l-.3.7c.5-.5 1-1.1 1.4-1.8.2-.2.3-.5.2-.7l-.3-.4-.8-.5-1.3-.5c-1-.3-1.6-1.5-3-1.2-.8.2-1.5.9-2 .6a5 5 0 0 0-1.7-.6 3 3 0 0 0-1 .2c-.7.3-1 2-1 2l-.4-.4c-.5-.3-1.3 0-1.4.5Z"/>
  <path fill="#002031" d="M118.4 145.7c1.5-.4 3.2.3 4.2 1.4 1.3 1.6 1.6 3.8 1.5 5.8-.2 2.7-1 5.4-2.4 7.8-.2.2-.3.5-.6.4l-.3-.1c-.7-.6-1.9 1.8-1.8 1 .4-3 1-5.6 0-6.9l-2-3c-.6-.7-.8-1.7-.7-2.7.1-1.5.5-3.3 2-3.7Z"/>
  <path fill="#C26E5E" d="m125.1 202.4-1.2 1.4-.4 1.5-1.5 2-.5-.2-2.4-1.4-1.7-1.6-1.3-1.8 4.2-3 4.8 3Z"/>
  <path fill="#A95643" d="M124 203.5v.3l-.5 1.5-.5.7c-2.2-2.3-3.2-6.3-3.2-6.3l4.3 3.8Z"/>
  <path fill="#237978" d="m119 175.8 11.2 13-10.8 10.5 5.3 4.7s9.5-8.5 12-11a6.4 6.4 0 0 0 .9-8.4l-9.7-15-9 6.2Z"/>
  <path fill="#0E6866" d="M124.5 202.5c0 .5 0 1 .3 1.5l1.7-1.5c.9-.8 2-2 3.4-3-.5-.5-1.2-.6-2-.6-2 0-3.6 1.6-3.4 3.6Zm-.6-7.5-.8.8c.7-.3 1.3-.8 1.7-1.6l-.9.8Zm4-8.9c2 0 3.7-1.6 3.7-3.5 0-2-1.7-3.6-3.6-3.6a3.6 3.6 0 0 0-3.6 3.1l3.4 4h.2Zm-8.5-10.6c.6.5 1.4.8 2.2.8a3.6 3.6 0 0 0 3.4-4.7l-3.6 2.5-2 1.4Zm11.4 16.7c0 1.7 1.2 3.2 2.8 3.5l.5-.4c.2 0 .3-.3.4-.3l.1-.1.4-.4.3-.3h.2c0-.2.1-.3.2-.3l.2-.1.2-.3h.1l.2-.2v-.1l.3-.3.6-.6.5-.7a3.6 3.6 0 0 0-3.5-2.6c-2 0-3.6 1.6-3.5 3.2Zm1.2-16.4c-1-1.2-1.7-2.5-2.4-3.5v.2c0 1.6 1 2.8 2.4 3.3Z"/>
  <path fill="#002031" d="M130 189.2v-.4l.4-.1 2 .3-.2.6-1.2-.2.3.5-.5.4-.8-1.1ZM115.2 201.3l.6-.1s1.7 4.2 7 6.2l-.2.6c-5.6-2.2-7.2-6.4-7.4-6.7Z"/>
  <path fill="#fff" d="m91.9 241.2 11.7-35.2-2.2-.3v-.5l3 .3-12 36-.5-.3Z"/>
  <path fill="#002031" d="M111.2 156.4c-.2 0-.2-.2-.2-.3l.3-.1c1.2.3 2 0 2.5-.9 0 0 .2-.2.3 0 0 0 .1 0 0 .2-.3.7-1 1.2-2 1.2l-1-.1Z"/>
  <path fill="#fff" d="M107.4 151.4c0-1.2 1-2.2 2.2-2.2 1.1 0 2 1 2 2.2 0 1.2-.9 2.2-2 2.2-1.2 0-2.2-1-2.2-2.2Zm.5 0c0 1 .7 1.8 1.7 1.8.9 0 1.7-.8 1.7-1.8s-.8-1.8-1.7-1.8c-1 0-1.7.8-1.7 1.8ZM112.2 151.8c0-1.2 1-2.2 2.1-2.2 1.2 0 2.1 1 2.1 2.2 0 1.2-.9 2.2-2 2.2-1.3 0-2.2-1-2.2-2.2Zm.4 0c0 1 .8 1.8 1.7 1.8 1 0 1.7-.8 1.7-1.8s-.8-1.8-1.7-1.8c-1 0-1.7.9-1.7 1.8Z"/>
  <path fill="#002031" d="M111.6 154.6s-.7-.2-1-.6c0-.2.1-.8.6-1.5l.3-.8c0-.2.2-.2.3-.2l.1.3c0 .3-.2.5-.4.8-.2.4-.6 1-.5 1.2 0 .2.5.4.6.4l.2.2-.2.2Z"/>
  <path fill="#fff" d="m112.4 151.5-1-.1-.1-.3.2-.2 1 .1.1.3s0 .2-.2.2ZM117 152h-.8l-.2-.3.3-.2.6.1.2.3s0 .2-.2.2Z"/>
  <path fill="#C26E5E" d="m117.7 167.7 1.1-5-.2 1.2c-.1.9.5 1.8 1.3 2l3.2.8-5.4 1Z"/>
  <path fill="#002031" d="m121.9 178.7-.5.4 3.1 3.6.5-.4-3.1-3.6Z"/>
  <path fill="#fff" d="M102 195.6c.2-1.2-.8-4.5-1.7-7.9a37.4 37.4 0 0 1-2.1-10.3c.2-1.9 1-4.6 2.9-6.7l.5.5c-1.4 1.6-2.5 4-2.7 6.3-.2 1.7 1 6.2 2 10s2 7 1.8 8.1h-.7Z"/>
  <mask id="a" width="62" height="38" x="155" y="89" maskUnits="userSpaceOnUse" style="mask-type:alpha">
    <path fill="#025BB7" d="M215.8 89.6H159c-.4 0-.7.3-.7.7l-3 35.4c0 .4.3.7.7.7h56.7c.4 0 .7-.3.7-.7l3-35.4c0-.4-.3-.7-.7-.7Z"/>
  </mask>
  <g mask="url(#a)">
    <path fill="#004995" d="M217 88.5h-62.2V127H217V88.5Z"/>
    <path fill="#FFEC00" d="m185.7 92.7-.5 1.4h-1.6l1.2 1-.3 1.3 1.2-.8 1.2.8-.3-1.3 1.2-1h-1.6l-.5-1.4ZM197.4 99.3l-.5 1.5h-1.5l1.2 1-.4 1.3 1.2-.8 1.2.8-.3-1.4 1.2-1H198l-.6-1.4ZM185.7 119l-.5 1.5h-1.6l1.2 1-.3 1.4 1.2-.9 1.2.9-.3-1.4 1.2-1h-1.6l-.5-1.4ZM171.9 105.9l-.6 1.5h-1.5l1.2 1-.3 1.3 1.2-.9 1.2.9-.3-1.4 1.1-1h-1.5l-.5-1.4ZM199.5 105.9l-.5 1.5h-1.6l1.2 1-.3 1.3 1.2-.9 1.2.9-.3-1.4 1.2-1H200l-.5-1.4ZM178.8 94.6l-.5 1.5h-1.6l1.2 1-.3 1.3 1.2-.8 1.2.8-.3-1.3 1.2-1h-1.6l-.5-1.5ZM192.6 94.6l-.5 1.5h-1.6l1.2 1-.3 1.3 1.2-.8 1.2.8-.3-1.3 1.2-1H193l-.5-1.5ZM178.8 117l-.5 1.5h-1.6l1.2 1-.3 1.3 1.2-.7 1.2.7-.3-1.3 1.2-1h-1.6l-.5-1.4ZM192.6 117l-.5 1.5h-1.6l1.2 1-.3 1.3 1.2-.7 1.2.7-.3-1.3 1.2-1H193l-.5-1.4ZM174 99.3l-.6 1.5H172l1.2 1-.3 1.3 1.1-.8 1.3.8-.4-1.4 1.2-1h-1.5l-.6-1.4ZM174 112.5l-.6 1.4H172l1.2 1-.3 1.3 1.1-.8 1.3.8-.4-1.3 1.2-1h-1.5l-.6-1.4ZM197.4 112.5l-.5 1.4h-1.5l1.2 1-.4 1.3 1.2-.8 1.2.8-.3-1.3 1.2-1H198l-.6-1.4Z"/>
  </g>
</svg>
