<svg xmlns="http://www.w3.org/2000/svg" id="Layer_1" x="0" y="0" version="1.1" viewBox="0 0 335 236" xml:space="preserve">
  <style>
	.st2{fill:#fff}.st4{fill:#dceefd}.st5{fill:#002031}.st6{fill:#fc0}.st7{fill:#f17277}.st10{fill:#f4c9db}.st20{opacity:.25}.st22{fill:#eda7c5}.st23{fill:#fe6f43}.st24{fill:#104a4a}.st25{fill:#fe9c7e}.st27{fill:#dd933c}.st30{fill:#a7fac1}.st36{fill-rule:evenodd;clip-rule:evenodd;fill:#002031}
  </style>
  <g class="st20">
	<path d="M0 77.8v125L104.2 0h-24z" class="st2"/>
  </g>
  <path fill="#27dc71" d="M304 212.1c0 3.4-28.5 3.7-108.6 3.7-77.1 0-146.6-2-146.6-3.7 0-1.7 69.5-3.7 146.6-3.7 80.8 0 108.6.6 108.6 3.7z"/>
  <path d="M62.8 55.9l4-3c.3-.2.7-.2 1-.1.4.3.6.8.3 1.3l-2.3 2.6-3-.8z" class="st10"/>
  <path d="M60.4 57.6l3.8-2.8h.1l9.4 2 .3 1.8-7 .1-4.6 3.1-2-4.2zM81.6 188l-1.2 6.5 1.7 5 4.1-1.7 3.8-6.6z" class="st10"/>
  <path d="M51 86.6l-8.6-8.2c-2.2-2.1-2.3-5.2.1-7l17.8-13.8 2.9 4.4L51 73.9l6.6 5.6-6.6 7.1zM86.7 78.1l5.9-8.1-13-17 7-.1 14 15.3a4.7 4.7 0 01.3 5.9L87.3 92.5l-.6-14.4z" class="st10"/>
  <path d="M85.5 108.6l-1.6 1.6.5-1.8zM64.7 109.6l-5.1-.3s1.6-2.8 4.7-3.4l.4 3.7z" class="st5"/>
  <path d="M67.4 58.3c-.6 0-2.4.9-3 1.2a10.6 10.6 0 00-4.9 5.1c-1.1 2.5-.2 5.2-1.3 7.8l-1.1 2.3c-.5 1.7 0 4 1 5.5.2.3 2.4 3 2.9 2.6 0 0 6.9-4.3 17.1-3.6 3.6.3 5.2-.9 5.9-1.8.6-.7.6-1.6.3-2.4-1.3-2.8-6.2-13.5-7-14-3-.7-9.8-2.7-9.9-2.7z" class="st2"/>
  <path d="M61.3 83.3l4 30.5 17.6.3L87 98.4c.7-2.8.4-5.8-.9-8.4l-3.4-6.6-21.4-.1z" class="st10"/>
  <path d="M64.3 106l.3 2 19.7.5-15.8-5.5z" class="st22"/>
  <path fill="#237978" d="M102.4 160.5l-19.5-46.7H65.1l-1.1.8a18.3 18.3 0 00-8 16.8l4.8 57.8a3 3 0 003 2.8h7.7a3 3 0 003-3l-.4-48.4L87 163.9l-7.2 21.8c-.4 1.3.3 2.7 1.5 3.1l8.7 3.1c1.3.5 2.7-.2 3.2-1.5l9.3-25.3c.5-1.5.5-3.1-.1-4.6z"/>
  <path d="M74.5 142.5a.4.4 0 01-.4-.4v-9.7l.1-.3.3-.1h3.8c.2 0 .4.2.4.4s-.2.4-.4.4h-3.4v9.3c-.1.2-.2.4-.4.4z" class="st5"/>
  <path d="M64.9 68.6l1.7 10.5h8.1l-3.4-7.4z" class="st10"/>
  <path d="M73.5 76.6l-.8-1.9-4.2-.6z" class="st22"/>
  <path d="M62.6 66.7c.2 4.6 5.2 7.3 5.2 7.3s6.3 1.6 9.3-.4c3.9-2.7.2-11-.9-13.1-.9-1.6-3.7-2.1-5.7-2.1a8 8 0 00-7.9 8.3z" class="st10"/>
  <path d="M73.9 72c-.7 0-1.3-.3-1.8-.8a.3.3 0 010-.4c.1-.1.3-.1.4 0 .7.8 1.8.9 3.1.1.1-.1.3 0 .3.1.1.1 0 .3-.1.3-.7.5-1.3.7-1.9.7zM74.7 69.7l-.2-.1c-.1-.1 0-.3.1-.3.1-.1.5-.3.5-.6 0-.2-.6-.8-.9-1.2l-.7-.8c-.1-.1 0-.3.1-.3.1-.1.3 0 .3.1l.7.8c.7.7 1.1 1.2 1.1 1.6-.1.6-.7.9-.8 1l-.2-.2z" class="st5"/>
  <path d="M89.6 89.4V74.1l-6.5 7.7c-.9.5-1.7.3-2.6.3L76 82l-1.3-2.8h-8.1l.4 3.1h-3.7a5 5 0 01-2.6-.8l-3.2-2-6.5 7.1 8.3 8.3.2 14.4s5.3-5.8 11.3-3.8c6 2 14.5 3.2 14.5 3.2l2.4-9.5c.5-1.3.3-3.3-.6-6.6l2.5-3.2z" class="st23"/>
  <path d="M70.5 67.7l-.8-.2c-.1-.1-.2-.2-.1-.3.1-.1.2-.2.3-.1.1 0 1.1.5 1.6-.5.1-.1.2-.2.3-.1.1.1.2.2.1.3-.3.6-.9.9-1.4.9zM75.9 66l-.8-.2c-.1-.1-.2-.2-.1-.3.1-.1.2-.2.3-.1.1.1 1.1.5 1.6-.5.1-.1.2-.2.3-.1.1.1.2.2.1.3-.3.7-.9.9-1.4.9z" class="st5"/>
  <path d="M63 69s1.6-.6 2.4.8c0 0 2.2-3.5.3-6.2l1.6 1.5 11.3-1.6s-1.5-6.5-7.9-5.8l-2.2.3a7.8 7.8 0 00-6.2 9.9c.1.5.3 1 .7 1.1z" class="st2"/>
  <circle cx="64.3" cy="70.4" r="2.3" class="st10"/>
  <path d="M63.4 191.8h9v1.7h-9z" class="st24"/>
  <path d="M80.7 190.2h9v1.7h-9z" class="st24" transform="rotate(19.5 85.2 191)"/>
  <path d="M83 114.2H65.3c-.2 0-.4-.2-.4-.4s.2-.4.4-.4H83c.2 0 .4.2.4.4s-.2.4-.4.4z" class="st5"/>
  <path d="M86.5 197.4c-1.5.3-2.4 2.7-4.8 1.1a3.5 3.5 0 01-1.3-3.3c.1-.5-1.2-1.2-1.6-.9l-2.6 3c-1.1 1.3-1 3.2.2 4.3a63 63 0 006.5 5.6c5 3.5 10.5 5.3 11.7 3.9l1.3-1.6-.7-.2c-.1-.4-.3-.9-.8-1.3l-2.7-2.8-3.3-6.3c-.3-.6-1.2-1.6-1.9-1.5z" class="st2"/>
  <path d="M89.3 197.7l3.3 6.3 2.7 2.8c1.2 1.1.9 2.3.2 3.1-1.2 1.4-6.7-.4-11.7-3.9a63 63 0 01-6.5-5.6 3.1 3.1 0 01-.2-4.3l2.6-3c.4-.3 1.5.3 1.4.8a4 4 0 001.4 3.5c2.4 1.6 3.3-.8 4.8-1.1.8-.1 1.7.9 2 1.4z" class="st23"/>
  <path d="M78.9 201.9c1.6-2.8.3-5.5-1.1-6.6l-.7.8c-1.1 1.3-1 3.2.2 4.3l1.6 1.5z" class="st25"/>
  <path d="M71.5 193.5l-.1 12-6.8-.1-.8-11.9z" class="st10"/>
  <path d="M61.6 201.1l-3.4 4.1-2.1 1.7c-1.8.9-1.8 2.5-1.8 2.5h18.2l-.3-5.3c0-.6-.6-1.1-1.2-1.1l-3.7.1s-.4-1-1.6-2.1c-.4-.4-3.3-1-4.1.1z" class="st23"/>
  <path d="M72.5 209.4l-.1-3.3s-2.8.5-2.7 3.3h2.8z" class="st25"/>
  <path d="M72.8 211.9H54.2v-2.5h18.4z" class="st2"/>
  <path d="M57.9 205.2v-.7l2.8-.1v.8z" class="st5"/>
  <path d="M59.3 203h3.2v.7h-3.2z" class="st5" transform="matrix(.9993 -.03653 .03653 .9993 -7.4 2.4)"/>
  <path d="M87.8 200.2h2.9v.7h-2.9z" class="st5" transform="rotate(-24.9 89.2 200.6)"/>
  <g>
	<path d="M89.6 202.5h2.3v.7h-2.3z" class="st5" transform="rotate(-24.9 90.7 203)"/>
  </g>
  <g>
	<path d="M79.6 53L77 50.1a1 1 0 010-1c.2-.3.5-.3.8-.2l2 1-.8-4.4c-.1-.5.2-1.1.7-1.1.4-.1.8.2.9.7l1.4 4.5-.4-4.9c0-.5.3-1 .8-1.1.5-.1.9.3 1 .9l.7 4.9.5-4.1c.1-.7.8-1.1 1.4-.7.3.2.5.6.5 1l-.2 4.2.7-1.6c.2-.6 1-.6 1.2 0v.6l-1.9 7.5-6.7-3.3z" class="st10"/>
  </g>
  <g>
	<path d="M50.4 75.5h-.1c-.1-.1-.2-.2-.1-.3l.4-.8h-.8l-.2-.2.2-.2h1.7l-.8 1.6-.3-.1z" class="st5"/>
  </g>
  <g>
	<path d="M83.3 54.1c-.1 0-.1 0 0 0-.3 0-.3-.2-.3-.3.3-.6.3-1.1 0-1.5-.4-.7-1.6-.7-1.7-.7-.1 0-.2-.1-.2-.3 0-.1.1-.3.3-.2.1 0 1.5.1 2.1 1 .3.5.3 1.2 0 2h-.2z" class="st5"/>
  </g>
  <g>
	<path d="M93.8 71.3h-.1l-1.3-.8-.1-.3.2-.2 1.5-.3.3.2-.2.3-.9.2.8.5c.1.1.2.2.1.3l-.3.1z" class="st5"/>
  </g>
  <g>
	<path d="M88.6 165.4h-.2l-1.6-.8-.2-.3.2-.3 1.6-.9c.2-.1.4 0 .5.1.1.2 0 .4-.1.5l-1 .5 1 .5c.2.1.3.3.2.5l-.4.2z" class="st5"/>
  </g>
  <g>
	<path fill="#134bb9" d="M211.5 211.6h-82c-6 0-8.7-3.1-9.2-8.6L107.1 28.6c-.3-4.8 2.3-7.9 7.6-7.9h82.4c4.8 0 8.9 3.9 9.2 8.6L219.5 203a8 8 0 01-8 8.6z"/>
	<path fill="#1bc1d7" d="M214.6 211.6h-76.9a10 10 0 01-10-9.3L114.5 28.8a7.5 7.5 0 017.5-8.1h78.2c4.8 0 8.9 3.9 9.2 8.6l.5 6.5 2.5 81.6 9.3 72.8.9 12.8a8 8 0 01-8 8.6z"/>
	<path d="M221.7 190.4h-95L115 36.1h94.9zM174.3 207.5a6.9 6.9 0 01-6.7-6.2 5.7 5.7 0 015.8-6.2c3.4 0 6.4 2.8 6.7 6.2.1 1.7-.4 3.2-1.5 4.4a5.8 5.8 0 01-4.3 1.8zm-.9-11.7c-1.5 0-2.8.6-3.7 1.6a5 5 0 00-1.3 3.9 6 6 0 005.9 5.5c1.5 0 2.8-.6 3.7-1.6a5 5 0 001.3-3.9 6 6 0 00-5.9-5.5z" class="st2"/>
	<path d="M205.2 139.8h-69.1c-2.2 0-4-1.8-4.2-3.9L127 69a5.4 5.4 0 015.4-5.8h66c2.9 0 5.2 2.2 5.4 5.1l5 67.7a3.5 3.5 0 01-3.6 3.8z" class="st2"/>
	<path d="M195.9 156.7h-47.8a2.6 2.6 0 01-2.6-2.5c-.1-1.4.9-2.5 2.3-2.5h47.8c1.4 0 2.5 1.1 2.6 2.5.1 1.4-.9 2.5-2.3 2.5zM175.9 166.2h-27.1a2.6 2.6 0 01-2.6-2.5c-.1-1.4.9-2.5 2.3-2.5h27.1c1.4 0 2.5 1.1 2.6 2.5.1 1.4-.9 2.5-2.3 2.5zM196.6 166.2h-10.8a2.6 2.6 0 01-2.6-2.5c-.1-1.4.9-2.5 2.3-2.5h10.8c1.4 0 2.5 1.1 2.6 2.5.1 1.4-.9 2.5-2.3 2.5z" class="st4"/>
	<path d="M110.7 57.8h-.8c-1.6 0-3-1.3-3.1-2.9l-.5-6.4c-.1-.8.2-1.5.7-2.1.5-.6 1.2-.9 2-.9h.8c1.6 0 3 1.3 3.1 2.9l.5 6.4c.1.8-.2 1.5-.7 2.1-.5.6-1.2.9-2 .9zM109 46.4a2 2 0 00-1.5.6c-.4.4-.6.9-.5 1.5l.5 6.4a2.4 2.4 0 002.3 2.2h.8a2 2 0 001.5-.6c.4-.4.6-.9.5-1.5l-.5-6.4a2.4 2.4 0 00-2.3-2.2h-.8zM111.7 71.8h-.8c-1.6 0-3-1.3-3.1-2.9l-.5-6.4c-.1-.8.2-1.5.7-2.1.5-.6 1.2-.9 2-.9h.8c1.6 0 3 1.3 3.1 2.9l.5 6.4c.1.8-.2 1.5-.7 2.1-.5.6-1.2.9-2 .9zM110 60.3a2 2 0 00-1.5.6c-.4.4-.6.9-.5 1.5l.5 6.4a2.4 2.4 0 002.3 2.2h.8a2 2 0 001.5-.6c.4-.4.6-.9.5-1.5l-.5-6.4a2.4 2.4 0 00-2.3-2.2h-.8z" class="st5"/>
	<path d="M165.7 30.7h-12c-1.3 0-2.3-.9-2.5-2.2-.1-.7.1-1.4.6-1.9s1.1-.8 1.8-.8h12c1.3 0 2.3.9 2.5 2.2.1.7-.1 1.4-.6 1.9-.4.5-1.1.8-1.8.8zm-12-4.2c-.5 0-.9.2-1.3.6-.3.4-.5.8-.4 1.3.1.9.8 1.5 1.7 1.5h12c.5 0 .9-.2 1.3-.6.3-.4.5-.8.4-1.3-.1-.9-.8-1.5-1.7-1.5h-12z" class="st2"/>
  </g>
  <g>
	<path d="M223.7 62.6l9 24.3a6 6 0 006 4l14 1.3-.7-11.5-12.2-.1-9.7-18.6-6.4.6" class="st27"/>
	<path d="M300.1 98.1l-6.3-11.9a10.5 10.5 0 00-9-5.5h-.8l-16.5-.1-15.4.1.2 11.5 8.1.9-7 25.8h36.4l-.2-21 10.5.2z" class="st6"/>
	<path fill="#ffdb4b" d="M272.7 104.9c-.5 0-.9.4-.9.9s.4.9.9.9.9-.4.9-.9-.4-.9-.9-.9zm-3.5-5.2c-.5 0-.9.4-.9.9s.4.9.9.9.9-.4.9-.9-.4-.9-.9-.9zm2.3-14c.5 0 .9-.4.9-.9s-.4-.9-.9-.9-.9.4-.9.9.4.9.9.9zm1 10.4c0-.5-.4-.9-.9-.9s-.9.4-.9.9.4.9.9.9.9-.4.9-.9zm-11-5.7c.5 0 .9-.4.9-.9s-.4-.9-.9-.9-.9.4-.9.9.4.9.9.9zm.2 21.1c-.5 0-.9.4-.9.9s.4.9.9.9.9-.4.9-.9-.4-.9-.9-.9zM277 88c-.5 0-.9.4-.9.9s.4.9.9.9.9-.4.9-.9-.4-.9-.9-.9zm-8 24.3c-.5 0-.9.4-.9.9s.4.9.9.9.9-.4.9-.9c-.1-.5-.5-.9-.9-.9zm.1-22.4c0-.5-.4-.9-.9-.9s-.9.4-.9.9.4.9.9.9.9-.4.9-.9zm-6.9 10.9c-.5 0-.9.4-.9.9s.4.9.9.9.9-.4.9-.9-.4-.9-.9-.9zm20.8 11.4c-.5 0-.9.4-.9.9s.4.9.9.9.9-.4.9-.9-.4-.9-.9-.9zm.2-12.1c-.5 0-.9.4-.9.9s.4.9.9.9.9-.4.9-.9-.4-.9-.9-.9zm-4.4 16.9c-.5 0-.9.4-.9.9s.4.9.9.9.9-.4.9-.9-.4-.9-.9-.9zm-3.5-6.2c-.5 0-.9.4-.9.9s.4.9.9.9.9-.4.9-.9-.4-.9-.9-.9zM298 97c-.5 0-.9.4-.9.9v.1h1.7v-.2c.1-.4-.3-.8-.8-.8zm-14.1-7.9c-.5 0-.9.4-.9.9s.4.9.9.9.9-.4.9-.9-.4-.9-.9-.9zm-4.3-4.7c.5 0 .9-.4.9-.9s-.4-.9-.9-.9-.9.4-.9.9.4.9.9.9zm-4.2 15.4c-.5 0-.9.4-.9.9s.4.9.9.9.9-.4.9-.9-.4-.9-.9-.9zm5-6.6c-.5 0-.9.4-.9.9s.4.9.9.9.9-.4.9-.9-.4-.9-.9-.9zm-.4 13c-.5 0-.9.4-.9.9s.4.9.9.9.9-.4.9-.9-.5-.9-.9-.9zm-15.6-21.5c.5 0 .9-.4.9-.9s-.4-.9-.9-.9-.9.4-.9.9.4.9.9.9zm21.8 11.4c.5 0 .9-.4.9-.9s-.4-.9-.9-.9-.9.4-.9.9.4.9.9.9zm.7 9.1c-.5 0-.9.4-.9.9s.4.9.9.9.9-.4.9-.9-.4-.9-.9-.9zm2.3 6.2c0 .4.2.7.6.8v-1.6c-.4.2-.6.5-.6.8zm-24.3-3.7c0-.5-.4-.9-.9-.9s-.9.4-.9.9.4.9.9.9.9-.4.9-.9zm7.4 9.4c-.5 0-.9.4-.9.9 0 .4.3.8.7.9h.3c.4-.1.7-.4.7-.9.1-.5-.3-.9-.8-.9zm18.3-28c-.5 0-.9.4-.9.9s.4.9.9.9.9-.4.9-.9-.4-.9-.9-.9zm4 4.6c-.5 0-.9.4-.9.9s.4.9.9.9.9-.4.9-.9-.4-.9-.9-.9zm.3-4.2l.5-.2-.8-1.5c-.3.1-.6.4-.6.8.1.5.5.9.9.9zm-8.8-8c.4 0 .7-.2.8-.5l-1.7-.2c.1.4.4.7.9.7zm1 1.4c-.5 0-.9.4-.9.9s.4.9.9.9.9-.4.9-.9c-.1-.5-.5-.9-.9-.9zm-.9 34.5c-.5 0-.9.4-.9.9l.2.6h1.3l.2-.6c.1-.5-.3-.9-.8-.9zm-30.9-5.3l-.5 1.7.3.1c.5 0 .9-.4.9-.9s-.3-.9-.7-.9zm10 4.8c-.5 0-.9.4-.9.9s.4.9.9.9.9-.4.9-.9-.4-.9-.9-.9zM258.2 85c0-.5-.4-.9-.9-.9s-.9.4-.9.9.4.9.9.9.9-.4.9-.9zm5.7 11.4c0 .5.4.9.9.9s.9-.4.9-.9-.4-.9-.9-.9-.9.4-.9.9zm-2-15.2l-.2-.5h-1.5l-.2.5c0 .5.4.9.9.9s1-.4 1-.9zm-2.4 34.6c-.5 0-.9.4-.9.9s.4.9.9.9.9-.4.9-.9c-.1-.5-.4-.9-.9-.9zm-4.4-26.2c0-.5-.4-.9-.9-.9s-.9.4-.9.9.4.9.9.9c.5.1.9-.4.9-.9zm4.3 17.1c0-.5-.4-.9-.9-.9s-.9.4-.9.9.4.9.9.9.9-.5.9-.9zm-5.1-25.2c.5 0 .9-.4.9-.9h-1.8c0 .6.4.9.9.9z"/>
	<path d="M289.6 97.9l21.1 35.2 6.7.4-17.3-35.4z" class="st27"/>
	<path d="M258.1 121.1l-4.7-2.2h5.5z" class="st5"/>
	<path d="M258.6 118.9l-29.9 76.3h14.2l33.1-76.3z" class="st7"/>
	<path d="M289.8 118.9c.2 8.1-.6 12.8-7.3 12.8h-28.3l4.4-12.8h31.2z" class="st7"/>
	<path d="M270.6 127.8l-8.5 27.8c-.8 2.9-.6 6 .6 8.8l13.4 31h15.2L277.6 160l10-32.2h-17z" class="st7"/>
	<path d="M240.8 195.2l-3.5 9.1-10.1-.4 3.9-8.7zM283.3 204.3l-3.8-8.9h9.9l3.8 8.5z" class="st27"/>
	<path d="M289.7 192h-15.2c-.2 0-.4-.2-.4-.4s.2-.4.4-.4h15.2c.2 0 .4.2.4.4s-.2.4-.4.4zM244.8 191.2h-14.4c-.2 0-.4-.2-.4-.4s.2-.4.4-.4h14.4c.2 0 .4.2.4.4s-.2.4-.4.4zM265.5 143.2h-.1c-.2-.1-.3-.3-.2-.5l4.9-14.5H266c-.2 0-.4-.2-.4-.4s.2-.4.4-.4h4.6l.3.2.1.3-5.1 15c-.1.2-.2.3-.4.3z" class="st5"/>
	<path d="M271.7 86c3.5.3 8.7-2.3 11.1-5.2l-15.3-.1s-.6 4.9 4.2 5.3z" class="st27"/>
	<path d="M281.3 68.1l-2.7 12.8-9.1.3 4.8-11.3z" class="st27"/>
	<path fill="#d2793c" d="M271.9 75.4l1.1-2.5 3.7-.4z"/>
	<path d="M267.2 58.2c-.8 1.2 0 3.9 1.7 3.3a6 6 0 002-3.7c0-1.9-3.2-1-3.7.4z" class="st5"/>
	<path d="M282.8 64.1c-.2 4.5-5.8 8.4-5.8 8.4s-4.8 2.2-8.7-.5c-3.9-2.7 0-11.9 1.1-13.9.9-1.5 3.6-2.1 5.6-2.1 4.5 0 8 3.6 7.8 8.1z" class="st27"/>
	<path d="M284.1 59c.8-5.3-6.9-5.2-6.9-5.2s-.5-1.7-1.3-2.2c-1.4-.8-1.9.7-1.7 1.7-.7-1.2-1.1-3-2.8-3-1.3.3-1.5 2.5-.7 3.2-5.4-4.8-7.5 4.9 2.2 5.9 2.7.3 5.5.2 5.7 0-.3 2.8 1.1 5.6 3.9 6.5.1.1 1.3-3.8 1.6-6.9zM271.7 69.2l-1.1-.1-.2-.3.3-.2c1.4.3 2.4 0 2.8-.9.1-.1.2-.2.3-.1.1.1.2.2.1.3-.3.9-1.1 1.3-2.2 1.3z" class="st5"/>
	<path d="M268.8 66.2a2.6 2.6 0 01-2.5-2.6c0-.7.3-1.4.8-1.9s1.1-.7 1.7-.7c1.4 0 2.5 1.2 2.5 2.6 0 .7-.3 1.4-.8 1.9-.4.4-1.1.7-1.7.7zm-.1-4.5c-.4 0-.9.2-1.2.5-.3.4-.5.8-.5 1.4 0 1 .8 1.9 1.8 1.9.4 0 .9-.2 1.2-.5.3-.4.5-.8.5-1.4 0-1-.8-1.9-1.8-1.9zM274.1 66.7a2.6 2.6 0 01-2.5-2.6c0-.7.3-1.4.7-1.9.5-.5 1.1-.7 1.7-.7 1.4 0 2.5 1.2 2.5 2.6 0 .7-.3 1.4-.7 1.9-.4.4-1.1.7-1.7.7zm-.1-4.5c-.5 0-.9.2-1.2.5-.3.4-.5.8-.5 1.3 0 1 .8 1.8 1.8 1.8.5 0 .9-.2 1.2-.5.3-.4.5-.8.5-1.3 0-.9-.8-1.8-1.8-1.8z" class="st2"/>
	<path d="M271.1 67.2c-.1 0-.8-.2-1.1-.7-.1-.3.1-.9.5-1.8l.4-.9.3-.2.2.3-.4 1c-.2.4-.6 1.2-.5 1.3.1.2.5.4.7.4l.2.3-.3.3z" class="st5"/>
	<path d="M271.9 63.8l-1.1-.1c-.2 0-.4-.2-.3-.4 0-.2.2-.4.4-.3l1 .1c.2 0 .4.2.3.4.1.1-.1.3-.3.3zM280.1 64.9l-4-.5c-.2 0-.3-.2-.3-.4s.2-.3.4-.3l3.9.5c.2 0 .3.2.3.4.1.1-.1.3-.3.3z" class="st2"/>
	<circle cx="280.4" cy="66" r="2.4" class="st27"/>
	<path d="M230.9 64.1l3.3-5.8c.2-.3.1-.8-.1-1-.2-.2-.6-.3-.8-.1l-2.8 2 .1-5c0-.5-.4-1-.9-1-.4 0-.7.3-.8.8l-.8 4.6-.2-4.9c0-.5-.4-1-.9-.9-.5 0-.9.4-.9 1v4.8l-1-3.9c-.2-.7-.9-1-1.5-.5-.3.2-.4.6-.3 1l.5 4.6-1.5-2.1c-.6-.5-1.3-.4-1.5.2-.1.2 0 .4.1.6l3.9 7.1 6.1-1.5z" class="st27"/>
	<path d="M230.2 59.9s-.1 0 0 0c-.1 0-3.1-1-4.7 0-.1.1-.3 0-.3-.1-.1-.1 0-.3.1-.3 1.8-1.1 4.9-.1 5 0l.2.3-.3.1z" class="st5"/>
	<path d="M317 132.7l3.8 4.8c.3.3.4.7.2 1-.2.3-.5.4-.8.3l-2.2-1.3 1.6 4.7c.2.5-.1 1.1-.5 1.2-.4.1-.8-.1-1-.5l-2.1-4.2 1.2 4.7c.1.5-.1 1-.6 1.2a1 1 0 01-1.1-.7l-1.4-4.6.1 4c0 .7-.6 1.2-1.2.9-.3-.1-.6-.5-.6-.9l-.9-4.5-1.4 2.6c-.5.7-1.1.8-1.5.2-.1-.2-.2-.4-.1-.6l2.3-8.1 6.2-.2z" class="st27"/>
	<path d="M289.6 98.3l-.3-.2-2.2-4.1c-.1-.2 0-.4.2-.5.2-.1.4 0 .5.2l2.2 4.1c.1.2 0 .4-.2.5h-.2z" class="st5"/>
	<path d="M226.9 199.7l-6.4 4.6-3.8 1.8c-1.9 1-1.9 2.8-1.9 2.8h26.1l-1.1-7.9c-.2-.6-1.8-.7-2-.1a4 4 0 01-3.2 2.4c-2.2.1-4.6-2-5.8-3.2-.5-.6-1.2-.8-1.9-.4z" class="st6"/>
	<path d="M241.2 211.6h-26.5v-2.7H241z" class="st2"/>
	<path d="M222.1 202.9h.7v2.8h-.7z" class="st5" transform="rotate(-73.1 222.5 204.3)"/>
	<path d="M224 201.4h.7v2.9h-.7z" class="st5" transform="rotate(-73.5 224.4 202.9)"/>
	<g>
	  <path d="M280.9 199.7l-5.6 4.6-3.5 1.8c-1.7 1-1.4 2.8-1.4 2.8h26.1L294 201c-.3-.6-2-.7-2.1-.1a3.1 3.1 0 01-2.8 2.4c-2.2.1-5-2-6.4-3.2-.4-.6-1.2-.8-1.8-.4z" class="st6"/>
	  <path d="M297.3 211.6h-26.5l-.5-2.7h26.3z" class="st2"/>
	  <path d="M276.9 202.8h.7v3h-.7z" class="st5" transform="rotate(-73.9 277.3 204.3)"/>
	  <path d="M280.3 203.7l-2.9-.9.2-.7 2.9.8z" class="st5"/>
	</g>
  </g>
  <g>
	<path d="M214.7 6.2l.9 2.8.4.4 2.8.9c.5.2.5.9 0 1.1l-2.7.9-.4.4-.9 3.4c-.2.6-1 .6-1.1 0l-.9-3.4c0-.2-.2-.3-.4-.4l-2.5-.9a.6.6 0 010-1.1l2.5-.9.4-.4.9-2.8c.1-.5.8-.5 1 0z" class="st30"/>
  </g>
  <g>
	<path d="M59.1 36.1l.6 2 .3.3 2 .6c.4.1.4.7 0 .8l-2 .6-.3.3-.6 2.5c-.1.4-.7.4-.8 0l-.6-2.5c0-.1-.1-.3-.3-.3l-1.8-.6c-.4-.1-.4-.7 0-.8l1.9-.6.3-.3.6-2c0-.4.6-.4.7 0z" class="st30"/>
  </g>
  <g>
	<path d="M249.6 34.8l.6 2 .3.3 2 .6c.4.1.4.7 0 .8l-1.9.6-.3.3-.6 2.4c-.1.4-.7.4-.8 0l-.6-2.4-.3-.3-1.8-.6c-.4-.1-.4-.7 0-.8l1.8-.7.3-.3.6-2c.1-.3.6-.3.7.1z" class="st2"/>
  </g>
  <g>
	<path fill="#3dec94" d="M259.2 21.5l.6 1.8.2.2 1.8.6c.4.1.4.6 0 .7l-1.8.6-.3.3-.6 2.2c-.1.4-.6.4-.7 0l-.6-2.2-.2-.3-1.6-.6c-.3-.1-.3-.6 0-.7l1.6-.6.2-.2.6-1.8c.2-.4.7-.4.8 0z"/>
  </g>
  <g>
	<path d="M74.4 24.8l.4 1.3.2.2 1.3.4c.3.1.3.4 0 .5l-1.3.4-.2.2-.4 1.6c-.1.3-.5.3-.5 0l-.4-1.6-.2-.2-1.2-.4c-.2-.1-.2-.4 0-.5l1.2-.4.2-.2.4-1.3c0-.2.4-.2.5 0z" class="st30"/>
  </g>
  <g class="st20">
	<path d="M218.3 0L335 213.9V48.5L250.6 0h-32.3zM261 0h-8.6L335 47.5V33.8L261 0z" class="st2"/>
  </g>
  <g class="st20">
	<path d="M0 59.6L70.7 0h-1.4L0 58.4z" class="st2"/>
  </g>
  <g id="Symbols_1_">
	<g id="Logo_CoronaCheck_1_" transform="translate(-83 -72)">
	  <g id="Group-5_1_" transform="translate(43 32)">
		<g id="Group-2_1_" transform="translate(40.3 40.3)">
		  <path id="Rectangle_10_" d="M162.7 126.6h-16a3.7 3.7 0 01-3.6-3.3l-1.1-16a3.1 3.1 0 013.1-3.3h16c1.8 0 3.5 1.5 3.6 3.3l1.1 16a3.1 3.1 0 01-3.1 3.3zm-12-8h6.8l-.5-6.8h-6.8l.5 6.8z" class="st5"/>
		  <path id="Rectangle_9_" d="M160.6 97.7h-16a3.7 3.7 0 01-3.6-3.3l-1.1-16a3.1 3.1 0 013.1-3.3h16c1.8 0 3.5 1.5 3.6 3.3l1.1 16c.2 1.8-1.2 3.3-3.1 3.3zm-12-8h6.8l-.5-6.8h-6.8l.5 6.8z" class="st5"/>
		  <path id="Rectangle_8_" d="M189.5 97.7h-16a3.7 3.7 0 01-3.6-3.3l-1.1-16a3.1 3.1 0 013.1-3.3h16c1.8 0 3.5 1.5 3.6 3.3l1.1 16c.2 1.8-1.2 3.3-3.1 3.3zm-12-8h6.8l-.5-6.8H177l.5 6.8z" class="st5"/>
		</g>
	  </g>
	</g>
	<path d="M178.9 111.7h-6.5c-.6 0-1.1-.5-1.1-1.1l-.4-5.4c0-.6.4-1.1 1-1.1h5.4c.6 0 1.1.5 1.1 1.1l.5 6.5zM187 119.2h-7.5l-.6-7.5h7.6zM194.1 126.8h-5.4c-.6 0-1.1-.5-1.1-1.1l-.5-6.5h6.5c.6 0 1.1.5 1.1 1.1l.4 5.4c0 .6-.5 1.1-1 1.1zM193 111.7h-6.5l-.5-6.5c0-.6.4-1.1 1-1.1h5.4c.6 0 1.1.5 1.1 1.1l.4 5.4c.1.6-.3 1.1-.9 1.1zM178.9 126.8h-5.4c-.6 0-1.1-.5-1.1-1.1l-.4-5.4c0-.6.4-1.1 1-1.1h6.5l.5 6.5c0 .6-.5 1.1-1.1 1.1z" class="st36"/>
  </g>
</svg>
