<svg xmlns="http://www.w3.org/2000/svg" fill="none" viewBox="0 0 358 280">
  <path fill="#DCEEFD" d="M99.9 50H0l1.5-.8 3.2-1.6c2-1 4-2 5.7-3.2a33 33 0 0 0 5.3-5.7c1.2-1.6 2.5-3.2 4.1-4.7 3.6-3.4 8.3-5.1 12.7-4.9 5.7.4 9.5 4 12.2 7.2 2.4-3 6-5.3 10.2-6.8 2.8-1 5.2-1.3 7.2-.8 2.5.6 4.5 2.5 5 4.7.5 1.7.1 3.5-.3 5.1 4-1.6 8.2-2.8 12-1.4 2.4 1 3.5 2.6 4.8 4.3.5.8 1.1 1.6 1.8 2.2 3.5 3.7 9.9 4.9 14.4 5.6v.7ZM3.4 49h91.8c-3.7-.8-7.7-2.2-10.2-4.8l-1.9-2.3c-1.2-1.7-2.3-3.3-4.4-4.1-3.7-1.5-8.2 0-12.1 1.8l-.8.3.2-.8c.5-1.8.9-3.7.5-5.6-.5-2-2.2-3.5-4.4-4-2-.5-4.1-.2-6.8.7-4.2 1.5-7.9 4.1-10.1 7l-.4.5-.3-.4c-2.7-3.2-6.5-7-12-7.3-4-.4-8.6 1.4-12 4.6-1.5 1.4-2.8 3-4 4.6-1.7 2-3.3 4.1-5.5 5.9a30.6 30.6 0 0 1-7.6 4ZM128 29H81l1.2-.7c.8-.5 1.4-1.7 2.3-3.2 2.2-3.8 5.4-9.6 14.2-9.7 2.2.2 3.7 2 4.5 3a8 8 0 0 1 1.6 4c1-.8 1.9-1.4 2.9-1.6 1.4-.4 3.4-.2 4.4.8l.8 1.3c0 .3.1.4.3.7.8 1.3 2.9 2.4 6.3 2.9l1 .1c2.1.4 4.2.6 5.9 1.5l1.6 1Zm-44.5-.8h40.3c-1-.3-2.2-.4-3.3-.6l-1-.2c-3.8-.6-6-1.7-7-3.3a3 3 0 0 1-.3-.8l-.6-1c-.7-.7-2.3-1-3.7-.7-1 .3-2.2.9-3.2 2l-1 1 .3-1.4c.2-.8-.3-2.6-1.5-4.2-.7-1-2-2.5-3.8-2.7-8.3 0-11.2 5.3-13.4 9.2l-1.8 2.7ZM164.8 272.7c101.5 0 193.2 2 193.2 3.6 0 1.7-91.7 3.7-193.2 3.7-105.6 0-143.2-.3-143.2-3.7 0-3 36.6-3.6 143.2-3.6Z"/>
  <path fill="#fff" d="M123 0h195.5c.5 0 .8.3.7.8l-22.4 274.8c0 .5-.4.8-.9.8H100.4c-.5 0-.9-.3-.8-.8L122 .8c0-.5.5-.8 1-.8Z"/>
  <path fill="#F2F2F7" d="M220.2 5.7h2l-21.7 265h-2l21.7-265Z"/>
  <path fill="#F2F2F7" d="m116.5 139.2.2-2h185.6l-.2 2H116.5Z"/>
  <path fill="#002031" d="M182.9 225.3h-16.8l-1.2 16.6h16.8l1.2-16.6Zm-5.1 4.8-.6 7.2H170l.6-7.2h7.2ZM142 225.3h-16.8L124 242h16.8l1.2-16.6Zm-5.2 4.8-.6 7.2H129l.5-7.2h7.3ZM186 185h-16.7l-1.3 16.5H185l1.2-16.6Zm-5 4.6-.6 7.2h-7.2l.5-7.2h7.3ZM164.5 185h-19.3l-1.4 16.6h4.8l1-12H164l.4-4.7ZM140.4 185h-12.1l-.3 4.7h7.2l-.6 7.2h-7.3l-.3 4.8h12.1l1.3-16.8ZM184.4 206.4h-16.9l-.2 4.6h12l-.8 9.5h4.8l1.1-14.1Z"/>
  <path fill="#002031" d="M163.5 196.8h-9.7l-.3 4.8h4.8l-.4 4.8h-9.7l-.7 9.4h-4.8l.7-9.4h-16.7l-.4 4.6h12l-.7 9.5H152l.7-9.5h9.6l1.2-14.2Z"/>
  <path fill="#002031" d="m125.6 220.5.3-4.8h7.3l-.4 4.8h-7.2ZM146.3 233l.4-7.7h4.8l-.4 7.6h-4.8Z"/>
  <path fill="#002031" d="m150.6 233 .3-4.1h6l-.2 4h-6.1ZM166.5 220.5h7.2l.3-4.8H167l-.4 4.8Z"/>
  <path fill="#002031" d="M162.1 215.8h-5l-1.6 21.5H146l-.5 4.6H160l1.6-21.4.6-4.7Z"/>
  <path fill="#F2F2F7" d="M142 23.4h58l-1.1 13.4h-58l1-13.4ZM266.1 154.4h29l-.2 2h-29l.2-2ZM265 167.7h29l-.2 2h-29l.2-2ZM264 181.1h29l-.2 1.9h-29l.1-1.9ZM262.9 194.4h29l-.2 2h-29l.2-2ZM261.7 207.8h29l-.1 2h-29l.1-2ZM260.7 221h29l-.2 2h-29l.2-2ZM259.6 234.5h29l-.2 1.9h-29l.2-1.9ZM258.5 247.8h29l-.2 1.9h-29l.2-1.9ZM265.8 158.2h29l-.2 2h-29l.2-2ZM264.7 171.5h29l-.1 2h-29l.1-2ZM263.6 185h29l-.2 1.8h-29l.2-1.9ZM262.5 198.3h29l-.1 1.8h-29l.1-1.8ZM261.5 211.6h28.9v1.9h-29v-2ZM260.3 225h29l-.1 1.9h-29l.1-2ZM259.3 238.2h29l-.2 2h-29l.2-2ZM258.1 251.6h29l-.1 2h-29l.1-2ZM139.8 43.9h58l-.2 1.8h-58l.2-1.8ZM139.4 49.6h57.9l-.1 1.8h-58l.2-1.8Z"/>
  <path fill="#82C6F8" d="M242.6 266.7 256 91.1a9.5 9.5 0 0 1 9.3-8.6h83.4c5.3 0 8 3.1 7.6 8L343 266.8c-.5 5.6-3.2 8.7-9.3 8.7h-82.9a8 8 0 0 1-8-8.8Z"/>
  <path fill="#59ACF5" d="m239.4 266.7 1-13 9.3-73.5 2.5-82.5.6-6.6a9.5 9.5 0 0 1 9.3-8.6h79.1c4.4 0 7.9 3.7 7.6 8.1l-13.3 175.5c-.4 5.3-4.8 9.4-10.2 9.4h-77.7c-4.9 0-8.4-4-8.2-8.8Z"/>
  <path fill="#DCEEFD" d="M252.3 97.8h96l-11.9 156h-96l12-156Z"/>
  <path fill="#fff" d="M284.1 269.5a5.9 5.9 0 0 1-1.5-4.5 6.8 6.8 0 0 1 6.6-6.2 5.8 5.8 0 0 1 5.8 6.3 6.8 6.8 0 0 1-6.6 6.2c-1.7 0-3.3-.6-4.3-1.8Zm-1-4.5a5.1 5.1 0 0 0 5.3 5.7c3 0 5.7-2.5 6-5.7a5.1 5.1 0 0 0-5.2-5.6 6.1 6.1 0 0 0-6 5.6ZM253.3 199l5-68.4a5.5 5.5 0 0 1 5.6-5.1h66.8c3.1 0 5.7 2.7 5.4 5.8l-5 67.6c-.1 2.3-2 4-4.2 4h-69.8a3.7 3.7 0 0 1-3.8-3.9Z"/>
  <path fill="#002031" d="M267.6 189h14.8l1.1-14.7h-14.8l-1 14.8Zm11.4-10.5-.4 6.4h-6.4l.4-6.4h6.4ZM303.6 189h14.7l1.1-14.7h-14.7l-1.1 14.8Zm11.4-10.5-.4 6.4h-6.4l.5-6.4h6.3ZM270.3 153H285l1.1-14.7h-14.7l-1.1 14.8Zm11.3-10.5-.4 6.4h-6.4l.5-6.4h6.3ZM290 142.5h12.8l-.8 10.7h4.3l1-15h-17l-.2 4.3ZM310.4 153.2h10.7l.3-4.3H315l.5-6.4h6.3l.4-4.2h-10.7l-1 14.8ZM269 170h4.2l.6-8.4h10.6l.4-4.2h-14.9l-1 12.7Z"/>
  <path fill="#002031" d="M288.7 161.6h8.5l-.7 8.5h12.8l.5-8.5h10.7l.2-4.2H306l-.6 8.4h-4.2l.6-8.4h-8.5l.3-4.3h4.3l.3-4.2h-8.5l-1 12.7Z"/>
  <path fill="#002031" d="m313.5 170 .3-4.2h6.3l-.3 4.3h-6.3ZM295.7 181.1l.6-6.8h4.2l-.5 6.8h-4.3Z"/>
  <path fill="#002031" d="m290.8 181.1.3-3.7h5.3l-.2 3.7h-5.4ZM284.1 165.8h-6.3l-.3 4.3h6.4l.2-4.3Z"/>
  <path fill="#002031" d="m288.1 170-1.4 19h12.7l.3-4h-8.5l1.4-19.2h-4.3l-.2 4.3Z"/>
  <path fill="#76C0F7" d="M264.1 217.5c.1-1.4 1.3-2.5 2.7-2.5H315c1.4 0 2.4 1.1 2.3 2.5 0 1.3-1.3 2.4-2.6 2.4h-48.4a2.3 2.3 0 0 1-2.3-2.4ZM284.4 227.2c0-1.4 1.2-2.5 2.6-2.5h27.4c1.3 0 2.3 1.1 2.2 2.5 0 1.3-1.2 2.4-2.6 2.4h-27.3a2.3 2.3 0 0 1-2.3-2.4ZM263.5 227.2c0-1.4 1.2-2.5 2.6-2.5H277c1.3 0 2.3 1.1 2.3 2.5-.1 1.3-1.3 2.4-2.7 2.4h-10.8c-1.4 0-2.5-1-2.3-2.4Z"/>
  <path fill="#002031" d="M350.6 119.2c-.5-.5-.7-1.3-.7-2l.6-6.5c0-1.6 1.5-2.8 3-2.8h.9c.7 0 1.4.3 2 .8.4.5.7 1.3.6 2l-.5 6.5c0 1.5-1.5 2.8-3 2.8h-1c-.7 0-1.4-.3-1.9-.8Zm2.8-10.8c-1.2 0-2.3 1-2.4 2.3l-.5 6.4c-.1.6 0 1.2.5 1.6.4.5.9.7 1.5.7h.8c1.3 0 2.4-1 2.5-2.3l.5-6.4c.1-.6 0-1.2-.5-1.6-.4-.5-1-.7-1.5-.7h-.9ZM349.6 133.3c-.5-.5-.8-1.3-.7-2l.5-6.5c.1-1.5 1.6-2.8 3.1-2.8h.8c.8 0 1.5.3 2 .8s.8 1.3.7 2l-.5 6.5c-.1 1.6-1.6 2.8-3 2.8h-1c-.7 0-1.4-.3-1.9-.8Zm2.8-10.8c-1.3 0-2.4 1-2.4 2.3l-.6 6.4c0 .6.1 1.2.6 1.7.4.4.9.6 1.5.6h.8c1.3 0 2.4-1 2.5-2.3l.5-6.4c0-.6 0-1.2-.5-1.6-.4-.5-1-.7-1.5-.7h-.9Z"/>
  <path fill="#fff" d="M295.2 91.7c-.4-.5-.6-1.2-.6-1.8.1-1.2 1.1-2.2 2.4-2.2h12c.8 0 1.4.3 1.9.8.4.5.6 1.2.6 1.9-.1 1.2-1.1 2-2.4 2h-12.2c-.6 0-1.3-.2-1.7-.7Zm1.8-3.4c-1 0-1.7.7-1.8 1.6 0 .6.1 1 .5 1.4.3.3.8.6 1.3.6h12.2c.9 0 1.7-.7 1.8-1.6 0-.5-.1-1-.5-1.4a2 2 0 0 0-1.3-.6H297Z"/>
  <path fill="#002031" d="m58.8 146 4 11.6c.2.7 1 1.2 1.9 1l4.2-1.6c.9-.4 1.3-1.2 1-2l-4-11.7c-.1-.6-.6-1-1.2-1h-.2l-.7-.1v.2l-4 1.4c-.9.3-1.3 1.2-1 2.1Z"/>
  <path fill="#025BB7" d="m69.1 154.8-4-11.7c-.2-.7-1-1.2-2-1l-4.2 1.6c-.8.4-1.3 1.2-1 2l4 11.7c.3.8 1.1 1.2 2 1l4.2-1.6c.8-.2 1.2-1.2 1-2Z"/>
  <path fill="#C26E5E" d="m66.1 154.2-2.2 2 1.1 4-5.5 2-1.9-6.5c-.3-1.4.3-3 1.6-3.8l4.4-2.4 2.5 4.7Z"/>
  <path fill="#237978" d="M82.9 169.6s-4.5 7.5-11 11.8c-2.4 1.4-5.6 1.3-7.4-2.4-3-6.3-5.2-17.2-5.2-17.2l5.7-2.6 4.7 13.2 10-14.1 3.2 11.3Z"/>
  <path fill="#0E6866" d="M64.2 169.6c0 2 1.6 3.6 3.6 3.6 1.7 0 3.2-1.3 3.4-3l-1.6 2.3-2.3-6.4a3.6 3.6 0 0 0-3.1 3.5Zm-5-7.7.2.8a3.5 3.5 0 0 0 5.6-3v-.4l-5.7 2.6Zm4.3 14.8 1 2.4.5.8v-.3c0-1.3-.6-2.3-1.5-3Zm7.1 2.9c0 .7.3 1.5.7 2.1.2 0 .4-.3.5-.3 2-1.2 3.6-2.7 5-4.2a3.8 3.8 0 0 0-2.7-1.2c-2 0-3.5 1.6-3.5 3.6Zm6.3-10c0 2 1.5 3.4 3.4 3.5l2.6-3.5-1-3.3c-.4-.2-.9-.3-1.4-.3-2 0-3.6 1.6-3.6 3.6Z"/>
  <path fill="#002031" d="M61.5 152.6v-.3l2.7-1.6h.2v.3l-2.7 1.6h-.2ZM62.6 154.3v-.3l2.5-1.6h.3l-.1.3-2.5 1.6h-.2Z"/>
  <path fill="#C26E5E" d="m94.7 229.5 10.8 2.5 1.3-6.5-7.4-3.5-4.7 7.5ZM73 263.2l-2.4 6.5-9.3-2L64 260l9 3.2Z"/>
  <path fill="#002031" d="M90 155.6c.8 2.5 3.3 4 5.8 4.6 1 .3 2 .4 3 .4 1-.1 2-.6 2.7-1.3l1.6 2c1.1-1 4-2.9 3.7-7-.1-3.9-3.4-4.9-3.8-6.5-.6-3 2-4 1.4-7.7-.4-2.3-2.1-3-2.1-5.3 0-6.3-4.9-8.4-10.3-6.6v.4c.3.3.7.6.6.7-.3.2-.5.4-.5.8-.6 1.5-.4 3.2-.3 4.8.2 2 .3 4 1 6 .3.4.4 1 .5 1.5.2 1-.3 2.2-.8 3.2-1 2.1-2 4.3-2.4 6.6-.2 1.2-.2 2.3 0 3.4Z"/>
  <path fill="#002031" d="M96 140.3v-5.2c0-1.2 0-2.5-.5-3.5-.6-1.5-3.4-3-4.4-1.1-.5 1-.6 1.6-1.5 2.3-1 .8-2.2 1.2-3.3 2-1 .5-1.9 1.4-2 2.6-.1 1 .4 2 .5 3 0 1.2-.4 2.4-1.2 3.3-.5.6-1.2 1-2 1.6-.6.5-1.2 1.3-1.2 2.2 0 .7.4 1.4.4 2.2 0 1.2-1.8 1.7-2.5 3.1-1.5 3.3 1.9 6.4 3.2 7.4 2 1.5 4.5 2.2 7 2.5l.5-.5a9 9 0 0 0 1.7-3.2c1.5-4.2 2.3-8.8 3.7-13.2.5-1.8 1.3-3.7 1.6-5.5Z"/>
  <path fill="#F17277" d="m67 224.6 8.7 2 1.3-2.2c1.9-2.8 3.8-5.6 6-8.1l2.8-3-1.5-1s6.6-30.8 6.3-30.8l-9.8 1.1-18.1 32.2a7.4 7.4 0 0 0 4.2 9.8Z"/>
  <path fill="#F09899" d="M101.8 227.8a4.7 4.7 0 0 1-5.4 2.8l-11.6-2.5c1.7-2.8 3.5-5.5 5.1-8.3l1.5-2.8 8.4 4.8c2.1 1.2 3 3.8 2 6Z"/>
  <path fill="#F17277" d="M100.1 226.8A5.4 5.4 0 0 1 94 230l-13.2-2.8c2-3.2 4-6.3 5.8-9.6l1.7-3 9.6 5.4a5.4 5.4 0 0 1 2.3 6.8Z"/>
  <path fill="#002031" d="m87.4 228.7 3.4.8 2.3-12.2-5.7 11.4Z"/>
  <path fill="#F09899" d="m74.6 259.4-1.5 4-9.4-2.8 1-3.3 9.9 2.1Z"/>
  <path fill="#fff" d="m67.4 259-.7 2.5.5.1.8-2.4-.6-.2ZM70.5 259.9l-.7 2.4.5.2.8-2.5-.6-.1Z"/>
  <path fill="#F17277" d="m83.5 181.7-19.9 71.6c-.7 2.3.7 4.8 3 5.5l5 1.4c2.3.7 4.6-.4 5.4-2.5 2.7-6.5 10.8-29.3 13.1-33.4a184 184 0 0 0 12.6-27.1c.8-9.2-4.6-12-4.6-15.5H83.5Z"/>
  <path fill="#237978" d="M77 163.9c-.6 3.4 4.4 16.2 4 18.6l17.4.3c1-9.8 4.3-16 4.3-16l2.7-.4 1.6-5c.7-4-2.2-7.7-6.3-7.7h-16C82 155.3 77.5 160 77 164Z"/>
  <path fill="#0E6866" d="M77.3 168c.3 1.4.7 3 1.2 4.4.6.5 1.2.7 2 .7 2 0 3.6-1.6 3.6-3.5 0-2-1.6-3.6-3.6-3.6-1.4 0-2.6.8-3.2 2Zm28.2-2-1.6.7 1.4-.2.2-.4Zm-22.2 13.6c0 1.3.7 2.4 1.8 3l3.4.1c1.2-.6 2-1.8 2-3.1 0-2-1.7-3.6-3.6-3.6-2 0-3.6 1.6-3.6 3.6Zm12.8 0c0 1.5.9 2.8 2.2 3.3a65 65 0 0 1 1.2-6.9c-2 0-3.4 1.6-3.4 3.6Zm-5.7-20c0-1.9-1.6-3.5-3.5-3.5a3.6 3.6 0 0 0 0 7.1c2 0 3.5-1.6 3.5-3.5Zm-.7 10c0 1.9 1.6 3.5 3.5 3.5 2 0 3.6-1.6 3.6-3.5a3.6 3.6 0 0 0-7.1 0Zm10-6.3c1.9 0 3.5-1.7 3.5-3.6a3.6 3.6 0 0 0-7.1 0c0 2 1.6 3.6 3.5 3.6Z"/>
  <path fill="#C26E5E" d="M84.7 153.8H101a17 17 0 0 1-11.2 4.7c-4.2-.3-5.2-4.8-5.2-4.7Z"/>
  <path fill="#C26E5E" d="M85.9 154.5h4.8l.3-3.6-1.3-.3-.4 1a2 2 0 0 1-1.6 1.1l-3 1 1.2.8Z"/>
  <path fill="#FC0" d="M62.7 265.7c1.2 1.2 3.6 3.2 5.8 3a4 4 0 0 0 3.3-2.2c.1-.5 1.8-.3 2 .2l1 7.6H47.2s0-1.7 2-2.7l5-1.8 6.5-4.4c.7-.3 1.5-.2 2 .3Z"/>
  <path fill="#FE6F43" d="M69.6 274.3c-.4-4.5 4.5-4.7 4.5-4.7l.6 4.7h-5Z"/>
  <path fill="#fff" d="M74.8 274.3H47v2.6h28l-.2-2.6Z"/>
  <path fill="#002031" d="m54.9 269.2-.2.5 2.7.8.2-.6-2.7-.7ZM56.6 268.4l.2-.6 2.8.8-.2.6-2.8-.8Z"/>
  <path fill="#C8E7FC" d="M105.1 243.9v-11h7.3v11c0 2-1.6 3.6-3.6 3.6s-3.7-1.6-3.7-3.6Z"/>
  <path fill="#fff" d="m102.4 232.9 2.8 6.5.5 3.9c0 .7.3 1.1.5 1.4l-.3.7h2c2 0 4-5.5 4.5-11.6.1-2.1-.1-6-.3-8.6a3 3 0 0 0-3.2-2.9l-4 .2c-.5.2-.7 1.6-.3 1.9.9.4 1.9 1.7 1.8 3-.2 2.9-2.7 2-3.9 3-.4.5-.2 1.9 0 2.5Z"/>
  <path fill="#FC0" d="M101.2 230.5c1.2-1 3.7-.2 4-3 0-1.4-1-3-1.8-3.4-.6-.3-.3-1.5.2-1.6l4-.2a3 3 0 0 1 3.2 3c.2 2.5.5 6.3.3 8.5-.5 6.2-2.6 11.6-4.4 11.6-1.1 0-2.2-.5-2.3-2.1l-.5-4-2.8-6.4c-.3-.6-.5-2 .1-2.4Z"/>
  <path fill="#FE6F43" d="M110.7 225.2a3 3 0 0 0-3.3-2.9l-1 .1c0 1.8 1.2 4.5 4.4 5l-.1-2.2Z"/>
  <path fill="#002031" d="M102.5 236h.3-.5s0-1.5 2-1.5v.6c-1.4 0-1.5.8-1.5.9h-.3ZM103.4 237.9h.4-.6s0-1.6 2-1.6v.6c-1.3 0-1.4.9-1.4 1h-.4Z"/>
  <path fill="#C26E5E" d="M92.4 144 88 154.3l8.2-.3 2-12.6-5.8 2.8Z"/>
  <path fill="#A95643" d="m94.6 146.4-3.3.3-1 2.3 4.3-2.6Z"/>
  <path fill="#C26E5E" d="M93 133c-3.7 0-6.3 3-6.9 6.7-.8 4.6 1.8 7.7 6.1 7.3 3.8-.4 7.4-3.5 7.5-7.3 0-3.7-2.8-6.8-6.6-6.8Z"/>
  <path fill="#002031" d="M84.8 130.3v2.8l.6 1.5 1.5.9c.5.2 1 .2 1.7.2 1.4 0 3 0 4.3-.6a6.6 6.6 0 0 0 3.5-2.7l-.3.7c.5-.5 1-1.1 1.4-1.8.2-.2.3-.5.2-.7l-.3-.4-.8-.5-1.3-.5c-1-.3-1.6-1.5-3-1.2-.8.2-1.5.9-2 .6a5 5 0 0 0-1.7-.6 3 3 0 0 0-1 .2c-.7.3-1 2-1 2l-.4-.4c-.5-.3-1.3 0-1.4.5Z"/>
  <path fill="#002031" d="M96.4 132.7c1.5-.4 3.2.3 4.2 1.4 1.3 1.6 1.6 3.8 1.5 5.8-.2 2.7-1 5.4-2.4 7.8-.2.2-.3.5-.6.4l-.3-.1c-.7-.6-1.9 1.8-1.8 1 .4-3 1-5.6 0-6.9l-2-3c-.6-.7-.8-1.7-.7-2.7.1-1.5.5-3.3 2-3.7Z"/>
  <path fill="#C26E5E" d="m103.1 189.4-1.2 1.4-.4 1.5-1.5 2-.5-.2-2.4-1.4-1.7-1.6-1.3-1.8 4.2-3 4.8 3Z"/>
  <path fill="#A95643" d="M102 190.5v.3l-.5 1.5-.5.7a16.5 16.5 0 0 1-3.2-6.3l4.3 3.8Z"/>
  <path fill="#237978" d="m97 162.8 11.2 13-10.8 10.5 5.3 4.7s9.5-8.5 12-11a6.4 6.4 0 0 0 .9-8.4l-9.7-15-9 6.2Z"/>
  <path fill="#0E6866" d="M102.5 189.5c0 .5 0 1 .3 1.5l1.7-1.5c.9-.8 2-2 3.4-3-.5-.5-1.2-.6-2-.6-2 0-3.6 1.6-3.4 3.6Zm-.6-7.5-.8.8c.7-.3 1.3-.8 1.7-1.6l-.9.8Zm4-8.9c2 0 3.7-1.6 3.7-3.5 0-2-1.7-3.6-3.6-3.6a3.6 3.6 0 0 0-3.6 3.1l3.4 4h.2Zm-8.5-10.6c.6.5 1.4.8 2.2.8a3.6 3.6 0 0 0 3.4-4.7l-3.6 2.5-2 1.4Zm11.4 16.7c0 1.7 1.2 3.2 2.8 3.5l.5-.4c.2 0 .3-.3.4-.3l.1-.1.4-.4.3-.3h.2c0-.2.1-.3.2-.3l.2-.1.2-.3h.1l.2-.2v-.1l.3-.3.6-.6.5-.7a3.6 3.6 0 0 0-3.5-2.6c-2 0-3.6 1.6-3.5 3.2Zm1.2-16.4c-1-1.2-1.7-2.5-2.4-3.5v.2c0 1.6 1 2.8 2.4 3.3Z"/>
  <path fill="#002031" d="M108 176.2v-.4l.4-.1 2 .3-.2.6-1.2-.2.3.5-.5.4-.8-1.1ZM93.2 188.3l.6-.1s1.7 4.2 7 6.2l-.2.6c-5.6-2.2-7.2-6.4-7.4-6.7Z"/>
  <path fill="#fff" d="M69.9 228.2 81.6 193l-2.2-.3v-.5l3 .3-12 36-.5-.3Z"/>
  <path fill="#002031" d="M89.2 143.4c-.2 0-.2-.2-.2-.3l.3-.1c1.2.3 2 0 2.5-.9 0 0 .2-.2.3 0 0 0 .1 0 0 .2-.3.7-1 1.2-2 1.2l-1-.1Z"/>
  <path fill="#fff" d="M85.4 138.4c0-1.2 1-2.2 2.2-2.2 1.1 0 2 1 2 2.2 0 1.2-.9 2.2-2 2.2-1.2 0-2.2-1-2.2-2.2Zm.5 0c0 1 .7 1.8 1.7 1.8.9 0 1.7-.8 1.7-1.8s-.8-1.8-1.7-1.8c-1 0-1.7.8-1.7 1.8ZM90.2 138.8c0-1.2 1-2.2 2.1-2.2 1.2 0 2.1 1 2.1 2.2 0 1.2-.9 2.2-2 2.2-1.3 0-2.2-1-2.2-2.2Zm.4 0c0 1 .8 1.8 1.7 1.8 1 0 1.7-.8 1.7-1.8s-.8-1.8-1.7-1.8c-1 0-1.7.9-1.7 1.8Z"/>
  <path fill="#002031" d="M89.6 141.6s-.7-.2-1-.6c0-.2.1-.8.6-1.5l.3-.8c0-.2.2-.2.3-.2l.1.3c0 .3-.2.5-.4.8-.2.4-.6 1-.5 1.2 0 .2.5.4.6.4l.2.2-.2.2Z"/>
  <path fill="#fff" d="m90.4 138.5-1-.1-.1-.3.2-.2 1 .1.1.3s0 .2-.2.2ZM95 139h-.8l-.2-.3.3-.2.6.1.2.3s0 .2-.2.2Z"/>
  <path fill="#C26E5E" d="m95.7 154.7 1.1-5-.2 1.2c-.1.9.5 1.8 1.3 2l3.2.8-5.4 1Z"/>
  <path fill="#002031" d="m99.9 165.7-.5.4 3.1 3.6.5-.4-3.1-3.6Z"/>
  <path fill="#fff" d="M80 182.6c.2-1.1-.8-4.5-1.7-7.9a37.4 37.4 0 0 1-2.1-10.3c.2-1.9 1-4.6 2.9-6.7l.5.5c-1.4 1.6-2.5 4-2.7 6.3-.2 1.7 1 6.2 2 10s2 7 1.8 8.1H80Z"/>
  <mask id="a" width="62" height="38" x="133" y="76" maskUnits="userSpaceOnUse" style="mask-type:alpha">
    <path fill="#025BB7" d="M193.8 76.6H137c-.4 0-.7.3-.7.7l-3 35.4c0 .4.3.7.7.7h56.7c.4 0 .7-.3.7-.7l3-35.4c0-.4-.3-.7-.7-.7Z"/>
  </mask>
  <g mask="url(#a)">
    <path fill="#FF6A71" d="M131.4 76.6h63v12h-63z"/>
    <path fill="#fff" d="M131.4 88.6h63v11h-63z"/>
    <path fill="#025BB7" d="M131.4 99.6h63v12h-63z"/>
  </g>
</svg>
