<svg width="304" height="342" viewBox="0 0 304 342" fill="none" xmlns="http://www.w3.org/2000/svg">
<mask id="mask0" mask-type="alpha" maskUnits="userSpaceOnUse" x="0" y="0" width="304" height="342">
<rect width="304" height="342" fill="#C4C4C4"/>
</mask>
<g mask="url(#mask0)">
<path d="M290.234 214.346H291.606V273.137H290.234V214.346Z" fill="#002031"/>
<path d="M255.406 214.346H256.778V273.137H255.406V214.346Z" fill="#002031"/>
<path d="M251.29 222.23H295.898C298.986 222.23 301.56 219.659 301.56 216.573C301.56 213.488 298.986 210.917 295.898 210.917H251.29V222.23Z" fill="#59ACF5"/>
<path d="M250.602 222.23C247.475 222.23 244.94 219.697 244.94 216.573C244.94 213.449 247.475 210.917 250.602 210.917C253.729 210.917 256.264 213.449 256.264 216.573C256.264 219.697 253.729 222.23 250.602 222.23Z" fill="#002031"/>
<path d="M165.674 98.8203L185.576 104.134C188.836 104.991 191.581 107.048 193.468 109.962L194.669 112.018C195.698 113.561 195.355 115.789 193.983 116.989L186.948 123.845L133.419 107.562L133.933 106.876C136.164 103.62 139.767 101.391 143.713 101.049L165.674 98.8203Z" fill="#FE6F43"/>
<path d="M169.107 107.219L179.058 106.362L168.077 102.763L142.513 103.62L144.915 106.019L169.107 107.219Z" fill="#002031"/>
<path d="M70.4544 131.387L65.4789 121.788L80.577 117.846L84.8662 122.816L70.4544 131.387Z" fill="#A87A6A"/>
<path d="M215.258 282.221V393.118C215.258 398.603 219.719 403.06 225.209 403.06H299.327C304.818 403.06 309.278 398.603 309.278 393.118V282.221C309.278 276.736 304.818 272.279 299.327 272.279H225.209C219.719 272.279 215.258 276.736 215.258 282.221Z" fill="#002031"/>
<path d="M152.466 232.858L117.294 403.575L106.314 410.26L100.652 402.033L120.897 209.547L139.941 208.176C139.77 208.176 152.123 212.289 152.466 232.858Z" fill="#237978"/>
<path d="M130.332 233.201L131.018 205.263L156.754 209.719L156.068 234.401L130.332 233.201Z" fill="#237978"/>
<path d="M182.317 210.919C182.317 210.919 183.518 226.345 183.69 249.313C183.861 272.453 175.454 401.69 175.454 401.69L159.499 404.433L145.773 210.233L182.317 210.919Z" fill="#237978"/>
<path d="M181.46 212.633H120.896C119.695 212.633 118.666 211.604 118.666 210.404L136.509 107.22L174.254 108.42L183.69 210.404C183.69 211.604 182.661 212.633 181.46 212.633Z" fill="#FFCC00"/>
<path d="M149.034 258.741C149.034 258.741 149.034 258.569 149.034 258.741C149.378 258.741 149.721 258.398 149.721 258.055L148.691 233.373L138.397 233.544C138.054 233.544 137.711 233.887 137.711 234.23C137.711 234.573 138.054 234.916 138.397 234.916L147.49 234.744L148.52 258.055C148.348 258.398 148.691 258.741 149.034 258.741Z" fill="#002031"/>
<path d="M183.003 225.486L120.037 215.716L120.723 209.546L182.317 210.917L183.003 225.486Z" fill="#0E6866"/>
<path d="M166.019 78.252C166.877 79.109 169.107 108.762 169.107 108.762C169.107 108.762 151.779 119.903 144.573 107.39L150.406 79.6232L166.019 78.252Z" fill="#A87A6A"/>
<path d="M161.042 215.717H189.523C193.812 215.717 197.244 212.289 197.072 208.004L196.729 198.062L196.557 193.777L194.155 116.132C188.665 110.99 181.459 108.076 173.91 107.562L168.763 107.219C168.763 107.219 167.562 111.161 167.219 116.303L161.042 215.717Z" fill="#FE6F43"/>
<path d="M161.04 215.717H189.521V220.687H161.04V215.717Z" fill="#F45A31"/>
<path d="M109.573 215.717H133.078V220.687H109.573V215.717Z" fill="#F45A31"/>
<path d="M194.327 116.133L283.371 204.577L256.092 204.92L194.327 150.756V116.133Z" fill="#FE6F43"/>
<path d="M246.998 403.06H320.944C326.435 403.06 330.896 398.603 330.896 393.118V282.221C330.896 276.736 326.435 272.279 320.944 272.279H246.826C241.336 272.279 236.875 276.736 236.875 282.221V393.118C236.875 398.603 241.336 403.06 246.998 403.06Z" fill="#59ACF5"/>
<path d="M224.696 281.536V393.462C224.696 397.575 227.098 401.346 230.701 403.06H234.818C229.843 402.717 225.897 398.604 225.897 393.462V281.536C225.897 276.908 229.157 273.137 233.617 272.108H230.529C226.926 273.994 224.696 277.593 224.696 281.536Z" fill="white"/>
<path d="M58.9586 123.672H73.1989C74.9146 123.672 75.944 122.301 75.7724 120.587L70.6254 91.4485C70.2822 89.7345 68.7381 88.3633 67.0224 88.3633H52.7821C51.0664 88.3633 50.037 89.7345 50.2086 91.4485L55.3557 120.587C55.6988 122.301 57.2429 123.672 58.9586 123.672Z" fill="#002031"/>
<path d="M61.361 123.672H75.6012C77.3169 123.672 78.3464 122.301 78.1748 120.587L73.0277 91.4485C72.6846 89.7345 71.1405 88.3633 69.4248 88.3633H55.1845C53.4688 88.3633 52.4394 89.7345 52.611 91.4485L57.7581 120.587C57.9296 122.301 59.6453 123.672 61.361 123.672Z" fill="#82C6F8"/>
<path d="M59.816 116.131H74.3994L70.1102 91.2773H55.3552L59.816 116.131Z" fill="white"/>
<path d="M73.7131 116.131H74.3994L70.1102 91.2773H69.4239L73.7131 116.131Z" fill="#002031"/>
<path d="M68.2222 122.302C68.7369 122.302 69.4232 122.13 69.7663 121.616C70.1095 121.102 70.281 120.588 70.1094 120.073C69.9379 118.874 68.9085 118.017 67.7075 118.017C67.1928 118.017 66.5065 118.188 66.1633 118.702C65.8202 119.216 65.6486 119.731 65.8202 120.245C65.9918 121.445 67.0212 122.302 68.2222 122.302ZM67.7075 119.216C68.2222 119.216 68.9085 119.731 68.9085 120.245C68.9085 120.416 68.9085 120.759 68.7369 120.93C68.5653 121.102 68.3938 121.102 68.2222 121.102C67.7075 121.102 67.0212 120.588 67.0212 120.073C67.0212 119.902 67.0212 119.559 67.1928 119.388C67.1928 119.388 67.3643 119.216 67.7075 119.216Z" fill="white"/>
<path d="M59.4037 102.676H63.0067C63.3498 102.676 63.8645 103.019 63.8645 103.361L64.5508 106.961C64.5508 107.132 64.5508 107.132 64.5508 107.132C64.5508 107.475 64.3792 107.646 64.0361 107.646C64.0361 107.646 64.0361 107.646 63.8645 107.646H60.2615C59.9184 107.646 59.4037 107.304 59.4037 106.961L59.2321 106.447L58.7174 103.876L58.5458 103.361C58.7174 103.019 59.0606 102.676 59.4037 102.676ZM61.1194 106.104H62.6635L62.3204 104.561H60.7763L61.1194 106.104Z" fill="#002031"/>
<path d="M64.7084 96.1641H68.3113C68.6545 96.1641 69.1692 96.5069 69.1692 96.8497L69.8555 100.449V100.621C69.8555 100.963 69.6839 101.306 69.1692 101.306H65.5662C65.2231 101.306 64.7084 100.963 64.7084 100.621L64.0221 97.0211C64.0221 96.5069 64.3653 96.1641 64.7084 96.1641ZM66.4241 99.5921H67.9682L67.6251 98.0495H66.081L66.4241 99.5921Z" fill="#002031"/>
<path d="M58.1849 96.1631H61.7879C62.1311 96.1631 62.6458 96.5059 62.6458 96.8487L63.332 100.448C63.332 100.791 63.1605 101.134 62.6458 101.134H59.0428C58.6997 101.134 58.1849 100.791 58.1849 100.448L57.4987 96.8487C57.4987 96.5059 57.8418 96.1631 58.1849 96.1631ZM59.9006 99.4197H61.4448L61.1016 97.8771H59.5575L59.9006 99.4197Z" fill="#002031"/>
<path fill-rule="evenodd" clip-rule="evenodd" d="M69.047 104.477H70.5911C70.7627 104.477 70.7627 104.306 70.7627 104.306L70.5911 103.106C70.5911 102.935 70.4195 102.935 70.248 102.935H69.047C68.8754 102.935 68.8754 103.106 68.8754 103.106L69.047 104.477Z" fill="#002031"/>
<path fill-rule="evenodd" clip-rule="evenodd" d="M67.5001 106.191H69.2158L69.0442 104.477H67.3286L67.5001 106.191Z" fill="#002031"/>
<path fill-rule="evenodd" clip-rule="evenodd" d="M66.3003 107.903H67.5013C67.6729 107.903 67.6729 107.732 67.6729 107.732L67.5013 106.189H65.9571C65.7856 106.189 65.7856 106.361 65.7856 106.361L65.9571 107.561C66.1287 107.732 66.3003 107.903 66.3003 107.903Z" fill="#002031"/>
<path fill-rule="evenodd" clip-rule="evenodd" d="M65.7879 104.477H67.332L67.1605 102.934C67.1605 102.763 66.9889 102.763 66.8173 102.763H65.6164C65.4448 102.763 65.4448 102.934 65.4448 102.934L65.6164 104.134C65.4448 104.305 65.6164 104.477 65.7879 104.477Z" fill="#002031"/>
<path fill-rule="evenodd" clip-rule="evenodd" d="M69.9038 107.904H71.1048C71.2764 107.904 71.2764 107.733 71.2764 107.733L71.1048 106.533C71.1048 106.361 70.9332 106.361 70.7617 106.361H69.2175L69.3891 107.904C69.5607 107.733 69.7322 107.904 69.9038 107.904Z" fill="#002031"/>
<path d="M85.21 116.818L81.0923 104.134L68.5677 102.077L69.5971 106.876L75.7736 109.447L79.0335 127.959L84.6952 125.559L85.21 116.818Z" fill="#A87A6A"/>
<path d="M53.4675 106.876C52.0462 106.876 50.894 105.725 50.894 104.305C50.894 102.885 52.0462 101.734 53.4675 101.734C54.8888 101.734 56.041 102.885 56.041 104.305C56.041 105.725 54.8888 106.876 53.4675 106.876Z" fill="#A87A6A"/>
<path d="M54.4958 111.504C53.0745 111.504 51.9222 110.353 51.9222 108.933C51.9222 107.513 53.0745 106.362 54.4958 106.362C55.9171 106.362 57.0693 107.513 57.0693 108.933C57.0693 110.353 55.9171 111.504 54.4958 111.504Z" fill="#A87A6A"/>
<path d="M55.3581 116.132C53.9368 116.132 52.7845 114.981 52.7845 113.561C52.7845 112.141 53.9368 110.99 55.3581 110.99C56.7794 110.99 57.9316 112.141 57.9316 113.561C57.9316 114.981 56.7794 116.132 55.3581 116.132Z" fill="#A87A6A"/>
<path d="M123.984 115.789L103.396 156.24L85.2098 116.817L70.4548 131.558L92.4157 181.951C94.3029 186.407 98.5922 189.15 103.396 189.15C108.2 189.15 112.489 186.236 114.377 181.779L137.195 135.672L123.984 115.789Z" fill="#FE6F43"/>
<path d="M133.078 54.5979C131.19 57.5118 133.078 64.0251 137.195 62.6539C139.597 60.4256 141.656 57.169 142.171 53.7409C141.999 49.1131 134.279 51.3413 133.078 54.5979Z" fill="#002031"/>
<path d="M170.82 69.1669C170.306 79.9653 156.752 89.3925 156.752 89.3925C156.752 89.3925 145.257 94.8774 135.649 88.1927C126.212 81.6793 135.477 59.2256 138.222 54.4263C140.281 50.6554 146.972 49.2842 151.776 49.2842C162.928 49.4556 171.335 58.1971 170.82 69.1669Z" fill="#A87A6A"/>
<path d="M173.912 56.6548C175.799 43.7996 157.27 43.971 157.27 43.971C157.27 43.971 156.069 39.6859 154.01 38.6575C150.578 36.6007 149.377 40.3715 149.892 42.7712C148.177 39.8573 147.147 35.5723 143.201 35.5723C139.941 36.2579 139.426 41.5714 141.657 43.4568C128.618 31.8014 123.642 55.455 147.147 57.8547C153.838 58.5403 160.358 58.5403 161.044 57.8547C160.186 64.7108 163.789 71.3955 170.481 73.4523C170.309 73.6237 173.397 64.1966 173.912 56.6548Z" fill="#002031"/>
<path d="M134.278 75.3372C135.822 75.3372 137.366 74.6516 138.567 73.4517C139.768 72.2519 140.454 70.5379 140.454 68.8239C140.454 65.2244 137.537 62.3105 134.106 62.3105C132.562 62.3105 131.018 62.9962 129.817 64.196C128.616 65.3958 127.93 67.1098 127.93 68.8239C128.101 72.4233 130.846 75.3372 134.278 75.3372ZM139.253 68.8239C139.253 70.3665 138.738 71.7377 137.709 72.5947C136.851 73.4517 135.479 73.966 134.278 73.966C131.533 73.966 129.131 71.5663 129.131 68.6525C129.131 67.1098 129.645 65.7386 130.675 64.8816C131.532 64.0246 132.905 63.5104 134.106 63.5104C136.851 63.5104 139.253 65.91 139.253 68.8239Z" fill="#DCEEFD"/>
<path d="M148.346 76.5374C149.89 76.5374 151.434 75.8518 152.635 74.6519C153.836 73.4521 154.522 71.7381 154.522 70.0241C154.522 66.4246 151.606 63.5107 148.174 63.5107C146.63 63.5107 145.086 64.1964 143.885 65.3962C142.684 66.596 141.998 68.31 141.998 70.0241C141.998 73.6235 144.915 76.5374 148.346 76.5374ZM148.174 64.7106C150.92 64.7106 153.321 67.1102 153.321 70.0241C153.321 71.3953 152.807 72.7665 151.777 73.7949C150.92 74.6519 149.547 75.1661 148.346 75.1661C145.601 75.1661 143.199 72.7665 143.199 69.8527C143.199 68.4814 143.714 67.1102 144.743 66.0818C145.601 65.2248 146.802 64.7106 148.174 64.7106Z" fill="#DCEEFD"/>
<path d="M140.798 76.7088C140.97 76.7088 141.141 76.5374 141.141 76.366C141.141 76.1946 141.141 76.0232 140.798 75.8518C140.455 75.6804 139.254 75.3376 139.082 74.652C138.911 74.1377 139.769 72.4237 140.455 71.2239C140.97 70.3669 141.313 69.5099 141.484 68.9957C141.484 68.8243 141.484 68.6528 141.141 68.4814C140.97 68.4814 140.798 68.4814 140.627 68.8243C140.455 69.3385 140.112 70.1955 139.597 71.0525C138.568 73.1093 138.053 74.3091 138.225 75.1662C138.911 76.366 140.627 76.7088 140.798 76.7088C140.627 76.7088 140.627 76.7088 140.798 76.7088Z" fill="#002031"/>
<path d="M142.514 68.8243C142.857 68.8243 143.028 68.6529 143.028 68.3101C143.028 67.9673 142.857 67.6245 142.514 67.6245L139.768 67.4531C139.425 67.4531 139.082 67.6245 139.082 67.9673C139.082 68.3101 139.254 68.6529 139.597 68.6529L142.514 68.8243Z" fill="#DCEEFD"/>
<path d="M164.13 71.738C164.473 71.738 164.645 71.5666 164.645 71.2238C164.645 70.881 164.473 70.5382 164.13 70.5382L153.664 69.167C153.321 69.167 152.978 69.3384 152.978 69.6812C152.978 70.024 153.149 70.3668 153.493 70.3668L164.13 71.738Z" fill="#DCEEFD"/>
<path d="M168.076 81.3371C164.76 81.3371 162.071 78.6512 162.071 75.338C162.071 72.0248 164.76 69.3389 168.076 69.3389C171.393 69.3389 174.081 72.0248 174.081 75.338C174.081 78.6512 171.393 81.3371 168.076 81.3371Z" fill="#A87A6A"/>
<path d="M145.567 70.8497C144.911 70.749 144.473 70.0606 144.588 69.3121C144.703 68.5636 145.328 68.0384 145.984 68.139C146.639 68.2397 147.078 68.9281 146.962 69.6766C146.847 70.4251 146.222 70.9503 145.567 70.8497Z" fill="#002031"/>
<path d="M135.436 69.8214C134.78 69.7207 134.342 69.0323 134.457 68.2838C134.573 67.5353 135.197 67.0101 135.853 67.1107C136.509 67.2114 136.947 67.8998 136.832 68.6483C136.716 69.3968 136.092 69.922 135.436 69.8214Z" fill="#002031"/>
<path d="M144.4 82.1944C147.489 82.1944 149.033 80.4804 149.033 80.309C149.204 79.9662 149.204 79.6234 148.861 79.2806C148.518 79.1092 148.175 79.1092 147.832 79.452C147.66 79.6234 145.601 82.023 140.626 79.9662C140.283 79.7948 139.94 79.9662 139.768 80.309C139.597 80.6518 139.768 80.9946 140.111 81.166C141.827 81.8516 143.199 82.1944 144.4 82.1944Z" fill="#002031"/>
<path d="M153.322 65.7387C153.493 65.7387 153.665 65.7387 153.836 65.5673C154.18 65.3959 154.18 64.8817 153.836 64.5389C153.665 64.3675 150.92 61.1109 148.175 60.9395C147.66 60.9395 147.488 61.2823 147.488 61.6251C147.488 61.9679 147.831 62.3107 148.175 62.3107C149.89 62.4821 152.121 64.5389 152.807 65.3959C152.979 65.7387 153.15 65.7387 153.322 65.7387Z" fill="#002031"/>
<path d="M138.397 62.3122C138.74 62.3122 139.083 62.1408 139.083 61.798C139.083 61.4552 138.911 61.1124 138.568 60.941L134.794 60.4268C134.451 60.4268 134.107 60.5982 133.936 60.941C133.936 61.2838 134.107 61.6266 134.451 61.798L138.397 62.3122C138.225 62.3122 138.397 62.3122 138.397 62.3122Z" fill="#002031"/>
<path d="M148.003 91.2784L154.866 90.5928L147.146 95.2207L148.003 91.2784Z" fill="#A36B5B"/>
<path d="M172.536 136.872C172.707 136.872 172.879 136.7 172.879 136.529V110.818C172.879 110.647 172.707 110.476 172.536 110.476C172.364 110.476 172.193 110.647 172.193 110.818V136.357C172.021 136.7 172.193 136.872 172.536 136.872Z" fill="white"/>
<path d="M104.768 160.355H104.939C105.282 160.184 105.454 159.841 105.282 159.498L103.91 156.07C103.738 155.898 103.567 155.727 103.223 155.556C102.88 155.556 102.709 155.727 102.537 155.898L101.165 158.984C100.993 159.327 101.165 159.669 101.508 159.841C101.851 160.012 102.194 159.841 102.366 159.498L103.052 157.955L103.738 160.012C104.253 160.184 104.424 160.355 104.768 160.355Z" fill="#002031"/>
<path d="M195.699 163.954L192.439 149.042L195.356 151.442L195.699 163.954Z" fill="#002031"/>
<path d="M144.916 106.019L133.078 215.716H108.886C103.911 215.716 100.308 211.26 101.337 206.461L123.985 115.789C127.244 109.961 133.421 106.361 140.112 106.19L144.916 106.019Z" fill="#FE6F43"/>
<path d="M136.508 135.5C136.679 135.5 136.851 135.329 136.851 135.157L140.969 108.419C140.969 108.247 140.797 108.076 140.626 107.904C140.454 107.904 140.282 108.076 140.111 108.247L135.993 134.986C136.165 135.329 136.336 135.5 136.508 135.5Z" fill="white"/>
<path d="M176.999 187.435L196.901 198.062L196.73 193.777L178.715 184.179L176.999 187.435Z" fill="#F45A31"/>
<path d="M103.738 199.263L119.351 190.864L117.635 187.607L104.939 194.464L103.738 199.263Z" fill="#F45A31"/>
<path d="M105.969 189.836C106.312 189.836 106.484 189.665 106.656 189.322L117.121 145.785C117.293 145.443 116.95 145.1 116.607 144.928C116.264 144.757 115.92 145.1 115.749 145.443L105.283 188.979C105.111 189.322 105.455 189.665 105.969 189.836C105.798 189.836 105.969 189.836 105.969 189.836Z" fill="#002031"/>
<path d="M283.201 204.576L289.549 210.918L286.461 223.602H267.245V210.918H255.235L256.093 204.919L283.201 204.576Z" fill="#A87A6A"/>
<path d="M294.352 287.877H295.725V388.319H294.352V287.877Z" fill="#002031"/>
<path d="M274.793 287.877H276.166V388.319H274.793V287.877Z" fill="#002031"/>
<path d="M255.062 287.877H256.435V388.319H255.062V287.877Z" fill="#002031"/>
<path d="M281.829 218.89L283.002 219.149L281.964 223.835L280.792 223.576L281.829 218.89Z" fill="#002031"/>
<path d="M276.343 218.876L277.516 219.135L276.478 223.821L275.305 223.562L276.343 218.876Z" fill="#002031"/>
<path d="M270.85 218.882L272.022 219.142L270.985 223.828L269.812 223.568L270.85 218.882Z" fill="#002031"/>
<path d="M91.4505 54.1633C76.195 54.1633 63.8278 42.0385 63.8278 27.0817C63.8278 12.1249 76.195 0 91.4505 0C106.706 0 119.073 12.1249 119.073 27.0817C119.073 42.0385 106.706 54.1633 91.4505 54.1633Z" fill="#1540EB"/>
<path d="M88.9428 53.3065L78.9918 62.9051C78.3055 63.5907 77.1045 63.0765 77.1045 62.0481L77.7908 49.3643L88.9428 53.3065Z" fill="#1540EB"/>
<path d="M103.892 27.5953C103.549 27.7667 103.034 27.5953 102.863 27.2525L99.6027 22.6247C99.4312 22.4532 99.2596 22.2818 98.9165 22.2818L92.9116 21.5962C92.74 21.5962 92.5684 21.5962 92.5684 21.5962L87.9361 22.9675C87.7645 22.9675 87.5929 23.1389 87.4213 23.3103L86.2204 25.0243V25.1957L85.3625 27.2525C85.1909 27.5953 85.3625 27.9381 85.5341 28.281L88.4507 31.3662C88.6223 31.709 89.137 31.709 89.4802 31.709L91.8821 31.0234C92.0537 31.0234 92.3968 31.0234 92.5684 31.0234L94.1125 31.709C94.2841 31.8804 94.4557 32.0518 94.6272 32.2232L96.1714 35.9941C96.1714 36.1655 96.3429 36.3369 96.1714 36.5083L95.9998 37.3653C95.9998 37.5367 95.9998 37.8795 96.1714 38.0509L98.9165 42.8502C99.088 43.193 99.6028 43.3644 100.117 43.3644L100.975 43.193C101.147 43.193 101.318 43.0216 101.49 42.8502L103.206 40.2792C103.377 40.1078 103.377 39.9363 103.377 39.7649V38.0509C103.377 37.8795 103.377 37.5367 103.549 37.3653L104.064 36.8511C104.235 36.6797 104.407 36.3369 104.235 35.9941L103.72 34.1087C103.72 33.9372 103.72 33.9372 103.72 33.7658V32.566C103.72 32.3946 103.72 32.2232 103.892 32.2232L105.436 29.138C105.436 28.281 104.75 27.4239 103.892 27.5953ZM117.961 19.7108C116.073 12.8547 111.441 7.36979 105.779 3.94173L99.9459 7.19839C99.7743 7.36979 99.4312 7.02698 99.6027 6.85558L99.9459 6.16997C99.9459 5.99857 99.9459 5.82716 99.7743 5.82716L93.4263 4.79875C93.2547 4.79875 93.2547 4.79875 93.0831 4.97015L89.9949 10.6264C89.8233 10.7978 89.9949 10.9693 90.1664 10.9693L92.2253 11.4835C92.3969 11.4835 92.5684 11.4835 92.5684 11.3121L93.7694 9.25522C93.941 8.91242 94.4557 9.08382 94.2841 9.42662V9.59803L94.4557 9.76943C94.4557 9.94083 94.6273 9.94083 94.7988 9.94083H95.142C95.4851 9.94083 95.6567 10.2836 95.3135 10.455L94.7988 10.7978C94.6273 10.7978 94.6272 10.9693 94.6272 10.9693V11.8263C94.6272 11.9977 94.6272 11.9977 94.4557 11.9977L93.2547 12.6833L91.3674 13.0261H91.1959L89.4802 14.3973L88.1076 15.7685C88.1076 15.7685 87.936 15.9399 88.1076 16.1113L88.4507 17.1398C88.4507 17.3112 88.4508 17.4826 88.2792 17.4826L87.0782 17.9968C86.9066 17.9968 86.9066 18.1682 86.9066 18.1682L86.735 19.5394C86.735 19.7108 86.9066 19.8822 87.0782 19.8822H88.6223C88.7939 19.8822 88.7939 19.8822 88.7939 19.7108L90.8527 16.9684C90.8527 16.797 91.0243 16.797 91.1959 16.797L92.9116 17.4826C92.9116 17.4826 92.9116 17.4826 93.0831 17.4826L94.1125 18.6824C94.2841 18.8538 94.4557 18.8538 94.6272 18.6824L95.142 18.1682C95.142 18.1682 95.142 17.9968 95.142 17.8254L94.7988 16.797C94.7988 16.6255 94.9704 16.2827 95.142 16.4541L96.8577 16.9684H97.7155C97.8871 16.9684 98.0586 17.1398 98.0586 17.3112L97.8871 18.1682C97.8871 18.3396 98.0586 18.511 98.2302 18.511L100.461 18.3396C100.632 18.3396 100.804 18.511 100.804 18.6824L100.461 19.7108V19.8822L104.235 25.5385C104.407 25.7099 104.578 25.7099 104.578 25.5385L107.838 23.1389C108.01 23.1389 108.01 22.9675 108.01 22.7961C107.838 22.2818 107.667 20.7392 107.838 20.7392C108.01 20.7392 110.926 20.9106 111.784 20.9106C111.956 20.9106 111.956 20.9106 111.956 21.082L114.529 25.3671C114.701 25.5385 114.872 25.5385 115.044 25.3671L117.103 22.7961C117.103 22.6247 117.274 22.6247 117.446 22.6247L119.162 22.9675C118.475 22.4532 118.304 21.082 117.961 19.7108ZM85.8772 4.79875L85.7056 0.856478C85.7056 0.685075 85.7056 0.685075 85.5341 0.513672C84.8478 0.685075 84.3331 0.685075 83.6468 0.856478C79.8723 1.8849 76.6125 3.59892 73.8673 5.82716C74.0389 5.99857 74.2105 6.16997 74.3821 6.51277L76.0978 10.455C76.4409 11.3121 77.2987 11.6549 78.3282 11.4835C78.6713 11.4835 79.0144 11.1407 79.3576 10.9693L81.588 8.39821C81.7595 8.2268 81.7596 8.2268 81.9311 8.0554L85.0194 6.16997C85.7056 6.16997 86.0488 5.48436 85.8772 4.79875ZM84.3331 36.3369L80.2154 34.9657H80.0439L75.583 32.566C75.4115 32.3946 75.0683 32.3946 74.8968 32.3946L72.6664 32.7374C72.3232 32.7374 72.1517 32.9088 71.9801 33.0802L64.9458 30.1664C64.7742 30.1664 64.7742 29.995 64.7742 29.995L64.2595 27.5953C64.2595 27.4239 64.2595 27.2525 64.431 27.2525L66.833 26.3955C66.833 26.3955 66.833 26.3955 67.0046 26.3955L68.5487 26.2241C68.7203 26.2241 68.7203 26.2241 68.7203 26.0527L70.7791 22.9675C70.7791 22.9675 70.7791 22.9675 70.7791 22.7961L71.1223 20.9106C71.1223 20.7392 71.1222 20.7392 71.2938 20.7392L74.2105 19.0252L74.3821 18.8538L74.7252 17.3112C74.7252 17.1398 74.7252 17.1398 74.7252 16.9684L72.1517 13.8831L71.9801 13.7117H69.235C69.0634 13.7117 68.8919 13.7117 68.8919 13.8831L68.3771 15.2543L67.8624 16.9684C67.8624 17.1398 67.6909 17.3112 67.5193 17.1398L65.8036 16.6255C63.9163 21.082 63.2301 25.8813 63.9164 30.852L65.1173 31.5376L71.637 33.9372L70.9507 36.6797C70.9507 36.8511 70.9507 37.1939 71.1223 37.3653L73.0095 40.7934C73.1811 40.9648 73.3526 41.1362 73.5242 41.3076L74.7252 41.8218C75.0683 41.9932 75.4115 42.336 75.4115 42.6788L75.583 47.9923L75.7546 49.1921C76.6125 49.8777 77.6419 50.3919 78.6713 50.9061L81.2448 44.907C81.2448 44.907 81.2448 44.7356 81.4164 44.7356L82.9605 42.6788C83.1321 42.5074 83.1321 42.5074 83.3037 42.336L84.3331 41.8218C84.6762 41.6504 84.8478 41.3076 84.8478 40.9648L85.1909 37.0225C85.0194 36.8511 84.6762 36.5083 84.3331 36.3369Z" fill="#1BC1D7"/>
<path d="M26.9364 53.8205C41.813 53.8205 53.8728 41.7724 53.8728 26.9103C53.8728 12.0481 41.813 0 26.9364 0C12.0598 0 0 12.0481 0 26.9103C0 41.7724 12.0598 53.8205 26.9364 53.8205Z" fill="#DCEEFD"/>
<path d="M43.9226 13.0268L41.0059 9.9415C40.8343 9.7701 40.4912 9.5987 40.1481 9.5987L33.1137 10.4557C32.7706 10.4557 32.4274 10.6271 32.2559 10.7985L28.8245 12.8554C28.4813 13.1982 28.1382 13.541 28.1382 14.0552V17.4832C28.1382 17.826 28.3098 18.1688 28.8245 18.1688L29.8539 18.3402C30.197 18.3402 30.197 18.6831 30.197 18.8545C30.197 19.0259 30.0255 19.5401 30.0255 19.7115L30.197 21.0827C30.197 21.4255 30.3686 21.5969 30.7117 21.7683L31.9127 22.4539C32.0843 22.6253 32.2559 22.9681 32.2559 23.1395L32.0843 23.9965C32.0843 24.3394 31.7412 24.6822 31.5696 24.6822L30.7117 25.1964C30.5402 25.3678 30.1971 25.7106 30.0255 25.882L29.8539 26.2248C29.6823 26.3962 29.3392 26.739 29.1676 26.9104L28.8245 27.0818C28.6529 27.2532 28.1382 27.2532 27.9666 27.0818L26.5941 26.5676C26.4225 26.5676 26.2509 26.3962 26.0794 26.3962C25.5647 26.2248 25.2215 25.7106 25.2215 25.1964V22.7967C25.2215 22.4539 25.3931 21.9397 25.9078 21.7683L26.4225 21.5969C26.7656 21.5969 26.9372 21.2541 26.9372 21.0827V20.7399C26.9372 20.3971 26.7657 20.2257 26.5941 20.2257H26.0794C25.7362 20.2257 25.5647 19.8829 25.3931 19.7115L24.7068 18.1688C24.5352 17.9974 24.3637 17.826 24.0205 17.9974L23.6774 18.1688C23.5058 18.3402 23.1627 18.1688 22.9911 17.9974L22.648 17.4832C22.4764 17.3118 22.4764 17.3118 22.3049 17.3118C22.1333 17.3118 21.7901 17.4832 21.7901 17.6546L19.7313 26.3962C19.7313 26.739 19.5597 27.0818 19.3882 27.2532L16.6431 30.8527C16.4715 31.0241 16.1283 31.3669 15.9568 31.5383L15.6136 32.0525C15.4421 32.2239 15.0989 32.5667 14.7558 32.9095C14.5842 33.0809 14.4126 33.4237 14.4126 33.5951C14.4126 33.7665 14.5842 33.9379 14.7558 33.9379C15.0989 33.9379 15.2705 34.2807 15.4421 34.4521V34.6235C15.4421 34.9663 15.4421 34.9663 15.0989 34.7949L14.9274 34.6235C14.7558 34.4521 14.2411 34.2807 14.0695 34.4521H13.3832C13.0401 34.4521 12.8685 34.7949 12.8685 34.9663V35.1377C12.8685 35.4805 13.2116 35.6519 13.3832 35.6519H14.2411C14.4126 35.6519 14.4127 35.6519 14.5842 35.8233C15.0989 36.1662 16.4715 37.366 16.6431 37.5374C16.8146 37.7088 16.8146 37.8802 16.8146 38.0516C16.643 38.223 16.4715 38.223 16.2999 38.223L15.4421 37.7088C15.2705 37.5374 14.7558 37.5374 14.5842 37.5374L13.3832 37.7088C13.2116 37.7088 12.8685 37.7088 12.6969 37.5374C12.3538 37.366 11.8391 37.1946 11.496 37.5374L11.3244 37.7088C11.1528 37.8802 11.1528 38.223 11.3244 38.3944C11.496 38.3944 11.6675 38.5658 11.6675 38.5658L13.5548 39.2514C13.7264 39.4228 14.2411 39.2514 14.4126 39.08L14.5842 38.9086C14.7558 38.7372 15.0989 38.5658 15.4421 38.7372L16.6431 39.2514C16.8146 39.4228 16.9862 39.5942 16.8146 39.7656C16.643 39.937 16.2999 40.1084 16.1283 39.937L15.6136 39.7656C15.4421 39.5942 14.9273 39.7656 14.7558 39.7656L14.5842 39.937C14.4127 40.1084 13.8979 40.1084 13.7264 39.937L11.8391 39.2514C11.6675 39.08 11.1528 39.08 10.9813 39.2514L10.295 39.5942C10.1234 39.7656 9.78027 39.937 9.78027 40.2798V40.4512C9.78027 40.794 9.95184 41.1368 10.1234 41.1368L10.4665 41.3082C10.6381 41.4796 10.9813 41.4796 11.1528 41.3082L11.496 40.9654C11.6675 40.794 12.0107 40.794 12.1822 40.9654L13.2117 41.8225C13.3832 41.9939 13.7264 42.1653 14.0695 41.9939L15.7852 41.651C16.1283 41.651 16.4715 41.3082 16.6431 41.1368L17.5009 40.2798C17.6725 40.1084 18.0156 39.937 18.3587 39.937H19.045C19.3882 39.937 19.5597 39.7656 19.7313 39.4228L19.9029 39.2514C20.0744 39.08 20.246 38.7372 20.5892 38.7372L21.7901 38.3944C22.1333 38.3944 22.4764 38.3944 22.648 38.5658L22.9911 38.7372C23.1627 38.9086 23.6774 38.9086 23.849 38.9086L24.5352 38.7372C24.8784 38.7372 25.2215 38.7372 25.2215 39.08L26.4225 40.794C26.5941 40.9654 26.9372 41.1368 27.2804 41.1368H28.8245C29.1676 41.1368 29.5107 41.3082 29.6823 41.4796L31.9127 43.0223C32.0843 43.1937 32.2559 43.5365 32.0843 43.7079L30.3686 46.6217C30.197 46.7931 30.197 47.3073 30.3686 47.4787L31.0549 48.3358C31.2264 48.5072 31.5696 48.6786 31.9127 48.6786H33.6284C33.9716 48.6786 34.1431 48.5072 34.1431 48.1644L34.3147 46.2789C34.3147 45.9361 34.1431 45.7647 33.8 45.7647C33.4569 45.7647 33.1137 45.5933 33.1137 45.4219C32.9421 45.2505 33.1137 44.9077 33.2853 44.7363L34.6579 43.7079C34.8294 43.5365 35.001 43.1937 35.001 43.0223C35.001 42.6795 35.001 42.3367 35.1726 42.1653L36.0304 40.2798C36.202 40.1084 36.202 39.5942 36.0304 39.4228L35.001 36.8518C34.8294 36.6804 34.6579 36.1662 34.6579 35.9948L33.8 34.4521C33.6284 34.2807 33.8 33.9379 33.9716 33.7665L34.8294 33.0809C35.001 32.9095 35.3441 32.9095 35.6873 32.9095L37.0598 33.4237C37.2314 33.5951 37.7461 33.5951 37.9177 33.4237L39.9765 32.7381C40.1481 32.5667 40.6628 32.3953 40.6628 32.2239L41.0059 31.8811C41.1775 31.7097 41.1775 31.3669 40.8343 31.1955L40.3197 30.8527C40.1481 30.6813 40.1481 30.5099 40.3197 30.1671L42.7216 28.1102C42.8932 27.9388 43.0647 27.596 43.0647 27.2532L42.8932 25.1964C42.8932 24.8536 42.55 24.6822 42.3785 24.6822L40.6628 24.5108C40.3196 24.5108 40.1481 24.1679 40.1481 23.9965V22.2825C40.1481 21.9397 40.3196 21.7683 40.6628 21.7683H42.55C42.8932 21.7683 43.0647 21.5969 43.0647 21.2541L44.2657 14.0552C44.2657 13.541 44.2657 13.1982 43.9226 13.0268ZM25.7362 25.882C25.9078 26.0534 26.0794 26.2248 26.4225 26.3962L27.6235 26.739C27.7951 26.739 28.3098 26.739 28.4813 26.739H28.6529C28.8245 26.5676 29.1676 26.3962 29.3392 26.2248V26.0534C29.5108 25.882 29.6823 25.5392 30.0255 25.3678L30.8833 24.6822C31.0549 24.5108 31.398 24.1679 31.398 23.9965V23.6537C31.398 23.4823 31.2264 23.1395 31.0549 22.9681L30.197 22.4539C30.0255 22.2825 29.6823 22.2825 29.3392 22.4539L25.7362 25.1964C25.7362 25.5392 25.5647 25.7106 25.7362 25.882ZM22.1333 16.4548C22.3048 16.4548 22.4764 16.2834 22.648 16.112L23.1627 15.255C23.3343 15.0836 23.3343 14.5694 23.1627 14.398L22.9911 14.2266C22.8196 14.0552 22.648 14.0552 22.4764 14.2266L21.9617 15.255C21.7901 15.4264 21.7901 15.9406 21.7901 16.112C21.7901 16.2834 21.9617 16.4548 22.1333 16.4548ZM23.3343 13.3696C23.6774 13.541 24.0205 13.541 24.1921 13.3696L25.0499 12.5125C25.2215 12.3411 25.2215 11.9983 25.2215 11.9983C25.05 11.8269 24.7068 11.9983 24.5352 12.1697L23.3343 13.0268C23.1627 13.0268 23.1627 13.1982 23.3343 13.3696ZM25.7362 11.3127C25.9078 11.4841 26.0794 11.6555 26.2509 11.4841L28.1382 10.4557C28.3098 10.2843 28.6529 10.1129 28.8245 9.9415C28.996 9.7701 28.9961 9.5987 28.6529 9.7701L25.7362 10.4557C25.3931 10.4557 25.3931 10.7985 25.3931 10.9699L25.7362 11.3127ZM30.7117 10.1129H31.2265C31.5696 10.1129 31.9127 10.1129 32.2559 9.9415L33.1137 9.5987C33.2853 9.42729 33.2853 9.4273 33.1137 9.4273H31.0549C30.7117 9.4273 30.5402 9.5987 30.5402 9.7701C30.197 9.9415 30.3686 10.1129 30.7117 10.1129ZM35.001 9.5987L36.0304 9.08449C36.202 8.91309 36.202 8.91309 36.0304 8.91309H35.001C34.6578 8.91309 34.4863 9.08449 34.4863 9.4273C34.4863 9.5987 34.8294 9.7701 35.001 9.5987ZM13.7264 37.366H13.0401C12.8685 37.366 12.5254 37.1946 12.5254 37.0232C12.5254 36.8518 12.697 36.509 12.8685 36.509H13.5548C13.7264 36.509 14.0695 36.6804 14.0695 36.8518C14.0695 37.0232 13.8979 37.366 13.7264 37.366Z" fill="#1BC1D7"/>
<path d="M28.6904 53.4774L38.6415 63.076C39.3277 63.7616 40.5287 63.2474 40.5287 62.219L39.8424 49.5352L28.6904 53.4774Z" fill="#DCEEFD"/>
</g>
</svg>
