<svg xmlns="http://www.w3.org/2000/svg" xml:space="preserve" viewBox="0 0 1593.4 284.7">
  <path fill="#fff" d="M9.4 275.2h393.3V8.2H9.4v267"/>
  <path fill="#264ca4" d="M17 267.6h378V15.5H17v252"/>
  <path fill="#f5f014" d="m198 70.4 8-5.8 8 5.8-3.1-9.4 8-5.8H209l-3-9.6-3.1 9.6h-10L201 61l-3 9.4M156.7 81.5l8-5.8 8 5.8-3.1-9.4 8.1-5.9h-10l-3-9.5-3.1 9.6h-10l8.1 5.8-3 9.4M134.4 87l-3 9.5h-10l8.1 5.9-3 9.4 8-5.9 8 5.9-3.1-9.4 8-5.9h-9.9l-3-9.5M123.4 147.2l8 5.8-3.1-9.4 8.1-5.8h-10l-3-9.6-3.1 9.6h-10l8.1 5.8-3 9.4 8-5.8M137.5 179.1l-3-9.5-3.1 9.5h-10l8.1 5.9-3 9.4 8-5.9 8 5.9-3.1-9.4 8-5.9h-9.9M167.8 209.4l-3-9.5-3.1 9.5h-10l8 5.8-3 9.4 8-5.8 8 5.8-3-9.4 8-5.8h-10M209 220.4l-3-9.6-3.1 9.6h-10l8.1 5.8-3 9.4 8-5.8 8 5.8-3.1-9.4 8.1-5.8h-10M250.2 209.4l-3-9.5-3 9.5h-10l8 5.8-3 9.4 8-5.8 8 5.8-3-9.4 8-5.8h-10M280.5 179.1l-3-9.5-3 9.5h-10l8 5.9-3 9.4 8-5.9 8 5.9-3-9.4 8-5.9h-10M301.5 137.7h-10l-3-9.6-3.1 9.6h-10l8 5.8-3 9.4 8-5.8 8 5.8-3-9.4 8-5.8M269.5 111.6l8-5.8 8 5.8-3-9.4 8-5.8h-10l-3-9.5-3 9.5h-10l8 5.8-3 9.4M247.3 56.7l-3 9.6h-10l8 5.8-3 9.4 8-5.8 8 5.8-3-9.4 8-5.9h-10l-3-9.5"/>
  <path fill="#264ca4" d="M452 108.6v-62h18.8l11.3 42.3 11.1-42.4H512v62h-11.7V59.8L488 108.6h-12l-12.3-48.9v48.9h-11.6M551 82.3c0-3.5-1-6.1-2.6-7.9a8.2 8.2 0 0 0-6.2-2.7c-2.6 0-4.7 1-6.4 2.9a11 11 0 0 0-2.5 7.7zm-.6 12 11.8 2c-1.5 4.3-4 7.6-7.2 9.9a21.2 21.2 0 0 1-12.3 3.4c-7.8 0-13.6-2.6-17.4-7.7-3-4-4.4-9.2-4.4-15.4 0-7.5 2-13.3 5.8-17.5 4-4.3 8.8-6.4 14.8-6.4a20 20 0 0 1 15.8 6.6c3.9 4.5 5.7 11.2 5.6 20.3H533c0 3.6 1 6.3 2.8 8.3a9 9 0 0 0 6.9 3c1.9 0 3.4-.6 4.7-1.6 1.3-1 2.2-2.7 2.9-5M582 85.1c0 4.8.7 8.3 2 10.4a9 9 0 0 0 15 1.2c2-2.3 3-5.8 3-10.4 0-5.2-1-8.9-2.9-11.2a8.8 8.8 0 0 0-7.1-3.4 9 9 0 0 0-7.1 3.4c-2 2.2-2.9 5.6-2.9 10zm31.8 23.5h-11V102c-2 2.5-4 4.5-6.6 5.7-2.5 1.3-5 1.9-7.5 1.9-5.2 0-9.6-2-13.3-6.2-3.7-4.2-5.5-10-5.5-17.5 0-7.6 1.8-13.4 5.4-17.3a17.5 17.5 0 0 1 26.6.3V46.5h11.9v62M652.2 82.3c-.1-3.5-1-6.1-2.7-7.9a8.2 8.2 0 0 0-6.2-2.7c-2.6 0-4.7 1-6.4 2.9a11 11 0 0 0-2.5 7.7zm-.7 12 11.9 2c-1.6 4.3-4 7.6-7.3 9.9a21.2 21.2 0 0 1-12.3 3.4c-7.8 0-13.6-2.6-17.3-7.7-3-4-4.5-9.2-4.5-15.4 0-7.5 2-13.3 5.9-17.5 3.8-4.3 8.8-6.4 14.7-6.4a20 20 0 0 1 15.8 6.6c4 4.5 5.8 11.2 5.6 20.3h-29.8c0 3.6 1 6.3 2.9 8.3a9 9 0 0 0 6.8 3c1.9 0 3.5-.6 4.7-1.6 1.3-1 2.3-2.7 3-5M683.2 85.2c0 4.7 1 8.2 2.8 10.5a8.6 8.6 0 0 0 6.8 3.3c3 0 5.4-1.2 7.4-3.4 2-2.3 3-5.7 3-10.1 0-4.7-1-8.1-2.9-10.4a9.1 9.1 0 0 0-7.3-3.4 8.8 8.8 0 0 0-7 3.3c-1.9 2.3-2.8 5.6-2.8 10.2zm-10.6 26.3 13.6 1.7c.2 1.6.7 2.7 1.5 3.3 1.2.8 3 1.2 5.4 1.2 3 0 5.4-.4 7-1.4 1-.6 1.8-1.6 2.3-3 .4-1 .6-2.8.6-5.4v-6.6a16 16 0 0 1-13.5 7.3c-6 0-10.8-2.6-14.3-7.7a26 26 0 0 1-4.2-15c0-7.6 1.8-13.3 5.5-17.3 3.6-4 8-6 13.5-6s10.1 2.5 13.7 7.3v-6.3H715V104c0 5.3-.5 9.2-1.4 11.9-.8 2.6-2 4.6-3.6 6.1a16.3 16.3 0 0 1-6.4 3.6c-2.6.8-6 1.2-10 1.2-7.6 0-13-1.3-16.2-3.9-3.2-2.6-4.8-6-4.8-10v-1.4M753.3 82.3c0-3.5-1-6.1-2.6-7.9a8.2 8.2 0 0 0-6.2-2.7c-2.6 0-4.8 1-6.5 2.9a11 11 0 0 0-2.5 7.7zm-.7 12 11.9 2c-1.5 4.3-4 7.6-7.2 9.9a21.2 21.2 0 0 1-12.4 3.4c-7.8 0-13.6-2.6-17.3-7.7-3-4-4.4-9.2-4.4-15.4 0-7.5 1.9-13.3 5.8-17.5 3.9-4.3 8.8-6.4 14.8-6.4a20 20 0 0 1 15.8 6.6c3.9 4.5 5.7 11.2 5.5 20.3h-29.8c.1 3.6 1 6.3 3 8.3a9 9 0 0 0 6.8 3c1.8 0 3.4-.6 4.7-1.6 1.2-1 2.2-2.7 2.8-5M803.3 108.6v-45h11.9v45zm0-51v-11h11.9v11zm-33.4 6h6.6v-3.3c0-3.8.4-6.6 1.2-8.5a9.5 9.5 0 0 1 4.5-4.6 17 17 0 0 1 8.2-1.7c3.3 0 6.7.5 9.9 1.5l-1.6 8.3c-1.9-.4-3.7-.7-5.5-.7-1.7 0-3 .4-3.7 1.2-.7.8-1.1 2.4-1.1 4.7v3.1h8.9V73h-8.9v35.6h-11.9V73H770v-9.4M868.6 108.6h-11.9v-23c0-4.8-.2-8-.7-9.4a6.6 6.6 0 0 0-2.5-3.3 7 7 0 0 0-4.1-1.2c-2 0-4 .6-5.6 1.7a8.5 8.5 0 0 0-3.3 4.5c-.6 1.9-1 5.3-1 10.3v20.4h-11.8v-45h11v6.6c4-5 8.9-7.6 14.8-7.6 2.7 0 5 .5 7.2 1.4a12 12 0 0 1 5 3.7c1 1.4 1.8 3 2.3 5 .4 1.8.6 4.5.6 8v27.9M905.5 87c-1.5.5-4 1.1-7.2 1.8-3.3.7-5.5 1.4-6.5 2a5 5 0 0 0-2.3 4.3c0 1.6.6 3 1.8 4.3a6.5 6.5 0 0 0 4.8 1.8c2.1 0 4.2-.7 6.1-2.1 1.4-1 2.4-2.4 2.8-4 .3-1 .5-2.9.5-5.7zm-16-9.6-10.7-2c1.2-4.3 3.3-7.6 6.3-9.6 3-2.1 7.3-3.2 13.2-3.2 5.3 0 9.2.7 11.8 2 2.6 1.2 4.4 2.8 5.5 4.7 1 2 1.6 5.5 1.6 10.6l-.1 14c0 3.9.1 6.8.5 8.7.4 1.8 1.1 3.8 2.2 6H908a43.5 43.5 0 0 1-1.6-5 18.6 18.6 0 0 1-14 6c-4.5 0-8.2-1.3-10.8-3.8-2.7-2.5-4-5.7-4-9.5 0-2.5.6-4.8 1.8-6.8 1.2-2 2.9-3.5 5-4.6 2.3-1 5.4-2 9.5-2.7 5.6-1 9.5-2 11.6-3v-1.1c0-2.3-.6-4-1.7-5-1.1-.9-3.3-1.4-6.4-1.4-2.1 0-3.8.4-5 1.3a8.7 8.7 0 0 0-2.8 4.4M969.8 108.6h-12v-23c0-4.8-.2-8-.7-9.4a6.6 6.6 0 0 0-2.4-3.3 7 7 0 0 0-4.2-1.2c-2 0-3.9.6-5.5 1.7a8.5 8.5 0 0 0-3.4 4.5c-.6 1.9-.9 5.3-.9 10.3v20.4h-11.9v-45h11v6.6c4-5 9-7.6 14.9-7.6 2.6 0 5 .5 7.2 1.4a12 12 0 0 1 4.9 3.7c1.1 1.4 1.9 3 2.3 5 .5 1.8.7 4.5.7 8v27.9M1021 77l-11.7 2a8.5 8.5 0 0 0-2.7-5.2 8.1 8.1 0 0 0-5.4-1.8c-3 0-5.3 1-7.1 3-1.8 2-2.7 5.5-2.7 10.3 0 5.3 1 9.1 2.7 11.3a8.8 8.8 0 0 0 7.2 3.3 8 8 0 0 0 5.6-2c1.4-1.2 2.4-3.4 3-6.5l11.7 2a20.7 20.7 0 0 1-7 12c-3.4 2.8-8 4.2-13.8 4.2-6.6 0-11.8-2-15.7-6.2-4-4.2-5.9-10-5.9-17.2 0-7.5 2-13.2 5.9-17.4 4-4.1 9.2-6.2 16-6.2 5.4 0 9.7 1.2 13 3.6 3.2 2.3 5.5 6 7 10.7M1030 108.6v-45h12v45zm0-51v-11h12v11h-12M1080.8 82.3c0-3.5-1-6.1-2.6-7.9a8.2 8.2 0 0 0-6.2-2.7c-2.6 0-4.8 1-6.5 2.9a11 11 0 0 0-2.5 7.7zm-.7 12 11.9 2c-1.5 4.3-4 7.6-7.2 9.9a21.2 21.2 0 0 1-12.4 3.4c-7.8 0-13.6-2.6-17.3-7.7-3-4-4.5-9.2-4.5-15.4 0-7.5 2-13.3 5.9-17.5 3.9-4.3 8.8-6.4 14.8-6.4a20 20 0 0 1 15.8 6.6c3.8 4.5 5.7 11.2 5.5 20.3h-29.8c.1 3.6 1 6.3 3 8.3a9 9 0 0 0 6.8 3c1.8 0 3.4-.6 4.7-1.6 1.2-1 2.2-2.7 2.8-5M1113.7 108.6h-11.9v-45h11V70c2-3 3.6-5 5.2-6 1.5-.9 3.2-1.4 5.1-1.4 2.7 0 5.3.8 7.8 2.3l-3.7 10.3c-2-1.3-3.8-2-5.5-2-1.7 0-3.1.5-4.3 1.5-1.1.9-2 2.5-2.7 5-.7 2.3-1 7.4-1 15v13.9M1145.5 85.1c0 4.8.7 8.3 2 10.4a9 9 0 0 0 15 1.2c2-2.3 3-5.8 3-10.4 0-5.2-1-8.9-2.9-11.2a8.8 8.8 0 0 0-7.1-3.4 9 9 0 0 0-7.1 3.4c-2 2.2-2.9 5.6-2.9 10zm31.8 23.5h-11V102c-2 2.5-4 4.5-6.6 5.7-2.5 1.3-5 1.9-7.5 1.9-5.2 0-9.6-2-13.3-6.2-3.7-4.2-5.5-10-5.5-17.5 0-7.6 1.8-13.4 5.4-17.3a17.5 17.5 0 0 1 26.6.3V46.5h11.9v62M1222.5 85.1c0 4.8.7 8.3 2 10.4a9 9 0 0 0 15 1.2c2-2.3 3-5.8 3-10.4 0-5.2-1-8.9-2.9-11.2a8.8 8.8 0 0 0-7.1-3.4 9 9 0 0 0-7.1 3.4c-2 2.2-2.9 5.6-2.9 10zm31.8 23.5h-11V102c-1.9 2.5-4 4.5-6.6 5.7-2.5 1.3-5 1.9-7.5 1.9-5.2 0-9.6-2-13.3-6.2-3.7-4.2-5.5-10-5.5-17.5 0-7.6 1.8-13.4 5.4-17.3a17.5 17.5 0 0 1 26.6.3V46.5h11.9v62M1275.4 86.1c0 4.5 1.1 7.9 3.2 10.3a10 10 0 0 0 7.8 3.5 10 10 0 0 0 7.8-3.5c2.2-2.4 3.2-5.9 3.2-10.4 0-4.4-1-7.8-3.2-10.1a10 10 0 0 0-7.8-3.6 10 10 0 0 0-7.8 3.6c-2.1 2.3-3.2 5.8-3.2 10.2zm-12.1-.6c0-4 1-7.8 2.9-11.5a20 20 0 0 1 8.2-8.5c3.6-1.9 7.6-2.9 12-2.9a22.4 22.4 0 0 1 23.2 23.4c0 6.8-2.2 12.4-6.5 16.9-4.4 4.5-10 6.7-16.6 6.7-4.1 0-8-1-11.8-2.8a19.2 19.2 0 0 1-8.5-8.2c-2-3.6-3-8-3-13.1M1328.4 86.1c0 4.5 1 7.9 3.2 10.3a10 10 0 0 0 7.8 3.5c3 0 5.7-1.2 7.8-3.5 2-2.4 3.1-5.9 3.1-10.4 0-4.4-1-7.8-3.1-10.1a10 10 0 0 0-7.8-3.6 10 10 0 0 0-7.8 3.6c-2.2 2.3-3.2 5.8-3.2 10.2zm-12.2-.6c0-4 1-7.8 3-11.5a20 20 0 0 1 8.2-8.5c3.6-1.9 7.5-2.9 12-2.9a22.5 22.5 0 0 1 23.2 23.4c0 6.8-2.2 12.4-6.6 16.9-4.4 4.5-10 6.7-16.6 6.7-4 0-8-1-11.8-2.8a19.2 19.2 0 0 1-8.5-8.2c-2-3.6-3-8-3-13.1M1383.3 108.6h-12v-45h11.1V70c2-3 3.6-5 5.1-6 1.5-.9 3.2-1.4 5.2-1.4 2.7 0 5.3.8 7.8 2.3l-3.7 10.3c-2-1.3-3.9-2-5.6-2-1.6 0-3 .5-4.2 1.5-1.2.9-2 2.5-2.7 5-.7 2.3-1 7.4-1 15v13.9M461.6 189.1c0 4.8.7 8.3 2 10.4a9 9 0 0 0 15 1.2c2-2.3 3-5.8 3-10.4 0-5.2-1-8.9-2.9-11.2a8.8 8.8 0 0 0-7.1-3.4 9 9 0 0 0-7.1 3.4c-2 2.2-2.9 5.6-2.9 10zm31.8 23.5h-11V206c-2 2.5-4 4.5-6.6 5.7-2.5 1.3-5 1.9-7.5 1.9-5.2 0-9.6-2-13.3-6.2-3.7-4.2-5.5-10-5.5-17.5 0-7.6 1.8-13.4 5.4-17.3a17.5 17.5 0 0 1 26.6.3v-22.4h11.9v62M531.8 186.3c0-3.5-1-6.1-2.7-7.9a8.2 8.2 0 0 0-6.2-2.7c-2.5 0-4.7 1-6.4 2.9a11 11 0 0 0-2.5 7.7zm-.7 12 11.9 2c-1.6 4.3-4 7.6-7.3 9.9a21.2 21.2 0 0 1-12.3 3.4c-7.8 0-13.6-2.6-17.3-7.7-3-4-4.5-9.2-4.5-15.4 0-7.5 2-13.3 5.9-17.5 3.9-4.3 8.8-6.4 14.7-6.4a20 20 0 0 1 15.9 6.6c3.8 4.5 5.7 11.2 5.5 20.3h-29.8c0 3.6 1 6.3 2.9 8.3a9 9 0 0 0 6.8 3c1.9 0 3.5-.6 4.7-1.6 1.3-1 2.3-2.7 3-5M577.5 212.6v-62h46V161H590v13.8H621v10.4H590v17h34.6v10.4h-47.1M664.8 212.6v-6.7a18.1 18.1 0 0 1-23 5.8 11.7 11.7 0 0 1-5.3-5.7c-1-2.4-1.6-5.7-1.6-10v-28.4h12v20.7c0 6.3.1 10.2.6 11.6a6.3 6.3 0 0 0 2.4 3.4c1.1.8 2.6 1.2 4.4 1.2a9.4 9.4 0 0 0 8.7-5.8c.6-1.6 1-5.7 1-12.1v-19h11.8v45h-11M699.5 212.6h-11.9v-45h11v6.4c2-3 3.6-5 5.1-6 1.6-.9 3.3-1.4 5.2-1.4 2.7 0 5.3.8 7.8 2.3l-3.7 10.3c-2-1.3-3.8-2-5.5-2-1.7 0-3.1.5-4.3 1.5-1.1.9-2 2.5-2.7 5-.7 2.3-1 7.4-1 15v13.9M731.3 190.1c0 4.5 1 7.9 3.1 10.3a10 10 0 0 0 7.9 3.5 10 10 0 0 0 7.8-3.5c2-2.4 3.1-5.9 3.1-10.4 0-4.4-1-7.8-3.1-10.1a10 10 0 0 0-7.8-3.6 10 10 0 0 0-7.9 3.6c-2 2.3-3.1 5.8-3.1 10.2zm-12.2-.6c0-4 1-7.8 3-11.5a20 20 0 0 1 8.2-8.5c3.5-1.9 7.5-2.9 12-2.9a22.4 22.4 0 0 1 23.2 23.4c0 6.8-2.2 12.4-6.6 16.9-4.4 4.5-10 6.7-16.6 6.7-4.1 0-8-1-11.8-2.8a19.1 19.1 0 0 1-8.5-8.2c-2-3.6-3-8-3-13.1M786.2 189.4c0 5 1 8.7 3 11.1 2 2.5 4.5 3.7 7.3 3.7s5-1.1 7-3.4c1.8-2.2 2.7-5.8 2.7-10.9 0-4.7-1-8.2-2.9-10.5a8.8 8.8 0 0 0-7-3.4c-2.9 0-5.3 1.1-7.2 3.4-2 2.2-2.9 5.6-2.9 10zm-11.8-21.8h11.1v6.6a16.6 16.6 0 0 1 14-7.6c5.3 0 9.7 2 13.3 6.2 3.7 4 5.5 9.8 5.5 17 0 7.6-1.9 13.4-5.5 17.6a17.1 17.1 0 0 1-20.1 4.7c-2-1-4.1-2.7-6.4-5v22.6h-11.9v-62M854.4 186.3c0-3.5-1-6.1-2.6-7.9a8.2 8.2 0 0 0-6.2-2.7c-2.6 0-4.8 1-6.5 2.9a11 11 0 0 0-2.5 7.7zm-.7 12 11.9 2c-1.5 4.3-4 7.6-7.2 9.9a21.2 21.2 0 0 1-12.4 3.4c-7.8 0-13.6-2.6-17.3-7.7-3-4-4.5-9.2-4.5-15.4 0-7.5 2-13.3 5.9-17.5 3.9-4.3 8.8-6.4 14.8-6.4a20 20 0 0 1 15.8 6.6c3.8 4.5 5.7 11.2 5.5 20.3h-29.8c.1 3.6 1 6.3 3 8.3a9 9 0 0 0 6.8 3c1.8 0 3.4-.6 4.7-1.6 1.2-1 2.2-2.7 2.8-5M871.7 199.8l12-1.9c.5 2.4 1.5 4.1 3 5.3 1.6 1.2 3.8 1.8 6.6 1.8 3 0 5.4-.6 7-1.7 1-.8 1.5-1.8 1.5-3.2 0-.9-.3-1.6-.9-2.2-.6-.6-1.9-1-4-1.6-9.5-2-15.6-4-18.2-5.8a11.6 11.6 0 0 1-5.3-10c0-4 1.5-7.2 4.6-9.9 3-2.6 7.8-4 14.3-4a25 25 0 0 1 13.7 3c3 2 5 5 6.2 9l-11.2 2a7 7 0 0 0-2.8-4 10 10 0 0 0-5.7-1.4 13 13 0 0 0-6.7 1.3c-1 .6-1.4 1.4-1.4 2.4 0 .8.4 1.6 1.2 2.2 1 .7 4.8 1.9 11.1 3.3a33.1 33.1 0 0 1 13.3 5.3 11 11 0 0 1 3.7 8.8c0 4.2-1.7 7.7-5.2 10.7-3.4 3-8.5 4.4-15.2 4.4a25 25 0 0 1-14.6-3.7 17.2 17.2 0 0 1-7-10.1M950.8 186.3c0-3.5-1-6.1-2.6-7.9a8.2 8.2 0 0 0-6.2-2.7c-2.6 0-4.8 1-6.5 2.9a11 11 0 0 0-2.5 7.7zm-.7 12 11.9 2c-1.5 4.3-4 7.6-7.2 9.9a21.2 21.2 0 0 1-12.4 3.4c-7.8 0-13.6-2.6-17.3-7.7-3-4-4.5-9.2-4.5-15.4 0-7.5 2-13.3 5.9-17.5 3.9-4.3 8.8-6.4 14.8-6.4a20 20 0 0 1 15.8 6.6c3.8 4.5 5.7 11.2 5.5 20.3h-29.8c.1 3.6 1 6.3 3 8.3a9 9 0 0 0 6.8 3c1.8 0 3.4-.6 4.7-1.6 1.2-1 2.2-2.7 2.8-5M996.4 150.5h12.5v33.6c0 5.4.2 8.8.5 10.4a10 10 0 0 0 3.8 6.1c2 1.6 4.8 2.3 8.3 2.3 3.5 0 6.2-.7 8-2.1a8.6 8.6 0 0 0 3.3-5.4c.4-2.1.5-5.6.5-10.5v-34.4h12.6v32.6c0 7.5-.4 12.7-1 15.8-.7 3-2 5.7-3.8 7.8a18.9 18.9 0 0 1-7.3 5c-3 1.3-7 2-12 2-5.9 0-10.3-.7-13.4-2.1-3-1.4-5.5-3.2-7.3-5.3a17 17 0 0 1-3.5-7c-.8-3.5-1.2-8.7-1.2-15.7v-33M1099.9 212.6h-12v-23c0-4.8-.2-8-.7-9.4a6.6 6.6 0 0 0-2.5-3.3 7 7 0 0 0-4-1.2c-2.2 0-4 .6-5.6 1.7a8.5 8.5 0 0 0-3.4 4.5c-.6 1.9-1 5.3-1 10.3v20.4H1059v-45h11v6.6c4-5 8.9-7.6 14.9-7.6 2.6 0 5 .5 7.1 1.4a12 12 0 0 1 5 3.7c1 1.4 1.9 3 2.3 5 .4 1.8.7 4.5.7 8v27.9M1112 212.6v-45h11.8v45Zm0-51v-11h11.8v11H1112M1162.7 186.3c0-3.5-1-6.1-2.7-7.9a8.2 8.2 0 0 0-6.1-2.7c-2.6 0-4.8 1-6.5 2.9a11 11 0 0 0-2.5 7.7zm-.7 12 11.9 2c-1.5 4.3-4 7.6-7.2 9.9a21.2 21.2 0 0 1-12.4 3.4c-7.8 0-13.6-2.6-17.3-7.7-3-4-4.5-9.2-4.5-15.4 0-7.5 2-13.3 5.9-17.5 3.9-4.3 8.8-6.4 14.7-6.4a20 20 0 0 1 15.9 6.6c3.8 4.5 5.7 11.2 5.5 20.3h-29.8c.1 3.6 1 6.3 2.9 8.3a9 9 0 0 0 6.9 3c1.8 0 3.4-.6 4.7-1.6 1.2-1 2.2-2.7 2.8-5"/>
</svg>