<svg xmlns="http://www.w3.org/2000/svg" viewBox="0 0 132 132">
  <defs>
    <linearGradient id="a" x1="50%" x2="50%" y1="100%" y2="0%">
      <stop offset="0%" stop-color="#1D73F6"/>
      <stop offset="100%" stop-color="#26B3EF"/>
    </linearGradient>
  </defs>
  <g fill="none" fill-rule="evenodd">
    <path fill="url(#a)" fill-rule="nonzero" d="M0 0h132v132H0z"/>
    <path fill="#000" fill-rule="nonzero" d="M105.2 25.5c.7 0 1.3.6 1.3 1.3v32.1a7 7 0 000 14.2v32.1c0 .7-.6 1.3-1.3 1.3H26.8c-.7 0-1.3-.6-1.3-1.3V73.1a7 7 0 100-14.2V26.8c0-.7.6-1.3 1.3-1.3h78.4z"/>
    <path fill="#FFF" d="M105.2 25.5c.7 0 1.3.6 1.3 1.3v32.1a7 7 0 000 14.2v32.1c0 .7-.6 1.3-1.3 1.3H26.8c-.7 0-1.3-.6-1.3-1.3V73.1a7 7 0 100-14.2V26.8c0-.7.6-1.3 1.3-1.3h78.4z"/>
    <path fill="#383836" fill-rule="nonzero" d="M90.4 83.6c0 4-3 7.2-7 7.4H83v-7.4h7.4zm-14.8 0V91h-4a3.3 3.3 0 01-3.4-3.3v-4.1h7.4zM60 68.8c1.2 0 2.2 1 2.2 2.2v17.7c0 1.3-1 2.3-2.2 2.3H42.2C41 91 40 90 40 88.7V71c0-1.2 1-2.2 2.2-2.2H60zm23 7.4v7.4h-7.4v-7.4H83zm-28.6.3h-6.6v6.7h6.6v-6.7zm21.2-7.7v7.4h-7.4V72c0-1.9 1.5-3.3 3.3-3.3h4.1zm11.6 0c1.8 0 3.2 1.4 3.2 3.3v4H83v-7.3h4.2zM60 40.5c1.2 0 2.2 1 2.2 2.2v17.8c0 1.2-1 2.2-2.2 2.2H42.2c-1.2 0-2.2-1-2.2-2.2V42.7c0-1.2 1-2.2 2.2-2.2H60zm28.2 0c1.2 0 2.2 1 2.2 2.2v17.8c0 1.2-1 2.2-2.2 2.2H70.5c-1.3 0-2.3-1-2.3-2.2V42.7c0-1.2 1-2.2 2.3-2.2h17.7zm-33.8 7.8h-6.6v6.6h6.6v-6.6zm28.3 0H76v6.6h6.7v-6.6z"/>
  </g>
</svg>
