<svg xmlns="http://www.w3.org/2000/svg" viewBox="0 0 499.52 131.1"><defs><style>.cls-1{fill:#404040;}.cls-2{fill:#034ea2;}.cls-3{fill:#b3b3b3;}.cls-4{fill:#fff200;}</style></defs><g id="Layer_2" data-name="Layer 2"><g id="EN"><path class="cls-1" d="M282.44,66.29a.67.67,0,0,1,.76-.76h14a.66.66,0,0,1,.72.73v2.35c0,.46-.19.69-.76.69H286.77v6.53H296c.49,0,.76.23.76.68v2.36c0,.46-.2.68-.76.68h-9.2V87h10.64c.45,0,.68.23.68.72v2.32c0,.49-.19.68-.72.68H283.2c-.53,0-.76-.23-.76-.68Z"/><path class="cls-1" d="M317.25,90.76h-2.7c-.57,0-.72-.26-.72-.72V88.86l-.08,0a12.46,12.46,0,0,1-6.38,2.28c-5.13,0-5.63-3-5.63-7V72.9c0-.45.19-.75.73-.75h2.77c.49,0,.68.26.68.75V83.58c0,2.28.46,3.73,2.78,3.73,1.63,0,4.14-1.22,5.13-1.71V72.9c0-.45.15-.75.72-.75h2.7c.53,0,.72.26.72.75V90C318,90.53,317.78,90.76,317.25,90.76Z"/><path class="cls-1" d="M326.9,90c0,.46-.19.72-.72.72h-2.74c-.53,0-.72-.23-.72-.72V72.9c0-.49.19-.75.72-.75h2.7a.66.66,0,0,1,.76.75v1.68l.07.07A14.26,14.26,0,0,1,332.6,72c.49-.11.83,0,.91.65l.26,2.55c0,.53.08.76-.72.91a37.61,37.61,0,0,0-6.15,1.75Z"/><path class="cls-1" d="M343.62,91.07c-7.64,0-8.13-5.59-8.13-9.92,0-3.57.79-9.38,8.13-9.38s8.4,4.9,8.4,9.38C352,85.48,351.48,91.07,343.62,91.07Zm0-15.66c-3.23,0-4,2-4,6s.73,6,3.92,6c3.46,0,4.14-1.94,4.14-6S347.11,75.41,343.66,75.41Z"/><path class="cls-1" d="M364.59,91.1a15,15,0,0,1-4.75-.83l0,0V97c0,.42-.12.76-.73.76h-2.69c-.61,0-.73-.26-.73-.76V72.9c0-.49.19-.75.73-.75h2.69c.54,0,.69.3.69.75V74l.11.08a11.8,11.8,0,0,1,6-2.28c5,0,6.26,3.76,6.26,9.5C372.15,87.53,370.6,91.1,364.59,91.1Zm.31-15.46a13.62,13.62,0,0,0-5.09,1.71v9.5a15.26,15.26,0,0,0,4.37.64c2.73,0,3.68-1.4,3.68-6.19S366.91,75.64,364.9,75.64Z"/><path class="cls-1" d="M379.45,82.59c.12,3.84,1.48,4.9,4.6,4.9,1.37,0,3.49-.26,4.94-.41.68-.08.91-.08,1,.64l.23,1.26c.12.57,0,.87-.64,1.17a20.71,20.71,0,0,1-6.12.95c-7.26,0-8.32-4.63-8.32-9.57,0-3.69.68-9.76,8.09-9.76,6.8,0,8,4.4,8.13,8.51,0,1.36-.34,2.31-1.86,2.31Zm0-2.85H387c0-2.31-.61-4.56-3.76-4.56C380.44,75.18,379.68,76.89,379.49,79.74Z"/><path class="cls-1" d="M406.58,88.6a11.93,11.93,0,0,1-7,2.47c-4,0-5.2-2.21-5.2-5.4,0-4.44,2.35-6.34,7.14-6.34h4.86v-1c0-2.28-.83-3.08-3.95-3.08-1.25,0-3.65.19-5.17.34-.76.12-.95.08-1.06-.45l-.34-1.41c-.08-.49,0-.8.87-1.14a24.06,24.06,0,0,1,6.42-.83c6.58,0,7.37,2.69,7.37,7v7.33c0,1.56.19,1.6,1.37,1.75.57,0,.72.15.72.57V90c0,.42-.26.69-.91.8a9.3,9.3,0,0,1-1.78.19c-1.79,0-2.89-.53-3.27-2.32Zm-.23-6.31h-4.63c-1.9,0-3.12.68-3.12,3.19,0,1.67.57,2.21,2.36,2.21a12.84,12.84,0,0,0,5.39-1.79Z"/><path class="cls-1" d="M430.71,90.76H428c-.5,0-.73-.23-.73-.72l0-10.68c0-2.24-.53-3.72-2.73-3.72-1.52,0-4.18,1.22-5.21,1.71V90c0,.46-.19.72-.72.72h-2.7c-.53,0-.72-.23-.72-.72V72.9c0-.49.19-.75.72-.75h2.7c.53,0,.72.26.72.75V74s.08,0,.12,0a12.6,12.6,0,0,1,6.38-2.28c5.13,0,5.58,3.38,5.58,7.22V90C431.43,90.5,431.28,90.76,430.71,90.76Z"/><path class="cls-1" d="M292.64,105.27a20.6,20.6,0,0,1,6.95,1.1c.61.27.84.57.72,1.18L300,109.1c-.12.46-.3.65-1,.58a52.62,52.62,0,0,0-6.12-.5c-5.16,0-5.92,4.18-5.92,9.12s.95,8.89,5.92,8.89a46.24,46.24,0,0,0,6.12-.49c.72-.08.87.11,1,.61l.3,1.44a.91.91,0,0,1-.64,1.21,21.6,21.6,0,0,1-7,1.14c-8.48,0-10.26-6.26-10.26-12.72S284,105.27,292.64,105.27Z"/><path class="cls-1" d="M311.18,131.07c-7.64,0-8.13-5.59-8.13-9.92,0-3.57.8-9.38,8.13-9.38s8.4,4.9,8.4,9.38C319.58,125.48,319.05,131.07,311.18,131.07Zm0-15.66c-3.23,0-4,2-4,6s.72,6,3.91,6c3.46,0,4.14-1.94,4.14-6S314.68,115.41,311.22,115.41Z"/><path class="cls-1" d="M349.82,130.76h-2.73c-.53,0-.72-.23-.72-.72V119.25c0-2.81-.69-3.61-2.59-3.61-1.4,0-3.68,1.1-4.86,1.71,0,.38,0,1.06,0,1.94V130c0,.46-.15.72-.72.72h-2.78c-.49,0-.64-.23-.64-.72v-11c0-2.32-.61-3.42-2.51-3.42a13.27,13.27,0,0,0-4.9,1.71V130c0,.46-.19.72-.72.72H324c-.49,0-.68-.23-.68-.72V112.9c0-.49.19-.75.68-.75h2.7a.66.66,0,0,1,.76.75V114l0,0a11.51,11.51,0,0,1,5.67-2.24c2.2,0,4,.46,5.2,2.66A11.82,11.82,0,0,1,345,111.8c5,0,5.51,3.27,5.51,7.07V130C350.51,130.5,350.36,130.76,349.82,130.76Z"/><path class="cls-1" d="M381.14,130.76H378.4c-.53,0-.72-.23-.72-.72V119.25c0-2.81-.69-3.61-2.59-3.61-1.4,0-3.68,1.1-4.86,1.71,0,.38,0,1.06,0,1.94V130c0,.46-.15.72-.72.72h-2.78c-.49,0-.64-.23-.64-.72v-11c0-2.32-.61-3.42-2.51-3.42a13.27,13.27,0,0,0-4.9,1.71V130c0,.46-.19.72-.72.72h-2.74c-.49,0-.68-.23-.68-.72V112.9c0-.49.19-.75.68-.75H358a.66.66,0,0,1,.76.75V114l0,0a11.44,11.44,0,0,1,5.66-2.24c2.2,0,4,.46,5.2,2.66a11.82,11.82,0,0,1,6.69-2.66c5,0,5.51,3.27,5.51,7.07V130C381.82,130.5,381.67,130.76,381.14,130.76Z"/><path class="cls-1" d="M388.59,109.41c-2,0-2.24-1.1-2.24-2.2s.41-2.17,2.24-2.17,2.24.87,2.24,2.17S390.49,109.41,388.59,109.41Zm2,20.63c0,.42-.15.72-.68.72h-2.7c-.53,0-.76-.23-.76-.72V112.87c0-.54.23-.72.76-.72h2.7c.53,0,.68.3.68.72Z"/><path class="cls-1" d="M401.54,131.07a18.87,18.87,0,0,1-5.89-.84c-.76-.3-.91-.65-.79-1.25l.26-1.26c.12-.61.38-.64,1-.57a41.13,41.13,0,0,0,5.4.46c2.43,0,3.42-.65,3.42-2.17,0-1.75-.65-2.13-3-2.47-3.73-.53-7-1.33-7-5.47,0-3.76,2.89-5.73,7.15-5.73a19,19,0,0,1,5.77.83c.65.27.92.57.8,1.14l-.3,1.37c-.12.53-.34.61-1,.53-1.63-.19-3.76-.42-5.17-.42-2.43,0-3,.69-3,2.13s.91,1.67,3.23,2.05c3.61.53,6.88,1.26,6.88,5.78S405.46,131.07,401.54,131.07Z"/><path class="cls-1" d="M419,131.07a18.83,18.83,0,0,1-5.89-.84c-.76-.3-.91-.65-.8-1.25l.26-1.26c.12-.61.38-.64,1-.57a41.41,41.41,0,0,0,5.4.46c2.43,0,3.42-.65,3.42-2.17,0-1.75-.65-2.13-3-2.47-3.73-.53-7-1.33-7-5.47,0-3.76,2.89-5.73,7.14-5.73a19.11,19.11,0,0,1,5.78.83c.64.27.91.57.79,1.14l-.3,1.37c-.11.53-.34.61-1,.53-1.63-.19-3.76-.42-5.16-.42-2.44,0-3,.69-3,2.13s.91,1.67,3.22,2.05c3.61.53,6.88,1.26,6.88,5.78S422.9,131.07,419,131.07Z"/><path class="cls-1" d="M432.86,109.41c-2,0-2.24-1.1-2.24-2.2S431,105,432.86,105s2.24.87,2.24,2.17S434.76,109.41,432.86,109.41Zm2,20.63c0,.42-.15.72-.68.72h-2.7c-.53,0-.76-.23-.76-.72V112.87c0-.54.23-.72.76-.72h2.7c.53,0,.68.3.68.72Z"/><path class="cls-1" d="M447.33,131.07c-7.63,0-8.13-5.59-8.13-9.92,0-3.57.8-9.38,8.13-9.38s8.4,4.9,8.4,9.38C455.73,125.48,455.2,131.07,447.33,131.07Zm0-15.66c-3.23,0-3.95,2-3.95,6s.72,6,3.91,6c3.46,0,4.15-1.94,4.15-6S450.83,115.41,447.37,115.41Z"/><path class="cls-1" d="M474.81,130.76h-2.74a.63.63,0,0,1-.72-.72l0-10.68c0-2.24-.53-3.72-2.74-3.72-1.52,0-4.18,1.22-5.2,1.71V130c0,.46-.19.72-.72.72H460c-.53,0-.72-.23-.72-.72V112.9c0-.49.19-.75.72-.75h2.7c.53,0,.72.26.72.75V114s.07,0,.11,0a12.67,12.67,0,0,1,6.38-2.28c5.13,0,5.59,3.38,5.59,7.22v11C475.53,130.5,475.38,130.76,474.81,130.76Z"/><polygon class="cls-2" points="499.52 130.76 499.52 54.39 493 54.39 493 130.76 499.52 130.76 499.52 130.76"/><path class="cls-3" d="M0,48.33s78.51-10.24,80.73-10.6a86,86,0,0,0,9.23-2,58.41,58.41,0,0,0,17.37-7.95c5-3.36,9.57-8.23,14.15-13.58a133.78,133.78,0,0,0,8.81-12.13V0a120.37,120.37,0,0,1-10.13,13.22A70.15,70.15,0,0,1,106,25.61a55.69,55.69,0,0,1-16.76,7.21,81.43,81.43,0,0,1-9,1.72c-2.17.31-4.41.55-6.58.78L0,43.19Z"/><path class="cls-3" d="M105.28,35.06a55.15,55.15,0,0,1-16.86,6.2c-2.69.54-5.61,1-8.94,1.35-2,.22-3.93.39-5.91.56l-3.19.29c-24.06,2.17-48,4.48-70.38,6.67v5.13c22.56-2.74,46.66-5.64,70.71-8.39l3.21-.36c2-.22,4-.44,5.93-.7,3.42-.46,6.41-1,9.15-1.61a57.93,57.93,0,0,0,17.51-6.9c5.06-3.06,9.53-7.34,14.34-12.58a143.05,143.05,0,0,0,9.44-12.2V10.64a125.58,125.58,0,0,1-10.6,12.84A65.23,65.23,0,0,1,105.28,35.06Z"/><path class="cls-3" d="M119,33.81a61.5,61.5,0,0,1-14.86,10.35,61.41,61.41,0,0,1-17,5.17c-2.67.45-5.57.81-8.86,1.11L0,56.92V62L69.62,54.6l9-1c3.39-.4,6.35-.84,9-1.36a63.5,63.5,0,0,0,17.55-5.81c5.23-2.67,10.46-7.1,15.32-11.8a114.9,114.9,0,0,0,9.75-11.47V21.5A109.48,109.48,0,0,1,119,33.81Z"/><path class="cls-3" d="M100.09,60.4a32.53,32.53,0,0,1-14.48,4.73c-3.94.43-8,.63-11.9.83-1.89.1-3.79.19-5.68.31-11.83.68-23.45,1.44-35.3,2.22L0,70.71v5.12l33.05-3.06c10.68-1,23.1-2.08,35.21-3.07L77.07,69c3.44-.27,6.26-.55,8.87-.89A76.5,76.5,0,0,0,103.43,64a67.73,67.73,0,0,0,15.77-9,98.44,98.44,0,0,0,11.09-10.15V43a66.92,66.92,0,0,1-11.23,9.52C113.56,56.15,104.17,58.09,100.09,60.4Z"/><path class="cls-3" d="M101.75,70.13a86.38,86.38,0,0,1-17,3c-2.63.23-5.47.41-8.68.54l-8.76.38C45.54,75.09,23.88,76.23,0,77.5v5.11c22.81-1.78,45.16-3.51,67.5-5.11l8.74-.6c3.37-.22,6.16-.47,8.79-.76a88.76,88.76,0,0,0,17.42-3.55,68.09,68.09,0,0,0,16.24-7.71A94.63,94.63,0,0,0,130.29,56v-.09c-4.36,3.76-8.52,4.59-12.67,7.11A66.47,66.47,0,0,1,101.75,70.13Z"/><path class="cls-3" d="M100.94,78.61A101.85,101.85,0,0,1,84,81c-2.55.18-5.29.31-8.62.41l-8.68.31c-21.86.83-44,1.79-66.67,2.78v5.11c22.5-1.55,44.58-3,66.84-4.46l8.66-.52c3.39-.2,6.16-.4,8.7-.63a107,107,0,0,0,17.32-2.86A75.49,75.49,0,0,0,118,74.66a94.24,94.24,0,0,0,12.27-7.9V64.58a94.54,94.54,0,0,1-13.2,8.16A72.35,72.35,0,0,1,100.94,78.61Z"/><path class="cls-3" d="M100.2,86.93a129,129,0,0,1-16.92,1.85c-2.47.13-5.11.22-8.56.3L0,91.12v5.1l66.26-3.48,8.58-.44c3.35-.16,6.09-.33,8.63-.52a131.36,131.36,0,0,0,17.2-2.32,88.12,88.12,0,0,0,16.67-5.25,101.16,101.16,0,0,0,12.95-6.73v-2a101.43,101.43,0,0,1-13.73,6.8A85.63,85.63,0,0,1,100.2,86.93Z"/><path class="cls-3" d="M99.62,95.28C90.45,96.52,81,96.66,71.88,96.8l-6.27.1L0,98.09v5.1l65.72-2.86,6.26-.26c9.19-.37,18.7-.75,28-2.24a102.36,102.36,0,0,0,16.82-4.11,110.16,110.16,0,0,0,13.5-5.64v-2a109.51,109.51,0,0,1-14.12,5.56A99.26,99.26,0,0,1,99.62,95.28Z"/><path class="cls-3" d="M99.09,103.69c-8.59.72-17.38.72-25.88.72-2.65,0-5.29,0-7.94,0-21.73.09-43.29.27-65.27.47V110c20.93-.72,43.14-1.46,65.35-2.13,2.63-.09,5.27-.15,7.91-.22,8.55-.22,17.39-.45,26.07-1.39a124.58,124.58,0,0,0,16.86-2.93,118.86,118.86,0,0,0,14.1-4.5V97a116.75,116.75,0,0,1-14.56,4.28A122.61,122.61,0,0,1,99.09,103.69Z"/><path class="cls-3" d="M98.76,112c-3.58.14-7.45.21-11.85.21q-2.49,0-5,0L65,112c-11.54-.09-23-.11-33.81-.12L0,111.87V117l31.28-.82c10.75-.27,22.27-.54,33.78-.75L82,115.16c4.64-.07,10.75-.21,17-.62s11.59-1,16.89-1.85c4.76-.77,9.63-1.81,14.5-3.06v-1.81c-5,1.17-10,2.1-14.8,2.75C110.22,111.28,104.75,111.74,98.76,112Z"/><path class="cls-3" d="M81.74,120l-16.86-.19c-21.49-.3-43-.7-64.88-1.11v5.1c20.91-.14,43.06-.3,64.9-.55L81.76,123c5.68-.1,11.25-.21,16.87-.39,11.59-.38,22-1.2,31.66-2.49v-1.77A311.92,311.92,0,0,1,98.57,120C93,120.07,87.35,120,81.74,120Z"/><polygon class="cls-3" points="130.29 128.99 0 125.67 0 130.76 130.29 130.76 130.29 128.99"/><path class="cls-3" d="M118.56,43.43c-5,4-8.77,6.85-14.83,9.28-5.27,2.11-10.94,3-17.42,3.86-4.16.59-8.51,1.46-12.67,1.74-1.71.12-3.43.23-5.13.37L0,63.71v5.11L68.79,62.1l8.91-.85c3.31-.31,6.25-.68,9-1.12a69.62,69.62,0,0,0,17.56-5C109.58,52.72,115,48.83,120,44.57a112.14,112.14,0,0,0,10.28-10.5V32.24A129.32,129.32,0,0,1,118.56,43.43Z"/><path class="cls-3" d="M185.74,0l27.74,44.19c4.28,6.85,9.18,12.27,26.53,16s24.91,5.41,24.91,5.41v1.33s-11-2.35-25.21-5.52-20-4.23-26.45-13.23c-5.38-7.49-27.52-39.31-27.52-39.31Z"/><path class="cls-3" d="M185.74,42.65S207.09,65,213.26,71.44c6.54,6.81,14.93,9.33,26.56,11.41,11.09,2,25.09,4.27,25.09,4.27v1.26s-13.14-2.16-25.09-4.2c-11.72-2-19.92-3.13-26.63-9.31-6-5.54-27.45-25.64-27.45-25.64Z"/><path class="cls-3" d="M185.74,52.73S206,71.58,213.26,78c6.64,5.92,12,7.77,26.63,10.36s25,4.2,25,4.2v1.33s-13.21-2.17-25.09-4.06-19.46-2.64-26.56-8.4c-8.21-6.66-27.52-22.56-27.52-22.56Z"/><path class="cls-3" d="M185.74,63.47s23.19,18.4,27.52,21.62,10.07,7,26.7,9.38,25,3.56,25,3.56v1.41S250,97.27,240,96s-17.66-1.8-26.63-7.77c-8.73-5.82-27.59-19.1-27.59-19.1Z"/><path class="cls-3" d="M185.74,73.8S209,89.29,213.4,91.74,223,98.18,240,100.35s25,3.14,25,3.14v1.33s-14.05-1.54-25-2.72-18.45-2.81-26.63-7.28S185.74,79,185.74,79Z"/><path class="cls-3" d="M185.74,84.13S206.3,95.31,213.26,98.8c7.76,3.9,14.47,5.77,26.63,7.21,11.94,1.43,25,2.8,25,2.8v1.26s-12.1-1.29-25-2.52-17.38-1.77-26.63-5.87C205,98,185.74,89,185.74,89Z"/><path class="cls-3" d="M185.74,94.6s16.25,7,27.66,11.48c11.23,4.46,19.81,4.83,26.63,5.6,3,.34,24.89,2.59,24.89,2.59v1.26s-13.07-1-25-2.1-17-1.49-26.63-4.69-27.59-9.46-27.59-9.46Z"/><path class="cls-3" d="M185.74,105.27s16.4,5.08,27.59,8A151.56,151.56,0,0,0,240,117.77c5.17.35,25,2,25,2v1.19s-11.26-.77-25-1.75c-11.14-.79-20.09-1.63-26.63-3.08-7.26-1.6-27.52-6.41-27.52-6.41Z"/><path class="cls-3" d="M185.74,115.77s13.41,2.31,27.59,4.66c10.62,1.76,25,2.87,26.56,2.94s25,1.68,25,1.68v1.26s-15-.78-25-1.33c-10.41-.57-20.76-1.21-26.63-1.82-13.17-1.37-27.52-3.19-27.52-3.19Z"/><path class="cls-3" d="M185.74,126.64s21.16.79,27.59.93,51.58,2,51.58,2v1.23H185.74Z"/><path class="cls-3" d="M239.89,65.91c-19.15-4.13-23.49-11.13-26.7-15.47s-27.45-39.75-27.45-39.75v8c1,1.25,21.7,28.4,27.52,35.89C219.82,63,230.1,64.93,239.89,67s25,5,25,5V70.94S244.83,67,239.89,65.91Z"/><path class="cls-3" d="M239.89,71.51c-15.73-3.08-22.09-8.05-26.7-14.07s-27.45-36.11-27.45-36.11v7.56c1,1.14,21.84,25.91,27.45,32.33,6.53,7.49,15.65,9.45,26.7,11.48s25,4.69,25,4.69V76.27S249,73.29,239.89,71.51Z"/><path class="cls-3" d="M239.89,77.32c-16.36-3.17-19.71-5.79-26.63-13.37-4.36-4.77-26.58-31-27.52-32.12v7S206.51,61,213.19,67.52c8.76,8.59,17,9.24,26.7,11s25,4.55,25,4.55V81.87S246.43,78.59,239.89,77.32Z"/><polygon class="cls-2" points="168.31 130.76 168.31 54.4 54.16 54.4 54.16 130.76 168.31 130.76 168.31 130.76"/><polygon class="cls-4" points="112.47 65.25 116.44 65.25 113.24 67.75 114.48 71.7 111.29 69.27 108.11 71.7 109.36 67.75 106.14 65.25 110.09 65.25 111.29 61.4 112.47 65.25 112.47 65.25"/><polygon class="cls-4" points="112.61 116.18 116.59 116.18 113.38 118.58 114.63 122.38 111.44 120.04 108.25 122.38 109.51 118.58 106.27 116.18 110.24 116.18 111.44 112.46 112.61 116.18 112.61 116.18"/><polygon class="cls-4" points="125.2 112.8 129.18 112.8 125.98 115.2 127.23 119.01 124.04 116.66 120.85 119.01 122.1 115.2 118.87 112.8 122.84 112.8 124.04 109.09 125.2 112.8 125.2 112.8"/><polygon class="cls-4" points="125.2 68.65 129.18 68.65 125.98 71.05 127.23 74.86 124.04 72.51 120.85 74.86 122.1 71.05 118.87 68.65 122.84 68.65 124.04 64.94 125.2 68.65 125.2 68.65"/><polygon class="cls-4" points="134.56 78 138.53 78 135.33 80.4 136.57 84.21 133.38 81.86 130.2 84.21 131.46 80.4 128.22 78 132.18 78 133.38 74.29 134.56 78 134.56 78"/><polygon class="cls-4" points="134.56 103.58 138.53 103.58 135.33 105.99 136.57 109.79 133.38 107.44 130.2 109.79 131.46 105.99 128.22 103.58 132.18 103.58 133.38 99.87 134.56 103.58 134.56 103.58"/><polygon class="cls-4" points="138.06 90.59 142.04 90.59 138.84 93 140.08 96.8 136.89 94.45 133.7 96.8 134.96 93 131.73 90.59 135.69 90.59 136.89 86.89 138.06 90.59 138.06 90.59"/><polygon class="cls-4" points="99.63 68.68 103.6 68.68 100.4 71.08 101.64 74.89 98.45 72.54 95.26 74.89 96.52 71.08 93.29 68.68 97.25 68.68 98.45 64.97 99.63 68.68 99.63 68.68"/><polygon class="cls-4" points="90.53 78.03 94.51 78.03 91.31 80.43 92.55 84.24 89.36 81.89 86.18 84.24 87.43 80.43 84.2 78.03 88.17 78.03 89.36 74.32 90.53 78.03 90.53 78.03"/><polygon class="cls-4" points="87.16 90.63 91.13 90.63 87.93 93.03 89.17 96.83 85.99 94.49 82.8 96.83 84.05 93.03 80.83 90.63 84.79 90.63 85.99 86.92 87.16 90.63 87.16 90.63"/><polygon class="cls-4" points="90.53 103.61 94.51 103.61 91.31 106.02 92.55 109.82 89.36 107.48 86.18 109.82 87.43 106.02 84.2 103.61 88.17 103.61 89.36 99.9 90.53 103.61 90.53 103.61"/><polygon class="cls-4" points="99.76 112.83 103.73 112.83 100.53 115.24 101.77 119.04 98.58 116.69 95.39 119.04 96.65 115.24 93.42 112.83 97.38 112.83 98.58 109.12 99.76 112.83 99.76 112.83"/></g></g></svg>