<svg xmlns="http://www.w3.org/2000/svg" xml:space="preserve" viewBox="0 0 1358.7 284.7">
  <path fill="#fff" d="M22 275.2h393.2V8.2H21.9v267"/>
  <path fill="#264ca4" d="M29.5 267.6h378.1V15.5H29.5v252"/>
  <path fill="#f2ef13" d="m210.5 70.4 8-5.8 8 5.8-3-9.4 8-5.8h-10l-3-9.6-3 9.6h-10l8 5.8-3 9.4M169.2 81.5l8-5.8 8 5.8-3-9.4 8-5.9h-10l-3-9.5-3 9.6h-10l8 5.8-3 9.4M147 87l-3 9.5h-10l8 5.9-3 9.4 8-5.9 8 5.9-3-9.4 8-5.9h-10l-3-9.5M135.9 147.2l8 5.8-3-9.4 8-5.8h-10l-3-9.6-3 9.6h-10l8 5.8-3 9.4 8-5.8M150 179.1l-3-9.5-3 9.5h-10l8 5.9-3 9.4 8-5.9 8 5.9-3-9.4 8-5.9h-10M180.3 209.4l-3-9.5-3.1 9.5h-10l8.1 5.8-3 9.4 8-5.8 8 5.8-3.1-9.4 8-5.8h-9.9M221.5 220.4l-3-9.6-3 9.6h-10l8 5.8-3 9.4 8-5.8 8 5.8-3-9.4 8-5.8h-10M262.8 209.4l-3-9.5-3.1 9.5h-10l8 5.8-3 9.4 8-5.8 8 5.8-3-9.4 8-5.8h-10M293 179.1l-3-9.5-3 9.5h-10l8 5.9-3 9.4 8-5.9 8 5.9-3-9.4 8-5.9h-10M314 137.7h-10l-3-9.6-3 9.6h-10l8 5.8-3 9.4 8-5.8 8 5.8-3-9.4 8-5.8M282 111.6l8-5.8 8 5.8-3-9.4 8-5.8h-10l-3-9.5-3 9.5h-10l8 5.8-3 9.4M259.8 56.7l-3 9.6h-10L255 72l-3 9.4 8-5.8 8 5.8-3.1-9.4 8.1-5.9h-10l-3-9.5"/>
  <path fill="#fff" d="m502.1 88.4 12.2 3.9c-1.9 6.8-5 11.8-9.3 15-4.3 3.4-9.8 5-16.5 5-8.2 0-15-2.8-20.3-8.4-5.3-5.7-8-13.4-8-23.1a34 34 0 0 1 8-24 27.4 27.4 0 0 1 21-8.6c7.7 0 13.8 2.2 18.6 6.7 2.8 2.6 5 6.4 6.3 11.4l-12.4 3c-.7-3.2-2.2-5.8-4.6-7.6a13.2 13.2 0 0 0-8.5-2.8c-4.6 0-8.3 1.6-11.1 5-3 3.2-4.3 8.6-4.3 16 0 7.8 1.4 13.4 4.2 16.7 2.8 3.3 6.5 5 11 5 3.3 0 6.2-1 8.6-3.2 2.4-2 4.1-5.4 5.1-10M534.4 88.8c0 4.4 1 7.9 3.2 10.2a10 10 0 0 0 7.8 3.6 10 10 0 0 0 7.8-3.6c2.1-2.3 3.2-5.8 3.2-10.3 0-4.4-1.1-7.8-3.2-10.2a10 10 0 0 0-7.8-3.5 10 10 0 0 0-7.8 3.5c-2.1 2.4-3.2 5.8-3.2 10.3zm-12.2-.7c0-4 1-7.7 3-11.4a20 20 0 0 1 8.2-8.5c3.6-2 7.6-3 12-3a22.4 22.4 0 0 1 23.2 23.5c0 6.8-2.2 12.4-6.6 16.9-4.4 4.4-10 6.7-16.6 6.7-4 0-8-1-11.7-2.8a19.2 19.2 0 0 1-8.6-8.2c-2-3.6-2.9-8-2.9-13.2M576.5 94.7V82.8H600v11.9h-23.4M601.5 66.3h6.7V63c0-3.8.4-6.6 1.2-8.4a9.5 9.5 0 0 1 4.4-4.6 17 17 0 0 1 8.2-1.7c3.4 0 6.7.5 10 1.5l-1.7 8.3c-1.9-.5-3.7-.7-5.4-.7-1.8 0-3 .4-3.7 1.2-.8.8-1.2 2.3-1.2 4.6v3.2h9v9.4h-9v35.5h-11.8V75.7h-6.7v-9.4M665.2 111.2v-6.7a18.1 18.1 0 0 1-23 5.8 11.7 11.7 0 0 1-5.2-5.6c-1.1-2.4-1.6-5.7-1.6-10V66.3h11.9V87c0 6.3.2 10.2.6 11.6a6.3 6.3 0 0 0 2.4 3.4c1.2.8 2.6 1.2 4.4 1.2a9.4 9.4 0 0 0 8.8-5.8c.6-1.7.8-5.7.8-12.1v-19h12v45h-11.1M729.4 111.2h-11.9V88.3c0-4.8-.2-8-.7-9.4a6.6 6.6 0 0 0-2.5-3.3 7 7 0 0 0-4.1-1.2c-2 0-4 .6-5.6 1.7a8.5 8.5 0 0 0-3.3 4.5c-.6 1.8-1 5.3-1 10.3v20.3h-11.8V66.3h11V73c4-5 8.9-7.6 14.8-7.6 2.6 0 5 .5 7.2 1.4a12 12 0 0 1 5 3.6c1 1.5 1.8 3.2 2.3 5 .4 1.9.6 4.6.6 8v28M751 87.8c0 4.8.6 8.3 2 10.4a9 9 0 0 0 15 1.2c1.9-2.3 2.9-5.8 2.9-10.5 0-5.1-1-8.8-2.8-11.1a8.8 8.8 0 0 0-7.2-3.4 9 9 0 0 0-7 3.4c-2 2.2-3 5.5-3 10zm31.7 23.4h-11v-6.6c-1.9 2.6-4 4.5-6.5 5.8-2.5 1.2-5 1.9-7.6 1.9-5.1 0-9.6-2.1-13.2-6.3-3.7-4.1-5.6-10-5.6-17.4 0-7.6 1.8-13.4 5.4-17.4a17.5 17.5 0 0 1 26.6.4V49.2h12v62M821.1 85c0-3.5-1-6.1-2.6-8a8.2 8.2 0 0 0-6.2-2.6c-2.6 0-4.7 1-6.4 2.8a11 11 0 0 0-2.5 7.7zm-.6 12 11.8 2c-1.5 4.3-4 7.6-7.2 9.9a21.2 21.2 0 0 1-12.3 3.4c-7.9 0-13.6-2.6-17.4-7.7-3-4-4.4-9.2-4.4-15.5 0-7.4 2-13.3 5.8-17.5 3.9-4.2 8.8-6.3 14.8-6.3a20 20 0 0 1 15.8 6.6c3.9 4.4 5.7 11.2 5.5 20.3h-29.7c0 3.5 1 6.3 2.8 8.2a9 9 0 0 0 6.9 3c1.8 0 3.4-.5 4.7-1.5 1.3-1 2.2-2.7 2.9-5M852.1 87.8c0 4.8.7 8.3 2 10.4a9 9 0 0 0 15 1.2c2-2.3 2.9-5.8 2.9-10.5 0-5.1-1-8.8-2.8-11.1a8.8 8.8 0 0 0-7.1-3.4 9 9 0 0 0-7.1 3.4c-2 2.2-2.9 5.5-2.9 10zm31.8 23.4h-11v-6.6c-2 2.6-4 4.5-6.6 5.8-2.5 1.2-5 1.9-7.5 1.9-5.2 0-9.6-2.1-13.3-6.3-3.7-4.1-5.5-10-5.5-17.4 0-7.6 1.8-13.4 5.3-17.4a17.5 17.5 0 0 1 26.7.4V49.2h11.9v62M931 87.8c0 4.7.7 8.1 2.2 10.3 2 3.2 4.7 4.8 8.2 4.8 2.6 0 4.8-1.2 6.7-3.4 1.8-2.2 2.7-5.8 2.7-10.6 0-5.1-.9-8.8-2.8-11.1a8.8 8.8 0 0 0-7.1-3.4 9 9 0 0 0-7.1 3.3c-1.9 2.2-2.8 5.6-2.8 10.1zM919 111.2v-62h12v22.4a17.5 17.5 0 0 1 26.6-.3c3.5 3.9 5.3 9.6 5.3 17a26 26 0 0 1-5.5 17.7 17 17 0 0 1-20.9 4.3 18.1 18.1 0 0 1-6.4-5.7v6.6h-11M967 66.3h12.6l10.8 32 10.5-32h12.3l-15.9 43.3-2.8 7.8a32 32 0 0 1-3 6 13 13 0 0 1-3.3 3.4c-1.2.8-2.7 1.5-4.5 2a31.5 31.5 0 0 1-12.8 0l-1-9.3c1.8.3 3.5.5 5 .5 2.7 0 4.8-.8 6.1-2.4 1.3-1.6 2.4-3.7 3-6.2l-17-45M483 170.3v9.5h-8.1v18.1c0 3.7 0 5.8.2 6.4.1.6.5 1.1 1 1.5.6.4 1.3.6 2 .6 1.2 0 2.7-.4 4.8-1.1l1 9.2a23.6 23.6 0 0 1-9.3 1.8c-2.2 0-4.1-.4-5.8-1.1-1.8-.7-3-1.7-3.8-2.8a11 11 0 0 1-1.7-4.6c-.3-1.4-.4-4.2-.4-8.4v-19.6h-5.4v-9.5h5.4v-9l12-6.9v16h8M503 153.2V176a17.5 17.5 0 0 1 21.2-5.2 12.1 12.1 0 0 1 7.3 9.2c.4 1.9.6 4.9.6 8.9v26.3h-11.9v-23.7c0-4.7-.2-7.7-.7-9a5.9 5.9 0 0 0-2.4-3 7.7 7.7 0 0 0-4.2-1.1c-2 0-3.8.5-5.3 1.4a8.3 8.3 0 0 0-3.4 4.4c-.8 1.9-1.1 4.8-1.1 8.5v22.5h-12v-62h12M570.9 189c-.1-3.5-1-6.1-2.7-8a8.2 8.2 0 0 0-6.2-2.6c-2.6 0-4.7 1-6.4 2.8a11 11 0 0 0-2.5 7.7zm-.7 12 11.8 2c-1.5 4.3-3.9 7.6-7.2 9.9a21.2 21.2 0 0 1-12.3 3.4c-7.8 0-13.6-2.6-17.4-7.7-3-4-4.4-9.2-4.4-15.5 0-7.4 2-13.3 5.8-17.5 4-4.2 8.9-6.3 14.8-6.3a20 20 0 0 1 15.8 6.6c3.9 4.4 5.7 11.2 5.6 20.3h-29.8c0 3.5 1 6.3 2.9 8.2a9 9 0 0 0 6.8 3c1.9 0 3.4-.5 4.7-1.5 1.3-1 2.2-2.7 2.9-5M616.5 215.2v-62h46v10.5h-33.4v13.8h31.1v10.4h-31.1v16.9h34.6v10.4h-47.2M703.8 215.2v-6.7a18.1 18.1 0 0 1-23 5.8 11.7 11.7 0 0 1-5.2-5.6c-1-2.4-1.6-5.7-1.6-10v-28.4h11.9V191c0 6.3.2 10.2.6 11.6a6.3 6.3 0 0 0 2.4 3.4 9.4 9.4 0 0 0 13.2-4.6c.6-1.7.9-5.7.9-12.1v-19h11.9v45h-11M738.6 215.2h-12v-44.9h11.1v6.4c2-3 3.6-5 5.1-6 1.5-1 3.2-1.4 5.2-1.4 2.7 0 5.3.7 7.8 2.2l-3.7 10.4c-2-1.3-3.8-2-5.6-2-1.6 0-3 .5-4.2 1.4-1.2 1-2 2.6-2.7 5-.7 2.4-1 7.4-1 15v14M770.4 192.8c0 4.4 1 7.9 3.1 10.2a10 10 0 0 0 7.9 3.6 10 10 0 0 0 7.8-3.6c2-2.3 3.1-5.8 3.1-10.3 0-4.4-1-7.8-3.1-10.2a10 10 0 0 0-7.8-3.5 10 10 0 0 0-7.9 3.5c-2 2.4-3.1 5.8-3.1 10.3zm-12.2-.7c0-4 1-7.7 2.9-11.4a20 20 0 0 1 8.3-8.5c3.5-2 7.5-3 12-3a22.4 22.4 0 0 1 23.1 23.5c0 6.8-2.1 12.4-6.5 16.9-4.4 4.4-10 6.7-16.6 6.7-4.1 0-8-1-11.8-2.8a19.1 19.1 0 0 1-8.5-8.2c-2-3.6-3-8-3-13.2M825.3 192c0 5 1 8.8 3 11.2 2 2.4 4.4 3.6 7.3 3.6 2.8 0 5-1 7-3.3 1.7-2.2 2.7-5.8 2.7-10.9 0-4.7-1-8.2-2.9-10.5a8.8 8.8 0 0 0-7-3.4c-3 0-5.3 1.1-7.2 3.4-2 2.2-3 5.5-3 10zm-11.8-21.7h11.1v6.6a16.6 16.6 0 0 1 14-7.6c5.2 0 9.7 2 13.3 6.1 3.6 4.1 5.5 9.8 5.5 17.1 0 7.5-1.9 13.4-5.5 17.5a17.1 17.1 0 0 1-20.1 4.8c-2-1-4.2-2.7-6.4-5v22.5h-11.9v-62M893.5 189c0-3.5-1-6.1-2.7-8a8.2 8.2 0 0 0-6.1-2.6c-2.6 0-4.8 1-6.5 2.8a11 11 0 0 0-2.5 7.7zm-.7 12 11.9 2c-1.6 4.3-4 7.6-7.2 9.9a21.2 21.2 0 0 1-12.4 3.4c-7.8 0-13.6-2.6-17.3-7.7-3-4-4.5-9.2-4.5-15.5 0-7.4 2-13.3 5.9-17.5 3.9-4.2 8.8-6.3 14.7-6.3a20 20 0 0 1 15.9 6.6c3.8 4.4 5.7 11.2 5.5 20.3h-29.8c.1 3.5 1 6.3 2.9 8.2a9 9 0 0 0 6.8 3c2 0 3.5-.5 4.7-1.5 1.3-1 2.3-2.7 3-5M939.8 193.7c-1.5.5-4 1-7.2 1.8-3.3.7-5.5 1.4-6.5 2a5 5 0 0 0-2.3 4.2c0 1.7.6 3.2 1.8 4.4a6.5 6.5 0 0 0 4.8 1.8c2.1 0 4.1-.7 6-2.1 1.5-1.1 2.5-2.4 3-4 .2-1 .4-3 .4-5.8zm-16-9.7-10.7-2c1.2-4.3 3.3-7.5 6.3-9.6 3-2 7.3-3.1 13.2-3.1 5.3 0 9.2.6 11.8 1.9 2.6 1.2 4.4 2.8 5.5 4.8 1 1.9 1.6 5.4 1.6 10.6l-.2 13.9c0 4 .2 6.8.6 8.7.4 1.9 1.1 4 2.2 6h-11.8a43.2 43.2 0 0 1-1.6-4.9 18.6 18.6 0 0 1-14 6c-4.5 0-8.2-1.3-10.8-3.8-2.7-2.5-4-5.7-4-9.5 0-2.6.6-4.8 1.8-6.8 1.2-2 2.9-3.5 5-4.6 2.3-1 5.4-2 9.5-2.8 5.6-1 9.5-2 11.6-2.9v-1.2c0-2.2-.6-3.9-1.7-4.8-1.1-1-3.3-1.5-6.4-1.5-2.1 0-3.8.4-5 1.2a8.7 8.7 0 0 0-2.8 4.4M1004 215.2h-11.8v-22.9c0-4.8-.3-8-.8-9.4a6.6 6.6 0 0 0-2.5-3.3 7 7 0 0 0-4-1.2c-2.1 0-4 .6-5.6 1.7a8.5 8.5 0 0 0-3.4 4.5c-.6 1.8-.9 5.3-.9 10.3v20.3h-11.9v-44.9h11v6.6c4-5 9-7.6 14.9-7.6 2.6 0 5 .5 7.2 1.4a12 12 0 0 1 4.9 3.6c1.1 1.5 1.9 3.2 2.3 5 .5 1.9.7 4.5.7 8v28M1040.2 153.2h12.5v33.6c0 5.3.2 8.8.5 10.4a10 10 0 0 0 3.8 6c2 1.6 4.8 2.4 8.3 2.4 3.6 0 6.2-.7 8-2.2a8.6 8.6 0 0 0 3.3-5.3c.4-2.1.6-5.7.6-10.6v-34.3h12.5v32.6c0 7.4-.4 12.7-1 15.8-.7 3-2 5.7-3.8 7.8a18.9 18.9 0 0 1-7.3 5c-3 1.3-7 2-12 2-5.8 0-10.3-.8-13.4-2.1-3-1.4-5.5-3.2-7.2-5.4a17 17 0 0 1-3.6-6.9c-.8-3.5-1.2-8.8-1.2-15.7v-33M1143.7 215.2h-12v-22.9c0-4.8-.2-8-.7-9.4a6.6 6.6 0 0 0-2.4-3.3 7 7 0 0 0-4.2-1.2c-2 0-3.9.6-5.5 1.7a8.5 8.5 0 0 0-3.4 4.5c-.6 1.8-.9 5.3-.9 10.3v20.3h-11.9v-44.9h11v6.6c4-5 9-7.6 14.9-7.6 2.6 0 5 .5 7.2 1.4a12 12 0 0 1 4.9 3.6c1.1 1.5 1.9 3.2 2.3 5 .5 1.9.7 4.5.7 8v28M1155.7 215.2v-44.9h12v45Zm0-51v-11h12v11h-12M1189.3 192.8c0 4.4 1 7.9 3.1 10.2a10 10 0 0 0 7.9 3.6 10 10 0 0 0 7.8-3.6c2-2.3 3.1-5.8 3.1-10.3 0-4.4-1-7.8-3.1-10.2a10 10 0 0 0-7.8-3.5 10 10 0 0 0-7.9 3.5c-2 2.4-3.1 5.8-3.1 10.3zm-12.2-.7c0-4 1-7.7 2.9-11.4a20 20 0 0 1 8.3-8.5c3.5-2 7.5-3 12-3a22.4 22.4 0 0 1 23.2 23.5c0 6.8-2.2 12.4-6.6 16.9-4.4 4.4-10 6.7-16.6 6.7-4.1 0-8-1-11.8-2.8a19.1 19.1 0 0 1-8.5-8.2c-2-3.6-3-8-3-13.2M1273.6 215.2h-11.9v-22.9c0-4.8-.2-8-.7-9.4a6.6 6.6 0 0 0-2.5-3.3 7 7 0 0 0-4.1-1.2c-2 0-4 .6-5.6 1.7a8.5 8.5 0 0 0-3.3 4.5c-.6 1.8-1 5.3-1 10.3v20.3h-11.8v-44.9h11v6.6c4-5 8.9-7.6 14.8-7.6 2.7 0 5 .5 7.2 1.4a12 12 0 0 1 5 3.6c1 1.5 1.8 3.2 2.3 5 .4 1.9.6 4.5.6 8v28"/>
</svg>