<svg xmlns="http://www.w3.org/2000/svg" fill="none" viewBox="0 0 336 237">
  <path fill="#002031" d="M98 113h-.8v34.3h.8V113ZM118.3 113h-.8v34.3h.8V113Z"/>
  <path fill="#1540EB" d="M120.7 117.6h-26a3.3 3.3 0 0 1-3.3-3.3c0-1.8 1.5-3.3 3.3-3.3h26v6.6Z"/>
  <path fill="#002031" d="M121.1 117.6a3.3 3.3 0 1 0 0-6.6 3.3 3.3 0 0 0 0 6.6Z"/>
  <path fill="#FE6F43" d="M170.6 45.6 159 48.7a7.8 7.8 0 0 0-4.6 3.4l-.7 1.2c-.6.9-.4 2.2.4 2.9l4.1 4 31.2-9.5-.3-.4a7.8 7.8 0 0 0-5.7-3.4l-12.8-1.3Z"/>
  <path fill="#002031" d="m168.6 50.5-5.8-.5 6.4-2.1 14.9.5-1.4 1.4-14.1.7Z"/>
  <path fill="#A87A6A" d="M226.1 64.6 229 59l-8.8-2.3-2.5 2.9 8.4 5Z"/>
  <path fill="#002031" d="M141.7 152.6v64.7c0 3.2-2.6 5.8-5.8 5.8H92.7a5.8 5.8 0 0 1-5.8-5.8v-64.7c0-3.2 2.6-5.8 5.8-5.8h43.2c3.2 0 5.8 2.6 5.8 5.8Z"/>
  <path fill="#DCEEFD" d="M66.5 233.8c0 2 19 2.1 82.6 2.1 61.2 0 82.4-1.2 82.4-2.1 0-.8-20.6-1.7-81.8-1.7-64.3-.1-83.2.2-83.2 1.7Z"/>
  <path fill="#104A4A" d="m178.3 123.8 20.5 99.6 6.4 3.9 3.3-4.8-11.8-112.3-11.1-.8c.1 0-7.1 2.4-7.3 14.4Z"/>
  <path fill="#104A4A" d="m191.2 124-.4-16.3-15 2.6.4 14.4 15-.7Z"/>
  <path fill="#104A4A" d="M160.9 111s-.7 9-.8 22.4a3151 3151 0 0 0 4.8 88.9l9.3 1.6 8-113.3-21.3.4Z"/>
  <path fill="#FC0" d="M161.4 112h35.3c.7 0 1.3-.6 1.3-1.3l-10.4-60.2-22 .7-5.5 59.5c0 .7.6 1.3 1.3 1.3Z"/>
  <path fill="#82C6F8" d="M154.5 230.8h21.3l-.4-8.2-5.2.1s-.5-1.2-2-2.7c-.6-.6-3.4-1.3-4.4.1l-4.4 5.3-1 .8-1.7 1.4c-2.2 1.1-2.2 3.2-2.2 3.2Z"/>
  <path fill="#002031" d="M176.1 233.9h-21.8v-3.1h12.2c1 0 1.9-.5 2.3-1.4.5-.8 1.4-1.4 2.3-1.4h4.5l.5 5.9ZM164.3 224.6h-4.4v.7h4.4v-.7ZM166.6 222.7l-5 .2.1.7 5-.2-.1-.7Z"/>
  <path fill="#FE6F43" d="M171.6 231.8h2.2c.5 0 .9-.4.9-.9s-.4-.9-.9-.9h-2.2c-.5 0-.9.4-.9.9s.4.9.9.9Z"/>
  <path fill="#59ACF5" d="M154.5 230.8h12.6l-1.6-1.9c-.5-.5-1.1-.8-1.8-.8h-1c-.5 0-1.1-.2-1.5-.5a7.2 7.2 0 0 0-2.8-1.3l-1.7 1.4c-2.2 1-2.2 3.1-2.2 3.1Z"/>
  <path fill="#82C6F8" d="M195.8 230.8h28.1s0-2.1-2.2-3.2l-2-1-2.4-1.2-7.3-5.3c-.7-.4-1.6-.2-2.2.4-1.4 1.4-2.3 3.2-4.8 3.1-1.7-.1-3.8-.9-4.3-2.1-.2-.6-1.5-.5-1.7.2l-1.2 9.1Z"/>
  <path fill="#002031" d="M195.4 233.9H224v-3.1h-16.9c-.6 0-1.2-.2-1.7-.6l-1.9-1.5c-.5-.4-1.1-.6-1.7-.6H196l-.6 5.8ZM216.5 224.7l-3 .9.2.7 3-1-.2-.6ZM211.4 224.7l-.2-.7 3.2-.9.2.6-3.2 1Z"/>
  <path fill="#FE6F43" d="M198 231.8h3.7c.5 0 .9-.4.9-.9s-.4-.9-.9-.9H198c-.5 0-.9.4-.9.9s.4.9.9.9Z"/>
  <path fill="#59ACF5" d="M208.4 230.8h15.5s0-2.1-2.2-3.2l-2-1-1.2.9c-.4.3-1 .5-1.5.5h-5.3c-.7 0-1.4.3-1.8.8l-1.5 2Z"/>
  <path fill="#002031" d="M180.3 138.9s0-.1 0 0a.4.4 0 0 1-.4-.4l.6-14.4 6 .1c.2 0 .4.2.4.4s-.2.4-.4.4l-5.3-.1-.6 13.6c.1.2-.1.4-.3.4ZM160.5 119.5l36.7-5.7-.4-3.6-35.9.8-.4 8.5Z"/>
  <path fill="#A87A6A" d="M170.4 33.6c-.5.5-1.8 17.8-1.8 17.8s10.1 6.5 14.3-.8l-3.4-16.2-9.1-.8Z"/>
  <path fill="#FE6F43" d="M173.3 113.8h-16.6c-2.5 0-4.5-2-4.4-4.5l.2-5.8.1-2.5 1.4-45.3a19 19 0 0 1 11.8-5l3-.2s.7 2.3.9 5.3l3.6 58Z"/>
  <path fill="#F45A31" d="M173.3 113.8h-16.6v2.9h16.6v-2.9ZM203.3 113.8h-13.7v2.9h13.7v-2.9Z"/>
  <path fill="#FE6F43" d="M153.9 55.7 102 107.3l15.9.2 36-31.6V55.7Z"/>
  <path fill="#002031" d="M82.8 233.5a5.2 5.2 0 1 0 0-10.4 5.2 5.2 0 0 0 0 10.4ZM112.4 233.5a5.2 5.2 0 1 0 0-10.4 5.2 5.2 0 0 0 0 10.4ZM134.8 233.5a5.2 5.2 0 1 0 0-10.4 5.2 5.2 0 0 0 0 10.4Z"/>
  <path fill="#1540EB" d="M123.2 223.1H80.1a5.8 5.8 0 0 1-5.8-5.8v-64.7c0-3.2 2.6-5.8 5.8-5.8h43.2c3.2 0 5.8 2.6 5.8 5.8v64.7c0 3.2-2.6 5.8-5.9 5.8Z"/>
  <path fill="#fff" d="M136.2 152.2v65.3c0 2.4-1.4 4.6-3.5 5.6h-2.4a5.6 5.6 0 0 0 5.2-5.6v-65.3c0-2.7-1.9-4.9-4.5-5.5h1.8a6.2 6.2 0 0 1 3.4 5.5Z"/>
  <path fill="#002031" d="M232.8 60.1h-8.3c-1 0-1.6-.8-1.5-1.8l3-17c.2-1 1.1-1.8 2.1-1.8h8.3c1 0 1.6.8 1.5 1.8l-3 17c-.2 1-1.1 1.8-2.1 1.8Z"/>
  <path fill="#82C6F8" d="M231.4 60.1h-8.3c-1 0-1.6-.8-1.5-1.8l3-17c.2-1 1.1-1.8 2.1-1.8h8.3c1 0 1.6.8 1.5 1.8l-3 17c-.1 1-1.1 1.8-2.1 1.8Z"/>
  <path fill="#fff" d="M232.3 55.7h-8.5l2.5-14.5h8.6l-2.6 14.5Z"/>
  <path fill="#002031" d="M224.2 55.7h-.4l2.5-14.5h.4l-2.5 14.5Z"/>
  <path fill="#fff" d="M227.4 59.3c-.3 0-.7-.1-.9-.4-.2-.3-.3-.6-.2-.9.1-.7.7-1.2 1.4-1.2.3 0 .7.1.9.4.2.3.3.6.2.9-.1.7-.7 1.2-1.4 1.2Zm.3-1.8c-.3 0-.7.3-.7.6l.1.4.3.1c.3 0 .7-.3.7-.6l-.1-.4-.3-.1Z"/>
  <path fill="#002031" d="M228.8 47.9h-2.2c-.2 0-.4.2-.4.4l-.4 2v.2c0 .2 0 .3.3.3h2.2c.1 0 .4-.2.4-.4l.2-.3.3-1.5v-.3c0-.2-.3-.4-.4-.4Zm-1 2h-1l.3-1h.8l-.2 1ZM229.4 44h-2c-.3 0-.6.3-.6.5l-.4 2v.2c0 .2.1.4.4.4h2.1c.2 0 .5-.2.5-.4l.4-2.1c0-.3-.2-.5-.4-.5Zm-1 2h-.9l.2-.8h1l-.3.9ZM233.3 44H231c-.2 0-.4.3-.4.5l-.4 2c0 .3 0 .5.3.5h2.2c.1 0 .4-.2.4-.4l.5-2.1c0-.2-.3-.4-.4-.4Zm-1 2h-1l.3-1h.8l-.2 1Z"/>
  <path fill="#002031" fill-rule="evenodd" d="M230.8 48.9h-.9l-.1-.1.1-.7.2-.1h.7l.1.1-.1.8ZM231.7 49.9h-1l.1-1h1l-.1 1ZM232.4 50.9h-.7l-.1-.1.1-.9h.9l.1.1-.1.7-.2.2ZM232.7 48.9h-.9l.1-.9.2-.1h.7l.1.1-.1.7c.1.1 0 .2-.1.2ZM230.3 50.9h-.7l-.1-.1.1-.7.2-.1h.9l-.1.9h-.3Z" clip-rule="evenodd"/>
  <path fill="#A87A6A" d="m217.5 56.1 2.4-7.4 7.3-1.2-.6 2.8-3.6 1.5-1.9 10.8-3.3-1.4-.3-5.1ZM236 50.3a1.5 1.5 0 1 0 0-3 1.5 1.5 0 0 0 0 3Z"/>
  <path fill="#A87A6A" d="M235.4 53a1.5 1.5 0 1 0 0-3 1.5 1.5 0 0 0 0 3Z"/>
  <path fill="#A87A6A" d="M234.9 55.7a1.5 1.5 0 1 0 0-3 1.5 1.5 0 0 0 0 3Z"/>
  <path fill="#FE6F43" d="m194.9 55.5 12 23.6 10.6-23 8.6 8.6-12.8 29.4a7 7 0 0 1-12.8-.1l-13.3-26.9 7.7-11.6Z"/>
  <path fill="#002031" d="M189.6 19.8c1.1 1.7 0 5.5-2.4 4.7a9.3 9.3 0 0 1-2.9-5.2c.1-2.7 4.6-1.4 5.3.5Z"/>
  <path fill="#A87A6A" d="M167.6 28.3c.3 6.3 8.2 11.8 8.2 11.8s6.7 3.2 12.3-.7c5.5-3.8.1-16.9-1.5-19.7-1.2-2.2-5.1-3-7.9-3a11 11 0 0 0-11.1 11.6Z"/>
  <path fill="#002031" d="M165.8 21c-1.1-7.5 9.7-7.4 9.7-7.4s.7-2.5 1.9-3.1c2-1.2 2.7 1 2.4 2.4 1-1.7 1.6-4.2 3.9-4.2 1.9.4 2.2 3.5.9 4.6 7.6-6.8 10.5 7-3.2 8.4-3.9.4-7.7.4-8.1 0 .5 4-1.6 7.9-5.5 9.1.1.1-1.7-5.4-2-9.8Z"/>
  <path fill="#DCEEFD" d="M188.9 31.9c-.9 0-1.8-.4-2.5-1.1a3.9 3.9 0 0 1-1.1-2.7c0-2.1 1.7-3.8 3.7-3.8.9 0 1.8.4 2.5 1.1.7.7 1.1 1.7 1.1 2.7-.1 2.1-1.7 3.8-3.7 3.8Zm-2.9-3.8c0 .9.3 1.7.9 2.2a3 3 0 0 0 2 .8c1.6 0 3-1.4 3-3.1 0-.9-.3-1.7-.9-2.2a3 3 0 0 0-2-.8c-1.6 0-3 1.4-3 3.1ZM180.7 32.6c-.9 0-1.8-.4-2.5-1.1a3.9 3.9 0 0 1-1.1-2.7c0-2.1 1.7-3.8 3.7-3.8.9 0 1.8.4 2.5 1.1.7.7 1.1 1.7 1.1 2.7 0 2.1-1.7 3.8-3.7 3.8Zm.1-6.9c-1.6 0-3 1.4-3 3.1 0 .8.3 1.6.9 2.2a3 3 0 0 0 2 .8c1.6 0 3-1.4 3-3.1 0-.8-.3-1.6-.9-2.2-.5-.5-1.2-.8-2-.8Z"/>
  <path fill="#002031" d="M185.1 32.7a.2.2 0 0 1-.2-.2c0-.1 0-.2.2-.3.2-.1.9-.3 1-.7.1-.3-.4-1.3-.8-2l-.6-1.3c0-.1 0-.2.2-.3.1 0 .2 0 .3.2l.6 1.3c.6 1.2.9 1.9.8 2.4-.4.7-1.4.9-1.5.9.1 0 .1 0 0 0Z"/>
  <path fill="#DCEEFD" d="M184.1 28.1c-.2 0-.3-.1-.3-.3 0-.2.1-.4.3-.4l1.6-.1c.2 0 .4.1.4.3 0 .2-.1.4-.3.4l-1.7.1ZM171.5 29.8c-.2 0-.3-.1-.3-.3 0-.2.1-.4.3-.4l6.1-.8c.2 0 .4.1.4.3 0 .2-.1.4-.3.4l-6.2.8Z"/>
  <path fill="#A87A6A" d="M169.2 35.4a3.5 3.5 0 1 0 0-7 3.5 3.5 0 0 0 0 7Z"/>
  <path fill="#002031" d="M182.3 29.3c.4 0 .7-.5.6-1 0-.4-.4-.7-.8-.6-.4 0-.7.5-.6.9 0 .4.4.7.8.7ZM188.2 28.7c.4 0 .7-.5.6-1 0-.4-.4-.7-.8-.6-.4 0-.7.5-.6.9 0 .4.4.7.8.7ZM183 35.9c-1.8 0-2.7-1-2.7-1.1-.1-.2-.1-.4.1-.6.2-.1.4-.1.6.1.1.1 1.3 1.5 4.2.3.2-.1.4 0 .5.2.1.2 0 .4-.2.5-1 .4-1.8.6-2.5.6ZM177.8 26.3l-.3-.1c-.2-.1-.2-.4 0-.6.1-.1 1.7-2 3.3-2.1.3 0 .4.2.4.4s-.2.4-.4.4c-1 .1-2.3 1.3-2.7 1.8-.1.2-.2.2-.3.2ZM186.5 24.3c-.2 0-.4-.1-.4-.3 0-.2.1-.4.3-.5l2.2-.3c.2 0 .4.1.5.3 0 .2-.1.4-.3.5l-2.3.3c.1 0 0 0 0 0Z"/>
  <path fill="#A36B5B" d="m180.9 41.2-4-.4 4.5 2.7-.5-2.3Z"/>
  <path fill="#fff" d="M166.6 67.8a.2.2 0 0 1-.2-.2v-15l.2-.2.2.2v14.9c.1.2 0 .3-.2.3Z"/>
  <path fill="#002031" d="M206.1 81.5h-.1c-.2-.1-.3-.3-.2-.5l.8-2 .4-.3.4.2.8 1.8c.1.2 0 .4-.2.5-.2.1-.4 0-.5-.2l-.4-.9-.4 1.2-.6.2ZM153.1 83.6l1.9-8.7-1.7 1.4-.2 7.3Z"/>
  <path fill="#FE6F43" d="m182.7 49.8 6.9 64h14.1c2.9 0 5-2.6 4.4-5.4l-13.2-52.9a11 11 0 0 0-9.4-5.6l-2.8-.1Z"/>
  <path fill="#fff" d="M187.6 67a.2.2 0 0 1-.2-.2L185 51.2l.2-.3.3.2 2.4 15.6-.3.3Z"/>
  <path fill="#F45A31" d="m164 97.3-11.6 6.2.1-2.5 10.5-5.6 1 1.9ZM206.7 104.2l-9.1-4.9 1-1.9 7.4 4 .7 2.8Z"/>
  <path fill="#002031" d="M205.4 98.7c-.2 0-.3-.1-.4-.3L198.9 73c-.1-.2.1-.4.3-.5.2-.1.4.1.5.3l6.1 25.4c.1.2-.1.4-.4.5.1 0 0 0 0 0Z"/>
  <path fill="#A87A6A" d="m102.1 107.3-3.7 3.7 1.8 7.4h11.2V111h7l-.5-3.5-15.8-.2Z"/>
  <path fill="#002031" d="M84.1 155.9h-.8v58.6h.8v-58.6ZM95.6 155.9h-.8v58.6h.8v-58.6ZM107 155.9h-.8v58.6h.8v-58.6ZM118.5 155.9h-.8v58.6h.8v-58.6ZM102.9 115.7l-.7.1.6 2.7.7-.1-.6-2.8ZM106.1 115.6l-.7.2.6 2.7.7-.1-.6-2.8ZM109.3 115.6l-.7.2.6 2.7.7-.1-.6-2.8Z"/>
</svg>
