<svg xmlns="http://www.w3.org/2000/svg" fill="none" viewBox="0 0 64 65">
  <g fill-rule="evenodd" clip-path="url(#a)" clip-rule="evenodd">
    <path fill="#1540EB" d="M32 64.5a32 32 0 1 0 0-64 32 32 0 0 0 0 64Z"/>
    <path fill="#fff" d="M16.3 23.3c.7-1.9 3-4.4 4-5.4l1.1-1s.7-.8 1.4-.2l5.5 6.3s.6.7-.1 1.5L24.7 28s-.4.7.2 1.5a45 45 0 0 0 10 10.1c.8.6 1.5.2 1.5.2l3.4-3.4c.8-.9 1.5-.3 1.5-.3s5.6 5 6.2 5.7c.6.7-.1 1.4-.1 1.4l-1 1c-1 1-3.5 3.4-5.4 4.1-7.3 2.8-27.6-17.6-24.7-24.9Z"/>
  </g>
  <defs>
    <clipPath id="a">
      <path fill="#fff" d="M0 0h64v64H0z" transform="translate(0 .5)"/>
    </clipPath>
  </defs>
</svg>
