<svg xmlns="http://www.w3.org/2000/svg" fill-rule="evenodd" stroke-linejoin="round" stroke-miterlimit="2" clip-rule="evenodd" viewBox="0 0 215 218">
  <path fill="#dceefd" fill-rule="nonzero" d="M211.3 115.7l-105.7-8.2h105.7v8.2zM214 98.7h-94.4v-49a47.3 47.3 0 0194.4 0v49zm-93.6-.9H213v-48a46.4 46.4 0 00-92.6 0v48z"/>
  <path fill="#dceefd" fill-rule="nonzero" d="M124.4 98.4h-.9V49.9a48 48 0 0145.7-47.3v.9a47 47 0 00-44.8 46.4v48.5z"/>
  <circle cx="168.4" cy="77.5" r="1.4" fill="#f4c9db" transform="translate(-70.3 -15.2)"/>
  <path fill="#f4c9db" fill-rule="nonzero" d="M107 67.3l-9.3-4.7 3.5-10.6 6.4 1 2.9 12.5-3.5 1.8z"/>
  <path fill="#002031" fill-rule="nonzero" d="M99.2 63.9L98 47.6c-.1-.9.6-1.7 1.6-1.8l6.5-.5c.9-.1 1.7.6 1.8 1.6l1.2 16.3c.1.9-.6 1.7-1.6 1.8l-6.5.5c-.9 0-1.7-.7-1.8-1.6z"/>
  <path fill="#1540eb" fill-rule="nonzero" d="M98.1 64l-1.2-16.3c-.1-.9.6-1.7 1.6-1.8l6.5-.5c.9-.1 1.7.6 1.8 1.6l1.2 16.3c.1.9-.6 1.7-1.6 1.8l-6.5.5c-.9 0-1.7-.7-1.8-1.6z"/>
  <path fill="#f4c9db" fill-rule="nonzero" d="M112.7 62.3l-1.3-1.7-.1-2.8c0-1.6-1.2-3-2.8-3.3l-4.6-.8c-.9-.2-1.8.5-1.9 1.4-.1.7.4 1.4 1.1 1.6l5.6 1.8.5 6.7 3.5-2.9z"/>
  <circle cx="167.5" cy="72.6" r="1.4" fill="#f4c9db" transform="translate(-70.3 -15.2)"/>
  <circle cx="167.6" cy="75.2" r="1.4" fill="#f4c9db" transform="translate(-70.3 -15.2)"/>
  <path fill="#fff" fill-rule="nonzero" d="M98.9 49.9h-.3c-.3-.1-.6-.3-.8-.6-.2-.3-.2-.6-.2-.9.2-.7.8-1.1 1.5-.9.7.2 1.1.8.9 1.5 0 .5-.6.9-1.1.9zm0-2.1c-.4 0-.7.3-.8.6-.1.4.2.9.6 1 .4.1.9-.2 1-.6a.9.9 0 00-.6-1h-.2z"/>
  <path fill="#002031" fill-rule="nonzero" d="M92.8 55h-.2l-.2-.3.4-3.6-4.3 1c-.1 0-.3 0-.4-.2a.3.3 0 010-.4l2.7-3-3.7-2.1-.2-.3.3-.3 4.4-.7-.9-3.3.1-.4c.1-.1.3-.1.4 0l3.2 2.7 1.8-4.4.3-.2c.1 0 .3.1.3.3l.8 4.3c0 .2-.1.3-.3.4-.2 0-.3-.1-.4-.3l-.6-3.2-1.5 3.8-.2.2-.3-.1-2.8-2.3.8 2.7v.3l-.2.1-3.9.6 3.2 1.8.2.2-.1.3-2.3 2.5 3.7-.9.3.1.1.3-.3 3.3 2-1.5c.1-.1.3-.1.5.1.1.1.1.3-.1.5l-2.6 1.9c.1.1 0 .1 0 .1zM148.4 26.9c-1 1.7.3 5.2 2.6 4.3a8.4 8.4 0 002.4-5.1c-.3-2.6-4.5-1.1-5 .8z"/>
  <path fill="#f17277" fill-rule="nonzero" d="M209.9 90c0 2-.7 3.7-1.7 5a5.6 5.6 0 01-4.2 2.1h-66.8c-2 0-4.9-1.3-6-4.3-.8-2.2-.7-5.3 1.2-9.4l.3-.6 2.2-4.2 2.9-5.6 2.1-4 2.6-5 .9-1.8c.5-1 1.1-1.8 1.7-2.6a11 11 0 016.6-3.8l1.6-.1h20.8c4.5 0 8.8 1.6 12.5 4.4 1.4 1 2.6 2.3 3.8 3.6l17.7 21.1.3.4.3.4.2.3.5 1 .4 1.4.1 1.7z"/>
  <path fill="none" d="M174 62.3c6.1 0 12 2.4 16.3 6.8L208 86.9a6 6 0 01-4.1 10.4h-66.8c-3.6 0-9.7-3.4-4.4-12.1l10.6-17.4c2.1-3.4 5.8-5.5 9.9-5.5H174z"/>
  <path fill="#002031" fill-rule="nonzero" d="M145.9 91.5c-.2 0-.4-.2-.3-.4l2.9-13.7c0-.2.2-.3.4-.3s.3.2.3.4l-2.9 13.7c-.1.2-.2.3-.4.3z"/>
  <path fill="none" d="M179.3 77.7l8.7 8.8h-18.8c-1.1 0-2.1.9-2.1 2.1v8.5"/>
  <path fill="#e93737" fill-rule="nonzero" d="M158.4 50.6h-3a4.6 4.6 0 00-2.6 8.3l8.1 6.1-3.6-9 1.1-5.4z"/>
  <path fill="#f4c9db" fill-rule="nonzero" d="M160.6 95.5c-.2.2-.5 2.2-2 2.9a7 7 0 01-6 0l-4-.9-9.1-.3c-.6.2-1.3 0-1.7-.5-.6-.8-.3-1.8.5-2.3l11.4-5.7c.5-.3 1.1-.4 1.6-.3l9.4 1.1-.1 6z"/>
  <path fill="#002031" fill-rule="nonzero" d="M138.3 94.8c-.2 0-.3-.1-.3-.3 0-.2.1-.3.3-.4L146 93c.2 0 .3.1.4.3 0 .2-.1.3-.3.4l-7.8 1.1z"/>
  <path fill="#e93737" d="M162.2 97h-3.8v-9h3.8z"/>
  <path fill="none" d="M185.5 85.4l1.5-.5c.8-.3 1.5.5 1.1 1.3-.3.5-1 .7-1.4.3l-1.2-1.1z"/>
  <path fill="#f4c9db" fill-rule="nonzero" d="M167.9 40.9l1.6 9.2.5 2.7v.2l-.6.8-.1.1-1.3 1.8-4.2 5.5-.8 1-1.7 2.1-.2.2-.2.3-.3-.6-.9-2-3-6.5-.1-.3.3-4.9.3-5.1c0 .1-8.9.9-8.7-5.7a36.1 36.1 0 011.7-11.5c.5-1 1-1.9 1.6-2.7a7.8 7.8 0 014.8-3.3c.8-.2 2.5-.2 3.3-.3.9 0 1.9 0 2.8.2 2.5.6 4.4 2.7 5.4 5.1.8 1.9 1.1 4 1.3 6l.1 1.5.1.1.8.6c.5.6.9 1.4.9 2.2a3.5 3.5 0 01-3.4 3.3z"/>
  <path fill="#eda7c5" fill-rule="nonzero" d="M157.1 45.4s1.8 0 5.1-1l-5.2 4.3.1-3.3z"/>
  <path fill="#e93737" fill-rule="nonzero" d="M169.5 50.1l7.7.8a8 8 0 016.9 5.4l1 2.8-1.9-.7a12.8 12.8 0 00-10.5.6l-11.8 5.9 4.8-6.9c1.1-1.8 2.6-3.4 4.4-4.6l-.6-3.3z"/>
  <path fill="none" d="M150.8 77.1l-8 17a6.7 6.7 0 01-5.7 3M181.5 70.2c2.2.8 4.1 2.3 5.8 3.9 3.5 3.3 6.4 7.3 8.4 11.6.1.3.3.6.1.9-.1.2-.3.3-.5.3-1.1.3-2.4-.2-3.2-1-.9-.8-1.5-1.8-2.2-2.8a20.5 20.5 0 00-6.2-5.5c-1.4-.8-3-1.5-4.2-2.6-1.2-1.1-2.2-2.7-1.9-4.3.1-.3.1-.5.3-.7.3-.3.6-.4 1-.4a5 5 0 014.7 1.8"/>
  <path fill="#002031" fill-rule="nonzero" d="M189.9 86.5h-2l-2.4-3c-.1-.1-.1-.3.1-.5.1-.1.3-.1.5.1l2.2 2.8h1.7c.2 0 .3.1.3.3-.1.1-.2.3-.4.3z"/>
  <path fill="#002031" fill-rule="nonzero" d="M162.2 97.4c-.2 0-.3-.1-.3-.3v-9c0-1.2 1-2.3 2.3-2.3H188c.2 0 .3.1.3.3 0 .2-.1.3-.3.3h-23.8c-.9 0-1.6.7-1.6 1.6v9c0 .3-.2.4-.4.4z"/>
  <path fill="#002031" fill-rule="nonzero" d="M158.4 97.4c-.2 0-.3-.1-.3-.3v-9.4h4.1c.2 0 .3.1.3.3 0 .2-.1.3-.3.3h-3.5V97c0 .3-.1.4-.3.4z"/>
  <path fill="#fff" fill-rule="nonzero" d="M160.9 65.2l-.2-.1c-.1-.1-.2-.3-.1-.4l4.8-6.9c1.8-3 4.3-5 7.2-5.6h.4l.1.3c0 .2-.2.2-.4.3-2.7.6-5.1 2.5-6.9 5.4l-4.8 7c0-.1-.1 0-.1 0z"/>
  <path fill="#002031" fill-rule="nonzero" d="M154.4 38.6c-.1 0-1.2 0-1.7-.7-.3-.4 0-1.3.6-2.7a7 7 0 00.6-1.7c0-.2.2-.3.3-.3.2 0 .3.2.3.3 0 .5-.3 1.2-.6 1.9s-.7 1.8-.6 2.1c.2.3.9.4 1.2.4.2 0 .3.1.3.3-.1.2-.2.4-.4.4z"/>
  <circle cx="226.7" cy="49.6" r=".6" fill="#002031" transform="translate(-70.3 -15.2)"/>
  <circle cx="221" cy="49.6" r=".6" fill="#002031" transform="translate(-70.3 -15.2)"/>
  <path fill="#002031" fill-rule="nonzero" d="M142.7 92.6c-.2 0-.3-.1-.3-.3 0-.2.1-.3.3-.4l6.4-1.3c.2 0 .3.1.4.3 0 .2-.1.3-.3.4l-6.5 1.3z"/>
  <path fill="#f17277" fill-rule="nonzero" d="M120.2 61.8l24.4 22.4-11.7 11-22.6-21.1c-1.4-1.3-1.7-3.4-.5-4.9l5.3-6.9c1.1-1.6 3.5-1.8 5.1-.5z"/>
  <path fill="#002031" fill-rule="nonzero" d="M137.1 79.4l-.3-.2-1.1-2.7.1-.4c.1-.1.2-.1.4 0l3.5 1.8c.2.1.2.3.1.4-.1.2-.3.2-.4.1l-2.8-1.4.8 1.9c.1.2 0 .4-.2.4l-.1.1z"/>
  <path fill="#f17277" d="M106.5 68l6-8.3 3 2-6 8.4z"/>
  <path fill="#002031" fill-rule="nonzero" d="M109.4 70.5l-.2-.1c-.1-.1-.2-.3-.1-.5l6-8.4c.1-.1.3-.2.5-.1.1.1.2.3.1.5l-6 8.4-.3.2zM170.5 26c0-7.2-10.1-5.7-10.1-5.7s-1-2.2-2.2-2.7c-2-.9-2.4 1.3-1.9 2.6-1.2-1.5-2.1-3.8-4.2-3.4-1.7.6-1.6 3.6-.3 4.5-8.1-5.4-9 8 4.1 7.5 3.7-.1 7.3-.7 7.6-1.1.1 3.8 1.7 8.2 5.5 8.8 0 0 1.8-6.4 1.5-10.5z"/>
  <path fill="#f4c9db" fill-rule="nonzero" d="M167.6 36.5l-.4-2.3s3.8.1 4 2.9l-3.6-.6z"/>
  <path fill="#002031" fill-rule="nonzero" d="M154.4 40.7c-.7 0-1.2-.2-1.2-.2-.2-.1-.3-.2-.2-.4.1-.2.2-.3.4-.2.1 0 2.5.7 3.7-1.4.1-.2.3-.2.4-.1.2.1.2.3.1.4a3.4 3.4 0 01-3.2 1.9z"/>
  <g>
    <path fill="#e93737" fill-rule="nonzero" d="M176.8 77.7h-8.1a.8.8 0 01-.8-.8v-2.4c0-.4.3-.8.8-.8h8.1c.4 0 .8.3.8.8v2.4c0 .5-.4.8-.8.8z"/>
    <path fill="#fff" fill-rule="nonzero" d="M176.8 77.1h-8.5a.9.9 0 01-.8-.8v-2.5c0-.4.4-.8.8-.8h8.5c.4 0 .8.4.8.8v2.6c0 .4-.4.7-.8.7z"/>
    <path fill="#002031" fill-rule="nonzero" d="M172.5 74.5h-3.3a.2.2 0 01-.2-.2l.2-.2h3.3l.2.2-.2.2zM174.6 76h-5.4a.2.2 0 01-.2-.2l.2-.2h5.4l.2.2-.2.2z"/>
  </g>
  <g>
    <path fill="#dceefd" fill-rule="nonzero" d="M198.4 154h-17.9c-1.3 0-2.3-1-2.3-2.3v-4.4c0-1.3 1-2.3 2.3-2.3h17.9c1.3 0 2.3 1 2.3 2.3v4.4c0 1.3-1 2.3-2.3 2.3zm-17.9-8.1c-.8 0-1.4.6-1.4 1.4v4.4c0 .8.6 1.4 1.4 1.4h17.9c.8 0 1.4-.6 1.4-1.4v-4.4c0-.8-.6-1.4-1.4-1.4h-17.9z"/>
  </g>
  <g>
    <path fill="#dceefd" fill-rule="nonzero" d="M185.6 166.8h-17.9c-1.3 0-2.3-1-2.3-2.3v-4.4c0-1.3 1-2.3 2.3-2.3h17.9c1.3 0 2.3 1 2.3 2.3v4.4c0 1.3-1 2.3-2.3 2.3zm-17.8-8.1c-.8 0-1.4.6-1.4 1.4v4.4c0 .8.6 1.4 1.4 1.4h17.9c.8 0 1.4-.6 1.4-1.4v-4.4c0-.8-.6-1.4-1.4-1.4h-17.9z"/>
  </g>
  <g>
    <path fill="#dceefd" fill-rule="nonzero" d="M144.2 140.7h-17.9c-1.3 0-2.3-1-2.3-2.3V134c0-1.3 1-2.3 2.3-2.3h17.9c1.3 0 2.3 1 2.3 2.3v4.4c0 1.3-1 2.3-2.3 2.3zm-17.8-8.1c-.8 0-1.4.6-1.4 1.4v4.4c0 .8.6 1.4 1.4 1.4h17.9c.8 0 1.4-.6 1.4-1.4V134c0-.8-.6-1.4-1.4-1.4h-17.9z"/>
  </g>
  <g>
    <path fill="#dceefd" fill-rule="nonzero" d="M91.1 19.9H74c-1.2 0-2.2-1-2.2-2.2v-4.2c0-1.2 1-2.2 2.2-2.2h17.1c1.2 0 2.2 1 2.2 2.2v4.2c0 1.2-1 2.2-2.2 2.2zM74 12.1c-.7 0-1.3.6-1.3 1.3v4.2c0 .7.6 1.3 1.3 1.3h17.1c.7 0 1.3-.6 1.3-1.3v-4.2c0-.7-.6-1.3-1.3-1.3H74z"/>
  </g>
  <g>
    <path fill="#dceefd" fill-rule="nonzero" d="M106.7 8.6H89.6c-1.2 0-2.2-1-2.2-2.2V2.2c0-1.2 1-2.2 2.2-2.2h17.1c1.2 0 2.2 1 2.2 2.2v4.2c0 1.2-1 2.2-2.2 2.2zM89.6.8c-.7 0-1.3.6-1.3 1.3v4.2c0 .7.6 1.3 1.3 1.3h17.1c.7 0 1.3-.6 1.3-1.3V2.1c0-.7-.6-1.3-1.3-1.3H89.6z"/>
  </g>
  <g>
    <path fill="#59acf5" d="M101.4 97h112.8v10.6H101.4z"/>
    <path fill="#1540eb" d="M187.6 97h26.6v10.6h-26.6z"/>
  </g>
  <g>
    <path fill="#002031" fill-rule="nonzero" d="M158.2 33c-.2 0-.3-.1-.3-.3-.2-1.2-1.5-1.1-1.6-1.1-.2 0-.3-.1-.4-.3 0-.2.1-.3.3-.4.7-.1 2 .2 2.3 1.6 0 .3-.1.4-.3.5z"/>
  </g>
  <g>
    <path fill="#002031" fill-rule="nonzero" d="M149.9 32.1l-.2-.1c-.1-.1-.2-.3-.1-.4.4-.5 1.5-1.4 2.7-.6.2.1.2.3.1.4-.1.2-.3.2-.4.1-1-.6-1.7.4-1.8.5l-.3.1z"/>
  </g>
  <g>
    <ellipse cx="98.9" cy="49.1" fill="#002031" rx="8.2" ry="10.5" transform="translate(-70.3 -15.2)"/>
    <path fill="#dceefd" fill-rule="nonzero" d="M103.3 215.1c0 1.5-30.3 2.7-56.1 2.7s-39.5-1.3-39.5-2.7c0-1.4 13.9-2.7 39.6-2.7 25.7 0 56 1.2 56 2.7z"/>
    <path fill="#002031" fill-rule="nonzero" d="M78.6 60.4L73.9 62c-.9.3-1.9-.2-2.2-1.1l-5-14.6c-.3-.9.2-1.9 1.1-2.2l4.7-1.6c.9-.3 1.9.2 2.2 1.1l5 14.6c.3.9-.2 1.9-1.1 2.2z"/>
    <path fill="#59acf5" fill-rule="nonzero" d="M77.5 60.7l-4.7 1.6c-.9.3-1.9-.2-2.2-1.1l-5-14.6c-.3-.9.2-1.9 1.1-2.2l4.7-1.6c.9-.3 1.9.2 2.2 1.1l5 14.6c.3.9-.2 1.9-1.1 2.2z"/>
    <path fill="#fc0" fill-rule="nonzero" d="M51.7 63.2l11.4 16.3 5.6-15.7 6.8-.2s-1.8 15-6.4 23.4c-2.3 4.1-5.7 4.4-8.4 2.7A47.9 47.9 0 0148 76.1l3.7-12.9zM26.7 98.6s-12.2 9.8-7.1 29.5c.5 1.9.8 3.8.9 5.7l.9 29.2h46.3L52 98.1l-25.3.5z"/>
    <path fill="#c26e5e" fill-rule="nonzero" d="M26.8 39.4l2.8 18.2 11.9.3-6.4-14.6-8.3-3.9z"/>
    <path fill="#a95643" fill-rule="nonzero" d="M38.2 50.5l-1.4-3.3-4.8-.5 6.2 3.8z"/>
    <path fill="#c26e5e" fill-rule="nonzero" d="M35.4 47.6c-5.4-.5-10.8-5-10.8-10.4a9.7 9.7 0 019.7-9.9 9 9 0 016.8 3 12.5 12.5 0 013.2 6.9c1 6.6-2.7 11-8.9 10.4z"/>
    <path fill="#a95643" fill-rule="nonzero" d="M42.4 32.1s-7.4-.4-8.2-1.1l6.7-.7c.7.6 1.1 1 1.5 1.8z"/>
    <path fill="#002031" fill-rule="nonzero" d="M42.6 21.9l-.5.6s-.7-2.3-1.8-2.6c-.4-.1-.9-.2-1.3 0-.9.2-1.6.5-2.5 1.2-.6.4-1.7-.4-2.8-.6-2.1-.3-2.7 1.7-4.2 2.3l-1.9 1-1 .9c-.1.2-.3.3-.3.5-.1.4.1.7.3 1 .6.9 5.1 4.2 7.2 4.6a14.9 14.9 0 008.7-.7c.8-.3 1.4-.9 1.9-1.6.4-.7.4-1.4.6-2.2l-.5-4c-.2-.7-1.3-1-1.9-.4z"/>
    <path fill="#fc0" fill-rule="nonzero" d="M55.6 71.2c-.7-5.1-4.4-8.3-8-12.4a8.4 8.4 0 00-3.8-2.6l-2.1-.7c-.5-.1-.9-.3-1.3-.6l-2.2-4.3-9.7.4.3 2c.1 1.2-.7 2.4-1.9 2.8L22.4 57h.1c-5.6.3-9.4 5.3-8.5 11.2l2.3 7.1 3.9.6S25 84.7 26.3 99l25.6-.3c-.4-3.4 4.4-22.5 3.7-27.5z"/>
    <path fill="#fede6a" fill-rule="nonzero" d="M1.9 82.7c10.4-3.9 21-7.5 31.7-10.7 6.6-2 13.4-3.9 20.5-5.4l-.1-.1c-.6-1-1.2-1.9-1.9-2.7l-.4-.5v.1l-1.5-1.8C43.9 63 37.8 64.8 32 66.5l-9.4 2.9c7.8-4.3 15.7-8.3 23.8-11.9-.7-.5-1.5-1-2.4-1.3l-2.1-.7c-.5-.1-.9-.3-1.3-.6l-2.2-4.3-1.4.1-8.1 2.3v.1c.1 1.2-.7 2.4-1.9 2.8l-4.5 1.2h.1a9 9 0 00-8.1 6.3l-1 1.5c5.5-2.2 11.1-4.3 16.8-6.1-6.8 3.3-13.6 7.1-20.1 11L1.9 82.7zM63.9 77.3l-.8 2.2-1.3-1.8c-12.7 2.7-25 6.7-37.1 10.9l1.1 5.8a379 379 0 0128-8.8l.3-1.5 1.1 1.2 8.7-2-7.3 3.3 4 3.2 1.5.7 6.7-3 .2-.4c1.5-3.2 3-6.3 4.2-11.9-2.9.4-6.2 1.5-9.3 2.1zM29.1 162.9h7.8l3-2.4c7.5-5.5 15.5-10.3 23.6-15l-2-8.4A270.4 270.4 0 0028.1 151c7.1-5.4 14.6-10.2 22.5-14.3l9.7-4.7-2.7-11.1a329 329 0 00-33.1 12.3c9.5-6.4 19.4-12.1 29.6-17.1l2.1-1-1.4-5.8-3.2 1.5c-11 5.3-21.5 11.5-31.6 18.4.3 1.4.5 2.9.6 4.4l.2 7.6c11.6-5.3 23.6-10 35.8-13.9l-8.6 4.3c-9.6 5-18.5 10.9-26.9 17.7l.4 11.9 1.5-.8.1-.1c7.6-4.2 15.4-7.9 23.4-11.3a212 212 0 00-9.8 6.7c-3 2.2-5.7 4.5-7.6 7.2z"/>
    <path fill="#fede6a" fill-rule="nonzero" d="M52.8 101.4a276 276 0 00-28.3 9.4c9-5.7 18.3-10.9 27.8-15.6.2-1.9.7-4.4 1.2-7.1-12.5 6-24.5 12.8-36.1 20.3l2.2 2c-.7 2.6-1.2 5.6-1.1 9A303 303 0 0154.3 107l-1.5-5.6zM67 68.7c1.7-.6 5.8-3.9 6.1-4.9h-4.4L67 68.7zM12.3 89.3l2.7-3.1c-4.4 2.6-8.6 5.3-12.8 8.1l.8.9c1.1 1.2 3.3 3.2 5.7 5.4l4.6-1.7 6.6-2.4-7.6-7.2zM66.3 157.3l-1.4-5.7c-5.1 1.8-10 4-14.8 6.1-4 1.8-8.1 3.6-12.3 5.2h15c4.6-2 9-4 13.5-5.6zM24.5 87.4a272 272 0 0133.2-15.7l-3.4-4.9a283 283 0 00-31.5 14.9l1.7 5.7z"/>
    <path fill="#fff" fill-rule="nonzero" d="M29.9 109.7c-.2 0-.3-.1-.3-.3l-1.9-32.9c-.7-13.8-3.4-17.9-5.5-18.9-1.5-.7-2.8.2-2.9.2-.2.1-.4.1-.5-.1-.1-.2-.1-.4.1-.5.1 0 1.6-1.2 3.6-.3 3.4 1.6 5.3 8.2 5.9 19.5l1.9 32.9c0 .2-.2.4-.4.4z"/>
    <path fill="#478f8e" fill-rule="nonzero" d="M12.2 108.8l-3.3 15.3 19.5.1 2.9-16.1-19.1.7z"/>
    <path fill="#104a4a" fill-rule="nonzero" d="M36.5 124.2l-3.4-16.1h-1.8l-2.9 16.1h8.1z"/>
    <path fill="#fff" fill-rule="nonzero" d="M19.1 118.1l-7.3-9.1c-.1-.1-.1-.4.1-.5.1-.1.4-.1.5.1l6.8 8.6 11.3-9.1c.1-.1.4-.1.5.1.1.1.1.4-.1.5l-11.8 9.4z"/>
    <path fill="#c26e5e" fill-rule="nonzero" d="M26.7 104.4l2.6 1.8a8.8 8.8 0 013.8 7.6l-.3 7.9h-6.6l-2.1-5.9-2.2-3-.7-2.2-1.7-2.1 7.2-4.1z"/>
    <path fill="#002031" fill-rule="nonzero" d="M39.1 39.9c-.1 0-.3-.1-.3-.3l.2-.4c.2 0 .7-.2.8-.5.1-.2-.4-1.2-.7-1.7l-.6-1.2c-.1-.2 0-.4.2-.4s.4 0 .4.2l.5 1.1c.6 1.1.9 1.8.7 2.3-.1.6-1 .9-1.2.9.1 0 0 0 0 0z"/>
    <path fill="#c26e5e" fill-rule="nonzero" d="M33.9 106.7l-6.3-1.6.2 3.2 6.1-.2v-1.4z"/>
    <path fill="#a95643" fill-rule="nonzero" d="M27.4 104.8s-1.5 5.7-4.6 9.1l-.7-1-.7-2.2-.2-.3 6.2-5.6z"/>
    <path fill="#002031" d="M28.4 117.6h.7v4.1h-.7z"/>
    <path fill="#fc0" fill-rule="nonzero" d="M15.6 61.4S4 79.1 1.6 83.1c-2.4 4-2.2 8.4 1.3 12C6.4 98.7 20.2 111 20.2 111l7.6-6.8-15.6-15.1 13.5-15.7-10.1-12z"/>
    <path fill="#002031" d="M30.4 121.7v-5.6h.7v5.6z"/>
    <circle cx="112.1" cy="51.1" r=".6" fill="#002031" transform="translate(-70.3 -15.2)"/>
    <circle cx="106.6" cy="51.4" r=".6" fill="#002031" transform="translate(-70.3 -15.2)"/>
    <path fill="#fff" fill-rule="nonzero" d="M54.1 85.6c-.3 0-.4-.2-.3-.4l1.7-9 .2-1.5c.3-3.7-1-7.5-3.4-10.4v-.5h.5c2.6 3.1 3.9 7 3.6 10.9l-.2 1.6-1.7 9c-.1.2-.2.3-.4.3z"/>
    <path fill="#c26e5e" fill-rule="nonzero" d="M24.1 162.9l2.4 36.1 8.4.1 2.1-36.2H24.1zM49.6 162.9l11.7 35.2 9.4.4-8-35.6H49.6z"/>
    <path fill="#fede6a" fill-rule="nonzero" d="M17.2 63.3l-1.6-1.9-2.2 3.3 3.8-1.4zM12.3 89.3l2.7-3.1c-4.4 2.6-8.6 5.3-12.8 8.1l.8.9c1.1 1.2 3.3 3.2 5.7 5.4l4.6-1.7 6.6-2.4-7.6-7.2zM24.7 74.8l1.1-1.2-7.2-8.6a365 365 0 00-8.4 4.9 4544 4544 0 00-8.3 12.9c7.5-2.9 15.2-5.5 22.8-8zM27.9 104.4l-1.6-1.6-9 5.7 3 2.7 7.6-6.8z"/>
    <path fill="#c26e5e" fill-rule="nonzero" d="M75.5 63.7l.7-5.8-6.5 2.1-1 3.8 6.8-.1z"/>
    <g>
      <path fill="#c26e5e" fill-rule="nonzero" d="M73.5 58.6l.2-2.2 3.1-3.7c.6-.5 1.4-.4 1.9.2.4.5.4 1.2 0 1.7l-2.8 4.7-2.4-.7z"/>
    </g>
    <g>
      <path fill="#c26e5e" fill-rule="nonzero" d="M74.7 57l-6.8-4.3-.5 4.3 2.3 3.4 4.4-1.6.6-1.8z"/>
    </g>
    <g>
      <path fill="#002031" d="M67.5 54l.4-.4 1.6 1.3-.3.4z"/>
    </g>
    <g>
      <path fill="#002031" d="M67.4 55.8l.3-.4 1.9 1.7-.4.4z"/>
    </g>
    <g>
      <path fill="#59acf5" fill-rule="nonzero" d="M60.5 198.1l11-.4.6 6.2 5.4 8.2 4 .9c.8.2 1.3 1 1.1 1.7-.1.7-.8 1.2-1.5 1.2H70.7c-.4 0-.8-.2-1-.6l-3.5-5.6v6.2h-2.8l-2.6-8.4 1.2-3.9-1.5-5.5z"/>
    </g>
    <g>
      <path fill="#59acf5" fill-rule="nonzero" d="M35.7 199.1l-10.1-.1.7 6.3-2.1 7.7-1.6.3c-.7.1-1.2.6-1.2 1.3 0 .7.6 1.3 1.3 1.3h6.1c.7 0 1.3-.4 1.5-1.1l1.6-3.9.4 5h2.1l1.2-7.9-1-2.4 1.1-6.5z"/>
    </g>
    <g>
      <path fill="#fff" fill-rule="nonzero" d="M26.2 213.1h-2.4a.2.2 0 01-.2-.2l.2-.2h2.4l.2.2-.2.2z"/>
    </g>
    <g>
      <path fill="#fff" fill-rule="nonzero" d="M40.9 40.6h-3.7c-.2 0-.3.2-.2.4.6.9 2.1 2.8 4.2.1 0-.2-.1-.5-.3-.5z"/>
    </g>
    <g transform="translate(-70.3 -15.2)">
      <circle cx="92.4" cy="39.2" r="6.8" fill="#002031"/>
    </g>
    <g transform="translate(-70.3 -15.2)">
      <ellipse cx="95.3" cy="53.9" fill="#c26e5e" rx="2" ry="2.3"/>
    </g>
    <g>
      <path fill="#002031" fill-rule="nonzero" d="M27.1 37.9c.2.5.3 1.1.8 1.1.4 0 .7-1.9.7-2.3 1.8-.3 3-1.2 4.2-2.6a7.8 7.8 0 001.6-5.1c0-.2 0-.4-.2-.5l-.3-.2-5.5-2.5a44 44 0 00-3.5 3.9 8.7 8.7 0 00-1.8 3.6c-.1.5-.1 1.1.1 1.5 0 0 .4 1.5 1.2 1.6.9.1 2.3.3 2.7 1.5z"/>
    </g>
    <g>
      <path fill="#fff" fill-rule="nonzero" d="M21.5 29.4c-.2 0-.3-.2-.3-.3 0 0 .1-4.6 5.8-5.8.2 0 .4.1.4.3 0 .2-.1.4-.3.4-5.2 1.1-5.3 5-5.3 5.2 0 .1-.1.2-.3.2z"/>
    </g>
    <g>
      <path fill="#002031" fill-rule="nonzero" d="M11.7 91.2l-.6-.3.7-1.1-2.1.4-.1-.6 2.8-.5.3.1v.3l-1 1.7z"/>
    </g>
    <g>
      <path fill="#002031" d="M20 79.8l4.5-5.2.4.4-4.5 5.2z"/>
    </g>
  </g>
</svg>
