<?xml version="1.0" encoding="utf-8"?>
<!-- Generator: Adobe Illustrator 24.3.0, SVG Export Plug-In . SVG Version: 6.00 Build 0)  -->
<svg version="1.1" id="Layer_1" xmlns="http://www.w3.org/2000/svg" xmlns:xlink="http://www.w3.org/1999/xlink" x="0px" y="0px"
	 viewBox="0 0 335 236" style="enable-background:new 0 0 335 236;" xml:space="preserve">
<style type="text/css">
	.st0{fill:#94E5FF;}
	.st1{fill:#40C5F6;}
	.st2{fill:#FFFFFF;}
	.st3{fill:#ECAE00;}
	.st4{fill:#DCEEFD;}
	.st5{fill:#002031;}
	.st6{fill:#FFCC00;}
	.st7{fill:#F17277;}
	.st8{fill:#0E6866;}
	.st9{fill:#237978;}
	.st10{fill:#F4C9DB;}
	.st11{fill:#E7B2CB;}
	.st12{fill:#DB9BBC;}
	.st13{fill:#334D5A;}
	.st14{fill:#CE99BB;}
	.st15{opacity:0.28;}
	.st16{fill:#99E6FF;}
	.st17{fill:#1BC1D7;}
	.st18{fill:#C26E5E;}
	.st19{fill:#69DBFF;}
	.st20{opacity:0.25;}
	.st21{fill:#27DC71;}
	.st22{fill:#EDA7C5;}
	.st23{fill:#FE6F43;}
	.st24{fill:#104A4A;}
	.st25{fill:#FE9C7E;}
	.st26{fill:#134BB9;}
	.st27{fill:#DD933C;}
	.st28{fill:#FFDB4B;}
	.st29{fill:#D2793C;}
	.st30{fill:#A7FAC1;}
	.st31{fill:#3DEC94;}
	.st32{fill:#82C6F8;}
	.st33{fill:#59ACF5;}
	.st34{fill:#BEE5F8;}
	.st35{fill:#76C0F7;}
	.st36{fill-rule:evenodd;clip-rule:evenodd;fill:#002031;}
	.st37{fill-rule:evenodd;clip-rule:evenodd;fill:#F4C9DB;}
	.st38{fill-rule:evenodd;clip-rule:evenodd;fill:#59ACF5;}
	.st39{fill-rule:evenodd;clip-rule:evenodd;fill:#1540EB;}
	.st40{fill:#1540EB;}
	.st41{fill:#6BF1AD;}
	.st42{fill:#1BBD81;}
	.st43{fill:#52CD9F;}
	.st44{fill:#383836;}
	.st45{fill:#A87A6A;}
	.st46{fill:#F48D91;}
	.st47{fill:#379BF3;}
</style>
<g>
	<g>
		<g>
			<path class="st4" d="M275.9,162.2c-12.8,0-24.4-7.1-30.3-18.5l0.8-0.4c5.7,11.1,17,18,29.5,18s23.8-6.9,29.5-18l0.8,0.4
				C300.4,155.1,288.7,162.2,275.9,162.2z"/>
		</g>
	</g>
	<g>
		<g>
			<path class="st4" d="M63.6,161.1c-13,0-24.9-7.2-30.9-18.8l0.8-0.4c5.8,11.3,17.3,18.3,30.1,18.3c12.7,0,24.2-7,30.1-18.3
				l0.8,0.4C88.5,153.9,76.6,161.1,63.6,161.1z"/>
		</g>
	</g>
	<g>
		<g>
			<path class="st4" d="M212.5,162.2c-12.8,0-24.4-7.1-30.3-18.5l0.8-0.4c5.7,11.1,17,18,29.5,18s23.8-6.9,29.5-18l0.8,0.4
				C236.9,155.1,225.3,162.2,212.5,162.2z"/>
		</g>
	</g>
	<g>
		<g>
			<g>
				<rect x="240.7" y="139" class="st4" width="6.8" height="91"/>
			</g>
		</g>
		<g>
			<g>
				<circle class="st4" cx="244.1" cy="135.1" r="6.8"/>
			</g>
		</g>
		<g>
			<g>
				<path class="st4" d="M247.4,223.4h-6.7c-3.2,0-5.8,2.6-5.8,5.8v0.8h18.3v-0.8C253.2,226,250.6,223.4,247.4,223.4z"/>
			</g>
		</g>
	</g>
	<g>
		<g>
			<g>
				<rect x="29.2" y="136.6" class="st4" width="6.9" height="93.4"/>
			</g>
		</g>
		<g>
			<g>
				<circle class="st4" cx="32.7" cy="132.6" r="7"/>
			</g>
		</g>
		<g>
			<g>
				<path class="st4" d="M36.1,223.3h-6.8c-3.2,0-5.9,2.6-5.9,5.9v0.9h18.6v-0.9C41.9,225.9,39.3,223.3,36.1,223.3z"/>
			</g>
		</g>
	</g>
	<g>
		<g>
			<path class="st4" d="M329.5,229.2c0,3.2-31,3.3-135.2,3.3c-100.2,0-191.4-2-191.4-3.3c0-1.3,90.3-2.8,190.5-2.8
				C298.6,226.4,329.5,226.8,329.5,229.2z"/>
		</g>
	</g>
	<g>
		<g>
			<g>
				<g>
					<g>
						<path class="st32" d="M177.2,229.1H80.4c-7.1,0-10.3-3.6-10.9-10.2L53.9,13.1c-0.4-5.6,2.7-9.3,8.9-9.3h97.3
							c5.6,0,10.5,4.6,10.9,10.2l15.5,205C187.1,224.6,182.8,229.1,177.2,229.1z"/>
					</g>
				</g>
				<g>
					<g>
						<path class="st40" d="M180.9,229.1H90c-6.2,0-11.4-4.8-11.9-11L62.7,13.3c-0.4-5.2,3.7-9.6,8.9-9.6h92.3
							c5.6,0,10.5,4.6,10.9,10.2l0.6,7.7l2.9,96.4l10.9,85.9l1.1,15.1C190.7,224.6,186.5,229.1,180.9,229.1z"/>
					</g>
				</g>
				<g>
					<g>
						<polygon class="st31" points="189.2,203.9 77.1,203.9 63.2,21.6 175.3,21.6 						"/>
					</g>
				</g>
				<g>
					<g>
						<polygon class="st41" points="73.4,155.4 77.1,203.9 110.6,203.9 180,83.6 175.3,21.6 150.7,21.6 						"/>
					</g>
				</g>
				<g>
					<g>
						<path class="st42" d="M180.2,86.1c-3.9,4.5-8.6,9.8-10.2,11.9c-2.9,3.6-2.5,7.8,1.3,11.2c1.7,1.5,6.8,5.7,11.4,9.4L180.2,86.1
							z"/>
					</g>
				</g>
				<g>
					<g>
						<path class="st43" d="M170,98c-1.5,1.9-2.1,4-1.8,6l7.1-12.2C173,94.5,170.9,96.8,170,98z"/>
					</g>
				</g>
				<g>
					<g>
						<path class="st2" d="M146.3,192.2h-25.2c-2.1,0-4.2-1.7-4.6-3.9l0,0c-0.4-2.1,1-3.9,3.2-3.9h25.2c2.1,0,4.2,1.7,4.6,3.9l0,0
							C149.8,190.5,148.4,192.2,146.3,192.2z"/>
					</g>
				</g>
				<g>
					<g>
						<path class="st2" d="M136.4,224.3c-4,0-7.5-3.2-7.8-7.2c-0.1-1.9,0.5-3.8,1.8-5.2c1.3-1.4,3-2.1,5-2.1c4,0,7.5,3.2,7.8,7.2
							c0.1,1.9-0.5,3.8-1.8,5.2C140.1,223.5,138.3,224.3,136.4,224.3z M135.4,210.4c-1.7,0-3.3,0.7-4.5,1.9
							c-1.1,1.2-1.7,2.9-1.6,4.6c0.3,3.6,3.4,6.6,7.1,6.6c1.7,0,3.3-0.7,4.5-1.9c1.2-1.2,1.7-2.9,1.6-4.6l0,0
							C142.2,213.4,139,210.4,135.4,210.4z"/>
					</g>
				</g>
				<g>
					<g>
						<g>
							<path class="st42" d="M157,164.4h-53.6c-0.9,0-1.7-0.7-1.8-1.7l0,0c-0.1-0.9,0.6-1.7,1.5-1.7h53.6c0.9,0,1.7,0.7,1.8,1.7l0,0
								C158.6,163.6,157.9,164.4,157,164.4z"/>
						</g>
					</g>
					<g>
						<g>
							<path class="st42" d="M158.9,172.3h-54.6c-0.9,0-1.7-0.7-1.8-1.7l0,0c-0.1-0.9,0.6-1.7,1.5-1.7h54.6c0.9,0,1.7,0.7,1.8,1.7
								l0,0C160.5,171.5,159.9,172.3,158.9,172.3z"/>
						</g>
					</g>
				</g>
				<g>
					<g>
						<path class="st42" d="M142.6,153H116c-1.3,0-2.5-1.1-2.6-2.4l0,0c-0.1-1.3,0.9-2.4,2.2-2.4h26.6c1.3,0,2.5,1.1,2.6,2.4l0,0
							C144.9,151.9,143.9,153,142.6,153z"/>
					</g>
				</g>
				<g>
					<g>
						<path class="st5" d="M58.2,47.6h-1c-1.8,0-3.4-1.5-3.5-3.3l-0.6-7.6c-0.1-0.9,0.2-1.7,0.8-2.4c0.6-0.6,1.4-1,2.3-1h1
							c1.8,0,3.4,1.5,3.5,3.3l0.6,7.6c0.1,0.9-0.2,1.7-0.8,2.4C59.9,47.2,59.1,47.6,58.2,47.6z M56.2,34c-0.7,0-1.3,0.3-1.8,0.8
							c-0.5,0.5-0.7,1.2-0.6,1.9l0.6,7.6c0.1,1.5,1.4,2.7,2.9,2.7h1c0.7,0,1.3-0.3,1.8-0.8c0.5-0.5,0.7-1.2,0.6-1.9l-0.6-7.6
							C60,35.2,58.7,34,57.2,34H56.2z"/>
					</g>
				</g>
				<g>
					<g>
						<path class="st5" d="M59.4,64h-1c-1.8,0-3.4-1.5-3.5-3.3l-0.6-7.6c-0.1-0.9,0.2-1.7,0.8-2.4c0.6-0.6,1.4-1,2.3-1h1
							c1.8,0,3.4,1.5,3.5,3.3l0.6,7.6c0.1,0.9-0.2,1.7-0.8,2.4C61.1,63.7,60.3,64,59.4,64z M57.4,50.5c-0.7,0-1.3,0.3-1.8,0.8
							c-0.5,0.5-0.7,1.2-0.6,1.9l0.6,7.6c0.1,1.5,1.4,2.7,2.9,2.7h1c0.7,0,1.3-0.3,1.8-0.8c0.5-0.5,0.7-1.2,0.6-1.9l-0.6-7.6
							c-0.1-1.5-1.4-2.7-2.9-2.7H57.4z"/>
					</g>
				</g>
				<g>
					<g>
						<path class="st2" d="M123.2,15.5H109c-1.4,0-2.6-1.1-2.8-2.5c-0.1-0.8,0.2-1.6,0.7-2.2c0.5-0.6,1.3-0.9,2.1-0.9h14.2
							c1.4,0,2.6,1.1,2.8,2.5c0.1,0.8-0.2,1.6-0.7,2.2C124.7,15.2,124,15.5,123.2,15.5z M109,10.6c-0.6,0-1.2,0.3-1.6,0.7
							s-0.6,1-0.5,1.6c0.1,1.1,1,1.9,2.1,1.9h14.2c0.6,0,1.2-0.3,1.6-0.7c0.4-0.4,0.6-1,0.5-1.6c-0.1-1.1-1-1.9-2.1-1.9H109z"/>
					</g>
				</g>
				<g>
					<g>
						<g>
							<path class="st44" d="M126.9,128.7l-45-43.8l9.9-12.5l33.6,32.9l27.6-46l12.8,10.3l-35.6,58.7
								C129.4,129.4,127.9,129.6,126.9,128.7z"/>
						</g>
					</g>
				</g>
			</g>
		</g>
		<g>
			<g>
				<g>
					<polygon class="st24" points="221.1,126.2 220.6,111.4 205.6,114 206,126.9 					"/>
				</g>
			</g>
			<g>
				<g>
					<g>
						<path class="st5" d="M258,52.7l-5.6-2l0.1-0.2l-1.1,0.1c0,0,0,0-0.1,0l-0.1,0l0,0c-0.8,0.1-1.5,0.6-1.8,1.4L244,67.9
							c-0.4,1.1,0.2,2.3,1.3,2.7l5.8,2.1c1.1,0.4,2.3-0.2,2.7-1.3l5.6-15.9C259.7,54.3,259.1,53.1,258,52.7z"/>
					</g>
				</g>
				<g>
					<g>
						<path class="st7" d="M246.5,70.5l5.8,2.1c1.1,0.4,2.3-0.2,2.7-1.3l5.6-15.9c0.4-1.1-0.2-2.3-1.3-2.7l-5.8-2.1
							c-1.1-0.4-2.3,0.2-2.7,1.3l-5.6,15.9C244.8,68.9,245.4,70.1,246.5,70.5z"/>
					</g>
				</g>
			</g>
			<g>
				<g>
					<path class="st45" d="M252.8,60.5l6,3.3c1.7,1.1,2.5,3.2,2,5.2l-2.6,9l-7.5-3l1.7-5.4l-3.1-2.7L252.8,60.5z"/>
				</g>
			</g>
			<g>
				<g>
					<path class="st32" d="M230.7,72.5l13.4,19.4l6.7-18l7.7,3.6c0,0-2.6,14.6-6.7,23.2c-2.5,5.1-8.7,4.8-11.8,2.7
						c-8.9-5.9-15.7-12.6-15.7-12.6L230.7,72.5z"/>
				</g>
			</g>
			<g>
				<g>
					<g>
						<polygon class="st46" points="223.9,75.6 225.2,75.6 224.3,74.4 						"/>
					</g>
				</g>
			</g>
			<g>
				<g>
					<path class="st5" d="M255.3,64.8c0,0-0.1,0-0.1,0l-3.6-2.2c-0.1-0.1-0.1-0.2-0.1-0.3c0.1-0.1,0.2-0.1,0.3-0.1l3.6,2.2
						c0.1,0.1,0.1,0.2,0.1,0.3C255.4,64.7,255.4,64.8,255.3,64.8z"/>
				</g>
			</g>
			<g>
				<g>
					<path class="st5" d="M253.8,67c0,0-0.1,0-0.1,0l-3.3-2.2c-0.1-0.1-0.1-0.2-0.1-0.3c0.1-0.1,0.2-0.1,0.3-0.1l3.3,2.2
						c0.1,0.1,0.1,0.2,0.1,0.3C254,67,253.9,67,253.8,67z"/>
				</g>
			</g>
			<g>
				<g>
					<path class="st24" d="M194.5,114.7c0,0-0.7,7.5-0.8,20.9s-1,82.1-1,82.1l9.3,1.6l10.2-105L194.5,114.7z"/>
				</g>
			</g>
			<g>
				<g>
					<path class="st24" d="M213.4,125.9l34.1,92.9l6.4,3.9l3.3-4.8l-30.6-104l-11.1-0.8C215.5,113.1,213.5,114,213.4,125.9z"/>
				</g>
			</g>
			<g>
				<g>
					<path class="st32" d="M221.7,68.4l-27.9,0c-5.3,0-11.3,4.7-10.5,10.1l2,6.5l3.6,0.6l4.6,29l32.8-0.3c1.3,0,2.3-1,2.3-2.3
						c0.3-5.8,0.9-21.6,1.2-29.2c0.1-2.9,2.2-5.2,2.1-6.1C231.5,70.5,226.7,68.4,221.7,68.4z"/>
				</g>
			</g>
			<g>
				<g>
					<g>
						<path class="st18" d="M258.4,215.6l7.3,5.3l4.4,2.1c2.2,1.2,2.2,3.2,2.2,3.2h-28.1l1.2-9.1c0.2-0.7,1.5-0.8,1.7-0.2
							c0.5,1.2,2.6,2.1,4.3,2.1c2.5,0.1,3.4-1.7,4.8-3.1C256.8,215.4,257.7,215.2,258.4,215.6z"/>
					</g>
				</g>
				<g>
					<g>
						<polygon class="st5" points="243.8,229.3 272.4,229.3 272.5,226.2 244.1,226.2 						"/>
					</g>
				</g>
				<g>
					<g>
						
							<rect x="261.9" y="220.5" transform="matrix(0.9573 -0.2892 0.2892 0.9573 -52.6104 85.6513)" class="st5" width="3.2" height="0.7"/>
					</g>
				</g>
				<g>
					<g>
						
							<rect x="259.6" y="218.9" transform="matrix(0.9591 -0.2831 0.2831 0.9591 -51.3882 82.9464)" class="st5" width="3.3" height="0.7"/>
					</g>
				</g>
			</g>
			<g>
				<g>
					<g>
						<path class="st18" d="M191.5,215.6l-4.4,5.3l-2.6,2.1c-2.2,1.2-2.3,3.2-2.3,3.2h21.3L203,218c0,0-2.7,0.1-5.2,0.1
							c0,0-0.5-1.2-2-2.7C195.2,214.9,192.5,214.2,191.5,215.6z"/>
					</g>
				</g>
				<g>
					<g>
						<polygon class="st5" points="203.8,229.3 182.1,229.3 182,226.2 203.6,226.2 						"/>
					</g>
				</g>
				<g>
					<g>
						<polygon class="st5" points="186.7,220.7 186.7,220 190.3,220 190.3,220.6 						"/>
					</g>
				</g>
				<g>
					<g>
						
							<rect x="188.5" y="218.2" transform="matrix(0.9993 -3.754576e-02 3.754576e-02 0.9993 -8.0709 7.3087)" class="st5" width="4.1" height="0.7"/>
					</g>
				</g>
			</g>
			<g>
				<g>
					<g>
						<path class="st45" d="M189.5,117.2l1.3,0.8c1.2,0.7,2.6,0.7,3.8,0.1l1.6-0.7l6,2.6c0.6,0.3,1.3,0.2,1.8-0.2l1.6-1.4
							c0.7-0.6,0.7-1.7,0-2.3c-1-1-2.3-2.2-2.2-2.1c0.1,0.1,1.7,0.5,2.7,0.8c0.5,0.1,1-0.2,1.1-0.6v0c0.1-0.4-0.1-0.9-0.5-1.1
							l-5.5-2.2c-1.3-0.6-2.7-0.5-4.3-0.1l-2.6,0.7L189.5,117.2z"/>
					</g>
				</g>
				<g>
					<g>
						<path class="st5" d="M204.3,119.7c0,0-0.1,0-0.1,0l-5.7-3.5c-0.1-0.1-0.1-0.2-0.1-0.3c0.1-0.1,0.2-0.1,0.3-0.1l5.7,3.5
							c0.1,0.1,0.1,0.2,0.1,0.3C204.5,119.7,204.4,119.7,204.3,119.7z"/>
					</g>
				</g>
				<g>
					<g>
						<path class="st5" d="M205.5,118.4c0,0-0.1,0-0.1,0l-5.1-3.7c-0.1-0.1-0.1-0.2,0-0.3c0.1-0.1,0.2-0.1,0.3,0l5.1,3.7
							c0.1,0.1,0.1,0.2,0,0.3C205.7,118.3,205.6,118.4,205.5,118.4z"/>
					</g>
				</g>
			</g>
			<g>
				<g>
					<path class="st32" d="M185.8,71.8c0,0-13.4,15.1-16.4,18.9c-2.9,3.6-2.5,7.8,1.3,11.2c3.4,3,19.8,16,19.8,16l5.6-7.9
						l-14.2-14.5l16.7-15.6L185.8,71.8z"/>
				</g>
			</g>
			<g>
				<g>
					<path class="st47" d="M180.6,97.3l-0.5-0.5l0.9-1l-1.9,0.4l-0.1-0.7l2.9-0.6c0.1,0,0.3,0,0.4,0.2c0.1,0.1,0.1,0.3,0,0.4
						L180.6,97.3z"/>
				</g>
			</g>
			<g>
				<g>
					<polygon class="st47" points="188.3,90.1 187.9,89.6 191.4,86.2 191.9,86.6 					"/>
				</g>
			</g>
			<g>
				<g>
					<g>
						<polyline class="st32" points="213.4,72.5 216.7,74.8 217.8,70.5 						"/>
					</g>
				</g>
				<g>
					<g>
						<polygon class="st47" points="206.8,77.3 201.7,69.3 202.2,69 206.8,76.2 210,72.1 210.6,72.5 						"/>
					</g>
				</g>
				<g>
					<g>
						<polygon class="st47" points="217.2,74.8 212.8,72 213.2,71.5 216.3,73.5 215.6,68.3 216.3,68.3 						"/>
					</g>
				</g>
			</g>
			<g>
				<g>
					
						<rect x="212.2" y="73.3" transform="matrix(0.9991 -4.330030e-02 4.330030e-02 0.9991 -3.8007 9.2912)" class="st47" width="0.7" height="38.1"/>
				</g>
			</g>
			<g>
				<g>
					<rect x="217.5" y="79.1" class="st2" width="8" height="3.9"/>
				</g>
			</g>
			<g>
				<g>
					<path class="st44" d="M209.1,40.1c0.7-0.6,3.9-3.1,4.8-3.5c1-0.4,2.2-0.6,3,0.1c0.4,0.4,0.7,1,0.7,1.5c0.2,1.5-0.4,3.1-1.6,4
						c0.9-0.8,2-1.6,3.2-1.3c1.3,0.3,1.9,2.1,1.4,3.4s-1.7,2.2-2.9,2.9L209.1,40.1z"/>
				</g>
			</g>
			<g>
				<g>
					<path class="st44" d="M199.6,54.7c0,0,0.3,4.4,3.4,4.4l0.2-4.1L199.6,54.7z"/>
				</g>
			</g>
			<g>
				<g>
					<polygon class="st45" points="202.3,51.4 203.4,68.4 211.6,71.8 214.4,68.5 211,56 					"/>
				</g>
			</g>
			<g>
				<g>
					<path class="st45" d="M199.9,49.1c-0.3,5.2,4.5,9.8,9.6,10.6c5.9,1,9.7-3,9.1-9.3c-0.5-5.2-3.7-9.7-8.9-10
						C204.6,40,200.2,43.9,199.9,49.1z"/>
				</g>
			</g>
			<g>
				<g>
					<path class="st5" d="M213.7,52.6c-0.1,0-0.2-0.1-0.2-0.2c0-0.1,0.1-0.2,0.2-0.3c0.2,0,0.7-0.2,0.9-0.5c0.1-0.2-0.3-1.2-0.6-1.8
						c-0.2-0.5-0.4-0.9-0.5-1.2c0-0.1,0-0.2,0.2-0.3c0.1,0,0.2,0,0.3,0.2c0.1,0.3,0.2,0.7,0.4,1.1c0.5,1.1,0.7,1.8,0.5,2.1
						C214.6,52.4,213.8,52.5,213.7,52.6C213.7,52.6,213.7,52.6,213.7,52.6z"/>
				</g>
			</g>
			<g>
				<g>
					<path class="st45" d="M202.8,53.8c0.4,1.4,0.9,2.1-0.4,2.5s-2.8-0.4-3.2-1.8c-0.4-1.4,0.4-2.8,1.8-3.2
						C202.3,51,202.4,52.4,202.8,53.8z"/>
				</g>
			</g>
			<g>
				<g>
					<path class="st5" d="M208.3,47.6C208.2,47.6,208.2,47.6,208.3,47.6c-0.2-0.1-0.3-0.2-0.2-0.3c0.3-0.9,1.4-1.3,2.3-1.4
						c0.1,0,0.2,0.1,0.2,0.2c0,0.1-0.1,0.2-0.2,0.2c-0.8,0.1-1.7,0.5-2,1.1C208.4,47.5,208.4,47.6,208.3,47.6z"/>
				</g>
			</g>
			<g>
				<g>
					<path class="st5" d="M216.6,47.1c0,0-0.1,0-0.1,0c-0.7-0.5-1.3-0.7-1.9-0.4c-0.1,0.1-0.2,0-0.3-0.1s0-0.2,0.1-0.3
						c0.7-0.4,1.5-0.2,2.3,0.4c0.1,0.1,0.1,0.2,0,0.3C216.7,47.1,216.6,47.1,216.6,47.1z"/>
				</g>
			</g>
			<g>
				<g>
					<path class="st44" d="M218.4,48.7l0.1,3c0,0.8-0.6,1.5-1.5,1.5l-0.3,0c-0.5-0.4-1.1-0.6-1.7-0.6l-3.4,0.2
						c-0.9,0-1.8,0.5-2.4,1.2l-0.1,0.2c-0.5,0.6-1.3,1-2.1,0.9l0,0c-0.9-0.1-1.7-0.6-2.1-1.4l-2-4.2l-1.9,2.3l2.3,5.7
						c0.8,2,2.7,3.3,4.8,3.3l6.8,0.2c1.2,0,2.3-0.4,3.3-1.1v0c1.4-1.2,2-3,1.7-4.7L218.4,48.7z"/>
				</g>
			</g>
			<g>
				<g>
					<path class="st2" d="M211.7,53.9l3.3-0.1c0.2,0,0.3,0.2,0.2,0.3c-0.5,0.8-1.9,2.4-3.7,0.1C211.3,54.2,211.5,53.9,211.7,53.9z"
						/>
				</g>
			</g>
			<g>
				<g>
					<path class="st44" d="M204.3,44.4c0.9,0.1,1.8-0.3,2.7-0.6c1.4-0.6,2.9-1.3,4.1-2.2c1.2-1,2.3-2.2,2.7-3.7
						c0.2-0.7,0.3-1.5,0-2.2c-0.2-0.7-0.8-1.3-1.5-1.5c-0.7-0.2-1.4,0.1-2,0.5c-0.6,0.4-1,1-1.4,1.6c-0.4,0.5-0.8,1.1-1.1,1.6
						c0.5-0.7,0.7-1.5,0.7-2.4c0-0.6-0.1-1.1-0.5-1.6c-0.4-0.5-1.1-0.6-1.8-0.5c-0.6,0.1-1.2,0.5-1.6,1c-1,0.9-1.6,2.2-1.9,3.5
						c-0.3,1.3-0.4,2.7-0.4,4.1c-0.2-0.5-0.3-0.9-0.7-1.3c-0.3-0.4-0.9-0.6-1.3-0.4c-0.2,0.1-0.4,0.2-0.6,0.4
						c-1.2,1.2-1.6,3-1.7,4.7c-0.1,0.8-0.1,1.5,0.1,2.3c0.2,1,1.3,4.4,1.6,4.4C201.9,52,205,48.3,204.3,44.4z"/>
				</g>
			</g>
			<g>
				<g>
					<circle class="st5" cx="209.4" cy="49.2" r="0.5"/>
				</g>
			</g>
			<g>
				<g>
					<circle class="st5" cx="215.1" cy="48.9" r="0.5"/>
				</g>
			</g>
			<g>
				<g>
					
						<rect x="222.8" y="91.7" transform="matrix(4.619341e-02 -0.9989 0.9989 4.619341e-02 126.9537 317.0557)" class="st47" width="13.4" height="0.7"/>
				</g>
			</g>
		</g>
		<g>
			<g>
				<path class="st5" d="M209.8,138C209.8,138,209.8,138,209.8,138c-0.1,0-0.2-0.1-0.2-0.3l1.3-11.3l5.8-0.7c0.1,0,0.2,0.1,0.2,0.2
					c0,0.1-0.1,0.2-0.2,0.2l-5.5,0.6l-1.3,11C210,137.9,209.9,138,209.8,138z"/>
			</g>
		</g>
	</g>
	<g>
		<g>
			<g>
				<rect x="303.2" y="138.1" class="st4" width="6.8" height="91.9"/>
			</g>
		</g>
		<g>
			<g>
				<circle class="st4" cx="306.5" cy="134.2" r="6.8"/>
			</g>
		</g>
		<g>
			<g>
				<path class="st4" d="M309.9,223.4h-6.7c-3.2,0-5.8,2.6-5.8,5.8v0.8h18.3v-0.8C315.7,226,313.1,223.4,309.9,223.4z"/>
			</g>
		</g>
	</g>
</g>
</svg>
