<svg xmlns="http://www.w3.org/2000/svg" fill-rule="evenodd" stroke-linejoin="round" stroke-miterlimit="2" clip-rule="evenodd" viewBox="0 0 139 236">
  <ellipse cx="160.7" cy="233.1" fill="#dceefd" rx="55.6" ry="2.9" transform="translate(-77.3 -.1)"/>
  <path fill="#002031" fill-rule="nonzero" d="M93.1 49.6c-.1-.6-.5-1.2-1-1.6l-1.4-1.4c0-.5-.4-.7-.8-.8-.6-.1-1.2.2-1.7.4-.6.2-.9.5-.9 1.2l.2 1.9a24 24 0 001.2 3.8c.4 1 1.2 2 2.4 1.4 1.1-.6.9-1.8.5-2.7a2 2 0 001-.5c.5-.6.6-1.1.5-1.7z"/>
  <path fill="#1bc1d7" fill-rule="nonzero" d="M101.7 68.5L78.6 70l-.4-5.4v-.2a3 3 0 012.8-3l17.1-1.2h.2a3 3 0 013 2.8l.4 5.4z"/>
  <path fill="#002031" fill-rule="nonzero" d="M37.1 48.9l5.8-2.1-.1-.3h1.3c.8.2 1.5.7 1.8 1.6l5.8 16.6c.4 1.2-.2 2.4-1.4 2.8l-6 2.2c-1.2.4-2.4-.2-2.8-1.4l-5.8-16.6c-.4-1.1.2-2.4 1.4-2.8z"/>
  <path fill="#1540eb" fill-rule="nonzero" d="M49 67.4l-6 2.2c-1.2.4-2.4-.2-2.8-1.4l-5.8-16.6c-.4-1.2.2-2.4 1.4-2.8l6-2.2c1.2-.4 2.4.2 2.8 1.4l5.8 16.6c.4 1-.2 2.4-1.4 2.8z"/>
  <path fill="#f4c9db" fill-rule="nonzero" d="M42.5 57l-6.2 3.4a5 5 0 00-2.1 5.4l2.7 9.3 7.8-3.1-1.8-5.6 3.2-2.8-3.6-6.6z"/>
  <path fill="#1bc1d7" fill-rule="nonzero" d="M65.7 69.3L51.6 89.6 46 72.4c-.2-.7-.8-1.1-1.5-1.1l-8.2.3c-.5 0-.9.5-.8 1 .9 3.9 4.5 18.4 8.2 26 2.6 5.3 9 5 12.3 2.8 9.3-6.1 16.4-13.1 16.4-13.1l-6.7-19z"/>
  <path fill="#002031" fill-rule="nonzero" d="M39.9 61.4l-.2-.1c-.1-.1 0-.2.1-.3l3.7-2.3h.3c.1.2 0 .3-.1.4L40 61.4h-.1zm1.5 2.3l-.2-.1c-.1-.1 0-.2.1-.3l3.4-2.3h.3c.1.2 0 .3-.1.4l-3.4 2.3h-.1z"/>
  <path fill="#f4c9db" fill-rule="nonzero" d="M110.2 109.5l-5.9-4a4.8 4.8 0 01-1.5-5.6l3.6-9 7.5 3.8-2.3 5.4 3 3-4.4 6.4z"/>
  <path fill="#002031" fill-rule="nonzero" d="M111.6 107.9h-.3l-3.5-2.6v-.3h.3l3.5 2.6v.3zm1.3-2.1h-.1l-3.2-2.6v-.3h.3l3.2 2.6v.3c-.1-.1-.1 0-.2 0z"/>
  <path fill="#104a4a" fill-rule="nonzero" d="M78.7 126l.4-17 15.6 2.7-.4 15-15.6-.7z"/>
  <path fill="#f48d91" fill-rule="nonzero" d="M72.3 73H71l.8-1.3.5 1.3z"/>
  <path fill="#104a4a" fill-rule="nonzero" d="M106.4 112.4s.7 9.3.9 23.3c.2 14-1.2 85.4-1.2 85.4l-9.7 1.7L88 112l18.4.4z"/>
  <path fill="#104a4a" fill-rule="nonzero" d="M91.1 125.7l-6.8 96.6-6.7 4-3.5-5-1.4-109.7 11.6-.8c.1 0 6.7 2.5 6.8 14.9z"/>
  <path fill="#22aec3" fill-rule="nonzero" d="M105.9 113.4H73c-.7 0-1.3-.6-1.3-1.3v-3h35.5v3c0 .7-.6 1.3-1.3 1.3z"/>
  <path fill="#1bc1d7" fill-rule="nonzero" d="M74 65.3l29-2.5c5.5-.5 12.1 3.8 11.8 9.6l-1.2 4.7-3.6.9-1.3 29c-.1 1.7-1.1 2.7-2.8 2.7l-34.5-.3c-1.3 0-2.4-1-2.4-2.3A412 412 0 0066.9 81c-.4-3-2.7-5.2-2.7-6.1-.2-6.5 4.6-9.1 9.8-9.6z"/>
  <path fill="#82c6f8" fill-rule="nonzero" d="M116.9 230H94.8l.4-8.5h5.4s.6-1.2 2.1-2.7c.6-.6 3.5-1.3 4.6 0l4.6 5.6 1 .8 1.8 1.4c1.3.7 2.1 2 2.2 3.4z"/>
  <path fill="#002031" fill-rule="nonzero" d="M94.4 233.2H117V230h-12.7c-1 0-1.9-.5-2.4-1.4a2.7 2.7 0 00-2.4-1.4h-4.6l-.5 6zm16.9-9h-4.6v-.7h4.6v.8zM104.4 222.3v-.7l5.1.2v.7z"/>
  <path fill="#fe6f43" fill-rule="nonzero" d="M99.1 231h-2.3a.9.9 0 01-.9-.8c0-.5.4-1 .9-1h2.3c.5 0 .9.5.9 1s-.4.9-.9.9z"/>
  <path fill="#59acf5" fill-rule="nonzero" d="M116.9 230h-13.2l1.7-2c.5-.5 1.2-.8 1.9-.8h1c.6 0 1.1-.2 1.6-.6.8-.7 1.8-1.1 2.9-1.4l1.8 1.4c1.3.6 2.2 2 2.3 3.4z"/>
  <path fill="#1bc1d7" fill-rule="nonzero" d="M134.4 82.6l-22.1 17.8-5.8-8.2L121.2 77l-23.8 1.4 6.8-15.7 24.6 1.8c11.5 1 11.7 13 5.6 18z"/>
  <path fill="#002031" fill-rule="nonzero" d="M123.4 77.5l-3.5-.1 3.4-2.3h.5c.1.2.1.5-.1.6l-1.7 1.2h1.5c.2 0 .3.2.3.3-.1.2-.3.3-.4.3zm-16.1.8c-.2 0-.3-.1-.3-.3 0-.2.1-.3.3-.3l5.1-.2c.2 0 .3 0 .3.3 0 .2-.1.3-.3.3l-5.1.2z"/>
  <path fill="#f4c9db" fill-rule="nonzero" d="M93 63.7l-8.3 8.7-3.1-7.6-.2-4-.2-5-.1-4 7.5-6.8L93 63.7z"/>
  <path fill="#eda7c5" fill-rule="nonzero" d="M86.1 53.7l-4.7 7-.2-4.8 4.9-2.2z"/>
  <path fill="#f4c9db" fill-rule="nonzero" d="M83.6 55.2c-5.6 2.5-10.4-.3-11.6-6.7v-.2c-.5-3-.1-6 1.2-8.2 1-2 2.9-3.5 5-4.2a9.6 9.6 0 0112.3 6l.3 1.3c.7 4.7-2.7 10-7.2 12z"/>
  <path fill="#eda7c5" fill-rule="nonzero" d="M90.7 43L72 48.6v-.2c-.5-3-.1-6 1.2-8.2l17.5 3z"/>
  <path fill="#fc0" fill-rule="nonzero" d="M90.7 43l.9-4.8c.2-1-.1-2-.9-2.7l-2.4-2.3a9 9 0 00-8.5-2.3l-4.1 1a3 3 0 00-2.2 2.5l-1.2 6.2h8.9l9.5 2.5z"/>
  <path fill="#f4c9db" fill-rule="nonzero" d="M88.8 47.5c0 1.5-.4 2.4 1.1 2.4s2.7-1.2 2.7-2.6c0-1.4-1.2-2.7-2.6-2.7-1.5-.1-1.2 1.4-1.2 2.9z"/>
  <path fill="#002031" fill-rule="nonzero" d="M68.2 97.8c-.2 0-.3-.1-.3-.3l-1.8-18.2c0-.2.1-.3.3-.4.2 0 .3 0 .4.3l1.8 18.2c0 .2-.2.3-.4.4.1-.1 0 0 0 0z"/>
  <path fill="#82c6f8" fill-rule="nonzero" d="M87.5 230H58.2s0-2.1 2.3-3.4l2.1-1 2.5-1.2 7.6-5.5a2 2 0 012.3.4c1.5 1.5 2.4 3.4 5 3.2 1.8-.1 4-1 4.4-2.2.2-.7 1.6-.5 1.8.2l1.3 9.5z"/>
  <path fill="#002031" fill-rule="nonzero" d="M87.9 233.2H58.2V230h17.5c.6 0 1.3-.2 1.7-.6l2-1.6c.5-.4 1.1-.6 1.7-.6h6l.8 6zM65.8 224.2l.2-.6 3.2 1-.2.6zM68 222.6l.2-.6 3.3 1-.2.6z"/>
  <path fill="#fe6f43" fill-rule="nonzero" d="M85.2 231h-3.8a.9.9 0 01-.9-.8c0-.5.4-1 .9-1h3.8c.5 0 .9.5.9 1s-.4.9-.9.9z"/>
  <path fill="#59acf5" fill-rule="nonzero" d="M74.4 230H58.2s0-2.1 2.3-3.4l2.1-1 1.2 1c.4.4 1 .6 1.6.6h5.5c.7 0 1.4.3 1.9.9l1.6 1.9z"/>
  <path fill="#002031" fill-rule="nonzero" d="M90 141.3c-.2 0-.3-.1-.3-.3l-.6-14.3h-5.6c-.2 0-.3 0-.3-.2s.1-.3.3-.3l6.2-.1.6 14.9s-.1.3-.3.3z"/>
  <circle cx="152.5" cy="45.5" r=".6" fill="#002031" transform="rotate(-8.7 113 553.4)"/>
  <circle cx="157.7" cy="45.7" r=".6" fill="#002031" transform="rotate(-8.7 118.2 553.7)"/>
  <path fill="#002031" fill-rule="nonzero" d="M77.7 49.2c-.1 0-1-.1-1.3-.7-.2-.4 0-1.1.4-2.1l.4-1.1.2-.2.2.2-.4 1.2c-.2.6-.6 1.6-.5 1.8.2.3.7.4 1 .5l.2.2-.2.2zm3.1 1.7l-4.5-.6-.2-.2.2-.2 4.5.6.2.2c0 .2-.1.2-.2.2zm1.9-6.7l-3-.4-.2-.2.2-.2 2.9.4.2.2-.1.2zm-8.6-.4l-.2-.1.1-.3 2.5-.8h.3l-.1.4-2.6.8z"/>
  <path fill="#fff" fill-rule="nonzero" d="M73.3 107.9l-.5-.4 1.9-2.4a8.8 8.8 0 001.8-5.1v-4h20.6v3c0 2.4 1 4.6 2.7 6.2l1.8 1.6-.4.5-1.8-1.6a9.2 9.2 0 01-2.9-6.6v-2.5H77.2v3.3c0 2-.7 4-1.9 5.5l-2 2.5z"/>
  <path fill="#002031" fill-rule="nonzero" d="M90.7 43S78.8 38 70.1 38c-8.7 0 2.3 4 2.3 4l2.6-.4c1.2-.2 2.4-.2 3.6 0L90.7 43z"/>
  <path fill="#002031" fill-rule="nonzero" d="M83.7 41.9s1.8 2.7 4 3.5l.4 2.3 1.3-.1v-3l1.6.2-.3-1.7-7-1.2zM90.3 71l-.2-.1v-.5l4.5-4.6c1.8-2 4.2-3 6.8-3.2.2 0 .3 0 .3.3 0 .2-.1.3-.3.4-2.4.2-4.7 1.3-6.4 3l-4.5 4.6h-.2zM81.9 71l-.3-.1L79 67c-.1-.1-.1-.4.1-.5h.5l2.6 3.9c.1 0 .1.4-.1.5h-.2z"/>
  <path fill="#fff" fill-rule="nonzero" d="M85 72.6l-.5-.5 9.6-10 1.5-.6.3.6-1.5.6-9.4 9.9z"/>
  <path fill="#dceefd" fill-rule="nonzero" d="M2 14a21.2 21.2 0 0140 .3l-3.2 1a17.8 17.8 0 00-33.6-.1L2 14z"/>
  <path fill="#dceefd" fill-rule="nonzero" d="M32.5 13.8l1.1-3.2 5.8 2L41.5 7l3.2 1-3.2 9-9-3.1z"/>
  <g fill="#dceefd" fill-rule="nonzero">
    <path d="M2.6 27.5l3.2-1.1a17.8 17.8 0 0033.6.2l3.2 1c-2.2 6.3-7 11-13.2 13.2-11 3.7-23-2.3-26.8-13.3z"/>
    <path d="M0 33.8l3.3-9.2 9.2 3.3-1.1 3.2-6.1-2.2-2.1 6L0 33.9z"/>
  </g>
  <g fill="#dceefd" fill-rule="nonzero">
    <path d="M21.7 25.3c-.9 0-1.6-.7-1.6-1.6V8.9c0-1 .7-1.6 1.6-1.6.9 0 1.6.7 1.6 1.6v14.8c.1.9-.7 1.6-1.6 1.6z"/>
    <path d="M20.2 23c.4-.7 1.4-1.1 2.2-.7l7.6 3.5c.8.4 1.2 1.4.8 2.2-.4.8-1.4 1.2-2.2.8L21 25.3c-.8-.4-1.1-1.4-.8-2.2z"/>
  </g>
</svg>
